<svg id="Layer_1" data-name="Layer 1" xmlns="http://www.w3.org/2000/svg" viewBox="0 0 1174.34 1047.94"><defs><style>.cls-1{fill:#313f40;}.cls-2{fill:#a5b7bd;}.cls-3{fill:#434c58;}.cls-4{fill:#5c7c83;}.cls-5{fill:#c7dfc4;}.cls-6{fill:#a6bcb1;}.cls-7{fill:#98aea4;}</style></defs><path class="cls-1" d="M1140.85,415.27c3.51,3.32,1,10-2.19,14.1a98.67,98.67,0,0,1-27.3,24.11c-32.85,19.59-73.75,18.48-110.11,30.35a159.09,159.09,0,0,0-46.53,24.27c-2.47,1.86-5,3.9-6.33,6.67s-1.31,6.5,1,8.61c1.93,1.79,4.82,2,7.45,1.88,13.28-.51,25.85-5.77,38.72-9.06s27.43-4.37,38.66,2.75c2.25,1.44,4.38,4.77,2.27,6.41a4.45,4.45,0,0,1-2.12.73L928.23,543.15c-2.07.33-4.36.62-6.11-.54s-2.27-3.05-2.81-4.89c-4.29-14.51-7.87-29.88-8.91-45-.91-13.39,15.69-16.93,26.75-20.86a1893.58,1893.58,0,0,1,194.59-57.5c2.76-.66,5.87-1.25,8.26.27A5.19,5.19,0,0,1,1140.85,415.27Z"/><path class="cls-1" d="M1109.63,380.1c13.23,2.34,26.13,10.89,30,23.75-76.21,19.34-152.7,38.78-225.48,68.52-2.18.89-5,1.68-6.64,0a6.18,6.18,0,0,1-1.34-3.31q-6.93-37.84-12.28-76c-1.11-7.84-7-26.15-1.67-32,5.9-6.51,26.51-10,34.9-13.19l145.92-55c1.9-.72,4.26-1.36,5.78,0a2.91,2.91,0,0,1,.3.31,5.74,5.74,0,0,1,1,3.26c1.34,17.24-13.22,31.66-28.42,39.88-18.66,10.09-39.63,14.87-59.73,21.65s-40.28,16.29-53.29,33.05c-3.32,4.28-6.17,9.12-7,14.47s.77,11.3,5,14.7a19.1,19.1,0,0,0,9.52,3.58c16.43,2.24,32.3-5.74,47.36-12.69a451.27,451.27,0,0,1,76.29-27.2C1082.86,380.55,1096.42,377.76,1109.63,380.1Z"/><path class="cls-1" d="M1124.29,822.54c-1,18.46-.81,37.13-4,55.46-6.15,5.35-11.85,5.79-17.59,6.19-25.41,1.76-50.84,2.89-76.33,2.39-5.14-.11-10.28.22-14,.31-4.1,2.12-4.08,5-4.88,7.35a43.71,43.71,0,0,0-1.9,7.53c-4,26.21-10.88,51.82-16,77.79-1.2,6.1-3.15,12-7.77,16.76l-6.59-.48c-4.8-6.39-8.19-13.35-11.48-20.36-7.07-15.08-12-30.93-16.83-46.84-4-13.41-8.42-26.72-12.75-40.39-2.84-.56-5.29-1.4-7.78-1.49-21.82-.78-43.63-1-65.36,2-6.66.93-13.48.84-20.22,1-66.54,1.44-133.06.14-199.59-.18-33.76-.16-67.56,1.13-101.29,2.75-61.79,3-123.58,5-185.44,4.31-25.49-.3-50.92,1.07-76.37,2.08-15,.59-30.13.45-45.19.64-4.13,0-8.33-.72-12.89,1.62-1.87,4.23-4.31,8.84-6,13.72q-12.65,36-24.9,72.11A73.24,73.24,0,0,1,180.4,1005l-6.53.35c-4.38-4.19-7.83-8.62-9.77-14.11-4.51-12.71-9.4-25.26-12.82-38.39-4.45-17-10-33.81-15.19-50.69a23.58,23.58,0,0,0-1.83-3.76c-3.42-2.89-7.19-2.38-10.76-2.36-19.23.1-38.46.39-57.69.44-8.31,0-16.63-.26-24.94-.61-5-.22-5-.41-12.86-6.1-3.33-13.87-2.38-28.32-1-42.79.45-4.78,1.72-9.18,5.19-13.1,3.73-3.59,8.67-5,14-5.14,7.8-.28,15.59-.41,23.38-.66,12-.39,23.89-.78,35.83-1.29a46.85,46.85,0,0,0,6.49-1.25c1.56-8.45-.43-16.64-.16-24.79.28-8.3-.2-16.62-.44-24.94s.75-16.52-.76-24.87l-20.25-4.39c-1.51-3-3.34-5.63-4.12-8.5a76.39,76.39,0,0,1-2.25-30c5.62-6.54,13.83-3.1,20.11-8a19.53,19.53,0,0,0,.8-5c-.54-8.81-1.2-17.62-2-26.41-1-10.87-2-21.72-.11-32,3.14-6.27,8.18-8.73,14.16-9.2,7.25-.57,14.53-.83,21.8-.92,18.71-.23,37.42-.23,56.14-.44,3.57,0,7.13-.6,10.44-.9,2.06-5.19-2.19-8.17-3.11-13.8V592c-4.48-7.59-10.59-14.63-17-21.37a185.21,185.21,0,0,1-29.76-41.73,65.49,65.49,0,0,1-7.1-39.22c1.52-12.67,7.36-22.58,19-28.57,1.84-.94,3.72-1.83,4.12-2,23.42-7.15,44.68-.49,66.44,3.16,1.41-1.9,3-3.33,3.71-5.11,2.42-5.72,4.55-11.56,6.54-16.73,5-4.52,10.79-5.54,16.24-7a104.42,104.42,0,0,1,16.83-3.15c33.61-3.49,67.27-6.21,101.11-5.47A77.36,77.36,0,0,1,393,425.9c2,.33,3.9,1.29,6.28,2.13,1.49,2.46,3.46,4.93,4.6,7.73,3.5,8.65,6.76,17.41,10,26.17,4.29,11.7,8.4,23.46,12.76,35.13.64,1.72,2.24,3.09,3.51,4.76,17.42-21.89,31.93-42.32,39.34-55.41.37-9.93.5-20.27-1.69-30.55a46.68,46.68,0,0,1-.49-16.39c2.66-4.19,6.26-5,9.91-4a53.59,53.59,0,0,1,13.08,4.83c9,5.16,17.66,10.91,26.4,16.5,5,3.19,8.16,7.84,10.81,13.79-1.42,1.93-2.63,4.21-4.41,5.9-10.17,9.66-20.48,19.18-31.28,29.25-14.92,33-27.47,67.68-41.94,101.14.74,3.69,1.33,6.72,2,9.75,2.21,10.67,4.65,21.3,6.52,32,.71,4,.11,8.22.11,13.07,3.4.3,6.92.9,10.43.87,17.67-.09,35.35-.38,53-.51,5.16,0,10.33.26,14.27.37,5.15,3,7,6.68,7.54,10.91a123.48,123.48,0,0,1,1.13,14c.19,8.32,0,16.63.11,24.95,0,3.58-.56,7.26,1.14,10.66,1.21,2.18,3.38,2.31,5.4,2.35,5.18.13,10.38.05,15.54.05l10.31,7.16c4.12,8.22,6.22,16.81,8.53,25.29a57.13,57.13,0,0,1,1.71,10.73,44.72,44.72,0,0,1-.56,7.31c-6.6,7.34-16.51,3.7-23.33,8.53-.37,1-1.07,1.93-1.07,2.89q.09,32.73.36,65.46c0,.92.82,1.84,1.49,3.24,1.67.37,3.66,1.18,5.65,1.17q31.15-.15,62.33-.59c.89,0,1.77-.91,2.65-1.39,1.11-6.9.78-30.64-.24-49.39-.91-16.55-3.41-33.07-1.5-48.67,3.6-8,11.25-8.4,17.38-12,.16-4.15.44-8.22.49-12.31.14-10.91.09-21.83.29-32.73.2-10.48,3.65-20.2,6.45-31.07,2.33,1.62,4,2.18,4.51,3.27a33,33,0,0,1,2.68,8.81c2.38,19.58,4.57,39.19,6.86,59,.69.67,1.41,1.39,2,2l3.48-.7c.47-1.26,1.45-2.68,1.42-4.08-.21-8.83-.17-17.71-1.1-26.48-2.33-22.3-2-44.65-1.48-67,.16-7.21,1.82-14.39,3-21.56.12-.83,1.25-1.51,2.22-2.6l4.49,1.52c3.09,19.34,6.37,38.72,9.22,58.17s5.27,39,7.89,58.67l4.23,1.35c2.38-2.3,2.23-4.89,1.94-7.49-2.25-20.18-2.2-40.45-2.26-60.72,0-5.19.43-10.38.79-15.56.33-4.67,1-9.28,3.44-13.29,2.6-1.22,4,.12,4.8,2.18a31.94,31.94,0,0,1,1.75,6c4.6,25.56,10.1,51,11.3,77.06.16,3.53,1,7,1.57,10.65,2,.29,3.45.51,4.66.7,2.79-2.83,2.26-6,1.89-9.08a685.85,685.85,0,0,1-5.46-88.55,463.66,463.66,0,0,1,4-52.85l3.46-2.92,3.57,2.06c4.64,24.37,6.88,49.69,10.25,74.81s5.07,50.52,7.54,76.22c6.07,3.76,14.82,2.28,20,11.25a59.42,59.42,0,0,1,2.85,17.86c.22,12.48.38,24.95.93,37.42.68,15.56,1.71,31.11,2.68,46.67a8.27,8.27,0,0,0,1.25,2.67c9.77,2.14,15.16,1.93,25.55-1,2-2.12,1.81-4.79,1.48-7.3-3.73-27.39-3.13-55-3.17-82.48,0-18.19.42-36.39,1.1-54.56.35-9.33,1.66-18.61,2.54-27.92,2.35-4.17,4.62-8.22,6.74-12a36.43,36.43,0,0,1,4.24-2.82c8.2-3.89,17-4.42,25.87-4.45,14,0,28.07,0,42.1-.09,3.55,0,7.09-.68,10.69-1.06.37-2.09,1.18-3.72.83-5-4.3-15.88-4.71-38.59-20.43-48.3-6.47-4-14.44-4.49-22-4.87-25.13-1.26-50-2.39-74.34-9.37a9.5,9.5,0,0,1-3.58-1.6c-1.4-1.16-1.81-3.24-1.84-5a.73.73,0,0,1,.17-.56.79.79,0,0,1,.37-.14c19.58-3.08,39.41-4.26,59-7.36.69-.11,1.41-.17,2.08-.34,10.23-1.69,20.25-4.52,30.44-6.44s20.14-4.28,30.38-5.33c3.88,5.94,4,12.35,4.87,18.39,1,7.74,2.83,15.23,4.53,22.82,2.71,12.12,3.82,24.61,5.42,37,.6,4.62.7,9.31,1,13.39,1.76,3.23,3.83,4.13,7.34,2.38,3.29-10.42-.73-21.12-1.06-31.82-.34-10.88-6-20.95-6-32.34,7.07-4.1,14.64-6,22.2-7.29,22.49-3.78,44.73-9.19,67.54-11.1,5.69-.47,11.3-1.69,17-2.45,2.53-.34,5.15-1,7.53.62.84,2.94-.68,5-2.73,6.67a53.82,53.82,0,0,1-20.75,10.3q-19.72,4.86-39.38,10c-3.53.92-7.12,1.86-10.25,3.76-13.6,8.3-14.33,28.22-14.09,42.23.08,4.61-.3,9.35,1.87,12.62,3.69,3.62,7.43,3.42,11,3.62,23.31,1.31,52.13-1.44,74.44,5.61,13.22,4.17,22.41,13.49,22.8,27.43.83,30.13,1.5,60.26-.63,90.38-.66,9.32-.55,18.7-.72,28-.17,8.82.25,17.67-2.13,26.34a7.13,7.13,0,0,0,1.59,7.2c.94.44,1.85,1.23,2.78,1.25,8.82.21,17.64.4,26.47.36,7.26,0,14.53-.56,21.79-.49,3,0,6.06,1.05,9.4,1.67C1120.23,816.16,1122.16,819.18,1124.29,822.54ZM1108,867.31c3.45-11.2,2.83-23.12,2.06-35-.12-1.9-1.2-3.75-2-6.08-3.94-.29-7.5-.78-11-.72-5.19.07-10.37.69-15.56.81q-37.4.87-74.81,1.58c-18.19.34-36.38.38-54.56.81s-36.34,1.57-54.5,1.72c-92.49.77-185-.07-277.47,2.51-56.61,1.58-113.26,1-169.87,3.36-23.36,1-46.77.13-70.15.55q-29.6.52-59.19,2.07c-44.1,2.35-88.14,6-132.36,4.8-13-.36-26-.44-38.86-2.46a113.34,113.34,0,0,0-17.1-.87q-35.09-.12-70.16,0a130.54,130.54,0,0,0-14,.7c-1.91.21-3.7,1.52-5.18,2.18-3.41,14.72-3.37,22.63.18,36.3,2.19.47,4.64,1.37,7.13,1.49,9.86.43,19.73.75,29.6.89,22.34.31,44.7.14,67,.79,27,.78,54,2.3,81,3.3,13,.48,26,1.2,39,.57,34.28-1.68,68.58-1.17,102.87-1.51,9.87-.09,19.73-.66,29.59-1.06,16.09-.66,32.18-1.46,48.26-2,28-1,56.13.18,84.1-2.75,2.06-.22,4.15-.16,6.23-.18,33.26-.18,66.52-.27,99.77-.54,30.66-.25,61.36.19,92-1.27,35.8-1.71,71.66-1.24,107.44-4.26,22.72-1.92,45.7-.89,68.56-1,13.51-.09,27,.52,40.53.13,33.26-1,66.51-.15,99.76.38,16.1.25,32.2-.42,48.31-.77C1099.21,871.57,1103.92,871.31,1108,867.31Zm-57.79-162.39a9.62,9.62,0,0,0,.36-11c-1.3-.49-2.25-1.15-3.19-1.15-20.25.23-40.51.57-60.76.76-3.09,0-6.39,0-9.23-1-12.51-1.25-10.22-1.59-15.39-1.79-16.1-.63-32.13-2.08-48.11-4.12-14.91-1.9-29.86-3.52-44.77-5.34-6.17-.76-12.3-1.79-18.47-2.53-8.72-1-17.45-1.95-26.18-2.87-.39,0-.83.47-1.59.92-2.36,3.59-1.9,7.49,0,11.66,1.29.56,2.65,1.54,4.1,1.71,12.86,1.57,25.91,1.44,38.62,4.31,14.63-.8,28.85,3,43.31,4.11,24.81,2,49.5,5.37,74.44,5.81a42.52,42.52,0,0,1,4.66.22c19.67,2.4,39.4,2.35,59.14,1.57C1048.12,706.08,1049,705.41,1050.24,704.92Zm-.21,16.4c1.63-2.87,2.25-5.72-.37-8.42a9.43,9.43,0,0,0-2.84-1.12c-4.14-.2-8.3-.2-12.44-.28-10.37-.22-20.83.32-31.1-.86-14.42-1.66-28.91-2.12-43.34-4.19-16.88-2.42-34.1-2.55-51.18-3.66-4.14-.28-8.33-.24-12.42-.9-19.42-3.11-39.23-3.22-58.49-7.81-3.92-.93-8.26-.22-12.39-.08-.93,0-1.82.85-2.74,1.31-1.76,3-1.79,5.78.62,8.44a9.9,9.9,0,0,0,2.75,1.39c15.31,2.61,30.57,5.83,46,7.48,14.38,1.54,28.87,2.21,43.31,3.41,11.84,1,23.58,2.12,35.19,5.17-14.48-.21-29,1.21-43.39-1.13-10.23-1.66-20.45-3.72-30.75-4.38-7.8-.49-15.36-2.05-23-2.84a210.34,210.34,0,0,1-23.06-3.22c-2.41-.53-5.1-.89-8.21,1.5-1.31,4.3-1.84,9.15,1,14.19,4.74.67,9.32,1.36,13.91,1.93,11.82,1.49,23.65,4.14,35.47,4.09,18.78-.06,37.15,3.52,55.79,4.54,21.72,1.19,43.13,6,65,6.5a33.08,33.08,0,0,1,4.63.57c16,2.65,32.07,1.64,48.13,1.08,1.33,0,2.6-1.35,3.71-2,1-4.4,1.82-8.43-1.68-12.74-6.66-1.54-13.93-.66-21.1-.82-6.74-.15-13.51.19-20.24-.14-7.24-.35-14.47-1.17-21.69-1.92s-14.25-1.65-21.37-2.49c8.27-2.47,16.51-1.3,24.69-1,19.71.81,39.4,1.78,59.09-.06C1048.34,722.85,1049.16,721.89,1050,721.32Zm.06-56.55c2.37-6.1,2.48-6.12-1.13-10.78-1-.18-2.1-.72-3-.49-12.75,3.07-25.81,2.67-38.73,2.85-18.14.25-36.35,0-54.43-1.43-11.38-.88-22.72-2-34.14-2.11-14.57-.14-28.89-2.64-43.25-4.65-12.83-1.79-25.54-4.49-38.33-6.62a53,53,0,0,0-9.27-.39c-.9,0-1.78.84-2.67,1.29-1.78,2.37-1.91,4.67,1.14,7.72,12.76,2.05,26.4,5.27,40.2,6.14,11.38.73,30,5.38,43.14,6.59,1.22.9,2.3,2.2,3.66,2.62.78.23,1.58.47,2.38.68-14.5-1-34.53-4.63-49-6.09s-28.6-3.69-43.22-5.62c-2.33,5.91-2.92,11.18.42,16.93,5.32.6,10.51.77,15.51,1.81a246.9,246.9,0,0,0,43.07,5.58c2.06.07,4.1.55,6.16.82,5.64.74,11.27,1.65,16.94,2.17,15,1.37,30,2.52,45,3.84,2.06.19,4,1,6.09,1.25,22.71,2.84,45.48,4.66,68.38,3.45,8.24-.44,16.45-1.62,24.34-2.43,3.91-8.56,3.91-8.74.29-16.68-1.81,0-3.84,0-5.88,0l-36.3.3,0-2.13c13.4-.13,26.75-.79,40-3.13A9.3,9.3,0,0,0,1050.09,664.77Zm-.39,98.37c-.31-4.83,2.52-9.34-1.65-13.78-14.83-.8-29.78-2.17-44.72-2.24-15.59,0-30.76-4.11-46.31-4a4.92,4.92,0,0,1-1.52-.28c-6-2.07-12.29-1.59-18.48-2.13-8.76-.76-17.51-1.69-26.26-2.64-12.35-1.34-24.7-2.77-37-4.13-3.09-.34-6.38,0-9.25-.95-6.59-2.22-13.31-1.74-20-1.88s-13.44,0-20,0l-2.7,2.54c0,4.23-1.78,9,2.59,13.23,1.63.24,3.63.66,5.66.82q13.14,1.07,26.32,2c5.16.38,10.34.86,15.51,1,14.49.32,28.9.22,43.38,2.24,16.39,2.29,33,3.13,49.58,3.78,15.61.62,30.92,2.91,46.24,5.68,10.17,1.84,20.44,3.59,30.86,2.89C1044.32,765.07,1046.69,764,1049.7,763.14Zm-.29,9.49c.08-.86-.66-1.79-1-2.71-2.15-1.88-4.84-1.54-7.37-1.61-19.19-.55-38.21-2.83-57.2-5.39-6.67-.9-13.25-2.73-19.93-3.24-27.38-2.11-54.76-4.28-82.19-5.62-18.61-.92-37.25-1-55.72-3.86-.82-.12-1.8.74-2.71,1.15-1.76,5.76-1.76,5.76-.29,12.19,1.64.62,3.48,1.76,5.42,2,5.16.55,10.35.78,15.53,1,20.69,1,41.41,1.58,62.08,2.94a355.27,355.27,0,0,1,35.43,4.43,107.35,107.35,0,0,0,13.82,1.42c14,.56,28,.56,41.9,2.42a226.5,226.5,0,0,0,41.91,1.37c3.06-.16,6.28,0,9.28-2.78A17.7,17.7,0,0,0,1049.41,772.63Zm-4,15.16c.66-.35.78-1.71,1.15-2.61-.41-.31-.79-.8-1.25-.91a17.65,17.65,0,0,0-4.5-.75c-22.87.81-45.59,0-68.17-4.33-7.07-1.36-14.47-.93-21.69-1.58s-14.4-2.27-21.61-2.3c-20.79-.09-41.34-3.28-62-4.38-4.65-.24-9.42-.23-13.93-1.27-8.22-1.9-16.49-1.59-24.77-1.67-2,0-4.19.07-5.57,2-.4.95-1.14,1.87-1.13,2.78.08,6.69.15,13.39.56,20,.16,2.59,1.43,5,4.89,6.72,1.08.16,3.11.54,5.15.76,13.93,1.48,27.83,3,41.6,5.79,23.6,4.81,47.44,4.15,71.29,2.18,6.2-.51,12.4-1.11,18.61-1.35a206.85,206.85,0,0,0,44.36-6.3c-9.3-.44-16.52-.93-23.75-1.1-10.9-.24-21.8-.22-32.7-.4-3.11-.05-6.35.16-9.28-.67-12.61-3.54-25.58-3.85-38.49-4.86q-22.49-1.77-45-3.69a21,21,0,0,1-6.12-1c-4.47-1.83-9.14-1.58-13.77-2l.06-1.93c19.06.61,37.74,2.95,56.5,3.93,8.05,2.54,16.42,2.1,24.68,2.63,2.59.17,5.24,0,7.77.42,20.55,3.81,41.38,2.69,62.09,3.34,16.08.52,32-2.11,47.91-4.61C1040.71,790.28,1043.09,789,1045.37,787.79Zm-10,11.57,6.48-3.94c-10.78-1.95-10.78-1.95-23.47,2.89C1021.64,801,1021.64,801,1035.4,799.36Zm-36,94.09c.38-1.44.05-3.05.05-5.05-2.06-.57-4-1.46-5.91-1.57-17.79-1.06-38.5-.22-48.39,1.92.27,2.41.2,5,.87,7.35,7.89,27.34,18,53.95,27.05,80.9.63,1.87,2,3.5,2.86,5,3.86-.28,4.61-2.8,5.05-5.3C985.9,948.7,992.1,921,999.4,893.45ZM775.29,768.87q.16-21.79,0-43.59c0-3-.86-6-1.29-8.85-5.45-1.71-9.68-.58-13.78,3-.22,1.77-.83,3.83-.67,5.83q3.54,43.41,7.31,86.82c.07.91,1,1.76,1.49,2.63,2,1,3.85,1.18,5.63-1.39a23.07,23.07,0,0,0,.68-4C774.91,795.84,775.19,782.36,775.29,768.87ZM759,810.93a50,50,0,0,0-.15-7.74c-2.76-24.73-5.34-49.47-4.8-74.42a29.73,29.73,0,0,0-.59-6.17c-.18-.91-1-1.69-1.7-2.7-4-1.24-7.87-1.61-11,2.08a10.84,10.84,0,0,0-.76,3c.75,13.43-.41,27,2.84,40.24.61,2.48.48,5.15.68,7.73,1,12.91,2,25.81,3.08,38.71.08.9,1,1.72,1.51,2.59,2.81,2,5.78,1.68,9.41.41C758.31,812.79,759,811.87,759,810.93Zm-22.48,3.89c.86-2,1.63-2.93,1.6-3.85-.3-10.34,0-20.76-1.31-31a252.23,252.23,0,0,1-2-29.42c-.06-6.73,0-13.47-.13-20.2a57.28,57.28,0,0,0-.87-6.79c-3.33-3-6.52-2.3-9.54-2.24-2.62.06-5.19.4-6.51,3.28-.72,26.92,2.25,53.67,5.72,80.38.39,3,1.14,6,1.64,8.52C728.93,816.44,732.45,815.9,736.55,814.82Zm-20.1-1.1c.2-1.67.82-3.7.63-5.64-.88-9.28-1.42-18.64-3.13-27.77a192.74,192.74,0,0,1-3.75-38.61c.07-4.15,0-8.3-.18-12.45a28.31,28.31,0,0,0-1.13-5.19c-3.54-2.6-6.53-2-10.63-.73-.64,2.18-1.46,3.62-1.42,5.06.18,7.25.48,14.5,1,21.74Q699,768,700.44,785.78c.72,8.76,1.62,17.51,2.55,26.26.1.9,1,1.71,1.54,2.69C708.39,816.54,712.22,816.88,716.45,813.72Zm-21.19-.35c.73-28.58-3.24-56.89-5.32-85.32-.11-1.44-1.19-2.8-2.09-4.8l-10.76-.51c-1.07,2.67-1.9,3.68-1.77,4.54,4.51,28.2,6.1,56.71,8.77,85.1.09.91,1,1.74,1.57,2.66C689.21,816.75,692.51,816.88,695.26,813.37Zm-19.66,1.21c1.42-6.17.73-11.84.63-17.49-.39-23.89-3.84-47.46-7.52-71-.14-.89-1.15-1.65-1.78-2.5-3.52-1.53-6.9-2.26-9.52,1.93a37.34,37.34,0,0,0-.26,4.47c1.07,20.19,2.11,40.38,3.35,60.56.45,7.23,1.42,14.43,2.27,21.63.11.91,1,1.72,1.47,2.62C667.52,817,670.91,816.89,675.6,814.58Zm-19.12-2c-1.42-28.39-5.18-57.73-6.83-87.21,0-.89-1-1.73-1.81-2.92h-5.06c-2.4,3.33-1.9,6.54-1.67,9.58q3.1,40.36,6.42,80.71c0,.46.46.9.74,1.32s.61.83.93,1.25C651.79,816.38,654.21,816.75,656.48,812.63Zm-81-87.24a64.64,64.64,0,0,0-7.15-26.72c-2.67-.63-4.17-1.3-5.66-1.28-13.51.19-27.07-.18-40.51,1-23.33,2-46.72,3-70.05,2.89s-46.71,2-70,3.82c-25.9,2-51.73,4.48-77.74,5.09-24.92.58-49.85,2.23-74.71,4.19a284.48,284.48,0,0,1-46.7.17c-27.5-2.36-55-1.76-82.58-1.08-2.62.06-5.17.51-7.36,3.68-1.32,6.52-.78,13.41,3.78,20,2.83.36,5.36.87,7.92.95,16.61.57,33.27,1.92,49.85,1.34,19.25-.69,38.43.58,57.63.42,24.93-.22,49.87-1.11,74.8-2,15-.54,30.07-2.24,45.11-2.46,53-.81,106-1.17,159.05-1.78,17.15-.19,34.31-.44,51.45-1,8.81-.31,17.61-1.34,26.39-2.27A7.39,7.39,0,0,0,575.46,725.39Zm-25.29,89.43c.89-10.14,1.06-48.18.16-56a18.38,18.38,0,0,0-1.45-4.1c-2.2-1.17-4-1.43-6.22,1.59-1.51,17.57-.23,36.06,1.31,54.53.16,1.93,1.27,3.77,2.07,6Zm-16.46-4.71c2.14-17.86,1.24-32.88,1.3-47.85,0-1.94-.63-3.88-1-6.29-.78,1-1.36,1.38-1.37,1.8-.23,11.37-.47,22.74-.52,34.1C532,797,531.82,802.17,533.71,810.11Zm.46-132.55c2.3-11.9,2.29-32.45-.13-43-.2-.87-1.29-1.52-2-2.31-4-1-7.93-1.87-11.84,1.44a47.58,47.58,0,0,0-.75,6c0,12.39.14,24.77.24,37.73C525.63,680.69,529.94,679.9,534.17,677.56Zm-11.51,139c0-18.94,0-37.63,0-56.33,0-2.52.13-5.21-2.55-7.43-3.94-2.17-8.71-1.4-13.3-1.32-23.39.41-46.76,1-70.14,1.56-18.18.47-36.36,1.11-54.54,1.61-32.72.89-65.45,1.88-98.17,2.5-14.55.28-29.11-.49-43.65-.3-18.72.24-37.41.65-56.11-.67-7.76-.55-15.58-.23-23.39-.15a73.46,73.46,0,0,0-7.79.88c-1,2.09-1.45,2.54-1.43,3,.43,18.67.84,37.35,1.46,56,.07,1.81,1.56,3.57,2.46,5.54,3.61.21,6.69.54,9.77.54,24.95.07,49.9.38,74.85,0,44.68-.66,89.36-.78,134.06-2.31,45.17-1.54,90.42-2.2,135.64-.74,2.59.08,5.19,0,7.79,0C519.74,818.84,521.64,818.27,522.66,816.51ZM512.15,677.12c1.45-11.75.59-24.16.7-36.52a64.12,64.12,0,0,0-1-8l-6-.9c-.86,1.27-1.91,2.11-1.93,3q-.39,21-.48,41.91c0,.87.95,1.74,1.57,2.81C507.63,680.72,509.78,679.83,512.15,677.12Zm-5.67-236.3c.6-.62.5-1.9.72-2.88-12.94-9-20.72-13.26-29.59-16-1.78,7.31-.68,14.19,1.72,20.91a36.32,36.32,0,0,0,17.17,7.92C500,447.33,503.31,444.16,506.48,440.82Zm-9.86,231.91c.27-12.42.23-24.86.17-37.29,0-.84-1-1.68-1.94-3.06-5.63-1.7-11.85-.94-18-.67-24.87,1.06-49.74,2.29-74.61,3.46-5.18.24-10.36.46-15.54.72-33.16,1.71-66.32,3.07-99.48-.13a98.63,98.63,0,0,0-10.88-.26q-41.22.64-82.44,1.38-17.89.32-35.78.84c-3,.1-6.3-.41-9.12,2.49a15.68,15.68,0,0,0-1,3.94c-.09,15.59,1.53,31.06,3.46,46.51.11.91.95,1.73,1.5,2.67,2.06,1.94,4.74,1.61,7.27,1.54,6.74-.17,13.48-.65,20.21-.67,21.79-.08,43.59.29,65.36-.06,31.13-.49,62.24-1.55,93.35-2.19,24.92-.52,49.74-2.45,74.51-5,23.22-2.34,46.48-4,69.79-5.23,3.54-.18,7.07-.83,10.81-1.28C495.22,677.61,496.58,675.19,496.62,672.73ZM482.14,465.37a64.35,64.35,0,0,0,1.94-6.27c-1.3-4.17-3.48-5-7-4.39-14.62,22.57-28.82,45.88-40.89,69.86,3.73,16.67,4.81,19.51,9.91,26.22a11.08,11.08,0,0,0,2.05-2.26C460.72,521.33,470.91,493.13,482.14,465.37ZM439.49,617.94c3.85-3.78,5.21-7.67,4.4-12-1.15-6.11-1.95-12.46-4.33-18.11-4.44-10.6-7.24-21.61-10.32-32.6C426,543.77,422,532.5,418.56,521.09c-2-6.45-3.71-13-5.23-19.54-4.33-18.71-10.25-36.94-16.6-55-.63-1.8-2.19-3.26-3.71-5.43-5.32,3.19-11.48,2.16-16.52,5.76-2.37,8.6,1.7,17.53-1.48,26.76-1.44-1.6-2.86-2.51-3.21-3.73-1.46-5-2.54-10.06-3.85-15.08-.63-2.42-.65-5.22-3.41-6.55-13-.07-19.73,1.3-26.89,5.6,0,6,.14,12.17-.13,18.35,0,1.06-1.8,2.05-2.72,3-3.9-2.51-3.87-6.34-4.7-9.79s0-7.32-3.69-10.9c-1.69-.12-4.22-.47-6.73-.44-5.68.07-11.36.34-16,.5L298,459.15l-6.64-3.68c-8.39-.68-16.57-2.69-24.05,1.38-3.44-2.39-6.44-4.67-10.51-1.43-4.07,7.48-6.58,15.93-8.78,24.46-6.84,26.62-13.57,53.26-20.39,79.88-1.41,5.52-3,11-4.64,16.45a72.28,72.28,0,0,0-3.24,18.34c-.35,9.36,1.89,17.51,9.95,23.49,15.27,6.37,25.95,7.68,39.38,4.62.42-2.27.94-4.75,1.36-7.25,1.09-6.66,2-13.35,3.33-20,.22-1.12,1.94-1.94,3.76-3.64,3.92,11.17-2.79,21.18-.21,33.81,21.19.55,41.8-1.29,60-.64,4.73-1.37,5.51-4.83,8.74-4.3l4,3.7c5.76.88,12.3,1.82,19.19-1.22-.75-6.39-1.46-12.44-2.16-18.45l4.52-2.57c1.19,1.26,2.23,2.36,3.33,3.54.37,4.16.59,8.31,1.16,12.41A34.51,34.51,0,0,0,378,624c9.76,1.45,18.88,2.68,26.89-1.8C417.51,623.54,429.17,623.06,439.49,617.94ZM232,475.11c-.52-2.07-.86-3.45-1.35-5.38-19.36-4.61-38.68-7.18-57.77-2.82a29.86,29.86,0,0,0-16.06,17c-3.17,8.06-3.74,16.21-1.11,24.36,1.89,5.88,4,11.88,7.12,17.17a296.76,296.76,0,0,0,35.89,48.8,57,57,0,0,0,4.8,4.23c5.11-3.23,4.65-7.88,4.37-12.72a26.52,26.52,0,0,0-2.63-3.54c-10.78-10.61-19.25-23-28.15-35.16-9.24-12.59-12.16-26-9.11-41,5.59-7.43,13.35-9.93,21.93-10.11,10.89-.22,21.77.08,32.66,0C225.61,475.92,228.61,475.42,232,475.11Zm-2.29,17.27c.14-.95-.27-2-.58-3.89-5.68-3.85-11.5-3.92-17.13-3.95-10.27,0-20.67-2.4-29.58.68-4.93,3.33-6.55,7-6.87,11.35-.37,5.24,0,10.44,2.39,15.21,2.79,5.53,5.61,11.08,8.83,16.37,5.42,8.86,11.4,17.34,19.08,24.45,1.5,1.4,3.16,2.78,5.53,1.93.37-.32,1-.56,1.11-.94q7.91-26.8,15.7-53.61A56.17,56.17,0,0,0,229.73,492.38ZM203.55,905.49c.59-2.06.83-4-1.15-6a17.93,17.93,0,0,0-4.07-1q-22.46-.9-44.94-1.52c-1.33,0-2.7,1-4.44,1.73,1,6.81,1.73,13.45,3.74,19.89,3.23,10.36,7,20.6,9.56,31.12,3.09,12.66,8.68,24.31,13.16,36.41.41,1.08,1.85,1.78,2.8,2.66,2.7-2.67,3.39-5.71,4.19-8.7,2.17-8,4.27-16,6.54-23.94Q196.17,930.82,203.55,905.49ZM145,820c1.12-14.23-.71-47.83-3.34-61.27-.86-.19-1.71-.39-2.58-.57-.43.89-1.29,1.82-1.23,2.68,1.16,19,0,38.12,2.86,57,.14.91,1.07,1.69,1.63,2.53Zm-2.08-126.26c.49-1,1.4-2,1.28-2.85-2.45-16.24-.66-32.93-5.07-49-.24-.88-1.2-1.55-1.83-2.32l-3.31-.17c-3.25,8.4-1.11,17.15-.74,25.67.41,9.58,1.11,19.34,4.93,28.63ZM131.4,820.61c.42-.93,1.26-1.88,1.21-2.79q-1.47-28.65-3.17-57.3c-.06-.87-1-1.69-1.65-2.74l-4.64,2.73c-.72,16.71-1.12,33.71,1,50.67.44,3.48,1.06,7.22,4.3,9.58Zm-2.48-127.13c.19-2.82.74-5.85.52-8.8-1-13.94-2.27-27.86-3.52-41.78a9,9,0,0,0-1.29-2.74c-5.66-1.95-5.66-1.95-10.68,2.67-1.77,12-.71,24.37.25,36.71a20.19,20.19,0,0,0,6.45,13.8,38.65,38.65,0,0,0,4.55.85A16.86,16.86,0,0,0,128.92,693.48Z"/><path class="cls-1" d="M1072.38,272.36c3.38,2.48,6.43,7.5,3.45,10.45a8,8,0,0,1-2.92,1.6L980,319.67c-18.66,7.09-37.33,14.17-56.12,20.89-10,3.59-20.18,7.08-30.72,8.52a5.38,5.38,0,0,1-3.33-.27c-1.49-.83-1.88-2.76-2.09-4.45q-3.72-28.42-5.38-57.06c-.63-10.87-7.09-41.53,2.38-49.2,3.22-2.61,7.44-3.57,11.5-4.45l132.6-28.76c6.62-1.43,13.31-2.87,20.08-2.68a2.91,2.91,0,0,1,0,.3c-.22,11.81-11.25,20.49-21.93,25.64-21.51,10.39-45.49,14.13-68.67,19.86-16.9,4.16-35.09,10.65-43.69,25.77-3.13,5.51-4.06,13.72,1.28,17.09,2.93,1.85,6.68,1.49,10.12,1a393.79,393.79,0,0,0,70.66-16.48c12.49-4.16,24.89-9,37.93-10.73S1061.76,264.59,1072.38,272.36Z"/><path class="cls-1" d="M1043.62,190.38c-1.19.88-2.26,2.23-3.6,2.6-9.49,2.58-18.94,5.4-28.57,7.29-41.41,8.11-82.12,19.5-123.24,28.09-2.55.53-5.56.81-7.37-1-1.48-1.52-1.55-3.88-1.53-6,.23-20.65-.62-42.23,4.89-62.37,2.36-10.6,3.28-21.47,6.18-32.06,4.92-17.92,11.08-35.46,17.21-53a388.49,388.49,0,0,0,11.77-39.67c2.24-9.46,9.07-6.2,10.9,1.57,10.57,44.74-5.08,85.64-20.94,126.54-1.83,4.71-6.64,15.19-4.5,21.37a6.56,6.56,0,0,0,2.37,3.25c2.19,1.54,5,1.95,7.64,2.11,18.12,1.13,36.19-5.83,53.88-8.95a252.42,252.42,0,0,1,28.73-3.56c7.37-.45,20.67-2.63,27.53.45C1038.89,183.28,1038.89,183.28,1043.62,190.38Z"/><path class="cls-1" d="M1007.42,669.4l0,2.13-5.73.05,0-2.15C1003.6,669.43,1005.52,669.42,1007.42,669.4Z"/><path class="cls-1" d="M1001.69,669.43l0,2.15q-14.06.12-28.11.28c-17.21.2-34.14-2.82-51.19-4.42a43.45,43.45,0,0,1-6.76-1.25c-1.18-1.73.94-2.89-.75-3,7,.35,14.11.54,21,1.75a265,265,0,0,0,44.82,4.37C987.71,669.33,994.7,669.43,1001.69,669.43Z"/><path class="cls-1" d="M914.9,663.18c1.69.12-.43,1.28.75,3-.8-.21-1.6-.45-2.38-.68-1.36-.42-2.44-1.72-3.66-2.62,1.79.16,3.48.26,5,.28h.26Z"/><path class="cls-1" d="M910.93,28.18c1,1.42.66,3.59.24,5.38-5.33,22.78-13.92,44.67-21.47,66.8-7.31,21.6-14,43.34-15.41,66.35-.54,8.78-1.93,17.52-3.06,26.25a17.66,17.66,0,0,1-1.5,4c-3.67,2.46-7.32,1.54-10.79.73A219.76,219.76,0,0,0,811.21,192c-9.86-.09-19.71-.65-29.57-.95q-8.55-.28-17.11-.41c-5.1-.07-10.21,0-15.11,0-1.19-2.64-.08-4.54,1.23-6.05a27.57,27.57,0,0,1,12.88-8.37,96.89,96.89,0,0,1,38.56-3.52c8.77.92,17.63,2.92,26.32,1.42,25.54-4.42,29.12-31.27,31.91-52.38,4.34-32.69,10.29-66.76,36.31-89.31,2.42-2.1,10.15-7.4,13.57-4.94A2.88,2.88,0,0,1,910.93,28.18Z"/><path class="cls-1" d="M909.59,662.86c1.68.13,3.36.22,5,.31-1.55,0-3.24-.12-5-.28Z"/><path class="cls-1" d="M886.29,401.42c6.38,38.33,12.71,76.67,19.26,116.3-24.41,4.74-47,10.45-70.09,13.2-11.83,1.41-23.55,3.65-35.37,5.21a143.42,143.42,0,0,1-15.53.74,17.34,17.34,0,0,1-4.25-.92c-2-.47-2.08-6.48-1.88-7.89a17.17,17.17,0,0,1,3.87-8.24,26.4,26.4,0,0,1,11.07-8c16.77-6.45,35.45-2.14,50.18-15.12,9.33-8.22,17.59-27.66,12.62-40.19-2.85-7.2-7.53-11.77-14.82-14.79-6-1.06-12.62-.55-19.32.94-25.37,5.62-50.16,13.25-74.67,21.79C740,467,733,470.5,725.88,473.57c-12.23,5.27-25,6.69-38.14,5.17a45,45,0,0,1-28.6-14.3c-.6-.64-.53-1.91-.9-3.39,5.38-1.73,11.09-2.84,16.11-5.35,12.61-6.3,26.19-9.92,39.39-14.42,20.09-6.85,39.74-15,60.42-20.26,17.07-4.32,33.86-9.72,50.8-14.58,3-.85,6.06-1.36,9.09-2.06,10.11-2.32,20.3-4.35,30.3-7.08,6.57-1.79,13-3.34,19.46-2a10,10,0,0,1,1.11,1.71A25.84,25.84,0,0,1,886.29,401.42Z"/><path class="cls-1" d="M882.7,373.81c.95,3.55,1.81,7,.3,11.38-1.33.62-3.06,1.85-5,2.21-12.21,2.36-24.47,4.46-36.68,6.82-4.55.88-9,2.15-13.51,3.37-6,1.64-11.87,4-18,5-9.79,1.56-19.1,4.63-28.57,7.35C754.4,417.65,728,427,701.77,436.62c-15,5.48-30.1,10.62-45,15.87-.92-1.06-2-1.71-2.15-2.55a26.45,26.45,0,0,1,5.89-23.25c4-4.82,8.24-9.3,13.62-12.65,4.4-2.74,8.69-5.65,11.22-7.3,12.9-3.94,23.66-7.85,34.71-10.4,10.07-2.31,20.54-2.85,30.73-4.73,11.21-2.06,22.41-4.31,33.37-7.36,5.9-1.63,11.29-5.09,16.56-7.58,4-4.76,7.73-9.1,11.18-13.17,2.77-10.46,4.78-20.54,4-31.43-3-1.57-5.55-3.61-8.37-4.19-9.25-1.92-18.71-2.19-27.74.76-15.4,5-31.41,6.53-47.27,8.81-10.41,1.49-20.7.44-32.18-3.52L689,325.41c-.16-2.08-.29-4-.45-6.16,4.46-1.38,8.28-3.06,12.28-3.7,16.35-2.62,32.34-7.08,48.94-8.66A271.71,271.71,0,0,0,783.49,302c8.54-1.92,17.46-2.38,26.25-2.83,20.72-1.09,41.45-.72,61-.48,3.76,2.16,4,4.79,4.2,7.37,1,13.44,2,26.89,2.79,40.35C878.27,355.74,880.28,364.81,882.7,373.81Z"/><path class="cls-1" d="M874.69,283.23c.1,1.9.13,4-1.19,5.42s-3.52,1.44-5.45,1.39a664.73,664.73,0,0,0-168.53,17.84c-11.58,2.75-14.52-5-7.89-13.35,6-7.55,17-10.51,26-12.22a326.15,326.15,0,0,1,45.46-5.3c13.2-.61,26.79-.48,39-5.42l.09,0c12.22-5,22.88-16.59,22-29.73a16.45,16.45,0,0,0-4.5-10.7c-2.31-2.25-5.39-3.52-8.42-4.61A116.67,116.67,0,0,0,780.27,220c-12.34-.89-27.38-1.23-33.28-12.11-.81-1.51-1.38-3.36-.62-4.9,1-2.06,3.75-2.44,6-2.53a587.27,587.27,0,0,1,108.3,5.49c3,.43,6.23,1,8.15,3.34,1.68,2,1.9,4.85,2,7.48Q872.8,250,874.69,283.23Z"/><path class="cls-1" d="M839.29,785l-.06,1.93c-1.84-.18-4.38,1.2-5.83-2.06C835.37,784.85,837.33,784.9,839.29,785Z"/><path class="cls-2" d="M568.31,698.67a64.64,64.64,0,0,1,7.15,26.72,7.39,7.39,0,0,1-6.48,4.86c-8.78.93-17.58,2-26.39,2.27-17.14.59-34.3.84-51.45,1-53,.61-106,1-159,1.78-15,.22-30.07,1.92-45.11,2.46-24.93.91-49.87,1.8-74.8,2-19.2.16-38.38-1.11-57.63-.42-16.58.58-33.24-.77-49.85-1.34-2.56-.08-5.09-.59-7.92-.95-4.56-6.59-5.1-13.48-3.78-20,2.19-3.17,4.74-3.62,7.36-3.68,27.54-.68,55.08-1.28,82.58,1.08a284.48,284.48,0,0,0,46.7-.17c24.86-2,49.79-3.61,74.71-4.19,26-.61,51.84-3.07,77.74-5.09,23.29-1.8,46.53-3.94,70-3.82s46.72-.93,70.05-2.89c13.44-1.13,27-.76,40.51-1C564.14,697.37,565.64,698,568.31,698.67Zm-10.85,15.05-4.11-6.56c-12.19-2.52-23.77-2.56-34.87,2.93a6.44,6.44,0,0,0-3.94,6.73c5.22,7.66,14.06,6.71,21.86,6.81C543.82,723.73,552.08,723.63,557.46,713.72Zm-71.68,10.64c.37-1.66.57-2.6.89-4-1.92-.53-3.83-1.42-5.8-1.54-4.13-.26-8.3-.17-12.46-.14-51.94.34-103.87.38-155.8,1.22-22.3.36-44.57,2.62-66.87,3.59-13,.56-26,1.14-38.9.12-14.54-1.14-29.05-1.1-43.58-1.1a27.51,27.51,0,0,0-7.47,1.39c-.65.19-.93,1.62-2.21,4.08,4,.46,6.5.9,9,1,14,.72,28,1.64,42,2,18.17.43,36.34.83,54.5-.91,23.27-2.22,46.59-3.4,70-2.35,8.28.37,16.69.57,24.89-.44a239,239,0,0,1,29.52-1.57c19.21,0,38.44.23,57.66.24q18.69,0,37.39-.37A46.7,46.7,0,0,0,485.78,724.36Z"/><path class="cls-3" d="M553.35,707.16l4.11,6.56c-5.38,9.91-13.64,10-21.06,9.91-7.8-.1-16.64.85-21.86-6.81a6.44,6.44,0,0,1,3.94-6.73C529.58,704.6,541.16,704.64,553.35,707.16Z"/><path class="cls-4" d="M550.33,758.78c.9,7.86.73,45.9-.16,56l-4.13,2c-.8-2.24-1.91-4.08-2.07-6-1.54-18.47-2.82-37-1.31-54.53,2.17-3,4-2.76,6.22-1.59A18.38,18.38,0,0,1,550.33,758.78Z"/><path class="cls-4" d="M535,762.26c-.06,15,.84,30-1.3,47.85-1.89-7.94-1.67-13.12-1.64-18.24,0-11.36.29-22.73.52-34.1,0-.42.59-.82,1.37-1.8C534.38,758.38,535,760.32,535,762.26Z"/><path class="cls-5" d="M534,634.56c2.42,10.55,2.43,31.1.13,43-4.23,2.34-8.54,3.13-14.48-.18-.1-13-.23-25.34-.24-37.73a47.58,47.58,0,0,1,.75-6c3.91-3.31,7.88-2.48,11.84-1.44C532.75,633,533.84,633.69,534,634.56Z"/><path class="cls-6" d="M522.63,760.18c0,18.7,0,37.39,0,56.33-1,1.76-2.92,2.33-5.07,2.36-2.6,0-5.2.1-7.79,0-45.22-1.46-90.47-.8-135.64.74-44.7,1.53-89.38,1.65-134.06,2.31-24.95.37-49.9.06-74.85,0-3.08,0-6.16-.33-9.77-.54-.9-2-2.39-3.73-2.46-5.54-.62-18.66-1-37.34-1.46-56,0-.44.41-.89,1.43-3a73.46,73.46,0,0,1,7.79-.88c7.81-.08,15.63-.4,23.39.15,18.7,1.32,37.39.91,56.11.67,14.54-.19,29.1.58,43.65.3,32.72-.62,65.45-1.61,98.17-2.5,18.18-.5,36.36-1.14,54.54-1.61,23.38-.59,46.75-1.15,70.14-1.56,4.59-.08,9.36-.85,13.3,1.32C522.76,755,522.63,757.66,522.63,760.18Z"/><path class="cls-5" d="M512.85,640.6c-.11,12.36.75,24.77-.7,36.52-2.37,2.71-4.52,3.6-7.1,2.3-.62-1.07-1.57-1.94-1.57-2.81q.11-21,.48-41.91c0-.85,1.07-1.69,1.93-3l6,.9A64.12,64.12,0,0,1,512.85,640.6Z"/><path class="cls-7" d="M496.79,635.44c.06,12.43.1,24.87-.17,37.29,0,2.46-1.4,4.88-2.3,7.76-3.74.45-7.27,1.1-10.81,1.28-23.31,1.24-46.57,2.89-69.79,5.23-24.77,2.5-49.59,4.43-74.51,5-31.11.64-62.22,1.7-93.35,2.19-21.77.35-43.57,0-65.36.06-6.73,0-13.47.5-20.21.67-2.53.07-5.21.4-7.27-1.54-.55-.94-1.39-1.76-1.5-2.67-1.93-15.45-3.55-30.92-3.46-46.51a15.68,15.68,0,0,1,1-3.94c2.82-2.9,6.09-2.39,9.12-2.49q17.88-.56,35.78-.84,41.22-.75,82.44-1.38a98.63,98.63,0,0,1,10.88.26c33.16,3.2,66.32,1.84,99.48.13,5.18-.26,10.36-.48,15.54-.72,24.87-1.17,49.74-2.4,74.61-3.46,6.13-.27,12.35-1,18,.67C495.76,633.76,496.79,634.6,496.79,635.44Z"/><path class="cls-3" d="M486.67,720.33c-.32,1.43-.52,2.37-.89,4a46.7,46.7,0,0,1-7.19,1.19q-18.69.36-37.39.37c-19.22,0-38.45-.2-57.66-.24A239,239,0,0,0,354,727.25c-8.2,1-16.61.81-24.89.44-23.41-1.05-46.73.13-70,2.35-18.16,1.74-36.33,1.34-54.5.91-14-.33-28-1.25-42-2-2.54-.13-5.06-.57-9-1,1.28-2.46,1.56-3.89,2.21-4.08a27.51,27.51,0,0,1,7.47-1.39c14.53,0,29,0,43.58,1.1,12.89,1,25.95.44,38.9-.12,22.3-1,44.57-3.23,66.87-3.59,51.93-.84,103.86-.88,155.8-1.22,4.16,0,8.33-.12,12.46.14C482.84,718.91,484.75,719.8,486.67,720.33Z"/><path class="cls-1" d="M429,590.56c1.81,5.77,4.23,11.49,2.15,17.75l-3.33-.49c-4.38-6.34-5.6-13.84-7.24-22.67l2.08-2.19C427.61,584.56,428.07,587.73,429,590.56Z"/><path class="cls-1" d="M414.58,545.64c2.54,8,5.49,16,5.32,25.93-6.79-6-8.41-10.51-9.71-25.6Z"/><path class="cls-1" d="M408.85,528.16c0,.32-.63.73-2.44,2.72a110.5,110.5,0,0,1-8.31-26.51c-.31-1.77.68-3.76,1.08-5.72,1.6.5,3,.53,3.35,1.13C407.2,508.64,407.58,518.51,408.85,528.16Z"/><path class="cls-1" d="M399.43,585.68c5.06,6.43,4.39,13.9,4.22,21.32l-3.8.51a37.28,37.28,0,0,1-4.61-21.09C397.25,586.08,398.15,585.92,399.43,585.68Z"/><path class="cls-1" d="M392.77,454.66c2.61,8.09,5.91,16.11,4.15,25.26-1.4-.85-2.77-1.18-3-1.88-2.62-7.63-6.66-14.88-6.63-23.07l3-1.7C391.14,453.72,392.55,454,392.77,454.66Z"/><path class="cls-1" d="M393.34,544.65a95.34,95.34,0,0,1,1.59,21.28l-3.89.69c-3.82-7.3-6-15.08-5.19-23.51.12-1.24,1.46-2.38,2.13-3.4C391.67,539.78,392.85,542.21,393.34,544.65Z"/><path class="cls-1" d="M383.58,493.58c2.68,8.27,2.63,17.08.9,25.77-7.1-13.26-7.5-15.23-6.74-25.2C379.17,492.15,380.92,491.93,383.58,493.58Z"/><path class="cls-1" d="M370.85,557.22c2.31,8.43,1.85,17.24-.43,26.15-5.66-7.71-6.92-16-6.35-24.9l3.2-2.85Z"/><path class="cls-1" d="M367.36,533.53c0,.57-1.34,1.23-3.29,2.9-3.08-7.86-6.24-14.23-6.28-21.56,0-2.67.55-5,3.26-6a4,4,0,0,1,4.4,3.47C366.32,519.37,366.87,526.45,367.36,533.53Z"/><path class="cls-1" d="M358,460.16c3,2.64,5.15,16,4.74,27.43-.08,2.15-.83,4-3.41,4.31-5.14-10.64-6.55-19.45-4.9-31.53Z"/><path class="cls-1" d="M344.63,581.37c3.42,7,2.48,14.28,2.33,21.64l-3.69,3c-6-8-5.7-16.28-3.52-25.26Z"/><path class="cls-1" d="M343.35,535.55c1.08,8.6,1.76,17.27.34,25.92-1.36.21-2.3.34-3.9.57-4.07-9-5.42-18.34-2.19-30Z"/><path class="cls-1" d="M341.46,497.86c.46,5.49.75,11,1.11,16.67l-4.86,1.91c-2.7-7.59-3.49-14.66-1-22.07l3.39.92C340.59,496.15,341.39,497,341.46,497.86Z"/><path class="cls-1" d="M316.47,465.45c1.81,7.77.7,15.8-.59,23.71l-3.34.63c-2.85-9.49-2.88-10.8-.53-24a20.26,20.26,0,0,1,2.58-1.23C314.89,464.49,315.37,464.93,316.47,465.45Z"/><path class="cls-1" d="M315.6,508.75c.39,10.38,2.42,20.48-3.8,31.1-1.44-2.82-3-4.5-3.11-6.31-.59-8.14-1.84-16.41,2.2-24.51Z"/><path class="cls-1" d="M312.78,557.26c1.78,6.78.37,13.75-.3,20.4a30.1,30.1,0,0,1-2.72,2.05c-.35.21-.92,0-1.92,0-2.35-7.92-2.36-15.71.87-23.49Z"/><path class="cls-1" d="M309.37,596.75c1.66,5.8.74,11.89.49,18.25l-4.1,2.14c-2.47-7.45-2.63-14.33-.11-21.31Z"/><path class="cls-1" d="M295.33,468.34c3.44,6.58,3.49,6.88,1.88,18.49-.33,2.42-.46,5.12-3.62,5.88C290.44,485.73,290.64,481.61,295.33,468.34Z"/><path class="cls-1" d="M293.13,514c1.68,7.87-.56,15.27-3.2,22.55-.23.62-1.69.8-2.58,1.18-2.13-10.73-1.8-14.56,2.59-26.05C291.6,512.81,293,513.25,293.13,514Z"/><path class="cls-1" d="M287.14,559.66c-1.12,16.4-1.46,17.52-6.7,20.76a34.37,34.37,0,0,1,1.74-23.2c1.82.29,2.42.21,2.79.47A26.79,26.79,0,0,1,287.14,559.66Z"/><path class="cls-1" d="M281.05,461.55c3.05,3.29,1.84,6.92,1.25,10.37-1.3,7.56-1.8,8.57-5.94,14-2.06-7.69.37-14.6,1-21.61Z"/><path class="cls-1" d="M274.21,502.4a8.52,8.52,0,0,1,1,2.79A55.51,55.51,0,0,1,270.75,526c-.41,1-2,1.47-3.06,2.19-2.2-3.33-1.38-6.45-1-9.42.56-4.55,1.4-9.08,2.4-13.56.3-1.4,1.5-2.59,2.27-3.87Z"/><path class="cls-1" d="M267.14,546.65c.27.43.8.89.76,1.29-.56,5-1,10.12-1.92,15.1-.55,2.88-2,5.61-3.23,8.83-1.74-1.11-2.91-1.84-3.95-2.49,1-14.82,1.36-16.12,5.71-23.35Z"/><path class="cls-1" d="M266,467.15c1.45,11.26-1.12,20.67-7.53,29.08-2.32-9.51.63-18.12,2.94-27Z"/><path class="cls-1" d="M258,590.69c1.42,7.31-1,14.18-1.89,22.14l-4.69.57c-1.23-7.76-1-15.21,3.26-22.13C255,590.76,256.39,590.94,258,590.69Z"/><path class="cls-1" d="M253.75,512.46c.56,1.27,1.44,2.27,1.27,3-1.51,7-3.2,13.88-4.84,20.85l-4.55,1.86c-1.4-9,2.5-16.46,3.83-24.36Z"/><path class="cls-1" d="M243.79,554.67c2.4,8.89-2.84,15.59-5.89,22.7-3.15.31-4.25-1-3.69-3.46,1.39-6,2.95-11.94,4.62-18.57Z"/><path class="cls-1" d="M231,589.61c3.23.36,4.21,2.46,3.79,4.41a116.42,116.42,0,0,1-3.93,13.13c-.14.39-1.72.29-3.12.5C226.16,601,225.75,594.76,231,589.61Z"/><path class="cls-4" d="M141.67,758.73c2.63,13.44,4.46,47,3.34,61.27l-2.66.39c-.56-.84-1.49-1.62-1.63-2.53-2.89-18.9-1.7-38-2.86-57-.06-.86.8-1.79,1.23-2.68C140,758.34,140.81,758.54,141.67,758.73Z"/><path class="cls-5" d="M144.21,690.89c.12.83-.79,1.81-1.28,2.85h-4.74c-3.82-9.29-4.52-19-4.93-28.63-.37-8.52-2.51-17.27.74-25.67l3.31.17c.63.77,1.59,1.44,1.83,2.32C143.55,658,141.76,674.65,144.21,690.89Z"/><path class="cls-4" d="M132.61,817.82c0,.91-.79,1.86-1.21,2.79l-3,.15c-3.24-2.36-3.86-6.1-4.3-9.58-2.12-17-1.72-34-1-50.67l4.64-2.73c.65,1.05,1.59,1.87,1.65,2.74Q131.14,789.17,132.61,817.82Z"/><path class="cls-5" d="M129.44,684.68c.22,3-.33,6-.52,8.8a16.86,16.86,0,0,1-3.72.71,38.65,38.65,0,0,1-4.55-.85,20.19,20.19,0,0,1-6.45-13.8c-1-12.34-2-24.75-.25-36.71,5-4.62,5-4.62,10.68-2.67a9,9,0,0,1,1.29,2.74C127.17,656.82,128.4,670.74,129.44,684.68Z"/><path class="cls-1" d="M261.05,666.4a13.17,13.17,0,0,1,15.12-12.75,12.47,12.47,0,0,1,3.94,1.32.05.05,0,0,1,0,0v5.18a0,0,0,0,1-.08,0,8.21,8.21,0,0,0-6.1-2.36,8.67,8.67,0,1,0,.18,17.34,8,8,0,0,0,5.92-2.4,0,0,0,0,1,.08,0V678s0,0,0,0a12.23,12.23,0,0,1-5.87,1.47A13.05,13.05,0,0,1,261.05,666.4Z"/><path class="cls-1" d="M305,674.6h-9.57s0,0,0,0l-1.86,4.56s0,0,0,0h-4.74a0,0,0,0,1-.05-.06L299.46,655a.87.87,0,0,1,1.59,0l10.72,24.2a0,0,0,0,1,0,.06H307s0,0,0,0l-1.86-4.56S305.06,674.6,305,674.6Zm-1.65-4.08L300.3,663a0,0,0,0,0-.09,0l-3.09,7.55s0,.06,0,.06h6.19S303.41,670.55,303.39,670.52Z"/><path class="cls-1" d="M318.59,666.4a13.17,13.17,0,0,1,15.12-12.75,12.47,12.47,0,0,1,3.94,1.32.05.05,0,0,1,0,0v5.18a0,0,0,0,1-.08,0,8.21,8.21,0,0,0-6.1-2.36,8.67,8.67,0,1,0,.18,17.34,8,8,0,0,0,5.92-2.4,0,0,0,0,1,.08,0V678s0,0,0,0a12.23,12.23,0,0,1-5.87,1.47A13,13,0,0,1,318.59,666.4Z"/><path class="cls-1" d="M353.3,658.12h-6.44a0,0,0,0,1-.05,0v-4.19a0,0,0,0,1,.05,0h17.22a.05.05,0,0,1,.05,0v4.19a.05.05,0,0,1-.05,0h-6.4a0,0,0,0,0-.05,0v21a0,0,0,0,1-.05.05h-4.19a0,0,0,0,1-.05-.05v-21A0,0,0,0,0,353.3,658.12Z"/><path class="cls-1" d="M374.1,653.83h4.19a0,0,0,0,1,0,0v25.29a0,0,0,0,1,0,.05H374.1a0,0,0,0,1-.05-.05V653.88A0,0,0,0,1,374.1,653.83Z"/><path class="cls-1" d="M189.78,777.68h3.9a0,0,0,0,1,0,0v9.72a0,0,0,0,0,0,0h8.52a0,0,0,0,0,0,0v-9.72a0,0,0,0,1,0,0h3.9a0,0,0,0,1,0,0v23.47a0,0,0,0,1,0,0h-3.9a0,0,0,0,1,0,0v-9.72a0,0,0,0,0,0,0h-8.52a0,0,0,0,0,0,0v9.72a0,0,0,0,1,0,0h-3.9a0,0,0,0,1,0,0V777.71A0,0,0,0,1,189.78,777.68Z"/><path class="cls-1" d="M216.27,789.44a12.07,12.07,0,1,1,12.07,12.07A12,12,0,0,1,216.27,789.44Zm20.17,0a8.1,8.1,0,1,0-8.1,8.1A8.09,8.09,0,0,0,236.44,789.44Z"/><path class="cls-1" d="M254.13,777.71v15.13a4.65,4.65,0,0,0,4.65,4.7,4.41,4.41,0,0,0,4.28-4.46V777.71a0,0,0,0,1,0,0H267l0,0v15.07a8.62,8.62,0,0,1-8.35,8.73,8.41,8.41,0,0,1-8.52-8.43V777.71a0,0,0,0,1,0,0h3.9A0,0,0,0,1,254.13,777.71Z"/><path class="cls-1" d="M276.17,796.09l3.54-1.59a0,0,0,0,1,.05,0,3.94,3.94,0,0,0,3.9,3.05,3.26,3.26,0,0,0,3.45-3.33c0-4.7-9.72-3.48-9.72-10.63,0-3.88,2.87-6.23,6.42-6.23a6.54,6.54,0,0,1,6.38,4.37l0,0-3.51,1.62a0,0,0,0,1-.05,0,2.68,2.68,0,0,0-2.71-2.29,2.38,2.38,0,0,0-2.57,2.39c0,4.18,9.75,3.17,9.75,10.81a7,7,0,0,1-7.3,7.21,7.82,7.82,0,0,1-7.63-5.37A0,0,0,0,1,276.17,796.09Z"/><path class="cls-1" d="M300.68,777.68h14.6a0,0,0,0,1,0,0v3.91s0,0,0,0H304.65a0,0,0,0,0,0,0v5.74a0,0,0,0,0,0,0h9.41a0,0,0,0,1,0,0v3.91a0,0,0,0,1,0,0h-9.41l0,0v5.74a0,0,0,0,0,0,0h10.63s0,0,0,0v3.91a0,0,0,0,1,0,0h-14.6a0,0,0,0,1,0,0V777.71A0,0,0,0,1,300.68,777.68Z"/><path class="cls-1" d="M340.29,777.71a0,0,0,0,1,0,0h8.74a7.41,7.41,0,0,1,0,14.82h-4.77a0,0,0,0,0,0,0v8.65a0,0,0,0,1,0,0h-3.91a0,0,0,0,1,0,0Zm8.77,10.82a3.44,3.44,0,0,0,0-6.88h-4.77s0,0,0,0v6.81a0,0,0,0,0,0,0Z"/><path class="cls-1" d="M365.41,777.68h3.91l0,0V797.2s0,0,0,0h8.8a0,0,0,0,1,0,0v3.91a0,0,0,0,1,0,0H365.41a0,0,0,0,1,0,0V777.71A0,0,0,0,1,365.41,777.68Z"/><path class="cls-1" d="M401.63,796.93h-8.88l0,0L391,801.19s0,0,0,0h-4.42a0,0,0,0,1,0-.05l10.65-24a0,0,0,0,1,.06,0l10.64,24a0,0,0,0,1,0,.05h-4.42l0,0L401.66,797Zm-1.53-3.77-2.88-7a0,0,0,0,0-.06,0l-2.89,7s0,0,0,0h5.77S400.11,793.18,400.1,793.16Z"/><path class="cls-1" d="M420.48,786.84v14.34a0,0,0,0,1,0,0h-3.9a0,0,0,0,1,0,0v-24a0,0,0,0,1,.06,0l14,15a0,0,0,0,0,.06,0v-14.4l0,0h3.91a0,0,0,0,1,0,0V801.8a0,0,0,0,1-.05,0l-14-15A0,0,0,0,0,420.48,786.84Z"/><path class="cls-1" d="M449.78,781.65h-6s0,0,0,0v-3.91a0,0,0,0,1,0,0h16a0,0,0,0,1,0,0v3.91s0,0,0,0h-5.95s0,0,0,0v19.49a0,0,0,0,1,0,0h-3.9a0,0,0,0,1,0,0V781.69S449.8,781.65,449.78,781.65Z"/><path class="cls-1" d="M467,796.09l3.54-1.59a0,0,0,0,1,.05,0,3.94,3.94,0,0,0,3.9,3.05,3.26,3.26,0,0,0,3.45-3.33c0-4.7-9.72-3.48-9.72-10.63,0-3.88,2.87-6.23,6.42-6.23a6.54,6.54,0,0,1,6.38,4.37l0,0-3.51,1.62a0,0,0,0,1-.05,0,2.68,2.68,0,0,0-2.71-2.29,2.38,2.38,0,0,0-2.57,2.39c0,4.18,9.75,3.17,9.75,10.81a7,7,0,0,1-7.3,7.21,7.82,7.82,0,0,1-7.63-5.37A0,0,0,0,1,467,796.09Z"/><path class="cls-1" d="M175,922.08v16.08a1.05,1.05,0,0,1-1.36,1,9.47,9.47,0,0,1,0-18.1A1.05,1.05,0,0,1,175,922.08Z"/><path class="cls-1" d="M185.93,930.12a9.47,9.47,0,0,1-6.67,9,1.05,1.05,0,0,1-1.36-1V922.08a1.05,1.05,0,0,1,1.36-1A9.47,9.47,0,0,1,185.93,930.12Z"/><path class="cls-1" d="M965.58,922.1l14.64,6.66a1.06,1.06,0,0,1,.36,1.65,9.48,9.48,0,0,1-16.48-7.49A1.05,1.05,0,0,1,965.58,922.1Z"/><path class="cls-1" d="M977.41,915.5a9.46,9.46,0,0,1,5.48,9.82,1.05,1.05,0,0,1-1.48.82l-14.64-6.66a1.05,1.05,0,0,1-.36-1.65A9.47,9.47,0,0,1,977.41,915.5Z"/></svg>