<svg id="Layer_1" data-name="Layer 1" xmlns="http://www.w3.org/2000/svg" viewBox="0 0 400 400"><defs><style>.cls-1{fill:#d9d6cc;}.cls-2{fill:#514d44;}</style></defs><circle class="cls-1" cx="200" cy="200" r="146.22"/><path class="cls-2" d="M225.76,94.21l-25.41-6.84c-2.44-.65-4.93-1.19-7.3-2.05a17.43,17.43,0,0,1-4.49-2.52,1.68,1.68,0,0,1,.86-3,17.37,17.37,0,0,1,5.14.23c5.74,1.2,11.43,2.64,17.16,3.86,5,1.06,9.95,1.93,14.92,2.86a6.79,6.79,0,0,0,1.51-.13c.31-1.16.63-2.39,1-3.82-1.08-.42-1.89-.84-2.75-1.07-5-1.37-10.08-2.56-15-4.06-3.56-1.08-7-2.48-10.49-3.88-1.79-.73-2.64-2.06-2.17-2.9a3,3,0,0,1,3.18-1.26,88.92,88.92,0,0,1,9,1.56c5.71,1.34,11.37,2.87,17.06,4.3.88.22,1.78.34,2.81.54.67-1.62,1.4-3,1.05-4.9-.7-.24-1.42-.5-2.15-.73-5.85-1.82-11.73-3.55-17.54-5.49a37,37,0,0,1-6.5-3.06,10.77,10.77,0,0,1-2.87-2.69,1.57,1.57,0,0,1,1.05-2.47,8.71,8.71,0,0,1,3.13.24c6.7,1.77,13.38,3.6,20.07,5.42,2.16.59,4.31,1.2,6.81,1.9.48-1.64.89-3,1.32-4.44-4.38-1.57-8.52-3-12.62-4.55-3-1.13-6-2.34-8.85-3.69a11.51,11.51,0,0,1-3.12-2.41,1.33,1.33,0,0,1,.88-2.14,7.24,7.24,0,0,1,2.37.05c2.48.5,5,1,7.4,1.69,5.1,1.48,10.15,3.11,15.28,4.7,1.26-1.1,1.29-2.6,1.7-4.21-1.19-.41-2.32-.76-3.41-1.19-4.09-1.61-8.2-3.18-12.24-4.9-1.3-.55-2.74-1.14-3.23-2.8A1.88,1.88,0,0,1,221.8,39c1.43.32,2.83.77,4.22,1.23,4.43,1.47,8.84,3,13.49,4.55.44-.76.87-1.48,1.25-2.12-.32-.42-.44-.74-.63-.79a74.11,74.11,0,0,1-14-5.88A8.22,8.22,0,0,1,224,34.28c-.54-.59,0-1.89.74-1.88a10.71,10.71,0,0,1,3.49.48c3.51,1.28,6.94,2.74,10.42,4.1,1.2.48,2.44.89,3.86,1.4.42-1,.73-1.65,1-2.26-.24-.35-.33-.63-.53-.76-2.94-1.82-5.92-3.58-8.82-5.47a9.92,9.92,0,0,1-2.23-2.25,1.1,1.1,0,0,1,.92-1.71,6.73,6.73,0,0,1,2.28.59c2,1.05,4,2.22,5.92,3.35l4,2.26c1.1-2.26,2.06-4.25,3.34-6.87.43,1.17.87,1.73.78,2.2-.29,1.7-.76,3.37-1.23,5.36,1,.37,1.89.76,2.86,1.09,1.13.39,2.32.63,3.41,1.11a1.85,1.85,0,0,1,1.31,2.34c-1.13.74-2.39.31-3.68.09a31.43,31.43,0,0,0-4.73-.54c-1.25,0-1.78.9-1.94,2.33,1,.37,2,.78,3,1.06,2.94.86,5.91,1.62,8.84,2.51a8.94,8.94,0,0,1,2.88,1.34,2.46,2.46,0,0,1,.84,2A2.46,2.46,0,0,1,259,47.57a5.5,5.5,0,0,1-2.72-.2c-2.81-.84-5.59-1.79-8.36-2.73-1.25-.43-2.47-1-3.53-1.36-1.56.57-1.46,1.65-1.46,2.77a4.29,4.29,0,0,0,1,.61c2.6.59,5.24,1,7.81,1.73a45.39,45.39,0,0,1,5.59,2.1,1.6,1.6,0,0,1,1,1.95,1.68,1.68,0,0,1-1.78,1.32,17.65,17.65,0,0,1-3.92-.55c-2.55-.76-5-1.73-7.57-2.58-1-.33-2-.57-3.08-.87a8.42,8.42,0,0,0-1.49,4.57c2.15,1.35,4.53,1.24,6.63,2,3.14,1.1,6.26,2.25,9.37,3.41a7.15,7.15,0,0,1,1.39.8,2.21,2.21,0,0,1,1.17,2.35c-.23,1.11-1.17,1.43-2.12,1.5a11.65,11.65,0,0,1-3.54,0c-2.72-.65-5.39-1.5-8.07-2.3-2-.61-4-1.28-5.89-1.87-1.76,1.26-1.41,3-2.27,4.55A18.45,18.45,0,0,0,240,66c3.08.86,6.2,1.56,9.28,2.43,4.23,1.2,8.45,2.44,12.62,3.8a17.2,17.2,0,0,1,3.87,2,2.07,2.07,0,0,1,1,2.4,2,2,0,0,1-2.27,1.24,42.46,42.46,0,0,1-4.36-.5,114.34,114.34,0,0,1-17.32-4.82c-2.13-.74-4.28-1.39-6.4-2.08-1.7,1.55-1.59,3.5-2.15,5.33a8.86,8.86,0,0,0,4.61,1.26,63.09,63.09,0,0,1,17.89,4,41,41,0,0,1,5.74,2.77c1.59.91,2.07,1.92,1.68,2.82a2.8,2.8,0,0,1-2.94,1.66,34.13,34.13,0,0,1-6.33-.61c-5.83-1.41-11.61-3-17.4-4.58-1.42-.37-2.85-.69-4.22-1-1.48,2.18-1.48,2.18-2.12,6.23.93.29,1.88.68,2.88.89,7.29,1.61,14.58,3.18,21.88,4.77a34.05,34.05,0,0,1,3.47.92c2.16.73,2.94,1.58,2.8,2.89s-1.38,2-3.89,1.81a47.66,47.66,0,0,1-4.76-.62c-7.49-1.29-15-2.42-22.32-4.54a7.93,7.93,0,0,0-1.36-.13c-1.16,1.79-1.45,3.83-1.75,6.13,1.05.28,1.9.58,2.77.72,8.68,1.41,17.37,2.76,26,4.22,1.94.33,3.95.76,5.3,2.5.91,1.17.69,2.31-.69,2.88a13,13,0,0,1-7.11.42c-7.89-1.32-15.75-2.83-23.62-4.26l-3.87-.67c-1.06,1.94-1.08,3.78-1.31,5.94,1.63.31,3.16.64,4.72.88,5.26.82,10.54,1.58,15.81,2.41a31,31,0,0,1,5.08,1.07,36,36,0,0,1,4.4,2.19c.91-.63,1.88-1.32,2.87-2s2.2-1.69,3.62-.77c1,.61.93,2-.24,4A47.84,47.84,0,0,1,259,124.3c-.7,1-1.49,1.86-2.18,2.71.28,1.56,1.68,1.29,2.51,1.83a2.15,2.15,0,0,1,1.27,2.27,2.24,2.24,0,0,1-2,1.74,11.82,11.82,0,0,1-2.38.17c-1.07,0-2.14,0-3.2-.13a3.89,3.89,0,0,0-3.25,1.16,16.88,16.88,0,0,0-4.14,5.41c1.59.32,3.14.69,4.71.94,1.18.18,2.38.21,4.22.36a23,23,0,0,1,2.31-2.87c3.71-3.44,7.45-6.87,11.32-10.14a35.69,35.69,0,0,1,5.39-3.43,6.91,6.91,0,0,1,2.63-.82,1.79,1.79,0,0,1,1.75,2.72,14.18,14.18,0,0,1-2.34,3.22c-3.1,3.3-6.29,6.54-9.44,9.8-.82.85-1.63,1.72-2.75,2.9a15.29,15.29,0,0,0,7.43,1.46c.78-.07,1.5-1,2.23-1.58,3.06-2.36,6.07-4.79,9.18-7.08a18.48,18.48,0,0,1,3.89-2,2,2,0,0,1,1.8.16,2.7,2.7,0,0,1,.64,2.09,6.73,6.73,0,0,1-1.54,2.74,63.4,63.4,0,0,1-5.37,5.38c-6.68,5.73-13.45,11.37-20.18,17a13,13,0,0,0-1.16,1.35l4.68,4.57c2.88-2.65,5.59-5,8.16-7.53,4.8-4.7,10.52-8.19,15.87-12.16a14.22,14.22,0,0,1,4.34-2,2.31,2.31,0,0,1,2,.73,2.7,2.7,0,0,1,0,2.19,5.62,5.62,0,0,1-1.52,1.83c-2,1.79-3.93,3.62-6,5.29-6,4.86-12.11,9.64-18.16,14.47a9.78,9.78,0,0,0-1,1c.77,1.84,2.31,3.1,3.55,4.89.91-.73,1.66-1.24,2.3-1.86,3.38-3.24,6.69-6.53,10.09-9.74A56.47,56.47,0,0,1,296,155.16a9,9,0,0,1,2.16-1,1.68,1.68,0,0,1,1.46.31,2.16,2.16,0,0,1,.46,1.77,10.4,10.4,0,0,1-2,2.95c-4.55,4.51-9,9.14-14.16,13-2.36,1.75-4.65,3.59-7,5.37a19.49,19.49,0,0,1-1.9,1.13l3.12,4.59c1.11-.75,2-1.27,2.81-1.9,2.93-2.31,5.73-4.82,8.79-6.94s6.14-3.76,9.27-5.53a11.11,11.11,0,0,1,3-1.07,1.57,1.57,0,0,1,2,.86,2.64,2.64,0,0,1-.07,1.84,8.39,8.39,0,0,1-1.74,2.16c-1.39,1.24-2.83,2.44-4.33,3.56-5.36,4-10.75,7.89-16.21,11.89,0,1.6,1,2.66,1.89,4.07a14.92,14.92,0,0,0,2.08-1c3.05-2.15,6-4.48,9.13-6.5a73.9,73.9,0,0,1,8.07-4.38,8.11,8.11,0,0,1,3.48-.54,1.54,1.54,0,0,1,1.16,2.4,11.91,11.91,0,0,1-2.86,2.72c-5.73,3.67-11.52,7.23-17.29,10.84-.33.21-.61.5-1.11.91a10.54,10.54,0,0,0,2.41,4.59c.86-.51,1.63-1,2.39-1.42,4.44-2.71,8.85-5.45,13.31-8.11,1.25-.75,2.63-1.44,4.05-.29.59,1.58-.3,2.66-1.32,3.51a59.54,59.54,0,0,1-5.43,4.07c-3.45,2.27-7,4.4-10.55,6.63-.13,1.78.67,3.06,1.9,4.51,1.67-1.25,3.23-2.46,4.83-3.6,2.51-1.77,4.94-3.65,7.93-4.6,1.17-.37,2.33-.86,3.34.22.78.84.45,2.27-.94,3.49a29.24,29.24,0,0,1-3.55,2.58c-3.25,2.08-6.54,4.09-10,6.27l1.38,3c2.48-1.6,4.67-3.06,6.92-4.43a9.94,9.94,0,0,1,2.9-1.26,2.17,2.17,0,0,1,1.66.73,1.46,1.46,0,0,1-.09,1.44,34.72,34.72,0,0,1-4,3.84c-1.68,1.31-3.53,2.37-5.51,3.67.27.86.53,1.68.82,2.62,2.95-.65,5-3.8,8.42-2.4-.27,4-4.38,3.84-6.42,6.22l1,2.13c2,.06,3.33-2.28,5.64-.92A6.74,6.74,0,0,1,306,231c-1.95,1.38-4,2.63-6,3.9-.79.49-1.62,1-2.47,0-.17-1.83,2.07-1.91,2.56-3.65l-1.21-2a5.49,5.49,0,0,0-1.34.19,39.29,39.29,0,0,1-3.66,1.59,2.06,2.06,0,0,1-1.6-.71c-.19-.21,0-1.11.31-1.39a35.63,35.63,0,0,1,2.89-2.11c.43-.31.84-.63,1.46-1.09l-1.25-2.81a5,5,0,0,0-1.34.34c-2,1.25-4,2.58-6.1,3.82a10.49,10.49,0,0,1-2.54,1.13,1.66,1.66,0,0,1-1.37-.53,1.72,1.72,0,0,1-.23-1.46,3.56,3.56,0,0,1,1.2-1.54c1.63-1.14,3.32-2.21,5-3.26,1.11-.69,2.29-1.28,3.62-2l-1.6-3.67c-1,.48-1.8.82-2.55,1.28-2.84,1.73-5.64,3.55-8.51,5.24a8.18,8.18,0,0,1-3,1.08c-.48.07-1.2-.49-1.55-1a1.55,1.55,0,0,1,0-1.45,6,6,0,0,1,1.66-1.68c2.75-1.87,5.55-3.68,8.35-5.5,1-.65,2-1.24,3.16-1.94-.06-1.76-1-3-2.06-4.51-.86.49-1.65.88-2.39,1.37-2.67,1.76-5.28,3.63-8,5.3a21.41,21.41,0,0,1-4.72,2.09,2.22,2.22,0,0,1-2-.81,2.42,2.42,0,0,1,.2-2.15,8.87,8.87,0,0,1,2.42-2c3-2,6.08-3.87,9.12-5.8,1-.64,2-1.29,3-2-.26-2.06-1.46-3.42-2.57-5.1-3.84,2.75-7.38,5.34-11,7.84a62.89,62.89,0,0,1-5.47,3.29,6.71,6.71,0,0,1-2.64.81,2,2,0,0,1-1.65-.75,1.93,1.93,0,0,1,.24-1.78,17.74,17.74,0,0,1,3.25-2.93c4.21-2.82,8.49-5.53,12.74-8.28.77-.5,1.51-1,2.39-1.62a9.18,9.18,0,0,0-2.66-4.21c-.83.5-1.63.9-2.34,1.43-3.22,2.39-6.36,4.87-9.62,7.2-2.27,1.62-4.68,3-7.3,4.73-.1,3.62-.43,7.42-.43,11.38a17,17,0,0,0,2.3.31c2.3,0,3.44,1.28,3.82,3.33a33.13,33.13,0,0,1,.72,5.93c0,6.28-.12,12.55-.24,18.82-.11,5.88-.33,11.75-.39,17.62-.16,14-.24,28-.38,42.06q-.19,20.43-.47,40.85a21.28,21.28,0,0,1-.4,4.37c-.54,2.33-1.55,3.18-3.91,3.24-3.07.08-6.14,0-9.21-.12-2-.09-3.69-1.86-4-4.33a54.9,54.9,0,0,1-.46-7.58c.06-13.49.2-27,.29-40.46,0-1.18-.09-2.36-.13-3.37-.33-.23-.43-.32-.54-.38s-.25-.17-.36-.15L215,300.82c-.08,1.32-.19,2.63-.22,3.94-.28,14.95-.52,29.9-.82,44.85-.1,4.54-.4,9.07-.57,13.61a6.53,6.53,0,0,1-2.56,5.19,4.87,4.87,0,0,1-1.74.92,25.67,25.67,0,0,1-10.72.32c-3-.53-3.77-1.54-4.14-4.53a7,7,0,0,1-.07-.8c-.05-5.73-.11-11.46-.13-17.19,0-1.6.15-3.2.17-4.8q.13-17.62.25-35.25c0-1.84,0-3.69-.05-5.55L158.75,299c-1,1.37-.61,2.89-.61,4.32-.07,14.55-.07,29.11-.17,43.66a24.35,24.35,0,0,1-.74,5.5,5.14,5.14,0,0,1-4.14,3.93,32,32,0,0,1-5.93.77A7,7,0,0,1,140,351a24.42,24.42,0,0,1-.05-3.2q.15-46.87.27-93.75c0-7.87-.29-15.74-.42-23.62,0-2.4,0-4.8,0-7.21,0-4.1,1-7.49,5.85-8.29a25.93,25.93,0,0,0,.43-3.2c.07-5.87.08-11.75.1-17.62,0-1.36,0-2.74-1.65-3.22-.26.05-.64,0-.74.18-1.63,2.39-1.86,2.56-4,1.35a52.83,52.83,0,0,1-4.94-3.4c-1.26-.93-2.47-1.95-3.81-3a10.33,10.33,0,0,0-1.24,1.2c-.36.52-.61,1.12-1,1.84,2.12,1.64,4.14,3.15,6.1,4.73a30.42,30.42,0,0,1,3.24,3c1,1.06,1.06,2.18.41,2.88-.81.88-1.75.56-2.56.08a49.62,49.62,0,0,1-4.33-2.84c-1.71-1.27-3.32-2.67-5.2-4.19l-2,2c1,1,1.92,1.74,2.76,2.54a10.25,10.25,0,0,1,1.61,1.76c.23.39.3,1.23,0,1.47a2.16,2.16,0,0,1-1.69.63,9.7,9.7,0,0,1-2.47-1.24c-.68-.4-1.32-.87-2.25-1.5l-1.64,2.4c1.38,1.88,4.11,2.19,4.27,4.78-1.87,1.17-3.16-.06-4.56-.69-1.7-.75-1.7-.76-3,1.58.71.48,1.45,1,2.17,1.48a7.84,7.84,0,0,1,1.86,1.47,2.26,2.26,0,0,1,.14,1.81c-.1.29-1,.53-1.38.44a14.8,14.8,0,0,1-2.6-1c-.72-.3-1.41-.65-2.32-1.07-.43.79-.79,1.43-1.09,2,.31.43.42.72.63.84a22.82,22.82,0,0,1,2.79,1.54,6.54,6.54,0,0,1,1.13,1.89c-2.53,1.72-4.13-1-6.43-.84,0,.62-.2,1.3,0,1.73.48.86,1.93,1.06,1.63,2.75-.44,0-1,.2-1.38,0-2-1.4-4.79-1.59-6.43-3.73,1.42-1.86,2.75.28,4.33-.31,0-.48.12-1.24-.18-1.56a8.06,8.06,0,0,0-2-1.2c-1.29-.71-2.56-1.46-3-3.08.59-1.32,1.72-1.1,2.7-.78,1.37.46,2.67,1.11,4.22,1.77l1.12-1.91c-.25-.44-.33-.75-.52-.86-1.16-.65-2.39-1.19-3.52-1.88a24.9,24.9,0,0,1-2.32-1.81c.37-1.46,1.16-1.85,2.18-1.43,1.83.74,3.61,1.63,5.62,2.55l1.34-2.11c-1.31-1.08-2.56-2-3.71-3.1-1.43-1.33-1.75-2.29-1.2-3.06s1.84-.87,3.6.18c1,.61,2,1.28,3.19,2.07l1.42-2.45c-1.89-1.58-3.66-3-5.33-4.49-.86-.77-2-1.58-1.43-3,.35-.95,1.71-.88,3.51.14l5.42,3.09,1.65-1.72c-4.18-5-10.76-7.33-13.91-13.63.79-.26,1.55-.81,2.06-.63a11.21,11.21,0,0,1,3.09,1.77c3,2.4,6,4.87,9,7.31.6.49,1.23.93,2,1.52.59-.74,1.06-1.34,1.55-1.94-.54-1.67-2-2.19-3.09-3.13-2.89-2.57-5.86-5.05-8.68-7.69A11,11,0,0,1,113.3,171a1.66,1.66,0,0,1,2-2.4,14.5,14.5,0,0,1,4.15,2.28c3.25,2.55,6.37,5.27,9.55,7.92.5.42,1,.8,1.56,1.21a4.92,4.92,0,0,0,1.08-.72c.58-.72,1.07-1.5,1.74-2.44l-2.64-2.44c-3-2.81-6.13-5.56-9.09-8.45a19.64,19.64,0,0,1-2.84-3.85,6,6,0,0,1-.75-2.64,1.71,1.71,0,0,1,2.45-1.68,17.83,17.83,0,0,1,3.56,2.53c3.65,3.33,7.22,6.74,10.83,10.12.57.53,1.19,1,2,1.68a22.11,22.11,0,0,0,1.77-1.6,25,25,0,0,0,1.51-2.07c-.72-.86-1.34-1.69-2-2.46a88.9,88.9,0,0,1-10.74-13.42,22,22,0,0,1-1.85-4,1.5,1.5,0,0,1,.84-2,2.3,2.3,0,0,1,1.83.07,30.36,30.36,0,0,1,4,3.82c2.85,3.36,5.54,6.85,8.35,10.24,1.1,1.33,2.26,2.65,4.35,2.9a7.77,7.77,0,0,0,1.43-1.12,3.6,3.6,0,0,0,.09-5q-.48-.63-1-1.23c-5-5.48-8.47-12-12.51-18.09-.72-1.09-1.54-2.33-.43-3.66.81-1,2.39-.91,3.92.46a47.78,47.78,0,0,1,5,5.18c3.48,4.21,6.84,8.52,10.45,13l5.65-2.15-5.79-9.81-3.49-1.11c-.11-.54-.37-1-.24-1.3,1.14-2.46.24-4.58-.9-6.76a40,40,0,0,1-3.34-7.23,105.83,105.83,0,0,1-2.24-10.93c-.26-1.46.74-2.53,1.71-3.46q3.6-3.47,7.31-6.83c1.76-1.61,3.6-3.14,5.61-4.88l-2-2.55a4.74,4.74,0,0,0-1.24.49c-3.26,2.76-6.46,5.58-9.75,8.31a34.42,34.42,0,0,1-3.93,2.73,2.05,2.05,0,0,1-2.6.05c-1-.83-.41-1.78.12-2.51a52.87,52.87,0,0,1,4.47-5.61c2.23-2.3,4.7-4.36,7-6.54.47-.43.85-.95,1.46-1.64L146.53,88c-1,.8-1.77,1.44-2.56,2.11-2.53,2.17-5,4.36-7.59,6.5A16,16,0,0,1,134,98.06a1.67,1.67,0,0,1-2.2,0,1.54,1.54,0,0,1,0-2.18,37.71,37.71,0,0,1,3.47-4.36c2.33-2.37,4.82-4.59,7.16-6.8,0-1.63-1-2.23-2.28-2.88-3.41,2.74-6.13,6.62-10.69,7.57a1.59,1.59,0,0,1-.41-2.58c1.38-1.62,2.87-3.16,4.36-4.67,1.11-1.13,2.3-2.16,3.46-3.23a7.19,7.19,0,0,0-.63-1.28,5.46,5.46,0,0,0-1-.73,3,3,0,0,0-1.08.43c-1.34,1.3-2.58,2.71-3.95,4-1.16,1.09-2.42,2.08-3.69,3.06-.75.57-1.62,1-2.56.38-.67-.45-.54-1.62.5-2.84,1.3-1.51,2.74-2.91,4.15-4.33,1.1-1.12,2.25-2.21,3.6-3.52l-2.88-2.72c-3,2.56-5.3,5.78-9.07,7.39-1-2.68.88-3.77,2-5.1s2.51-2.75,4-4.32l-1.78-2c-2.32,1.43-3.56,3.94-6.23,4.75a1.76,1.76,0,0,1-.35-2.74c1.12-1.48,2.36-2.87,3.52-4.27-1.47-1.82-1.56-1.85-2.71-.92s-2,1.66-2.85,2.36c-1.52-.57-1.72-1.42-1.21-2.38.62-1.15,1.39-2.23,2.17-3.44l-2.15-1.9-3.79,1.7a26.71,26.71,0,0,0,.78-2.67,23.64,23.64,0,0,0,.19-2.4c.88-.31,2.22.26,2.94-1.11a4.7,4.7,0,0,1,1.7-1.64,1.47,1.47,0,0,1,1.4.06,1.53,1.53,0,0,1,.18,1.4c-.52,1.06-1.21,2-2,3.29l2.79,2.12c1.08-1.3,1.95-2.48,3-3.52a5.54,5.54,0,0,1,2-1.17,1.18,1.18,0,0,1,1.5,1.32,8,8,0,0,1-1.08,2.51c-.58.88-1.45,1.57-2.08,2.42-.79,1.07-.23,1.71,1,2.12,2.41-.82,3.71-3.64,6.56-4.34,1.27,3.66-2.72,4.61-3.38,7.38l1.36,1.29c1.55-.54,2.3-1.87,3.35-2.83,1.47-1.33,3-2.6,4.57-3.83.18-.15.81,0,1,.22a1.15,1.15,0,0,1,.22,1,23,23,0,0,1-2,3c-1.28,1.53-2.65,3-4,4.44.49,1.54,1.59,2.19,3.12,2.75,1.38-1.53,2.75-3.15,4.24-4.66a18.29,18.29,0,0,1,3.09-2.45c.29-.19,1,.06,1.4.32a1.08,1.08,0,0,1,.22,1.06,13.65,13.65,0,0,1-1.61,2.71c-1.5,1.86-3.1,3.63-4.83,5.63L139,77.24l4-3.55c1.79-1.59,3.54-3.23,5.41-4.72.91-.73,1-.6,3,.2-1.59,4.72-6.1,7.26-8.72,11.39.67.71,1.26,1.35,1.93,2.08a38.93,38.93,0,0,0,6.57-5.45c1.27-1.17,2.47-2.43,3.77-3.58a4.19,4.19,0,0,1,3.26-1.26c.83.07,1.58,1,1.23,1.67a13.91,13.91,0,0,1-1.86,3c-2,2.32-4.14,4.53-6.22,6.79l-2.61,2.83c1,1.06,1.8,2,2.8,3.14.88-.81,1.56-1.4,2.19-2,2.91-2.94,5.72-6,8.77-8.78a24,24,0,0,1,5-3.17,1.61,1.61,0,0,1,2,2.19,17.4,17.4,0,0,1-2.39,3.65c-3.11,3.49-6.31,6.89-9.48,10.33l-1.81,2,2.41,2.78c.89-.82,1.58-1.39,2.21-2,3-3,6-6.1,9-9.09a9,9,0,0,1,4.71-2.87c.59-.09,1.6.06,1.8.43a2.56,2.56,0,0,1,0,2.16,24.23,24.23,0,0,1-3,3.75c-3.55,3.8-7.15,7.54-10.77,11.35.24,1.54,1.28,2.32,2.36,3.27a12.79,12.79,0,0,0,4.51-3.26c3-2.83,6-5.71,9.18-8.35a29.18,29.18,0,0,1,5.79-3.48,1.47,1.47,0,0,1,2,1.94,11,11,0,0,1-2.3,3.65c-2.44,2.46-5.09,4.72-7.63,7.08q-3.07,2.86-6.09,5.79a18.19,18.19,0,0,0-1.35,1.74c1.32,1.58,2.57,3.1,4,4.81a11.1,11.1,0,0,0,2-1.36,91.51,91.51,0,0,1,14-12.57,6.42,6.42,0,0,0,.85-1.08,21.39,21.39,0,0,1-2-1.93,2,2,0,0,1,1.25-3.34,18.54,18.54,0,0,1,5.15.25c5.11,1,10.17,2.14,15.27,3.19,4.94,1,9.9,2,14.88,3C225.66,98.18,225.62,96.32,225.76,94.21Zm-43.2,119c3.95.62,7.62,1.15,11.27,1.79,3,.52,6,1.1,9,1.79a1.94,1.94,0,0,1,1.16,1.4,1.9,1.9,0,0,1-1.08,1.41,8.21,8.21,0,0,1-3.07.69,54.55,54.55,0,0,1-6-.38c-3.31-.37-6.6-.91-9.92-1.22-2.16-.2-2.33.12-2.18,3.11a14.81,14.81,0,0,0,1.83.4c3.59.31,7.19.52,10.77.89,2.61.27,5.32.24,7.36,2.5.48.54,1.72.53,2.62.55,2.53.06,5.07-.08,7.6,0,2.73.1,3.46.84,3.93,3.54.29,1.68,0,3.47.94,5,3.77.52,19.13,0,24.39-.84,1.68-.27,3.32-.74,5.17-1.16,0-1.6.07-2.92.1-4.24l.12-6c0-2.16.83-3.88,2.95-4.79a15.76,15.76,0,0,0,1.4-.74q.19-9.88.39-19.58c-.46-.31-.8-.52-1.11-.76-1.59-1.19-1.77-1.89-.79-3.22a14.8,14.8,0,0,1,1.07-1.18c1.93-2.15,2.33-4.66,1.21-8.15-.68.48-1.33.9-1.93,1.37-1.88,1.48-3.7,3.06-5.65,4.46A19.11,19.11,0,0,1,240.3,192a2.2,2.2,0,0,1-1.8-.28c-.78-.56-.58-1.47-.09-2.15a18.41,18.41,0,0,1,2.3-2.76c3.41-3.18,6.9-6.29,10.32-9.46a4.77,4.77,0,0,0,1.63-2.14,33.19,33.19,0,0,0,.22-5.19c0-.73-.14-1.46-.27-2.74-1.33,1.09-2.23,1.8-3.1,2.55-7.26,6.29-14.5,12.61-21.79,18.88a52.57,52.57,0,0,1-4.8,3.59,5.84,5.84,0,0,1-2.2.81,1.3,1.3,0,0,1-1.42-1.8,6.9,6.9,0,0,1,1.32-2c1.13-1.13,2.34-2.19,3.56-3.23,5.49-4.67,11-9.3,16.47-14,.73-.63,1.89-1.09,1.68-2.66-2.65.38-5.26.85-7.89,1.09a5.86,5.86,0,0,0-3.83,1.86c-2.81,2.85-5.68,5.64-8.56,8.43a37.27,37.27,0,0,1-3.6,3.17c-2.81,2.07-4,1.78-6-1.23-.13-.2-.42-.29-.87-.58-3.36-.16-7-.23-10.54-.52s-7.08-1-10.56-.48a6.94,6.94,0,0,0-1,4c.63.08,1.27.19,1.91.23,4.26.26,8.53.43,12.78.77a52.49,52.49,0,0,1,6.71,1,9.25,9.25,0,0,1,2.81,1.4c.51.32.32,1.47-.26,1.7a4.93,4.93,0,0,1-1.88.48c-6.13-.2-12.26-.45-18.38-.69-2-.08-3.93-.7-6,0-.31,1.14-.62,2.27-1,3.57a45.39,45.39,0,0,0,8.43,1.23c6.79.47,13.57,1,20.35,1.57a12.26,12.26,0,0,1,3.78,1.06,2,2,0,0,1,.92,1.59,1.9,1.9,0,0,1-1.1,1.41,18.57,18.57,0,0,1-5.46.93c-7.72-.47-15.42-1.19-23.13-1.77-1.7-.13-3.43-.61-5.28.23-.24,1.35-.48,2.75-.74,4.27,2.08.94,4.08.89,6,1.11,4.23.5,8.46,1,12.68,1.67a12.9,12.9,0,0,1,3.77,1.22,2.53,2.53,0,0,1,1.19,1.81c.07.88-.78,1.33-1.64,1.37a16.35,16.35,0,0,1-2.8-.06c-4.89-.65-9.76-1.36-14.65-2-1.7-.22-3.4-.31-5.38-.48C182.9,210.45,182.75,211.7,182.56,213.23Zm18.1,17.67c0,1.34,0,2.53,0,3.72-.23,13.75-.41,27.5-.72,41.25-.23,10.14-.69,20.28-.94,30.42q-.45,18.82-.69,37.65c-.08,5.61,0,11.22.11,16.82a19.33,19.33,0,0,0,.46,2.9c5.41,1.22,5.79,1.21,10.3-.32.1-.89.31-1.92.33-2.95.3-22.83.47-45.66.89-68.49.29-15.62.92-31.23,1.37-46.84.1-3.6.13-7.21.12-10.81,0-1.32.06-2.7-.94-3.79A24.86,24.86,0,0,0,200.66,230.9Zm45.26,7.63c-.4-.17-.66-.38-.88-.35-9.12,1.16-18.29,1.71-27.46,2.14-.23,0-.45.24-1,.55-.19,3.08-.5,6.37-.57,9.66-.24,10.67-.41,21.34-.57,32a13.71,13.71,0,0,0,.47,2.6c10.64-.18,20.47-2.88,30.4-5.89.81-9.26-.24-18.31.29-27.35.23-4-.11-8-.24-12A5.07,5.07,0,0,0,245.92,238.53Zm-51.84,46c1.17-1.51.85-3,.89-4.47q.45-17.2.83-34.43c0-1.2.08-2.41,0-3.6-.12-1.76-.68-2.3-2.51-2.44-1.19-.09-2.4-.06-3.6,0a29,29,0,0,0-7.37.56,31.32,31.32,0,0,0,4.68.64c1.58.19,3.15.49,4.7.83.3.07.74.6.7.84-.08.45-.41,1.14-.74,1.21a19.88,19.88,0,0,1-3.92.45c-1.86,0-3.73-.2-5.59-.16a5.88,5.88,0,0,0-2,.8c.64,1.59,1.85,1.28,2.85,1.44,2.24.36,4.48.64,6.69,1.09.44.09.75.77,1.39,1.48-3.81,1.32-7.44-.3-10.75.84.08,1.21.79,1.28,1.44,1.34,1.46.11,2.93.14,4.39.27.81.07,1.56.34,1.57,1.78-2.31.77-4.85-.27-7.05.08-.61,1.27-.3,1.93.73,2,1.46.08,2.93-.08,4.4,0a6.4,6.4,0,0,1,1.66.57c-.15.56-.13.91-.28,1-1.92,1.54-4.45,0-6.77,1.34.41.54.7,1.3,1.1,1.36,1.3.22,2.66.14,4,.28.61.06,1.36.13,1.4,1.32a16.72,16.72,0,0,1-2.08.6c-1.05.19-2.13.21-3.17.42-.29.06-.74.64-.68.84.14.43.53,1,.88,1.08,1.31.16,2.66.06,4,.19.71.07,1.2.52.83,1.67l-5.25.6c-.4,2.93,3,1.14,3.39,3.3a16.33,16.33,0,0,1-3.88,1.06,16.88,16.88,0,0,1-4-.83c0-2.34,2.78-1.21,3.58-3.08a5.79,5.79,0,0,0-1.81-.53c-1,.07-2.08.46-3.13.52a5.94,5.94,0,0,1-1.86-.62c1.47-2.51,4.18-1.21,6-2.76-.33-.43-.62-1.19-1-1.24a24.17,24.17,0,0,0-3.18.05c-1,0-2-.1-3.82-.2,1.13-1,1.59-1.75,2.18-1.88,1.29-.29,2.65-.21,4-.39s1.46-.93.6-2c-1.52.26-3.08.59-4.65.77a22.09,22.09,0,0,1-4,.14c-.49,0-.94-.59-1.62-1.06a7.54,7.54,0,0,1,4.4-1.54c1.19-.15,2.4-.17,3.58-.33,2.27-.32,2.75-.65,2.71-1.71s-.88-1.45-3.22-1.24a58.49,58.49,0,0,1-6.35.2,1.47,1.47,0,0,1-1.65-1.54c3.39-1.52,7.19-.36,11.4-1.31-1-.7-1.44-1.26-1.93-1.31-1.86-.19-3.74-.12-5.59-.32a50.58,50.58,0,0,1-5.88-1c-.4-.1-.63-.88-1.25-1.84,2-.05,3.46-.17,4.89-.11,2.53.11,5,.36,7.58.47,1.09,0,1.84-.41,1.27-2-2.65-.27-5.42-.47-8.16-.87-2.59-.38-5.53.17-7.73-2.44,1.79-1.21,3.58-.74,5.23-.86s3.2,0,4.8,0h5v-.5l-19-1.82c0,5.16,0,9.94,0,14.72,0,4.94-.07,9.88-.07,14.82,0,4.77-.23,9.56.08,14.47,5.38,1.67,10.77,1.65,16,2.22C180.93,284.39,187.58,285.19,194.08,284.5Zm57.2-62.85c.14,3.18.35,5.84.36,8.49,0,7.21.05,14.42-.06,21.62-.32,21.21-.72,42.42-1.07,63.63q-.21,12.81-.32,25.62c0,1.42-.35,3,.94,4.37h7.67a4.52,4.52,0,0,0,.68-1.17,15.25,15.25,0,0,0,.37-2.76c0-2.67,0-5.34,0-8q.27-54.24.53-108.46c0-1.66.23-3.44-1-5.05Zm-106.22-1.74c0,1.79,0,3.22,0,4.66.27,9.59.76,19.17.6,28.78-.33,18.81-.29,37.62-.38,56.42q-.08,18-.06,36c0,1.41-.4,2.94.77,4.29,2.17.34,4.38.77,6.67-.53.11-1,.29-2.05.31-3.09.09-6.54.2-13.07.19-19.61s-.24-13.06-.2-19.6c.07-13.2.18-26.4.43-39.61s-.41-26.4.8-39.58a43,43,0,0,0,0-5.2,14.31,14.31,0,0,0-.53-2.43Zm13.55,75a155.59,155.59,0,0,0,35.52,2.56,18.14,18.14,0,0,0,.15-8.68l-35.69-3.21A21.9,21.9,0,0,0,158.61,294.87ZM246,283.1c-10.11,2.94-20.33,4.37-30.62,5.83a15.75,15.75,0,0,0,0,7.95c5.21-.67,10.29-1.53,15.34-2.6s10.53-1.24,15.62-3.85c0-1.75,0-3.46,0-5.17A18.54,18.54,0,0,0,246,283.1Zm-66.56-65c-2.67-.36-4.89-.68-7.11-1-5.3-.62-10.52-1.58-15.4-3.88-.85-.4-1.74-.74-1.67-2.15a4.4,4.4,0,0,1,1.57-.76,20.3,20.3,0,0,1,3.57.19c5.81.69,11.61,1.43,17.41,2.13a19.89,19.89,0,0,0,2.21,0c.19-1.1.36-2.08.57-3.33-3.44-.36-6.59-.74-9.75-1-5.57-.48-11.15-.85-16.41-3a7.14,7.14,0,0,0-1.72-.22,35.33,35.33,0,0,0,0,9.69c2.76.25,4.79,1.51,5.7,4.07,7,.14,13.46,3,20.49,2.56C179.1,220.42,179.24,219.54,179.48,218.09Zm2.89-19.15c-3.08-.38-5.57-.74-8.07-1-6.36-.61-12.77-.84-18.87-3a12.93,12.93,0,0,0-2.84-.32c-.16,2.07-.51,3.87.3,5.59L181.28,204C181.65,202.31,182,200.92,182.37,198.94Zm40.85-92-26.61-5.25c-1.48,1.46-3.13,2.73-4.24,4.89,1.28.32,2.28.61,3.31.82,2.39.49,4.69.71,6.75-1.17a6.37,6.37,0,0,1,2.9-1.2c1.81-.39,2.75.45,2.78,2.32,0,.73,0,1.46,0,2.3,4.74.74,9.26,1.75,13.77,2A6.51,6.51,0,0,0,223.22,107Zm28.34,15.38c-5.18-.6-9.51-1-13.81-1.63s-8.59-1.4-12.8-2.1c-1.15,2.55-1.17,2.54-.71,4.79,2.7.78,5.39,1.25,8.12,0,1.06-.5,2.29-.49,2.87.55.87,1.57,2.33,1.66,3.73,1.9,2.09.35,4.23.5,6.33.81a3.66,3.66,0,0,0,3.57-1.28C249.55,124.58,250.26,123.82,251.56,122.36Zm7.54,75.87,16.38-11.77a10.07,10.07,0,0,0-3.63-5.31L259.1,191.89c-.07,1.18-.18,2.37-.21,3.56C258.88,196.11,259,196.76,259.1,198.23ZM158.4,221.85c-.09,2.49-.17,4.2-.23,5.92-.11,3.39-.49,4.87,4.11,5,1.26,0,2.52.3,3.78.46a13.54,13.54,0,0,0-3.61-1.76,8.61,8.61,0,0,1-2.11-1.09c-.36-.27-.77-1-.64-1.29.21-.51.83-1.19,1.29-1.2a51.32,51.32,0,0,1,5.95.3c3.43.36,6.84.85,10.27,1.24.34,0,.72-.22,1.18-.38a12.2,12.2,0,0,0,.31-1.53,8.54,8.54,0,0,0-.2-1.48C172.1,224.24,165.24,224.41,158.4,221.85Zm18.9-87.2L171.58,140a19.14,19.14,0,0,0,2.31,6.71c3.81-2,9.85-6.91,11.54-9.46Zm16.43,37.18a8.42,8.42,0,0,0-.64,1.35c-.74,2.52-.16,3.59,2.45,3.73,3.43.19,6.88.05,10.32.05.42-.74.82-1.42,1.2-2.12s.78-1.57,1.2-2.4C205.26,171.59,197.74,171.3,193.73,171.83ZM148.28,117.4c3.77-2.23,11.82-9.17,13.93-12l-2.66-2.92c-2.35,2.22-4.45,4.23-6.59,6.21s-4.81,3.21-6.89,5.36ZM152.53,174c3.62-.13,6.89.81,10.51.52-.7-2.15-2-3.51-2.84-5.14-1.56-3.12-4.34-3.88-7.67-4.38Zm111.78-2.65c-4.76,3.71-6.46,8.85-4.24,12.51,3-2.1,6.18-4,9-6.75A23.42,23.42,0,0,0,264.31,171.34ZM161.52,187.8c.2,2.09,1.42,2.91,3.39,3.15,5.53.69,11,1.48,16.57,2.21a18.59,18.59,0,0,0,2.13,0l1-3.39c-3.34-1-3.39-1-5.57.54a2.3,2.3,0,0,1-3.23-.21c-1.59-1.5-3.47-1.76-5.51-1.84-1.45-.06-2.89-.33-4.35-.47S163.05,187.15,161.52,187.8Zm103.19-38.11c-3-.54-4.88-.94-6.82-1.23a2.15,2.15,0,0,0-1.51.28c-1.81,1.45-3.76,2.78-5.06,4.89l5.86,3.71Zm-51.86-32.28a11.24,11.24,0,0,0-2.08-1c-2.22-.43-4.46-.8-6.7-1.13-2.76-.41-4.67.9-5.85,4.07,2.91.48,5.78,1,8.68,1.39a3.65,3.65,0,0,0,2.24-.47A42.15,42.15,0,0,0,212.85,117.41ZM160.79,115c1.2,2.24,1.56,4.52,3.43,6.16,2.09-1.83,4.39-3.16,6-5.39-1.43-1.94-2.38-4-4.55-5.41C164.08,111.84,162.56,113.29,160.79,115Zm25.56,14c2.72.46,4.93.87,7.14,1.2,3.49.51,4.9-.28,6.89-4-2.77-.59-5.43-1.2-8.13-1.69a2.68,2.68,0,0,0-1.84.45A12.44,12.44,0,0,0,186.35,129Zm-35.17-6.22c1.4,4.06,1.79,4.74,3.94,6.9l4.27-4.2c-1.13-2.27-.63-4.81-2.3-7.1Zm45.41,105.11c-5.28-.34-10.18-1.36-15.42-1.34a14,14,0,0,0,.06,2.79c.08.34.81.71,1.27.75,4.35.44,8.71.8,13.29,1.21C196.06,230.13,196.29,229.16,196.59,227.89Zm-27.65-94c1.45-1.39,3-1.84,3.07-3.6s1.28-2.47,2.87-2.69c1-.15,2.13-.19,2.64-1.83l-2.94-4.16L167,129.14Zm18.87-23.56c-2.35,1.81-4.61,3.34-6.26,5.65,5.69,2.59,9.21,1.49,11.26-3.51Zm53.77,21.43c-3-1.09-6.23-1.18-9.31-1.76a2.85,2.85,0,0,0-1.88.41c-2.2,1.42-4.34,3-6.64,4.55,2.12,1.43,3.76.88,5.49-.08a51.41,51.41,0,0,1,6.11-2.86c1.56-.61,2.34,0,2.81,1.75a16.32,16.32,0,0,1,.26,2C239.82,134.44,241.23,133.71,241.58,131.8ZM155.2,178.14c.62,2.41,1.55,4,4.15,4.13s5,.55,7.48.78a9,9,0,0,0,1.94-.29c-.38-1.62-1.09-2.84-2.44-3.12A58.57,58.57,0,0,0,155.2,178.14Zm-15.78-2.74c2.23,2.1,3.74,4.41,6.22,5.92,1.32-5.25.88-7.18-2.28-10.33a16.34,16.34,0,0,0-1.44,1.31C141.14,173.2,140.42,174.14,139.42,175.4Zm36.46.38c-2.15-6.32-3.13-6.93-9.62-6.64.5,1.9,2,3.13,2.89,4.68a3.67,3.67,0,0,0,3.62,2C173.68,175.74,174.59,175.78,175.88,175.78Zm-33.39,13.48a5.13,5.13,0,0,0,.91-.88,4.94,4.94,0,0,0,.39-1.18c-2.36-2.77-4.16-6-7.21-8.65l-2.91,3.6Zm45.2-12.72c-1.54-5.22-3.29-6.85-8.59-5.27C181.36,176.73,182.13,176.8,187.69,176.54ZM218,129.3l-4.27-.77c-1.15-.19-2.39-.59-3.41.26s-2.72,1.56-3.11,3.43c1.26.32,2.4.62,3.54.87a3.34,3.34,0,0,0,1.18,0C212.94,132.94,216.21,130.91,218,129.3Zm26.74,20.88a6.22,6.22,0,0,0,2.82-3.33c-2.47-1.26-5-1-7.48-1.43-1.09-.18-1.8.73-2,2.08Zm-23.83,22.31c-2.31-2.27-5.63-.55-8.79,4.64a3.52,3.52,0,0,0,4.92-.74C218.21,175,219.56,173.78,220.86,172.49Zm-60.1-31.28c3.33-2.46,3.35-2.8.55-7.06-1,.79-2,1.56-3.13,2.47Zm39.67,0c-2.6-1.61-4.33-1-6,.27-1.81,1.41-1.78,2,.38,4.12Zm-25.92,39.34c1.87,4.12,3.37,4.81,7.16,3.4C180.32,180.91,178.21,179.43,174.51,180.51Zm10.73-33.64c1.87.67,3.41.31,5.4-.2l-1.82-3.42C187.41,144.49,186,145.16,185.24,146.87Zm-19-2.08a10.69,10.69,0,0,0-2,1.59,1.75,1.75,0,0,0,.09,1.42c.69,1.48,1.23,1.56,3.69.52Zm43.63.43c2.1.16,4.31.53,5.4-2.2C212.68,142,211.2,143.42,209.87,145.22Zm21.29-.9c-3.78-1.28-3.78-1.28-5.58.83C227.55,145,229.33,147,231.16,144.32ZM185,180.57v4.84a4.88,4.88,0,0,0,2-4.84Zm-12.34,53,0,.28h3.83v-.28Zm6.47-111.45a10.2,10.2,0,0,0,.39,1.15,1,1,0,0,0,1.64.39.93.93,0,0,0,.46-.58c0-.85-.62-1.06-1.28-1.13A5.3,5.3,0,0,0,179.11,122.11ZM260,167.26a1.75,1.75,0,0,0,.36,2.62C261.8,168.45,261.8,168.45,260,167.26Zm-106,20.9-.92-1c-.2.22-.62.59-.58.65a6.72,6.72,0,0,0,.9,1Zm66.24-66-.34-.93a10.94,10.94,0,0,0-1.14.78s.21.59.24.58C219.45,122.48,219.86,122.31,220.27,122.16ZM181.9,234.76l.47-.32a4.67,4.67,0,0,0-.64-.18c-.1,0-.21.1-.31.15Zm56.34-97.82c-1-.27-1.31-.44-1.46-.36a1,1,0,0,0-.43.6c0,.07.3.38.42.35A10,10,0,0,0,238.24,136.94Z"/></svg>