<svg xmlns="http://www.w3.org/2000/svg" width="557.161" height="557.162" viewBox="0 0 557.161 557.162">
  <g id="Group_951" data-name="Group 951" transform="translate(13691 20392.447)">
    <g id="Group_947" data-name="Group 947">
      <ellipse id="Ellipse_45" data-name="Ellipse 45" cx="278.58" cy="278.581" rx="278.58" ry="278.581" transform="translate(-13691 -20392.447)" fill="#dee5de"/>
      <path id="Path_2166" data-name="Path 2166" d="M-83.961-636.179c11.742,0,23.534-.023,35.327,0,25.836.061,51.675-.046,77.506.359a73.635,73.635,0,0,1,19.017,3.052c10.914,3.152,14.54,7.328,14.262,18.5-.292,11.775-1.19,23.746-3.713,35.216-7.546,34.3-11.133,69-13.079,103.986q-2.108,37.871-5.853,75.642c-1.394,13.882-4.213,27.65-6.928,41.362-3.768,19.027-16.17,29.968-34.554,34.131-51.015,11.555-102.578,19.252-154.978,19.9a771.531,771.531,0,0,1-114.305-6.985c-8.5-1.163-16.872-3.3-25.265-5.17-11.792-2.622-20.3-9.463-25.528-20.374-6.52-13.6-12.827-27.279-15.7-42.226a226.42,226.42,0,0,0-20.933-60.857c-16.306-31.776-28.256-65.059-36.924-99.649-2.608-10.405-6.532-20.477-9.711-30.745-2.86-9.24-5.98-18.434-8.169-27.839-2.985-12.824-.338-18.749,11.137-25.526a137.153,137.153,0,0,1,38.64-15.92c3.138-.731,6.365-1.144,9.444-2.063,21.322-6.365,42.506-5.16,63.645.894,2.584.74,5.217,1.328,7.854,1.853a25.006,25.006,0,0,0,4.024.033c1.343-1.656,3.488-3.459,4.531-5.762,2.169-4.791,3.082-10.256,5.77-14.679,2.649-4.357,8.555-6.22,9.5-12.387a10.635,10.635,0,0,1,4.544-6.383c4.464-2.852,6.621-6.8,7.938-11.65.4-1.46,1.483-3.484,2.683-3.853,8.091-2.49,12.581-9.05,17.683-14.955,9.773-1.683,14.192-13.273,24.889-13.467,1.177-.021,2.4-1.961,3.458-3.146,4.138-4.655,9.626-5.772,15.385-7.586,10.372-3.267,21.034-.884,31.325-3.557,3.214-.835,7.233.994,10.773,1.992,3.043.858,5.862,3,8.9,3.285,6.489.6,9.928,4.6,14.4,8.789a214.574,214.574,0,0,1,19.853,20.5c2.457,3,5.231,5.57,5.153,9.565a23.339,23.339,0,0,0,3.429,12.218c.773,1.37,1.867,3.356,1.41,4.5-3.809,9.506,2.68,18.831.278,28.291a13.83,13.83,0,0,0,.331,6.249C-86.169-639.185-85-637.928-83.961-636.179ZM-203.686-685.71c-2.956-2.937-5.881-5.9-8.877-8.8a89.352,89.352,0,0,0-8.167-7.433c-.8-.6-2.879.04-4.1.654-.617.312-1.049,1.943-.834,2.793,1.643,6.506,5.941,11.132,11.138,15.032,4.468,3.352,7.839,1.264,10.8-2.464-.97-5.484,6.017-3.578,6.927-7.755-3.351-5.649-6.6-11.694-12.9-15.307-4.014,6.129-4.089,6.182-2.608,8.3C-208.982-695.954-204.078-692.136-203.686-685.71Zm81.574,48.092a67.81,67.81,0,0,0,1.3-28.876,62.449,62.449,0,0,0-6.242-17.915c-2.213-4.331-7.083-9.329-11.487-10.136-13.489-2.473-27.479-5.718-40.45,2.92-3.515,2.341-7.63,3.795-11.5,5.578-9.226,4.246-17.816,9.316-23.745,17.922-7.376,1.955-7.124,10.412-12.2,14.315-6.461,4.972-6.6,12.8-10.515,20.3C-197.387-630.711-159.633-634.337-122.112-637.618ZM-104.649-499.8c13.056,1.37,35.635-.6,43.98-3.537a55.55,55.55,0,0,0-3.1-22.719c-18.36-2.079-31.994-1.377-44.28,2.4C-106.965-516.08-105.86-508.313-104.649-499.8Zm-182.246-96.728c-13.712-1.588-25.69-1.778-38.42,1.751.465,11.009,4.3,20.021,8.257,29.277,12.35.521,23.822,2.414,36-.827C-283.006-576.406-284.815-585.767-286.895-596.532ZM-57.579-438.976c-12.55,3.194-24.518.677-36.142,5.236-.058,8.65-.132,16.928,3.538,25.2,12.156,1.262,23.633,1.677,35.233-1.911C-53.005-419.868-54.1-428.594-57.579-438.976Zm-256.1-119.666c1.968,11.552,5.192,21.9,12.013,30.861A99.049,99.049,0,0,0-270.3-530.4c-1.382-5.436-2.344-10.024-3.739-14.477-1.406-4.489-3.242-8.844-4.969-13.471C-290.809-559.747-301.845-560.158-313.676-558.642Zm-31.7,28.236c10.809.626,20.954,1.253,31.106,1.735.913.044,1.871-.847,3.994-1.883-2.616-9.444-5.693-18.907-9.99-27.56-17.176-3.1-25.38-2.853-35.111,1.074C-354.263-547.958-351.214-539.521-345.371-530.406Zm71.89-28.273,8.56,28.013c13.087.727,24.834-.919,37.331-3.776-1.637-8.088-3.092-15.274-4.568-22.567-2.766-.68-4.776-1.576-6.8-1.6C-249.547-558.756-260.14-558.679-273.481-558.679Zm117.469-2.005c12.35,1.216,24.852,3.155,37.2-.2,1.215-14.933,1.215-14.933-8.108-25.541-10.644,1.322-21.963-1.051-32.833,2.792C-160.445-575.5-160.666-568.071-156.012-560.684Zm-118.66-3.107c14.246-.876,27.36,3.258,40.886-1.538-.045-8.11.5-15.462-2.567-23.22-14.4.917-28.393,5.493-42.85-.017C-280.956-579.592-277.406-572.881-274.672-563.791Zm132.083,66c10.281,1.347,20.761.933,31.938-.528-.261-9.729.448-18.668-4.973-27.825-11.277.38-22.771-2.111-34.08,1.412C-149.041-512.268-148.338-509.634-142.589-497.791ZM-332.36-594.776c-10.62-.067-21.155-1.624-31.629,2.752-.591,10.024,1.957,18.376,6.474,26.5,11.429.4,22.42,1.824,34.289-1.165C-325.756-576.691-326.907-586.168-332.36-594.776Zm40.923,219.386c9.5,0,17.958.156,26.4-.1,2.347-.072,4.656-1.368,7.49-2.263-2.181-9.256-3.888-17.408-8.582-24.957-10.356-1.031-20.263-1.685-30.618.364C-298.043-393.015-294.141-385.346-291.437-375.39Zm34.162-26.476c.627,9.7,2.455,18.172,8.352,25.686,10.394-.159,20.408,1.182,30.623-1.034,1.341-9.139-2.759-16.221-4.979-24.018C-234.582-404.546-245.471-404.329-257.275-401.866ZM-28.114-563.007c-.27-9.02.929-17.334-3.327-24.56-9.63,0-18.163-.186-26.678.122-2.36.085-4.666,1.638-8.488,3.081,3.765,8.019,1.125,16.412,5.657,23.943C-49.93-558.933-39.641-561.062-28.114-563.007ZM-94.527-440.788c7.176-.506,13.037-.78,18.866-1.37,6.244-.632,12.943.346,18.079-4.046,1-12.276,1-12.276-2.643-20.914-12.486.24-25.2.317-37.934,2.46C-99.672-456.3-97.4-449.277-94.527-440.788Zm-147.431,95.625c11.615,2.777,22.017,4.348,33.236,1.655-1.254-9.361-1.342-18.479-7.263-25.631-19.523-2.972-21.756-2.864-32.125,1.632C-248.309-359.943-244.832-353.263-241.958-345.163Zm129.8-206.811c.517,5.328.668,10.071,1.517,14.686.773,4.207,3.862,6.368,8.152,6.139q17.635-.937,35.254-2.187c.926-.065,1.789-1.041,3.122-1.866.961-6.18-.254-12.08-3.474-18.082C-82.542-553.017-96.845-554.745-112.156-551.974Zm-41.046,19.2a80.461,80.461,0,0,0,37.138.042c2.014-6.936-.26-13.317-2.585-20.654-12.675.141-24.953-4.333-38.579.4C-155.77-545.67-154.447-539.03-153.2-532.777Zm-28.44,158.544c10.524,2.974,20.449,2.606,30.317,1.526,1.762-13.529,1.461-15.131-5.313-28.239-9.579-.124-19.553-1.387-30.087.23C-187.707-391.344-184.729-383.462-181.642-374.233Zm82.657-98.013c13.1,1.033,26.1,1.667,39.8-1.9,0-4.455.156-8.112-.053-11.748-.146-2.532-.793-5.037-1.373-8.489-14.238-.7-27.706-1.716-41.279,2.732C-102.609-484.666-102.708-478.487-98.985-472.246Zm-90.859-53.573c-20.328-2.142-20.909-2.113-31.353,1.642,2.741,8.4,2.225,17.775,8.058,26.036,9.829.832,19.766,2.427,30.134-.515C-183.93-508.175-185.592-516.983-189.844-525.819Zm-33.138,27.171c1-11,.7-12.7-4.85-27.724-11.113-1.088-22.524-2.91-34.141,3.918,2.922,7.514,5.6,14.387,8.355,21.487C-242.864-500.077-232.966-498.365-222.982-498.648ZM-82.16-341.884c10.526-.76,20.016,1.042,29.234-3.054,2.618-8.994.842-17.247-.657-26.047-10.9-.725-21.32-1.233-31.627,2.546C-86.82-359.515-83.691-351.928-82.16-341.884ZM-54.981-501.31c10.9.4,20.356,2.162,29.623-2.078C-24.125-512.2-23.58-520.52-27-529.06c-10.261-1.957-19.845.049-30,2.288C-57.589-517.966-57.45-510.228-54.981-501.31ZM8.228-566.9c1.12-8.942,3.089-16.1.124-23.15-16.912-1.79-21.1-1.351-33.353,3.539-.412,7.595-.914,15.395,1.906,23.044,1.991.27,3.584.839,5.066.628C-9.667-564.028-1.331-565.4,8.228-566.9ZM-288.8-369.771c.585,20.47,3.178,23.5,20.41,24.029,6.284.194,12.731,1.735,19.99-1.25-1.859-7.687-3.634-15.293-7.673-22.657C-266.787-371.549-277.288-370.877-288.8-369.771Zm52.874-67.353c-1.866-6.2-2.858-10.264-4.321-14.149s-3.385-7.564-5.366-11.9c-10.457.4-20.437-2.035-30.748,1.519a62.612,62.612,0,0,0,8.051,24.533Zm-83.74-31.917c10.879.9,21.167,1.62,31.978-1.321a50.417,50.417,0,0,0-8.845-23.313c-10.447-1.311-20.818-1.71-31.742.141C-327.933-483.972-323.322-476.9-319.663-469.041ZM-85.3-585.268c-1.611,2.056-3.224,4.155-4.88,6.219-5.4,6.735-12.08,10.291-20.984,8.655-.652-.12-1.546,1.072-2.975,2.136.642,2.6,1.357,5.5,1.982,8.033,20.29,2.518,34.648,2.051,44.974-1.333,0-3.662.369-7.408-.1-11.047-.527-4.116-1.805-8.135-2.866-12.663ZM-280.654-469.3c11.392-.432,21.329,1.587,31.217-1.226-2.379-13.71-2.379-13.71-9.2-24.058-4.092,0-8.892-.14-13.68.038-5.167.192-10.561-.946-16.592,2.174Zm132.9,103.9c-11.238-.522-21.486-2.935-32.029.6.027,8.745.709,16.469,5.248,23.637,10.3.672,20.16,2.23,30.032-1.3C-143.4-350.406-145.929-356.922-147.755-365.4Zm94.343-36.592c-12.287-.126-24.015-1.55-35.826,2.094-.088,8.177-.465,15.635,4.106,22.819,10.452,1.163,20.815.164,31.72-1.448Zm-223.47-35.731c-.12-9.21-3.494-16.783-7.584-24.631a106.358,106.358,0,0,0-30.173.581c.575,11.246,1.252,13.356,7.774,24.245A87.151,87.151,0,0,0-276.882-437.719Zm104.2-24.864c-10.83-1.042-20.326-1.1-30.293.532-.391,9.445,2.719,17.065,6.491,24.647,10.332.863,19.829,1.19,30.55-1.139C-166.124-446.994-169.081-454.225-172.686-462.583ZM-356.3-468.995h29.082c-.958-9.8-4.615-17.666-9.664-25.937-5.1,0-9.866-.108-14.626.03-5.011.146-10.362-1.534-15.977,2.151C-364.275-484.231-362.292-476.01-356.3-468.995Zm14.354-54.779c.163,9.411,4.175,16.115,9.323,23.382,5.262,0,10.609.186,15.937-.052,5.582-.248,11.471,1.116,17.5-1.87-2.338-7.533-4.366-14.041-9-20.125A153.627,153.627,0,0,0-341.95-523.774Zm17.938,61.525a111,111,0,0,0-30.06-1.219c2.364,9.779,6.87,17.415,11.929,25.861,8.593.7,17.293,2.294,26.779-1.147C-317.032-447.257-318.855-454.83-324.012-462.249Zm132.277-70.362c.35-8.76-.722-16.326-4.987-24.12-7.426-.525-14.775-1.232-22.139-1.454-2.358-.071-4.756,1.142-6.951,1.719.754,14.852.754,14.852,5.929,23.967C-211.008-532.665-201.67-530.542-191.735-532.611ZM-48.917-410.682c9.043.925,16.362,1.589,24.107-3.231.127-9.139,1.912-18.531-.811-28.007-2.07-.334-3.659-.982-5.114-.758-6.258.964-12.477,2.185-19.057,3.375C-51.436-429.639-50.546-420.82-48.917-410.682ZM48.55-596.415l-33.33,5.26c-1.177,8.011-2.6,15.145,1.479,23.124l28.793-4.6C47.537-580.15,50.546-586.9,48.55-596.415Zm-245.6,33.173c-1.8-8.217-1.487-16.23-6.525-23.412-8.561-2.014-17.3-2.846-26.515-.641-1.62,8.655,1.026,15.94,3.264,23.871C-216.924-562.309-207.61-561.448-197.055-563.242Zm39.331,38.016c-8.039-1.468-15.92-1.765-24.521.4.947,9.772,1.761,19.108,7.118,27.494,8.685.13,16.608,1.756,24.809-1.351C-151.511-508.083-153.091-516.926-157.724-525.226ZM7.9-505.709c-1.233-9.581,2.349-17.919-2.615-26.551l-25.927,2.46c-.752,9.408-1.755,17.649,2.646,26.214,4.315,0,8.512.224,12.674-.068C-1.7-503.907,1.881-504.742,7.9-505.709Zm-226.8,12.88c-11.266,1.116-20.615-3.153-30.767.291a57.554,57.554,0,0,0,8.173,22.053c16.495,2.461,18.54,2.369,29.078-1.454C-214.4-478.371-216.414-484.842-218.893-492.829Zm23.657,62.919c2.466,8.461,1.7,15.807,6.953,21.324,18.376,2.439,21.476,2.322,31.787-1.5-1.88-6.5-3.778-13.06-5.651-19.534C-173.254-432.19-183.216-431.353-195.236-429.91Zm-204.6-161.276c3.057,10.128,5.343,17.7,7.879,26.1,9.563-.045,18.4,1.868,27.894-1.7-2.846-9.005-2.376-18.356-8.042-26.592Zm100.32,182.242c10.994.331,20.861,1.734,31.636-1.6-1.634-7.235-2.081-13.977-7.119-20.166-9.8-.152-19.709-1.164-29.974.264C-305.874-422.514-302.57-416.516-299.519-408.944ZM-134.076-462.8c1.194,8.248,2.143,15.945,6.915,22.993,8.346.576,16.689,1.893,24.831-1.962a41.8,41.8,0,0,0-3.87-23.47C-115.792-465.276-124.661-466.2-134.076-462.8Zm-134.3-61.179c-10.4.514-20.421-.64-30.945,2.575.54,8.358,3.427,14.8,8.4,21.123,10.185-.855,20.193,1.248,30.617-1.6C-261.521-509.731-264.157-516.054-268.376-523.979Zm-108.013-2.237c.9,9.456,1.97,17.823,7.275,25.394,9.246.71,18.24,1.352,27.247-.59-3.821-23.365-6.618-25.92-28.2-25.876C-371.614-527.284-373.159-526.781-376.389-526.216Zm49.995-75.139a243.369,243.369,0,0,0,34.582-1.052c.849-.089,1.592-1.2,3.3-2.572-.574-3.377-1.242-7.31-1.942-11.433-13.979-1.931-26.748-6.152-40.1-3.807C-331.457-610.983-331.427-610.988-326.394-601.355Zm96.856,164.182c9.049.66,16.918,1.546,25.339-1.255-.628-4.132-.885-7.842-1.81-11.377-1.06-4.053-2.712-7.95-4.227-12.254-9.467-1.028-18.26-2.6-27.556.766C-236.648-452.638-233.619-445.333-229.538-437.173Zm-3.087,7.141c-11.781-.81-22.608-2.611-34.8,1.415,3.319,6.677,2.616,13.483,7.9,19.053,10.59.881,21.5,1.769,33.521-1.609C-228.385-417.953-230.454-423.849-232.625-430.032Zm-43-192.2c-4.695,7.5-4.72,14.61-2.026,21.888,2.752,7.433,6.809,9.784,14.689,8.828,3.1-.376,6.184-.9,9.291-1.186,5.611-.513,8.4-2.6,8.88-6.849.549-4.909-2.332-10.972-6.6-11.194C-260.966-611.238-267.92-616.881-275.627-622.228Zm64.455,131.508c1.319,12.018,1.319,12.018,6.8,21.549,7.065,0,14.456.108,21.84-.073,1.968-.049,3.913-.985,6-1.548,1.65-7.755-2.03-13.6-4.255-20.239C-191.394-491.958-201.266-492.737-211.172-490.72Zm19.375-72.024c10.071,1.112,18.849,2.913,28.111.495.559-8.108,1.479-15.463-2.707-22.56-9.674-.94-19.115-2.134-28.681-.248-.332,2.231-.992,3.841-.708,5.263C-194.738-574.56-193.381-569.388-191.8-562.744ZM-388.4-558.7c.791,9.644,6.127,16.983,9.687,25.145,8.554.833,16.308,2.232,25.834.3-3.576-8.989-5.073-17.766-9.7-26.407C-371.231-559.424-379.6-561.355-388.4-558.7Zm198.168,2.975c1.993,9,3.564,16.1,5.1,23.055a40.37,40.37,0,0,0,26.276.449c-1-8.174.485-16.279-5.575-23.5Zm-132.63,177.949c8.226,1.541,15.386,3.077,23.355,1,1.133-9.668-1.877-17.778-6.169-25.8-7.729-.531-15.01-2.445-22.96,1.676A126.675,126.675,0,0,0-322.866-377.778Zm81.811,60.323c-1.454-7.852-1.815-14.786-5.411-20.44-18.291-3.172-23.988-3.085-33.5.638a57.232,57.232,0,0,0,8.794,17.394C-261.74-319.921-252.709-315.54-241.055-317.455Zm99.607,3.86c.389-8.162.492-14.5-3.452-20.492-9.449-1.093-18.794-2.348-28.961,1.219.481,6.825-.325,13.207,4.751,19.273Zm-64.983-22.089c-11.576-.431-21.418-1.98-32.256-1.169-.233,7.81.087,14.377,5.508,21.025,9.364-.943,19.059,3.721,29.676-.158C-204.44-322.294-205.288-328-206.431-335.684ZM-19.065-442.417c.24,9.716-1.785,18.984.874,28.377a29.947,29.947,0,0,0,20-4.23c1.6-9.281,3.753-17.981,1.891-27.331C-4.018-446.934-10.619-446.233-19.065-442.417Zm-320.076-178.92c-9.8-.118-19.251-.864-28.57,4.638.607,6.054-.8,11.871,3.316,18.311,10,1.056,20.142-1.462,31.407-2.816C-334.135-608.51-333.337-614.919-339.141-621.337ZM-58.81-534.142c17.923.921,20.4.564,31.605-4.347.184-5.512.777-11.239-2.314-17.4-10.3.1-20.279-.009-30.909,3.547,0,2.954-.19,5.557.049,8.121C-60.09-541.121-59.438-538.051-58.81-534.142ZM-312.892-431.889c-9.6-.8-17.406-1.875-25.814-.578.375,9.213,5.283,16.305,8.059,24.386,8.034,1.248,15.7,1.459,24.065-1.421-.58-3.093-.842-5.668-1.567-8.106C-309.5-422.142-311.116-426.6-312.892-431.889Zm155.007-5.967c8.531-.063,16.368,1.369,23.812-3.675-2.786-7.441-2.428-15.263-7.741-21.571a53.012,53.012,0,0,0-24.361,1.266C-163.988-453.586-162.707-445.921-157.885-437.856Zm134.52-117.009c-.262,7.434.535,12.978,2.965,18.615,9.744.005,18.687.537,28.232-3.639.334-6.385,2.1-12.974-.743-20.176C-3.383-559.627-13.258-559.265-23.365-554.865ZM-99.671-433.154a58.869,58.869,0,0,0-26.168.878c.795,9.017,2.339,17.174,5.937,25.1,8.134-.31,15.6,2.2,22.956-2.453C-97.838-417.331-98.692-424.7-99.671-433.154Zm-24.87,33.96c-12.835-2.162-12.835-2.162-22.986.555.943,8.882,1.763,17.8,6.187,25.9,7.413.749,14.234,1.679,21.255-3.232Zm99.917-195.667c11.451.073,22.57,1.058,33.171-2.927,2.715-5.453,3.2-10.436.276-16.091-11.4-1.6-21.91,3.08-32.361,3.825C-27.7-605.508-28.156-601.142-24.624-594.861ZM-108.936-490.63c-15.884-2.128-21.958-1.8-31.975,1.635-.591,6.532,2.126,12.119,4.993,18.723,10.3-1.019,20.321,1.685,30.515-3.518C-106.663-479.8-107.835-485.383-108.936-490.63Zm-18.571,82.8a57.161,57.161,0,0,0-5.344-24.806c-8.44-.223-16.287-1.6-23.629,3.611,2.348,7.619,2.59,15.225,7.421,21.66C-142.109-406.439-135.323-406.025-127.507-407.833Zm8.157,40.666c-7.584.548-14.376-.077-21.162,2.264-.931,8.387,1.324,15.354,3.371,22.657,7.588,1.934,14.717,2.327,22.294-.41A37.669,37.669,0,0,0-119.35-367.167Zm-69.433-8.258c.549-9.1-2.643-16.821-4.935-25.1-8.392-1.574-16-2.661-24.214.693,2.31,8.545,1.782,17.356,7.705,24.53C-203.153-374.592-196.408-373.443-188.783-375.425Zm-21.3,6.4c2.286,10.255,4,17.925,5.744,25.771,7.705,2.289,14.674,3.672,22.334-.069-.537-8.337-.319-16.313-5.9-24.525ZM50.427-617.277c-13.053-.453-23.993-1.445-34.633,1.3-1.718,9.035-1.718,9.035.369,17.783,11.2,2.078,21.536-2.345,32.944-4.028C49.542-607.184,49.9-611.254,50.427-617.277Zm-7.394,51.718C32.6-565.816,23.654-563.77,14.553-561c-.528,7.695-2.193,14.459,1.277,21.193,7.2.584,14.011,1.176,20.53-1.467C40.464-548.7,41.961-556.324,43.033-565.559ZM-24.566-449.7c.186-6.829,1.594-12.506-1.343-19.232-9.035.716-17.985-1.228-26.657,3.178-.749,6.845-.955,13.114,2.479,19.234C-41.679-444.671-34.127-448.064-24.566-449.7Zm-90,73.287a26.136,26.136,0,0,0,21.783-1.053c.8-7.96-1.3-15.087-3.312-22.7-7.553-1.478-14.772-2.068-21.992.812,0,2.594-.315,4.787.062,6.853C-117.063-387.232-115.791-382.015-114.566-376.418Zm-32.716-114.475c-9.632-.631-17.82-2.246-25.841.806,1.159,11.077,1.159,11.077,6.5,19.971,7.458.685,15.139,1.4,23.7-2.208C-144.381-478.529-145.677-484.051-147.282-490.893Zm93.429,16.118c9.851,2.513,19.01.754,28.839-.868,1.1-6.819,2.147-12.9-1.154-19.2-9.321-.72-18.25-1.241-27.685,1.086Zm-172.264,45.587a37.562,37.562,0,0,0,6.6,19.923c7.916,1.529,15.53,3.244,23.792-.9-1.652-7.215-1.717-14.163-7.225-20.571-5.4,0-11.22-.123-17.034.069C-221.971-430.6-223.93-429.74-226.117-429.188ZM-92.551-367.9c-10.65-1.508-10.653-1.559-19.686,1.907,1.4,7.612,2.835,15.4,4.263,23.158,6.742,2.539,12.765,3.136,19.1-.273C-88.418-351.94-88.968-360.256-92.551-367.9Zm46.279-3.135c-1.03,8.592-2.219,16.852,1.592,24.972,6.6.838,12.184.274,17.614-3.736.235-7.865,3.294-15.586-.023-23.786C-33.878-374.74-39.868-372.914-46.272-371.032ZM-315.7-349.919c8.525,1.111,16.1,2.922,24.566-.616-2.589-7.009-2.965-13.933-7.041-20.824-7.505.444-15.1-2.819-23.514,1.365C-319.574-362.91-317.64-356.426-315.7-349.919ZM8.521-419.06c8.239-.764,14.777-.318,19.411-6.119.443-8.047,3.507-15.867-.224-24.826l-15.776,1.66C9.574-438.571,7.913-429.816,8.521-419.06Zm-144.5,85.568c-2.094,6.616-1.085,12.659,1.933,19,7.859,1.038,15.583,1.22,23.609-2.924-.242-5.926.114-11.605-3.527-17.519C-121.287-335.112-128.57-336.924-135.98-333.492ZM-.069-409.978-19.908-406.5c-.161,8.314-2.7,15.885,1.9,24.059l16.95-2.825C1.843-393.854,2.328-401.469-.069-409.978Zm-47.073,6.944c-1.154,8.831-1.456,16.167,1.124,23.656,7.392,1.213,13.823-.214,20.371-3.508.527-7.266,1.889-14.043-1.093-20.841C-33.479-405.384-39.654-404.4-47.142-403.034ZM-373.317-617.389c-9.446,2.889-17.019,5.007-24.44,7.565-3.319,1.144-4.886,4.154-4.238,7.645.452,2.438,1.688,4.73,2.9,7.965l29.2-4.494C-371.041-604.984-371.973-610.063-373.317-617.389Zm409.4,85.176c-7.927-2.542-14.518-1.789-21.535.026-1.534,8.576-2.212,16.336.141,24.4a28.867,28.867,0,0,0,18.736-2.755C34.256-517.3,35.147-524.566,36.085-532.213ZM-.07-354.311c-1.358-8.947,2.052-16.239-1.928-23.3-6.544-1.051-12.03.6-18.342,3.917-.213,7.327-2.429,15.043.94,23.664ZM6.383-497.967c-9.309.04-17.281-1.285-25.274,3.179,0,4.479-.147,8.722.08,12.945.079,1.472,1.078,2.895,2.063,5.353L4.661-478.7C8.49-485.124,7.895-490.741,6.383-497.967ZM-179.684-334.591c-8.583-.8-15.234-2.4-21.877.993-1.214,7.429,1.534,13.466,3.867,19.749,7.688.548,14.425,1.837,22.054-1.324C-176.932-321.373-178.2-327.447-179.684-334.591Zm65.39-265.865c-3.812,6.988-3.863,12.55-.363,17.946a11.094,11.094,0,0,0,16.616,2.6c3.384-2.767,5.99-6.163,6.017-10.745.027-4.717.356-9.71-4.849-12.493ZM24.19-391.508c1.748-7.51,4.248-15.055,1.6-24.007L8.413-411.542c-1.873,8.153-3.438,15.281-2.126,22.979A20.733,20.733,0,0,0,24.19-391.508ZM-30.827-608.492c-11.461,1.726-20.966,3.026-30.418,4.637-4.817.82-5.381,2.713-3.958,12.143a104.248,104.248,0,0,0,34.376-3.161ZM3.864-454.059c2.268-5.837,2.415-11.375,1.407-17.755-8.6-.449-16.33-1.21-24.154,3.727.693,5.812-2.206,11.656,2.536,17.219C-9.687-451.547-2.774-451.355,3.864-454.059ZM-77.962-320.147c9.492.923,18.074-1.357,26.463-3.465.688-6.955.688-6.955-2.158-13.6-7.551.615-15.511,1.208-23.451,1.995-.82.081-1.526,1.317-2.764,2.46a41.109,41.109,0,0,0,.062,5.867A55.2,55.2,0,0,0-77.962-320.147Zm-202.431-4.176-8.274-17.588c-8.148-.91-15.235-2.458-22.6-.052,4.312,10.654,5.091,11.966,10.185,14.765C-294.92-323.813-288.516-321.515-280.393-324.323ZM18.4-359.334A47.557,47.557,0,0,0,22.222-380.8c-6.459-1.605-11.5-1.464-16.8,2.646-.332,3.668-.954,7.811-1,11.959-.033,3.065.687,6.138,1.16,9.922Zm-122,42.065a29.71,29.71,0,0,0,17.141-1.582c.879-.364,1.459-1.452,2.868-2.932-1.107-3.81-2.376-8.177-3.646-12.55-6.718-.693-12.46-2.034-17.971,1.178C-106.61-327.593-106.541-322.462-103.6-317.269ZM33.744-501.857c-8.186-.536-13.8-.351-19.585,2.151a37.069,37.069,0,0,0-.164,17.924,26.449,26.449,0,0,0,17.111-1.548C31.865-488.656,32.673-494.337,33.744-501.857Zm-2.88,27.848c-17.374-3.634-20.926,2.463-19.273,14.952.123.924,1.012,1.748,1.852,3.119,5.513,1.039,11.082,1.1,16.675-3.609C30.338-463.815,30.579-468.491,30.864-474.009Zm-301.41-164.085c-3.864,4.422-3.985,8.55-.311,11.75a64.349,64.349,0,0,0,13,8.709c2.037,1.036,5.669,1.026,7.5-.164,2.255-1.461,3.388-4.652,5.042-7.149Zm145.659,46.644c.22-3.033.422-5.822.641-8.841-9.188.928-17.174,1.661-25.138,2.583a31.34,31.34,0,0,0-7.788,1.785c-1.09.427-2.49,2.422-2.253,3.3a4.75,4.75,0,0,0,3.259,2.77,43.415,43.415,0,0,0,9.618.421C-139.6-589.911-132.684-590.7-124.887-591.45Zm-115.225-50.966c-7.51-4.6-13.744-8.481-20.075-12.2-.677-.4-1.915.157-3.395.328v13.51c5.323,3.767,9.527,7.971,18.255,7.423.338-.566,1.451-2.4,2.529-4.245C-242.027-638.924-241.3-640.276-240.112-642.416Zm109.68-57.059c6.073,7.645,6.111,7.719,10.316,5.578,4.18-2.127,8.695-3.918,10.783-9.233-1.533-6.228-5.53-9.172-12.63-8.767C-124.715-707.861-127.349-704-130.432-699.475Zm84.442,360.9c.9,5.375,1.553,9.255,2.339,13.942,4-.564,7.057-.823,10.036-1.448,8.922-1.873,9.952-4.825,4.782-15.019Zm-94.192-362.763c2.193-.685,4.654-.723,5.847-1.972a63.132,63.132,0,0,0,7.79-10.132c3.644-5.84,1.062-10.081-6.252-10.4-2.016-.087-4.069.68-6.744,1.173-.638,5.5-1.356,10.743-1.783,16.006C-141.443-705.182-140.707-703.64-140.182-701.334ZM-2.3-333.46c1.963-5.373,2.788-9.381-1.391-13.1-3.035.4-6.3.463-9.355,1.3-7.743,2.128-8.11,3.136-6.672,15.065C-13.754-328.959-8.476-332.058-2.3-333.46ZM-181.707-695.385c-4.366-8.443-5.309-16.209-11.824-21.268L-207-712.179C-196.82-707.491-196.9-693.5-181.707-695.385Zm-55.239,5.845c2.221,8.948,7.261,14.048,14.262,17.221a6.083,6.083,0,0,0,5.562-1.159c.976-1.056,1.116-4.406.182-5.442a90.253,90.253,0,0,0-12.676-11.866C-230.863-691.721-234.018-690.109-236.946-689.54ZM-95.9-629.095c-5.563-.162-11.316-.468-17.068-.443-3.3.014-4.195,2.212-3.629,8.459a31.24,31.24,0,0,0,15.53.788C-96.6-621.079-94.87-623.861-95.9-629.095Zm4.147,15.072c-10.358,0-17.956-.216-25.517.213-1.265.072-3.287,2.949-3.281,4.523.006,1.436,2.445,4.208,3.542,4.08C-109.018-606.14-100.594-606.264-91.757-614.023ZM-226.029-667.59l-14.283-13.379c-1.9,3.743-3.283,6.456-4.549,8.944,3.838,6.469,8.079,10.789,16,11.551C-227.93-662.82-227.019-665.1-226.029-667.59Zm-26.907-3.052c-.589,5.983-.975,9.908-1.407,14.288,4.107,2.318,7.592,4.7,11.413,6.238,1.49.6,4.547-.08,5.408-1.26.831-1.139.458-4.332-.612-5.473C-242.05-661.027-246.478-664.726-252.936-670.642Zm87.675-30.644c2.682-5.534,4.655-7.742,4.608-9.907a49.884,49.884,0,0,0-2.169-12.34c-1.265-4.472-3.231-4.648-9.651-1.237C-170.51-718.378-168.529-711.926-165.261-701.286Zm-12.637-.121c1.655-1.353,3.864-2.458,3.744-3.173-.934-5.6-1.879-11.276-3.8-16.573-.648-1.786-4.028-2.869-6.369-3.615-1.018-.324-2.566,1.015-4.456,1.859C-185.089-715.613-181.609-708.737-177.9-701.407Zm25.152,1.039c7.9-11.024,8-19.187,4.61-28.966l-9.057,4.072C-155.835-717.661-154.633-710.933-152.746-700.368Zm-80.323,102.231c2.88,3.165,4,5.562,5.381,5.72,7.57.866,15.216,1.735,23.838.208C-214.583-597.917-214.583-597.917-233.069-598.137Zm37.912,5.218c8.31,2.326,16.424,4.842,24.911,3.236,1.5-.285,2.708-2.144,5.574-4.559C-176.363-595.838-185.767-594.667-195.157-592.919Zm94.54-99.595c-2.067-3.6-4.718-5.662-8.909-3.18a50.118,50.118,0,0,0-7.935,5.231c-2.069,1.839-2.9,4.413-.364,6.82C-107.3-685.887-107.3-685.887-100.617-692.514Zm4.983,20.943c-6.114.908-10.879,1.322-15.466,2.458-1.574.39-3.694,2.5-3.825,3.974a4.7,4.7,0,0,0,4.986,5.127C-103.3-660.3-96.855-661.459-95.634-671.571Zm2.8,12.224c-8.385,4.644-17.3,2.3-20.825,11.877,7.6,1.562,13.937-.461,19.707-4.455C-93.138-652.487-93.468-654.7-92.832-659.347Zm5.874,57.655c1.4,4.781,1.48,8.67,2.951,9.3,3.1,1.329,6.982,1.441,10.46,1.128,3.1-.278,4.248-3.2,3.438-5.955-.5-1.7-2.188-4-3.664-4.27C-77.24-602.12-80.9-601.692-86.958-601.692Zm-6.478-35.417c-5.869-7.6-8.406-7.469-18.674.083C-106.183-631.842-100.689-634.3-93.436-637.109ZM4.946-337.752c7.3.483,10.015-3.515,10.934-9.238.206-1.282-.671-2.738-1.254-4.858L4.337-347.871C4.578-343.877,4.761-340.821,4.946-337.752Zm-120.684-339.3c10.962,1.72,10.962,1.72,18.81-4.656C-104.467-685.332-108.457-679.626-115.738-677.049Zm-120.771,81.038c.359-.2.9-.312,1.029-.606.15-.353-.061-.858-.116-1.3l-1.577.826Z" transform="translate(-13235.721 -19589.912)" fill="#29302c"/>
    </g>
  </g>
</svg>
