<svg xmlns="http://www.w3.org/2000/svg" xmlns:xlink="http://www.w3.org/1999/xlink" width="1920" height="1079" viewBox="0 0 1920 1079"><defs><clipPath id="b"><rect width="1920" height="1079"/></clipPath></defs><g id="a" clip-path="url(#b)"><rect width="1920" height="1079" fill="#9ca893"/><path d="M987.707,1985.007c1.56,15.922-2.881,29.748-1.377,45.883,1.7,18.262,4.2,32.547,22.142,40.474,10.558,4.665,34.523,1.287,30.414,20.2-8.88,40.881-76.578-55.737-75.681,1.154.643,40.819,48.236,44.808,76.28,48.5,15.511,2.042,27.612,7.082,41.195,14.958-8.819,35.16-82.746-20.529-101.862-19.025-24.539,1.929-14.66,24.837-3.474,38.024,12.458,14.688,32.742,25.859,50.8,30.922,27.564,7.728,58.811-.853,85.174,12.67,22,11.288,15.4,23.372-6.4,25.3-19.118,1.691-37.236-8-54.783-12.818-16.948-4.654-82.568-34.212-72.208,1.875,7.37,25.667,46.5,39.712,68.495,46.026,42.888,12.313,111.257,39.283,149.4,1.323l.851,2.679c64.825,10.981,110.008-72.414,86.609-129.289-7.017-17.054-20.852-76.381-44.919-46.242-11.57,14.488,1.416,34.805-9.614,48.782-16.573,20.994-25.109-2.572-23.145-19.206,3.519-29.793,29.135-61.208,21.072-92.2-11.891-45.7-43.893-13.864-53.067,15.5-4.044,12.948.863,45.63-17.939,46.931-26.607,1.844-17.3-36.27-13-48.854,5.166-15.114,41.012-117.524-13.6-100.061-28.333,9.059-13.163,47.975-18.554,67.333-3.212,11.533-14.074,24.955-26.7,12.541-10.327-10.156.247-29.574.579-39.8.332-10.181-.962-17.493-7.487-25.661-8.95-11.207-16.57-7.142-27.084-8.375-25.544-3-42.732-6.361-64.272-21.215C978.324,1955.926,986.376,1971.433,987.707,1985.007Z" transform="translate(734.531 -1940.344)" fill="#909b8b"/><g transform="translate(-830.264 -1305.279)"><path d="M1131.951,2235.179c-4.8-14.662-35.09-35.17-49.483-37.412-23.385-3.646-41.794,9.54-63.672,9.761-9.623.1-23.473-1.326-19.478-15.226,3.091-10.752,24.206-15.747,33.391-18.03a83.99,83.99,0,0,1,35.918-1.426c9.085,1.688,24.306,9.9,30.447-1.312,16.617-30.342-65.256-53.113-81.662-53.978-33.252-1.752-70.038,13.145-94.125,34.6l-20.762,2.769c-47.275,11.937-101.9,31.242-101.047,91.356.192,13.5-.575,54.323,13.81,58.168,27.918,7.462,24.251-33.711,31.836-47.094,13.824-24.39,51.515-24.941,41.9,9.688-7.181,25.853-26.743,44.406-30.72,71.938-1.777,12.292-6.918,27.131,6.777,35.023,12.612,7.27,23.167.222,30.216-9.76,6.861-9.714,19.208-74.812,37.368-48.414,17.386,25.272-21.262,58.621-1.418,83.085,28.983,35.734,32.254-34.081,52.705-34.765,4.181,11.654-.712,24.539,5.4,35.774,6.464,11.885,21.732,21.286,34.984,22.18,26.927,1.813,50.738-20.594,78.653-12.663-2.945-17.332,1.864-37.673-2.482-55.163-5.2-20.905-19.38-25.1-34.814-35.985,13.926-18.32,45.928,20.783,48.687-13.879,1.6-20.057-31.253-35.293-47.133-39.06-7.491-1.777-27.822.975-21.866-10.694,4.829-9.46,25.372-7.476,34.324-7C1093.422,2248.4,1142.228,2266.581,1131.951,2235.179Zm-72.091-11.965c-33.289.068-67.016,4.665-97.046,19.721,10.423,11.731,21.779,22.555,33.022,33.556q.668.653,1.334,1.31c11.739-7.218,27.813-7.242,40.95-4.916a95.234,95.234,0,0,1,25,7.87,66.888,66.888,0,0,0,11.639,4.726c1.443.4,3.481.718,4.214,2.224a2.309,2.309,0,0,1,0,2.328,5.28,5.28,0,0,1-2.807,1.849,2.022,2.022,0,0,1-2.776-1.9c-.392-.147-.766-.294-1-.361-1.4-.4-2.819-.783-4.184-1.3-3.056-1.153-5.815-2.905-8.8-4.226a91.456,91.456,0,0,0-22.5-6.761c-11.668-1.849-25.64-2.139-36.3,3.822,12.816,12.611,25.473,25.476,36.689,39.535,10.763,13.49,21.167,28.377,25.267,45.405.7,2.891-3.752,4.119-4.449,1.227-4.326-17.967-15.935-33.792-27.638-47.706-12.948-15.4-27.284-29.525-41.672-43.559q-1.2-1.168-2.39-2.334a2.245,2.245,0,0,1-1.592,2.469c-15.694,5.007-22.656,23.652-26.346,38.129a181.8,181.8,0,0,0-5.181,52.387c.125,2.976-4.489,2.964-4.615,0-.8-18.956.9-38.7,6.258-56.948,4.473-15.24,12.263-32.788,28.656-38.018a2.368,2.368,0,0,1,.682-.108c-13.272-12.983-26.293-26.079-37.456-41.014-18.087,2.919-28.614,20.89-35.959,36.026-8.378,17.265-14.1,35.739-22.938,52.78-1.37,2.641-5.352.307-3.985-2.33,9.366-18.068,15.138-37.771,24.481-55.864,7.565-14.651,18.285-31.045,35.41-34.733-6.182-8.586-11.893-17.477-17.268-26.575a2.416,2.416,0,0,1-2.758-1.21c-.064-.014-.125-.018-.191-.038-30.822-9.394-70.8,7.043-84.6,36.312-1.268,2.691-5.245.347-3.984-2.328,14.369-30.477,55.544-47.7,87.924-38.955q-5.138-9.021-9.947-18.235c-1.378-2.633,2.6-4.967,3.984-2.33q4.72,9.025,9.723,17.927c8.666-16.568,23.132-27.441,41.5-32.9,19.095-5.669,39.281-6.419,58.29-12.391,2.847-.894,4.055,3.56,1.227,4.449-17.995,5.652-37.061,6.469-55.2,11.5-19.221,5.336-34.731,15.881-43.079,34.106a311.786,311.786,0,0,0,23.75,35.589c2.112,2.7,4.3,5.321,6.522,7.912,30.956-15.749,65.746-20.673,100.157-20.743C1062.836,2218.594,1062.835,2223.208,1059.86,2223.214Z" transform="translate(0)" fill="#909b8b"/></g><g transform="matrix(-0.966, 0.259, -0.259, -0.966, 3374.378, 2892.304)"><path d="M1134.111,2235.948c-4.829-14.758-35.319-35.4-49.807-37.657-23.538-3.669-42.067,9.6-64.088,9.825-9.686.1-23.627-1.335-19.605-15.325,3.111-10.823,24.365-15.849,33.609-18.148a84.534,84.534,0,0,1,36.152-1.436c9.145,1.7,24.465,9.966,30.646-1.321,16.726-30.54-65.683-53.46-82.2-54.33-33.469-1.763-70.5,13.231-94.74,34.831l-20.9,2.787c-47.584,12.015-102.562,31.446-101.707,91.953.193,13.586-.579,54.678,13.9,58.548,28.1,7.511,24.409-33.931,32.045-47.4,13.915-24.549,51.852-25.1,42.171,9.752-7.228,26.022-26.918,44.7-30.921,72.408-1.789,12.373-6.963,27.308,6.821,35.252,12.695,7.317,23.318.224,30.414-9.824,6.906-9.778,19.334-75.3,37.612-48.731,17.5,25.437-21.4,59-1.428,83.629,29.172,35.968,32.465-34.3,53.05-34.992,4.208,11.731-.717,24.7,5.433,36.008,6.506,11.963,21.874,21.425,35.213,22.324,27.1,1.825,51.069-20.729,79.167-12.745-2.965-17.445,1.876-37.919-2.5-55.523-5.229-21.042-19.507-25.262-35.042-36.22,14.017-18.44,46.229,20.919,49.005-13.969,1.608-20.188-31.457-35.524-47.441-39.315-7.54-1.789-28,.981-22.009-10.764,4.861-9.521,25.538-7.525,34.549-7.044C1095.33,2249.257,1144.455,2267.556,1134.111,2235.948Zm-72.562-12.044c-33.507.069-67.454,4.7-97.681,19.85,10.491,11.807,21.922,22.7,33.238,33.776q.673.658,1.343,1.318c11.816-7.265,28-7.289,41.218-4.948a95.844,95.844,0,0,1,25.159,7.921,67.3,67.3,0,0,0,11.715,4.757c1.453.4,3.5.723,4.241,2.238a2.324,2.324,0,0,1,0,2.343,5.315,5.315,0,0,1-2.826,1.861,2.035,2.035,0,0,1-2.795-1.914c-.395-.148-.771-.3-1.009-.364-1.412-.4-2.838-.788-4.212-1.306-3.076-1.16-5.853-2.924-8.861-4.253a92.041,92.041,0,0,0-22.648-6.805c-11.744-1.861-25.807-2.154-36.541,3.847,12.9,12.693,25.639,25.642,36.929,39.793,10.834,13.578,21.305,28.563,25.432,45.7.7,2.91-3.777,4.146-4.478,1.234-4.355-18.084-16.039-34.013-27.818-48.018-13.033-15.5-27.462-29.718-41.945-43.843q-1.2-1.176-2.406-2.349a2.26,2.26,0,0,1-1.6,2.485c-15.8,5.04-22.8,23.807-26.518,38.378a182.984,182.984,0,0,0-5.214,52.729c.126,3-4.519,2.983-4.645,0-.808-19.08.908-38.952,6.3-57.321,4.5-15.339,12.343-33,28.843-38.266a2.4,2.4,0,0,1,.686-.108c-13.359-13.068-26.465-26.249-37.7-41.282-18.205,2.938-28.8,21.027-36.194,36.262-8.433,17.377-14.2,35.973-23.088,53.125-1.379,2.658-5.386.309-4.011-2.346,9.427-18.186,15.237-38.018,24.641-56.229,7.615-14.747,18.4-31.248,35.641-34.959-6.223-8.642-11.971-17.591-17.38-26.749a2.432,2.432,0,0,1-2.776-1.218c-.065-.014-.126-.018-.192-.038-31.024-9.456-71.262,7.089-85.152,36.549-1.276,2.708-5.279.349-4.01-2.343,14.463-30.677,55.907-48.012,88.5-39.21q-5.172-9.081-10.012-18.354c-1.387-2.65,2.622-5,4.01-2.345q4.751,9.083,9.787,18.044c8.723-16.676,23.283-27.62,41.772-33.11,19.22-5.707,39.538-6.461,58.671-12.472,2.865-.9,4.081,3.583,1.235,4.479-18.112,5.689-37.3,6.511-55.565,11.58-19.347,5.371-34.958,15.984-43.36,34.329a313.835,313.835,0,0,0,23.905,35.821c2.126,2.716,4.329,5.356,6.565,7.964,31.159-15.852,66.176-20.808,100.811-20.878C1064.544,2219.255,1064.543,2223.9,1061.548,2223.9Z" transform="translate(0)" fill="#909b8b"/></g><path d="M879.474-860.1c-96.313-18.654-90.622,101.329-90.622,101.329s-100.567-36.6-127.45,43.817c-7.18,21.479,18.724,55.477,60.783,87.752q6.623,5.083,13.757,10.091c47.366,33.23,110.482,62.936,169.99,72.8,122.35,20.289,191.978-8.708,203.7-28.882S975.787-841.447,879.474-860.1ZM1037.11-603.381c7.872,6.4,25.859,9.861,28.759,18.725-14.392-1.216-34.528-11.572-48.732-18.329A80.74,80.74,0,0,0,1019-585.821c2.19,8.68,10.04,23.469-1.418,28.632-12.929-12.161-11.442-37.154-11.32-51.316-12.286-6.819-23.7-15.238-34.978-23.891-2.517,9.781-1.994,22.1-.25,33.76,1.55,10.351,7.725,34.8-.349,42.839-22.907-16.675-22.736-62.427-14.786-88.4-5.563-4.205-11.172-8.316-16.928-12.153-8.42-5.615-17.158-10.821-26.055-15.79-17.716,7.378,5.461,94.537-2.369,110.3-12.2-9.171-17.173-37.539-18.146-52.053-1.539-22.923,7.778-43.053,8.491-64.786-12.874-6.84-25.94-13.345-38.759-20-11.317,16.008-18.28,35.124-22.438,54.575-3.442,16.107,1.411,56.525-11.383,66.995-16.27-11.16-7.9-52.6-5.657-68.565,3.1-22.106,13.266-42.527,20.2-63.292a210.075,210.075,0,0,1-25.8-16.575c-15.6,8.167-34.924,18.243-45.634,30.121-3.791,4.206-12.122,15.657-21.125,26.818-7.548,9.356-15.565,18.505-21.784,23.017-3.328,2.415-6.142,3.507-8.087,2.581-2.02-14.011,7.924-33.1,22.329-50.856a200.815,200.815,0,0,1,14.72-16.194c14.995-14.815,31.73-26.852,44.557-31.277a16.7,16.7,0,0,1-2.246-6.971c-5.652-11.766,6.6-6.947,14.359-2.7,11.824-9.642,15.5-23.633,24.62-36.458,8.974-12.627,23.229-28.05,36.063-36.773,16.7-11.348,35.618-1.4,14.256,13.734-14.951,10.593-27.752,19.148-40.593,32.5-6.364,6.619-11.66,14.891-16.317,22.753-2.787,4.7-3.959,9.344-5.085,13.965,4.863,4.654,9.312,9.745,14.358,14.166a76.045,76.045,0,0,0,10.461,7.589c17.265-24.744,105.746-82.623,110.12-53.888-36.722,8.975-79.752,23.759-98.3,60.211,14.087,6.7,29.282,11.861,42.01,20.651,15.685-.225,32.494-13.394,45.971-20.152,14.418-7.23,31.634-12.885,47.444-13.077,6.537-.078,17.91,2.045,10.461,9.771-3.272,3.394-17.273,3.994-21.848,4.673-8.341,1.239-15.485.728-23.462,3.586-8.5,3.042-16.667,6.123-24.72,9.724-7.142,3.193-10.019,5.641-14.705,11.885-1.034,1.378-2.219,3.2-3.474,5.037,13.516,10.081,26.431,19.989,39.909,29.465,15.7.515,34.126-10.945,49.206-14.571,5.865-1.41,44.108-6.313,37.025,4.952-4.753,7.563-35.33,7.34-43.643,9.286-9.125,2.134-18.828,5.085-26.412,11.257q5.5,3.546,11.227,6.98c8.371,5,18.595,10.65,28.306,16.59,13.043-5.912,38.752-22.877,50.544-8.05-5.425,6.177-19.642,5.548-27.633,7.619-4.26,1.1-9.316,2.164-13.024,4.956a11.488,11.488,0,0,0-1.118,1.04C1029.882-608.879,1033.725-606.132,1037.11-603.381Z" transform="translate(-719.269 819.369)" fill="#909b8b"/></g></svg>