<svg xmlns="http://www.w3.org/2000/svg" xmlns:xlink="http://www.w3.org/1999/xlink" width="616" height="682.168" viewBox="0 0 616 682.168">
  <defs>
    <clipPath id="clip-path">
      <rect id="Rectangle_281" data-name="Rectangle 281" width="478.054" height="682.168" fill="none"/>
    </clipPath>
  </defs>
  <g id="Group_866" data-name="Group 866" transform="translate(-1116 -275.79)">
    <g id="Group_850" data-name="Group 850">
      <circle id="Ellipse_39" data-name="Ellipse 39" cx="308" cy="308" r="308" transform="translate(1116 305)" fill="#cad6d8"/>
      <g id="Group_820" data-name="Group 820" transform="translate(1153.585 275.788)">
        <g id="Group_819" data-name="Group 819" transform="translate(0 0.002)" clip-path="url(#clip-path)">
          <path id="Path_1874" data-name="Path 1874" d="M363.2,332.194a32.349,32.349,0,0,1,7.807,9c7.215,12.015,13.763,24.38,18.446,37.608,2.56,7.228,3.782,7.082,10.7,5.542a29.786,29.786,0,0,0,5.032-1.7,2.021,2.021,0,0,0,1.09-2.57,49.659,49.659,0,0,0-2.686-6.274,188.145,188.145,0,0,1-12.068-28.806,111.217,111.217,0,0,1-4.816-23.1c-.847-8.418.52-16.74,1.775-25.036a4.562,4.562,0,0,1,1.845-3.442,6.171,6.171,0,0,1,1.089,1.765c.963,4.992,1.818,10.005,2.747,15a212.27,212.27,0,0,0,9.469,35.311c3.455,9.291,7.163,18.488,10.816,27.7a31.6,31.6,0,0,0,2.166,3.985c.093.162.505.324.629.25.391-.231,1.026-.586,1.015-.873a52.533,52.533,0,0,0-.482-6.049c-.816-5.272-1.845-10.513-2.6-15.794-.97-6.791-2.019-13.588-2.568-20.42-1.533-19.083-5.82-37.663-9.959-56.27-2.87-12.9-5.929-25.756-8.969-38.616a56.429,56.429,0,0,0-2.1-6.494c-.407-1.1-2.44-1.241-3.3-.347-2.53,2.632-3.867,5.933-5.186,9.241q-6.919,17.37-12.406,35.246c-1.188,3.882-2.683,7.671-4.021,11.507-1.924,5.516-3.8,11.049-5.761,16.552a62.734,62.734,0,0,1-2.6,6.317,2.119,2.119,0,0,1-1.79.95,2.459,2.459,0,0,1-1.4-1.57,20.068,20.068,0,0,1-.777-4.481c-.242-5.333-.36-10.671-.542-16.007-.139-4.066-.031-8.165-.521-12.189a85.266,85.266,0,0,1-.144-17.517c1.284-15.233,1.227-30.472.879-45.736a249.222,249.222,0,0,1,1.064-32.754c.33-3.03.272-6.1.61-9.132.479-4.288.96-8.594,1.837-12.81a18.15,18.15,0,0,1,2.735-6.221c5.547-8.264,12.828-14.352,22.5-17.329a25.835,25.835,0,0,1,9.045-1,15.157,15.157,0,0,1,12.216,6.728c5.083,7.2,7.385,15.057,5.518,23.795-2.07,9.692-4.211,19.378-7.521,28.751-.424,1.2-.735,2.44-1.213,3.616-2.605,6.412-2.5,12.976-.666,19.465,2.153,7.6,3.4,15.389,5.282,23.033,1.458,5.916,3.077,11.787,4.317,17.761,2.428,11.7,4.868,23.392,7.5,35.043,3.646,16.14,6.25,32.447,8.456,48.835,1.322,9.826,2.9,19.617,4.4,29.42a18.543,18.543,0,0,0,.773,2.938,3.371,3.371,0,0,0,3.491,2.361,3.754,3.754,0,0,0,3.27-2.769,22.622,22.622,0,0,0,.526-3.765c.592-13.716.958-27.446,1.755-41.151,1.816-31.259,1.186-62.55,1.526-93.829.066-6.1.58-12.19.844-18.286.986-22.868,2.083-45.731,2.352-68.624.015-1.269.005-2.541-.066-3.807a4.429,4.429,0,0,0-2.914-4.113,55.409,55.409,0,0,0-5.8-1.867,131.114,131.114,0,0,1-21.541-7.633c-5.587-2.627-10.529-6.083-14.011-11.4a22.367,22.367,0,0,1-3.522-15.281c.578-4.98,2.556-9.325,7.041-12.088a58.786,58.786,0,0,1,5.969-3.338c7.979-3.711,16.544-4.845,25.2-5.534a11.282,11.282,0,0,1,6.573,1.619,75.975,75.975,0,0,1,6.427,4.1q11.472,8.187,22.978,16.324c7.266,5.122,14.306,10.592,21.194,16.215q18.326,14.96,35.368,31.39c4.4,4.229,8.569,8.7,12.695,13.193a87.2,87.2,0,0,1,6.177,7.732c5.382,7.4,10.679,14.857,15.993,22.3a17.929,17.929,0,0,1,1.046,1.9c-.389.1-.692.277-.828.192a48.072,48.072,0,0,1-5.717-3.758,71.886,71.886,0,0,0-20.114-12.2c-4.693-1.888-9.08-4.553-13.564-6.942-12.117-6.455-24.116-13.143-36.356-19.354a113.067,113.067,0,0,0-22.76-8.716c-3.625-.94-5.115.158-5.51,4.046-.462,4.552-1.044,9.1-1.244,13.668-.491,11.171-1.418,22.316-1.453,33.519-.051,15.751-.434,31.5-.944,47.252-.665,20.569-.586,41.163-.667,61.748-.068,17.307-1.165,34.549-2.638,51.781a106.571,106.571,0,0,0-.227,11.421c.048,2.2,1.932,3.59,4.184,3.487.507-.023,1.013-.076,1.519-.118,5.315-.448,10.624-1.1,15.951-1.286a141.886,141.886,0,0,1,14.471.349,23.335,23.335,0,0,1,6.629,1.566,11.125,11.125,0,0,1,7.333,8.167c.732,3.218,1.3,6.473,1.926,9.716.67,3.5,1.359,6.989,1.959,10.5.56,3.275,1.074,6.684-.036,9.828-1.423,4.032-1.13,8-.663,12.046q2.977,25.748,6,51.492c1.258,10.6,2.68,21.18,3.915,31.782,1.265,10.854,2.373,21.727,3.581,32.587q1.728,15.536,3.521,31.064c.78,6.818,1.642,13.627,2.363,20.45.7,6.573,1.235,13.161,1.888,19.738a15.951,15.951,0,0,0,2.035,7.224c2.111,1.5,4.428,1.066,6.676.784,5.546-.7,11.075-1.53,16.622-2.214a39.337,39.337,0,0,1,6.081-.3c3.733.123,5.357,2.384,4.584,6.209-.252,1.244-.711,2.446-.954,3.692-.9,4.6-3.481,6.709-8.319,7.3-17.9,2.2-35.751,4.812-53.622,7.253-16.109,2.2-32.225,4.343-48.328,6.586-6.038.841-12.037,1.969-18.074,2.821-3.312.468-5.707,1.915-6.973,5.1-.562,1.416-1.25,2.785-1.942,4.144-13.116,25.758-33.959,41.24-62.27,46.785-51.061,7.453-88.431-25.834-97.117-64.245-9.656-42.7,12.021-79.262,44.153-95.764.227-.117.456-.225.686-.336,9.358-4.5,8.564-3.619,6.3-13.944-6.583-30.044-13.432-60.031-20.169-90.042q-7.935-35.342-15.867-70.685-1.258-5.575-2.835-11.074a26.817,26.817,0,0,1-.934-9.8,210.691,210.691,0,0,0-.505-37.317c-1.148-12.4-2.4-24.8-3.145-37.235-.612-10.145-.654-20.328-.759-30.5-.068-6.608.155-13.22.338-19.827.215-7.791,2.833-14.95,6.16-21.856,2.191-4.546,5.986-7.505,10.565-9.482a5.794,5.794,0,0,1,4.457-.172,14.438,14.438,0,0,1,7.7,5.918c3.561,5.791,5.758,11.858,4.6,18.813-.458,2.755-.395,5.608-.978,8.329-1.06,4.943-.241,9.572,1.523,14.186,6.539,17.1,12.962,34.27,20.9,50.776,9.151,19.032,17.638,38.351,25.807,57.808,4.229,10.071,7.711,20.455,11.578,30.678a56.712,56.712,0,0,0,2.779,6.244,3.47,3.47,0,0,0,3.746,2.113c3.939-.91,7.842-2.007,11.682-3.265a3.027,3.027,0,0,0,1.38-2.42,13.828,13.828,0,0,0-.964-4.426A320.27,320.27,0,0,0,368.822,348.3c-1.931-3.865-3.75-7.787-5.538-11.721a4.333,4.333,0,0,1-.084-4.388m-2.03,208.68c21.59,4.6,39.809,12.972,53.731,30.943,12.16,15.7,17.931,35.232,17.63,54.975a6.355,6.355,0,0,0,.249,1.5,2.166,2.166,0,0,0,2.1,1.852,26.081,26.081,0,0,0,5.281-.433c5.471-1.133,10.914-2.408,16.366-3.635,1.731-.389,3.483-.717,5.18-1.223a3.31,3.31,0,0,0,2.465-3.446c-.2-2.526-.65-5.032-.882-7.557-.277-3.02-.568-6.051-.551-9.076,0-.7,1.11-1.658,1.922-2.027A1.979,1.979,0,0,1,467.2,603.9a36.637,36.637,0,0,1,1.95,5.727c.737,2.957,1.2,5.983,1.918,8.943.688,2.816,2.274,3.842,4.987,3.454.753-.107,1.495-.3,2.241-.455q10.452-2.138,20.9-4.279A30.231,30.231,0,0,0,504.4,616.1c7.894-3.171,12.347-8.371,11.151-16.837-.782-5.534-1.44-11.086-2.09-16.638-.71-6.056-1.272-12.13-2.028-18.18q-2.082-16.638-4.331-33.254c-1.137-8.31-2.686-16.57-3.608-24.9-2.068-18.691-3.753-37.423-5.825-56.112-.672-6.063-1.386-12.108-1.676-18.207a37.1,37.1,0,0,0-.915-6.016c-.532-2.469-1.944-3.308-4.477-2.859a19.669,19.669,0,0,0-2.232.485q-12.409,3.733-24.808,7.5a11.18,11.18,0,0,0-1.393.613,3.494,3.494,0,0,0-2.074,3.707c.142,1.513.376,3.024.656,4.52.608,3.246,1.447,6.461,1.86,9.73a88.221,88.221,0,0,1,.522,9.839c.007.458-.92,1.069-1.533,1.335a1.463,1.463,0,0,1-1.293-.584,21.15,21.15,0,0,1-2.2-4.78c-1.191-4.936-2.085-9.943-3.213-14.894a44.976,44.976,0,0,0-1.66-4.834,20.956,20.956,0,0,0-9.411.078c-8,1.465-15.984,3.028-23.966,4.595a26.945,26.945,0,0,0-3.646,1.1,2.783,2.783,0,0,0-1.674,3.079c.181,1.255.466,2.493.694,3.742,1.413,7.749,2.855,15.493,4.213,23.251.39,2.229-.163,3.5-1.377,3.978-1.357.532-2.934-.741-3.708-3a14.225,14.225,0,0,1-.44-1.457c-1.51-6.693-3.528-13.322-4.386-20.1-1.145-9.031-2.095-8.755-10.854-7.388-8.537,1.332-17.059,2.749-25.58,4.18a16.787,16.787,0,0,0-3.629,1.091,3.165,3.165,0,0,0-2.012,2.981,20.042,20.042,0,0,0,.323,3.779c.571,3.253,1.263,6.485,1.837,9.738.4,2.247.845,4.521.042,6.776a2.145,2.145,0,0,1-2.276,1.637,2.617,2.617,0,0,1-1.881-1.009,33.55,33.55,0,0,1-1.958-5.737c-.81-3.463-1.308-7-2.131-10.455-1.436-6.031-2.085-6.441-8.4-6.021a19.071,19.071,0,0,0-3.032.31,64.477,64.477,0,0,1-13.642,1.283,41.031,41.031,0,0,0-5.314.45,5.264,5.264,0,0,0-4.152,2.607,78.024,78.024,0,0,0,1.153,11.594c1.91,9.464,3.611,18.981,7.17,28.035a31.959,31.959,0,0,1,1.446,5.9c1.893,10.247,3.709,20.508,5.615,30.753a49.1,49.1,0,0,0,1.571,5.88,4.957,4.957,0,0,0,3.837,3.365,17.01,17.01,0,0,0,3.763.375,2.855,2.855,0,0,0,2.979-3.508c-.687-4-1.583-7.969-2.343-11.96-.619-3.243-1.254-6.487-1.687-9.756a6.4,6.4,0,0,1,.735-2.858c.3-.779,2.316-.965,2.65-.238a29.286,29.286,0,0,1,2.25,5.568c1.239,5.449,2.188,10.963,3.355,16.429.416,1.953,1.129,3.843,1.8,6.074m-59.859,81.808a45.145,45.145,0,0,0,44.82,45.547c22.642.389,45.284-16.442,45.682-44.566.42-29.556-24.076-45.974-44.328-46.142-27.643-.229-45.965,22.583-46.174,45.162m-3.437-357.13c-1.686.741-1.859,2.33-2.039,3.817-1.161,9.561-3.587,18.945-3.957,28.621a26.639,26.639,0,0,1-.915,5.24,45.823,45.823,0,0,0,.212,21.816c5.675,24.2,11.043,48.476,16.541,72.721.505,2.226,1.015,4.457,1.672,6.641.964,3.209,2.611,4.154,5.688,3.2,4.605-1.426,9.167-2.993,13.755-4.477a105.893,105.893,0,0,1,13.139-3.81,87.533,87.533,0,0,0,10.9-3.312,2.957,2.957,0,0,0,1.726-3.74c-.363-1.212-.8-2.4-1.267-3.581q-2.663-6.722-5.368-13.429c-6.057-15.067-12.056-30.155-19.155-44.782-3.766-7.758-7.143-15.7-10.7-23.564q-8.631-19.073-17.27-38.142c-.631-1.392-1.259-2.8-2.961-3.219m30.751,180c.839-.05,2.872-.134,4.9-.3,13.434-1.072,26.745-3.14,40.062-5.116,7.535-1.119,15.036-2.482,22.529-3.855,11.74-2.152,23.614-3.416,35.307-5.945,15.15-3.277,30.345-6.323,45.2-10.8q6.928-2.085,13.739-4.56c4.143-1.506,6.384-4.686,7.594-8.891,1.335-4.641.588-9.054-.734-13.481a2.83,2.83,0,0,0-3.788-1.549c-3.268,1.4-6.482,2.926-9.729,4.376s-6.382,3.421-9.787,4.178c-5.488,1.221-10.659,3.375-16.076,4.727-5.175,1.291-10.394,2.408-15.591,3.609-1.731.4-3.453.836-5.184,1.238-14.85,3.445-29.562,7.51-44.593,10.145-9.506,1.665-19,3.4-28.647,4.168-5.317.422-10.614,1.1-15.916,1.7-1.766.2-3.512.652-5.28.741-7.862.4-15.729.717-23.595,1.041-2.5.1-3.924,1.507-3.581,3.831a61.622,61.622,0,0,0,1.307,6.732c2.292,8.678,1.428,8.214,11.86,8" transform="translate(-86.396 -27.654)" fill="#273232"/>
          <path id="Path_1875" data-name="Path 1875" d="M363.2,332.194a32.349,32.349,0,0,1,7.807,9c7.215,12.015,13.763,24.38,18.446,37.608,2.56,7.228,3.782,7.082,10.7,5.542a29.786,29.786,0,0,0,5.032-1.7,2.021,2.021,0,0,0,1.09-2.57,49.659,49.659,0,0,0-2.686-6.274,188.145,188.145,0,0,1-12.068-28.806,111.217,111.217,0,0,1-4.816-23.1c-.847-8.418.52-16.74,1.775-25.036a4.562,4.562,0,0,1,1.845-3.442,6.171,6.171,0,0,1,1.089,1.765c.963,4.992,1.818,10.005,2.747,15a212.27,212.27,0,0,0,9.469,35.311c3.455,9.291,7.163,18.488,10.816,27.7a31.6,31.6,0,0,0,2.166,3.985c.093.162.505.324.629.25.391-.231,1.026-.586,1.015-.873a52.533,52.533,0,0,0-.482-6.049c-.816-5.272-1.845-10.513-2.6-15.794-.97-6.791-2.019-13.588-2.568-20.42-1.533-19.083-5.82-37.663-9.959-56.27-2.87-12.9-5.929-25.756-8.969-38.616a56.429,56.429,0,0,0-2.1-6.494c-.407-1.1-2.44-1.241-3.3-.347-2.53,2.632-3.867,5.933-5.186,9.241q-6.919,17.37-12.406,35.246c-1.188,3.882-2.683,7.671-4.021,11.507-1.924,5.516-3.8,11.049-5.761,16.552a62.734,62.734,0,0,1-2.6,6.317,2.119,2.119,0,0,1-1.79.95,2.459,2.459,0,0,1-1.4-1.57,20.068,20.068,0,0,1-.777-4.481c-.242-5.333-.36-10.671-.542-16.007-.139-4.066-.031-8.165-.521-12.189a85.266,85.266,0,0,1-.144-17.517c1.284-15.233,1.227-30.472.879-45.736a249.222,249.222,0,0,1,1.064-32.754c.33-3.03.272-6.1.61-9.132.479-4.288.96-8.594,1.837-12.81a18.15,18.15,0,0,1,2.735-6.221c5.547-8.264,12.828-14.352,22.5-17.329a25.835,25.835,0,0,1,9.045-1,15.157,15.157,0,0,1,12.216,6.728c5.083,7.2,7.385,15.057,5.518,23.795-2.07,9.692-4.211,19.378-7.521,28.751-.424,1.2-.735,2.44-1.213,3.616-2.605,6.412-2.5,12.976-.666,19.465,2.153,7.6,3.4,15.389,5.282,23.033,1.458,5.916,3.077,11.787,4.317,17.761,2.428,11.7,4.868,23.392,7.5,35.043,3.646,16.14,6.25,32.447,8.456,48.835,1.322,9.826,2.9,19.617,4.4,29.42a18.543,18.543,0,0,0,.773,2.938,3.371,3.371,0,0,0,3.491,2.361,3.754,3.754,0,0,0,3.27-2.769,22.622,22.622,0,0,0,.526-3.765c.592-13.716.958-27.446,1.755-41.151,1.816-31.259,1.186-62.55,1.526-93.829.066-6.1.58-12.19.844-18.286.986-22.868,2.083-45.731,2.352-68.624.015-1.269.005-2.541-.066-3.807a4.429,4.429,0,0,0-2.914-4.113,55.409,55.409,0,0,0-5.8-1.867,131.114,131.114,0,0,1-21.541-7.633c-5.587-2.627-10.529-6.083-14.011-11.4a22.367,22.367,0,0,1-3.522-15.281c.578-4.98,2.556-9.325,7.041-12.088a58.786,58.786,0,0,1,5.969-3.338c7.979-3.711,16.544-4.845,25.2-5.534a11.282,11.282,0,0,1,6.573,1.619,75.975,75.975,0,0,1,6.427,4.1q11.472,8.187,22.978,16.324c7.266,5.122,14.306,10.592,21.194,16.215q18.326,14.96,35.368,31.39c4.4,4.229,8.569,8.7,12.695,13.193a87.2,87.2,0,0,1,6.177,7.732c5.382,7.4,10.679,14.857,15.993,22.3a17.929,17.929,0,0,1,1.046,1.9c-.389.1-.692.277-.828.192a48.072,48.072,0,0,1-5.717-3.758,71.886,71.886,0,0,0-20.114-12.2c-4.693-1.888-9.08-4.553-13.564-6.942-12.117-6.455-24.116-13.143-36.356-19.354a113.067,113.067,0,0,0-22.76-8.716c-3.625-.94-5.115.158-5.51,4.046-.462,4.552-1.044,9.1-1.244,13.668-.491,11.171-1.418,22.316-1.453,33.519-.051,15.751-.434,31.5-.944,47.252-.665,20.569-.586,41.163-.667,61.748-.068,17.307-1.165,34.549-2.638,51.781a106.571,106.571,0,0,0-.227,11.421c.048,2.2,1.932,3.59,4.184,3.487.507-.023,1.013-.076,1.519-.118,5.315-.448,10.624-1.1,15.951-1.286a141.886,141.886,0,0,1,14.471.349,23.335,23.335,0,0,1,6.629,1.566,11.125,11.125,0,0,1,7.333,8.167c.732,3.218,1.3,6.473,1.926,9.716.67,3.5,1.359,6.989,1.959,10.5.56,3.275,1.074,6.684-.036,9.828-1.423,4.032-1.13,8-.663,12.046q2.977,25.748,6,51.492c1.258,10.6,2.68,21.18,3.915,31.782,1.265,10.854,2.373,21.727,3.581,32.587q1.728,15.536,3.521,31.064c.78,6.818,1.642,13.627,2.363,20.45.7,6.573,1.235,13.161,1.888,19.738a15.951,15.951,0,0,0,2.035,7.224c2.111,1.5,4.428,1.066,6.676.784,5.546-.7,11.075-1.53,16.622-2.214a39.337,39.337,0,0,1,6.081-.3c3.733.123,5.357,2.384,4.584,6.209-.252,1.244-.711,2.446-.954,3.692-.9,4.6-3.481,6.709-8.319,7.3-17.9,2.2-35.751,4.812-53.622,7.253-16.109,2.2-32.225,4.343-48.328,6.586-6.038.841-12.037,1.969-18.074,2.821-3.312.468-5.707,1.915-6.973,5.1-.562,1.416-1.25,2.785-1.942,4.144-13.116,25.758-33.959,41.24-62.27,46.785-51.061,7.453-88.431-25.834-97.117-64.245-9.656-42.7,12.021-79.262,44.153-95.764.227-.117.456-.225.686-.336,9.358-4.5,8.564-3.619,6.3-13.944-6.583-30.044-13.432-60.031-20.169-90.042q-7.935-35.342-15.867-70.685-1.258-5.575-2.835-11.074a26.817,26.817,0,0,1-.934-9.8,210.691,210.691,0,0,0-.505-37.317c-1.148-12.4-2.4-24.8-3.145-37.235-.612-10.145-.654-20.328-.759-30.5-.068-6.608.155-13.22.338-19.827.215-7.791,2.833-14.95,6.16-21.856,2.191-4.546,5.986-7.505,10.565-9.482a5.794,5.794,0,0,1,4.457-.172,14.438,14.438,0,0,1,7.7,5.918c3.561,5.791,5.758,11.858,4.6,18.813-.458,2.755-.395,5.608-.978,8.329-1.06,4.943-.241,9.572,1.523,14.186,6.539,17.1,12.962,34.27,20.9,50.776,9.151,19.032,17.638,38.351,25.807,57.808,4.229,10.071,7.711,20.455,11.578,30.678a56.712,56.712,0,0,0,2.779,6.244,3.47,3.47,0,0,0,3.746,2.113c3.939-.91,7.842-2.007,11.682-3.265a3.027,3.027,0,0,0,1.38-2.42,13.828,13.828,0,0,0-.964-4.426A320.27,320.27,0,0,0,368.822,348.3c-1.931-3.865-3.75-7.787-5.538-11.721A4.333,4.333,0,0,1,363.2,332.194Zm-2.03,208.68c21.59,4.6,39.809,12.972,53.731,30.943,12.16,15.7,17.931,35.232,17.63,54.975a6.355,6.355,0,0,0,.249,1.5,2.166,2.166,0,0,0,2.1,1.852,26.081,26.081,0,0,0,5.281-.433c5.471-1.133,10.914-2.408,16.366-3.635,1.731-.389,3.483-.717,5.18-1.223a3.31,3.31,0,0,0,2.465-3.446c-.2-2.526-.65-5.032-.882-7.557-.277-3.02-.568-6.051-.551-9.076,0-.7,1.11-1.658,1.922-2.027A1.979,1.979,0,0,1,467.2,603.9a36.637,36.637,0,0,1,1.95,5.727c.737,2.957,1.2,5.983,1.918,8.943.688,2.816,2.274,3.842,4.987,3.454.753-.107,1.495-.3,2.241-.455q10.452-2.138,20.9-4.279A30.231,30.231,0,0,0,504.4,616.1c7.894-3.171,12.347-8.371,11.151-16.837-.782-5.534-1.44-11.086-2.09-16.638-.71-6.056-1.272-12.13-2.028-18.18q-2.082-16.638-4.331-33.254c-1.137-8.31-2.686-16.57-3.608-24.9-2.068-18.691-3.753-37.423-5.825-56.112-.672-6.063-1.386-12.108-1.676-18.207a37.1,37.1,0,0,0-.915-6.016c-.532-2.469-1.944-3.308-4.477-2.859a19.669,19.669,0,0,0-2.232.485q-12.409,3.733-24.808,7.5a11.18,11.18,0,0,0-1.393.613,3.494,3.494,0,0,0-2.074,3.707c.142,1.513.376,3.024.656,4.52.608,3.246,1.447,6.461,1.86,9.73a88.221,88.221,0,0,1,.522,9.839c.007.458-.92,1.069-1.533,1.335a1.463,1.463,0,0,1-1.293-.584,21.15,21.15,0,0,1-2.2-4.78c-1.191-4.936-2.085-9.943-3.213-14.894a44.976,44.976,0,0,0-1.66-4.834,20.956,20.956,0,0,0-9.411.078c-8,1.465-15.984,3.028-23.966,4.595a26.945,26.945,0,0,0-3.646,1.1,2.783,2.783,0,0,0-1.674,3.079c.181,1.255.466,2.493.694,3.742,1.413,7.749,2.855,15.493,4.213,23.251.39,2.229-.163,3.5-1.377,3.978-1.357.532-2.934-.741-3.708-3a14.225,14.225,0,0,1-.44-1.457c-1.51-6.693-3.528-13.322-4.386-20.1-1.145-9.031-2.095-8.755-10.854-7.388-8.537,1.332-17.059,2.749-25.58,4.18a16.787,16.787,0,0,0-3.629,1.091,3.165,3.165,0,0,0-2.012,2.981,20.042,20.042,0,0,0,.323,3.779c.571,3.253,1.263,6.485,1.837,9.738.4,2.247.845,4.521.042,6.776a2.145,2.145,0,0,1-2.276,1.637,2.617,2.617,0,0,1-1.881-1.009,33.55,33.55,0,0,1-1.958-5.737c-.81-3.463-1.308-7-2.131-10.455-1.436-6.031-2.085-6.441-8.4-6.021a19.071,19.071,0,0,0-3.032.31,64.477,64.477,0,0,1-13.642,1.283,41.031,41.031,0,0,0-5.314.45,5.264,5.264,0,0,0-4.152,2.607,78.024,78.024,0,0,0,1.153,11.594c1.91,9.464,3.611,18.981,7.17,28.035a31.959,31.959,0,0,1,1.446,5.9c1.893,10.247,3.709,20.508,5.615,30.753a49.1,49.1,0,0,0,1.571,5.88,4.957,4.957,0,0,0,3.837,3.365,17.01,17.01,0,0,0,3.763.375,2.855,2.855,0,0,0,2.979-3.508c-.687-4-1.583-7.969-2.343-11.96-.619-3.243-1.254-6.487-1.687-9.756a6.4,6.4,0,0,1,.735-2.858c.3-.779,2.316-.965,2.65-.238a29.286,29.286,0,0,1,2.25,5.568c1.239,5.449,2.188,10.963,3.355,16.429C359.785,536.753,360.5,538.643,361.171,540.874Zm-59.859,81.808a45.145,45.145,0,0,0,44.82,45.547c22.642.389,45.284-16.442,45.682-44.566.42-29.556-24.076-45.974-44.328-46.142C319.843,577.291,301.521,600.1,301.312,622.682Zm-3.437-357.13c-1.686.741-1.859,2.33-2.039,3.817-1.161,9.561-3.587,18.945-3.957,28.621a26.639,26.639,0,0,1-.915,5.24,45.823,45.823,0,0,0,.212,21.816c5.675,24.2,11.043,48.476,16.541,72.721.505,2.226,1.015,4.457,1.672,6.641.964,3.209,2.611,4.154,5.688,3.2,4.605-1.426,9.167-2.993,13.755-4.477a105.893,105.893,0,0,1,13.139-3.81,87.533,87.533,0,0,0,10.9-3.312,2.957,2.957,0,0,0,1.726-3.74c-.363-1.212-.8-2.4-1.267-3.581q-2.663-6.722-5.368-13.429c-6.057-15.067-12.056-30.155-19.155-44.782-3.766-7.758-7.143-15.7-10.7-23.564q-8.631-19.073-17.27-38.142C300.2,267.379,299.576,265.973,297.874,265.552Zm30.751,180c.839-.05,2.872-.134,4.9-.3,13.434-1.072,26.745-3.14,40.062-5.116,7.535-1.119,15.036-2.482,22.529-3.855,11.74-2.152,23.614-3.416,35.307-5.945,15.15-3.277,30.345-6.323,45.2-10.8q6.928-2.085,13.739-4.56c4.143-1.506,6.384-4.686,7.594-8.891,1.335-4.641.588-9.054-.734-13.481a2.83,2.83,0,0,0-3.788-1.549c-3.268,1.4-6.482,2.926-9.729,4.376s-6.382,3.421-9.787,4.178c-5.488,1.221-10.659,3.375-16.076,4.727-5.175,1.291-10.394,2.408-15.591,3.609-1.731.4-3.453.836-5.184,1.238-14.85,3.445-29.562,7.51-44.593,10.145-9.506,1.665-19,3.4-28.647,4.168-5.317.422-10.614,1.1-15.916,1.7-1.766.2-3.512.652-5.28.741-7.862.4-15.729.717-23.595,1.041-2.5.1-3.924,1.507-3.581,3.831a61.622,61.622,0,0,0,1.307,6.732C319.057,446.234,318.194,445.77,328.625,445.555Z" transform="translate(-86.396 -27.654)" fill="none" stroke="#273232" stroke-miterlimit="10" stroke-width="2"/>
          <path id="Path_1876" data-name="Path 1876" d="M149.607,167.693c.458-3.268-.422-6.23-1.066-9.162q-8.269-37.591-16.66-75.154a48.146,48.146,0,0,0-6.042-15.552,20.89,20.89,0,0,0-8.877-8.116,17.564,17.564,0,0,0-10.37-1.774q-15.035,2.447-30.037,5.1a20.538,20.538,0,0,0-3.7,1.438,19.768,19.768,0,0,0-1.11,2.725,5.618,5.618,0,0,1-4.683,4.422c-4.472.945-8.921,2.011-13.412,2.849q-14.978,2.793-29.991,5.39c-4,.694-8.031,1.252-12.065,1.715-3.375.387-5.272-.763-6.337-4.142A112,112,0,0,1,2.481,66.362a72.41,72.41,0,0,1-1.452-9.774c-.25-3.775,1.16-5.653,4.9-6.639,4.17-1.1,8.4-2.053,12.65-2.757,11.021-1.824,22.071-3.47,33.106-5.205,2.007-.316,3.992-.788,6-1.068,2.523-.35,5.13-.7,7.534.328,3.725,1.595,7.52,1.123,11.269.565,10.046-1.493,20.134-2.834,30.068-4.892a29.486,29.486,0,0,1,18.586,2.132c11.887,5.346,20.619,13.867,24.482,26.629,1.469,4.854,2.494,9.848,3.618,14.8q11.387,50.17,22.764,100.341a43.344,43.344,0,0,1,1.078,10.568c-.129,6.858.3,13.747-.2,20.571-.6,8.113-.345,16.227-.459,24.324-.125,8.845-.084,17.779,1.6,26.565a40.157,40.157,0,0,1,.5,4.542c1.1,14.691,2.008,29.395,4.319,43.976,1.032,6.515,1.442,13.127,2.276,19.676.481,3.776,1.232,7.519,1.89,11.273a11.4,11.4,0,0,1-.925,7.424,1.324,1.324,0,0,1-2.37.04,32.109,32.109,0,0,1-1.819-4.166c-1.479-4.328-2.873-8.685-4.308-13.028q-6.571-19.911-14.422-39.354a406.554,406.554,0,0,1-20.921-66.856c-1.605-7.449-3.06-14.931-4.508-22.413-1.526-7.888-.684-15.723,1.008-23.456,1.067-4.878,3.44-9.017,8.335-11.187a19.154,19.154,0,0,0,2.532-1.628M36.031,55.5c.74,3.431,1.424,6.876,2.247,10.287a2.772,2.772,0,0,0,2.773,2.15,19.482,19.482,0,0,0,4.431-.589,2.932,2.932,0,0,0,1.981-2.9,40.966,40.966,0,0,0-2.5-11.767,3.714,3.714,0,0,0-2.077-1.942c-3.077-.908-7.218.54-6.859,4.763M24.65,53.32c-2.243.009-4.079,1.118-4.006,2.646.215,4.555.651,9.108,2.823,13.223a3.653,3.653,0,0,0,2.486,1.391,6.5,6.5,0,0,0,2.926-.555c1.68-.6,2.591-1.924,2.223-3.5q-1.29-5.537-2.867-11.005c-.444-1.541-1.766-2.205-3.586-2.2m39.126,6.063c-.419-1.792-1.041-5-1.94-8.12-.733-2.547-2.514-3.335-5.357-2.751-1.724.354-2.982,1.56-2.731,3.038.673,3.952,1.446,7.892,2.351,11.8.317,1.366,1.616,1.839,2.979,1.812a14.071,14.071,0,0,0,2.249-.224,2.659,2.659,0,0,0,2.316-2.572c.032-.5.046-1,.133-2.981M15.154,69.611c-.25-4.259-.713-8.533-2.613-12.512-.431-.9-1.743-1.632-2.475-1.2-.6.355-1.378,1-1.426,1.57a22.918,22.918,0,0,0,2.984,13.834,1.108,1.108,0,0,0,.553.5A2.865,2.865,0,0,0,13.6,72a2.137,2.137,0,0,0,1.1-.893,5.863,5.863,0,0,0,.456-1.493" transform="translate(-0.33 -11.963)" fill="#273232"/>
          <path id="Path_1877" data-name="Path 1877" d="M149.607,167.693c.458-3.268-.422-6.23-1.066-9.162q-8.269-37.591-16.66-75.154a48.146,48.146,0,0,0-6.042-15.552,20.89,20.89,0,0,0-8.877-8.116,17.564,17.564,0,0,0-10.37-1.774q-15.035,2.447-30.037,5.1a20.538,20.538,0,0,0-3.7,1.438,19.768,19.768,0,0,0-1.11,2.725,5.618,5.618,0,0,1-4.683,4.422c-4.472.945-8.921,2.011-13.412,2.849q-14.978,2.793-29.991,5.39c-4,.694-8.031,1.252-12.065,1.715-3.375.387-5.272-.763-6.337-4.142A112,112,0,0,1,2.481,66.362a72.41,72.41,0,0,1-1.452-9.774c-.25-3.775,1.16-5.653,4.9-6.639,4.17-1.1,8.4-2.053,12.65-2.757,11.021-1.824,22.071-3.47,33.106-5.205,2.007-.316,3.992-.788,6-1.068,2.523-.35,5.13-.7,7.534.328,3.725,1.595,7.52,1.123,11.269.565,10.046-1.493,20.134-2.834,30.068-4.892a29.486,29.486,0,0,1,18.586,2.132c11.887,5.346,20.619,13.867,24.482,26.629,1.469,4.854,2.494,9.848,3.618,14.8q11.387,50.17,22.764,100.341a43.344,43.344,0,0,1,1.078,10.568c-.129,6.858.3,13.747-.2,20.571-.6,8.113-.345,16.227-.459,24.324-.125,8.845-.084,17.779,1.6,26.565a40.157,40.157,0,0,1,.5,4.542c1.1,14.691,2.008,29.395,4.319,43.976,1.032,6.515,1.442,13.127,2.276,19.676.481,3.776,1.232,7.519,1.89,11.273a11.4,11.4,0,0,1-.925,7.424,1.324,1.324,0,0,1-2.37.04,32.109,32.109,0,0,1-1.819-4.166c-1.479-4.328-2.873-8.685-4.308-13.028q-6.571-19.911-14.422-39.354a406.554,406.554,0,0,1-20.921-66.856c-1.605-7.449-3.06-14.931-4.508-22.413-1.526-7.888-.684-15.723,1.008-23.456,1.067-4.878,3.44-9.017,8.335-11.187A19.154,19.154,0,0,0,149.607,167.693ZM36.031,55.5c.74,3.431,1.424,6.876,2.247,10.287a2.772,2.772,0,0,0,2.773,2.15,19.482,19.482,0,0,0,4.431-.589,2.932,2.932,0,0,0,1.981-2.9,40.966,40.966,0,0,0-2.5-11.767,3.714,3.714,0,0,0-2.077-1.942C39.813,49.832,35.671,51.279,36.031,55.5ZM24.65,53.32c-2.243.009-4.079,1.118-4.006,2.646.215,4.555.651,9.108,2.823,13.223a3.653,3.653,0,0,0,2.486,1.391,6.5,6.5,0,0,0,2.926-.555c1.68-.6,2.591-1.924,2.223-3.5q-1.29-5.537-2.867-11.005C27.792,53.977,26.47,53.313,24.65,53.32Zm39.126,6.063c-.419-1.792-1.041-5-1.94-8.12-.733-2.547-2.514-3.335-5.357-2.751-1.724.354-2.982,1.56-2.731,3.038.673,3.952,1.446,7.892,2.351,11.8.317,1.366,1.616,1.839,2.979,1.812a14.071,14.071,0,0,0,2.249-.224,2.659,2.659,0,0,0,2.316-2.572C63.674,61.862,63.688,61.359,63.776,59.383ZM15.154,69.611c-.25-4.259-.713-8.533-2.613-12.512-.431-.9-1.743-1.632-2.475-1.2-.6.355-1.378,1-1.426,1.57a22.918,22.918,0,0,0,2.984,13.834,1.108,1.108,0,0,0,.553.5A2.865,2.865,0,0,0,13.6,72a2.137,2.137,0,0,0,1.1-.893A5.863,5.863,0,0,0,15.154,69.611Z" transform="translate(-0.33 -11.963)" fill="none" stroke="#273232" stroke-miterlimit="10" stroke-width="2"/>
          <path id="Path_1878" data-name="Path 1878" d="M648.618,153.766c-2.265-.084-2.78-1.748-3.51-2.871-7.112-10.945-15.8-20.545-25.2-29.51-8.461-8.072-16.877-16.23-25.82-23.748C581.84,87.337,569.71,76.85,556.2,68.126c-5.977-3.86-11.617-8.238-17.471-12.293-2.924-2.026-5.963-3.89-8.989-5.764a15.324,15.324,0,0,1-6.5-8.171c-2.752-7.589-3.8-15.31-2.041-23.231a31.426,31.426,0,0,1,2.865-7.849c3.052-5.753,7.748-9.244,14.49-9.733a30.733,30.733,0,0,1,14.85,2.652c8.552,3.751,15.616,9.525,21.972,16.181a174.437,174.437,0,0,1,27.472,38.321c11.309,21.079,21.54,42.671,30.9,64.679a307.141,307.141,0,0,0,13.712,28.031,26.676,26.676,0,0,1,1.15,2.818" transform="translate(-171.571 -0.332)" fill="#273232"/>
          <path id="Path_1879" data-name="Path 1879" d="M648.618,153.766c-2.265-.084-2.78-1.748-3.51-2.871-7.112-10.945-15.8-20.545-25.2-29.51-8.461-8.072-16.877-16.23-25.82-23.748C581.84,87.337,569.71,76.85,556.2,68.126c-5.977-3.86-11.617-8.238-17.471-12.293-2.924-2.026-5.963-3.89-8.989-5.764a15.324,15.324,0,0,1-6.5-8.171c-2.752-7.589-3.8-15.31-2.041-23.231a31.426,31.426,0,0,1,2.865-7.849c3.052-5.753,7.748-9.244,14.49-9.733a30.733,30.733,0,0,1,14.85,2.652c8.552,3.751,15.616,9.525,21.972,16.181a174.437,174.437,0,0,1,27.472,38.321c11.309,21.079,21.54,42.671,30.9,64.679a307.141,307.141,0,0,0,13.712,28.031A26.676,26.676,0,0,1,648.618,153.766Z" transform="translate(-171.571 -0.332)" fill="none" stroke="#273232" stroke-miterlimit="10" stroke-width="2"/>
          <path id="Path_1880" data-name="Path 1880" d="M368.4,323.857c-1.021-2.184-2.072-4.165-2.885-6.24a54.074,54.074,0,0,1-2.7-7.915,441.736,441.736,0,0,0-13.32-46.067c-4.15-12.265-8.642-24.426-12.421-36.8-3.853-12.617-7.256-25.383-10.415-38.193a72.49,72.49,0,0,1-.682-33.234,44.124,44.124,0,0,1,4.333-12.148,20.913,20.913,0,0,1,5.9-6.891,12.623,12.623,0,0,1,12.974-1.459,19.365,19.365,0,0,1,7.372,5.29c7.718,8.9,12.346,19.134,12.958,31a22.915,22.915,0,0,1-.316,5.312c-2.6,14.031-2.776,28.247-3.609,42.432-.524,8.923.651,17.743.346,26.621-.261,7.606-.084,15.229-.458,22.826-.44,8.891-.87,17.733.545,26.6.8,5,.889,10.106,1.439,15.149.384,3.525,1.034,7.02,1.5,10.538.125.94.493,1.963-.558,3.178" transform="translate(-106.952 -44.106)" fill="#273232"/>
          <path id="Path_1881" data-name="Path 1881" d="M368.4,323.857c-1.021-2.184-2.072-4.165-2.885-6.24a54.074,54.074,0,0,1-2.7-7.915,441.736,441.736,0,0,0-13.32-46.067c-4.15-12.265-8.642-24.426-12.421-36.8-3.853-12.617-7.256-25.383-10.415-38.193a72.49,72.49,0,0,1-.682-33.234,44.124,44.124,0,0,1,4.333-12.148,20.913,20.913,0,0,1,5.9-6.891,12.623,12.623,0,0,1,12.974-1.459,19.365,19.365,0,0,1,7.372,5.29c7.718,8.9,12.346,19.134,12.958,31a22.915,22.915,0,0,1-.316,5.312c-2.6,14.031-2.776,28.247-3.609,42.432-.524,8.923.651,17.743.346,26.621-.261,7.606-.084,15.229-.458,22.826-.44,8.891-.87,17.733.545,26.6.8,5,.889,10.106,1.439,15.149.384,3.525,1.034,7.02,1.5,10.538C369.083,321.619,369.451,322.641,368.4,323.857Z" transform="translate(-106.952 -44.106)" fill="none" stroke="#273232" stroke-miterlimit="10" stroke-width="2"/>
          <path id="Path_1882" data-name="Path 1882" d="M422.516,697.884c.1-1.011,0-1.606.24-1.995a7.227,7.227,0,0,1,1.812-2.236c.874-.607,2.455.339,2.907,1.69a37.2,37.2,0,0,1,1.427,5.085c1,5.465,1.973,10.937,2.77,16.433a35.2,35.2,0,0,1,.151,6.756c-.026.529-.886,1.283-1.491,1.443a2.437,2.437,0,0,1-2.022-.527,5.859,5.859,0,0,1-1.453-2.57c-.906-3.675-1.794-7.364-2.446-11.089-.784-4.473-1.322-8.988-1.895-12.991" transform="translate(-139.315 -228.657)" fill="#273232"/>
          <path id="Path_1883" data-name="Path 1883" d="M422.516,697.884c.1-1.011,0-1.606.24-1.995a7.227,7.227,0,0,1,1.812-2.236c.874-.607,2.455.339,2.907,1.69a37.2,37.2,0,0,1,1.427,5.085c1,5.465,1.973,10.937,2.77,16.433a35.2,35.2,0,0,1,.151,6.756c-.026.529-.886,1.283-1.491,1.443a2.437,2.437,0,0,1-2.022-.527,5.859,5.859,0,0,1-1.453-2.57c-.906-3.675-1.794-7.364-2.446-11.089C423.627,706.4,423.089,701.888,422.516,697.884Z" transform="translate(-139.315 -228.657)" fill="none" stroke="#273232" stroke-miterlimit="10" stroke-width="2"/>
          <path id="Path_1884" data-name="Path 1884" d="M555.225,812.286c-.256,1.087-.49,2.3-.84,3.481-.236.8-2.107,1.109-2.64.426A7.184,7.184,0,0,1,550.2,813.7q-1.8-7.741-3.34-15.54c-.542-2.715-.995-5.461-1.269-8.214-.224-2.239,1.1-3.988,2.625-3.91,1.385.072,2.561,1.076,3,2.961.629,2.7,1.113,5.434,1.573,8.168.836,4.975,1.609,9.962,2.436,15.117" transform="translate(-179.888 -259.18)" fill="#273232"/>
          <path id="Path_1885" data-name="Path 1885" d="M555.225,812.286c-.256,1.087-.49,2.3-.84,3.481-.236.8-2.107,1.109-2.64.426A7.184,7.184,0,0,1,550.2,813.7q-1.8-7.741-3.34-15.54c-.542-2.715-.995-5.461-1.269-8.214-.224-2.239,1.1-3.988,2.625-3.91,1.385.072,2.561,1.076,3,2.961.629,2.7,1.113,5.434,1.573,8.168C553.625,802.144,554.4,807.131,555.225,812.286Z" transform="translate(-179.888 -259.18)" fill="none" stroke="#273232" stroke-miterlimit="10" stroke-width="2"/>
          <path id="Path_1886" data-name="Path 1886" d="M511.121,774.613a10.171,10.171,0,0,1,.6-2.57,2.637,2.637,0,0,1,1.7-1.284,2.283,2.283,0,0,1,1.959.688,16.949,16.949,0,0,1,1.946,4.861c1.188,6.723,2.188,13.479,3.223,20.227a7.7,7.7,0,0,1-.019,2.263,2.628,2.628,0,0,1-1.665,2.331,2.519,2.519,0,0,1-3.005-1.629,21.216,21.216,0,0,1-1.237-3.577q-1.693-8.561-3.219-17.154a39.671,39.671,0,0,1-.281-4.156" transform="translate(-168.531 -254.136)" fill="#273232"/>
          <path id="Path_1887" data-name="Path 1887" d="M511.121,774.613a10.171,10.171,0,0,1,.6-2.57,2.637,2.637,0,0,1,1.7-1.284,2.283,2.283,0,0,1,1.959.688,16.949,16.949,0,0,1,1.946,4.861c1.188,6.723,2.188,13.479,3.223,20.227a7.7,7.7,0,0,1-.019,2.263,2.628,2.628,0,0,1-1.665,2.331,2.519,2.519,0,0,1-3.005-1.629,21.216,21.216,0,0,1-1.237-3.577q-1.693-8.561-3.219-17.154A39.671,39.671,0,0,1,511.121,774.613Z" transform="translate(-168.531 -254.136)" fill="none" stroke="#273232" stroke-miterlimit="10" stroke-width="2"/>
          <path id="Path_1888" data-name="Path 1888" d="M507.349,723.611c-.149,1.56-.15,2.072-.254,2.562a2.708,2.708,0,0,1-1.715,2.293,2.544,2.544,0,0,1-2.972-1.7,37.317,37.317,0,0,1-1.3-4.351q-1.631-7.782-3.111-15.6a22.677,22.677,0,0,1-.3-3.764c-.038-1.811,1.007-3.249,2.353-3.392,1.308-.138,2.7.879,3.215,2.7.683,2.422,1.236,4.888,1.691,7.364.911,4.959,1.717,9.936,2.394,13.893" transform="translate(-164.104 -230.695)" fill="#273232"/>
          <path id="Path_1889" data-name="Path 1889" d="M507.349,723.611c-.149,1.56-.15,2.072-.254,2.562a2.708,2.708,0,0,1-1.715,2.293,2.544,2.544,0,0,1-2.972-1.7,37.317,37.317,0,0,1-1.3-4.351q-1.631-7.782-3.111-15.6a22.677,22.677,0,0,1-.3-3.764c-.038-1.811,1.007-3.249,2.353-3.392,1.308-.138,2.7.879,3.215,2.7.683,2.422,1.236,4.888,1.691,7.364C505.866,714.677,506.673,719.655,507.349,723.611Z" transform="translate(-164.104 -230.695)" fill="none" stroke="#273232" stroke-miterlimit="10" stroke-width="2"/>
          <path id="Path_1890" data-name="Path 1890" d="M457.444,664.835c-.332,1.413-.53,2.38-.79,3.33-.225.817-2.057,1.117-2.629.432a6.221,6.221,0,0,1-1.316-1.792,128.044,128.044,0,0,1-5.4-23.505,6.415,6.415,0,0,1,.346-2.951,2.47,2.47,0,0,1,1.593-1.361,2.836,2.836,0,0,1,2,.708,3.663,3.663,0,0,1,1.148,1.881c1.743,7.856,3.42,15.727,5.043,23.257" transform="translate(-147.476 -210.687)" fill="#273232"/>
          <path id="Path_1891" data-name="Path 1891" d="M457.444,664.835c-.332,1.413-.53,2.38-.79,3.33-.225.817-2.057,1.117-2.629.432a6.221,6.221,0,0,1-1.316-1.792,128.044,128.044,0,0,1-5.4-23.505,6.415,6.415,0,0,1,.346-2.951,2.47,2.47,0,0,1,1.593-1.361,2.836,2.836,0,0,1,2,.708,3.663,3.663,0,0,1,1.148,1.881C454.144,649.433,455.822,657.3,457.444,664.835Z" transform="translate(-147.476 -210.687)" fill="none" stroke="#273232" stroke-miterlimit="10" stroke-width="2"/>
          <path id="Path_1892" data-name="Path 1892" d="M572.379,752.726a17.055,17.055,0,0,1,.621-3.31,2.437,2.437,0,0,1,1.692-1.257,2.745,2.745,0,0,1,1.969.745,3.631,3.631,0,0,1,1,1.969c1.045,6.727,2.053,13.461,2.98,20.205a5.976,5.976,0,0,1-.424,2.951,2.428,2.428,0,0,1-1.653,1.274,2.509,2.509,0,0,1-1.927-.835,6.991,6.991,0,0,1-1.28-2.686,109.819,109.819,0,0,1-2.977-19.057" transform="translate(-188.729 -246.686)" fill="#273232"/>
          <path id="Path_1893" data-name="Path 1893" d="M572.379,752.726a17.055,17.055,0,0,1,.621-3.31,2.437,2.437,0,0,1,1.692-1.257,2.745,2.745,0,0,1,1.969.745,3.631,3.631,0,0,1,1,1.969c1.045,6.727,2.053,13.461,2.98,20.205a5.976,5.976,0,0,1-.424,2.951,2.428,2.428,0,0,1-1.653,1.274,2.509,2.509,0,0,1-1.927-.835,6.991,6.991,0,0,1-1.28-2.686A109.819,109.819,0,0,1,572.379,752.726Z" transform="translate(-188.729 -246.686)" fill="none" stroke="#273232" stroke-miterlimit="10" stroke-width="2"/>
          <path id="Path_1894" data-name="Path 1894" d="M391.06,677.012a7.7,7.7,0,0,1-.609,1.7,1.868,1.868,0,0,1-1.209.79,1.682,1.682,0,0,1-1.361-.415,7.066,7.066,0,0,1-1.463-2.581c-1.566-7.173-3.1-14.356-4.474-21.567a17.085,17.085,0,0,1,.074-5.233,2.215,2.215,0,0,1,1.562-1.376,2.657,2.657,0,0,1,1.908.874,4.191,4.191,0,0,1,.966,2.011q2.347,11.534,4.587,23.09a16.534,16.534,0,0,1,.019,2.7" transform="translate(-125.88 -213.772)" fill="#273232"/>
          <path id="Path_1895" data-name="Path 1895" d="M391.06,677.012a7.7,7.7,0,0,1-.609,1.7,1.868,1.868,0,0,1-1.209.79,1.682,1.682,0,0,1-1.361-.415,7.066,7.066,0,0,1-1.463-2.581c-1.566-7.173-3.1-14.356-4.474-21.567a17.085,17.085,0,0,1,.074-5.233,2.215,2.215,0,0,1,1.562-1.376,2.657,2.657,0,0,1,1.908.874,4.191,4.191,0,0,1,.966,2.011q2.347,11.534,4.587,23.09A16.534,16.534,0,0,1,391.06,677.012Z" transform="translate(-125.88 -213.772)" fill="none" stroke="#273232" stroke-miterlimit="10" stroke-width="2"/>
          <path id="Path_1896" data-name="Path 1896" d="M471.445,743.645a19.122,19.122,0,0,1-.29,3.5,2.214,2.214,0,0,1-1.507,1.382,2.7,2.7,0,0,1-1.833-.991,4.293,4.293,0,0,1-1.013-2.007q-1.917-10.044-3.705-20.113a12.932,12.932,0,0,1-.113-3.026c.078-1.265.267-2.536,1.671-3.129,1.167-.493,2.822.639,3.192,2.457,1.461,7.176,3.108,14.326,3.6,21.924" transform="translate(-152.646 -237.125)" fill="#273232"/>
          <path id="Path_1897" data-name="Path 1897" d="M471.445,743.645a19.122,19.122,0,0,1-.29,3.5,2.214,2.214,0,0,1-1.507,1.382,2.7,2.7,0,0,1-1.833-.991,4.293,4.293,0,0,1-1.013-2.007q-1.917-10.044-3.705-20.113a12.932,12.932,0,0,1-.113-3.026c.078-1.265.267-2.536,1.671-3.129,1.167-.493,2.822.639,3.192,2.457C469.308,728.9,470.955,736.048,471.445,743.645Z" transform="translate(-152.646 -237.125)" fill="none" stroke="#273232" stroke-miterlimit="10" stroke-width="2"/>
          <path id="Path_1898" data-name="Path 1898" d="M484.123,817.336a19.052,19.052,0,0,1-.291,3.5,2.214,2.214,0,0,1-1.506,1.383,2.7,2.7,0,0,1-1.832-.991,4.291,4.291,0,0,1-1.013-2.006q-1.917-10.045-3.705-20.114a12.927,12.927,0,0,1-.113-3.025c.078-1.266.267-2.536,1.671-3.13,1.167-.493,2.822.639,3.192,2.457,1.461,7.177,3.107,14.326,3.6,21.925" transform="translate(-156.827 -261.422)" fill="#273232"/>
          <path id="Path_1899" data-name="Path 1899" d="M484.123,817.336a19.052,19.052,0,0,1-.291,3.5,2.214,2.214,0,0,1-1.506,1.383,2.7,2.7,0,0,1-1.832-.991,4.291,4.291,0,0,1-1.013-2.006q-1.917-10.045-3.705-20.114a12.927,12.927,0,0,1-.113-3.025c.078-1.266.267-2.536,1.671-3.13,1.167-.493,2.822.639,3.192,2.457C481.987,802.588,483.633,809.738,484.123,817.336Z" transform="translate(-156.827 -261.422)" fill="none" stroke="#273232" stroke-miterlimit="10" stroke-width="2"/>
          <path id="Path_1900" data-name="Path 1900" d="M534.066,712.992a5.17,5.17,0,0,1,.4-1.784,2.106,2.106,0,0,1,3.611-.657,3.733,3.733,0,0,1,1.068,1.94c1.461,7.184,2.9,14.372,4.225,21.581a6.038,6.038,0,0,1-.591,2.893,1.72,1.72,0,0,1-1.181.822,2.079,2.079,0,0,1-1.386-.359,2.5,2.5,0,0,1-.926-1.156,115.51,115.51,0,0,1-5.211-22.1,11.752,11.752,0,0,1,0-1.177" transform="translate(-176.093 -234.044)" fill="#273232"/>
          <path id="Path_1901" data-name="Path 1901" d="M534.066,712.992a5.17,5.17,0,0,1,.4-1.784,2.106,2.106,0,0,1,3.611-.657,3.733,3.733,0,0,1,1.068,1.94c1.461,7.184,2.9,14.372,4.225,21.581a6.038,6.038,0,0,1-.591,2.893,1.72,1.72,0,0,1-1.181.822,2.079,2.079,0,0,1-1.386-.359,2.5,2.5,0,0,1-.926-1.156,115.51,115.51,0,0,1-5.211-22.1A11.752,11.752,0,0,1,534.066,712.992Z" transform="translate(-176.093 -234.044)" fill="none" stroke="#273232" stroke-miterlimit="10" stroke-width="2"/>
          <path id="Path_1902" data-name="Path 1902" d="M614.183,777.018c-.254,1.284-.641,2.229-1.773,2.518a2.1,2.1,0,0,1-2.528-1.162,23.042,23.042,0,0,1-1.758-5c-1.069-5.473-2-10.974-2.914-16.475-.371-2.231.68-4.03,2.256-4.158,1.349-.109,2.613.922,3.138,2.81a52.532,52.532,0,0,1,1.107,5.195c.851,5,1.658,10,2.462,15a6.8,6.8,0,0,1,.011,1.271" transform="translate(-199.53 -248.199)" fill="#273232"/>
          <path id="Path_1903" data-name="Path 1903" d="M614.183,777.018c-.254,1.284-.641,2.229-1.773,2.518a2.1,2.1,0,0,1-2.528-1.162,23.042,23.042,0,0,1-1.758-5c-1.069-5.473-2-10.974-2.914-16.475-.371-2.231.68-4.03,2.256-4.158,1.349-.109,2.613.922,3.138,2.81a52.532,52.532,0,0,1,1.107,5.195c.851,5,1.658,10,2.462,15A6.8,6.8,0,0,1,614.183,777.018Z" transform="translate(-199.53 -248.199)" fill="none" stroke="#273232" stroke-miterlimit="10" stroke-width="2"/>
          <path id="Path_1904" data-name="Path 1904" d="M571.594,698.244c-.085,1.353-.088,1.861-.154,2.362a2.691,2.691,0,0,1-1.6,2.385,2.41,2.41,0,0,1-2.913-1.758c-1.657-6.626-3.8-13.168-3.7-20.116.034-2.492,1.07-4,2.65-3.923,1.388.065,2.217.932,2.756,3.144a158.658,158.658,0,0,1,2.961,17.907" transform="translate(-185.711 -223.29)" fill="#273232"/>
          <path id="Path_1905" data-name="Path 1905" d="M571.594,698.244c-.085,1.353-.088,1.861-.154,2.362a2.691,2.691,0,0,1-1.6,2.385,2.41,2.41,0,0,1-2.913-1.758c-1.657-6.626-3.8-13.168-3.7-20.116.034-2.492,1.07-4,2.65-3.923,1.388.065,2.217.932,2.756,3.144A158.658,158.658,0,0,1,571.594,698.244Z" transform="translate(-185.711 -223.29)" fill="none" stroke="#273232" stroke-miterlimit="10" stroke-width="2"/>
          <path id="Path_1906" data-name="Path 1906" d="M595.654,848.008c-.369,1.206-.5,1.69-.665,2.162-.371,1.063-2.538,1.555-3.2.686a8.628,8.628,0,0,1-1.568-2.521,104.5,104.5,0,0,1-3.717-18.481,6.623,6.623,0,0,1,.364-2.951,3.327,3.327,0,0,1,1.556-1.479c.73-.388,2.161.374,2.53,1.17a3.472,3.472,0,0,1,.335.676c1.508,7.13,3,14.263,4.365,20.741" transform="translate(-193.374 -272.132)" fill="#273232"/>
          <path id="Path_1907" data-name="Path 1907" d="M595.654,848.008c-.369,1.206-.5,1.69-.665,2.162-.371,1.063-2.538,1.555-3.2.686a8.628,8.628,0,0,1-1.568-2.521,104.5,104.5,0,0,1-3.717-18.481,6.623,6.623,0,0,1,.364-2.951,3.327,3.327,0,0,1,1.556-1.479c.73-.388,2.161.374,2.53,1.17a3.472,3.472,0,0,1,.335.676C592.8,834.4,594.293,841.53,595.654,848.008Z" transform="translate(-193.374 -272.132)" fill="none" stroke="#273232" stroke-miterlimit="10" stroke-width="2"/>
          <path id="Path_1908" data-name="Path 1908" d="M592.252,630.812c.054,3.74-.8,5.4-2.148,5.258-1.871-.2-2.462-1.728-2.768-3.164-1.156-5.414-2.24-10.849-3.159-16.308a19.386,19.386,0,0,1,.124-5.242,2.068,2.068,0,0,1,2.063-1.841,2.437,2.437,0,0,1,2.316,1.62,3.236,3.236,0,0,1,.284.694,143.331,143.331,0,0,1,3.288,18.983" transform="translate(-192.574 -200.974)" fill="#273232"/>
          <path id="Path_1909" data-name="Path 1909" d="M592.252,630.812c.054,3.74-.8,5.4-2.148,5.258-1.871-.2-2.462-1.728-2.768-3.164-1.156-5.414-2.24-10.849-3.159-16.308a19.386,19.386,0,0,1,.124-5.242,2.068,2.068,0,0,1,2.063-1.841,2.437,2.437,0,0,1,2.316,1.62,3.236,3.236,0,0,1,.284.694A143.331,143.331,0,0,1,592.252,630.812Z" transform="translate(-192.574 -200.974)" fill="none" stroke="#273232" stroke-miterlimit="10" stroke-width="2"/>
          <path id="Path_1910" data-name="Path 1910" d="M602.838,702.279c-.171,1.948-.266,3.7-.522,5.435a1.449,1.449,0,0,1-1.055.936,5.77,5.77,0,0,1-2-.6.948.948,0,0,1-.424-.606c-1.676-6.892-3.69-13.733-3.852-20.89a21.478,21.478,0,0,1,.853-5.155c.079-.345.757-.712,1.2-.77a1.644,1.644,0,0,1,1.359.436,9.86,9.86,0,0,1,1.654,3.331c1.032,5.991,1.894,12.01,2.794,17.884" transform="translate(-196.181 -224.42)" fill="#273232"/>
          <path id="Path_1911" data-name="Path 1911" d="M602.838,702.279c-.171,1.948-.266,3.7-.522,5.435a1.449,1.449,0,0,1-1.055.936,5.77,5.77,0,0,1-2-.6.948.948,0,0,1-.424-.606c-1.676-6.892-3.69-13.733-3.852-20.89a21.478,21.478,0,0,1,.853-5.155c.079-.345.757-.712,1.2-.77a1.644,1.644,0,0,1,1.359.436,9.86,9.86,0,0,1,1.654,3.331C601.075,690.386,601.937,696.4,602.838,702.279Z" transform="translate(-196.181 -224.42)" fill="none" stroke="#273232" stroke-miterlimit="10" stroke-width="2"/>
          <path id="Path_1912" data-name="Path 1912" d="M626.542,845.784a34.427,34.427,0,0,1-.8,3.53,1.628,1.628,0,0,1-1.194.761,2.145,2.145,0,0,1-1.369-.454,2.586,2.586,0,0,1-.9-1.186c-2.272-6.985-4.177-14.048-4.01-21.483.029-1.262.266-2.557,1.725-3.075,1.257-.446,2.873.609,3.321,2.354a150.272,150.272,0,0,1,3.226,19.553" transform="translate(-203.858 -271.623)" fill="#273232"/>
          <path id="Path_1913" data-name="Path 1913" d="M626.542,845.784a34.427,34.427,0,0,1-.8,3.53,1.628,1.628,0,0,1-1.194.761,2.145,2.145,0,0,1-1.369-.454,2.586,2.586,0,0,1-.9-1.186c-2.272-6.985-4.177-14.048-4.01-21.483.029-1.262.266-2.557,1.725-3.075,1.257-.446,2.873.609,3.321,2.354A150.272,150.272,0,0,1,626.542,845.784Z" transform="translate(-203.858 -271.623)" fill="none" stroke="#273232" stroke-miterlimit="10" stroke-width="2"/>
          <path id="Path_1914" data-name="Path 1914" d="M530.146,658.453a6.323,6.323,0,0,1-.488,1.634,1.758,1.758,0,0,1-1.218.761,1.849,1.849,0,0,1-1.367-.479,5.679,5.679,0,0,1-1.221-1.9,114.1,114.1,0,0,1-4.976-20.724,4.519,4.519,0,0,1,.534-2.164c.41-1.038,2.678-1.336,3.3-.456a6.116,6.116,0,0,1,1.155,1.926c1.471,6.436,2.872,12.887,4.268,19.339a12.44,12.44,0,0,1,.014,2.059" transform="translate(-171.74 -209.25)" fill="#273232"/>
          <path id="Path_1915" data-name="Path 1915" d="M530.146,658.453a6.323,6.323,0,0,1-.488,1.634,1.758,1.758,0,0,1-1.218.761,1.849,1.849,0,0,1-1.367-.479,5.679,5.679,0,0,1-1.221-1.9,114.1,114.1,0,0,1-4.976-20.724,4.519,4.519,0,0,1,.534-2.164c.41-1.038,2.678-1.336,3.3-.456a6.116,6.116,0,0,1,1.155,1.926c1.471,6.436,2.872,12.887,4.268,19.339A12.44,12.44,0,0,1,530.146,658.453Z" transform="translate(-171.74 -209.25)" fill="none" stroke="#273232" stroke-miterlimit="10" stroke-width="2"/>
          <path id="Path_1916" data-name="Path 1916" d="M528.889,865.857a9.429,9.429,0,0,1-.369,1.9c-.15.4-.685.97-1,.94a2.723,2.723,0,0,1-1.884-.771,12.474,12.474,0,0,1-1.4-3.465c-1.17-4.623-2.316-9.254-3.327-13.914a12.442,12.442,0,0,1-.151-4.469,3.891,3.891,0,0,1,1.694-2.225c.91-.6,2.461.384,2.825,1.733,1.771,6.549,3.333,13.141,3.612,20.271" transform="translate(-171.664 -278.184)" fill="#273232"/>
          <path id="Path_1917" data-name="Path 1917" d="M528.889,865.857a9.429,9.429,0,0,1-.369,1.9c-.15.4-.685.97-1,.94a2.723,2.723,0,0,1-1.884-.771,12.474,12.474,0,0,1-1.4-3.465c-1.17-4.623-2.316-9.254-3.327-13.914a12.442,12.442,0,0,1-.151-4.469,3.891,3.891,0,0,1,1.694-2.225c.91-.6,2.461.384,2.825,1.733C527.049,852.136,528.61,858.728,528.889,865.857Z" transform="translate(-171.664 -278.184)" fill="none" stroke="#273232" stroke-miterlimit="10" stroke-width="2"/>
          <path id="Path_1918" data-name="Path 1918" d="M382.463,869.12a12.248,12.248,0,0,1,12.114,11.54,11.5,11.5,0,0,1-9.7,11.734c-6.61,1.076-13.331-5.357-12.337-11.922a15.849,15.849,0,0,1,3.579-8.238,8.231,8.231,0,0,1,6.34-3.114" transform="translate(-122.806 -286.574)" fill="#273232"/>
          <path id="Path_1919" data-name="Path 1919" d="M382.463,869.12a12.248,12.248,0,0,1,12.114,11.54,11.5,11.5,0,0,1-9.7,11.734c-6.61,1.076-13.331-5.357-12.337-11.922a15.849,15.849,0,0,1,3.579-8.238A8.231,8.231,0,0,1,382.463,869.12Z" transform="translate(-122.806 -286.574)" fill="none" stroke="#273232" stroke-miterlimit="10" stroke-width="2"/>
        </g>
      </g>
    </g>
  </g>
</svg>
