<svg xmlns="http://www.w3.org/2000/svg" xmlns:xlink="http://www.w3.org/1999/xlink" width="681" height="504" viewBox="0 0 681 504">
  <defs>
    <clipPath id="clip-path">
      <rect id="Rectangle_267" data-name="Rectangle 267" width="681" height="388.371" fill="none"/>
    </clipPath>
    <clipPath id="clip-path-2">
      <rect id="Rectangle_266" data-name="Rectangle 266" width="680.829" height="388.202" fill="none"/>
    </clipPath>
  </defs>
  <g id="Group_812" data-name="Group 812" transform="translate(-13745 14046)">
    <circle id="Ellipse_38" data-name="Ellipse 38" cx="252" cy="252" r="252" transform="translate(13839 -14046)" fill="#f0e2e2"/>
    <g id="Group_811" data-name="Group 811" transform="translate(13745 -13997.996)">
      <g id="Group_777" data-name="Group 777" transform="translate(0 -0.004)" clip-path="url(#clip-path)">
        <g id="Group_776" data-name="Group 776" transform="translate(0.085 0.084)">
          <g id="Group_775" data-name="Group 775" clip-path="url(#clip-path-2)">
            <g id="Group_774" data-name="Group 774">
              <g id="Group_773" data-name="Group 773" clip-path="url(#clip-path-2)">
                <path id="Path_1520" data-name="Path 1520" d="M683.453,386.059c-.522.514-.971,1.344-1.574,1.478a22.69,22.69,0,0,1-4.671.481c-30.347.168-60.694.429-91.037.425q-164.342-.026-328.681-.2-119.414-.082-238.827-.154c-3.022,0-6.044.062-9.062.086-.789.007-1.578-.024-2.367-.031-1.787-.014-3.111-.713-3.351-2.61-.185-1.465,1.128-2.572,3.2-2.72,1.567-.113,3.152-.048,4.726-.041q21.876.051,43.744.106c1.026,0,2.055-.141,3.348-.237-.631-2.363-1.245-4.479-1.753-6.62a46.96,46.96,0,0,1-.124-21.862c1.537-6.507,3.3-12.958,4.764-19.478.789-3.512,3-5,6.283-5.491,1.286-.189,2.556-.5,4.126-.817.045-6.269-.257-12.063-4.195-17.529-3.245-4.5-7.552-7.113-12.025-9.813-1.64-.988-3.176-2.144-5.124-3.467l5.5-4.935a77.812,77.812,0,0,1,12.779,12.035c-.089-2.274-1.379-4.473-4.195-7.185-2.044-1.969-4.191-3.831-6.345-5.79,7.46-5.374,7.3-4.109,10.8,2.315.247.453.251,1.043.514,1.482,5.279,8.887,6.02,18.874,7.017,28.8.107,1.043.285,2.082.484,3.111.034.182.336.315.874.785a10.23,10.23,0,0,0,.474-2.569c-.967-10.193-2-20.38-3-30.57-.415-4.181-.94-8.355-1.214-12.546a40.81,40.81,0,0,0-8.512-23.24c-7.193-9.2-11.61-19.714-14.961-30.94a96.128,96.128,0,0,1-3.461-35.032c.374-5.107.61-10.225.933-15.335.055-.881.22-1.756.346-2.747,2.4,1.595,10.265,14.381,18.2,29.407,4.27-.724,8.6-1.842,12.978-2.089,4.25-.237,8.547.418,13,.689.936-1.862.46-3.361-1.386-4.846C87,194.6,81.6,192.334,76.029,190.351a39.227,39.227,0,0,0-14.209-2.72c-.532.014-1.077-.494-2.4-1.149,6.321-2.253,12.053-1.454,17.519-.562s10.725,3.035,16.282,4.688v-8.89c-2.84-.8-5.6-1.588-8.355-2.36-5.285-1.482-10.526-3.166-15.88-4.356-3.032-.672-6.249-.494-9.377-.764a12.48,12.48,0,0,1-4.277-1.064c4.075-2.061,8.369-1.5,12.56-1.454a81.273,81.273,0,0,1,12.57.816c4.222.707,8.317,2.167,12.536,3.32.94-2.528.456-4.668-1.825-6.184q-7-4.645-14.09-9.161a16.637,16.637,0,0,0-4.16-2.171c-5.248-1.5-6.108-6.06-5.066-12.1a26.825,26.825,0,0,1,1.91,2.644,10.868,10.868,0,0,0,5.094,4.579c4.747,2.415,9.247,5.3,13.863,7.974,1.32.765,2.686,1.451,4.5,2.428,0-5.272,0-9.967,0-14.662a2.5,2.5,0,0,0-1.966-2.6c-3.234-1.008-6.42-2.2-9.7-3.042-3.011-.772-6.115-1.183-10.2-1.948,1.393-.9,2-1.633,2.634-1.65,4.839-.13,9.71-.5,14.439,1.056,1.341.442,2.758.655,4.472,1.05v-4.208c-3.313-.95-6.414-1.972-9.576-2.723A77.8,77.8,0,0,1,56.277,123c-1.09-.768-2.565-1.375-2.075-3.584,6.307,2.614,12.262,5.6,18.545,7.532a75.154,75.154,0,0,0,19.711,3.574,7.677,7.677,0,0,0-.2-7.326c-2.857-5.453-6.078-10.715-9.2-16.027-.23-.394-.792-.593-1.214-.889-2.147,1.54-2.8,4.685-6.253,5.052a68.347,68.347,0,0,0,4.459-27.408,7.351,7.351,0,0,1,2.778,4.226,18.228,18.228,0,0,1,.806,5.419c-.275,3.3,1.025,5.779,2.994,8.211,1.948,2.4,3.649,5.008,5.855,8.074a16.819,16.819,0,0,0,.741-2.915c.14-3.807-.1-7.655.346-11.422.868-7.257,4.153-13.149,10.975-16.483a13.139,13.139,0,0,1,4.548-.9c1.65-.147,3.323-.034,4.9-.034.71-2.723-.6-3.8-2.624-4.551l2.236-2.569-2.428-1.142a7.928,7.928,0,0,1,.641-2.562c1.314-2,1.379-4.164,1.362-6.421-.024-3.546.164-7.1.065-10.643a43.285,43.285,0,0,0-.809-5.467l-.827-.093c1.142-2.034,2.288-4.071,3.612-6.428-1.053-.74-2.192-1.536-3.21-2.25a94.647,94.647,0,0,1-7.892,5.275,17.115,17.115,0,0,1-9.092,1.735c.158-4.233,1.893-6.019,10.416-10.8-2.363-2.988-5.862-5.21-6.633-9.689,3.715-.154,5.649,2.757,8.674,4.448.12-2.3.22-4.195.326-6.239,1.859-.13,2.191,1.314,2.85,2.325,1.393,2.144,2.253,4.565,5.114,5.635,1.523.566,2.518,2.545,3.753,3.886q1.111-2.413,2.216-4.822a.974.974,0,0,1,.1.034c1.365,3.522,4.452,6.386,3.42,11.058,1.811-.213,2.991-.35,4.092-.477-1.581-3.413-2.991-6.458-4.415-9.525-1-.343-2.047-.7-3.1-1.056-.017-.038-.031-.079-.045-.117.974-1.012,1.948-2.017,2.919-3.025-3.262-.233-4.438,4.006-8.413,2.9a29.07,29.07,0,0,1,2.473-4.054,30.751,30.751,0,0,1,3.975-3.193c-4.644-1.578-8.225-3.059-9.346-7.395,2.343-1.622,4.136.154,6.146.6.929-2.49,1.849-4.963,3.025-8.125,2.154,3.941,2.373,7.12,1.111,10.492-.875,2.343-.8,2.373,1.087,5.323l1.454-5.334c2.764,2.6,3.015,4.569,1.2,8.637,1.948,3.492,3.951,7.086,6.386,11.459.7-2.469,1.283-3.975-.442-5.018-2.953-1.78-3.337-4.5-2.994-7.532.144-1.265.333-2.527.631-4.767,1.722,2.044,2.888,3.43,4.4,5.227.8-2.6,1.5-4.9,2.223-7.261,2.819,2.223,3.478,5.254,1.79,8.19-.583,1.015-1.492,1.842-2.1,2.847a12.976,12.976,0,0,0-1.393,3.392c1.142-.8,2.212-1.331,2.75.285a45.4,45.4,0,0,1,1.259,5.693c.192,1,.134,1.015,2.487,1.7-.823-3.053-1.581-5.851-2.4-8.88,4.98-1.159,6.4,2.871,9.14,5.995.374-1.92.631-3.234.861-4.414-5.81-4.075-7.583-9.38-4.767-14.3,2.932,1.938,3.241,5.5,5.141,8.609,1.516-3.45,1.687-6.369.452-9.4-.936-2.3-1.842-4.623-2.61-6.983a15.437,15.437,0,0,1-.278-3.3c3.361.429,4.579,3.31,6.98,4.819,1.842-3.519,2.408-7.583,6.2-10.592a24.592,24.592,0,0,1,.048,11.572h6.852c-.8,3.67-4.191,3.718-6.238,5.752.922,2.339-.171,4.5-1.238,6.743-.388.82-.062,1.979-.062,3.4-2.658.586-6.969-.24-7.093,5.23l5.127-2.912c1.684,3.053,1.65,3.334-.885,7.418a9.437,9.437,0,0,0,6.4-.929c1.314-.778,2.3-1.66,1.976-3.44-.432-2.377.679-4.3,2.147-6.3,2.28,1.581,1.746,4.2,2.551,6.53,1.533-.978,2.905-1.856,4.541-2.9.744,3.238-1.4,5.388-2.247,8.108,4.147.628,8.1,1.258,9.693,5.687-.113.185-.257.583-.37.573-3.783-.3-6.589,1.471-9.5,3.711-2.041,1.567-4.918,2.051-7.669,3.114.3.477.672,1.07,1.026,1.636,7.179-3.217,11.72-2.226,14.168,3.207-3.536.734-7.305-1.386-10.711.96,1.553,2.932,3.214,5.224,7.2,4.664,2.991-.422,5.429,1.338,7.841,3.31-2.884,2.562-5.982,1.735-9.463,1.087.7,3.107,1.317,5.848,1.91,8.489a33.341,33.341,0,0,0,15.211,3.19q84.733-.2,169.463-.041c6.7,0,13.4.155,20.1.3,5.316.12,9.3,2.483,11.527,7.395a10.688,10.688,0,0,1,.847,3.749c1.708,29.935.97,59.9,1.2,89.854.01,1.4,0,2.806,0,4.761,2.391-2.682,4.315-4.843,6.445-7.237l3.56,3.114c-3.642,2.888-4.778,7.906-9.995,9.467v4.472c.007,14.848.117,29.7-.037,44.55a134.038,134.038,0,0,1-1.238,14.844,12.418,12.418,0,0,1-4.294,8.152,10.757,10.757,0,0,1-7.508,2.754c-19.7-.1-39.408-.017-59.112-.1q-90.053-.391-180.1-.865c-3.155-.014-6.314.011-9.456-.192a3.558,3.558,0,0,0-4.1,2.761c-.916,2.733-2.089,5.381-2.97,8.121-2.919,9.1-8.6,16.384-14.93,23.309-3.087,3.378-5.886,7.024-8.719,10.622a5.173,5.173,0,0,0-1.156,2.84c-.1,6.156-.051,12.316-.051,18.675,1.489.5,2.915,1.1,4.4,1.458,2.8.683,4.133,2.617,4.764,5.21,3.6,14.827,5.028,29.746,1.934,44.865a9.495,9.495,0,0,0-.01,1.547h7.84a12.254,12.254,0,0,0,.285-2c-.031-6.3-.011-12.612-.2-18.915-.093-3.306.525-6.023,4.14-7.151.147-6.527-.607-13,1.78-19.289,1.979.442,1.574,1.931,1.7,3.118.487,4.569.95,9.14,1.458,13.706a9.231,9.231,0,0,0,.487,1.681c1.622.25,1.753-.624,1.691-1.639-.206-3.413-.59-6.822-.6-10.231-.01-5.639.213-11.277.36-16.916.045-1.7.247-3.406.25-5.11.014-13.8.048-27.593-.058-41.387a5.326,5.326,0,0,1,3.245-5.354,16.648,16.648,0,0,1,6.41-1.461c17.732-.079,35.464,0,53.2.045a7.413,7.413,0,0,1,3.965,1.046c-1.5.913-2.994,1.849-4.514,2.737-11.044,6.434-20.733,14.337-27.387,25.483a59.407,59.407,0,0,0-8.592,31.122c.007,2.476,0,4.952,0,7.762-2.366.223-4.4.418-6.924.658-.405,4.054.062,8.156.175,12.038.449.4.617.672.837.724,4.157.96,5.138,1.8,5.169,6.942.041,7.35.01,14.7.01,22,2.86.95,36.455,1.159,41.384.178-15.8-7.371-26.684-18.662-31.424-35.183a53.552,53.552,0,0,1,55.508-68.191c24.592,1.972,43.514,19.087,48.525,42.612,4.483,21.045-5.32,48.593-32.457,60.673,1.355,1.1,2.813.68,4.1.683q44.733.062,89.463.069,88.278.062,176.556.133a19.478,19.478,0,0,0,5.014-.514c-15.832-7.171-27.27-18.171-32.576-34.884a52.386,52.386,0,0,1,.555-34.034,53,53,0,0,1,54.633-35.536c23.59,1.952,43.346,18.061,48.539,43.1,4.219,20.345-4.983,49.245-35.083,61.236,1.272,1.2,2.74.754,4.03.761q38.822.144,77.64.23,21.083.077,42.166.309a52.966,52.966,0,0,1,7.446.628c.658.1,1.184,1.084,1.767,1.663M577.822,332.585c1.015-24.465-18.747-45.716-43.795-46.385a45.411,45.411,0,1,0,43.795,46.385M390.391,245.6q.087-68.4-.031-136.8a83.972,83.972,0,0,0-1.67-16.806c-1.609-7.748-3.81-9.024-10.975-8.893q-23.444.422-46.892.466-69.165.232-138.331.357c-1.389,0-2.782.147-4.418.24.333,1.543.566,2.627.916,4.263-2.977-.923-5.5-1.7-8.239-2.555-.316,2.967.583,5.789-1.183,8.619-.95-1.169-1.7-2.1-3.059-3.759-.343,2.792-.587,4.75-.82,6.623,4.2,1.883,8.506,2.833,10.972,7.24-4.373.8-8.118.5-12.021-1.749-.223,3.248,2.257,3.015,3.522,3.865,1.588,1.07,3.221,2.007,4.071,4-2.977,1.382-5.553.089-8.108-.514-.707,1.564.069,2.137,1.022,2.73,3.3,2.048,4.226,5.045,3.413,9.446-1.341-1-2.373-1.643-3.255-2.452-2.127-1.962-2.3-1.976-4.459-.138-.816.7-1.756,1.252-2.813,1.993-1.3-4.62,4.092-6.692,3.276-10.938-3.32.992-6.15,3.447-10.122,1.465,1.708-1.314,3.07-2.3,4.359-3.371.82-.686,1.554-1.482,2.322-2.229.062-.014.123-.024.185-.038.027-.02.058-.041.086-.065,3.447.429,3.45.394,3.584-2.085a15.709,15.709,0,0,0-1.821.806c-.621.374-1.18.844-1.763,1.279-.048,0-.1-.01-.151-.017-.041.038-.082.079-.12.12-2.315.453-4.651.916-7.806,1.537a33.93,33.93,0,0,1,2.654-4.27,16.444,16.444,0,0,1,7.827-5.025,4.805,4.805,0,0,0,2.891-2.174c.662-1.578.631-3.45.892-5.2l-.666-.319c-1.793,2.12-3.587,4.239-5.81,6.87a27.073,27.073,0,0,1,1.372-14.076,165.118,165.118,0,0,0-18.219.22c-.357,1.389-.6,2.332-.888,3.454-1.321-.707-2.322-1.245-3.323-1.784,2.823,4.195,5.676,8.108,6.208,13.445-3.8-.69-5-4.064-7.45-5.779-1.413,1.852-1.152,3.111.319,4.647,1.687,1.76,3.608,3.608,3.639,6.733-2.493-.72-3.762-3.1-6.589-2.792l5.6,6.427-.535.813-5.138-1.5c-.106.809-.212,1.643-.346,2.655,2.836.452,5.34,1.122,5.927,4.9-2.174-.5-3.992-.916-6.026-1.386-.123,1.852.329,2.706,2.188,3.114,3.245.713,6.623,1.485,8.475,5.591-2.531.538-4.774,1.012-7.542,1.6,2.891,4.541,5.35,9.171,5.992,15.143l-4.85-3.255a9.831,9.831,0,0,0,1.022,3.783,34.95,34.95,0,0,1,1.92,6.667c.4,3.1.94,3.924,4.287,4.328a11.755,11.755,0,0,1,8.348,4.582c-3.159,2.315-6.105.676-9.439-.127.357,3.3.672,6.215.971,8.976,6.448,2.407,9.761,7.538,9.366,14.813-3.591-2.315-6.911-4.452-10.344-6.661-1.067,4.48-2.14,8.993-3.262,13.716,3.684,2.116,7.711,3.814,9.7,8.28-4.328.364-8.015-.343-11.415-3.111-1.173,3.145,1.612,3.111,2.634,4.2,1.269,1.358,3.142,2.25,3.385,5.145-2.922-.655-5.471-1.228-8.019-1.8l-.963.247c3.279,3.341,6.417,6.712,3.653,11.874-1.056-1.063-2.034-1.9-2.83-2.881-1.595-1.969-1.869-2.044-4.088-.7-.919.556-1.893,1.022-3.1,1.667-.275-3.306,1.7-4.822,3.135-6.6.881-1.091,2.205-2.017.878-3.855-2.98.968-6.046,2.741-9.49.514,3.091-2.637,6.153-4.194,9.823-4.438,1.132-.075,2.1-.521,1.1-2.209-3.471,1.238-6.935,2.734-10.886,1.8,2.658-4.5,5.8-6.633,10.7-7.305,1.5-.206,2.83-.388,3.381-2.116,1.04-3.238,2.2-6.438,3.238-9.675a4.536,4.536,0,0,0-.1-1.605c-3.361,3.66-4.774,8.5-8.873,11.874-.274-8.921,3.262-15.358,10.3-20.091-.4-1.784-.775-3.44-1.149-5.093l-.713.061c-1.307,2.521-2.614,5.046-4.116,7.94-.508-.94-.816-1.259-.847-1.6a43.916,43.916,0,0,1,1.239-16.367c.394-1.331.871-2.675-1.087-4-1.218,3.961-2.521,7.549-5.934,10.1.161-3.265.326-6.533.5-10.049l-6.887,1.931c.277-2.822,1.777-4.287,3.4-5.6s3.4-2.476,5.083-3.724c1.324-.984,1.886-2.061.35-3.245-1.094,1.245-2.181,2.483-3.756,4.274-.415-1.9-.7-2.761-.775-3.636a18.94,18.94,0,0,1,2.754-11.3c.875-1.5,1.527-2.946.518-4.63-3.6,1.286-6.753,3.694-11.589,2.658,1.4-1.845,2.164-3.409,3.4-4.37a37.548,37.548,0,0,1,6.637-4.085c1.4-.679,1.8-1.3,1.132-2.665-1.736.285-3.423.559-5.656.919a7.9,7.9,0,0,1,3.962-4.459c2.668-1.334,2.631-1.41,1.787-5.1a13.347,13.347,0,0,1-9.785.837c2.668-3.4,5.33-6.067,9.233-7.329,2.85-.923,2.812-1.043,2.346-4.805-2.747,1.489-5.165,3.955-8.873,3.125a11.7,11.7,0,0,1,4.791-5.982c2.061-1.44,4.215-2.75,6.328-4.119-.068-.3-.133-.607-.2-.913-1.221-.113-2.439-.325-3.66-.329-4.963-.024-9.926.014-14.886.031a4.435,4.435,0,0,0-1.56.058c-.669.274-1.578.668-1.759,1.218a2.188,2.188,0,0,0,.827,1.89c3.039,1.948,4.071,5.079,5.539,8.31-3.553.134-5.505-2.367-8.437-3.7-.484,2-.926,3.821-1.369,5.642-.2-.048-.388-.1-.583-.147-.151-1.122-.3-2.24-.532-3.913-1.354,1.286-2.311,2.312-3.389,3.183-1.42,1.149-2.8,1.471-3.714-.662,1.509-3.467,4.222-5.731,7.213-7.682,1.489-.971,2.315-2.024,1.526-3.855-3.941.185-7.772.343-11.6.562a6.444,6.444,0,0,0-1.89.518c-4.761,1.842-6.321,6.256-7.323,10.464-.953,4.013-.744,8.334-.785,12.525-.041,4.332.309,8.664.343,13,.107,12.749.138,25.494.216,38.242.007,1.341.14,2.682.226,4.267,10.046-5.44,10.046-5.44,12.69-3.756-.919.827-1.742,1.591-2.589,2.325-2.971,2.572-6.067,5.056-7.258,9.038a63.867,63.867,0,0,0-2.922,22.527,23.451,23.451,0,0,0,.816,3.3c2.991-4.208,5.837-7.631,8.05-11.428,6.009-10.32,11.3-20.976,13.459-32.9.13-.713.9-1.311,1.368-1.962l.892.213a27.642,27.642,0,0,1,.113,4.815c-.47,3.238-1.2,6.434-1.842,9.641a83.557,83.557,0,0,1-15.554,34.874,76.623,76.623,0,0,0-6.132,10.025c-.659,1.207-.586,2.809-.847,4.232l.724.37c6.9-7.093,15.784-10.066,24.986-12.34,1.911-.473,3.934-1.585,5.913.178-.731,2.185-2.662,2.5-4.287,3.217a72.64,72.64,0,0,0-16.762,10.08,17.844,17.844,0,0,0-2.058,2.377c.158.292.316.586.477.881,7.264-.436,14.528-.871,22.451-1.344-.92,1.348-1.416,2.61-2.332,3.337-4.459,3.543-9.044,6.866-15.308,4.9-1.245-.391-2.562-.573-3.845-.848-7.717-1.667-6.743-2.792-11.184,5.2-6.064,10.907-9.1,22.873-10.138,35.31a22.832,22.832,0,0,0,1.046,9.981,10.231,10.231,0,0,0,.442-3c.09-3.149-.031-6.315.275-9.442,1.125-11.555,5.608-22.043,10.577-32.353a15.96,15.96,0,0,1,2.5-3.512,2.71,2.71,0,0,1,1.948-.978c3.266.494,6.5,1.184,10.111,1.876-1.928,1.3-3.67,2.075-4.884,3.354a32.625,32.625,0,0,0-8.633,18.168,5.5,5.5,0,0,0,.844,3.663c2.075,2.874,8.1,3.817,11.164,1.784,7.041-4.689,14.851-7.748,22.644-10.845a31.324,31.324,0,0,1,4.1-.916c-2.223,4.613-4.051,8.417-6.036,12.539,1.368.179,2.247.378,3.128.4q5.32.113,10.639.137,80,.35,160,.7c24.7.12,49.393.261,74.087.593a8.008,8.008,0,0,0,8.276-5.827,25.455,25.455,0,0,0,1.087-6.945M264.837,331.958a45.393,45.393,0,0,0-45.3-45.417c-24.945.045-45.537,20.524-45.568,45.318a45.433,45.433,0,1,0,90.866.1M180.789,279.3a23.285,23.285,0,0,0,2.075-1.921,9.067,9.067,0,0,0-4.113-.71q-17.913-.067-35.834-.137c-3.859-.014-5.553,1.489-5.556,5.457-.021,15.76.058,31.516.144,47.276a12.362,12.362,0,0,0,.73,2.723c.769-1.465,1.307-2.493,1.849-3.522l.837.093c.473,1.965.947,3.931,1.43,5.94,2.436.806,2.716-.669,2.768-2.418.12-4.332.189-8.667.4-12.992a25.236,25.236,0,0,1,.809-3.938l1.231.021c.226.974.532,1.941.665,2.929.638,4.681,1.166,9.377,1.856,14.052.378,2.559.484,2.541,3.351,2.034.312-3.882.35-7.84.988-11.7,2.96-17.924,11.61-32.432,26.368-43.185M175.1,77.621a12.368,12.368,0,0,0-1.835-8.242c-.8,3.131-1.42,5.58-2.174,8.554,1.543-.12,2.713-.213,4.01-.312m-.758-32.659c.048-.336.1-.669.147-1.005a13.508,13.508,0,0,1-2.524-1.653c-1.67-1.7-3.536-1.386-5.45-.751-1.7.566-3.375,1.242-5.3,1.955v2.71c.12.353.244.7.364,1.053,3.635-5.374,8.3-3.1,12.759-2.308M168.174,61.3c.076-1.269-.384-2.24-1.907-2.377-1.06,2.559-.11,6.036-3.56,7.329-2.569-1.7-.971-4.527-2.493-7.237V77.826c2.96.182,5.5.7,8.125-.4-.278-2.744-.731-5.33-.748-7.92-.018-2.733.418-5.47.583-8.207m-7.1-5.553c2.675-3.1,2.672-3.327,0-4.771Zm-3.673,19.9V45.686c-2.253.422-4.328.806-6.589,1.228l1.7,5.858-.789.583-8.667-4.514v4.105c7.8,1.177,12.117,5.844,12.076,13.359-3.807-2.631-7.391-5.1-11.459-7.913.367,2.325.638,4.068.9,5.752,5.587.377,7.813,4.153,10.348,8.794A32.035,32.035,0,0,1,149.9,71.9a33.759,33.759,0,0,1-4.383-2.5c-.388,2.01-.384,3.238,1.557,3.807a7.278,7.278,0,0,1,2.943,1.88c2.061,2.089,4.256,2.3,7.384.559m-2.264-53.409,3.691-2.836c-4.14.14-4.14.14-3.691,2.836m-.161,359.182c-.508-8.033,1.214-16.093.12-24.17-3.381.5-3.6.518-3.477,2.363.5,7.415,1.139,14.82,1.794,23.062,1.036-.813,1.578-1.053,1.564-1.255m-3.169.524c-.48-7.717-.967-15.52-1.465-23.549-1.108-.1-2.093-.2-3.251-.3a10.692,10.692,0,0,0-.412,2.418c.487,6.788.995,13.575,1.588,20.356.175,2.027.429,2.058,3.54,1.077m-8.928.7h3.927c-.5-8.143-.994-16.048-1.492-24.1h-4.1c.494,8.386.628,16.2,1.66,24.1m3-29.767a35.686,35.686,0,0,0-1.039-12.09c-.038-.155-.689-.147-1.053-.216-.775,3.481.188,10.533,2.092,12.306M142.7,73.063c.586-1.207.113-2.926.113-4.754-1.612.446-2.651.731-3.759,1.04-.638-3.234,3.965-4.99,1.9-8.42-2.463,1.526-3.533,4.7-7.011,5.073.041-4.075,1.458-7.2,4.671-9.12,2.14-1.279,2.607-2.7,1.732-5.056-1.849.837-3.642,1.646-5.618,2.545-.665-3.4,2.73-4.49,2.874-7.271h-6.283c-.336,3.574-.625,6.822-.954,10.066-.092.9-.253,1.835-1.485,1.6-.014-.048-.027-.093-.041-.141-.051-.027-.1-.051-.154-.082a15,15,0,0,0-2.771-6.486c-1.149,3.416.319,5.2,2.771,6.486.014.061.024.123.037.185.055.014.107.027.158.038.6,2.14,1.214,4.3,2.065,7.316-2.284-1.358-3.8-2.26-5.711-3.4,1.08,1.763,1.845,3.008,2.815,4.589-2.154-.041-4.393-.669-3.234,2.473.7.209,1.43.49,2.191.648a10.5,10.5,0,0,1,7.436,5.224c1.259,2.185,3.138,2.984,4.5,1.893a13.6,13.6,0,0,0,3.759-4.448m-1.255,309.412a18.176,18.176,0,0,0,.144-2.521c-.6-6.482-1.238-12.961-1.876-19.44-.038-.38-.048-.909-.285-1.094a2.739,2.739,0,0,0-1.639-.737,2.067,2.067,0,0,0-1.434,1,3.962,3.962,0,0,0-.141,1.91c.35,6.119.686,12.241,1.1,18.356.2,2.908.274,2.9,4.126,2.528m-2.95-29.318.968-.175c-.274-4.218-.484-8.44-.905-12.642-.055-.577-1.152-1.053-2.514-2.206.59,5.443,1.066,9.923,1.6,14.4.031.237.559.419.854.624M136.3,382.019c-.556-7.6-1.115-15.269-1.684-23.062h-3.68c.065,1.269.082,2.295.178,3.31.477,5.073.985,10.142,1.455,15.215.1,1.039,0,2.1.11,3.138.244,2.295.542,2.412,3.622,1.4m-4.894.5a117.648,117.648,0,0,0-1.931-22.084c-.123-.648-1.118-1.128-1.708-1.687-.453.652-1.317,1.32-1.29,1.952.244,6.41.549,12.824,1.022,19.221.206,2.792.4,2.778,3.907,2.6m-1.358-304.7c.075-.237.151-.477.226-.717-1.962-1.561-3.924-3.125-6.156-4.9-.309,1.574-.549,2.8-.834,4.253,2.453.5,4.607.929,6.764,1.365M123.8,381.395c.247,1.354,1.128,1.533,2.655.851-.6-7.549-1.2-15.1-1.852-22.647-.031-.391-.549-.744-1.183-1.55a10.987,10.987,0,0,0-.672,2.528q.226,8.262.587,16.521a31.736,31.736,0,0,0,.466,4.3m-.737-329.5c-.1-.3-.206-.6-.312-.9-1.015.288-2.027.576-3.546,1,.477-2.4.868-4.373,1.317-6.647-1.2-.134-2.288-.257-3.663-.412v8.626c2.222-.8,4.527-.12,6.2-1.677m-.01,3.934c-.13-.22-.261-.436-.391-.655-2.03.46-4.061.923-6.39,1.451.082,1.266.158,2.4.278,4.26,2.624-2.037,4.562-3.547,6.5-5.056m-.82,12.8V63.453c-2.127,1.9-3.711,3.32-5.3,4.737.144.326.288.648.436.974,1.6-.178,3.193-.354,4.86-.538M121,76.105c.412-.093.518-1.6.905-2.96-2.071.631-3.453,1.053-4.833,1.471.035.456.069.912.107,1.368a14.513,14.513,0,0,0,3.821.12M108.949,283.577c3.114-6.256,6.9-12.172,10.4-18.236-8.506,11.51-17.372,22.877-18.84,37.814,2.785-6.537,5.279-13.225,8.441-19.577m6.979-248.7c-.449-.888-.837-1.66-1.228-2.435-.692,2.078-.692,2.078,1.228,2.435m-8.365,330c2,.48,3.1-.312,3.039-2.37-.134-4.294-.494-8.578-.768-12.968-6.211-.957-10.5-3.989-12.8-9.555-.593-1.427-1.691-1.784-3.162-1.725-2.878.11-5.828.466-8.636.021-4.719-.755-8.355.154-10.584,4.726-.326.665-1.142,1.077-1.636,1.684a21.216,21.216,0,0,0-2.562,3.457,10.97,10.97,0,0,0-1.039,3.715c-.295,2.521.377,4.709,2.809,5.988,1.883.988,5.008.322,6.881-1.523,1.118-1.1,2.034-2.411,3.159-3.5,6.3-6.1,15.654-4.167,18.942,3.913.388.957.5,2.027.854,3a7.552,7.552,0,0,0,5.5,5.134m2.85,8.358c.179-1.279.175-2.586.275-4.249-.992-.165-1.485-.282-1.986-.329-5.656-.545-8.509-2.84-10.2-8.146-.4-1.242-.936-2.439-1.427-3.653-1.142-2.85-3.433-3.817-6.287-3.707a8.113,8.113,0,0,0-6.561,2.991,18.77,18.77,0,0,1-2.995,3.107c-2.877,2.329-6.1,3.738-9.812,2.274-3.817-1.509-5.886-5.008-5.8-9.432a12.948,12.948,0,0,1,3.7-8.845c1.557-1.667,2.97-3.471,4.833-5.67-3.354-.96-6.04-1.732-9.3-2.665-1.427,6.784-2.719,13.037-4.061,19.279a5.517,5.517,0,0,0,1.811,5.906c4.671,4.178,5.741,9.48,4,15.42-.548,1.866-1.063,3.738-1.588,5.584,3.053,1.492,3.338,1.543,5.025-.638,1.838-2.38,3.457-4.932,5.192-7.395,2.346-3.32,4.637-6.685,8.523-8.479,5.457-2.521,11.044-.1,12.855,5.659.391,1.249.583,2.562,1,3.8,1.139,3.371,3.711,4.644,8.307,4.2,3.55-.343,3.9-.7,4.5-5.015m-1.389-28.31c-.624-3.032-1.159-5.638-1.831-8.89l-6.846,1.612c1.53,4.215,3.773,6.86,8.677,7.278m-4.181-82.387c-2.174-1.228-4.057-2.294-6.331-3.58-.394,1.526-.737,2.607-.947,3.711-.747,3.992-1.351,8.015-2.191,11.987A101.368,101.368,0,0,0,93.028,296.9c.1,8.921.137,17.846.213,26.766.01,1.046.041,2.1.144,3.142.147,1.516,1.077,1.972,3.152,1.554.086-3.087.244-6.071.237-9.051-.034-11.02-.4-22.047-.093-33.057a36.61,36.61,0,0,1,4.788-18.04c1.115-1.862,2.216-3.732,3.375-5.683m-3.618,120.294c-2.291-1.9-4.438-3.067-5.669-4.863-1.259-1.842-1.653-4.284-2.36-6.486-.943-2.95-3.831-4.743-6.774-3.629a12.882,12.882,0,0,0-5.038,3.478,105.531,105.531,0,0,0-6.417,8.859,14.344,14.344,0,0,0-1.053,2.3c2.278.775,3.626.147,5.1-1.368,3.189-3.272,8.012-4.548,12.385.106.593.634,1.362,1.471,2.1,1.53,2.4.2,4.826.076,7.724.076M93.264,223.267v-5.275c-3.525-.34-6.873-.847-10.231-.933-3.327-.086-6.64,1.684-10.619.319,6.362-5.714,13.963-4.1,20.788-5.251.072-3.186-.038-3.4-2.638-3.824a41.217,41.217,0,0,0-15.242.6,3.311,3.311,0,0,1-1.118-.219c.134-.816.254-1.54.449-2.73l-6.465.5c1.224,3.848,2.466,7.511,3.625,11.119.916,2.847,1.777,5.659,2.538,8.5,1.242,4.624,2.353,9.312.7,14.279-.885,2.654-.62,5.7-.843,8.571-.1,1.221-.117,2.445-.171,3.67-.268.048-.538.093-.809.141-3.506-8.852-7.32-17.595-10.111-26.718-2.785-9.1-5.278-18.3-7.9-27.448a33.178,33.178,0,0,0,1,9.747c2.675,9.864,4.788,19.9,8.77,29.376,2.637,6.28,4.537,12.941,7.779,18.878a44.171,44.171,0,0,1,5.423,16.277c1.235,10.821,2.126,21.687,3.018,32.546.545,6.671.806,13.369,1.248,20.051.069,1.063-.158,2.521,2.054,2.466V297.972c.329-.014.659-.031.988-.048.974,3.2.463,6.592.758,9.874.305,3.4.34,6.818.552,10.224.209,3.33-.456,6.777,1.094,10.224,2.387-.737,1.849-2.223,1.818-3.423-.147-6.04-.58-12.087-.456-18.123a46.8,46.8,0,0,0-3.934-19.128A136.328,136.328,0,0,1,76.4,255.014c-.994-6.627-.631-13.16,2.175-19.3,2.908-6.366,7.642-10.855,14.689-12.447M61.6,376.939c3.008-5.138,2.524-9.5-1.622-13.194A40.211,40.211,0,0,0,61.6,376.939" transform="translate(-2.626 -0.241)" fill="#273232"/>
                <path id="Path_1521" data-name="Path 1521" d="M1760.085,912.925c.223,6.166.106,12.351.021,18.524-.072,5.385-1.423,6.818-6.76,6.962-5.377.144-10.766.031-16.147.031v.151c-5.385,0-10.769.051-16.151-.017-3.732-.051-4.154-.271-4.209-3.972-.127-8.917-.062-17.838.093-26.756.044-2.7,1.269-3.845,3.948-3.93,5.769-.192,11.548-.234,17.32-.237,4.332,0,8.667.065,13,.247,6.709.288,8.606,1.163,8.89,9m-5.361,20.092a104.184,104.184,0,0,0-.912-23.518,25.627,25.627,0,0,0-4.023-.761c-5.371-.2-10.749-.3-16.127-.384-2.62-.041-5.254-.079-7.868.1-2.967.205-3.275.576-3.807,3.44a19.532,19.532,0,0,0-.408,3.505q-.021,7.285.093,14.57a26.6,26.6,0,0,0,.384,3.046Z" transform="translate(-1128.039 -593.819)" fill="#273232"/>
                <path id="Path_1522" data-name="Path 1522" d="M1763.014,918.382a104.184,104.184,0,0,1,.912,23.518h-32.669a26.654,26.654,0,0,1-.384-3.046q-.1-7.285-.092-14.57a19.49,19.49,0,0,1,.408-3.505c.532-2.864.84-3.234,3.807-3.44,2.613-.182,5.247-.144,7.867-.1,5.378.082,10.756.182,16.127.384a25.667,25.667,0,0,1,4.023.761" transform="translate(-1137.242 -602.703)" fill="#273232"/>
                <path id="Path_1523" data-name="Path 1523" d="M1070.755,355.811c.6,13.363,2.013,26.756.209,40.135-.521,3.879-1.859,5.443-5.724,5.862a100.649,100.649,0,0,1-23.165.264c-2.652-.322-3.859-1.588-4.894-3.79a65.018,65.018,0,0,0-18.418-23.292c-36.689-29.469-92.2-10.025-103.017,36.043a73.591,73.591,0,0,0-1.362,23.107,35.636,35.636,0,0,1-.151,4.1c-62.5.134-124.577.161-186.643,0,0-2.075-.027-3.622.007-5.166.525-25.49-10.443-44.419-32.521-56.993-2.051-1.166-4.232-2.1-6.307-3.224a28.649,28.649,0,0,1-2.672-1.859l.237-.871a18.5,18.5,0,0,1,2.84-.432q77.047.011,154.091.048a29.837,29.837,0,0,0,5.062-.422,4.433,4.433,0,0,0,4.03-4.589c.069-1.7.281-3.406.288-5.111q.149-32.92.25-65.838c.007-1.282,0-2.569,0-4.1h-4.6c.549-5.313,10.941-13.363,18.473-14.326.621,2.445,1.252,4.935,1.859,7.326,1.811.127,2.154-.751,1.962-1.972-.264-1.684-.524-3.375-.93-5.028-1.094-4.459,3.118-10.338,7.491-10.825a22.334,22.334,0,0,0,11.421-4.877c3.68,1.979,4.719,6.688,9.5,8.451-1.118-5.024-5.4-7.065-7.083-11.27a18.349,18.349,0,0,1,9.648-6.366c.981-.3,2.7.442,3.55,1.259a56.027,56.027,0,0,1,7.679,8.317c2.528,3.674,1.444,8.849-1.945,12.656a5.392,5.392,0,0,1-1.739,1.577c-4.153,1.647-4.225,4.96-3.982,8.691a149.06,149.06,0,0,0,4.541,27.932c.806,3.108,1.084,3.207,5.207,2.576.141-1.156.388-2.418.432-3.687.6-17.07,1.162-34.14,1.766-51.21.339-9.717.74-19.433,1.118-29.147.161-4.167.123-4.03-3.612-5.162-12.516-3.786-25.3-4.266-38.218-3.347-4,.285-4.538.634-4.49,4.761.089,7.748.442,15.489.706,23.233.007.219.254.429.439.724,2.089.3,3.152-.964,3.639-2.727.453-1.633.47-3.392.927-5.025a26.474,26.474,0,0,1,2.315-6.616,9.435,9.435,0,0,1,13.458-2.665c3.673,2.524,6.9,9.689,6.5,14.727-2,1.139-4.123,2.343-6.263,3.557-2.113-1.87-2.4-5.1-5.717-5.773-.415,3.43,2.946,4.887,3.44,7.834-2.013,2-4.009,4.246-6.283,6.164-2.661,2.247-6.143,2.192-9.36,2.353-1.139.055-2.4-1.389-3.526-2.26-1.029-.8-1.876-1.845-2.939-2.59a1.784,1.784,0,0,0-1.718.027,1.726,1.726,0,0,0-.051,1.7,34.151,34.151,0,0,0,2.768,2.778c.713.713,1.4,1.461,2.044,2.144-1.365,2.257-2.583,4.253-3.776,6.259-1.451,2.428-3.9,3.409-6.349,4.359-1.581.614-3.19,1.149-5.1,1.831-.868-.425-2.017-.991-3.179-1.56q0-29.613.007-59.126c0-1.314.072-2.627.141-3.941.3-5.717,1.547-7.158,7.1-7.995a138.356,138.356,0,0,1,53.546,2.747c1.379.333,2.764.648,4.356,1.019.158-1.225.329-2.11.377-3,.439-8,.813-16,1.3-24a4.439,4.439,0,0,0-2.106-4.582c-5.971-4.072-7.131-9.316-3.907-15.739,2.006-4,5.457-6.7,8.647-9.6,1.338-1.218,2.62-.823,3.584.761,1.036,1.7,1.825,3.45.947,5.556a36.963,36.963,0,0,0-1.554,4.874,19.826,19.826,0,0,0-.223,3.183c3.087-2.459,3.159-5.708,4.733-8.54,1.591.484,3.224.837,4.74,1.464,5.594,2.315,6.873,3.985,3.883,9.364-.624,1.122-1.406,2.188-.388,4.174.782-1.091,1.331-1.842,1.862-2.6.508-.727.995-1.468,1.784-2.638a25.269,25.269,0,0,0,2.212,3.982,20.15,20.15,0,0,0,4.644,4.6c1.965,1.183,3.032,2.325,2.5,4.657-.089.384.271.868.628,1.886,1-1.447,1.681-2.435,2.459-3.56,5.248,2.322,7.738,7.213,11.212,11.246-1.584,1.8-3.361,1.338-4.911.865a18.416,18.416,0,0,1-4.97-2.315,11.863,11.863,0,0,0-9.747-1.842,6.45,6.45,0,0,1-1.163.2c-5.731.2-9.044-2.164-9.648-7.035a4.78,4.78,0,0,0-1.228-2.394c-4.287,10.612-8.108,21.251-9.151,32.82,2.576,1.749,5.011,2.771,7.823.408a9.506,9.506,0,0,1,3.245-1.361c2.846-.905,2.867-.847,4.236,1.729a38.374,38.374,0,0,0,2.579,4.39,3.774,3.774,0,0,1,.072,5.011,19.553,19.553,0,0,0-2.157,4.184,9.664,9.664,0,0,0-.7,4.167c3.375-1.585,3.4-5.453,5.57-8.08,2.356,2,4.373,4.28,6.88,5.7,2.538,1.434,5.56,2.017,8.794,3.114-1.941,4.6-3.766,8.942-5.916,14.045,3.66-1.314,4.082-3.868,5.041-6.005s1.9-4.263,2.957-6.644a5.813,5.813,0,0,1,2.956,4.633,16.744,16.744,0,0,0,7.34,12.056c-.364,1.938-.7,3.742-1.039,5.543.295.1.593.2.888.291.83-1.513,1.66-3.029,2.517-4.6,3.32.138,4.86,2.237,6.256,4.747,1.564,2.826,3.392,5.5,5.385,8.7a3.629,3.629,0,0,0-.278,3.659c7.021,13.8,13.87,27.7,20.867,41.514a48.865,48.865,0,0,0,4.1,6.256,36.609,36.609,0,0,0,13.891,11.85c12.135,5.961,23.9,12.69,36.047,18.61,5.711,2.782,8.568,7.3,8.822,12.927m-5.083,31c.048-7.357.137-14.718.079-22.075-.021-2.747-.443-5.488-.583-8.238-.213-4.123-2.541-6.822-5.927-8.681-4.6-2.528-9.315-4.853-13.956-7.309q-14.961-7.913-29.87-15.915a8.08,8.08,0,0,1-2.49-2.407,216.85,216.85,0,0,1-18.744-30.957c-2.723-5.509-5.615-10.931-8.454-16.436-2.905,4.359-2.843,5.474.9,8.5,3,2.432,4.784,5.392,3.8,9.25a6.374,6.374,0,0,0,.988,5.121c2.559,4.582,5.3,9.1,7.415,13.887,3.049,6.918.95,9.905-6.52,9.806q-54.77-.736-109.537-1.533c-3.022-.041-6.067.1-9.058-.226-4.191-.463-6.006-1.321-5.913-6.506.1-5.779-.041-11.562-.165-17.344-.021-.981-.172-2.436-.8-2.847-2.559-1.67-5.33-3.019-8.643-4.823,0,2.1,0,3.629,0,5.159-.031,23.391-.014,46.782-.154,70.174a37.071,37.071,0,0,1-1.407,8.067,3.612,3.612,0,0,1-3.766,2.85c-4.973.2-9.943.662-14.913.662q-65.224-.036-130.442-.2c-1.492,0-2.987.1-4.479.154-.048.24-.093.48-.141.72.669.548,1.314,1.125,2.007,1.639,17.485,12.944,26.814,30.179,27.408,52.03a32.5,32.5,0,0,0,.384,3.227c7.113.854,170.92.553,173.767-.326,0-1.235-.075-2.535.014-3.824.357-4.97.267-10.032,1.228-14.889,10.6-53.628,72.238-73.459,112.209-45.139a68.781,68.781,0,0,1,22.033,25.3c1.112,2.2,2.453,3.114,4.885,2.9,4.181-.363,8.392-.4,12.567-.823,4.328-.433,5.385-1.554,6.081-5.814a20.436,20.436,0,0,0,.2-3.142m-82.439-72.228h11.195c-1.5-5.975-5.711-9.943-7.758-15.122a4.64,4.64,0,0,0-3.094,4.678c-.106,3.361-.22,6.719-.343,10.444m-.85-16.357c-.707-1.992-2.137-1.276-3.128-1.646-1.053-.394-2.4-.748-2.967-1.568-1.595-2.294-2.857-4.822-4.184-7.144,1.461-1.468,3.893,0,5.165-2.593h-7.515c-1.536-3.3-1.735-8.4-.658-12.475,2.016-.987,4.7.628,7.1-2.195-2.01-.175-3.389-.552-4.678-.357-3.155.477-5.268-.662-6.578-3.516-.374-.813-.861-1.578-1.715-3.125l3.152-1.338c-2.394-3.34-4.208-6.067-6.239-8.629-1.094-1.379-2.2-2.706-4.469-2.662-8.084.168-12.495-3.79-13.771-11.908a7.318,7.318,0,0,0-.844-1.832c-.268.034-.532.065-.8.1-.549,6.1-1.307,12.182-1.6,18.295-.731,15.225-2.583,30.326-4.517,45.428-.562,4.38-1.18,8.753-1.807,13.383h3.7c4.369-11.143,8.667-22.1,13.085-33.382-2.977-3.381-4.359-7.3-1.375-11.593,2.274-3.265,5.632-5.247,9.463-4.37,3.931.9,6.486,3.982,7.83,7.8-5.611,5.031-5.611,5.031-5.35,7.048,1.866-1.19,3.649-2.329,6.287-4.009-1.619,6.921.679,11.712,4.839,15.619-2.055,3.176-6.534,2.521-7.669,6.6,2.991-1.362,5.982-2.72,9.1-4.14,2.277,2.868,2.229,5.6,1.681,8.345-.761,3.817.48,7.261,1.729,10.732.532,1.471,1.458,1.643,3,.834-.373-1.739-.747-3.468-1.111-5.176l3.039-1.306c-1.616-1.046-2.713-1.759-3.924-2.545q.55-3.03,1.039-5.711l4.682-.957m-1.925-33.581a3.939,3.939,0,0,0-1.207-2.524c-1.876-1.773-3.9-3.4-5.707-5.238a13.763,13.763,0,0,0-7.443-4.246c2.017,3.1,4.013,6.215,6.074,9.288a2.489,2.489,0,0,0,1.324.761c2.312.683,4.637,1.311,6.959,1.959m-38.77,49.773H969.5c-.161-1.334-.295-2.36-.411-3.385-.689-6.112-.689-6.112-6.565-7.055-6.229-1-9.134-5.3-7.834-11.6.127-.607.271-1.211.48-2.151-4.222,3.66-11.75,17.238-13.486,24.19m-10.3-41.031a164.733,164.733,0,0,0,.978-35.351c-.357-5.138-3.735-8.7-9.4-10.042a21.032,21.032,0,0,0-.425,2.641c-.374,11.284-1.094,22.572-.978,33.852.161,15.352.964,30.693,1.519,46.042a11.823,11.823,0,0,0,.524,3.07,1.5,1.5,0,0,0,1.218.689,1.59,1.59,0,0,0,1.194-.751,6.991,6.991,0,0,0,.292-1.924c1.677-12.745,3.217-25.508,5.076-38.225M924.21,221.85c1.358-5.532,1.358-5.532-.236-6.794-1.221,5.258-1.221,5.258.236,6.794m-6.65-1.749c.175-2.521.326-4.685.494-7.158-1.647-.508-2.754-.9-3.886-1.194a140.794,140.794,0,0,0-47.6-4.037c-7.912.662-8.084.49-8.214,8.6-.175,10.9-.082,21.793-.069,32.69a12.648,12.648,0,0,0,.439,2.284c2.658-.494,5.059-.937,7.6-1.41,0-1.451.028-2.624,0-3.79-.189-6.953-.418-13.9-.58-20.857-.134-5.772,1.677-8.1,7.2-8.821a86.157,86.157,0,0,1,10.6-.659c9.854-.052,19.666.332,29.177,3.378a45.3,45.3,0,0,0,4.846.974M902.438,313.82c-2.315-11.95-4.531-23.385-6.691-34.535-3.694-1.269-7.388-2.559-11.1-3.8-5.134-1.725-6.486-.7-5.954,4.606.429,4.3-.268,8.1-4.04,10.856a3.218,3.218,0,0,0-1.2,2.284c.137,6.17.4,12.34.686,18.511a2.312,2.312,0,0,0,2.463,2.5c2.589.014,5.182,0,8.509,0-2.264-6.709-4.205-12.457-6.215-18.418,2.569-.717,3.461.693,4.232,1.986,2.754,4.62,5.4,9.3,8.135,13.935.5.847,1.173,2.157,1.873,2.229,3.166.333,6.4.625,9.3-.151" transform="translate(-450.864 -98.339)" fill="#273232"/>
                <path id="Path_1524" data-name="Path 1524" d="M1477.89,866.7c18.686.048,34.641,13.507,34.627,33.773-.013,20.915-17.026,33.681-34.037,33.454-15.146.292-33.643-11.483-33.564-33.547.079-22.784,18.637-33.715,32.974-33.681m8.3,34.758a8.638,8.638,0,1,0-8.91,8.5,8.693,8.693,0,0,0,8.91-8.5" transform="translate(-949.424 -569.522)" fill="#273232"/>
                <path id="Path_1525" data-name="Path 1525" d="M1481.784,324.917a10.767,10.767,0,0,1,2.984,8.681c-.339,4.246-3.426,6.16-7.041,8a41.618,41.618,0,0,1-2.716-4.887c-1.927-4.9-5.055-8.42-10.173-10.169a13.681,13.681,0,0,1-4.126-2.836c-.494-.425-.566-1.351-.957-2.384,2.157-.514,4.013-.957,5.892-1.4-1.379-2.384-1.444-2.4-6.492-1.362-1.64-2.936-2.713-6.455-5.052-8.592-2.253-2.061-5.81-2.692-9.182-4.112,1.6-1.386,3.183-2.758,4.768-4.129-.226-.309-.456-.614-.683-.923-1.468.755-2.963,1.451-4.394,2.267-3.087,1.759-3.708,1.811-5.992-.94a79.473,79.473,0,0,1-4.5-6.575c2.281-3.227,6.685-2.133,8.6-5.724-4.068-.971-6.832,2.72-10.341,2.37-3.776-5.975-2.541-11.466,3.289-15.081,5.176-3.21,12.4-1.176,15.558,4.582a35.2,35.2,0,0,1,2.226,6.277c.521,1.622.868,3.3,1.392,4.918a7.45,7.45,0,0,0,5.066,5.093c.5.158.988.357,1.485.528,7.1,2.418,8.935,4.9,8.619,12.488-.172,4.092,1.694,6.558,5.042,8.564a34.793,34.793,0,0,1,6.733,5.347" transform="translate(-939.767 -181.156)" fill="#273232"/>
                <path id="Path_1526" data-name="Path 1526" d="M1425.927,148.074c3.079,2.771,3.426,4.857,1.159,8.348-2.689-3.227-4.833-6.654-7.786-9.1s-6.722-3.92-10.3-5.916c2.109-3.4,7.083-3.495,8.8-7.954-4.839-.1-6.777,4.637-10.625,4.9-2.343-4.037-4.668-8.046-7.556-13.026a9.24,9.24,0,0,0,2.058-1.19,11.712,11.712,0,0,0,1.636-2.49,4.048,4.048,0,0,0-3.972,1.725c-1.55,1.736-3.4,1.753-5.381.943a14.9,14.9,0,0,1-6.99-6.115,5.262,5.262,0,0,1,.01-4.064,14.939,14.939,0,0,1,11.9-9.755,8.354,8.354,0,0,1,9.449,4.8,27.757,27.757,0,0,1,2.2,7.861c.508,3.546.974,4.493,4.462,5.453a41.667,41.667,0,0,0,4.26.683c5.392.888,7.919,3.787,7.357,9.243a29.834,29.834,0,0,1-2.387,7.81c-1.609,4-1.5,4.949,1.708,7.84" transform="translate(-911.087 -68.553)" fill="#273232"/>
                <path id="Path_1527" data-name="Path 1527" d="M1377.955,340.542c1.594,1.263,1.594,1.263.236,6.795-1.458-1.537-1.458-1.537-.236-6.795" transform="translate(-904.846 -223.825)" fill="#273232"/>
                <path id="Path_1528" data-name="Path 1528" d="M638.967,338.921a69.474,69.474,0,1,1-14.84-22.015,68.81,68.81,0,0,1,14.84,22.015m2.72,26.955a66.33,66.33,0,1,0-5.227,25.9,66.133,66.133,0,0,0,5.227-25.9" transform="translate(-332.471 -194.969)" fill="#273232"/>
                <path id="Path_1529" data-name="Path 1529" d="M824.563,447.233v11.713h-3.217V447.659c0-3.567-1.242-5.234-4.3-5.234-2.25,0-3.762,1.125-5.933,3.372v13.15h-3.221V431.333h3.221v7.521l-.2,4.462h.117c1.9-2.1,4.112-3.687,7.021-3.687,4.459,0,6.513,2.638,6.513,7.6" transform="translate(-530.883 -283.477)" fill="#273232"/>
                <path id="Path_1530" data-name="Path 1530" d="M814.329,550.48a1.9,1.9,0,0,1-.878,1.65,3.815,3.815,0,0,1-2.226.607,5.283,5.283,0,0,1-2.222-.405l.209-.946a4.581,4.581,0,0,0,1.969.436,2.841,2.841,0,0,0,1.485-.343,1.014,1.014,0,0,0,.57-.9.956.956,0,0,0-.285-.676,3.447,3.447,0,0,0-1.334-.62c-.566-.171-.981-.3-1.245-.388a2.7,2.7,0,0,1-.744-.384,1.748,1.748,0,0,1,.127-2.884,3.866,3.866,0,0,1,2.192-.556,7.449,7.449,0,0,1,1.962.3l-.244.919a5.533,5.533,0,0,0-1.732-.3,2.832,2.832,0,0,0-1.41.3.9.9,0,0,0-.518.8.742.742,0,0,0,.24.549,2.348,2.348,0,0,0,.953.439l1.043.3a4.649,4.649,0,0,1,1.177.487,1.925,1.925,0,0,1,.682.689,1.836,1.836,0,0,1,.23.933" transform="translate(-531.567 -358.205)" fill="#273232"/>
                <path id="Path_1531" data-name="Path 1531" d="M792.64,547.884l.189.847a5.169,5.169,0,0,1-2.165.5q-1.955,0-1.955-2.068V542.7h-1.4v-.946h1.4v-2h1.063v2h2.48v.946h-2.48v4.178a1.622,1.622,0,0,0,.295,1.032.972.972,0,0,0,.8.367,4.277,4.277,0,0,0,1.773-.4" transform="translate(-517.361 -354.717)" fill="#273232"/>
                <path id="Path_1532" data-name="Path 1532" d="M760.594,470.26l1.434,2.1a11.213,11.213,0,0,1-7.484,2.946c-5.9,0-10.317-3.6-10.317-9.85,0-6.321,4.809-9.929,10.512-9.929a9.571,9.571,0,0,1,6.863,2.754l-1.591,2.058a7.759,7.759,0,0,0-5.155-2.133,6.922,6.922,0,0,0-7.333,7.25,6.842,6.842,0,0,0,7.254,7.175,8.955,8.955,0,0,0,5.817-2.367" transform="translate(-489.058 -299.37)" fill="#273232"/>
                <path id="Path_1533" data-name="Path 1533" d="M772.761,547.552v5h-1.094v-4.682a2.461,2.461,0,0,0-.312-1.41,1.122,1.122,0,0,0-.977-.439,2.661,2.661,0,0,0-1.725.823l-.425-.521a3.426,3.426,0,0,1,2.48-1.248q2.053,0,2.055,2.48" transform="translate(-504.826 -358.206)" fill="#273232"/>
                <path id="Path_1534" data-name="Path 1534" d="M766.131,546.656l.425.521c-.141.127-.281.271-.425.425v5.282h-1.094v-7.3h1.094Z" transform="translate(-502.73 -358.541)" fill="#273232"/>
                <path id="Path_1535" data-name="Path 1535" d="M749.087,552.549H748a4.19,4.19,0,0,1-.134-1.177,2.916,2.916,0,0,1-2.535,1.365,2.046,2.046,0,0,1-1.434-.576,1.953,1.953,0,0,1-.621-1.488,1.983,1.983,0,0,1,.22-.953,1.9,1.9,0,0,1,.638-.7,3.411,3.411,0,0,1,1.022-.446,7.915,7.915,0,0,1,1.427-.23l1.228-.1v-.35q0-1.878-1.753-1.879l-.1-.92a3.287,3.287,0,0,1,.446-.027q2.5,0,2.5,2.641v3.142a7.038,7.038,0,0,0,.182,1.695m-1.276-2.165v-1.324c-.984.089-1.664.172-2.027.247a2.315,2.315,0,0,0-.953.432,1.1,1.1,0,0,0-.062,1.646,1.294,1.294,0,0,0,.878.3,2.234,2.234,0,0,0,1.156-.346,3.5,3.5,0,0,0,1.008-.957" transform="translate(-488.433 -358.206)" fill="#273232"/>
                <path id="Path_1536" data-name="Path 1536" d="M746.646,545.152l.1.919a3.988,3.988,0,0,0-1.046.178,5.437,5.437,0,0,0-1.09.425l-.288-.785a6.518,6.518,0,0,1,2.329-.737" transform="translate(-489.117 -358.258)" fill="#273232"/>
                <path id="Path_1537" data-name="Path 1537" d="M727,546.99v.947h-2.984V539h-1.9v-.943h3v8.938Z" transform="translate(-474.531 -353.593)" fill="#273232"/>
                <path id="Path_1538" data-name="Path 1538" d="M698.526,461.117l.7,2.363a16.444,16.444,0,0,1-5.9,1.125c-5.508,0-7.292-3.142-7.292-7.8v-8.917h-5.35v-2.4l5.467-.2.425-6.05h2.678v6.05h9.23v2.6h-9.23v8.959c0,3.375,1.122,5.117,4.768,5.117a12.4,12.4,0,0,0,4.5-.851" transform="translate(-447.311 -288.673)" fill="#273232"/>
                <path id="Path_1539" data-name="Path 1539" d="M563.271,869.032c18.559.058,34.614,13.373,34.6,33.784-.021,21.007-17.138,33.663-34.048,33.42-15.053.285-33.612-11.387-33.533-33.554.079-22.716,18.583-33.691,32.984-33.65m9.837,34.494a9.119,9.119,0,0,0-8.959-9.435,9,9,0,0,0-9.216,8.739,9.094,9.094,0,1,0,18.174.7" transform="translate(-348.494 -571.054)" fill="#273232"/>
                <path id="Path_1540" data-name="Path 1540" d="M707.217,546.115a4.658,4.658,0,0,1,.72,2.706,4.907,4.907,0,0,1-.755,2.8,2.327,2.327,0,0,1-2.027,1.119,2.52,2.52,0,0,1-1.272-.34,2.59,2.59,0,0,1-.936-.9l.583-.374c.079.076.164.151.25.219a1.747,1.747,0,0,0,1.087.412,1.589,1.589,0,0,0,1.4-.827,3.753,3.753,0,0,0,.525-2.051,3.863,3.863,0,0,0-.5-2.062,1.558,1.558,0,0,0-1.389-.8,2.054,2.054,0,0,0-1.536.71l-.425-.535a2.655,2.655,0,0,1,.984-.813,2.909,2.909,0,0,1,1.306-.309,2.272,2.272,0,0,1,1.979,1.043" transform="translate(-461.936 -358.206)" fill="#273232"/>
                <path id="Path_1541" data-name="Path 1541" d="M701.434,551.461l-.583.374v3.937h-1.095v-10.19h1.095v.947l.425.535a3.589,3.589,0,0,0-.425.552v3.032a3.1,3.1,0,0,0,.583.813" transform="translate(-459.839 -358.541)" fill="#273232"/>
                <path id="Path_1542" data-name="Path 1542" d="M683.244,548.591v.343h-5.007a2.945,2.945,0,0,0,.717,2.044,2.269,2.269,0,0,0,1.763.806,6.333,6.333,0,0,0,2.051-.357l.192.875a5.436,5.436,0,0,1-2.257.436,3.447,3.447,0,0,1-2.62-1.043,3.9,3.9,0,0,1-.995-2.816,4.085,4.085,0,0,1,.892-2.771,2.912,2.912,0,0,1,2.308-1.036,2.709,2.709,0,0,1,2.11.961,3.722,3.722,0,0,1,.847,2.559m-4.939-.549h3.749a2.056,2.056,0,0,0-.532-1.437,1.588,1.588,0,0,0-1.194-.586,1.9,1.9,0,0,0-1.4.562,2.207,2.207,0,0,0-.621,1.461" transform="translate(-444.945 -358.206)" fill="#273232"/>
                <path id="Path_1543" data-name="Path 1543" d="M661.783,549.548a1.872,1.872,0,0,1,.226.933,1.9,1.9,0,0,1-.875,1.649,3.817,3.817,0,0,1-2.226.607,5.287,5.287,0,0,1-2.223-.405l.209-.947a4.575,4.575,0,0,0,1.969.436,2.836,2.836,0,0,0,1.482-.343,1.017,1.017,0,0,0,.572-.9.954.954,0,0,0-.285-.676,3.444,3.444,0,0,0-1.334-.621c-.566-.171-.981-.3-1.248-.387a2.665,2.665,0,0,1-.741-.385,1.671,1.671,0,0,1-.522-.6,1.775,1.775,0,0,1,.649-2.284,3.857,3.857,0,0,1,2.192-.556,7.45,7.45,0,0,1,1.961.3l-.247.92a5.5,5.5,0,0,0-1.729-.3,2.833,2.833,0,0,0-1.41.3.892.892,0,0,0-.518.8.742.742,0,0,0,.24.549,2.324,2.324,0,0,0,.95.439l1.046.3a4.734,4.734,0,0,1,1.176.487,1.96,1.96,0,0,1,.682.69" transform="translate(-431.489 -358.206)" fill="#273232"/>
                <path id="Path_1544" data-name="Path 1544" d="M636.144,456.882v18.85h-2.675l-.271-3.3h-.154c-1.9,2.212-4.112,3.763-7.021,3.763-4.459,0-6.517-2.638-6.517-7.6V456.882h3.221v11.287c0,3.529,1.241,5.234,4.342,5.234,2.175,0,3.763-1.009,5.858-3.451V456.882Z" transform="translate(-407.113 -300.263)" fill="#273232"/>
                <path id="Path_1545" data-name="Path 1545" d="M640.073,545.583v7.3h-1.094V551.8a3.4,3.4,0,0,1-2.48,1.255q-2.052,0-2.051-2.487v-4.99h1.09v4.675a2.613,2.613,0,0,0,.3,1.389,1.085,1.085,0,0,0,.994.46,3.134,3.134,0,0,0,2.151-1.245v-5.278Z" transform="translate(-416.931 -358.541)" fill="#273232"/>
                <path id="Path_1546" data-name="Path 1546" d="M616.98,546.124a4.133,4.133,0,0,1,.888,2.768,4.192,4.192,0,0,1-.888,2.788,3.256,3.256,0,0,1-4.8,0,4.2,4.2,0,0,1-.885-2.792,4.13,4.13,0,0,1,.888-2.771,3.259,3.259,0,0,1,4.795,0m-.254,2.782a3.557,3.557,0,0,0-.566-2.075,1.945,1.945,0,0,0-3.156-.01,4.079,4.079,0,0,0,.007,4.133,1.895,1.895,0,0,0,3.142-.011,3.531,3.531,0,0,0,.573-2.037" transform="translate(-401.72 -358.205)" fill="#273232"/>
                <path id="Path_1547" data-name="Path 1547" d="M575.8,447.233v11.713h-3.217V447.659c0-3.567-1.242-5.234-4.3-5.234-2.25,0-3.762,1.125-5.933,3.372v13.15h-3.221V431.333h3.221v7.521l-.2,4.462h.117c1.9-2.1,4.112-3.687,7.021-3.687,4.459,0,6.513,2.638,6.513,7.6" transform="translate(-367.443 -283.477)" fill="#273232"/>
                <path id="Path_1548" data-name="Path 1548" d="M598.688,547.552v5H597.6v-4.682a2.491,2.491,0,0,0-.312-1.41,1.123,1.123,0,0,0-.977-.439,2.661,2.661,0,0,0-1.725.823l-.425-.521a3.421,3.421,0,0,1,2.48-1.248q2.053,0,2.051,2.48" transform="translate(-390.458 -358.206)" fill="#273232"/>
                <path id="Path_1549" data-name="Path 1549" d="M592.061,541.708l.425.521c-.141.127-.281.271-.425.425v5.282h-1.094v-9.885h1.094Z" transform="translate(-388.363 -353.593)" fill="#273232"/>
                <path id="Path_1550" data-name="Path 1550" d="M482.308,310.309c-.027.024-.058.045-.086.065-.062.014-.123.024-.185.038.038-.041.079-.082.12-.12.051.007.1.014.151.017" transform="translate(-316.793 -203.95)" fill="#273232"/>
                <path id="Path_1551" data-name="Path 1551" d="M367.931,170.314c.013.048.027.093.041.141-.051-.01-.1-.024-.158-.038-.014-.062-.024-.124-.037-.185.051.031.1.055.154.082" transform="translate(-241.722 -111.928)" fill="#273232"/>
                <path id="Path_1552" data-name="Path 1552" d="M347.633,80.259c-.031-.014-.065-.024-.1-.034a.366.366,0,0,0,.024-.055.231.231,0,0,0,.027-.027c.014.038.027.079.045.117" transform="translate(-228.424 -52.737)" fill="#273232"/>
                <path id="Path_1553" data-name="Path 1553" d="M347.634,80.116a.262.262,0,0,1-.027.027l.02-.041s0,.01.007.014" transform="translate(-228.47 -52.711)" fill="#273232"/>
                <path id="Path_1554" data-name="Path 1554" d="M347.477,80.27a.572.572,0,0,0,.045-.048.432.432,0,0,1-.024.055c-.007,0-.014,0-.021-.007" transform="translate(-228.385 -52.79)" fill="#273232"/>
                <path id="Path_1555" data-name="Path 1555" d="M190.918,231.758c.086.857-.662,1.8-1.094,2.874-1.976-.8-3.526-1.444-3.817-3.419-.755-5.145-3.762-9.062-6.89-12.944-1.159-1.441-2.11-3.049-3.159-4.579.268-.212.532-.425.8-.638,2.01.556,4.044,1.046,6.03,1.684,3.3,1.06,5.831,3.1,6.585,6.589a95.271,95.271,0,0,1,1.547,10.433" transform="translate(-115.693 -140.062)" fill="#273232"/>
                <path id="Path_1556" data-name="Path 1556" d="M190.164,279.242c3.941.4,4.61.926,4.14,3.588a36.637,36.637,0,0,1-5.309,13.345c-1.269,2-3.457,1.286-5.926,1.211,2.826-6.04,6.808-11.308,7.1-18.144" transform="translate(-120.365 -183.55)" fill="#273232"/>
                <path id="Path_1557" data-name="Path 1557" d="M164.959,270.693c5.172,1.036,5.872,1.935,3.588,6.832a112.623,112.623,0,0,1-7.419,12.824c-1.581,2.479-4.119,2.322-6.331,1.55,1.691-6.472,3.327-12.628,4.9-18.806.731-2.857,1.056-3.114,4.105-2.613.388.065.772.137,1.156.212" transform="translate(-101.79 -177.659)" fill="#273232"/>
                <path id="Path_1558" data-name="Path 1558" d="M159.949,227.868a11.3,11.3,0,0,1,.892,2.857c-2.473-.624-4.486-1.022-6.417-1.67a3.361,3.361,0,0,1-2.024-1.643c-1.8-5.8-5.848-10.1-10.073-15.112,3.3-.785,5.628-1.025,7.512,1.67,3.282,4.7,6.777,9.24,10.111,13.9" transform="translate(-93.597 -139.221)" fill="#273232"/>
                <path id="Path_1559" data-name="Path 1559" d="M171.122,442.209c1.039,5.035.158,6.249-5.951,7.611-.3-3.6-.579-6.925-.854-10.241,3.907-.62,6.331.34,6.8,2.631" transform="translate(-108.045 -288.773)" fill="#273232"/>
                <path id="Path_1560" data-name="Path 1560" d="M168.657,408.512c2.4,1.008,4.064,4.311,4.188,8.9l-4.188-1.07Z" transform="translate(-110.896 -268.483)" fill="#273232"/>
                <path id="Path_1561" data-name="Path 1561" d="M107.417,824.934c-.25.494-.312.847-.487.922-5.5,2.309-9.864,6.249-14.518,9.837a40,40,0,0,1-10.279,5.577c-3.433,1.293-7.137.83-11.215-.868,1.814-1.952,3.231-3.588,4.764-5.1,3.262-3.206,6.417-6.554,9.929-9.462,3.107-2.572,6.575-4.768,10.766-5.32,4.568-.6,7.926,1.595,11.04,4.414" transform="translate(-46.679 -539.114)" fill="#273232"/>
                <path id="Path_1562" data-name="Path 1562" d="M127.761,228.149a6.688,6.688,0,0,1,.665,1.9,45.3,45.3,0,0,1-6.417-.09,4.031,4.031,0,0,1-2.661-1.924c-1.832-3.88-4.887-6.651-7.919-9.48a13.256,13.256,0,0,1-.991-1.17c4.709-2.277,6.112-2.263,9.4,1.177,2.857,2.987,5.33,6.349,7.919,9.586" transform="translate(-72.645 -141.872)" fill="#273232"/>
                <path id="Path_1563" data-name="Path 1563" d="M132.874,266.9a44.293,44.293,0,0,1-1.074,6.126,87.063,87.063,0,0,1-4.061,10.924c-2.7,5.656-3.19,6.345-10.523,4.956.744-1.595,1.451-2.816,1.9-4.126,1.609-4.661,3.413-9.281,4.61-14.048,1.221-4.877.953-4.123,5.292-4.383a20.98,20.98,0,0,1,3.855.552" transform="translate(-77.099 -175.073)" fill="#273232"/>
                <path id="Path_1564" data-name="Path 1564" d="M134.744,406.456h-5.872c-1.015-4.507-4.9-5.979-7.786-8.815,3.814-2.157,7.8-3.114,11.191-.854,3.022,2.016,2.367,5.961,2.466,9.669" transform="translate(-79.642 -259.927)" fill="#273232"/>
                <path id="Path_1565" data-name="Path 1565" d="M148.809,437.712c0,3.763.062,7.089-.027,10.416-.041,1.674-1.132,2.527-3.245,2.72-.748-4.184-1.465-8.208-2.25-12.6,1.739-.168,3.341-.322,5.522-.535" transform="translate(-94.228 -287.668)" fill="#273232"/>
                <path id="Path_1566" data-name="Path 1566" d="M127.433,451.1c.123,3.437-.329,3.9-4.174,5.385-1.077-5.206-2.1-10.125-3.163-15.29a17.3,17.3,0,0,1,2.381-.988c3.09-.782,3.718-.412,4.16,2.72a77.9,77.9,0,0,1,.8,8.173" transform="translate(-78.991 -289.079)" fill="#273232"/>
                <path id="Path_1567" data-name="Path 1567" d="M100.321,267.792h7.792a50.525,50.525,0,0,1-8.708,21.066c-.95,1.334-2.161,1.715-3.89.706,3.149-6.89,4.37-14.151,4.805-21.772" transform="translate(-62.841 -176.027)" fill="#273232"/>
                <path id="Path_1568" data-name="Path 1568" d="M94.037,407.041c1.783,1.708,4.575,2.565,5.162,5.573-3.632,2.209-7.107,2.994-11.082.947-2.109-1.087-4.606-1.413-7.339-2.2,2.631-3.149,5.92-4.541,9.123-6.05a1,1,0,0,1,.761-.051,12.472,12.472,0,0,1,3.375,1.784" transform="translate(-53.157 -266.309)" fill="#273232"/>
                <path id="Path_1569" data-name="Path 1569" d="M101.547,234.5l-7.645.381c-1.293-1.749-2.524-3.574-3.917-5.261-1.31-1.581-2.792-3.025-4.219-4.552,3.238-2.346,3.622-2.432,6.308-.569a32.753,32.753,0,0,1,9.473,10" transform="translate(-56.435 -146.725)" fill="#273232"/>
                <path id="Path_1570" data-name="Path 1570" d="M98.958,447.333c4.016,6.637,4.03,16.151-.062,20.479a13.6,13.6,0,0,1-.9-2.007c-1.149-4.383-2-8.866-4.7-12.69-.953-1.351-.377-2.517.919-3.279,1.451-.854,2.977-1.581,4.74-2.5" transform="translate(-61.073 -293.989)" fill="#273232"/>
                <path id="Path_1571" data-name="Path 1571" d="M79.843,269.732c-.645,4.116-.984,7.6-1.793,10.975a36.037,36.037,0,0,1-2.727,6.921c-2.01,4.215-2.332,4.318-7.546,3.763a25.1,25.1,0,0,1,.364-2.644c1.163-4.853,2.192-9.727,1.766-14.758-.182-2.123.683-3.227,2.758-3.457,2.15-.24,4.3-.48,7.179-.8" transform="translate(-44.616 -177.302)" fill="#273232"/>
                <path id="Path_1572" data-name="Path 1572" d="M79.4,479.769c.353,3.255-1.128,5.714-3.7,7.854-.346-7.22-1.952-13.822-6.983-19.474l5.3-4.387c2.926,3.231,3.886,6.887,4.764,10.536a43.137,43.137,0,0,1,.621,5.47" transform="translate(-45.233 -304.783)" fill="#273232"/>
                <path id="Path_1573" data-name="Path 1573" d="M67.427,241.919c-2.322.511-4.294.988-6.286,1.375-1.938.377-3.488-.017-4.558-1.979-.525-.96-1.67-1.578-2.521-2.367-.806-.751-1.595-1.53-2.754-2.644,2.325-.964,4.057-1.821,5.882-2.373a3.285,3.285,0,0,1,2.552.364c2.772,2.051,5.607,4.088,7.686,7.624" transform="translate(-33.795 -153.707)" fill="#273232"/>
                <path id="Path_1574" data-name="Path 1574" d="M75.668,434.318c-4.034,4.03-6.757,4.2-13.582.748,2.86-3.255,9.559-3.481,13.582-.748" transform="translate(-40.877 -284.198)" fill="#273232"/>
                <path id="Path_1575" data-name="Path 1575" d="M57.675,484.152c5.6,6.273,6.684,20.953,1.163,26.361,0-2.754-.052-4.668.01-6.578.137-4.089-1.41-7.683-3.241-11.188-2.377-4.552-2.2-5.385,2.068-8.6" transform="translate(-35.616 -318.18)" fill="#273232"/>
                <path id="Path_1576" data-name="Path 1576" d="M45.23,276.182c1.454,3.91.59,7.244.014,10.53-.384,2.185-1.1,4.311-1.691,6.455-1,3.636-1.715,4.26-5.378,4.442a25.722,25.722,0,0,1-3.258-.219v-17.9l10.313-3.306" transform="translate(-23.026 -181.539)" fill="#273232"/>
                <path id="Path_1577" data-name="Path 1577" d="M42.727,455.2c2.15-5.244,4.843-6.235,11.576-4.013-3.845,5.848-4.623,5.261-11.576,4.013" transform="translate(-28.158 -295.792)" fill="#273232"/>
                <path id="Path_1578" data-name="Path 1578" d="M43.036,506.552a21.608,21.608,0,0,1,4.133,13.709,47.65,47.65,0,0,1-.381,5.09c-.449,3.573-1.626,4.435-6.04,4.171a26.532,26.532,0,0,1,.707-3.649,14.654,14.654,0,0,0-.528-10.746c-1.578-3.67-.038-5.885,2.109-8.574" transform="translate(-26.55 -332.897)" fill="#273232"/>
                <path id="Path_1579" data-name="Path 1579" d="M21.077,481.237c2.583-6.795,5.392-8.046,11.943-6.767-1.434,2.181-2.754,4.195-4.016,6.118l-7.926.649" transform="translate(-13.933 -311.526)" fill="#273232"/>
                <path id="Path_1580" data-name="Path 1580" d="M35,254.416c-2.288.748-4.486,1.519-6.719,2.188-4.64,1.4-4.222,1.454-6.993-2.7,4.877-6.043,8.914-6.582,13.712.511" transform="translate(-14.071 -163.834)" fill="#273232"/>
                <path id="Path_1581" data-name="Path 1581" d="M26.933,532.492c2.188,3.982,1.612,7.563-.1,11.74-1.4-1.32-2.538-2.4-3.69-3.477,1.118-2.843,1.282-5.8,3.786-8.263" transform="translate(-15.293 -349.94)" fill="#273232"/>
                <path id="Path_1582" data-name="Path 1582" d="M21.838,501.1c-1.856,5.008-1.856,5.008-8.485,6.208-.171-3.708,2.606-5.817,8.485-6.208" transform="translate(-8.853 -329.316)" fill="#273232"/>
                <path id="Path_1583" data-name="Path 1583" d="M17.149,523.432c.12,3.032-1.276,5.385-2.72,8.379-2.891-5.892-2.816-6.1,2.72-8.379" transform="translate(-8.324 -343.988)" fill="#273232"/>
                <path id="Path_1584" data-name="Path 1584" d="M8.9,292.083c.8,5.018.974,9.617-.953,14.076-.83,1.924-3.279,2.082-4.751.154A16.6,16.6,0,0,1,.6,301.1c-.851-2.826-.2-4.1,2.325-5.872a17.823,17.823,0,0,1,1.955-1.3c1.142-.586,2.332-1.077,4.02-1.841" transform="translate(-0.248 -191.987)" fill="#273232"/>
                <path id="Path_1585" data-name="Path 1585" d="M9.8,271.342c.614.967,1.379,1.629,1.365,2.27-.024,1.074-.755,1.338-4.524,2.147,1.208-1.687,2.013-2.816,3.159-4.418" transform="translate(-4.446 -178.36)" fill="#273232"/>
              </g>
            </g>
          </g>
        </g>
        <path id="Path_1588" data-name="Path 1588" d="M575.151,435.134a69.059,69.059,0,1,1,26.958-5.443A68.844,68.844,0,0,1,575.151,435.134Z" transform="translate(-332.385 -194.885)" fill="none" stroke="#273232" stroke-miterlimit="10" stroke-width="2"/>
        <path id="Path_1589" data-name="Path 1589" d="M580.362,304.562a66.334,66.334,0,1,0,25.9,5.227A66.064,66.064,0,0,0,580.362,304.562Z" transform="translate(-337.595 -200.102)" fill="none" stroke="#273232" stroke-miterlimit="10" stroke-width="2"/>
      </g>
    </g>
  </g>
</svg>
