<svg id="Layer_1" data-name="Layer 1" xmlns="http://www.w3.org/2000/svg" viewBox="0 0 400 400"><defs><style>.cls-1{fill:#e4d3d0;}.cls-2{fill:#574947;}</style></defs><circle class="cls-1" cx="200" cy="200" r="146.22"/><path class="cls-2" d="M234.39,172.56c1.06-1.06,2.19-2.06,3.16-3.2A282,282,0,0,1,263.7,142.3c1.2-1.07,2.28-2.37,4.47-2.93a14.6,14.6,0,0,1-.89,2.88c-2.27,3.94-4.47,7.93-7,11.73-5.4,8.17-10.93,16.25-16.5,24.31-1.63,2.36-3.57,4.52-5.41,6.82,1.13,1,1.9.06,2.62-.31a67.15,67.15,0,0,1,16.21-6.07c1.54-.36,3.14-.87,5.12-.16-1.71,2.87-4.44,4.28-6.65,6.19a80.84,80.84,0,0,1-7.24,5.52c-2.5,1.7-5.11,3.26-7.76,4.75s-5.35,2.84-8.07,4.18-5.49,2.57-8.32,3.89a19.43,19.43,0,0,0-.7,2.8c-2,20.33-3.73,40.67-2.85,61.13,0,.83,0,1.66.1,2.48.18,1.68.27,1.73,2.84,1.94,1-1,.65-2.29.81-3.48.6-4.36,1.12-8.74,1.85-13.08.57-3.46,2.38-6.45,4.1-9.43.18-.31.63-.45.92-.64,1.19.47.88,1.27.63,2.08A69.49,69.49,0,0,0,229.22,269c0,.82.11,1.64.16,2.38,2.62,1.49,5.52,2.14,10.6,2.38.63-.88,1.36-1.86,2.06-2.86a25.32,25.32,0,0,1,5.92-5.72,9.88,9.88,0,0,1,7.89-1.54,3.21,3.21,0,0,1,2.62,4.61,15.4,15.4,0,0,1-2.92,3.93c-1.7,1.77-3.59,3.37-5.43,5.07,2,9.14,4,18,6,26.87,3.38,14.92,6.83,29.82,10.23,44.73,1.15,5.08.17,7.46-4.44,9.87a48.34,48.34,0,0,1-7.65,3.08,138.91,138.91,0,0,1-39.4,6.67c-8.41.21-16.83.22-25.23,0a95.85,95.85,0,0,1-12.71-1.54c-9.52-1.55-19-3.11-28.49-5A89.77,89.77,0,0,1,137,358.37a13.85,13.85,0,0,1-5.5-3.58,6.54,6.54,0,0,1-1.85-6.79c1.46-5.31,2.74-10.68,4.2-16,4.06-14.75,8.36-29.43,13.4-43.89,1.45-4.16,2.76-8.36,4.16-12.62-.81-1.41-2.39-1.62-3.76-2.22a35.66,35.66,0,0,1-4.1-1.93c-2.84-1.7-2.48-5.63-.14-7.37a7.59,7.59,0,0,1,7.87-.74,82.15,82.15,0,0,1,8.74,4.64,37.94,37.94,0,0,1,3.82,2.84c3-.57,6.16-.13,9.28-1.39a33,33,0,0,0,0-3.73A198.83,198.83,0,0,0,168.6,240a103.84,103.84,0,0,0-7.87-20.84c-1-2-2-3.92-2.93-5.94a3.58,3.58,0,0,1,.18-2.82,14.8,14.8,0,0,1,1.8,2c3.51,5.78,7.15,11.49,10.37,17.42a40.61,40.61,0,0,1,3.6,9.65c2.08,8.42,3.85,16.93,5.75,25.4.3,1.34.64,2.67,1,4.3l3.52.18c.26-.66.55-1,.53-1.4-.25-3.85-.54-7.7-.83-11.55-.46-6.19-.9-12.38-1.41-18.57-.77-9.34-1.6-18.68-2.39-28-.32-3.71-.45-7.44-.93-11.13-.88-6.83-1.85-13.65-3-20.45-.83-5-2.28-10-2.83-15-.68-6.32-9.39-10.41-15.13-7.75a39.27,39.27,0,0,0-10,6.51A51.65,51.65,0,0,0,139,172.64c-1.33,2.09-2.64,4.2-4,6.26a10.42,10.42,0,0,1-1.94,1.52,12.93,12.93,0,0,1,.43-2.23c1.84-4.16,3.68-8.32,5.59-12.45a47.31,47.31,0,0,1,9.52-13.44c4.48-4.5,9.74-7.65,16.14-8.59a6.3,6.3,0,0,0,1.21-.45c-.19-2.2-1.41-3.89-2.54-5.59-.93-1.4-2.53-1.58-4-1.73-3.1-.32-6,.57-8.87,1.61-5.85,2.14-10.49,6-14.68,10.47a122.85,122.85,0,0,0-12.54,16.44c-.54.82-.77,2.17-2.58,1.89a11.76,11.76,0,0,1,.49-2.32c2.53-5.51,4.89-11.11,7.76-16.44a57.6,57.6,0,0,1,6.7-9.4c4.83-5.78,10.67-10,18.64-10.64-.16-2.46-1.9-3.74-3.23-5.16-1.05-1.12-2.64-.76-4-.52-7.69,1.4-14.51,4.39-19.32,10.89-4.69,6.33-9,12.86-11.49,20.47a12.73,12.73,0,0,1-1.16,1.91c-.2-1.08-.45-1.56-.34-1.94,1.25-4.37,2.43-8.77,3.88-13.08a46.43,46.43,0,0,1,6.08-11.71c4.57-6.53,10.39-11.34,18.64-13.55-.88-.86-1.42-1.8-2.18-2a7.7,7.7,0,0,0-4-.48,33.16,33.16,0,0,0-6.95,2.57,29.55,29.55,0,0,0-5.84,3.89c-6.29,5.39-12.32,11-17.15,17.86-.67.95-1.07,2.27-2.82,2.56a5.16,5.16,0,0,1,0-1.9c2.5-5.22,5-10.44,8.84-14.89a73.5,73.5,0,0,1,17.75-15.37c.68-.4,1.3-.9,2.07-1.44a8.76,8.76,0,0,0-3.43-3.15c-1.13-.76-2.36-.43-3.57,0A30.63,30.63,0,0,0,114.44,110a54,54,0,0,0-7.81,9.62,14.9,14.9,0,0,1-1.48,1.81c-1.19-.32-1-1.07-.78-1.69a28.68,28.68,0,0,1,4.78-9.57c3.29-4.09,6.73-8.06,11.55-10.48a8.21,8.21,0,0,0,1.21-1,8,8,0,0,0-2.08-1.13,10.18,10.18,0,0,0-6.4,1,26.43,26.43,0,0,0-8.23,6.15c-.78.9-1.62,1.77-2.66,2.9.2-3.65,1.73-5.66,8.4-11.32a5.55,5.55,0,0,0-1.88-.47,10.47,10.47,0,0,0-5.37,2.92c-.9.81-1.74,1.69-3.16,3.06.08-1.12,0-1.67.17-1.94.76-1,1.67-1.83,2.46-2.78s1.25-1.74,2.19-3c9-.61,18.25.18,26.62,5.2a97.86,97.86,0,0,1,10.83,7.59,116.25,116.25,0,0,1,20.51,20.36,47.26,47.26,0,0,1,4.61,7.33c5.18,10.26,9.24,20.9,11.19,32.31,1.6,9.37,3.9,18.63,4.9,28.1.35,3.29.64,6.59.92,9.89Q186,217,187,229.15q1.55,18.56,3.08,37.11c.08.93.28,1.85.45,2.89,2.71.66,5.27.32,8.07.26a33.3,33.3,0,0,0,.31-3.42c-.19-9.93-.53-19.86-.6-29.79-.11-13.38-.18-26.77,0-40.15.26-15.72.77-31.45,1.32-47.17.2-5.91.8-11.81,1.24-18.08a17.49,17.49,0,0,0-2.45-1.55c-5-2.22-10.11-4.36-15.17-6.55a21.84,21.84,0,0,1-2.06-1.2c1.17-1.49,2.5-1.06,3.61-.87a55,55,0,0,1,13.87,4c.87.4,1.76.78,2.63,1.16,1.23-2.13,1.24-2.29.17-3.52a4.61,4.61,0,0,0-.6-.57c-6.66-5.21-13.5-10.08-22.16-11.39a9.52,9.52,0,0,1-1.42-.44c-.3-1.09.26-1.56,1-1.6a16.29,16.29,0,0,1,3.69.17,53.07,53.07,0,0,1,19.15,7.42c.67.42,1.39.79,2.07,1.17,1.73-2.29,1.19-4.27-.47-6.06-4.49-4.85-9.57-8.73-16.32-9.86-4.32-.72-8.62-1.48-13-2.24.16-.17.38-.61.64-.64,4.92-.59,9.86-1.08,14.78-1.7a17.19,17.19,0,0,1,9.6,1.88,17.91,17.91,0,0,1,4.37,3.69,37.89,37.89,0,0,1,2.79,3.46c1.38-2.76,1.55-5.44,1.87-8.06.06-.57-.47-1.26-.85-1.82a33.51,33.51,0,0,0-17-13.21C180.83,79.23,171.84,79,162.69,80a119.1,119.1,0,0,0-25,5.46,10.69,10.69,0,0,1,1.8-1.24c13.49-5.74,27.23-10.62,42.06-11.33a47.34,47.34,0,0,1,9.06.46c6.44.93,11,4.82,14.56,10,1.16,1.67,2.22,3.41,3.41,5.26,1.48-2.5,3.21-8.47,4.12-13.92a12.55,12.55,0,0,0-4.31-4.26c-9-6.23-18.87-10.29-30-10.64a183.16,183.16,0,0,0-18.6.1c-4.07.28-8.07,1.61-12.1,2.49a3.8,3.8,0,0,1-2.16.13,9,9,0,0,1,1.25-1.08,34.16,34.16,0,0,1,9.93-4,52.66,52.66,0,0,0,5.54-1.65,74.45,74.45,0,0,1,31.32-4.1,25.54,25.54,0,0,1,14.78,5.72c2.44,2,4.82,4.09,7.36,6.26,1.76-1.48,2.05-3.62,3-5.38s1.64-3.47,2.5-5.32A26.83,26.83,0,0,0,201,41.54c-2.61-.24-5.23-.41-7.84-.65-5.4-.48-10.72.45-16.06,1a83.42,83.42,0,0,1-10.38.81,4.77,4.77,0,0,1,1.38-.87c7.25-1.61,14.47-3.49,21.8-4.67a62.38,62.38,0,0,1,20.59-.33,26.44,26.44,0,0,1,9.92,3.91c1.47,1,3,1.85,4.69,2.89a76.75,76.75,0,0,0,5.26-9.08,15.32,15.32,0,0,0-9.55-6.22,33.19,33.19,0,0,0-9-1c-6.05.21-12.1.79-18.13,1.31a40.78,40.78,0,0,1-7.23.23c-.1-1.1.54-1.15,1.05-1.22,8.2-1.08,16.38-2.34,24.6-3.13a46.19,46.19,0,0,1,22.65,3.21l2.52-3c-3.7-3.89-9-3-13.2-5.13,1.16-1.47,2.65-1.06,3.93-1.19a24.76,24.76,0,0,1,4.13,0,34.06,34.06,0,0,1,4.49.59c1.31.25,2.82,1.32,3.84.93,1.81-.68,2.19,1.39,3.66,1.27a5.23,5.23,0,0,1,4,1.71,8.31,8.31,0,0,1-2.84.34c-.82.1-1.65.2-2.45.36-2.36.48-4,1.66-4.36,4.54a21.15,21.15,0,0,0,2.33-.14c6.19-1.18,12.06-.51,17.47,3,3,1.95,6.08,3.78,9.1,5.71a3.38,3.38,0,0,1,1.42,2c-3-.93-5.93-1.9-8.92-2.78a40.76,40.76,0,0,0-13.84-2,65.27,65.27,0,0,0-9.35,1.5c-3.5.7-5.08,2.85-5.71,6.37a21.37,21.37,0,0,0,7.39-.4,37.38,37.38,0,0,1,16,.48,20.5,20.5,0,0,1,8.54,4,96.57,96.57,0,0,1,8.93,8c3.3,3.49,6.22,7.34,9.17,10.88-.46,1.79-1.36,1.64-2.26,1-3.73-2.61-7.52-5.14-11.11-7.93-7.77-6-16.74-8.17-26.31-8.28a23.71,23.71,0,0,0-6.85,1.3c-2.1.62-4,1.79-6.13,2.46-3.35,1.06-4.6,3.55-5.26,7.17a19.66,19.66,0,0,0,2.5-.77C231.47,57,237.7,57,243.88,57.58c3.75.33,7,2.46,10.1,4.52,7.11,4.74,14.22,9.49,21.17,14.46a123.45,123.45,0,0,1,9.43,8,12.61,12.61,0,0,1,1.55,2.63,24.34,24.34,0,0,1-3.25-.92c-3.11-1.48-6.16-3.08-9.27-4.57-7.2-3.45-14.45-6.81-21.63-10.31-6.43-3.14-13-3-19.76-1.34a25.72,25.72,0,0,0-14.15,8.75,5.33,5.33,0,0,0-1.25,2.07c-.65,3.24-1.15,6.51-1.67,9.78,0,.17.27.4.59.86.82-.7,1.64-1.37,2.43-2.08a53.9,53.9,0,0,1,16.34-10.33,11.12,11.12,0,0,1,8,0c7,2.33,13.3,6,19.81,9.3a160.13,160.13,0,0,1,16.54,9.34c1.59,1.07,3.42,1.77,5.09,2.73s3.75,1.75,5,4.1A5.52,5.52,0,0,1,287,105a25.94,25.94,0,0,1-3.95-1.17c-8.24-3.13-16.62-5.95-24.65-9.55-7.24-3.24-14.63-3.58-22.25-3a11.2,11.2,0,0,0-3.59.93,116.78,116.78,0,0,0-15.9,8.8c-.81.52-1.47,1.26-2.24,1.83-2.58,1.88-3.35,4.51-3.35,7.72,1.72.15,2.6-1.07,3.63-1.79a49.86,49.86,0,0,1,12.8-6.62,16.17,16.17,0,0,1,8.55-.7c3.76.76,7.45,1.89,11.17,2.9.17.05.25.43.46.81-3.35,0-6.62.12-9.88,0a18.34,18.34,0,0,0-11.06,2.72q-8,5.1-16,10.22c-1,.62-1.86,1.3-.82,2.81,5.82-2.06,11.52-4.93,18.69-4.52-.75.94-1,1.56-1.5,1.83-1.2.67-2.51,1.12-3.73,1.77-4.61,2.48-9.19,5-13.8,7.49a3.62,3.62,0,0,0-2,2.92A273.72,273.72,0,0,0,204,183.59c.16,5.38.23,10.76.4,16.14q.81,25,1.67,50.05c.2,5.38.58,10.75.93,16.12.08,1.35.35,2.69.55,4.16,1.14.16,2.07.33,3,.41s1.64,0,2.75,0a18.19,18.19,0,0,0,.36-2.7c-.1-10.63,0-21.26.9-31.85.39-4.53,1-9.05,1.68-13.55,1.56-9.8,3.13-19.6,4.93-29.35a237.67,237.67,0,0,1,6.58-27.32,125.5,125.5,0,0,1,8.13-20.77c3.54-6.86,7.17-13.67,10.83-20.48a12.86,12.86,0,0,1,3.63-4.87c.3.75.77,1.34.67,1.81-.79,3.63-1.51,7.29-2.61,10.83-3.94,12.64-8.35,25.12-13.5,37.32-.37.88-.58,1.82-.87,2.73l-.33.83ZM258.1,339.85c-4.48,1.42-8.34,2.85-12.32,3.87-12.88,3.31-26,4.27-39.3,4.27-8.28,0-16.49-.92-24.71-1.67-13.72-1.25-27.38-2.74-40.66-6.66a14,14,0,0,0-2.86-.22c-.11,1.75-1.38,3-.63,4.6a2.78,2.78,0,0,0,.71.48c7.32,1.92,14.47,4.39,21.93,5.81,13.41,2.56,26.88,4.53,40.56,4.43,4.68,0,9.35-.6,14-.67a123.76,123.76,0,0,0,23.75-2.81c4.8-1,9.76-1.72,14-4.56.83-.54,2.12-.4,3.19-.54a4.35,4.35,0,0,0,3.47-1.7ZM153.58,287.51c5.3.66,9.92,1.32,14.56,1.78,7.41.72,14.83,1.33,22.25,1.93,16,1.32,32,1.61,47.82-1.19,2.36-.42,4.94-.26,7.17-1.75a14.48,14.48,0,0,0-1.5-6.36,352.51,352.51,0,0,1-87.39-3C155.59,281.54,154.69,284.24,153.58,287.51Zm-14.29,49.31c1.51.5,2.78,1,4.08,1.34A180.23,180.23,0,0,0,163.62,342a342.19,342.19,0,0,0,36.14,3.57,171.16,171.16,0,0,0,32.54-1.69,103.6,103.6,0,0,0,21.25-5c1.26-.47,2.46-1.08,3.85-1.7-.52-2.07-.46-4-1.82-5.77-1.87.54-3.67,1.19-5.52,1.56-5.26,1.06-10.55,1.94-15.81,3a163.38,163.38,0,0,1-40.69,2.78c-7.41-.39-14.82-1-22.24-1.48a165,165,0,0,1-28.14-4.09,16.17,16.17,0,0,0-3-.17C139.88,334.32,139.61,335.47,139.29,336.82Zm111.15-28.54c-1.83.42-3,.75-4.22,1-4.21.72-8.39,1.69-12.63,2-8.38.68-16.78,1.19-25.18,1.4-6.61.16-13.23-.33-19.84-.38a159.85,159.85,0,0,1-36-4.66c-1.56-.38-3.12-1.05-4.94-.71-1,2.28-1.92,4.46-2,6.95a14.18,14.18,0,0,0,1.5.38c9.69,1.31,19.37,2.69,29.08,3.87,6.43.78,12.88,1.43,19.33,1.85,15.64,1,31.11-.59,46.46-3.51,3.19-.61,6.51-1,9.77-2.72C251.36,312,250.94,310.28,250.44,308.28Zm-97.34-19c-.83,2.62-2.07,4.89-1.94,7.86,3.21.6,6.3,1.19,9.39,1.75a155.12,155.12,0,0,0,32,2.82q11.35-.33,22.72-.69a247.1,247.1,0,0,0,28.36-2.67c1.32-.19,2.76-.23,4-1.5-.41-1.59-.84-3.28-1.33-5.17-1.39.16-2.46.23-3.51.41-11,1.89-22.09,3.17-33.29,2.81-5.51-.18-11-.39-16.51-.82-7.41-.59-14.81-1.29-22.19-2.16C165.11,291.19,159.42,290.18,153.1,289.23Zm100.31,31c-.44-1.21-.8-2.2-1.13-3.09l-16.08,2.94a164.45,164.45,0,0,1-29.61,2.6c-6.88,0-13.76-.75-20.63-1.26-10.17-.75-20.26-2.22-30.31-3.91-3.51-.59-7-1.27-10.55-1.93A15.75,15.75,0,0,0,143,323.3a243.86,243.86,0,0,0,65.87,4.95C222.19,327.46,247.11,323.16,253.41,320.24Zm-111.23,5.17c-.75,2.11-1.36,3.74-1.12,5.78,6.28,1.16,12.5,2.27,18.78,2.86,7.95.76,15.91,1.4,23.87,2,14.18,1.11,28.35,1.41,42.41-1.2,8.12-1.5,16.19-3.22,24.28-4.88a10.66,10.66,0,0,0,4.67-1.81,10.53,10.53,0,0,0-1.29-4.9c-4.45,1.08-8.67,2.33-13,3.09-6.9,1.23-13.85,2.29-20.81,3.14-6.56.8-13.15,1.57-19.74,1.78a206.71,206.71,0,0,1-54.52-5.4C144.69,325.64,143.6,325.6,142.18,325.41Zm6.18-20.72c1.66.39,3,.77,4.3,1a283.07,283.07,0,0,0,31.14,3.93,313.25,313.25,0,0,0,45.44-.65c4.39-.39,8.79-.83,13.14-1.47,2.39-.36,4.93-.46,7.34-2-.49-1.87-1-3.66-1.47-5.63-1.94.36-3.52.76-5.13.93-7.81.82-15.62,1.62-23.44,2.35-3.7.35-7.42.65-11.13.75q-9.93.24-19.85.2c-4,0-8-.06-12-.42a136.44,136.44,0,0,1-24-4.35,11,11,0,0,0-2.82,0Zm111.68,44c-2.45,1.09-4.26,2.22-6.23,2.69-7.21,1.73-14.37,3.73-21.82,4.25-9.61.67-19.22,1.8-28.84,1.92a168.21,168.21,0,0,1-23.05-1.64,191.12,191.12,0,0,1-40.59-9.21,17.42,17.42,0,0,0-2.73-.49c-.61,1.67-1.42,3-.69,5,3.16,1.15,6.45,2.53,9.86,3.55a145.51,145.51,0,0,0,32.81,6c11.82.74,23.62,2,35.47.7l21.34-2.32c7.17-.8,13.91-3.27,20.75-5.35a49,49,0,0,0,4.65-2C260.63,350.64,260.38,349.79,260,348.68Zm-5.54-81.16-.5-.76a21.51,21.51,0,0,0-3,.86,15.11,15.11,0,0,0-6.58,5.91c-.17.26-.12,1,0,1.07a4,4,0,0,0,1.45.21c.1,0,.22-.14.33-.23,2.35-1.85,4.71-3.69,7-5.58A9.86,9.86,0,0,0,254.5,267.52Zm-97.12,5a14.58,14.58,0,0,0-9.09-5.52c-.63-.12-1.4.42-2.19.68.33.48.43.78.63.9,2.38,1.35,4.73,2.77,7.19,4C154.63,272.91,155.67,272.58,157.38,272.55Z"/></svg>