<svg xmlns="http://www.w3.org/2000/svg" xmlns:xlink="http://www.w3.org/1999/xlink" width="702" height="616" viewBox="0 0 702 616"><defs><clipPath id="a"><rect width="685.481" height="522.72" fill="none"/></clipPath></defs><g transform="translate(-142 -348)"><circle cx="308" cy="308" r="308" transform="translate(228 348)" fill="#ede3d2"/><g transform="translate(142 380.28)"><g clip-path="url(#a)"><path d="M546.113,488.9a99.024,99.024,0,0,1-1.275,13.01c-.5,3.573-1.039,7.144-1.384,10.733-.48,4.969-.611,9.943-1.886,14.851-.753,2.9-.541,6.067-.6,9.118a9.963,9.963,0,0,0,.72,3.208c.622,1.856,2.458,3.213,3.635,2.758a3.77,3.77,0,0,0,2.39-3.158c.752-5.221,1.723-10.438,2.025-15.691.434-7.527,2.179-14.838,3.132-22.274.881-6.87,2.362-13.661,3.508-20.5.367-2.188.527-4.411.752-6.623a5,5,0,0,1,2.677-3.976,23.738,23.738,0,0,1,3.8-1.672,36.742,36.742,0,0,1,4.773-1.416c7.372-1.526,13.181-5.679,18.427-10.806,1.986-1.94,3.94-3.914,5.939-5.842,1.2-1.157,2.5-2.211,3.68-3.386,4.724-4.7,10.373-4.817,16.271-3.16a41.3,41.3,0,0,1,6.942,2.817c6.168,3.029,12.555,4.4,19.391,3.01a5.167,5.167,0,0,1,.823-.08,2.5,2.5,0,0,1,2.181,2.131c.26,11.272-1.558,22.125-6.664,32.283a11.789,11.789,0,0,1-2.348,3.413c-4.3,3.951-8.622,7.935-14.216,10.011-4.419,1.639-8.92,3.057-13.392,4.55-8.419,2.81-16.924,5.387-25.238,8.477-6.036,2.243-11.166,6.15-15.94,10.46a1.64,1.64,0,0,0-.53.633,7.084,7.084,0,0,0-.448,2.307c.021.315.814.816,1.267.827,3.322.088,6.709.479,9.956-.013a63.177,63.177,0,0,1,11.624-.555q33.333,1.086,66.666,2.2c2.223.073,4.445.189,6.666.2,3.36.014,4.28-.911,4.5-4.485.169-2.773.21-5.556.415-8.326a4.719,4.719,0,0,1,3.407-4.333,56.452,56.452,0,0,1,8.876-2.023c2.107-.292,3.764,1.04,4.658,2.906a17.285,17.285,0,0,1,1.837,7.215c.063,3.605.069,7.206,1.17,10.727a16.518,16.518,0,0,1,.269,4.144c.2,4.721.456,9.441.55,14.164.087,4.416.7,8.918-1.5,13.083.041,3.319-.4,6.728.2,9.941,2.7,14.381,1.361,28.793,1.032,43.117a267.459,267.459,0,0,1-21.613,24.536c-9.091,8.98-18.249,17.893-27.268,26.942-2.542,2.55-4.722,5.463-7.029,8.242a7.072,7.072,0,0,1-4.916,2.8c-3.037.287-6.067.821-9.108.887q-16.663.367-33.331.469c-8.891.05-17.789.1-26.675-.176-25-.767-50-1.7-75-2.568-1.111-.039-2.227-.029-3.333-.127-21.9-1.938-43.881-1.464-65.822-1.9-14.981-.294-30.006-.395-44.988.756a72.793,72.793,0,0,1-7.5.039c-8.613-.229-17.225-.507-25.837-.766a145.258,145.258,0,0,0-16.653.387c-5.247.445-10.549.243-15.826.316-1.945.028-3.964-.3-5.821.109-5.792,1.284-11.619.75-17.441.736-5-.012-10-.389-14.944.815a15.9,15.9,0,0,1-4.151.23q-13.335-.376-26.667-.84a6.461,6.461,0,0,1-2.444-.429,3.469,3.469,0,0,1-1.784-1.581,20.327,20.327,0,0,1-1.432-5.572c-.227-3.879-.061-7.779-.124-11.67-.036-2.214-.144-4.432-.336-6.639a3.288,3.288,0,0,0-2.648-2.84,53.869,53.869,0,0,0-5.807-.458c-12.227-.07-24.455-.084-36.682-.11-8.613-.019-17.228.025-25.84-.06-6.389-.063-12.749-.118-19.147.445-6.067.533-12.217.218-18.328.129-10-.147-20-.416-30.007-.627a17.233,17.233,0,0,0-3.329.023c-6.916,1.226-13.861.56-20.8.382q-26.256-.674-52.51-1.441c-2.211-.064-4.424-.271-6.619-.556a2.643,2.643,0,0,1-2.216-2.186,4.219,4.219,0,0,1-.2-.805c-.43-10.269-1.152-20.538-.3-30.815a15.862,15.862,0,0,1,.965-4.014,4.285,4.285,0,0,1,2.846-2.8,66.236,66.236,0,0,0,7.973-2.515,26.191,26.191,0,0,0-.506-9.314c-2.416-1-4.779-1.8-6.954-2.957a4.68,4.68,0,0,1-1.8-2.592,9.893,9.893,0,0,1-.2-3.3c.165-5.279.418-10.556.556-15.836.121-4.7,1.794-8.044,6.934-8.842,2.258-.351,3.131-2.074,3.282-4.215.078-1.109.173-2.218.212-3.329.227-6.39.43-12.78.661-19.171.081-2.221.138-4.448.343-6.66.291-3.14,2.233-5.292,5.327-5.369,4.435-.112,8.881.159,13.321.271a7.2,7.2,0,0,1,.829.083c4.089.564,6.007,2.562,6.132,6.527.061,1.943-.041,3.891-.07,5.837-.058,3.892-.157,7.783-.155,11.674a37.063,37.063,0,0,0,.389,4.121,1.781,1.781,0,0,0,1.947,1.1,6.942,6.942,0,0,0,1.458-.729q17.031-14.693,34.021-29.436a11.494,11.494,0,0,0,1.239-1.662c-.048-3.24-.174-6.828-.135-10.413.04-3.613.2-7.226.386-10.835.244-4.7,2.233-22.6,3.47-27.243a11.518,11.518,0,0,1,2-4.5c1.388-1.721,4.364-2.228,5.918-.667a13.937,13.937,0,0,1,2.862,4.007,18.23,18.23,0,0,1,1.14,4.848c.783,5.476,1.883,10.946,2.125,16.452.525,11.93,2.093,23.738,3.293,35.594a4.6,4.6,0,0,0,.788-.1c.239-3.586.526-7.169.641-10.76.187-5.83.609-11.669-.22-17.489a9.646,9.646,0,0,1-.137-1.661c.518-16.109-.5-32.245.966-48.34a33.21,33.21,0,0,1,3.7-12.7,5.9,5.9,0,0,1,3.091-2.632,3.814,3.814,0,0,1,4.54.905,12.873,12.873,0,0,1,3.064,6.737c.56,5.239,1.006,10.491,1.473,15.74.939,10.527.848,21.089,1.163,31.64.171,5.774.906,11.532,1.391,17.35,1.329-.617.98-1.8,1.019-2.743.408-10,.747-20,1.146-30,.111-2.776.484-5.546.513-8.322.043-4.015,1.906-7.481,3.092-11.153a6.253,6.253,0,0,1,.873-1.416,6.189,6.189,0,0,1,10.01-.508,9.353,9.353,0,0,1,2.289,5.258c.378,3.868.928,7.728,1.1,11.6.271,6.1.1,12.219.453,18.311.763,13.065-.4,26.1-.255,39.157a17.707,17.707,0,0,0,.507,3.219c.041.205.391.533.531.5.5-.112,1.286-.237,1.407-.565a13.232,13.232,0,0,0,1.018-3.932c.262-6.665.464-13.335.534-20,.056-5.28.048-10.571-.216-15.842-.3-5.9.863-11.614,1.648-17.388a16.929,16.929,0,0,1,2.891-6.846,8.892,8.892,0,0,1,1.766-1.743,3.533,3.533,0,0,1,5.129.659c2.731,3.677,3.956,7.917,4.635,12.35a130.832,130.832,0,0,1,1.229,24.111,143.144,143.144,0,0,0,.6,18.31c.252,2.636,1.1,3.753,3.4,3.865,4.716.23,9.439.353,14.159.423A3.127,3.127,0,0,0,183.389,516c-.02-4.444.063-8.9-.273-13.329-.906-11.909-1.784-23.8-1.212-35.768.344-7.214.258-14.448.322-21.675a58.717,58.717,0,0,0-.179-6.664c-1.2-11.39-.307-22.766.058-34.149a20.591,20.591,0,0,1,2.432-8.748,12.7,12.7,0,0,1,3.24-3.737,5.377,5.377,0,0,1,7.454.908,34.187,34.187,0,0,1,7.314,20.008c.085,3.054.056,6.121-.117,9.171-.724,12.785-.069,25.553.5,38.315.282,6.372,1.1,12.719,1.621,19.081.205,2.488.291,4.986.4,7.481.368,8.043.6,16.094,1.156,24.124.167,2.433,1.148,4.818,1.876,7.19.1.31.928.589,1.384.542a2.207,2.207,0,0,0,1.323-.814,2.624,2.624,0,0,0,.577-1.507c.017-4.994.315-10.017-.115-14.976-1.059-12.175-2.019-24.358-2.393-36.566-.2-6.373.26-12.778.654-19.155.738-11.935.146-23.856.01-35.787-.157-13.6-.758-27.233.753-40.811.245-2.2.618-4.4,1-6.582.878-5.032,3.98-8.448,8.165-11.033a7.35,7.35,0,0,1,11,3.657,52.011,52.011,0,0,1,3.277,18.771c-.378,15.006-.887,30.01-1.17,45.017-.142,7.5.155,15,.155,22.5q0,16.676-.151,33.351c-.068,7.783-.387,15.566-.337,23.347.04,6.379.449,12.757.731,19.133a6.085,6.085,0,0,0,.488,1.572,2.856,2.856,0,0,0,2.826,1.3c.727-.209,1.788-.677,1.936-1.232a29.969,29.969,0,0,0,1.384-7.287c.139-16.675.122-33.351.122-50.028,0-3.887-.013-7.782-.225-11.661-.305-5.587,2.217-10.987,1.171-16.563-.988-5.266-.53-10.535-.491-15.8.034-4.722.229-9.453.617-14.158A34.066,34.066,0,0,1,242.2,397a7.784,7.784,0,0,1,1.194-2.174c2.576-3.707,7.347-3.647,9.65.152a25.756,25.756,0,0,1,3.414,8.451c.744,3.817,1.758,7.588,2.332,11.427a47.22,47.22,0,0,1,.366,8.3c-.356,12.5-.868,25-1.211,37.509-.229,8.328-.529,16.652.4,24.984.395,3.561-.08,7.216-.105,10.828-.055,7.771-.574,15.56.828,23.282.348,1.915,1.332,3.036,3.218,3.231,2.483.257,4.98.429,7.475.528,5.832.232,11.668.361,17.5.609,2.493.106,4.983.362,7.466.636,1.5.165,2.315,1.109,2.546,2.81.149,1.1.161,2.215.262,3.321.077.854.365,1.762,1.326,1.727a3.5,3.5,0,0,0,2.179-.924,8.975,8.975,0,0,0,2.6-7.482c-.4-6.076-.062-12.2.044-18.309a5.149,5.149,0,0,1,2.674-4.823,2.619,2.619,0,0,0,.887-3c-.538-2.425-1.5-4.77-1.05-7.349a3.639,3.639,0,0,1,2.348-3.149,46.124,46.124,0,0,1,6.4-1.833,38.8,38.8,0,0,0,19.777-10.025,48.087,48.087,0,0,1,5.315-4.005,19.99,19.99,0,0,1,10.907-3.722c4.984-.137,9.986.216,14.974.484a3.306,3.306,0,0,1,3.105,3.317c.018.277.044.556.035.832-.282,9.447-.584,18.893-.84,28.341a4.109,4.109,0,0,1-3.205,4.3c-6.05,1.527-11.121,4.853-16.237,8.241a59.388,59.388,0,0,1-14.963,7.227c-2.493.784-4.846,1.008-7.219-.407a6.612,6.612,0,0,0-2.3-.407c-1.528,1.991-.488,3.855.075,5.629a2.666,2.666,0,0,0,1.812,1.481c4.42.645,8.715.8,13.01-1.279a104.043,104.043,0,0,0,13.158-7.122c2.531-1.707,5.159-3.28,7.8-4.815a23.547,23.547,0,0,1,3.794-1.689A3.484,3.484,0,0,1,368.868,515c.208,1.651.282,3.319.4,4.981.458,6.358.887,12.718,1.376,19.074a3.7,3.7,0,0,0,4.073,3.315,2.79,2.79,0,0,0,2.762-2.565,55.1,55.1,0,0,0-.546-5.772,84.942,84.942,0,0,1-1.31-18.261c.2-3.3,2.092-4.859,5.513-4.61a18.659,18.659,0,0,1,10.65,4.3c1.718,1.4,3.259,3.019,4.881,4.537,1.216,1.137,2.368,2.356,3.669,3.385a7.518,7.518,0,0,0,5.382,1.739c7.207-.461,14.429-.7,21.641-1.067a378.073,378.073,0,0,1,39.991-.277,79.636,79.636,0,0,0,14.146-.386,62.821,62.821,0,0,1,9.153-.176c9.171.222,18.339.556,27.511.758a10.274,10.274,0,0,0,3.126-.818.916.916,0,0,0,.026-.773,6.482,6.482,0,0,0-1.7-1.648c-5.187-2.656-10.255-5.647-15.666-7.746-8.12-3.151-14.335-8.636-19.307-15.364-4.125-5.581-7.152-11.966-6.261-19.366A5.412,5.412,0,0,1,479.29,476a1.849,1.849,0,0,1,1.38-.631,3.139,3.139,0,0,1,1.52.609c1.63,1.054,3.169,2.259,4.847,3.226a29.049,29.049,0,0,0,20.862,3.673c4.079-.827,8.285-1.338,12.177-2.716,6.775-2.4,12.578.03,18.264,3,2.661,1.39,4.9,3.58,7.773,5.737M134.941,465.388c-.371,1.6-.86,3.182-1.07,4.8a10.313,10.313,0,0,0,.256,3.259c.076.389.648.68.994,1.016.351-.387.9-.718,1.022-1.167a8.243,8.243,0,0,0-1.367-7.785c.055-2.751.145-5.5.123-8.253,0-.291-.629-.62-1.019-.832-.088-.048-.53.278-.589.491-.832,3.085-.763,6.011,1.65,8.469M531.924,541.64c-.266-2.114-.379-4.009-.779-5.842a2.522,2.522,0,0,0-2.369-2.014,70.344,70.344,0,0,0-9.124-.011,170.371,170.371,0,0,1-18.284.408c-11.081-.117-22.183-.934-33.236.657a22.355,22.355,0,0,1-3.324.1c-12.2-.078-24.4-.2-36.605-.244-10.262-.039-20.524.069-30.785-.024-3.677-.034-6.495,1.106-8.208,4.484-.376.741-.8,1.455-1.2,2.185-1.176,2.167-.336,3.909,2.042,4.149a26.435,26.435,0,0,0,4.142.231c10.269-.6,20.518.23,30.776.319a57.884,57.884,0,0,1,18.705,3.427c5.741,2,8,5.31,7.431,11.3-.13,1.374-.471,2.729-.728,4.09q-.77,4.09-1.555,8.176c-.156.817-.372,1.624-.5,2.445-.34,2.181.824,3.691,3.215,3.862A182.605,182.605,0,0,0,479.8,579.3a3.2,3.2,0,0,0,3.007-3.37c.053-1.932-.1-3.869-.142-5.8-.077-3.322-.208-6.644-.2-9.966.013-5.7,3.538-12.668,12.119-15.138,3.7-1.066,7.484-2.035,11.449-1.729a23.183,23.183,0,0,0,5.81-.085c5.508-.992,11.045-.833,16.589-.846a18.908,18.908,0,0,0,3.5-.725m130.728-3.469a158.119,158.119,0,0,0-23.954-2.288c-6.108.051-12.216.044-18.324.1-4.165.039-8.336.036-12.5.239-13.055.634-26.092.973-39.089-.922a39.863,39.863,0,0,0-5.818-.236,8.673,8.673,0,0,0-2.437.466c-2.487.752-3.28,4.063-2.352,6.271a1.986,1.986,0,0,0,1.195,1.061,46.782,46.782,0,0,0,4.915.745c2.758.284,5.537.393,8.284.755s5.432,1.193,8.175,1.364a30.872,30.872,0,0,1,8.826,2.268c4.931,1.829,6.945,5.165,6.431,10.348-.686,6.908-1.476,13.808-2.218,20.71-.218,2.034.684,3.465,2.446,3.61,1.931.159,3.877.2,5.814.177a2.939,2.939,0,0,0,2.818-2.578c.385-6.081,1.2-12.171-.163-18.24-.925-4.121-.629-8.291-.405-12.446a4.414,4.414,0,0,1,4.37-4.22c4.709-.184,9.428-.136,14.143-.141a2.55,2.55,0,0,1,1.572.447,12.937,12.937,0,0,1,2.127,2.376,3.287,3.287,0,0,1,.315,1.608q.631,11.623,1.238,23.247c.014.276.108.546.138.822a1.692,1.692,0,0,0,2.433,1.327,27.614,27.614,0,0,0,2.609-2.024q10.952-10.241,21.869-20.52c2.43-2.277,4.939-4.472,7.333-6.785a5.057,5.057,0,0,0,1.05-6.121,12.757,12.757,0,0,0-.844-1.419M121.168,601.976c0,.048,0,.1.007.145,1.943.063,3.884.158,5.828.186q27.065.386,54.13.748c1.943.026,3.887-.012,5.83-.043,11.1-.18,22.172-1.272,33.286-.632a17.521,17.521,0,0,0,3.29-.367,3.39,3.39,0,0,0,1.956-2.475c.212-4.929-1.136-6.4-5.331-6.534-3.6-.114-7.215-.1-10.822-.09-3.331.013-6.662.135-9.993.152-11.379.057-22.758.078-34.136.142-1.663.008-3.324.2-4.988.266-3.875.162-7.75.41-11.626.421s-7.77-.22-11.655-.347Q94.9,592.175,52.854,590.8c-2.5-.082-5-.167-7.494-.178a8.192,8.192,0,0,0-2.445.378,2.032,2.032,0,0,0-1.249.963,11.685,11.685,0,0,0,.136,8.09,1.948,1.948,0,0,0,1.183,1.021,19.487,19.487,0,0,0,4.073.674c11.38.292,22.76.7,34.14.723,13.322.022,26.647-.316,39.97-.5M196.732,559.7c0-.041,0-.082,0-.124q16.651-.1,33.3-.2c1.109-.007,2.221-.041,3.328-.125a3.532,3.532,0,0,0,3.193-3.261c.18-1.654.287-3.32.357-4.982.254-6.089,1.646-6.262,6.945-7.418a37.831,37.831,0,0,1,5.8-.38c1.936-.114,3.878-.181,5.807-.369A3.477,3.477,0,0,0,258.138,540a9.429,9.429,0,0,0,.167-1.65c.038-2.412-1.34-3.987-3.493-3.521-4.972,1.075-9.952.613-14.937.464q-17.068-.513-34.134-1.05a48.988,48.988,0,0,1-9.888-1.166,50.777,50.777,0,0,0-9.091-.892c-2.735-.138-4.007,1.021-4.176,3.985-.394,6.927-.636,13.864-.921,20.8a2.67,2.67,0,0,0,2.589,2.66c4.158.078,8.318.055,12.478.071m292.333,5.07a6.12,6.12,0,0,0-.976,1.574,26.464,26.464,0,0,0,.263,9.895c.351,2.08,1.771,3.257,4.074,3.419,2.21.156,4.428.2,6.643.277q22.021.728,44.044,1.442c11.911.382,23.823.8,35.737,1.1,10.869.278,9.188.139,10.563-9.142a37.984,37.984,0,0,0,.187-5.768,2.8,2.8,0,0,0-2.194-2.194,10.217,10.217,0,0,0-3.3.041c-4.073,1.259-8.215.944-12.368.9-9.953-.117-19.928-1.272-29.849.554a12.293,12.293,0,0,1-2.492.021c-16.83-.4-33.7.362-50.335-2.114m-79.354,47.98,0-.156c-8.332-.076-16.664-.218-25-.205-6.107.011-12.213.26-18.32.343-9.427.129-18.876-.794-28.274.794a32.142,32.142,0,0,1-5.825.017c-5.556-.093-11.112-.284-16.667-.263a23.419,23.419,0,0,0-5.694.882,2.583,2.583,0,0,0-1.567,1.715c-.389,2.584.634,4.925,1.911,7.079a2.877,2.877,0,0,0,2.158,1.042q16.66.015,33.322-.135c3.883-.033,7.765-.333,11.647-.313,10.832.056,21.663.461,32.5-.212a84.758,84.758,0,0,1,10.828-.006c10.287.681,20.542-.186,30.808-.429,2.509-.059,3.583-1.025,3.916-3.376a28.722,28.722,0,0,0,.229-3.316,2.219,2.219,0,0,0-1.847-2.374c-1.65-.19-3.306-.384-4.964-.446-6.386-.241-12.774-.431-19.161-.64M158.094,558.083c1.353-4.409,1.164-9.086.606-13.757-.075-.625-.924-1.258-1.555-1.676a3.209,3.209,0,0,0-1.614-.2q-21.619-.2-43.239-.382a30.319,30.319,0,0,0-3.325.029c-5.278.54-10.464-.028-15.726-.64-13.749-1.6-11.777-2.721-11.805,10.774a13.3,13.3,0,0,0,.162,1.654,3.174,3.174,0,0,0,2.591,2.851c3.022.3,6.056.557,9.09.639,9.7.259,19.4.331,29.095.666,9.42.326,18.829.911,28.245,1.328,2.475.109,5.008.329,7.476-1.289m143.2,21.288a27,27,0,0,0,4.125.764q15.377.434,30.757.717a19.6,19.6,0,0,0,4.142-.286c4.4-.864,8.83-.679,13.264-.658,17.181.082,34.359,1.265,51.546.2.828-.051,1.663.034,2.494.02,9.7-.177,19.391-.344,29.084-.555,1.932-.043,3.9-.091,5.826-1.72.534-1.763,1.22-3.852,1.765-5.977.1-.4-.347-.949-.613-1.6a20.761,20.761,0,0,0-2.283-.238c-4.445-.006-8.808,1-13.205,1.261-9.385.551-18.734,1.676-28.166,1.6-8.86-.072-17.693.841-26.587.511-14.955-.554-29.933-.462-44.891-.966a240.216,240.216,0,0,1-24-1.982c-4.43-.6-5.538.636-4.511,4.833.325,1.327.8,2.619,1.251,4.075m-13.964,1.778c1.128-.115,2.782-.22,4.413-.472a3.4,3.4,0,0,0,2.932-3.452c-.128-1.651-.366-3.3-.612-4.934-.493-3.284-1.087-6.554-1.529-9.844-.716-5.325,1.839-9.039,6.075-11.837a15.845,15.845,0,0,1,2.249-1.065,48.1,48.1,0,0,1,17.692-4.015c3.873-.187,7.786.166,11.633-.211a175.649,175.649,0,0,1,24.08-.718,28.028,28.028,0,0,0,4.93-.444c1.19-.167,2.16-2.128,1.693-3.328a3.966,3.966,0,0,0-2.845-2.775,39.868,39.868,0,0,0-5.762-.6c-11.079-.407-22.158-.838-33.242-1.107-10.924-.265-9.566-1.76-18,7.25-9.474,10.115-19.044,20.133-29.332,29.436a29.5,29.5,0,0,0-2.312,2.385,10.472,10.472,0,0,0-.88,1.4c-.3.482.412,1.859,1.05,1.9,5.8.4,11.508,1.444,17.768,2.432m252.331,44.84c0,.145-.009.29-.013.434q17.842.3,35.683.589a22.357,22.357,0,0,0,2.486-.133c2.557-.244,3.858-1.553,4.145-4.284a22.055,22.055,0,0,0,.035-3.3,2.82,2.82,0,0,0-2.635-2.7c-2.475-.23-4.958-.412-7.442-.5-10.786-.369-21.571-.781-32.359-1.013-11.894-.254-23.791-.347-35.686-.455a35.668,35.668,0,0,0-4.924.466,2.6,2.6,0,0,0-1.688,2.553,30.813,30.813,0,0,0,1.276,3.911,4.4,4.4,0,0,0,3.814,2.792c2.478.216,4.964.353,7.451.456q14.928.614,29.858,1.186M37.113,539.234l-.073,0c.09-2.76.271-5.521.242-8.279a52.151,52.151,0,0,0-.511-6.572,2.535,2.535,0,0,0-2.184-2.222c-4.669-.292-9.348-.434-14.026-.526-1.27-.025-2.419,1.373-2.586,2.818a27.809,27.809,0,0,0-.257,3.295q.051,12,.169,24.008c.036,3.45.981,4.563,4.175,4.959a31.129,31.129,0,0,0,9.891.083,5.554,5.554,0,0,0,4.457-4.338,34.3,34.3,0,0,0,.393-4.117c.136-3.034.21-6.071.309-9.107M258.319,570.64l-.224-.007c-.289-6.057-.567-12.113-.881-18.168a15.1,15.1,0,0,0-.411-2.441,4.532,4.532,0,0,0-4.154-3.425c-3.633-.324-7.116.6-10.61,1.318a2.638,2.638,0,0,0-1.584,1.667,8.256,8.256,0,0,0-.373,4.043c1.424,5.173.789,10.417.9,15.636.042,1.928.026,3.861.188,5.78a4.489,4.489,0,0,0,4.117,4.417,27,27,0,0,0,9.85-.473,3.585,3.585,0,0,0,3.012-3.4c.078-1.649.113-3.3.167-4.949M608.205,560c-.472,6.685.511,13.3,1.006,19.93.15,2.007,1.168,3.153,3.033,3.328,2.479.232,4.973.415,7.461.416a4.621,4.621,0,0,0,4.84-4.667,68.638,68.638,0,0,0,.021-9.133c-.4-5.524-1.038-11.032-1.593-16.545-.443-4.4-1.5-5.439-5.628-5.349-1.935.042-3.875.212-5.8.437a3.176,3.176,0,0,0-3.069,3.274q-.129,4.156-.27,8.31M468.266,623.4c5.022.165,11.4.406,17.771.559a40.26,40.26,0,0,0,4.945-.318c.918-.092,1.757-1.611,1.536-2.6a13.766,13.766,0,0,0-.358-1.619c-1.571-4.446-2.445-5.208-7.214-5.346-11.92-.348-23.843-.594-35.765-.836a22.387,22.387,0,0,0-4.126.383c-2.6.437-3.866,2.628-3.842,6.484.013,1.954,1.212,2.9,4.08,3.129,1.658.132,3.323.246,4.984.247,5.544,0,11.089-.046,17.989-.083m-196.54,2.472a34.291,34.291,0,0,0,4.647-.182c6.084-.868,12.194-.623,18.3-.664,2.5-.017,5-.066,7.489-.174a2.163,2.163,0,0,0,2.192-2.77,30.458,30.458,0,0,0-1.923-5.45c-.444-.863-1.62-1.4-2.549-1.939a3.3,3.3,0,0,0-1.634-.226q-16.234.31-32.469.667a3.023,3.023,0,0,0-2.868,2.543,17.782,17.782,0,0,0-.24,2.481c-.035,4.145,1.115,5.331,5.381,5.592.831.051,1.665.058,3.674.124m398.427-46.587c-.029-.339-.049-.9-.128-1.441s-.21-1.087-.334-1.626a1.9,1.9,0,0,0-2.7-1.013c-1.718,1.391-3.458,2.769-5.059,4.288-9.249,8.769-17.919,18.1-26.562,27.461a49.545,49.545,0,0,0-3.842,4.347,5.814,5.814,0,0,0-.635,5.544c.212.613,1.539,1.224,2.063.9a8.294,8.294,0,0,0,1.4-.85c6.648-6.264,13.325-12.5,19.9-18.844,4.781-4.615,9.411-9.387,14.124-14.072a5.844,5.844,0,0,0,1.771-4.693M63.806,557.005c3.727-.068,7.589-.092,11.447-.232a2.54,2.54,0,0,0,2.289-2.9c-1.108-5.4-2.3-10.784-3.5-16.166-.224-1.01-1.8-1.4-2.751-.752-.226.155-.481.272-.69.445q-8.932,7.381-17.845,14.784a7.308,7.308,0,0,0-1,1.312,2,2,0,0,0,1.17,2.66c3.573.313,7.152.566,10.875.853M26.462,589.729l-.017.229c-2.765-.091-5.527-.219-8.292-.253a2.84,2.84,0,0,0-2.533,1.822,10.209,10.209,0,0,0,1.441,7.951c1.139,1.771,3.508,1.292,5.4,1.376,3.6.159,7.2.253,10.8.253,2.478,0,3.7-1.118,3.8-3.4a31.792,31.792,0,0,0-.184-4.958,2.481,2.481,0,0,0-2.174-2.192c-2.736-.374-5.5-.564-8.248-.828m564.425,27.116a12.273,12.273,0,0,0-2.894,6.03,3.238,3.238,0,0,0,2.707,4.238c3,.3,6.023.522,9.039.57,7.454.121,8.128-.652,7.393-7.939a3.174,3.174,0,0,0-2.505-2.883,34.077,34.077,0,0,0-13.74-.017M305.992,513.174l.266.017c-.055,1.658-.211,3.319-.145,4.972.285,7.191,1.357,8.169,8.389,7.824.55-.026,1.095-.147,1.643-.208a2.882,2.882,0,0,0,2.246-2.146c.072-2.482.146-4.967.087-7.448a3.914,3.914,0,0,0-.73-2.324c-2.335-2.7-4.725-5.369-7.242-7.9-1.19-1.2-3.651-.2-3.882,1.456-.266,1.911-.425,3.837-.631,5.757m362.158,11.461c.3,3.306.69,7.7,1.11,12.082.065.687,1.463,1.341,1.976.935,1.508-1.193,3.024-2.382,4.456-3.662A7.137,7.137,0,0,0,677.97,528c-.166-3.312-.336-6.624-.572-9.932a11.486,11.486,0,0,0-.59-2.4,3.508,3.508,0,0,0-4.657-2.175,4.417,4.417,0,0,0-3.244,3.426c-.367,2.167-.446,4.384-.755,7.715M249.519,614.421c0-.059,0-.116,0-.174-2.186.053-4.373.081-6.558.169a2.191,2.191,0,0,0-2.04,2.149,60.187,60.187,0,0,0,.625,6.5,2.463,2.463,0,0,0,2.289,2.063c4.365.123,8.735.171,13.1.086a2.368,2.368,0,0,0,2.2-2.1,14.433,14.433,0,0,0,.279-3.251c-.212-3.545-1.583-4.984-4.971-5.266-1.635-.136-3.283-.122-4.925-.175M293.3,537.034c-.284-.621-.385-1.279-.764-1.546a1.668,1.668,0,0,0-1.5-.076,13.639,13.639,0,0,0-2.621,2c-8.082,7.954-16,16.077-24.782,23.294a8.268,8.268,0,0,0-1.83,2.709,2.831,2.831,0,0,0,.04,1.584c.1.6,1.524,1,2.14.608a18.924,18.924,0,0,0,2.729-1.832q10.724-9.794,21.367-19.673a49.362,49.362,0,0,0,4.494-4.869,6.308,6.308,0,0,0,.722-2.2m-116.274,16.2.246-.008c-.164-2.2-.211-4.411-.563-6.576a2.5,2.5,0,0,0-1.682-1.551,17.731,17.731,0,0,0-4.093-.077,3.718,3.718,0,0,0-3.652,2.844c-.8,2.918-1.44,5.881-2.1,8.835A2.354,2.354,0,0,0,167,559.107c2.468.15,4.942.263,7.412.24,1.4-.013,2.368-1.2,2.5-2.8.087-1.1.082-2.207.118-3.311m444.63,63.114c-2.505.216-4.7.357-6.884.606a2.829,2.829,0,0,0-2.775,3.33c.208,1.357.472,2.709.779,4.047a3.29,3.29,0,0,0,3.477,2.843c2.192.11,4.393.148,6.586.075a5.028,5.028,0,0,0,4.121-3.533,8.211,8.211,0,0,0-.462-5.63,3.187,3.187,0,0,0-1.9-1.386,15.035,15.035,0,0,0-2.942-.352m-356.794-76c-.375,3.5,1.46,5.107,4.395,4.2a9.819,9.819,0,0,0,3.669-1.711c2.427-2.192,4.642-4.62,6.908-6.987a1.353,1.353,0,0,0-.437-2.043,28.324,28.324,0,0,0-12.171-.425c-.593.09-1.334,1.047-1.5,1.727-.454,1.852-.636,3.77-.863,5.243m-95.286-12.129,0-.053c-.824-.026-1.648-.074-2.472-.073a5.533,5.533,0,0,0-1.634.14c-.469.15-1.083.446-1.231.832a1.554,1.554,0,0,0,.336,1.44c3.283,2.1,4.682,5.168,4.862,8.934a1.541,1.541,0,0,0,.281.769,3.228,3.228,0,0,0,2.751,1.481c1.622.012,3.075-.787,3.23-1.967A49.338,49.338,0,0,0,176.21,534c.063-4.575-.687-5.378-4.986-5.731-.547-.045-1.1-.04-1.647-.058m19.787-107.519a24.326,24.326,0,0,0-.2-3.268,50.691,50.691,0,0,1-.531-11.495,7.194,7.194,0,0,0-.27-2.422c-.111-.345-.757-.567-1.2-.732a.816.816,0,0,0-.72.256,5.561,5.561,0,0,0-1.285,2.043,52.73,52.73,0,0,0-.285,16.387,8.74,8.74,0,0,0,.6,1.525c.31.855,1.245,1.417,1.886,1.05a3.075,3.075,0,0,0,1.226-.995,14.092,14.092,0,0,0,.783-2.351m-77.652,19.424c.39,6.123.637,10.5.98,14.88a7.415,7.415,0,0,0,.818,2.265.722.722,0,0,0,.624.31,2.84,2.84,0,0,0,1.363-.59,2.253,2.253,0,0,0,.6-1.467c-.219-4.377-.44-8.755-.825-13.118a14.686,14.686,0,0,0-1.173-3.929,1.512,1.512,0,0,0-1.19-.765,1.469,1.469,0,0,0-1.094.886c-.179,1.066-.122,2.171-.1,1.528m-6.237,32.559c.189,2.779.336,5.5.611,8.2.031.311.768.753,1.186.763a1.966,1.966,0,0,0,1.318-.688,2.458,2.458,0,0,0,.605-1.472c-.036-4.369-.132-8.738-.238-13.106a.986.986,0,0,0-.4-.677,5.58,5.58,0,0,0-1.386-.671c-.124-.04-.5.272-.536.462-.411,2.4-.78,4.8-1.157,7.188M673.343,573.439a13.37,13.37,0,0,0,.995,2.245c.416.679,2.284-.078,3.619-1.157,3.024-2.444,3.427-5.477,2.132-8.9a1.462,1.462,0,0,0-1.329-.509,34.984,34.984,0,0,0-3.326,2.383c-1.694,1.3-2.231,3.088-2.09,5.933M219.652,424.7c-.1-2.188-.175-4.659-.387-7.118-.031-.366-.683-.874-1.115-.955-.4-.075-1.2.236-1.3.546-1.485,4.555-1.226,9.171-.207,13.768.076.341.848.755,1.268.727a1.479,1.479,0,0,0,1.064-.94c.3-1.9.443-3.817.674-6.027M129.7,486.847c-.131-.965-.288-2.293-.51-3.61-.037-.228-.347-.592-.515-.583a2.694,2.694,0,0,0-1.426.364,2.579,2.579,0,0,0-.9,1.323c-1.13,4.511-1.653,9.064-.5,13.653a1.432,1.432,0,0,0,1.212.669,1.525,1.525,0,0,0,1.061-.956c.563-3.484,1.029-6.983,1.576-10.86m89.712-34.5c-.108-2.6-.167-5.081-.362-7.556-.027-.346-.711-.886-1.1-.893a2.112,2.112,0,0,0-1.307.78,3.137,3.137,0,0,0-.767,1.448,37.452,37.452,0,0,0-.3,13.205c.127.728,1.327,1.655,1.791,1.345.417-.281,1.02-.638,1.083-1.035.4-2.449.663-4.92.962-7.294m-21.493-16.137c-.17-3.134-.345-6.442-.536-9.75-.015-.271-.038-.637-.208-.787a8.8,8.8,0,0,0-1.852-1.313,2,2,0,0,0-.893,1.141q-.119,5.774-.034,11.552a2.326,2.326,0,0,0,.747,1.419,1.942,1.942,0,0,0,1.4.611c.415-.078.842-.639,1.054-1.086a7.216,7.216,0,0,0,.325-1.787m-42.7,51c.122,2.408.184,4.581.394,6.738.034.345.712.829,1.137.878a1.722,1.722,0,0,0,1.374-.569,4.681,4.681,0,0,0,.932-2.183c.213-2.71.324-5.433.348-8.151a4.775,4.775,0,0,0-.7-2.266,1.633,1.633,0,0,0-1.314-.595c-.44.032-1.143.421-1.223.77-.417,1.839-.674,3.715-.952,5.377M196.8,481.4c.048,3.269.026,5.477.139,7.678a4.652,4.652,0,0,0,.676,2.342,4.306,4.306,0,0,0,1.939,1.258c.136.054.822-.72.914-1.18.938-4.73-.368-9.284-1.252-13.859-.052-.267-.823-.443-1.286-.551-.126-.03-.466.317-.5.528-.292,1.6-.534,3.212-.626,3.785m20.912,30.353a5.07,5.07,0,0,0,.64-1.458,54.7,54.7,0,0,0,.39-6.5c-.066-2.3.914-4.978-1.8-6.574-1.469-.864-2.331,1.85-1.887,6.869a52.655,52.655,0,0,0,1.39,7.148c.058.254.825.346,1.265.511m-65.856-11.865c-.121-.82-.341-2.682-.727-4.51-.063-.3-.856-.487-1.342-.619-.16-.044-.532.208-.6.4a16.1,16.1,0,0,0-.19,11.11,1.539,1.539,0,0,0,1.313.683,1.562,1.562,0,0,0,.922-1.108c.254-1.613.36-3.25.628-5.958M94.114,487.631c-.039-1.058-.014-2.7-.183-4.317-.216-2.077.224-4.453-2.1-5.758-1.253-.7-2.144,2.023-1.746,6.245a77.445,77.445,0,0,0,1.368,7.992c.083.408.69.735,1.1,1.045.515.394,1.378-.424,1.43-1.386.059-1.083.076-2.167.13-3.821m22.371-8.675c-.156-1.706-.366-4.147-.62-6.583-.022-.2-.365-.548-.511-.525-.505.081-1.3.169-1.427.48a10.062,10.062,0,0,0-1.091,3.848c.125,3.572.535,7.137.916,10.694.046.429.611.8.937,1.2.352-.316.969-.6,1.013-.953.305-2.459.49-4.932.784-8.161m78.378-20.539c.126,1.462.232,3.374.5,5.264.055.389.68.76,1.114,1.016.608.359,1.086.117,1.285-.576a17.3,17.3,0,0,0,.05-10.455,1.571,1.571,0,0,0-1.293-.708,1.481,1.481,0,0,0-1.052.932c-.281,1.333-.379,2.7-.605,4.528m-5.024,14.7c-.308-2.636-.581-5.356-.993-8.056-.05-.331-.832-.75-1.284-.762a1.539,1.539,0,0,0-1.242.739,20.166,20.166,0,0,0,1.142,12.947c.147.359.822.541,1.288.7.1.034.485-.361.516-.588.22-1.616.38-3.24.573-4.982m28.641-103.01c-.123-2.2-.2-4.4-.416-6.587a1.44,1.44,0,0,0-1.055-.9,2.184,2.184,0,0,0-1.418.621,2.358,2.358,0,0,0-.8,1.38q-.276,4.526-.351,9.064a2.374,2.374,0,0,0,.638,1.463,1.952,1.952,0,0,0,1.338.65,1.527,1.527,0,0,0,1.16-.82c.393-1.59.617-3.223.909-4.874m5.853,121.051c1.474.125,2.394-.5,2.495-1.7.251-2.976.338-5.968.415-8.956a2.442,2.442,0,0,0-.59-1.474,1.951,1.951,0,0,0-1.3-.723,1.462,1.462,0,0,0-1.12.836c-.678,4.027-1.177,8.067.1,12.015m-33.821-4.871c-.39.561-1.183,1.174-1.153,1.744.184,3.539.442,7.084.909,10.6a19.707,19.707,0,0,0,1.51,4.624c.117.287.851.387,1.315.439.182.02.51-.289.589-.513a3.118,3.118,0,0,0,.328-1.58c-1.04-4.28-1.156-8.649-1.4-13.01a2.717,2.717,0,0,0-.546-1.5c-.287-.348-.86-.462-1.551-.8m5.5-78.663-.365-.029c.036-1.088.127-2.179.091-3.265a18.358,18.358,0,0,0-.342-3.233c-.091-.421-.585-.788-.959-1.106-.412-.35-1.723.51-1.863,1.175-.057.264-.255.522-.241.775.2,3.79.389,7.581.681,11.363.022.286.793.737,1.19.711.44-.028,1.169-.465,1.222-.81.29-1.846.408-3.719.586-5.582m48.381,3.6c.822-3.116,1.71-6.239,2.432-9.4a4.006,4.006,0,0,0-.444-2.325,1.733,1.733,0,0,0-1.311-.721c-.452-.022-1.229.266-1.339.594-.961,2.839-1.883,5.711-1.671,8.767.1,1.389.462,2.7,2.334,3.086m-26.694-16c-.088-1.337-.211-3.823-.466-6.295-.032-.319-.741-.789-1.142-.794a1.981,1.981,0,0,0-1.385.683,6.323,6.323,0,0,0-1,4.759c.25,2.475.658,4.936,1.011,7.4.152,1.064-.053,2.294,1.2,2.891.692.331,1.511-1.335,1.607-3.325.066-1.387.095-2.777.178-5.32m9.519-24.279c-.2-3.725-.306-7.573-.695-11.392-.094-.924-1.067-1.8-1.747-2.605-.438-.517-1.02-.35-1.334.306a3.1,3.1,0,0,0-.487,1.515q.8,6.116,1.781,12.206a1.506,1.506,0,0,0,1.138.88c.379.021.788-.508,1.344-.91m-.874,98.318c.775-4.5,1.218-8.813.311-13.172-.109-.523-1.176-.974-1.881-1.184-.282-.083-1.058.515-1.146.907-.993,4.414-.921,8.743,1.392,12.8.113.2.483.248,1.323.645m-138.414,7.1c-.1-.651-.371-2.795-.8-4.907-.062-.307-.886-.65-1.342-.63-.438.02-1.183.445-1.23.772a58.983,58.983,0,0,0-.637,6.512c-.05,1.6-.117,3.315,1.814,4.162,1.356.594,2.1-.913,2.2-5.91m158.486-50.881c-.268-2.09.524-4.363-.885-6.325a2.022,2.022,0,0,0-1.314-.774,1.439,1.439,0,0,0-1.172.691,17.3,17.3,0,0,0-.422,8.89c.049.266.1.626.286.756a8.572,8.572,0,0,0,2.048,1.174c.161.056.781-.673.9-1.118.276-1.052.378-2.15.561-3.294m-32.195,52.613c.2,1.621.339,3.267.66,4.876.074.369.76.807,1.2.856a1.545,1.545,0,0,0,1.283-.623,12.033,12.033,0,0,0,.4-8.877,1.624,1.624,0,0,0-1.184-.874c-.444-.042-1.229.274-1.348.615a41.061,41.061,0,0,0-1.011,4.027M251.5,463.637c.019,1.471,0,2.559.063,3.642a3.234,3.234,0,0,0,.388,1.547,1.736,1.736,0,0,0,1.224.75,1.572,1.572,0,0,0,1.2-.8,13.276,13.276,0,0,0,.379-8.754,1.5,1.5,0,0,0-1.2-.707,1.585,1.585,0,0,0-1.236.751,35.951,35.951,0,0,0-.808,3.57M86.395,501.48a18.278,18.278,0,0,0,.486-11.063c-.126-.5-1.225-.892-1.936-1.057-.274-.064-.95.585-1.063,1.01a16.407,16.407,0,0,0-.2,8.083,3.548,3.548,0,0,0,2.709,3.027m160.367-27.66c-.229-1.736-.466-3.624-.749-5.506-.02-.135-.371-.312-.565-.308-.254.006-.65.1-.736.281-1.728,3.6-2.636,7.291-.764,11.127.192.394.818.6,1.279.815.073.034.456-.318.5-.529.359-1.883.673-3.775,1.037-5.881M191.01,446.13c-.2-2.225-.464-5.241-.766-8.252-.017-.171-.4-.472-.538-.437-.478.119-1.273.286-1.335.571-1.035,4.654-.641,9.319.087,13.971.032.208.447.55.6.51.413-.11,1.066-.336,1.121-.614.32-1.624.5-3.277.833-5.749m-62.324,24.182c.374-.38,1.045-.736,1.077-1.142.349-4.407.636-8.82.792-13.236.012-.337-1.108-.713-1.793-1.125-2.035,9.039-2.035,10.977-.076,15.5m126.3-23.8c-.408-1.834-.9-4.252-1.534-6.635-.071-.266-.91-.388-1.408-.446-.183-.022-.554.305-.6.522A12.433,12.433,0,0,0,252.6,448.7a1.542,1.542,0,0,0,1.414.469c.4-.139.664-.784.906-1.249.114-.22.036-.538.064-1.407M88.724,517.351c-.155-1.388-.32-3.27-.6-5.136a2.131,2.131,0,0,0-.809-1.348,2.306,2.306,0,0,0-1.454-.013.909.909,0,0,0-.575.544,11.088,11.088,0,0,0,.472,8.683,1.852,1.852,0,0,0,1.18.907,1.439,1.439,0,0,0,1.133-.75,18.2,18.2,0,0,0,.653-2.887m165.369-107.9c-.32-2.385-.563-4.532-.916-6.662-.132-.794-.575-1.727-1.523-1.51a2.32,2.32,0,0,0-1.486,1.464c-.6,3.29.464,6.372,1.505,9.43.06.175.465.3.718.318a.756.756,0,0,0,.62-.28c.413-.953.764-1.932,1.082-2.76m-27.878-14.816c1.515-4.8,1.7-7.356.685-11.216-.087-.333-.84-.7-1.264-.679a1.894,1.894,0,0,0-1.252.8,2.9,2.9,0,0,0-.418,1.577,8.294,8.294,0,0,0,.327,3.259c.911,1.961.151,4.444,1.923,6.254M129.424,516.05c.038-2.484.081-4.7-1.2-6.66a1.01,1.01,0,0,0-.742-.28.743.743,0,0,0-.6.3,12.765,12.765,0,0,0-.211,8.812c.066.194.421.453.584.418.5-.109,1.194-.208,1.418-.562a8.619,8.619,0,0,0,.751-2.031m124.941-18.993c-.155-1.709-.24-3.325-.5-4.914-.05-.3-.812-.691-1.223-.667a1.651,1.651,0,0,0-1.269.77,10.759,10.759,0,0,0,.657,8.655c.1.177.493.254.751.255.2,0,.547-.147.59-.3.367-1.275.678-2.566.994-3.8m-25.931,14.335c-.3-2.245.379-4.771-1.16-6.9a2.605,2.605,0,0,0-1.361-.653c-.123-.035-.442.316-.543.546a9.72,9.72,0,0,0-.175,6.291,6.477,6.477,0,0,0,.993,2.17c.259.373.941.789,1.274.685.378-.119.612-.782.845-1.241a3.133,3.133,0,0,0,.128-.9M91.741,503.923a16.647,16.647,0,0,0-.345,8.707,2.653,2.653,0,0,0,.881,1.309,3.255,3.255,0,0,0,1.435.543c.155.029.486-.306.564-.535a10.314,10.314,0,0,0-1.515-9.822c-.1-.138-.448-.1-1.021-.2m161.707-80.666a14.083,14.083,0,0,0-.233-2.55,1.564,1.564,0,0,0-1.032-1,1.531,1.531,0,0,0-1.245.757c-1.043,2.907-1.516,5.885-.385,8.88.151.4.788.635,1.233.886a1.1,1.1,0,0,0,.476-.554c.423-2.162.807-4.33,1.187-6.42M107.4,455.891c.392-.355,1.056-.657,1.142-1.076a43.456,43.456,0,0,0,.466-14.01c-.055-.446-.657-.824-1-1.233-.393.347-1.045.636-1.138,1.051a36.852,36.852,0,0,0-.376,14c.075.472.611.871.91,1.273m138.647-7.8.068-.005c-.174-2.167-.306-4.339-.57-6.5-.035-.287-.713-.543-1.134-.7-.1-.039-.475.321-.547.552a23.933,23.933,0,0,0-.317,11.294,1.066,1.066,0,0,0,.456.645c.443.269.974.67,1.4.6.4-.062,1.012-.668,1.008-1.029-.021-1.622-.229-3.241-.369-4.861m-136.965,50c-.032-2.032-.045-3.406-.079-4.78-.029-1.138-.727-2-1.277-1.6-.4.293-.911.643-1.051,1.072a14.582,14.582,0,0,0,.269,9.663c.056.157.507.26.758.233a.776.776,0,0,0,.565-.431c.341-1.588.63-3.186.816-4.156M245.8,493.738c-.085-1-.152-2.088-.289-3.173-.029-.237-.3-.629-.464-.629-.467,0-1.159,0-1.364.286a7.088,7.088,0,0,0-1.531,5.376c.122.769.981,1.632,1.656,1.405a2.268,2.268,0,0,0,1.271-.8,13.224,13.224,0,0,0,.72-2.46m7.926,19.179a14.54,14.54,0,0,0-.358-2.417,2.744,2.744,0,0,0-1-1.16c-.479-.369-1.656.448-1.909,1.2a5.886,5.886,0,0,0,.332,4.811,1.816,1.816,0,0,0,1.287.827,1.505,1.505,0,0,0,1.164-.791,13.2,13.2,0,0,0,.487-2.469m-62.689,2.3a31.074,31.074,0,0,0,.518,3.346c.109.418.613.758.989,1.07.5.412,1.51-.353,1.7-1.209.475-2.145.6-4.229-.952-6.04a1.116,1.116,0,0,0-.752-.22c-.2,0-.536.094-.584.229-.353.976-.649,1.974-.918,2.823m32.321-78.068c.132,2.005.179,3.647.4,5.265.044.326.719.612,1.151.815.138.065.55-.141.634-.318,1.59-3.4,1.271-6.834.109-10.263-.059-.175-.482-.323-.727-.31a.782.782,0,0,0-.594.422c-.379,1.563-.7,3.14-.972,4.39m-71.749,42.834c1.29-.941,1.206-2.455,1.378-3.762a66.109,66.109,0,0,0,.41-6.625,3.808,3.808,0,0,0-.5-1.538c-.106-.237-.438-.6-.561-.561-.449.139-1.146.346-1.231.665a20.5,20.5,0,0,0-.135,11.418c.055.178.41.263.642.4m72.631-68.4c.127,1.484.208,3.1.45,4.692a1.328,1.328,0,0,0,1.089.738,1.765,1.765,0,0,0,1.069-.971c1.14-2.665.577-5.3-.291-7.907-.07-.21-.411-.523-.537-.485-.418.125-1.049.31-1.141.612a29.977,29.977,0,0,0-.64,3.321M152.026,522.005c-.193-.964-.44-2.3-.755-3.627-.041-.173-.429-.328-.677-.367a.758.758,0,0,0-.64.193,5.875,5.875,0,0,0,.133,6.215c.086.148.549.18.79.109a1.051,1.051,0,0,0,.612-.533,19.166,19.166,0,0,0,.535-1.989m-41.979-3.494c.062-2.5-.189-3.223-1.648-4.777a.947.947,0,0,0-1.448.232,4.977,4.977,0,0,0,.358,4.752c.237.43.933,1.034,1.192.939a5.861,5.861,0,0,0,1.546-1.147m144.535-36.322c.026-.81.062-1.347.054-1.883a5.771,5.771,0,0,0-.139-.794c-.134-.822-1.116-1.56-1.7-1.211a2.613,2.613,0,0,0-1.1,1.026,4.525,4.525,0,0,0,.741,4.542c.133.184.5.387.662.327a2.336,2.336,0,0,0,1.192-.721,3.355,3.355,0,0,0,.288-1.286M200.812,515.91c1.051-4.24,1.52-6.783-1.5-8.768-2.264,2.952-.042,5.036,1.5,8.768M117.229,505.3c-.142-1.423-.21-2.77-.46-4.081-.059-.313-.706-.569-1.129-.726-.146-.054-.556.225-.637.432a11.679,11.679,0,0,0-.227,7.9c.113.36.667.622,1.068.825.1.051.546-.27.594-.476.3-1.3.543-2.617.791-3.873M134.3,497.03c.354-.313.927-.568,1.027-.948a15.114,15.114,0,0,0,.168-7.407,1.01,1.01,0,0,0-.583-.562.651.651,0,0,0-.594.241c-1.277,3.367-1.271,3.925-.018,8.676m24.647,27.388a5,5,0,0,0-.44-1.7,2.706,2.706,0,0,0-1.325-.667c-.152-.047-.475.179-.6.362a3.047,3.047,0,0,0-.106,3.678,1.33,1.33,0,0,0,1.3.115,9.062,9.062,0,0,0,1.17-1.787m-37.144-.4c1.93-2.266,1.277-4.684.866-7.054a.832.832,0,0,0-.6-.51.794.794,0,0,0-.652.4c-.739,2.362-1.178,4.722.384,7.163m-29.263-.353c0,.269,0,.539.012.809.046,1.134.777,1.992,1.352,1.571a2.116,2.116,0,0,0,.881-1.225,5.881,5.881,0,0,0-.236-2.383c-.126-.392-.729-.651-1.157-.9-.062-.035-.46.319-.533.547a12.84,12.84,0,0,0-.319,1.577m66.3-12.558c-.179-.778-.387-1.793-.66-2.791-.061-.222-.461-.571-.525-.535-.4.223-1.034.5-1.079.828a34.158,34.158,0,0,0-.305,4.681c0,.414.538.826.829,1.238.377-.277.93-.477,1.093-.848a16.252,16.252,0,0,0,.648-2.574m86.278-1.038a4.529,4.529,0,0,0-.205-1.59c-.208-.4-.823-.888-1.157-.823a1.5,1.5,0,0,0-.957,1.1,16.827,16.827,0,0,0,.448,3.163c.04.2.443.53.536.488a2.18,2.18,0,0,0,1.062-.753,5.389,5.389,0,0,0,.275-1.588m-110.859,1.947a25.9,25.9,0,0,0,.392,3.12c.086.365.657.65,1.06.879.082.047.486-.274.594-.5a7.362,7.362,0,0,0,.291-5.532c-.117-.38-.653-.661-1.048-.9-.072-.044-.5.282-.583.5-.269.755-.455,1.538-.705,2.43m131.459,37.251c.373-.594.26-1.057-.379-1.271-.21-.071-.665.02-.713.147a7.377,7.377,0,0,0-.261,1.358c.451-.077.9-.154,1.353-.234" transform="translate(0 -154.074)" fill="#273232"/><path d="M1000,412.74c.748-7.462,1.543-14.921,2.227-22.39.405-4.425.751-8.862.922-13.3.375-9.72.735-19.443.863-29.169a11.1,11.1,0,0,1,4.572-9.3c5.6-4.231,11.691-7.587,18.647-8.827a94.82,94.82,0,0,1,13.248-1.2,63.447,63.447,0,0,0,10.722-1.214c11.388-2.363,18.532-9.444,22.712-19.921.923-2.311,1.451-4.777,2.31-7.118q1.576-4.3,3.426-8.49a22.433,22.433,0,0,1,2.15-3.552,2.486,2.486,0,0,1,4.158-.32c4.667,5.229,6.562,11.521,6.931,18.34.7,12.976-4.542,23.216-14.771,30.944-3.76,2.841-7.856,5.234-11.763,7.884-2.527,1.714-5.11,3.376-7.452,5.322a12,12,0,0,0-3.107,15.042,44.261,44.261,0,0,0,4.709,6.835c4.127,5.228,8.523,10.241,12,15.968,4.385,7.228,6.561,15.255,8.615,23.332.26,1.024-1.021,2.912-2.129,3.287a10.376,10.376,0,0,1-2.4.64c-4.743.39-9.409.319-13.859-1.825a65.6,65.6,0,0,0-6.993-2.655c-2.092-.726-4.213-1.378-6.344-1.981-4.236-1.2-8.222-.351-12.109,1.5a32.883,32.883,0,0,0-9.29,6.944c-2.525,2.575-5.228,4.983-7.68,7.624-5.213,5.611-12.106,7.584-19.21,9.154a2.259,2.259,0,0,1-2.622-2.452q.2-3.743.549-7.476c.366-3.871.792-7.737,1.193-11.6l-.228-.024" transform="translate(-439.142 -126.21)" fill="#273232"/><path d="M1079.432,209.079c-4.934,5.882-7.364,12.626-9.536,19.539a56.666,56.666,0,0,1-4.011,9.133,20.025,20.025,0,0,1-12.652,10.133c-3.995,1.17-7.98,2.323-12.247,2.163-11.979-.446-23.157,2.17-33.16,9.04a6.224,6.224,0,0,1-.759.338c-.692.347-1.953-.052-2.092-.728a27.852,27.852,0,0,1-.868-4.881c-.151-6.667-.167-13.339-.208-20.008-.061-9.721.253-19.458-1.32-29.112a11.581,11.581,0,0,1-.156-2.492c.467-8.364-.991-16.623-1.383-24.94a149.363,149.363,0,0,0-1.57-14.881c-.634-4.259.9-7.583,3.557-10.665a24.68,24.68,0,0,1,16.628-8.484c3.035-.335,6.094-.45,9.123-.826a32.871,32.871,0,0,0,23.193-13.255c1-1.333,1.863-2.779,2.939-4.044,1.019-1.2,1.882-3.127,3.836-2.512,1.784.561,1.958,2.554,2.4,4.138,2.058,7.462.565,14.26-3.783,20.576a50.627,50.627,0,0,1-8.914,9.864c-2.747,2.344-5.529,4.668-8.075,7.22-6.3,6.319-5.982,15.481.91,21.241a65.937,65.937,0,0,0,10.329,7c6.066,3.359,12.33,6.364,18.533,9.472,3.23,1.618,6.483,3.175,9.29,6.977" transform="translate(-439.515 -53.867)" fill="#273232"/><path d="M922.686,497.082c-1.988.279-3.391-.767-4.753-1.6-8.607-5.285-17.659-6.081-27.2-3.087-2.37.743-4.855,1.118-7.276,1.706a22.31,22.31,0,0,1-19.632-4.069,35.6,35.6,0,0,1-4.329-3.843,2.492,2.492,0,0,1-.317-3.072c3.471-6.142,8.374-11.036,13.731-15.476,3.2-2.652,6.655-4.993,10.014-7.448,6.794-4.967,7.665-11.841,6.048-19.369a12.635,12.635,0,0,0-4.725-7.653c-2.441-1.821-4.966-3.534-7.493-5.237-3.217-2.167-6.493-4.245-9.706-6.417a32.366,32.366,0,0,1-8.9-9.792c-4.016-6.279-4.585-12.949-2.368-19.959a2.306,2.306,0,0,1,3.366-1.3c1.269.555,2.529,1.133,3.768,1.751,5.93,2.953,12.186,3.456,18.676,2.726,3.295-.37,6.629-.441,9.948-.518,6.212-.144,11.278,2.53,15.612,6.733a47.525,47.525,0,0,1,4.383,5.008A32.751,32.751,0,0,0,927.47,417.7c1.311.427,2.564,1.034,3.535,1.43,1.592,1.613,1.434,3.341,1.231,4.959-1.1,8.8-2.287,17.6-3.461,26.392-.147,1.1-.485,2.175-.589,3.275-.967,10.217-1.858,20.441-2.872,30.652-.355,3.582-.94,7.145-1.535,10.7a6.621,6.621,0,0,1-1.093,1.976" transform="translate(-375.815 -171.609)" fill="#273232"/><path d="M936.063,309c-.181,5.557-.327,11.115-.56,16.67-.118,2.8-1.825,3.721-4.59,2.565a27.623,27.623,0,0,1-10.114-7.165c-2.031-2.282-3.965-4.648-5.983-6.941a23.5,23.5,0,0,0-10.217-6.96,27.878,27.878,0,0,0-5.576-1.528c-5.811-.664-11.695-.958-17.44.2-6.256,1.261-11.417-1.041-16.5-4.049a2.979,2.979,0,0,1-.633-3.747,11.568,11.568,0,0,1,1.653-1.865c4.14-3.271,8.277-6.509,13.094-8.829,7.564-3.642,14.166-8.75,20.467-14.236a17.644,17.644,0,0,0,5.409-7.261c2.723-7.511.69-14.228-3.409-20.482-3.256-4.967-8.034-8.414-13-11.533a40.352,40.352,0,0,0-5.839-3.205c-4.953-2.06-9.074-5.38-13.242-8.592a33.333,33.333,0,0,1-5.828-5.908,15.21,15.21,0,0,1-2.779-12.619,2.621,2.621,0,0,1,3.127-2c1.08.263,2.151.564,3.213.889a43.291,43.291,0,0,0,18.959,1.511c1.924-.273,3.87-.393,5.806-.587a20.722,20.722,0,0,1,16.9,5.465c1.428,1.321,3.008,2.5,4.314,3.926,4.035,4.412,9.092,7.237,14.462,9.609,1.525.673,3.071,1.3,4.6,1.954a4.151,4.151,0,0,1,2.62,3.913c.1,3.609.106,7.224.054,10.835a177.554,177.554,0,0,0,.439,19.986c.542,5.51.143,11.109.255,16.666.089,4.44.312,8.878.487,13.316.054,1.388.24,2.776.206,4.16-.132,5.279-.329,10.557-.5,15.835l.148.005" transform="translate(-378.519 -88.597)" fill="#273232"/><path d="M671.145,485.348c.379-2.977.911-6.821,1.347-10.676.467-4.134.906-8.275,1.246-12.421.614-7.469,1.105-14.949,1.729-22.417q.455-5.45,5.63-6.06a25.7,25.7,0,0,1,12.3,1.186c2.072.781,4.166,1.5,6.225,2.318,6.922,2.734,13.6,1.91,20.069-1.418,1.972-1.014,3.878-2.168,5.75-3.36,5.465-3.48,11.445-3.9,17.647-3.082a6.971,6.971,0,0,1,1.614.376c5.58,2.171,6.145,4.26,3.735,8.753a26.51,26.51,0,0,1-9.334,10.415c-2.829,1.751-5.565,3.662-8.27,5.6a26.543,26.543,0,0,0-4.459,3.722c-4.543,5.11-4.311,7.019-1.013,11.712a69.388,69.388,0,0,0,6.9,8.3,33.667,33.667,0,0,1,5.587,7.208c3.2,5.878,3.052,6.5-3.287,8.868-3.623,1.355-7.09,3.13-10.606,4.76-1.257.583-2.444,1.314-3.679,1.947-6.078,3.113-12.118,3.464-18.318.15a61.8,61.8,0,0,0-13.893-5.435c-3.594-.917-7.011-1.446-10.591-.19a13.376,13.376,0,0,1-3.261.476,2.854,2.854,0,0,1-2.949-2.357c-.092-2.488-.08-4.981-.122-8.376" transform="translate(-295.177 -188.706)" fill="#273232"/><path d="M682.761,372.086a3.929,3.929,0,0,1-1.39-3.9c.595-4.674,1.255-9.339,1.935-14,.479-3.289,1.019-6.57,1.555-9.852,1.426-8.738,3.216-17.408,5.441-25.973,1.444-5.56,3.291-6.732,8.929-6.127a29.814,29.814,0,0,1,5.667,1.229,22.216,22.216,0,0,0,16.207-1.193c2.018-.9,3.936-2.032,5.888-3.081,1.709-.918,3.37-1.927,5.1-2.794,5.154-2.578,10.469-3.513,16.071-1.5,1.3.467,2.673.725,4,1.129a2.886,2.886,0,0,1,1.487,2.706,13.149,13.149,0,0,1-4.236,8.789c-2.758,2.72-5.642,5.32-8.577,7.849-2.307,1.989-4.862,3.694-7.144,5.71a37.8,37.8,0,0,0-5.163,5.386c-4.5,5.944-1.668,11.9,3.059,15.038,1.378.912,3.018,1.427,4.4,2.329,4.873,3.174,9.865,6.211,13.647,10.775.417.5.45.478.222,3.134a56.907,56.907,0,0,0-7.316-.435,32.262,32.262,0,0,0-13.544,3.63c-2.924,1.585-5.843,3.182-8.793,4.717a15.575,15.575,0,0,1-13.623.921c-2.568-1.042-5.13-2.1-7.728-3.066a25.318,25.318,0,0,0-13.881-1.478,12.092,12.092,0,0,1-2.221.063" transform="translate(-299.649 -133.615)" fill="#273232"/><path d="M973.4,93.263c-.859-3.621-1.456-6.023-2-8.439-1.453-6.493-2.223-13.106-3.685-19.608-2.328-10.35-6.191-20.135-10.142-29.912A246.459,246.459,0,0,0,944.962,8.131a10.377,10.377,0,0,1-.9-2.309,2.714,2.714,0,0,1,1.1-2.934A12.7,12.7,0,0,1,956.15.353,65.037,65.037,0,0,1,965.611,3.5a12.643,12.643,0,0,1,4.933,4.287A71.11,71.11,0,0,1,982.994,32.1a31.968,31.968,0,0,0,4.722,9.677,21.827,21.827,0,0,0,10.4,7.952c4.7,1.765,9.618,2.626,14.455,3.845a117.616,117.616,0,0,1,11.83,3.877,15.019,15.019,0,0,1,3.419,2.323,2.736,2.736,0,0,1,.715,3.03c-3.317,4.777-6.215,9.916-10.85,13.615-4.674,3.729-9.952,6.277-16.052,5.869-9.122-.61-16.842,2.589-23.94,7.9-1.072.8-2.175,1.562-4.294,3.079" transform="translate(-415.165 0)" fill="#273232"/><path d="M938.2,132.957c-.035,2.589-1.457,3.619-2.457,3.321a21.609,21.609,0,0,1-3.884-1.335,50.638,50.638,0,0,1-11.23-8.51,63.06,63.06,0,0,0-5.619-4.916c-4.088-3.052-8.63-4.981-13.86-4.787-3.589.133-7.263-.122-10.743.578-6.242,1.255-12.1.236-17.934-1.769a2.328,2.328,0,0,1-.879-3.482,20.714,20.714,0,0,1,2.087-2.551,55.224,55.224,0,0,1,19.474-12.441A40.092,40.092,0,0,0,903.44,91.7c5.67-4.238,7.673-10.228,5.352-16.887a81.787,81.787,0,0,0-3.79-8.3c-1.918-3.992-4.28-7.819-5.762-11.963-4.415-12.36-2.449-23.993,4.827-34.807a1.975,1.975,0,0,1,3.413.349,91.57,91.57,0,0,1,5.178,9.475C918.14,42.58,923.989,55.462,927.91,69.06a143.04,143.04,0,0,1,3.668,16.211c2.529,15.286,5.216,30.556,6.469,46.024.09,1.1.2,2.188.151,1.662" transform="translate(-383.141 -8.32)" fill="#273232"/><path d="M639.582,280.212a28.338,28.338,0,0,1-1.072,9.508,256.766,256.766,0,0,0-6.3,27.561c-1.012,6.01-2.473,11.941-2.8,18.057a5.04,5.04,0,0,1-.181.812,2.614,2.614,0,0,1-2.7,1.4,14.319,14.319,0,0,1-6.508-3.522c-.983-.979-1.925-2-2.865-3.019a17.117,17.117,0,0,0-13.433-5.506,25.748,25.748,0,0,0-7.423.758c-7.136,2.291-13.029,0-18.585-4.262-6.253-4.8-5.839-5.976.1-10.259a27.571,27.571,0,0,1,13.089-5.011c6.392-.732,9.625-4.932,12.1-10.129a7.9,7.9,0,0,0-.426-7.976,120.583,120.583,0,0,0-7.789-10.762,25.513,25.513,0,0,1-4.7-8.727,20.157,20.157,0,0,1,.006-11.465,2.333,2.333,0,0,1,2.7-1.306c1.491.734,2.965,1.5,4.445,2.261a27.542,27.542,0,0,0,12.753,3.3,34.123,34.123,0,0,1,4.982.329c4.766.689,9.064,2.3,12.512,5.931,3.812,4.019,7.846,7.828,12.087,12.029" transform="translate(-252.098 -112.704)" fill="#273232"/><path d="M546.2,378.354c3.206,2.081,5.73,3.767,8.3,5.379a21.208,21.208,0,0,0,15.947,2.878c1.9-.379,3.791-.813,5.693-1.186a12.775,12.775,0,0,1,11.522,3.32,15.362,15.362,0,0,1,1.227,1.122,25.876,25.876,0,0,0,12.349,8.084,2.483,2.483,0,0,1,1.767,2.555c-.129,3.6.008,7.274-.732,10.756a105.084,105.084,0,0,0-1.716,13.173c-.172,2.06-1.328,3.4-3.075,3.178-8.8-1.1-16.268,2.211-23.409,6.791a44.45,44.45,0,0,1-11.368,5.02,21.368,21.368,0,0,1-12.273.164c-1.865-.527-3.755-.984-5.655-1.363-8.594-1.714-17.067-2.218-25,2.594-.36.218-1.042-.022-1.55-.147-.541-.133-.649-1.493-.222-2.222a26.5,26.5,0,0,1,7.688-8.62c4.549-3.153,9.092-6.226,14.558-7.784,4.406-1.256,7.594-4.268,10.075-8.207,2.928-4.648,3.407-9.168.885-14.13-2-3.942-3.718-8.034-5.471-12.1a11.093,11.093,0,0,1-.909-6.5,13.786,13.786,0,0,1,1.369-2.754" transform="translate(-227.709 -166.404)" fill="#273232"/><path d="M741.778,560.381c-.262,3.78-1.984,8.495-3.147,13.316a42.743,42.743,0,0,1-12.584,21.188c-5.43,5.15-10.5,10.705-16.619,15.106-3.319,2.387-4.745,2.451-8.344.334a35.028,35.028,0,0,1-7.508-6.539,33.1,33.1,0,0,0-10.868-7.5c-3.451-1.534-7.03-1.391-10.607-1.663a3.321,3.321,0,0,1-3.219-3.186c-.035-.276-.078-.551-.1-.827-.039-.553-.1-1.109-.089-1.662.213-8.883.394-17.768.681-26.649.091-2.815,1.086-3.764,3.879-4.665a21.288,21.288,0,0,1,13.854-.157,104.157,104.157,0,0,1,11.556,4.676,34.446,34.446,0,0,0,7.8,2.719,19.482,19.482,0,0,0,12.195-1.5c3.532-1.615,6.973-3.427,10.5-5.056,2.763-1.277,5.557-2.5,8.407-3.569a3.039,3.039,0,0,1,4.145,2.726c.023.555.024,1.11.061,2.909" transform="translate(-294.099 -243.892)" fill="#273232"/><path d="M536.888,487.361c3.013.453,6.148.518,9.015,1.43,8.724,2.773,16.988,1.61,24.992-2.343a101.06,101.06,0,0,0,10.93-6.048c3.986-2.627,8.21-3.126,12.75-2.608,3.009.344,4.306,1.807,4.262,5.008a18.507,18.507,0,0,1-.227,3.32c-1.573,7.952-1.664,16.019-1.957,24.072-.04,1.11-.1,2.222-.212,3.326-.244,2.473-1.323,3.614-3.645,3.629-3.054.019-6.109-.156-9.164-.149a36.889,36.889,0,0,0-19.841,5.3c-1.64,1.02-3.129,2.286-4.664,3.469-2.64,2.035-5.164,4.236-7.913,6.109a30.244,30.244,0,0,1-14.779,5.05,2.024,2.024,0,0,1-2.2-2.66c2.106-6.133,5.1-11.683,10.286-15.833a31.217,31.217,0,0,0,3.636-3.412,5.031,5.031,0,0,0-.064-6.835,12.03,12.03,0,0,0-3.249-2.487c-4.776-2.46-10.079-2.937-15.268-3.789a49.8,49.8,0,0,0-4.986-.342,12.228,12.228,0,0,1-6.116-2.444,5.991,5.991,0,0,1-2.493-4.165,2.865,2.865,0,0,1,1.021-2.94c6.228-3.235,12.57-5.988,19.891-4.664" transform="translate(-226.91 -210.057)" fill="#273232"/><path d="M740.936,172.6a28.354,28.354,0,0,1-1.842,9.779c-1.195,3.11-2.064,6.35-3.344,9.42-1.73,4.153-2.346,8.566-3.3,12.892-.876,3.978.46,7.686,2.342,11.17a6.568,6.568,0,0,0,3.851,3.012,12.869,12.869,0,0,0,3.25.688c5.813.374,10.539,3.332,15.147,6.442a14.564,14.564,0,0,1,5.922,7.82c.624,1.984-.272,3.545-2.151,3.32-1.1-.132-2.193-.356-3.283-.565-6.853-1.3-13.245.085-19.311,3.328-1.958,1.048-3.9,2.134-5.824,3.234a21.554,21.554,0,0,1-15.242,2.518c-3.807-.719-7.716-.891-11.579-1.324a2.213,2.213,0,0,1-1.7-2.486c1.166-4.559,2.228-9.156,3.662-13.633,3.132-9.779,6.821-19.343,10.844-28.807,5.12-12.043,11.533-23.391,17.626-34.918.128-.242.342-.436.49-.668a1.682,1.682,0,0,1,2.8-.021,15.287,15.287,0,0,1,1.513,3.812,32.958,32.958,0,0,1,.132,4.987" transform="translate(-309.549 -71.719)" fill="#273232"/><path d="M629.1,199.831c2.768.091,5.544.353,8.3.237,6.418-.27,11.862-2.647,15.668-8.034,2.55-3.61,5.44-6.948,7.546-10.915a58.383,58.383,0,0,1,12.238-15.647,38.142,38.142,0,0,1,12.447-8.106,4.886,4.886,0,0,1,2.4-.163,1.521,1.521,0,0,1,.953,1.124,5.461,5.461,0,0,1-.506,2.36q-5.869,12.383-11.82,24.728c-5.529,11.5-9.643,23.548-13.71,35.613-.7,2.092-1.53,4.144-2.353,6.193a2.373,2.373,0,0,1-2.9.778,24.4,24.4,0,0,1-2.577-2.085c-1.769-1.757-3.531-3.53-5.175-5.4-4.479-5.1-10.365-7.195-16.852-7.97-2.2-.263-4.436-.136-6.639-.355a21.383,21.383,0,0,1-12.773-5.39,2.9,2.9,0,0,1,0-4.364,9.688,9.688,0,0,1,7.468-3.034c2.765.141,5.52.479,8.277.73l.012-.3" transform="translate(-269.32 -69.106)" fill="#273232"/></g></g></g></svg>