<svg xmlns="http://www.w3.org/2000/svg" xmlns:xlink="http://www.w3.org/1999/xlink" width="2458" height="2460" viewBox="0 0 2458 2460">
  <defs>
    <clipPath id="clip-path">
      <rect id="Rectangle_251" data-name="Rectangle 251" width="2458" height="2460" rx="179" transform="translate(2272.314 -22932.609)" fill="#d0bb94"/>
    </clipPath>
  </defs>
  <g id="Mask_Group_106" data-name="Mask Group 106" transform="translate(-2272.314 22932.609)" clip-path="url(#clip-path)">
    <g id="Group_730" data-name="Group 730" transform="translate(2049.173 -22933)">
      <rect id="Rectangle_250" data-name="Rectangle 250" width="2458.628" height="2460.781" transform="translate(226.731)" fill="#d0bb94"/>
      <text id="Gift_Voucher" data-name="Gift Voucher" transform="translate(509.839 1796.346)" fill="#485743" font-size="288" font-family="BwHelder-W3ExtraBold, Bw Helder" font-weight="800" letter-spacing="-0.013em"><tspan x="0" y="0">Gift Voucher</tspan></text>
      <g id="Group_519" data-name="Group 519" transform="translate(953.685 415.274)">
        <g id="Group_134" data-name="Group 134" transform="translate(132.543 335.394)">
          <path id="Path_200" data-name="Path 200" d="M263.073,468.4H286.44v54.616l-1.408,32.377h.845c13.795-15.2,29.842-26.745,50.957-26.745,32.376,0,47.3,19.143,47.3,55.179v85.023H360.764V586.92c0-25.9-9.009-38.005-31.25-38.005-16.329,0-27.308,8.164-43.074,24.492v95.44H263.073Z" transform="translate(-263.073 -468.397)" fill="#485743"/>
          <path id="Path_201" data-name="Path 201" d="M415.241,617.82V532.8h23.367v81.925c0,25.619,9.009,38.007,31.532,38.007,15.766,0,27.308-7.321,42.511-25.056V532.8h23.367V669.621H516.591l-1.97-23.931h-1.126C499.7,661.738,483.653,673,462.538,673,430.162,673,415.241,653.856,415.241,617.82Z" transform="translate(-264.906 -469.172)" fill="#485743"/>
          <path id="Path_202" data-name="Path 202" d="M608.256,615.877V551.124H569.4V533.67l39.7-1.408,3.1-43.918h19.425v43.918h67v18.862h-67v65.034c0,24.494,8.165,37.162,34.627,37.162a89.949,89.949,0,0,0,32.658-6.194l5.067,17.175c-12.388,4.5-25.619,8.163-42.792,8.163C621.2,672.464,608.256,649.661,608.256,615.877Z" transform="translate(-266.763 -468.637)" fill="#485743"/>
          <path id="Path_203" data-name="Path 203" d="M729.552,601.45c0-45.889,34.909-72.071,76.294-72.071,22.241,0,38.569,9.009,49.831,19.988l-11.542,14.92c-11.262-9.571-23.086-15.483-37.445-15.483-31.531,0-53.209,21.116-53.209,52.646,0,31.248,21.4,52.083,52.646,52.083,16.892,0,30.969-7.6,42.23-17.174l10.417,15.2c-15.2,13.513-34.066,21.4-54.337,21.4C761.645,672.958,729.552,646.777,729.552,601.45Z" transform="translate(-268.692 -469.132)" fill="#485743"/>
          <path id="Path_204" data-name="Path 204" d="M889.984,468.4h23.367v54.616l-1.408,32.377h.845c13.795-15.2,29.841-26.745,50.956-26.745,32.377,0,47.3,19.143,47.3,55.179v85.023H987.675V586.92c0-25.9-9.01-38.005-31.251-38.005-16.328,0-27.308,8.164-43.073,24.492v95.44H889.984Z" transform="translate(-270.625 -468.397)" fill="#485743"/>
        </g>
        <g id="Group_135" data-name="Group 135" transform="translate(211.811 601.1)">
          <path id="Path_205" data-name="Path 205" d="M384.149,809.11h-7.934V775.134q0-7.071-2.264-10.248t-7.094-3.18q-7.273,0-15.615,9.053V809.11h-7.934V737.343h7.934v26.55q8.545-9.051,18-9.054,14.9,0,14.9,18.005Z" transform="translate(-343.308 -737.343)" fill="#485743"/>
          <path id="Path_206" data-name="Path 206" d="M418.393,755.053q10.934,0,17.4,7.628t6.458,20.092q0,12.561-6.458,20.242t-17.4,7.679q-10.985,0-17.419-7.654t-6.434-20.266q0-12.514,6.458-20.116T418.393,755.053Zm0,48.725a13.1,13.1,0,0,0,11.393-6.1,25.609,25.609,0,0,0,4.17-14.8q0-9.157-4.12-15.056a14.1,14.1,0,0,0-22.887-.076q-4.07,5.824-4.068,15.132,0,8.847,4.12,14.876A13.059,13.059,0,0,0,418.393,803.778Z" transform="translate(-343.925 -737.557)" fill="#485743"/>
          <path id="Path_207" data-name="Path 207" d="M493.718,809.338h-7.934V801.5q-8.545,9.107-18,9.1-14.9,0-14.9-18.055V756.34h7.934v33.926q0,6.763,2.135,10.095t7.223,3.332q7.272,0,15.614-9.054v-38.3h7.934Z" transform="translate(-344.628 -737.572)" fill="#485743"/>
          <path id="Path_208" data-name="Path 208" d="M543.123,763.9a40.377,40.377,0,0,0-12.562-2.188q-6.46,0-10.223,2.162t-3.763,5.774a5.425,5.425,0,0,0,1.728,3.991q1.732,1.707,6.919,3.18l7.578,2.188a33.37,33.37,0,0,1,8.545,3.534,14.1,14.1,0,0,1,4.958,4.985,13.574,13.574,0,0,1,1.654,6.79,13.826,13.826,0,0,1-6.359,11.978q-6.358,4.4-16.173,4.4-9.765,0-16.124-2.949l1.528-6.866a32.97,32.97,0,0,0,14.29,3.153q6.611,0,10.757-2.466t4.145-6.536a6.927,6.927,0,0,0-2.059-4.907q-2.058-2.163-9.689-4.5-6.154-1.881-9.053-2.822a18.857,18.857,0,0,1-5.391-2.774,12.7,12.7,0,0,1,.916-20.953q6-4.016,15.919-4.019A53.408,53.408,0,0,1,544.9,757.24Z" transform="translate(-345.301 -737.557)" fill="#485743"/>
          <path id="Path_209" data-name="Path 209" d="M605.039,783.077H568.673q0,9,5.214,14.852a16.476,16.476,0,0,0,12.791,5.849,46.425,46.425,0,0,0,14.9-2.595l1.372,6.359a39.637,39.637,0,0,1-16.377,3.152q-11.8,0-19.022-7.578t-7.221-20.446q0-12.613,6.483-20.115a21.129,21.129,0,0,1,16.76-7.5,19.6,19.6,0,0,1,15.309,6.968q6.152,6.97,6.154,18.565Zm-8.646-6.459a14.959,14.959,0,0,0-3.865-10.451q-3.866-4.249-8.646-4.247a13.781,13.781,0,0,0-10.2,4.068,16.107,16.107,0,0,0-4.5,10.63Z" transform="translate(-345.922 -737.557)" fill="#485743"/>
          <path id="Path_210" data-name="Path 210" d="M625.419,763.191a19.082,19.082,0,0,1,7.146-5.9,21.017,21.017,0,0,1,9.485-2.239,16.529,16.529,0,0,1,14.368,7.552q5.214,7.555,5.214,19.659,0,12.206-5.469,20.319t-14.724,8.111a18.248,18.248,0,0,1-9.231-2.465,18.743,18.743,0,0,1-6.79-6.537v28.585h-7.934V756.324h7.934Zm0,7.883V793.1a21.769,21.769,0,0,0,6.053,7.477,12.619,12.619,0,0,0,7.883,3q6.409,0,10.2-6t3.79-14.9q0-9.154-3.611-14.953a11.28,11.28,0,0,0-10.07-5.8Q631.268,761.919,625.419,771.074Z" transform="translate(-346.611 -737.557)" fill="#485743"/>
          <path id="Path_211" data-name="Path 211" d="M709.315,809.11H687.649v-64.9H673.814v-6.868h21.768v64.9h13.733Z" transform="translate(-347.29 -737.343)" fill="#485743"/>
          <path id="Path_212" data-name="Path 212" d="M769.321,809.322h-7.884a30.527,30.527,0,0,1-.967-8.546q-6.765,9.917-18.412,9.918a14.789,14.789,0,0,1-10.4-4.2,14.109,14.109,0,0,1-4.5-10.808,14.652,14.652,0,0,1,1.576-6.917,13.85,13.85,0,0,1,4.628-5.06,24.956,24.956,0,0,1,7.426-3.256,56.039,56.039,0,0,1,10.374-1.653l8.9-.711v-2.542q0-13.632-12.715-13.631a29.247,29.247,0,0,0-7.6,1.3,39.027,39.027,0,0,0-7.907,3.078l-2.086-5.7q10.834-5.542,20.14-5.544,18.107,0,18.107,19.176v22.784A51.807,51.807,0,0,0,769.321,809.322Zm-9.257-15.717v-9.613q-10.731.967-14.725,1.806a16.57,16.57,0,0,0-6.916,3.129,7.456,7.456,0,0,0-2.925,6.2,7.277,7.277,0,0,0,2.493,5.747,9.283,9.283,0,0,0,6.357,2.188,16.105,16.105,0,0,0,8.393-2.518A24.713,24.713,0,0,0,760.063,793.605Z" transform="translate(-347.932 -737.557)" fill="#485743"/>
          <path id="Path_213" data-name="Path 213" d="M822.833,809.322H814.9V775.347q0-7.069-2.263-10.249t-7.1-3.178q-7.273,0-15.614,9.052v38.35h-7.934v-53h7.934v7.782q8.545-9.053,18-9.054,14.9,0,14.9,18Z" transform="translate(-348.593 -737.557)" fill="#485743"/>
          <path id="Path_214" data-name="Path 214" d="M878.194,806.771a37.517,37.517,0,0,1-15.717,3.661q-14.189,0-14.19-15v-32.4H838.115v-6.866h10.173v-14.5h7.732v14.5h18v6.866h-18v30.313q0,4.834,2.136,7.5a7.033,7.033,0,0,0,5.8,2.671,30.748,30.748,0,0,0,12.869-2.9Z" transform="translate(-349.268 -737.395)" fill="#485743"/>
          <path id="Path_215" data-name="Path 215" d="M926.972,763.9a40.38,40.38,0,0,0-12.562-2.188q-6.46,0-10.223,2.162t-3.763,5.774a5.424,5.424,0,0,0,1.728,3.991q1.731,1.707,6.918,3.18l7.578,2.188a33.366,33.366,0,0,1,8.545,3.534,14.089,14.089,0,0,1,4.957,4.985,13.565,13.565,0,0,1,1.655,6.79,13.826,13.826,0,0,1-6.359,11.978q-6.359,4.4-16.173,4.4-9.765,0-16.124-2.949l1.528-6.866a32.97,32.97,0,0,0,14.291,3.153q6.61,0,10.757-2.466t4.145-6.536a6.927,6.927,0,0,0-2.059-4.907q-2.06-2.163-9.689-4.5-6.154-1.881-9.053-2.822a18.86,18.86,0,0,1-5.392-2.774,12.7,12.7,0,0,1,.916-20.953q6-4.016,15.92-4.019a53.407,53.407,0,0,1,14.24,2.187Z" transform="translate(-349.925 -737.557)" fill="#485743"/>
        </g>
        <path id="Path_216" data-name="Path 216" d="M631.665,1134.416a501.207,501.207,0,1,1,195.7-39.512A499.617,499.617,0,0,1,631.665,1134.416Zm0-985.743a481.45,481.45,0,1,0,188,37.952A479.956,479.956,0,0,0,631.665,148.673Z" transform="translate(-128.914 -128.914)" fill="#485743"/>
      </g>
      <g id="Group_727" data-name="Group 727" transform="translate(1994.148 83.734)">
        <g id="Group_720" data-name="Group 720" transform="translate(128.41 0) rotate(17)">
          <path id="Path_1192" data-name="Path 1192" d="M0,169.25A786.572,786.572,0,0,0,34.147,91.731,749.93,749.93,0,0,0,51.265,10.754,223.154,223.154,0,0,1,163.64,4.368c2.306,40.444-32.905,115.3-85.59,179.693C51.176,188.23,25.633,179.8,0,169.25Z" transform="translate(81.652 139.135)" fill="#fff"/>
          <path id="Path_1193" data-name="Path 1193" d="M134.371,0l72.108,23.326C196.9,72.019,123.639,172.154,68.56,212.865,45.766,211.18,24.213,200.98,0,189.538c25.366-30.422,51.442-58.36,73.438-89.137S112.109,37.162,134.371,0Z" transform="translate(349.596 179.777)" fill="#fff"/>
          <path id="Path_1196" data-name="Path 1196" d="M0,188.031C58.36,131.8,90.823,66.52,124.792,0a266.707,266.707,0,0,1,81.421,46.476c1.153,18.182-9.668,29.092-17.739,40.533a475.128,475.128,0,0,1-115.3,108.738,34.946,34.946,0,0,1-33.526,6.475Z" transform="translate(454.165 217.111)" fill="#fff"/>
          <path id="Path_1199" data-name="Path 1199" d="M0,185.621C34.945,126.285,65.456,70.319,76.543,3.71c34.324-8.869,67.23,0,100.49,7.45C162.576,70.674,106.078,156.175,55.434,196.8Z" transform="translate(190.035 143.333)" fill="#fff"/>
          <path id="Path_1201" data-name="Path 1201" d="M106.255,0a300.425,300.425,0,0,1,32.994,3.991c12.594,2.927,24.745,7.716,39.912,12.683a180.837,180.837,0,0,1-8.869,22.706A521.079,521.079,0,0,1,49.58,185.281C33.171,199.029,18.182,204.173,0,188.3,19.424,158.939,40.71,130.468,58.006,99.6S89.226,35.832,106.255,0Z" transform="translate(283.076 158.316)" fill="#fff"/>
          <path id="Path_1202" data-name="Path 1202" d="M80,241.424,47.895,212.865C60.489,136.588,24.657,72.2,0,0A177.386,177.386,0,0,1,24.391,7.628,206.481,206.481,0,0,1,96.5,63.239a63.774,63.774,0,0,1,13.836,27.672C116.9,127.9,101.82,202.133,80,241.424Z" transform="translate(639.713 46.116)" fill="#fff"/>
          <path id="Path_1206" data-name="Path 1206" d="M0,0,66.875,8.248c43.016,48.515,77.962,130.025,73.7,172.243-5.144-1.508-10.111-2.572-14.9-4.346-19.69-7.539-39.291-15.255-62.085-23.947C57.03,99.6,32.994,53.128,0,0Z" transform="translate(426.493 0)" fill="#fff"/>
          <path id="Path_1207" data-name="Path 1207" d="M125.945,223.963C94.725,206.756,72.729,190.969,54.1,179,46.83,144.848,42.484,114.6,33.7,85.867S11.53,29.812,0,1.43c40.711-4.346,51.8,0,65.013,30.067,22.617,50.733,45.854,101.288,56.852,156.189C123.639,196.379,123.905,205.515,125.945,223.963Z" transform="translate(542.326 18.43)" fill="#fff"/>
          <path id="Path_1211" data-name="Path 1211" d="M106.752.337A267.322,267.322,0,0,1,50.609,141.626,49.137,49.137,0,0,1,7.948,110.051c-12.86-27.584-8.869-54.281,3.1-80.711a22.439,22.439,0,0,1,10.2-11.619C48.126,7.965,75.266-1.969,106.752.337Z" transform="translate(0 152.744)" fill="#fff"/>
          <path id="Path_1214" data-name="Path 1214" d="M0,150.779C52.063,105.723,97.563,60.933,122.93,0c18.537,2.217,28.116,14.812,40.356,27.14a365.862,365.862,0,0,1-93.661,127.63,26.608,26.608,0,0,1-17.739,7.1C36.542,160.181,20.222,162.4,0,150.779Z" transform="translate(551.373 277.335)" fill="#fff"/>
          <path id="Path_1216" data-name="Path 1216" d="M137.032,104.948c-32.817,8.426-60.223-7.716-90.556-5.5C40,84.548,34.768,69.825,27.406,56.166S10.555,29.558,0,13.061A209.056,209.056,0,0,1,75.833.023C102,30.356,125.768,62.729,137.032,104.948Z" transform="translate(229.239 9.28)" fill="#fff"/>
          <path id="Path_1218" data-name="Path 1218" d="M0,5.411A226.882,226.882,0,0,1,38.493,0a29.98,29.98,0,0,1,20.4,9.4c28.2,35.478,53.748,72.64,65.633,117.253a50.291,50.291,0,0,1-.887,13.3C97.031,138.717,74.414,129.4,49.048,120.89,43.726,79.559,23.06,44.17,0,5.411Z" transform="translate(344.185 2.028)" fill="#fff"/>
          <path id="Path_1221" data-name="Path 1221" d="M136.943,69.826A51.442,51.442,0,0,1,123.2,75.147H20.045C13.57,60.513,7.184,46.233,0,29.914A123.461,123.461,0,0,1,74.769.024,24.833,24.833,0,0,1,92.508,6.41C109.537,24.858,128.606,41.621,136.943,69.826Z" transform="translate(112.162 31.279)" fill="#fff"/>
          <path id="Path_1236" data-name="Path 1236" d="M0,34.5,35.477,0l19.6,26.608C38.759,42.4,20.311,39.114,3.548,41.952Z" transform="translate(52.294 77.419)" fill="#fff"/>
        </g>
        <g id="Group_721" data-name="Group 721" transform="translate(85.22 616.785)">
          <path id="Path_1203" data-name="Path 1203" d="M100.683,261.288l64.256-50.548a206.259,206.259,0,0,1,21.419,110.52,582.806,582.806,0,0,1-38.34,153.68c-10.174,26.773-30.522,38.554-61.579,48.728,13.065-45.943,33.413-85.675,29.879-128.512C112.035,353.281,106.36,312.05,100.683,261.288Z" transform="translate(92.659 32.987)" fill="#fff"/>
          <path id="Path_1204" data-name="Path 1204" d="M95.94,238.618l70.682-32.128c4.819,6.212,10.709,10.709,11.673,15.743a372.9,372.9,0,0,1-8.889,207.547c-9.638,31.271-39.839,43.373-68.647,67.576,6.533-49.8,12.851-90.815,17.242-132.26S107.292,283.6,95.94,238.618Z" transform="translate(184.899 -8.281)" fill="#fff"/>
          <path id="Path_1208" data-name="Path 1208" d="M76.24,468.379c13.173-31.164,30.308-60.721,37.8-92.529s5.569-66.183,8.246-107.093a185.592,185.592,0,0,1,55.8-50.977c16.6,33.628,13.6,67.148,13.279,99.7-.643,57.617-23.989,108.272-52.155,158.284C117.578,482.515,96.588,487.013,76.24,468.379Z" transform="translate(-6.376 101.329)" fill="#fff"/>
          <path id="Path_1209" data-name="Path 1209" d="M105.27,224.6c33.842-13.172,61.793-23.989,95.634-19.812a146.152,146.152,0,0,1,6.319,27.2A381.038,381.038,0,0,1,175.1,391.342c-10.709,26.988-15.1,28.808-56.867,41.445C127.438,363.283,129.366,295.065,105.27,224.6Z" transform="translate(275.487 -33.677)" fill="#fff"/>
          <path id="Path_1210" data-name="Path 1210" d="M105.16,227.633c40.481-23.989,86.639-32.985,136.009-39.3,32.985,34.7,65.434,68.54,75.822,120.587-30.308,7.389-57.295,3.213-83.854,3.105a34.377,34.377,0,0,1-17.242-6.961C179.376,280.109,143.071,254.514,105.16,227.633Z" transform="translate(274.419 -184.611)" fill="#fff"/>
          <path id="Path_1213" data-name="Path 1213" d="M121.63,190.1c55.581-7.068,99.811,3.32,141.578,34.7,2.035,41.017,6.533,82.034-18.1,123.05l-64.256-24.524C188.778,268.707,144.334,239.149,121.63,190.1Z" transform="translate(434.333 -187.982)" fill="#fff"/>
          <path id="Path_1215" data-name="Path 1215" d="M115,393.244c14.243-64.256,27.951-124.978,16.6-189.984h74.965a173.279,173.279,0,0,1,3.534,34.377c-3.106,28.594-7.925,57.188-12.316,85.675C191.251,367.113,168.547,393.244,115,393.244Z" transform="translate(369.958 -39.648)" fill="#fff"/>
          <path id="Path_1222" data-name="Path 1222" d="M160.873,205.25l67.79,46.478a141.471,141.471,0,0,1-21.419,86.424,136.757,136.757,0,0,1-76.465-.964C140.525,294.887,149.736,254.513,160.873,205.25Z" transform="translate(523.172 -20.326)" fill="#fff"/>
          <path id="Path_1223" data-name="Path 1223" d="M244.888,228.263l-69.5,57.188L76.43,272.921C126.55,197.956,167.031,189.817,244.888,228.263Z" transform="translate(-4.531 -15.71)" fill="#fff"/>
          <path id="Path_1224" data-name="Path 1224" d="M144.059,203.71,205,220.309a440.8,440.8,0,0,1-29.45,118.338c-8.353,23.346-24.846,31.592-51.405,23.561C130.459,311.124,136.884,259.613,144.059,203.71Z" transform="translate(458.702 -35.278)" fill="#fff"/>
          <path id="Path_1225" data-name="Path 1225" d="M96.31,218.3c23.025-26.988,49.477-27.737,79.142-18.848a229.181,229.181,0,0,1,96.384,54.724,231.319,231.319,0,0,1-81.177,20.455,33.2,33.2,0,0,1-17.242-6.747C148.572,251.931,123.4,235.546,96.31,218.3Z" transform="translate(188.491 -125.905)" fill="#fff"/>
          <path id="Path_1226" data-name="Path 1226" d="M86.85,243.044C140.4,186.07,193.943,184.893,246.1,237.9c-1.713,2.463-2.892,6-5.247,7.175-23.025,10.709-46.157,21.419-67.9,32.128Z" transform="translate(96.641 -79.109)" fill="#fff"/>
          <path id="Path_1228" data-name="Path 1228" d="M147.269,224.58c3.855,62.221-8.675,107.843-43.8,150.787C85.155,357.7,79.586,336.493,71.34,314.324,87.4,281.554,112.892,256.28,147.269,224.58Z" transform="translate(-53.952 167.357)" fill="#fff"/>
          <path id="Path_1230" data-name="Path 1230" d="M151.144,274.01l-78.928-5.462a32.128,32.128,0,0,1,19.812-38.232A167.5,167.5,0,0,1,198.48,218.321C187.235,244.773,166.887,257.839,151.144,274.01Z" transform="translate(-55.684 69.734)" fill="#fff"/>
          <path id="Path_1232" data-name="Path 1232" d="M162.712,194.4a143.4,143.4,0,0,1,19.705,26.773c9.1,23.346,11.995,69.932,8.139,106.13-23.989,3.749-35.234-17.028-55.046-26.987C144.185,266.367,152.752,232.954,162.712,194.4Z" transform="translate(569.097 -125.673)" fill="#fff"/>
          <path id="Path_1234" data-name="Path 1234" d="M79.179,305.55a140.19,140.19,0,0,1-6.426-17.885c-6.533-47.335-9-73.894,62.971-63.613C128.764,251.04,115.591,271.174,79.179,305.55Z" transform="translate(-69.716 140.903)" fill="#fff"/>
        </g>
      </g>
      <g id="Group_728" data-name="Group 728" transform="translate(79.034 83.732)">
        <g id="Group_726" data-name="Group 726" transform="translate(874.651 433.637) rotate(163)">
          <path id="Path_1192-2" data-name="Path 1192" d="M0,16.415A812.089,812.089,0,0,1,35.255,96.449a774.266,774.266,0,0,1,17.674,83.6,230.393,230.393,0,0,0,116.021,6.593C171.33,144.89,134.976,67.6,80.583,1.123,52.837-3.181,26.464,5.519,0,16.415Z" transform="translate(84.301 118.645)" fill="#fff"/>
          <path id="Path_1193-2" data-name="Path 1193" d="M138.731,219.771l74.448-24.083C203.288,145.415,127.65,42.031,70.785,0,47.251,1.74,25,12.271,0,24.083c26.189,31.409,53.111,60.254,75.821,92.029S115.746,181.4,138.731,219.771Z" transform="translate(360.938 48.07)" fill="#fff"/>
          <path id="Path_1196-2" data-name="Path 1196" d="M0,16.48C60.254,74.536,93.769,141.932,128.841,210.611A275.36,275.36,0,0,0,212.9,162.627c1.19-18.772-9.981-30.035-18.315-41.848A490.542,490.542,0,0,0,75.546,8.513,36.079,36.079,0,0,0,40.932,1.828Z" transform="translate(468.9 18.685)" fill="#fff"/>
          <path id="Path_1199-2" data-name="Path 1199" d="M0,11.538C36.079,72.8,67.579,130.581,79.026,199.351c35.438,9.157,69.411,0,103.75-7.692C167.85,130.214,109.519,41.94,57.232,0Z" transform="translate(196.2 102.286)" fill="#fff"/>
          <path id="Path_1201-2" data-name="Path 1201" d="M109.7,204.532a310.176,310.176,0,0,0,34.064-4.121c13-3.022,25.548-7.967,41.207-13.095a186.7,186.7,0,0,0-9.157-23.442A537.983,537.983,0,0,0,51.188,13.24C34.248-.954,18.772-6.265,0,10.126c20.054,30.31,42.031,59.7,59.888,91.572S92.121,167.537,109.7,204.532Z" transform="translate(292.26 85.466)" fill="#fff"/>
          <path id="Path_1202-2" data-name="Path 1202" d="M82.6,0,49.448,29.486C62.451,108.237,25.457,174.718,0,249.257a183.145,183.145,0,0,0,25.182-7.875,213.181,213.181,0,0,0,74.447-57.415,65.843,65.843,0,0,0,14.285-28.57C120.691,117.211,105.124,40.566,82.6,0Z" transform="translate(660.468 156.581)" fill="#fff"/>
          <path id="Path_1206-2" data-name="Path 1206" d="M0,186.348l69.045-8.516C113.457,127.742,149.536,43.588,145.14,0c-5.311,1.557-10.439,2.656-15.384,4.487-20.329,7.784-40.566,15.75-64.1,24.724C58.88,83.513,34.064,131.5,0,186.348Z" transform="translate(440.33 267.103)" fill="#fff"/>
          <path id="Path_1207-2" data-name="Path 1207" d="M130.031,0C97.8,17.765,75.089,34.065,55.859,46.427c-7.509,35.255-12,66.481-21.061,96.15S11.9,200.45,0,229.753c42.031,4.487,53.478,0,67.122-31.043,23.351-52.379,47.342-104.574,58.7-161.257C127.651,28.479,127.925,19.047,130.031,0Z" transform="translate(559.921 203.193)" fill="#fff"/>
          <path id="Path_1211-2" data-name="Path 1211" d="M110.216,145.873A276,276,0,0,0,52.251,0,50.731,50.731,0,0,0,8.205,32.6c-13.278,28.479-9.157,56.042,3.205,83.33a23.167,23.167,0,0,0,10.531,12C49.687,138,77.708,148.254,110.216,145.873Z" transform="translate(0 149.53)" fill="#fff"/>
          <path id="Path_1214-2" data-name="Path 1214" d="M0,11.447c53.752,46.518,100.728,92.762,126.918,155.671,19.138-2.289,29.028-15.292,41.665-28.021A377.732,377.732,0,0,0,71.883,7.326,27.472,27.472,0,0,0,53.569,0C37.727,1.74,20.878-.549,0,11.447Z" transform="translate(569.262 0)" fill="#fff"/>
          <path id="Path_1216-2" data-name="Path 1216" d="M141.478,2.535C107.6-6.164,79.3,10.5,47.983,8.213,41.3,23.6,35.9,38.8,28.3,52.9S10.9,80.371,0,97.4a215.838,215.838,0,0,0,78.294,13.461C105.307,79.547,129.848,46.123,141.478,2.535Z" transform="translate(236.677 332.982)" fill="#fff"/>
          <path id="Path_1218-2" data-name="Path 1218" d="M0,138.914A234.24,234.24,0,0,0,39.742,144.5,30.952,30.952,0,0,0,60.8,134.793c29.12-36.629,55.492-75,67.763-121.057A51.925,51.925,0,0,0,127.65,0C100.179,1.282,76.828,10.9,50.639,19.688,45.144,62.36,23.809,98.9,0,138.914Z" transform="translate(355.352 306.857)" fill="#fff"/>
          <path id="Path_1221-2" data-name="Path 1221" d="M141.386,5.494A53.111,53.111,0,0,0,127.193,0H20.7C14.01,15.109,7.417,29.852,0,46.7A127.467,127.467,0,0,0,77.195,77.561a25.639,25.639,0,0,0,18.314-6.593C113.091,51.921,132.778,34.614,141.386,5.494Z" transform="translate(115.801 343.572)" fill="#fff"/>
          <path id="Path_1236-2" data-name="Path 1236" d="M0,7.692,36.628,43.313,56.866,15.842C40.017-.458,20.97,2.93,3.663,0Z" transform="translate(53.991 330.207)" fill="#fff"/>
        </g>
        <g id="Group_725" data-name="Group 725" transform="translate(0.649 636.791)">
          <path id="Path_1203-2" data-name="Path 1203" d="M169.893,259.553l-62.05-48.813A199.179,199.179,0,0,0,87.159,317.466a562.8,562.8,0,0,0,37.023,148.4c9.825,25.854,29.474,37.23,59.465,47.055-12.617-44.366-32.266-82.734-28.853-124.1C158.93,348.388,164.411,308.572,169.893,259.553Z" transform="translate(378.585 24.62)" fill="#fff"/>
          <path id="Path_1204-2" data-name="Path 1204" d="M185.744,237.515,117.489,206.49c-4.654,6-10.342,10.342-11.272,15.2A360.1,360.1,0,0,0,114.8,422.115c9.307,30.2,38.471,41.884,66.29,65.256-6.309-48.089-12.41-87.7-16.65-127.72S174.782,280.95,185.744,237.515Z" transform="translate(278.241 -15.085)" fill="#fff"/>
          <path id="Path_1208-2" data-name="Path 1208" d="M187.811,459.776c-12.72-30.094-29.267-58.637-36.506-89.353s-5.378-63.912-7.963-103.417a179.221,179.221,0,0,0-53.88-49.227c-16.03,32.473-13.134,64.843-12.824,96.281C77.258,369.7,99.8,418.616,127,466.912,147.892,473.427,168.162,477.771,187.811,459.776Z" transform="translate(479.907 90.375)" fill="#fff"/>
          <path id="Path_1209-2" data-name="Path 1209" d="M203.77,223.886c-32.68-12.72-59.672-23.166-92.351-19.132a141.134,141.134,0,0,0-6.1,26.268,367.958,367.958,0,0,0,31.025,153.885c10.342,26.061,14.582,27.819,54.914,40.023C182.363,357.811,180.5,291.935,203.77,223.886Z" transform="translate(163.726 -39.52)" fill="#fff"/>
          <path id="Path_1210-2" data-name="Path 1210" d="M309.719,226.284c-39.092-23.165-83.664-31.852-131.34-37.954-31.852,33.507-63.188,66.187-73.219,116.448,29.267,7.136,55.328,3.1,80.976,3a33.2,33.2,0,0,0,16.65-6.722C238.051,276.958,273.109,252.242,309.719,226.284Z" transform="translate(58.915 -184.739)" fill="#fff"/>
          <path id="Path_1213-2" data-name="Path 1213" d="M259.978,190.028c-53.673-6.826-96.385,3.206-136.717,33.507-1.965,39.609-6.308,79.218,17.478,118.826l62.05-23.682C195.135,265.936,238.053,237.393,259.978,190.028Z" transform="translate(-61.672 -187.982)" fill="#fff"/>
          <path id="Path_1215-2" data-name="Path 1215" d="M206.834,386.722C193.08,324.672,179.843,266.034,190.8,203.26H118.413a167.327,167.327,0,0,0-3.413,33.2c3,27.612,7.653,55.225,11.893,82.734C133.2,361.488,155.126,386.722,206.834,386.722Z" transform="translate(60.039 -45.264)" fill="#fff"/>
          <path id="Path_1222-2" data-name="Path 1222" d="M196.65,205.25l-65.463,44.883a136.615,136.615,0,0,0,20.684,83.458,132.062,132.062,0,0,0,73.84-.931C216.3,291.81,207.405,252.822,196.65,205.25Z" transform="translate(-122.03 -26.674)" fill="#fff"/>
          <path id="Path_1223-2" data-name="Path 1223" d="M76.43,227.49l67.118,55.225,95.558-12.1C190.706,198.222,151.614,190.363,76.43,227.49Z" transform="translate(426.647 -22.233)" fill="#fff"/>
          <path id="Path_1224-2" data-name="Path 1224" d="M182.984,203.71,124.14,219.74a425.67,425.67,0,0,0,28.439,114.276c8.067,22.545,23.993,30.508,49.641,22.752C196.118,307.437,189.913,257.694,182.984,203.71Z" transform="translate(-29.87 -41.06)" fill="#fff"/>
          <path id="Path_1225-2" data-name="Path 1225" d="M265.811,217.483c-22.235-26.061-47.779-26.785-76.425-18.2A221.313,221.313,0,0,0,96.31,252.127,223.377,223.377,0,0,0,174.7,271.88a32.062,32.062,0,0,0,16.65-6.515C215.343,249.956,239.646,234.133,265.811,217.483Z" transform="translate(194.349 -128.256)" fill="#fff"/>
          <path id="Path_1226-2" data-name="Path 1226" d="M240.631,241.539c-51.709-55.018-103.417-56.155-153.781-4.964,1.655,2.378,2.792,5.791,5.067,6.929,22.235,10.342,44.573,20.683,65.567,31.025Z" transform="translate(317.36 -83.231)" fill="#fff"/>
          <path id="Path_1228-2" data-name="Path 1228" d="M71.988,224.58c-3.723,60.085,8.377,104.141,42.3,145.611,17.684-17.064,23.062-37.54,31.025-58.948C129.8,279.6,105.184,255.191,71.988,224.58Z" transform="translate(573.082 153.903)" fill="#fff"/>
          <path id="Path_1230-2" data-name="Path 1230" d="M116.872,271.968l76.218-5.274a31.025,31.025,0,0,0-19.132-36.92,161.746,161.746,0,0,0-102.8-11.583C82.02,243.735,101.67,256.352,116.872,271.968Z" transform="translate(526.128 59.976)" fill="#fff"/>
          <path id="Path_1232-2" data-name="Path 1232" d="M164.006,194.4a138.478,138.478,0,0,0-19.029,25.854c-8.791,22.545-11.583,67.532-7.86,102.486,23.166,3.62,34.024-16.443,53.156-26.061C181.9,263.9,173.624,231.63,164.006,194.4Z" transform="translate(-135.51 -128.032)" fill="#fff"/>
          <path id="Path_1234-2" data-name="Path 1234" d="M124.321,302.677a135.387,135.387,0,0,0,6.205-17.271c6.308-45.71,8.687-71.358-60.809-61.43C76.438,250.038,89.159,269.481,124.321,302.677Z" transform="translate(601.725 128.45)" fill="#fff"/>
        </g>
      </g>
      <g id="Group_719" data-name="Group 719" transform="translate(0 1599.617)">
        <path id="Path_1173" data-name="Path 1173" d="M349.222,1217.515c-.394-13.225-7.541-23.861-15.138-33.315-16.038-19.865-33.033-39-50.647-57.681-8.891-9.51-19.809-17.22-29.488-26.112-5.627-5.064-10.3-10.861-16.319-17.276,18.458-16.151,41.137-24.254,63.815-34.721a67.525,67.525,0,0,1,9.9,9.736,308.966,308.966,0,0,1,24.254,38.491c14.913,31.12,28.137,63.027,42.431,94.485a212.947,212.947,0,0,1,16.319,64.04c5.627,50.084,11.255,100.281,16.488,150.478.732,6.528,1.351,12.83,11.255,11.255,4.615-9.623,2.307-20.034,1.519-29.938q-5.233-65.166-11.536-130.219c-2.589-26.111-6.472-52.11-9.51-78.221-2.532-21.947-4.671-44.007-6.978-66.01-3.827-35.734-8.441-71.412-11.255-107.2A568.382,568.382,0,0,0,370.1,913.183a268.038,268.038,0,0,0-49.184-101.744A900.4,900.4,0,0,1,221.31,651.451c-21.835-45.02-35.115-92.965-49.747-140.686A1005.734,1005.734,0,0,1,141.288,383.81a545.185,545.185,0,0,1-5.627-123.8c2.307-36.578,4.277-73.157,6.584-109.791,2.589-40.011,5.627-80.022,8.16-120.033a39.4,39.4,0,0,1,1.913-7.259c7.766-3.208,11.255,1.351,14.068,6.134,11.255,18.964,22.51,37.985,34.046,57.006,14.8,24.986,29.094,50.253,44.513,74.9C312.981,269.685,363.853,385.61,391.259,511.271c4,18.177,6.7,36.691,9.9,55.093a44.683,44.683,0,0,1-2.251,24.367,221.832,221.832,0,0,0-13.449,89.195q1.407,35.284,2.532,70.456c0,1.069-1.069,2.195-2.589,5.065-16.32-33.765-29.938-67.529-43.163-101.294S315.289,586,302.852,551.62,277.7,481.333,266.724,445.711s-18.57-70.906-29.769-105.74S220.073,269.347,211.8,233.951c-4.9,8.047-2.589,16.094-1.857,23.8a550.653,550.653,0,0,0,16.939,91.333c9.735,36.016,19.471,72.087,28.137,108.328,11.255,47.158,29.432,92.121,46.089,137.478s34.215,89.026,52.223,133.2a416.868,416.868,0,0,0,40.686,76.871,47.325,47.325,0,0,1,6.134,15.082c7.6,30.895,15.082,61.9,22.228,92.74a170.559,170.559,0,0,1,4.052,26.674c3.264,45.02,5.909,89.7,9.341,134.552,2.7,35.171,6.246,70.287,9.285,105.4,2.42,27.574,4.952,55.093,6.809,82.723,3.095,46.2,5.627,92.459,8.441,138.716,0,4.108,1.013,8.1,1.744,13.45l14.744,1.519a90.991,90.991,0,0,0,1.632-14.913c-1.126-20.034-3.658-40.011-3.939-60.045-.844-61.564-.9-123.128-1.069-184.749a74.28,74.28,0,0,1,2.532-18.289c.45-1.8,4.052-3.433,6.472-3.826,1.351,0,3.827,1.8,4.558,3.376a30.5,30.5,0,0,1,2.645,9.848c1.407,15.138,2.87,30.276,3.6,45.47,3.208,67.023,6.19,134.1,9.4,201.124.338,6.809,1.8,13.562,2.87,21.272l14.519.957a36.767,36.767,0,0,0,2.645-6.528,45.061,45.061,0,0,0,.338-8.272q-3.6-118.176-7.316-236.352a47.04,47.04,0,0,0-1.294-12.324c-11.592-38.323-19.133-77.828-35.284-114.856-12.211-27.8-23.466-56.274-33.145-84.974-7.879-23.523-12.943-48-18.908-72.144-10.073-40.911-20.709-81.823-25.323-123.8s-6.471-85.424,1.407-128.137a231.508,231.508,0,0,1,18.4-54.868,200.506,200.506,0,0,1,90.039-97.242,174.434,174.434,0,0,1,33.146-11.255,26.953,26.953,0,0,1,14.181,0c20.315,6.134,40.461,12.887,60.945,19.527a24.2,24.2,0,0,1-2.026,7.2c-24.7,32.245-39.786,69.387-55.205,106.471A816.937,816.937,0,0,0,513.6,765.237a541.756,541.756,0,0,0-6.584,173.382,24.778,24.778,0,0,0,2.532,5.177,71.746,71.746,0,0,0,2.026-26.618c0-33.2-1.182-66.347,3.714-99.437A848.5,848.5,0,0,1,539.036,710.82c14.069-49.409,35.34-96,56.274-142.6,16.882-37.029,28.137-56.668,48.115-75.971,17.9,0,35.509,6.809,53.63,10.073s36.409,4.108,58.131,10.917c-11.255,4.9-18.627,8.329-26.167,11.255a80.133,80.133,0,0,0-28.137,20.259,306.581,306.581,0,0,0-73.775,141.98c-23.748,100.956-45.02,202.588-60.72,304.951a953.783,953.783,0,0,0-11.536,169.5c.619,25.6-.9,51.209-.507,76.758.507,33.765,1.97,67.811,3.1,101.688.732,20.765,1.576,41.474,2.476,62.239,0,5.628,1.125,10.748,1.857,17.671l21.328,2.082a110.213,110.213,0,0,0,2.814-12.774c4.164-50.647.338-100.9-.394-151.378-.957-64.322-3.208-128.643-2.476-192.965A483.453,483.453,0,0,1,610.56,911.832a300.5,300.5,0,0,1,64.772-105.346,393.194,393.194,0,0,1,114.631-84.412A1190.98,1190.98,0,0,1,950.12,654.546a99.871,99.871,0,0,1,11.873-3.714,7.653,7.653,0,0,1,9.566,9.679,112.557,112.557,0,0,1-9.454,22.847A801.113,801.113,0,0,0,905.832,803.5c-15.419,42.206-30.5,84.412-46.032,126.674a501.619,501.619,0,0,1-43.444,94.035,364.132,364.132,0,0,1-31.345,43.5c-30.163,35.172-61.17,69.555-92.065,104.051a386.056,386.056,0,0,0-45.694,58.976,95.1,95.1,0,0,0-11.874,37.085c-5.909,45.019-3.377,90.039-2.87,134.72,0,8.216,1.463,16.432,2.307,25.492,12.324,3.6,24.029,7.372,35.959,10.467,26.73,6.922,42.543,22.51,47.045,51.041,7.541,47.721,16.432,95.272,25.549,142.824,8.779,45.863,8.779,92.121,7.54,138.491a372.349,372.349,0,0,1-27.8,124.816,26.5,26.5,0,0,1-15.363,15.813,286.894,286.894,0,0,1-28.869,11.255,478.33,478.33,0,0,1-122.284,20.484c-43.557.788-87.225,1.857-130.726-.394s-87.113-3.6-129.431-15.87c-6.64-1.913-13.168-4.164-19.7-6.359-26-8.666-40.124-27.012-46.877-53.348a462.461,462.461,0,0,1-3.77-217.726c14.069-63.421,29.488-126.448,48.227-188.744a41.53,41.53,0,0,1,30.05-30.951c14.575-4,29.713-5.627,44.626-8.554,5.628-.957,10.692-1.576,16.545-2.476a59.415,59.415,0,0,0,1.182-10.917c-2.926-31.626-5.29-63.365-13.056-94.316A136.577,136.577,0,0,0,327.5,1264.5c-6.7-8.779-13.956-17.22-20.259-26.28a132.92,132.92,0,0,0-48.058-41.587,650.836,650.836,0,0,1-89.251-56.274c8.16-13.281,34.046-36.8,52.391-47.271a147.2,147.2,0,0,1,12.718,8.948c22.51,19.64,45.02,38.829,66.4,59.538,12.774,12.437,22.9,27.518,34.553,41.193,4.221,5.009,5.177,13.168,13.45,14.294l.788,2.476c0-.45.338-1.013,0-1.238a4.9,4.9,0,0,0-1.013-.788Zm443.5-378.445-5.008,7.653C758.224,891.011,728,934.792,699.53,979.7a517.16,517.16,0,0,0-50.309,99.831c-11.536,31.851-23.466,63.59-28.869,97.242a38.043,38.043,0,0,0,.9,23.579,67.5,67.5,0,0,0,4.952-9c4.783-15.138,9.623-30.275,14.069-45.526A728.521,728.521,0,0,1,710.166,986.79c23.185-40.123,47.158-79.741,70.68-119.7,3.489-5.627,6.247-12.155,9.4-18.289l3.545-8.835,2.082-4.389Zm-63.2,942.314c-6.753,1.688-11.255,2.926-15.926,3.883a90.036,90.036,0,0,1-62.239-9,94.708,94.708,0,0,1-48-61.9,194.875,194.875,0,0,0-15.757-40.349c-13-25.155-39.392-34.1-65.166-28.137a86.045,86.045,0,0,0-53.573,32.752c-3.658,5.065-7.766,9.736-11.874,14.463-18.683,21.666-43.556,30.951-70.962,34.271a46.261,46.261,0,0,1-20.371-2.025c-29.094-10.017-50.647-28.475-59.088-58.919a103.715,103.715,0,0,1,4.952-73.157,161.728,161.728,0,0,1,29.769-44.569c8.554-9.06,17.332-17.9,25.492-27.237,4.84-5.628,10.523-10.974,10.861-19.978l-86.888-22.51c-1.857,4.446-3.77,7.991-4.9,11.761a1151.64,1151.64,0,0,0-37.141,167.641c-1.857,13,0,21.947,10.692,30.445a222.221,222.221,0,0,1,47.664,54.3,98.2,98.2,0,0,1,15.644,65.222,246.257,246.257,0,0,1-20.54,79.91,129.765,129.765,0,0,0-4.671,14.463l28.756,7.09a182.552,182.552,0,0,0,35.847-41.53c11.649-16.882,22.51-34.834,34.89-51.491,11.255-15.475,23.973-30.276,36.8-44.738a93.751,93.751,0,0,1,35.34-24.873c66.066-26.787,112.943,13.45,121.665,60.664A263.785,263.785,0,0,0,597.054,1834a49.521,49.521,0,0,0,36.747,35.9,106.911,106.911,0,0,0,32.752,2.814c12.268-.732,24.423-4.39,36.747-5.965a16.263,16.263,0,0,0,15.532-13.9c2.363-10.073,5.627-19.921,7.428-30.107C728.117,1809.8,733.069,1797.2,729.524,1781.384ZM420.015,1506.54c-12.493,28.756-34.327,49.128-54.3,71.131A170.814,170.814,0,0,0,345.9,1606.6a64.211,64.211,0,0,0-4.389,50.647,45.02,45.02,0,0,0,58.469,30.5,74.054,74.054,0,0,0,39-29.319,124.536,124.536,0,0,1,71.131-47.1c38.548-10.636,87.563.957,109.735,45.019,6.528,12.887,11.536,26.505,16.882,39.955,2.589,6.359,4.108,13.168,6.528,19.64,8.779,24.029,43.05,45.019,73.945,29.432,4.84-2.42,9.623-5.065,13.731-7.26,5.627-32.808,0-101.744-11.255-129.713-6.753,0-13.618.338-20.427,0a112.078,112.078,0,0,1-26.562-2.926,121.555,121.555,0,0,1-71.243-56.724c-4.389-7.822-8.5-15.869-12.324-23.973a25.042,25.042,0,0,0-29.825-15.757,401.867,401.867,0,0,1-103.32,0c-10.917-1.746-21.947-1.8-36.015-2.477Zm-48.227,411.816c5.965,1.013,8.61,1.744,11.255,1.857,25.267,1.238,22.51,6.528,37.141-16.32a40.705,40.705,0,0,1,6.753-7.822c35.847-34.271,91.277-35,119.977,13.618,2.082,3.546,4.5,6.866,6.7,10.186,24.2,2.138,47.271-2.533,70.512-5.628,1.576,0,2.87-2.364,5.628-4.5a65.734,65.734,0,0,0-7.653-4.052c-37.366-13.225-58.807-39.392-64.941-78.784a116.263,116.263,0,0,0-4.9-20.09,43.163,43.163,0,0,0-44.119-30.726,58.3,58.3,0,0,0-39.9,14.744A166.411,166.411,0,0,0,445.4,1814.7c-14.631,19.19-28.137,39.111-42.375,58.807-10.13,14.35-19.809,28.418-31.289,44.85Zm342.261-351.6c-1.857-23.523-12.549-66.348-19.64-79.178-23.635,5.627-48.171,8.1-73.157,15.081a100.169,100.169,0,0,0,15.926,32.189,86.1,86.1,0,0,0,43.782,33.2,39.39,39.39,0,0,0,33.033-1.294Zm-449.126,311.7a171.243,171.243,0,0,0,19.246-91.952,42.205,42.205,0,0,0-6.528-19.246c-9.229-13.675-19.527-26.562-29.713-39.392-1.745-2.139-5.29-2.87-8.441-4.5-6.19,33.033-3.377,68.261,9.4,117.445,3.1,12.212,3.827,25.717,15.982,37.647Zm241.361,43.275c-6.64-11.649-15.7-13-25.436-12.324s-18.458,2.138-24.029,13.337a175.684,175.684,0,0,0,49.409-1.013Z" transform="translate(49.707 -21.849)" fill="#fff"/>
        <path id="Path_1174" data-name="Path 1174" d="M101.67,379.5a99.711,99.711,0,0,1,8.723-12.831c23.3-24.592,46.145-49.69,70.4-73.157,33.765-32.864,68.542-64.49,112.1-84.411,5.628-2.589,11.255-5.009,16.882-7.372a94.484,94.484,0,0,1,87.563,6.359c10.692,6.3,21.328,12.831,31.514,19.977,5.628,3.77,11.705,7.372,13.844,15.194a23.233,23.233,0,0,1-4.84,3.32,317.272,317.272,0,0,0-108.5,67.529c-11.592,10.861-24.085,20.709-36.241,31.007a35.113,35.113,0,0,1-6.584,5.008c-26.393,13.562-52.223,28.137-80.585,37.7a92.123,92.123,0,0,1-38.829,4.84c-16.488-1.688-32.921-3.714-49.3-6.3A81.939,81.939,0,0,1,101.67,379.5Z" transform="translate(-101.67 774.186)" fill="#fff"/>
        <path id="Path_1175" data-name="Path 1175" d="M215.74,139.331c1.857-2.42,2.7-4.558,4.277-5.627,29.375-17.614,60.5-29.544,95.385-29.994s70.287-1.294,105.4-2.082a313.223,313.223,0,0,0,73.719-9.06c5.234-1.407,11.536-3.151,15.363,2.251a13.449,13.449,0,0,1-1.97,17.22,167.244,167.244,0,0,1-18.57,19.3,361.171,361.171,0,0,1-65.954,42.487,33.258,33.258,0,0,1-17.67,3.6c-26.73-2.589-53.629-4.558-79.91-9.623-32.414-6.247-64.265-15.307-96.342-23.354A115.782,115.782,0,0,1,215.74,139.331Z" transform="translate(426.182 298.767)" fill="#fff"/>
      </g>
      <g id="Group_729" data-name="Group 729" transform="translate(1881.158 1599.617)">
        <path id="Path_1173-2" data-name="Path 1173" d="M757.1,1217.515c.394-13.225,7.541-23.861,15.138-33.315,16.038-19.865,33.033-39,50.647-57.681,8.891-9.51,19.809-17.22,29.488-26.112,5.627-5.064,10.3-10.861,16.319-17.276-18.458-16.151-41.137-24.254-63.815-34.721a67.523,67.523,0,0,0-9.9,9.736,308.955,308.955,0,0,0-24.254,38.491c-14.913,31.12-28.137,63.027-42.431,94.485a212.947,212.947,0,0,0-16.319,64.04c-5.627,50.084-11.255,100.281-16.488,150.478-.732,6.528-1.351,12.83-11.255,11.255-4.615-9.623-2.307-20.034-1.519-29.938q5.233-65.166,11.536-130.219c2.589-26.111,6.472-52.11,9.51-78.221,2.532-21.947,4.671-44.007,6.978-66.01,3.827-35.734,8.441-71.412,11.255-107.2a568.376,568.376,0,0,1,14.238-92.121,268.036,268.036,0,0,1,49.184-101.744,900.393,900.393,0,0,0,99.605-159.988c21.835-45.02,35.115-92.965,49.747-140.686A1005.715,1005.715,0,0,0,965.034,383.81a545.2,545.2,0,0,0,5.628-123.8c-2.307-36.578-4.277-73.157-6.584-109.791-2.589-40.011-5.628-80.022-8.16-120.033A39.381,39.381,0,0,0,954,22.922c-7.766-3.208-11.255,1.351-14.068,6.134-11.255,18.964-22.51,37.985-34.046,57.006-14.8,24.986-29.094,50.253-44.513,74.9C793.341,269.685,742.469,385.61,715.063,511.271c-4,18.177-6.7,36.691-9.9,55.093a44.682,44.682,0,0,0,2.251,24.367,221.833,221.833,0,0,1,13.449,89.195q-1.407,35.284-2.532,70.456c0,1.069,1.069,2.195,2.589,5.065,16.32-33.765,29.938-67.529,43.163-101.294S791.033,586,803.47,551.62s25.155-70.287,36.128-105.908,18.57-70.906,29.769-105.74,16.882-70.624,25.155-106.021c4.9,8.047,2.589,16.094,1.857,23.8a550.651,550.651,0,0,1-16.939,91.333C869.7,385.1,859.969,421.176,851.3,457.416c-11.255,47.158-29.432,92.121-46.089,137.478S771,683.921,752.992,728.1a416.868,416.868,0,0,1-40.686,76.871,47.324,47.324,0,0,0-6.134,15.082c-7.6,30.895-15.082,61.9-22.228,92.74a170.559,170.559,0,0,0-4.052,26.674c-3.264,45.02-5.909,89.7-9.341,134.552-2.7,35.171-6.247,70.287-9.286,105.4-2.419,27.574-4.952,55.093-6.809,82.723-3.095,46.2-5.627,92.459-8.441,138.716,0,4.108-1.013,8.1-1.744,13.45l-14.744,1.519a90.981,90.981,0,0,1-1.632-14.913c1.125-20.034,3.658-40.011,3.939-60.045.844-61.564.9-123.128,1.069-184.749a74.279,74.279,0,0,0-2.532-18.289c-.45-1.8-4.052-3.433-6.471-3.826-1.351,0-3.827,1.8-4.558,3.376a30.5,30.5,0,0,0-2.645,9.848c-1.407,15.138-2.87,30.276-3.6,45.47-3.208,67.023-6.19,134.1-9.4,201.124-.338,6.809-1.8,13.562-2.87,21.272l-14.519.957a36.767,36.767,0,0,1-2.645-6.528,45.05,45.05,0,0,1-.338-8.272q3.6-118.176,7.316-236.352a47.04,47.04,0,0,1,1.294-12.324c11.592-38.323,19.133-77.828,35.284-114.856,12.211-27.8,23.466-56.274,33.146-84.974,7.878-23.523,12.943-48,18.908-72.144,10.073-40.911,20.709-81.823,25.323-123.8s6.471-85.424-1.407-128.137a231.505,231.505,0,0,0-18.4-54.868,200.506,200.506,0,0,0-90.039-97.242A174.434,174.434,0,0,0,561.6,465.295a26.954,26.954,0,0,0-14.181,0c-20.315,6.134-40.461,12.887-60.945,19.527a24.2,24.2,0,0,0,2.026,7.2c24.7,32.245,39.786,69.387,55.205,106.471a816.937,816.937,0,0,1,49.015,166.741,541.758,541.758,0,0,1,6.584,173.382,24.778,24.778,0,0,1-2.532,5.177,71.747,71.747,0,0,1-2.026-26.618c0-33.2,1.182-66.347-3.714-99.437A848.485,848.485,0,0,0,567.286,710.82c-14.069-49.409-35.34-96-56.274-142.6-16.882-37.029-28.137-56.668-48.114-75.971-17.9,0-35.509,6.809-53.63,10.073s-36.409,4.108-58.131,10.917c11.255,4.9,18.627,8.329,26.167,11.255a80.132,80.132,0,0,1,28.137,20.259,306.581,306.581,0,0,1,73.775,141.98c23.748,100.956,45.02,202.588,60.72,304.951a953.789,953.789,0,0,1,11.536,169.5c-.619,25.6.9,51.209.507,76.758-.507,33.765-1.97,67.811-3.1,101.688-.732,20.765-1.576,41.474-2.476,62.239,0,5.628-1.125,10.748-1.857,17.671l-21.328,2.082a110.226,110.226,0,0,1-2.814-12.774c-4.164-50.647-.338-100.9.394-151.378.957-64.322,3.208-128.643,2.476-192.965a483.453,483.453,0,0,0-27.518-152.672A300.5,300.5,0,0,0,430.99,806.486a393.194,393.194,0,0,0-114.631-84.412A1190.977,1190.977,0,0,0,156.2,654.546a99.884,99.884,0,0,0-11.873-3.714,7.653,7.653,0,0,0-9.566,9.679,112.562,112.562,0,0,0,9.454,22.847A801.109,801.109,0,0,1,200.49,803.5c15.419,42.206,30.5,84.412,46.033,126.674a501.625,501.625,0,0,0,43.444,94.035,364.129,364.129,0,0,0,31.345,43.5c30.163,35.172,61.17,69.555,92.065,104.051a386.064,386.064,0,0,1,45.694,58.976,95.105,95.105,0,0,1,11.874,37.085c5.909,45.019,3.377,90.039,2.87,134.72,0,8.216-1.463,16.432-2.307,25.492-12.324,3.6-24.029,7.372-35.959,10.467-26.73,6.922-42.543,22.51-47.045,51.041-7.541,47.721-16.432,95.272-25.549,142.824-8.779,45.863-8.779,92.121-7.54,138.491a372.356,372.356,0,0,0,27.8,124.816,26.5,26.5,0,0,0,15.363,15.813,286.9,286.9,0,0,0,28.869,11.255,478.331,478.331,0,0,0,122.284,20.484c43.557.788,87.225,1.857,130.726-.394s87.113-3.6,129.431-15.87c6.64-1.913,13.168-4.164,19.7-6.359,26-8.666,40.124-27.012,46.877-53.348a462.462,462.462,0,0,0,3.77-217.726c-14.069-63.421-29.488-126.448-48.227-188.744a41.53,41.53,0,0,0-30.05-30.951c-14.575-4-29.713-5.627-44.626-8.554-5.627-.957-10.692-1.576-16.545-2.476a59.415,59.415,0,0,1-1.182-10.917c2.926-31.626,5.29-63.365,13.056-94.316a136.578,136.578,0,0,1,26.168-49.071c6.7-8.779,13.956-17.22,20.259-26.28a132.921,132.921,0,0,1,48.058-41.587,650.837,650.837,0,0,0,89.251-56.274c-8.16-13.281-34.046-36.8-52.391-47.271a147.207,147.207,0,0,0-12.718,8.948c-22.51,19.64-45.02,38.829-66.4,59.538-12.774,12.437-22.9,27.518-34.553,41.193-4.221,5.009-5.177,13.168-13.45,14.294l-.788,2.476c0-.45-.338-1.013,0-1.238a4.9,4.9,0,0,1,1.013-.788ZM313.6,839.069l5.008,7.653c29.488,44.288,59.707,88.07,88.182,132.977A517.162,517.162,0,0,1,457.1,1079.53c11.536,31.851,23.466,63.59,28.869,97.242a38.043,38.043,0,0,1-.9,23.579,67.485,67.485,0,0,1-4.952-9c-4.783-15.138-9.623-30.275-14.069-45.526A728.522,728.522,0,0,0,396.156,986.79c-23.185-40.123-47.158-79.741-70.68-119.7-3.489-5.627-6.247-12.155-9.4-18.289l-3.545-8.835-2.082-4.389Zm63.2,942.314c6.753,1.688,11.255,2.926,15.926,3.883a90.036,90.036,0,0,0,62.239-9,94.708,94.708,0,0,0,48-61.9,194.879,194.879,0,0,1,15.757-40.349c13-25.155,39.392-34.1,65.165-28.137a86.045,86.045,0,0,1,53.573,32.752c3.658,5.065,7.766,9.736,11.874,14.463,18.683,21.666,43.557,30.951,70.962,34.271a46.262,46.262,0,0,0,20.371-2.025c29.094-10.017,50.647-28.475,59.088-58.919a103.714,103.714,0,0,0-4.952-73.157,161.729,161.729,0,0,0-29.769-44.569c-8.554-9.06-17.332-17.9-25.492-27.237-4.84-5.628-10.523-10.974-10.861-19.978l86.888-22.51c1.857,4.446,3.77,7.991,4.9,11.761a1151.647,1151.647,0,0,1,37.141,167.641c1.857,13,0,21.947-10.692,30.445a222.22,222.22,0,0,0-47.664,54.3,98.2,98.2,0,0,0-15.644,65.222,246.261,246.261,0,0,0,20.54,79.91,129.739,129.739,0,0,1,4.671,14.463l-28.756,7.09a182.553,182.553,0,0,1-35.847-41.53c-11.649-16.882-22.51-34.834-34.89-51.491-11.255-15.475-23.973-30.276-36.8-44.738a93.75,93.75,0,0,0-35.34-24.873c-66.066-26.787-112.943,13.45-121.665,60.664A263.819,263.819,0,0,1,509.268,1834a49.521,49.521,0,0,1-36.748,35.9,106.91,106.91,0,0,1-32.752,2.814c-12.268-.732-24.423-4.39-36.747-5.965a16.263,16.263,0,0,1-15.532-13.9c-2.363-10.073-5.627-19.921-7.428-30.107C378.2,1809.8,373.252,1797.2,376.8,1781.384ZM686.306,1506.54c12.493,28.756,34.327,49.128,54.3,71.131A170.806,170.806,0,0,1,760.42,1606.6a64.211,64.211,0,0,1,4.389,50.647,45.019,45.019,0,0,1-58.469,30.5,74.055,74.055,0,0,1-39-29.319,124.535,124.535,0,0,0-71.131-47.1c-38.548-10.636-87.563.957-109.735,45.019-6.528,12.887-11.536,26.505-16.882,39.955-2.589,6.359-4.108,13.168-6.528,19.64-8.779,24.029-43.05,45.019-73.945,29.432-4.84-2.42-9.623-5.065-13.731-7.26-5.627-32.808,0-101.744,11.255-129.713,6.753,0,13.618.338,20.427,0a112.078,112.078,0,0,0,26.562-2.926,121.554,121.554,0,0,0,71.243-56.724c4.389-7.822,8.5-15.869,12.324-23.973a25.042,25.042,0,0,1,29.825-15.757,401.867,401.867,0,0,0,103.32,0c10.917-1.746,21.947-1.8,36.015-2.477Zm48.227,411.816c-5.965,1.013-8.61,1.744-11.255,1.857-25.267,1.238-22.51,6.528-37.141-16.32a40.706,40.706,0,0,0-6.753-7.822c-35.847-34.271-91.277-35-119.977,13.618-2.082,3.546-4.5,6.866-6.7,10.186-24.2,2.138-47.271-2.533-70.512-5.628-1.576,0-2.87-2.364-5.627-4.5a65.727,65.727,0,0,1,7.653-4.052c37.366-13.225,58.807-39.392,64.941-78.784a116.263,116.263,0,0,1,4.9-20.09,43.163,43.163,0,0,1,44.119-30.726,58.3,58.3,0,0,1,39.9,14.744,166.418,166.418,0,0,1,22.847,23.86c14.631,19.19,28.137,39.111,42.375,58.807,10.13,14.35,19.809,28.418,31.289,44.85Zm-342.261-351.6c1.857-23.523,12.549-66.348,19.64-79.178,23.635,5.627,48.171,8.1,73.157,15.081a100.165,100.165,0,0,1-15.926,32.189,86.1,86.1,0,0,1-43.781,33.2,39.39,39.39,0,0,1-33.033-1.294Zm449.126,311.7a171.241,171.241,0,0,1-19.246-91.952,42.2,42.2,0,0,1,6.528-19.246c9.229-13.675,19.527-26.562,29.713-39.392,1.745-2.139,5.29-2.87,8.441-4.5,6.19,33.033,3.377,68.261-9.4,117.445-3.1,12.212-3.827,25.717-15.982,37.647Zm-241.361,43.275c6.64-11.649,15.7-13,25.436-12.324s18.458,2.138,24.029,13.337a175.684,175.684,0,0,1-49.409-1.013Z" transform="translate(-134.383 -21.849)" fill="#fff"/>
        <path id="Path_1174-2" data-name="Path 1174" d="M442.693,379.5a99.71,99.71,0,0,0-8.723-12.831c-23.3-24.592-46.145-49.69-70.4-73.157-33.765-32.864-68.542-64.49-112.1-84.411-5.627-2.589-11.255-5.009-16.882-7.372a94.484,94.484,0,0,0-87.563,6.359c-10.692,6.3-21.328,12.831-31.513,19.977-5.628,3.77-11.705,7.372-13.844,15.194a23.235,23.235,0,0,0,4.84,3.32,317.272,317.272,0,0,1,108.5,67.529c11.592,10.861,24.085,20.709,36.241,31.007a35.113,35.113,0,0,0,6.584,5.008c26.393,13.562,52.223,28.137,80.585,37.7a92.123,92.123,0,0,0,38.829,4.84c16.488-1.688,32.921-3.714,49.3-6.3a81.939,81.939,0,0,0,16.151-6.865Z" transform="translate(578.953 774.186)" fill="#fff"/>
        <path id="Path_1175-2" data-name="Path 1175" d="M512.133,139.331c-1.857-2.42-2.7-4.558-4.277-5.627-29.375-17.614-60.5-29.544-95.385-29.994s-70.287-1.294-105.4-2.082a313.224,313.224,0,0,1-73.719-9.06c-5.234-1.407-11.536-3.151-15.363,2.251a13.45,13.45,0,0,0,1.97,17.22,167.242,167.242,0,0,0,18.57,19.3,361.171,361.171,0,0,0,65.953,42.487,33.259,33.259,0,0,0,17.67,3.6c26.73-2.589,53.629-4.558,79.91-9.623,32.414-6.247,64.265-15.307,96.342-23.354A115.781,115.781,0,0,0,512.133,139.331Z" transform="translate(-132.408 298.767)" fill="#fff"/>
      </g>
    </g>
  </g>
</svg>
