<svg xmlns="http://www.w3.org/2000/svg" width="557.161" height="685.961" viewBox="0 0 557.161 685.961">
  <g id="Group_953" data-name="Group 953" transform="translate(15509 20521.246)">
    <g id="Group_945" data-name="Group 945">
      <ellipse id="Ellipse_46" data-name="Ellipse 46" cx="278.58" cy="278.581" rx="278.58" ry="278.581" transform="translate(-15509 -20392.447)" fill="#d3cfd6"/>
      <path id="Path_2077" data-name="Path 2077" d="M272.217-990.273c-.428-.855-.595-1.837-1.162-2.216a12.669,12.669,0,0,1-6.049-12.341c.415-5.511,2.414-10.193,6.781-13.674,2.171-1.731,4.507-3.255,6.977-5.021-.522-8.41-3.512-15.829-6.49-23.313-1.974-4.963-.606-7.4,4.377-9.427a37.119,37.119,0,0,1,4.59-1.551c3.21-.841,5.771.288,6.9,3.181a54.026,54.026,0,0,1,2.138,6.941c.568,2.351.737,4.8,1.333,7.144.764,3,1.779,5.945,2.746,9.107,23.84-16.779,26.346-16.518,39.2-13.867,2.53,3.189,4.527,6.884,3.706,11.184-3.606,4.262-8.564,3.44-12.567,5.115-3.646,1.525-7.2,3.268-11.431,5.206,2.256,4.216,4.509,7.475,5.8,11.079,1.54,4.3,1.394,9.05-1.333,12.823-2.265,3.134-5.562,5.522-8.762,8.584,1.093,2.521,2.252,5.527,3.668,8.406,14.625,29.734,27.225,60.331,39.329,91.161q38.953,99.219,78.286,198.29c1.62,4.1,3.354,8.15,4.763,11.562a11.832,11.832,0,0,0,1.7,1.127c3.345,1.132,7.371-.087,10.117,3.194,2.984,3.565,4.219,7.7,4.746,12.211,1.4,12.02,2.83,24.039,4.425,36.034.53,3.988,1.787,7.877,2.374,11.862.882,5.985,1.82,11.862-2.9,17.221-1.531,1.739-1.491,5.365-1.275,8.056,1.038,12.873,2.417,25.717,3.6,38.578.444,4.827.834,9.668.992,14.511.79,24.212,1.473,48.427,2.241,72.638.294,9.288.755,18.57,1.071,27.857a97.452,97.452,0,0,1-5.5,36.911c-2.765,7.633-7.3,12.632-15.569,15.307-22.7,7.34-45.939,8.14-69.443,7.984-13.7-.091-27.585-.336-41.086,1.588-24.115,3.435-48.264,5.327-72.476,3.579-23.741-1.712-47.418-4.623-71.028-7.723-13.312-1.748-21.99-9.589-24.319-23.34a128.885,128.885,0,0,1-2.107-15.568A279.378,279.378,0,0,0,153.02-473.8a177.214,177.214,0,0,1-1.176-79.243c1.555-7.49,2.214-15.17,3.18-22.776.416-3.28-.049-6.232-2.57-8.913-5.367-5.709-6.647-12.934-5.661-20.341,1.344-10.1,1.661-20.034-.374-30.116a36.929,36.929,0,0,1,0-13.256c1.1-6.415,3.176-12.852,9.941-15.617,4.434-1.812,5.557-5.337,6.874-9.25,8.755-26.021,17.5-52.047,26.5-77.986q35.118-101.268,70.41-202.474C264.357-965.917,268.226-978.181,272.217-990.273ZM443-593.115a20.34,20.34,0,0,0-4.3-.243c-19.985,2.795-39.983,5.52-59.93,8.574-15.952,2.443-31.751,6.156-47.772,7.828-40.783,4.257-81.46,1.532-122.092-3.116-12.8-1.464-25.78-1.3-38.682-1.765-1.494-.054-3.014.6-5,1.031-.155,2.709-.2,5.06-.439,7.39-1.035,10.04-1.181,20.289-3.4,30.064a112.5,112.5,0,0,0,.77,52.73,252.221,252.221,0,0,1,5.539,30.975c1.951,16.843,2.935,33.8,4.7,50.664,1.639,15.625,3.632,17.783,19.494,21.681a10.75,10.75,0,0,0,1.2.18c12.817,1.621,25.6,4.254,38.456,4.643,23.806.719,47.734,1.358,71.461-.223,31.444-2.095,62.836-4.453,94.37-4.248,4.04.027,8.15.421,12.107-.168a226.171,226.171,0,0,0,23.661-4.543c8.79-2.288,13.285-8.654,14.1-17.619.729-8.045,1.15-16.126,2.142-24.137,1.1-8.881.754-17.656.132-26.564-.871-12.467-1.022-25.02-.75-37.521.317-14.542,1.088-29.049-.272-43.589-1.542-16.478-2.737-32.988-4.141-49.479C444.289-591.28,443.643-591.94,443-593.115ZM291.154-653.153c-3.372-.963-4.792-1.745-6.189-1.707-10.492.286-20.982.689-31.469,1.148-7.244.316-14.5,1.311-21.721,1.07-15.727-.527-31.428-1.884-47.155-2.431a217.46,217.46,0,0,0-24.137.825c-5.06.389-6.448,2.762-6.188,8.386.372,8.061.96,16.123.971,24.185.008,6.041-.884,12.077-1.136,18.125-.478,11.537,2.452,14.669,13.664,14.871,2.42.044,4.849-.25,7.266-.154,10.889.432,21.8.656,32.654,1.517,11.662.924,23.26,2.622,34.909,3.726,39.291,3.726,78.214.021,117-6.067,22.712-3.566,45.43-7.1,68.109-10.871a153.957,153.957,0,0,0,17.612-4.287c4.735-1.375,5.964-3.163,5.849-7.83a59.513,59.513,0,0,0-1.046-8.385c-1.346-7.957-2.913-15.878-4.121-23.854-.846-5.58-1.352-11.219-1.814-16.848-.539-6.576-3.624-8.84-9.37-7.522A303.961,303.961,0,0,1,393-663.162c-22.522,1.957-44.955,4.8-67.629,4.292a86.256,86.256,0,0,0-10.871.426,3.54,3.54,0,0,0-2.279,2.392,4.111,4.111,0,0,0,1.13,3.227c1.134,1.074,2.778,1.589,4.132,2.456,14.144,9.045,20.311,23.128,17.312,39.462-3.583,19.519-24.424,30.023-41.731,21.033-19.517-10.137-25.045-37.167-10.975-54.071C284.366-646.682,287.086-649.049,291.154-653.153Zm-2.347-20.261a58.627,58.627,0,0,0,.794-7.4c-.271-12.519-.11-25.083-1.173-37.541-2.171-25.419-1.983-50.825-1.523-76.289.372-20.59-.111-41.205-.675-61.8-.365-13.31-1.757-26.589-2.335-39.9-.824-18.966-1.291-37.948-2.015-56.919-.064-1.687.866-4.026-2.6-5.252-1.711,4.945-3.523,9.743-5.04,14.633-10.283,33.141-19.583,66.584-31.625,99.177-9.791,26.5-19.154,53.17-28.328,79.893-9.829,28.628-19.237,57.4-28.753,86.136a50.986,50.986,0,0,0-1.293,7.009c3.958,1.852,7.6.99,11.108.459,12.468-1.884,24.959-1.369,37.494-1.085,15.333.349,30.681.1,46.022-.024A99.27,99.27,0,0,0,288.807-673.414Zm124.674-7.238c.5-5.463-2.406-9.123-4.056-13.106-6.178-14.916-12.842-29.637-18.739-44.661-10.323-26.3-19.484-53.078-30.454-79.1q-24.715-58.624-45.806-118.6c-1.744-4.932-4-9.685-6.062-14.5-.638-1.491-1.45-2.877-4.043-1.861.525,15.088.986,30.376,1.606,45.657.624,15.337,1.57,30.662,2.073,46s.693,30.686.916,46.031c.23,15.754.277,31.511.512,47.265.229,15.347.589,30.693.9,46.039.308,15.226-.552,30.5,1.245,46.119,11.952,1.249,23-1.145,34.134-2.228,11.253-1.093,22.542-1.943,33.835-2.444C390.769-680.535,402.021-680.467,413.482-680.652ZM289.593-645.01c-1.366.719-3.022,1.135-4.012,2.181-14.975,15.82-7.13,45.236,13.811,51.253,9.658,2.776,18.45.6,25.164-7.242,11.851-13.852,7.552-38.263-8.336-47.417-.955-.55-3.508-.041-4.017.781-.644,1.038-.387,3.146.283,4.346.715,1.28,2.424,1.973,3.6,3.034,8.375,7.595,10.907,19.851,5.919,29.721-3.328,6.584-8.5,10.377-16.3,10.406-9.257.037-15.2-4.772-18.839-12.591a23.412,23.412,0,0,1,1.917-24.1C290.983-637.9,292.121-640.935,289.593-645.01Zm-.878-358.3a18.818,18.818,0,0,0,11.636,2.5c4.013-2.91,7.967-5.63,11.748-8.575,1.973-1.537,1.7-4.772-.24-6.325-3.939-3.148-12.166-3.294-15.654.073C292.8-1012.352,289.741-1008.707,288.714-1003.307Zm1.695-15.225c-3.094,0-4.637-.106-6.159.029a20.239,20.239,0,0,0-4.7.825,15.6,15.6,0,0,0-10.38,14.594,5.415,5.415,0,0,0,6.406,5.344,7.009,7.009,0,0,0,5.759-3.707C284.124-1006.638,286.866-1011.851,290.409-1018.533Zm-1.4,53.963c-1.71,8.131-2.071,9.976-.775,11.737,3.028,4.113,6.016,8.384,11.333,10.822C303.161-952.853,295.995-957.952,289.012-964.569Zm-.547,49.75c6.611,6.325,6.611,6.325,11.535,7.374,3.6-10.764-3.55-15.722-11.324-21.382C286.414-923.443,288.362-918.935,288.465-914.819Zm1.628,9.5c-2.3,12.146-1.8,13.134,9.693,19.17C302.934-896.047,300.9-901.2,290.093-905.322Zm4.278,160.4c-1.966,13.01-1.472,18.868,9.624,22.168C304.788-731.6,306.215-740.4,294.37-744.923Zm7.927-105.24c.682-12.858.3-13.52-10.257-17.71C291.122-855.595,291.885-854.276,302.3-850.162Zm10.678,243.113c5.245-7.242,5.874-9.557,4.96-15.668-.589-3.936-1.028-4.582-6.1-8.445C310.681-623.4,310.212-616.224,312.976-607.049ZM294.313-799.775c-1.35,13.117-.3,15.2,8.458,18.025C304.731-789.576,303.634-796.048,294.313-799.775Zm4.1-125.35c1.827-11.4.384-13.607-10.386-18.918C284.624-934.5,293.885-932.587,298.41-925.124ZM286.461-996.9c.715,4.938.341,8.056,1.646,10.1,2.218,3.463,4.654,7.27,9.5,8.54C299.834-987.067,294.762-991.273,286.461-996.9Zm7.569,232.2c-1.21,12.023-1.014,12.391,8.73,17.6C305.425-755.333,302.868-761.028,294.03-764.708Zm-47.4-107.38c1.838-7.024,6.688-12.817-.67-18.2C239.419-880.238,239.407-879.6,246.626-872.088Zm58.159,219.96c1.646-3.452,1.979-7.059-.366-10.132-1.743-2.283-4-4.619-7.523-4.276C296.2-655.223,296.2-655.223,304.785-652.129ZM294.6-847.78c-2.484,8.677-2.2,9.261,7.414,15.285C303.871-842.529,303.871-842.529,294.6-847.78Zm-2.959-36.679c-1.815,9.214-.373,11.332,9.1,14.245C303.694-878.865,297.232-881.045,291.644-884.458Zm13.263,214.416c1.042-10.364,1.042-10.364-7.659-14.368C295.931-674.571,295.931-674.571,304.907-670.042ZM289.131-976.985c-2.522,7.727,4.209,9.826,8.653,14.567C300.77-971.231,293.489-973.2,289.131-976.985Zm7.057,258.337c-.814,9.406-.814,9.406,7.483,12.8C304.987-714.575,304.987-714.575,296.188-718.648Zm.981,16.984c-1.436,9.122-.961,9.94,7.006,12.058C304.795-697.934,304.795-697.934,297.169-701.664Zm7.9,66.172c1.008-9.534,1.008-9.534-7.138-12.563C296.288-639.451,296.288-639.451,305.065-635.492Zm33.661-258.523c-.922,4.594-.923,5.031-.032,6.376,2.256,3.407,2.256,3.407,9.744,4.38C347.976-889.452,345.571-893.681,338.725-894.015Zm-34.786,94.894c-.818-4.962-.562-7.978-1.843-10.038-1.669-2.684-3.726-5.8-7.678-6.21C291.825-807.45,296.492-804,303.939-799.121Zm88.89,29.71c.008-4.26-1.177-7.95-4.365-10.6-1.278-1.064-3.4-1.118-5.508-1.742C384.379-770.885,384.379-770.885,392.828-769.411Zm-199.39,45.85c3.427-5.547,5.274-10.245-.637-14.83C188.853-733.664,187.9-729.161,193.439-723.562Zm25.829-90.59c-5.295,9.868-5.292,10.294.117,14.251C222.405-804.366,224.819-808.619,219.268-814.152Zm-15.837,46.62c-5.5,8.935-5.5,8.935-.257,14.928,3.765-7.075,4.007-7.161,3.276-9.781C205.958-764.15,204.568-765.664,203.432-767.532Zm99.106,4c2.436-10.363-3.226-12.826-8.413-16.535C290.907-771.328,298.376-769.631,302.538-763.533Zm-67.9-78.711c4.807-9.264,4.807-9.264-.623-15.1C230.561-852.374,228.236-847.678,234.637-842.245ZM405.124-721.263c3.627,8.986,3.627,8.986,10.3,8.944C413.354-720.137,413.354-720.137,405.124-721.263ZM340.564-899.57c1.1-7.13.125-8.12-9.339-9.434C331.015-902.529,335.138-900.41,340.564-899.57Zm-10.55-31.383c-3.309-10.027-3.309-10.027-11.163-8.387C321.592-933.7,321.592-933.7,330.014-930.953ZM385.98-788.495c-.809-2.258-1.287-4.6-2.435-6.549-1.592-2.7-4-3.659-6.892-1.588C379.191-787.511,379.191-787.511,385.98-788.495Zm-92.141-43c.133,2.892-.446,5.19.437,6.511,2.029,3.038,3.721,6.87,8.375,7.619C304.646-825.124,299.585-827.784,293.838-831.5ZM408.994-727.763c-1.721-7.419-1.721-7.419-9.074-8.2C401.233-729.085,401.233-729.085,408.994-727.763Zm8.736,35.178c1.755,4.381,2.709,7.316,4.083,10.038,1.441,2.853,3.631,2.586,6.112.524C426.873-686.607,425.9-691.248,417.73-692.585Zm-92.8-233.09c3.108,9.869,3.108,9.869,10.277,8.83C335.423-923.1,330.957-924.041,324.932-925.675Zm-58.624-8.894c1.145-2.971,2.133-5.1,2.78-7.321.984-3.381-.261-5.8-3.527-7.412C262.96-944.5,259.833-940.087,266.309-934.569Zm94.043,81.682c-.608-6.533-4.754-8.1-10.482-8.718C352.039-853.373,352.039-853.373,360.352-852.886ZM398.193-754.7c-1.6-8.782-1.863-8.992-9.209-7.917C389.008-757.177,392.023-754.839,398.193-754.7ZM366.6-835.959c-2.708-9.7-2.708-9.7-10.224-8.6C357.587-839.566,359.722-836.107,366.6-835.959ZM188.129-709.87c3.794-6.313,3.892-7.527,1.17-10.643a2.458,2.458,0,0,0-3.893.564C183.318-716.158,184.845-713.237,188.129-709.87Zm51.228-161.348c-4.294,7.079-3.919,8.608,2.586,11.3C244.431-864.454,243.59-868.121,239.357-871.217Zm104.5-6.225c2.125,8.51,3.986,9.769,10.428,8.427C353.889-874.79,349.347-875.505,343.857-877.442ZM304.539-620.478c1.33-7.957,1.33-7.957-6.408-10.649C296.878-625.423,299.024-622.049,304.539-620.478ZM298.745-606c2.475.968,5.013,2.079,6.532-.439a6.331,6.331,0,0,0-.273-5.575c-1.11-1.721-3.44-2.656-5.915-4.408a52.879,52.879,0,0,0-.791,5.594A40.657,40.657,0,0,0,298.745-606Zm8.512-362.744c2.907,8.44,2.915,8.445,9.592,7.863C315.934-965.5,313.948-968.92,307.257-968.739ZM173.337-682.283c-3.355,6.1-3.355,6.1,3.164,10.426C179.8-676.7,177.376-679.615,173.337-682.283Zm82.5-225.3c4.6-6.3,4.54-6.327-.563-11.3C251.163-914.865,251.952-911.173,255.839-907.586Zm-5.147,14.894c4.533-6.433,4.533-6.433.234-13.114-1.1,1.883-2.9,3.555-2.808,5.115C248.269-898.152,249.656-895.687,250.692-892.692Zm-21.249,65.187c1.108-2.249,1.777-3.567,2.412-4.9,1.269-2.669-.47-4.432-2.027-6.128a2.286,2.286,0,0,0-2.136-.32c-2.52,1.345-2.548,3.779-1.774,5.995C226.5-831.206,227.866-829.83,229.443-827.505Zm134.9-2.25a10.8,10.8,0,0,0-.745,2.679,4.734,4.734,0,0,0,.709,2.245c1.775,2.878,4.582,4.326,6.8,3.416a2.221,2.221,0,0,0,1.113-1.75c-.236-2.425-.92-4.738-3.584-5.609C367.229-829.232,365.749-829.442,364.34-829.755Zm4.394,16.146c2.056,3.369,3.154,5.882,4.9,7.8,1.3,1.42,3.435,1.972,5.21-.5C377.882-810.375,377.159-814.747,368.734-813.609ZM183.509-696.473a15.274,15.274,0,0,0,2.286-2.885c1.334-3.049-.152-5.36-2.414-7.229a2.318,2.318,0,0,0-2.165-.029c-1.833,1.23-1.887,4.162-.132,7.481A15.3,15.3,0,0,0,183.509-696.473Zm24.457-74.217c1.368-.807,2.336-1.038,2.59-1.594a15.9,15.9,0,0,0,1.363-4.461c.363-2.791-1.4-5.726-3.148-5.408-3.012.548-3.348,3.377-3.281,5.46C205.555-774.7,207.056-772.749,207.966-770.69ZM216.71-791.1a18.253,18.253,0,0,0-1.256-3.08c-.371-.6-1.312-1.381-1.8-1.262a4.033,4.033,0,0,0-2.548,1.646c-1.017,2.161-1.335,4.513.33,6.595.453.566,1.318,1.342,1.806,1.227a4.479,4.479,0,0,0,2.608-1.618C216.441-788.511,216.428-789.811,216.71-791.1ZM323.3-946.019c-2.138-6.136-2.138-6.136-9.338-6.453C313.933-946.719,318.378-946.984,323.3-946.019Zm-61.349,24.575c.887-3.457,1.954-5.632,1.812-7.724-.1-1.506-1.817-2.9-3.017-4.648C256.318-929.54,257.5-926.217,261.952-921.444ZM181.034-684.632c2.768-4.466.156-7.195-2.731-10.2C173.8-689.042,174.038-688.274,181.034-684.632Zm90.071-269.2c3.107-4.776,3.107-4.776-.5-9.616C267.355-960,267.359-956.926,271.1-953.828ZM421.323-697.84c-.918-5.611-3.467-7.5-8.728-6.917C413.467-699.671,415.483-697.279,421.323-697.84Zm-26.757-50.312c3.58,5.729,3.58,5.729,8.972,4.884C402.744-747.7,400.078-749.2,394.567-748.152ZM281.415-991.191c-4.32,6.088-4.32,6.088,0,10.592Zm27.238,16.968,1.608-1.6c-.839-1.694-1.4-3.633-2.617-4.989-.74-.826-2.483-.752-3.776-1.082-.166,1.448-1,3.463-.357,4.222C304.795-976.157,306.891-975.332,308.653-974.223ZM286.457-1034c.183-1.231.376-1.652.274-1.979-.818-2.6-3.024-4.258-4.992-3.757a1.388,1.388,0,0,0-.853.713c-.628,1.687,1.144,4.009,3.81,5.006A7.274,7.274,0,0,0,286.457-1034Zm-3.123-10.55a13.057,13.057,0,0,0,.935-3.437c-.044-2.139-.93-3.99-3.41-3.986-1.1,0-2.794.454-3.2,1.233-1.147,2.195.452,3.691,2.178,4.779A21.712,21.712,0,0,0,283.334-1044.547ZM224.3-817.18c3.721-1.673,2.95-4.25,1.168-6.725-.477-.661-2.424-1.153-2.929-.752-2.179,1.723-.5,3.6.292,5.343A15.213,15.213,0,0,0,224.3-817.18Zm88.46-214.711c-1.865-1.4-2.825-2.516-4-2.836-.513-.139-2.188,1.491-2.073,2.064.26,1.286,1.309,2.414,2.036,3.607Zm6.937-8.872c-1.014.217-1.4.265-1.753.38-2.174.7-3.194,2.248-2.663,4.43.222.913,1.273,2.361,1.855,2.318,2.281-.167,3.19-1.963,3.348-4.058C320.54-1038.4,320.136-1039.137,319.7-1040.763Zm12.968,1.25c-2.926-1.056-4.526-1.984-6.144-2.017-.529-.011-1.6,2.327-1.547,3.554.077,1.875,1.728,2.462,3.347,1.751C329.508-1036.747,330.458-1037.8,332.667-1039.514Zm-57.655,71.455,1.889-.2c.161-1.407.646-2.875.39-4.2-.236-1.221-.2-3.719-2.476-2.711-.837.371-1.151,2.59-1.153,3.967C273.661-970.157,274.53-969.107,275.013-968.058Zm27.476-60.725c-2.241.775-4.795,1.448-2.966,4.609.291.5,2.285.612,3.024.152C304.863-1025.467,303.809-1027.191,302.489-1028.784Zm4.412,29.309c2.708,1.149,4.433,1.063,5.742-.86a2.233,2.233,0,0,0,.059-2.052,2.039,2.039,0,0,0-1.917-.554A38.222,38.222,0,0,0,306.9-999.475ZM196.8-748.347c-.381.611-1.074,1.216-1,1.7a8.911,8.911,0,0,0,1.182,3.181c.313.509,1.171.684,1.784,1.01.313-.618.968-1.3.874-1.844C199.341-746.032,199.5-748.261,196.8-748.347Zm89.086-277.233.812-.7a14.234,14.234,0,0,0-1.687-1.069c-.093-.045-.461.485-.7.749Q285.093-1026.086,285.883-1025.58ZM170-668.763l-1.056-1.715c-.382.553-1.048,1.1-1.064,1.659s.621,1.14.973,1.711Q169.424-667.934,170-668.763Z" transform="translate(-15533.818 -19463.158)" fill="#29302c"/>
    </g>
  </g>
</svg>
