<svg xmlns="http://www.w3.org/2000/svg" width="64" height="64" viewBox="0 0 64 64"><g transform="translate(2949 12373)"><g transform="translate(-2949 -12373)" fill="none" stroke="#485448" stroke-width="3"><rect width="64" height="64" rx="14" stroke="none"/><rect x="1.5" y="1.5" width="61" height="61" rx="12.5" fill="none"/></g><g transform="translate(-2940 -12364)"><g transform="translate(13.464 13.464)"><path d="M161.128,170.355a9.227,9.227,0,1,1,9.227-9.227A9.238,9.238,0,0,1,161.128,170.355Zm0-15.8a6.568,6.568,0,1,0,6.568,6.568A6.576,6.576,0,0,0,161.128,154.56Z" transform="translate(-151.901 -151.901)" fill="#485448"/></g><g transform="translate(21.362)"><path d="M242.33,10.288A1.33,1.33,0,0,1,241,8.959V1.33a1.33,1.33,0,0,1,2.659,0V8.959A1.33,1.33,0,0,1,242.33,10.288Z" transform="translate(-241)" fill="#485448"/></g><g transform="translate(6.257 6.257)"><path d="M77.311,78.641a1.325,1.325,0,0,1-.94-.389l-5.395-5.395a1.33,1.33,0,0,1,1.88-1.88l5.395,5.395a1.33,1.33,0,0,1-.94,2.27Z" transform="translate(-70.587 -70.588)" fill="#485448"/></g><g transform="translate(0 21.362)"><path d="M8.959,243.659H1.33a1.33,1.33,0,0,1,0-2.659H8.959a1.33,1.33,0,0,1,0,2.659Z" transform="translate(0 -241)" fill="#485448"/></g><g transform="translate(6.257 31.073)"><path d="M71.917,358.606a1.33,1.33,0,0,1-.94-2.27l5.395-5.395a1.33,1.33,0,0,1,1.88,1.88l-5.395,5.395A1.325,1.325,0,0,1,71.917,358.606Z" transform="translate(-70.587 -350.552)" fill="#485448"/></g><g transform="translate(21.362 35.095)"><path d="M242.33,406.217a1.33,1.33,0,0,1-1.33-1.33v-7.629a1.33,1.33,0,1,1,2.659,0v7.629A1.33,1.33,0,0,1,242.33,406.217Z" transform="translate(-241 -395.929)" fill="#485448"/></g><g transform="translate(31.072 31.073)"><path d="M357.276,358.606a1.325,1.325,0,0,1-.94-.389l-5.395-5.395a1.33,1.33,0,1,1,1.88-1.88l5.395,5.395a1.33,1.33,0,0,1-.94,2.27Z" transform="translate(-350.552 -350.552)" fill="#485448"/></g><g transform="translate(35.095 21.362)"><path d="M404.888,243.659h-7.629a1.33,1.33,0,1,1,0-2.659h7.629a1.33,1.33,0,1,1,0,2.659Z" transform="translate(-395.929 -241)" fill="#485448"/></g><g transform="translate(31.072 6.257)"><path d="M351.881,78.642a1.33,1.33,0,0,1-.94-2.27l5.395-5.395a1.33,1.33,0,0,1,1.88,1.88l-5.395,5.395A1.326,1.326,0,0,1,351.881,78.642Z" transform="translate(-350.552 -70.588)" fill="#485448"/></g></g></g></svg>