<svg id="Layer_1" data-name="Layer 1" xmlns="http://www.w3.org/2000/svg" viewBox="0 0 400 400"><defs><style>.cls-1{fill:#a6bcb2;}.cls-2{fill:#363f3a;}</style></defs><circle class="cls-1" cx="200" cy="200" r="146.22"/><path class="cls-2" d="M172.56,234.32c-.07-2.35-1.34-4.24-2.69-5.92-2.85-3.53-5.87-6.93-9-10.25-1.58-1.69-3.52-3.06-5.24-4.64-1-.9-1.83-1.93-2.9-3.07,3.28-2.87,7.31-4.31,11.34-6.17a12,12,0,0,1,1.76,1.73,54.9,54.9,0,0,1,4.31,6.84c2.65,5.53,5,11.2,7.54,16.79a37.84,37.84,0,0,1,2.9,11.38c1,8.9,2,17.82,2.93,26.74.13,1.16.24,2.28,2,2,.82-1.71.41-3.56.27-5.32q-.93-11.58-2.05-23.14c-.46-4.64-1.15-9.26-1.69-13.9-.45-3.9-.83-7.82-1.24-11.73-.68-6.35-1.5-12.69-2-19.05a101,101,0,0,0-2.53-16.37,47.63,47.63,0,0,0-8.74-18.08,160,160,0,0,1-17.7-28.43c-3.88-8-6.24-16.52-8.84-25a178.72,178.72,0,0,1-5.38-22.56,96.88,96.88,0,0,1-1-22c.41-6.5.76-13,1.17-19.51.46-7.11,1-14.22,1.45-21.33a7,7,0,0,1,.34-1.29c1.38-.57,2,.24,2.5,1.09,2,3.37,4,6.75,6.05,10.13,2.63,4.44,5.17,8.93,7.91,13.31,12.09,19.32,21.13,39.92,26,62.25.71,3.23,1.19,6.52,1.76,9.79a7.94,7.94,0,0,1-.4,4.33A39.42,39.42,0,0,0,179,138.79q.25,6.27.45,12.52c0,.19-.19.39-.46.9-2.9-6-5.32-12-7.67-18s-4.79-12.11-7-18.22-4.47-12.49-6.42-18.82-3.3-12.6-5.29-18.79-3-12.55-4.47-18.84c-.87,1.43-.46,2.86-.33,4.23A97.85,97.85,0,0,0,150.82,80c1.73,6.4,3.46,12.81,5,19.25,2,8.38,5.23,16.37,8.19,24.43s6.08,15.82,9.28,23.67a74.08,74.08,0,0,0,7.23,13.66,8.41,8.41,0,0,1,1.09,2.68c1.35,5.49,2.68,11,3.95,16.48a30.31,30.31,0,0,1,.72,4.74c.58,8,1.05,15.94,1.66,23.91.48,6.25,1.11,12.49,1.65,18.73.43,4.9.88,9.79,1.21,14.7.55,8.21,1,16.43,1.5,24.65,0,.73.18,1.44.31,2.39l2.62.27a16.17,16.17,0,0,0,.29-2.65c-.2-3.56-.65-7.11-.7-10.67-.15-10.94-.16-21.88-.19-32.83a13.2,13.2,0,0,1,.45-3.25c.08-.32.72-.61,1.15-.68.24,0,.68.32.81.6a5.42,5.42,0,0,1,.47,1.75c.25,2.69.51,5.38.64,8.08.57,11.91,1.1,23.83,1.67,35.74.06,1.21.32,2.41.51,3.78l2.58.17a6.53,6.53,0,0,0,.47-1.16,8,8,0,0,0,.06-1.47q-.64-21-1.3-42a8.36,8.36,0,0,0-.23-2.19c-2.06-6.81-3.4-13.83-6.27-20.41-2.17-4.94-4.17-10-5.89-15.1-1.4-4.18-2.3-8.53-3.36-12.82-1.79-7.27-3.68-14.54-4.5-22s-1.15-15.18.25-22.77a41.14,41.14,0,0,1,3.27-9.75,35.63,35.63,0,0,1,16-17.28,31,31,0,0,1,5.89-2,4.79,4.79,0,0,1,2.52,0c3.61,1.09,7.19,2.29,10.83,3.47a4.3,4.3,0,0,1-.36,1.28c-4.39,5.73-7.07,12.33-9.81,18.92a145.17,145.17,0,0,0-8.71,29.63,96.27,96.27,0,0,0-1.17,30.81,4.4,4.4,0,0,0,.45.92,12.75,12.75,0,0,0,.36-4.73c0-5.9-.21-11.79.66-17.67a150.78,150.78,0,0,1,4.22-19c2.5-8.78,6.28-17.06,10-25.34,3-6.58,5-10.07,8.55-13.5,3.18,0,6.31,1.21,9.53,1.79s6.47.73,10.33,1.94c-2,.87-3.31,1.48-4.65,2a14.24,14.24,0,0,0-5,3.6A54.48,54.48,0,0,0,221.94,140c-4.22,17.94-8,36-10.79,54.19a169.49,169.49,0,0,0-2.05,30.12c.11,4.55-.16,9.1-.09,13.64.09,6,.35,12.05.55,18.07.13,3.69.28,7.37.44,11.06,0,1,.2,1.91.33,3.14l3.79.37a19.58,19.58,0,0,0,.5-2.27c.74-9,.06-17.93-.07-26.9-.17-11.43-.57-22.86-.44-34.29A85.91,85.91,0,0,1,219,180a53.4,53.4,0,0,1,11.51-18.72,69.87,69.87,0,0,1,20.37-15,211.63,211.63,0,0,1,28.46-12,17.75,17.75,0,0,1,2.11-.66,1.36,1.36,0,0,1,1.7,1.72,20,20,0,0,1-1.68,4.06,142.35,142.35,0,0,0-10,21.35c-2.74,7.5-5.42,15-8.18,22.51a89.14,89.14,0,0,1-7.72,16.71A64.7,64.7,0,0,1,250,207.7c-5.36,6.25-10.87,12.36-16.36,18.49a68.6,68.6,0,0,0-8.12,10.48,16.9,16.9,0,0,0-2.11,6.59c-1.05,8-.6,16-.51,23.94,0,1.46.26,2.92.41,4.53,2.19.64,4.27,1.31,6.39,1.86,4.75,1.23,7.56,4,8.36,9.07,1.34,8.48,2.92,16.93,4.54,25.38,1.56,8.15,1.56,16.37,1.34,24.61A66.17,66.17,0,0,1,239,354.83a4.71,4.71,0,0,1-2.73,2.81,51,51,0,0,1-5.13,2,85,85,0,0,1-21.73,3.64c-7.74.14-15.5.33-23.23-.07s-15.48-.64-23-2.82c-1.18-.34-2.34-.74-3.5-1.13-4.62-1.54-7.13-4.8-8.33-9.48a82.18,82.18,0,0,1-.67-38.69c2.5-11.27,5.24-22.47,8.57-33.54a7.38,7.38,0,0,1,5.34-5.5c2.59-.71,5.28-1,7.93-1.52,1-.17,1.9-.28,2.94-.44a10.56,10.56,0,0,0,.21-1.94c-.52-5.62-.94-11.26-2.32-16.76a24.27,24.27,0,0,0-4.65-8.72c-1.19-1.56-2.48-3.06-3.6-4.67a23.62,23.62,0,0,0-8.54-7.39,115.65,115.65,0,0,1-15.86-10c1.45-2.36,6.05-6.54,9.31-8.4a26.17,26.17,0,0,1,2.26,1.59c4,3.49,8,6.9,11.8,10.58,2.27,2.21,4.07,4.89,6.14,7.32.75.89.92,2.34,2.39,2.54l.14.44c0-.08.06-.18,0-.22A.87.87,0,0,0,172.56,234.32Zm78.81-67.25-.89,1.36c-5.24,7.87-10.61,15.65-15.67,23.63a91.9,91.9,0,0,0-8.94,17.74c-2.05,5.66-4.17,11.3-5.13,17.28a6.76,6.76,0,0,0,.16,4.19,12,12,0,0,0,.88-1.6c.85-2.69,1.71-5.38,2.5-8.09a129.46,129.46,0,0,1,12.42-28.26c4.12-7.13,8.38-14.17,12.56-21.27.62-1,1.11-2.16,1.67-3.25l.63-1.57.37-.78ZM240.14,334.52c-1.2.3-2,.52-2.83.69a16,16,0,0,1-11.06-1.6,16.83,16.83,0,0,1-8.53-11,34.63,34.63,0,0,0-2.8-7.17c-2.31-4.47-7-6.06-11.58-5a15.29,15.29,0,0,0-9.52,5.82c-.65.9-1.38,1.73-2.11,2.57-3.32,3.85-7.74,5.5-12.61,6.09a8.22,8.22,0,0,1-3.62-.36c-5.17-1.78-9-5.06-10.5-10.47a18.43,18.43,0,0,1,.88-13,28.74,28.74,0,0,1,5.29-7.92c1.52-1.61,3.08-3.18,4.53-4.84.86-1,1.87-1.95,1.93-3.55l-15.44-4c-.33.79-.67,1.42-.87,2.09a204.65,204.65,0,0,0-6.6,29.79c-.33,2.31,0,3.9,1.9,5.41a39.49,39.49,0,0,1,8.47,9.65,17.45,17.45,0,0,1,2.78,11.59,43.76,43.76,0,0,1-3.65,14.2,23.07,23.07,0,0,0-.83,2.57l5.11,1.26a32.44,32.44,0,0,0,6.37-7.38c2.07-3,4-6.19,6.2-9.15,2-2.75,4.26-5.38,6.54-7.95a16.66,16.66,0,0,1,6.28-4.42c11.74-4.76,20.07,2.39,21.62,10.78a46.88,46.88,0,0,0,1.11,4.65,8.8,8.8,0,0,0,6.53,6.38,19,19,0,0,0,5.82.5c2.18-.13,4.34-.78,6.53-1.06a2.89,2.89,0,0,0,2.76-2.47c.42-1.79,1-3.54,1.32-5.35C239.89,339.57,240.77,337.33,240.14,334.52Zm-55-48.84c-2.22,5.11-6.1,8.73-9.65,12.64a30.35,30.35,0,0,0-3.52,5.14,11.41,11.41,0,0,0-.78,9,8,8,0,0,0,10.39,5.42,13.16,13.16,0,0,0,6.93-5.21,22.13,22.13,0,0,1,12.64-8.37c6.85-1.89,15.56.17,19.5,8,1.16,2.29,2.05,4.71,3,7.1.46,1.13.73,2.34,1.16,3.49,1.56,4.27,7.65,8,13.14,5.23.86-.43,1.71-.9,2.44-1.29,1-5.83,0-18.08-2-23.05-1.2,0-2.42.06-3.63,0a19.92,19.92,0,0,1-4.72-.52,21.6,21.6,0,0,1-12.66-10.08c-.78-1.39-1.51-2.82-2.19-4.26a4.45,4.45,0,0,0-5.3-2.8,71.41,71.41,0,0,1-18.36,0C189.59,285.81,187.63,285.8,185.13,285.68Zm-8.57,73.18c1.06.18,1.53.31,2,.33,4.49.22,4,1.16,6.6-2.9a7.23,7.23,0,0,1,1.2-1.39c6.37-6.09,16.22-6.22,21.32,2.42.37.63.8,1.22,1.19,1.81,4.3.38,8.4-.45,12.53-1,.28,0,.51-.42,1-.8a11.68,11.68,0,0,0-1.36-.72c-6.64-2.35-10.45-7-11.54-14a20.66,20.66,0,0,0-.87-3.57,7.67,7.67,0,0,0-7.84-5.46,10.36,10.36,0,0,0-7.09,2.62,29.58,29.58,0,0,0-4.06,4.24c-2.6,3.41-5,6.95-7.53,10.45C180.32,353.44,178.6,355.94,176.56,358.86Zm60.82-62.48c-.33-4.18-2.23-11.79-3.49-14.07-4.2,1-8.56,1.44-13,2.68a17.8,17.8,0,0,0,2.83,5.72,15.3,15.3,0,0,0,7.78,5.9A7,7,0,0,0,237.38,296.38Zm-79.81,55.39A30.43,30.43,0,0,0,161,335.43a7.5,7.5,0,0,0-1.16-3.42c-1.64-2.43-3.47-4.72-5.28-7-.31-.38-.94-.51-1.5-.8-1.1,5.87-.6,12.13,1.67,20.87C155.28,347.25,155.41,349.65,157.57,351.77Zm42.89,7.69c-1.18-2.07-2.79-2.31-4.52-2.19s-3.28.38-4.27,2.37A31.22,31.22,0,0,0,200.46,359.46Z"/><path class="cls-2" d="M101.67,226.86a17.72,17.72,0,0,1,1.55-2.28c4.14-4.37,8.2-8.83,12.51-13,6-5.84,12.18-11.46,19.92-15,1-.46,2-.89,3-1.31a16.79,16.79,0,0,1,15.56,1.13c1.9,1.12,3.79,2.28,5.6,3.55,1,.67,2.08,1.31,2.46,2.7a4.13,4.13,0,0,1-.86.59,56.38,56.38,0,0,0-19.28,12c-2.06,1.93-4.28,3.68-6.44,5.51a6.24,6.24,0,0,1-1.17.89c-4.69,2.41-9.28,5-14.32,6.7a16.37,16.37,0,0,1-6.9.86c-2.93-.3-5.85-.66-8.76-1.12A14.56,14.56,0,0,1,101.67,226.86Z"/><path class="cls-2" d="M215.74,99.7c.33-.43.48-.81.76-1,5.22-3.13,10.75-5.25,16.95-5.33s12.49-.23,18.73-.37a55.66,55.66,0,0,0,13.1-1.61c.93-.25,2.05-.56,2.73.4a2.39,2.39,0,0,1-.35,3.06,29.72,29.72,0,0,1-3.3,3.43,64.18,64.18,0,0,1-11.72,7.55,5.91,5.91,0,0,1-3.14.64c-4.75-.46-9.53-.81-14.2-1.71-5.76-1.11-11.42-2.72-17.12-4.15A20.58,20.58,0,0,1,215.74,99.7Z"/></svg>