<svg id="Layer_1" data-name="Layer 1" xmlns="http://www.w3.org/2000/svg" viewBox="0 0 400 400"><defs><style>.cls-1{fill:#e9ddd2;}.cls-2{fill:#4c4a48;}</style></defs><circle class="cls-1" cx="200" cy="200" r="146.22"/><path class="cls-2" d="M257.76,155.26c-1.73,5.49-3.48,10.75-5,16.06a114.1,114.1,0,0,1-6.54,16.76q-6,12.61-11.67,25.36c-2.63,5.89-4.32,12.1-6.11,18.38,2.09,1.27,4.23,1,6.27,1.64a8,8,0,0,0,1.19-1.43c4.18-9.15,10.34-16.85,17.44-23.87a43.42,43.42,0,0,1,3.27-3.09,6.64,6.64,0,0,0,2.94-5.24,8.83,8.83,0,0,1,1.53-4.18c3.81-5.87,8.76-10.24,15.95-11.44a8.66,8.66,0,0,1,1.35-.07,3.62,3.62,0,0,1,.8.31,63.84,63.84,0,0,0-4,5.16c-1.11,1.76-1.89,3.73-3,6-1.93,1.08-4.95,1.17-6.74,4.34l5.23-1.53c.21.43.5.73.44.92a52.92,52.92,0,0,0-2.44,11.88,8.2,8.2,0,0,1-.67,2.09c-2.17.1-3.2-1.73-5-2.51-3.35,1.23-5.73,3.95-8.1,6.6-7.21,8-10.78,13.3-11.9,17.52,1.53.45,3.12.78,4.61,1.36,3.06,1.2,6.11,2.44,9.08,3.85A5.79,5.79,0,0,1,260.1,245c.39,3.73,1.16,7.43,1.36,11.16.34,6.14.34,12.31.5,18.46,0,.69.14,1.37.27,2.56a36.33,36.33,0,0,1,3.32-2.1,19.81,19.81,0,0,1,4.56-1.76,6.14,6.14,0,0,1,6.38,9.34,13.93,13.93,0,0,1-2.46,3.19c-8.94,8.18-11.54,18.57-10.86,30.23.5,8.39.77,16.79,1.14,25.19a14.31,14.31,0,0,1,0,2.7c-.41,2.89-1.63,5.06-4.81,5.74-6.45,1.38-12.86,2.95-19.31,4.34a166.37,166.37,0,0,1-46.1,3.44c-8.68-.55-17.43-.67-26-1.8-9.8-1.28-19.48-3.47-29.2-5.29a17.72,17.72,0,0,1-3-.92c-4.44-1.69-6.17-4-6.07-8.87.1-4.5.57-9,.85-13.48s.47-9,.76-13.5c.17-2.69.36-5.39.69-8.06a14.33,14.33,0,0,0-.79-7.07,31.51,31.51,0,0,0-7-11.4,63,63,0,0,1-5.3-6.12,10,10,0,0,1-2-7.2,6.19,6.19,0,0,1,5.73-5.92,11.83,11.83,0,0,1,9.31,2.4c1,.84,2.11,1.57,3.45,2.56,1.41-4.37,1.7-8.53,2.25-12.63.78-5.8,1.63-11.59,2.25-17.4a6,6,0,0,1,4.49-5.54c3.14-1,6.34-1.81,9.52-2.7l4.33-1.2c-1.92-4-11.79-14.93-16.71-18.6.48-3.7,1-7.52,1.53-11.74,1.9,1.18,2.13,2.89,2.37,4.33a11.12,11.12,0,0,0,4.28,7.06,76.93,76.93,0,0,1,13.21,14.12c1,1.31,2.06,2.53,3.14,3.83l5.43-.78c-.37-1.14-.61-2.08-1-3-1.2-3.08-2.49-6.12-3.63-9.21a12.65,12.65,0,0,1-.64-3.51c0-.39.56-.82,1.19-1.66,2,3,2.9,6,4.35,8.74s2.86,5.25,4.29,7.86a13,13,0,0,0,6.28-.17c.83-8-7.67-56.37-11-63-2.59,1.41-5.17,2.84-7.78,4.19-.3.15-.81-.11-1.5-.23A70.85,70.85,0,0,0,170.23,158c2-4.66,4.36-9.13,4.84-14.37,1.6.33,1.64,1.35,1.77,2.08a22.34,22.34,0,0,1-.5,11.13,8.62,8.62,0,0,0,.4,6.09A120.87,120.87,0,0,1,183.49,189c1.71,11.88,4,23.66,6.15,35.48.26,1.47.69,2.92,1.07,4.37a2.13,2.13,0,0,0,2.24,1.81c1.28,0,2-.66,2.19-2.33.14-.89.14-1.79.2-2.69A114.79,114.79,0,0,0,194,199.59a84.38,84.38,0,0,1-.35-22.89,32.53,32.53,0,0,1,1-4.84c.12-.49.63-.88,1.27-1.72.36.92.77,1.45.69,1.89-1.57,9.51-.22,18.88,1.38,28.21a110.16,110.16,0,0,1,1.64,25.12c-.1,1.61,0,3.24,0,5.14h4.1c.24-.35.51-.58.54-.83.6-4.77,1.24-9.53,1.73-14.31.89-8.51,1.86-17,2.45-25.55a111.75,111.75,0,0,0,0-15.31c-.89-13.33-2-26.64-3.12-40-.1-1.17-.36-2.32-.57-3.69-6.59-.94-12.89-2.31-17.58-7.33-2.57-2.76-4.8-5.74-5.68-10,4.64.91,8.66,3,13,3.59s8.59,1,13.1,1.51c.41,2.65.82,5.35,1.33,8.63,2.46-2.91.41-5.77,1.38-8.47a13,13,0,0,1,2-.26,17.3,17.3,0,0,0,10.87-3.71c2.75-2.06,5.42-4.23,8.16-6.37.88,3.87-1.39,9-5.74,13.66a25.05,25.05,0,0,1-13,7.63,10.44,10.44,0,0,0-.26,1.92c.78,9.73,1.46,19.47,2.42,29.18,1.06,10.79.74,21.6.9,32.41a136,136,0,0,1-2.15,25.09c-.46,2.66-.9,5.33-1.27,8-.2,1.47-.22,2.95-.31,4.34,3.38,1.26,3.89,1.3,8.77.76a19.88,19.88,0,0,0,.83-2.34,160.35,160.35,0,0,1,14.65-37.67c6.08-11.44,10.65-23.5,14.67-35.78.28-.85.42-1.75.72-3-1-.67-2.05-1.47-3.18-2.1a20,20,0,0,1-10.08-13.19,32.67,32.67,0,0,1-1.36-9.77,24.49,24.49,0,0,1,.61-2.85c.76,1.4,1.18,2.09,1.52,2.82,1.54,3.25,2.88,6.61,4.63,9.73a22.88,22.88,0,0,0,10.63,10,15.8,15.8,0,0,1,2.84,2.28c.35-.32,1-.92,1.66-1.46,3.08.36,6,.83,9,1,2.79.17,5.58,0,8.88,0a11,11,0,0,1-1.47,1.85,20.18,20.18,0,0,1-13.44,4.28C260.69,155.22,259.5,155.26,257.76,155.26Zm-119.4,135c1.68.44,2.95.89,4.26,1.1,5.77.94,11.55,1.82,17.33,2.72,3.55.55,7.1,1.24,10.67,1.61,15.15,1.58,30.32.79,45.44-.31,9.57-.7,19.09-2,28.61-3.24,3.82-.5,7.75-.63,11.49-2.27.11-1.11.29-2.14.3-3.17q.06-14,.05-27.94c0-2.25-.2-4.5-.41-6.74a13.38,13.38,0,0,0-.69-2.48c-4.28.61-8.26,1.44-12.27,1.69-8.39.52-16.79.74-25.19,1.07q-2.92.12-5.85.19c-4.5.12-9,.44-13.49.3-12-.39-24-1-36-1.49a88.43,88.43,0,0,1-16.43-2.44c-.82-.2-1.66-.29-2.74-.47C141.5,262.31,139.57,276,138.36,290.25Zm31.55,59.24c6.39,1.42,10.09,1.6,14.17.75a2.7,2.7,0,0,0,.34-.79c.18-16.06-.09-32.13,1.32-48.16a2,2,0,0,0-.29-.79,41.22,41.22,0,0,0-13.63-.06C171.19,316.64,170.55,332.92,169.91,349.49Zm35.58-49.39a68.1,68.1,0,0,0-13.57.21c-.11,1.49-.31,2.8-.31,4.1,0,6.3.1,12.59.17,18.88.08,8.08.73,16.16-.14,24.24a19.23,19.23,0,0,0,.21,3.19,38.58,38.58,0,0,0,12.32-.1C204,333.78,204,317.19,205.49,300.1Zm-43,48.74a441.72,441.72,0,0,1,3-46.2,12,12,0,0,0,0-2.24,5.29,5.29,0,0,0-.47-1.13c-3.62-.58-7.43-1.21-11.26-1.75-.49-.07-1,.35-1.49.51.68,16.4-2.34,32.45-2.09,48.79A66.35,66.35,0,0,0,162.46,348.84Zm67-50.28c.24,16.3.48,32.32.75,48.34a8.08,8.08,0,0,0,.48,1.8c3.9-.59,7.8-.45,11.3-2.05.81-9.73-.85-44-2.38-49.17A24.24,24.24,0,0,0,229.42,298.56Zm-18,.75c-.27,9.24-.59,17.88-.75,26.53-.13,7.34-.06,14.68-.06,22a9,9,0,0,0,.19,1.78,2.63,2.63,0,0,0,.44.75,21.45,21.45,0,0,0,11.87-1.13c-.22-3.08-.56-6.19-.63-9.31-.31-13.17-.54-26.35-.83-39.53a3.32,3.32,0,0,0-.44-1.12Zm34.31-2.94c.93,15.69,1.82,30.78,2.74,45.88a17.31,17.31,0,0,0,.53,2.33,11.85,11.85,0,0,0,2.72-.26c7.26-2.5,7.87-1.46,7-10.23-1-10.14-2.3-20.26-2.21-30.48,0-1.95,0-3.9-.1-5.85a15.16,15.16,0,0,0-.68-2.75ZM143,345.1c.13-3.51.22-6.77.39-10s.42-6.28.66-9.42.5-6.58.8-9.87c.29-3.13.87-6.25.91-9.38s1.48-6.43.5-9.87c-2.71-.22-5.16-1.49-8.12-1.42-.27,1.66-.59,3.11-.74,4.58-.52,5.22-1.08,10.44-1.44,15.67-.5,7.33-.92,14.67-1.2,22-.2,5.15.39,5.79,5.3,7.19C140.9,344.78,141.77,344.87,143,345.1Zm-9.33-55.39a25.48,25.48,0,0,1,.64-4.67c1.18-3.36-.25-5.82-2.5-8-1.17-1.15-2.45-2.2-3.73-3.23a5.08,5.08,0,0,0-4.71-.7c-1.72.44-2.53,1.79-1.82,3.43a13.49,13.49,0,0,0,2.53,4.19C127,283.66,130.1,286.39,133.67,289.71Zm129.25,2.35c1.64-2.23,3.14-4.18,4.53-6.2s4.34-3.15,4.59-6.28c-3.45-1.26-5.06,1.11-6.82,3C262.89,285.2,261,287.93,262.92,292.06Z"/><path class="cls-2" d="M268,102.4l-3.09,16.34a16.92,16.92,0,0,1-3-1.57,27.36,27.36,0,0,1-6.07-8.31c-3.65-7-5.69-14.48-7.24-22.15-.12-.58-.18-1.18-.3-1.77-1-4.87.32-7.76,5.13-11C255.3,84.94,258.09,95.45,268,102.4Z"/><path class="cls-2" d="M268,118.92c1.54-5.73,2.85-10.62,4.21-15.7,9.92-1,18.06-5.83,26.1-12a11.29,11.29,0,0,1,.12,2.27c-.79,3.66-1.68,7.3-2.46,11a6.19,6.19,0,0,1-3,4.3c-3.62,2.11-7.19,4.36-11,6.14a78,78,0,0,1-9.74,3.41A27.76,27.76,0,0,1,268,118.92Z"/><path class="cls-2" d="M205.93,85.63c11.39-2.48,17.75-10,22.89-19.75a14.63,14.63,0,0,1,1,2.56c.53,3.55,1,7.11,1.48,10.66a5.14,5.14,0,0,1-.94,4.22c-4.63,5.94-9.61,11.48-16.42,15-1.56.81-3.06,1.91-5.32,1.5C207,95.43,207.35,90.62,205.93,85.63Z"/><path class="cls-2" d="M202.82,85.38A51.36,51.36,0,0,1,205,98.13c-5.5,1.65-19.57-1.1-27.24-5.22-1.28-4.25-1.58-7.8-1.06-13.59,2.81,1.07,5.5,2.25,8.28,3.1a68.34,68.34,0,0,0,8.7,2.07C196.58,85,199.57,85.08,202.82,85.38Z"/><path class="cls-2" d="M264.44,120.59c-1.2,4.8-2.28,9.1-3.45,13.77a12.81,12.81,0,0,1-2.63-1.39,36.48,36.48,0,0,1-8-10.15c-3.61-7.12-5.83-14.72-8-22.34a6.76,6.76,0,0,1-.19-3.09A51.12,51.12,0,0,1,245.25,87a16.21,16.21,0,0,1,1.13,2.64,74.4,74.4,0,0,0,4.54,15,59.2,59.2,0,0,0,3.71,7.16A20.1,20.1,0,0,0,264.44,120.59Z"/><path class="cls-2" d="M178.06,96.3c4.57,1.44,8.87,3.12,13.33,4.12s9.13,1.34,14.1,2c1.46,3.79,1.68,8,1.26,12.64-3.7-.28-7.13-.32-10.48-.83-4.13-.64-8.2-1.65-12.28-2.55a5.85,5.85,0,0,1-5-5.46C178.54,103,177.87,99.8,178.06,96.3Z"/><path class="cls-2" d="M208.73,103a36.23,36.23,0,0,0,22.36-16.3c1.43.45,1.14,1.54,1.19,2.3.28,3.89.42,7.79.64,11.68a3.48,3.48,0,0,1-1.45,3.11c-4,3.19-7.85,6.54-12,9.52-2.65,1.91-5.7,3.27-9.44,2.46C209.62,111.6,209.19,107.46,208.73,103Z"/><path class="cls-2" d="M176.34,75.58a37.74,37.74,0,0,1,1.53-14.11,10.2,10.2,0,0,1,2.43.78,40.21,40.21,0,0,0,19.81,6.46c1.64,2,1.08,4.34,1.44,6.48s1.09,4,.24,6.48A56,56,0,0,1,176.34,75.58Z"/><path class="cls-2" d="M260,136.63c-.06,3.24-1.27,6.22-2.81,9.45a19.93,19.93,0,0,1-2.9-1.14c-5.26-3.07-8.59-7.87-11.1-13.2-1.78-3.78-3-7.81-4.5-11.73a4.23,4.23,0,0,1-.3-1.31,39.22,39.22,0,0,1,2.44-13.65c.37.93.77,1.86,1.11,2.81,1.27,3.52,2.38,7.1,3.8,10.55C249.45,127.3,252.08,130.59,260,136.63Z"/><path class="cls-2" d="M293.5,112.36a59.89,59.89,0,0,1-4.5,13.3,3.78,3.78,0,0,1-1.58,1.51,61.76,61.76,0,0,1-23.33,7.75c-.79-2.76.72-4.84,1.28-7s1.32-4.25,2-6.45C276.71,120.93,285,117.76,293.5,112.36Z"/><path class="cls-2" d="M224.42,52.09c2.35,2.53,3,5.47,3.76,8.33a3.59,3.59,0,0,1-.63,2.48c-3.11,4.94-6.2,9.88-10.55,13.88a27.43,27.43,0,0,1-10.42,6c-1.91-1.88-1.11-4.29-1.5-6.38s-.56-4.4-.85-6.9c4.72-1.35,8.87-3.19,12.31-6.47A43.32,43.32,0,0,0,224.42,52.09Z"/><path class="cls-2" d="M276.64,86.45c7.79-1.46,13.67-5.4,18.63-10.86,2.14.94,2.74,2.73,3.16,4.37a21.3,21.3,0,0,1,.42,5.31c0,.5-.52,1-.88,1.5a13.23,13.23,0,0,1-1.51,1.66,53.13,53.13,0,0,1-21.86,11.91c-.23.06-.54-.12-1.1-.26C274.15,95.55,275.69,91.21,276.64,86.45Z"/><path class="cls-2" d="M268.36,99.47c-6.93-5.56-12.24-19.19-11.44-28.63,2.07-1.15,4.18-2.52,6.86-2.34,3.76,15.42,5,13,7.77,17.37C270.57,90.06,269.52,94.52,268.36,99.47Z"/><path class="cls-2" d="M260.31,146c-.39-3.08,1-5.74,2-8.59,4-.69,8-1.18,11.87-2.11s7.6-2.3,11.87-3.62a12.67,12.67,0,0,1-.5,2.34c-1.32,3-2.71,6-4.06,9a3.89,3.89,0,0,1-2.88,2.56c-5.61.91-11.22,1.83-16.93,1A5.78,5.78,0,0,1,260.31,146Z"/><path class="cls-2" d="M203.82,65.52l-1.53-11.31a72.42,72.42,0,0,0,6.57-5A70.71,70.71,0,0,0,214,43c3.67.93,4.63,1.58,7.53,5C219.3,56,211.81,63.6,203.82,65.52Z"/><path class="cls-2" d="M97.4,157.44a88.68,88.68,0,0,0,3.85-8.74,84.56,84.56,0,0,0,1.93-9.13,25.16,25.16,0,0,1,12.67-.72c.26,4.56-3.71,13-9.65,20.26C103.17,159.58,100.29,158.63,97.4,157.44Z"/><path class="cls-2" d="M142.76,142.94l8.13,2.63c-1.08,5.49-9.34,16.78-15.55,21.37-2.57-.19-5-1.34-7.73-2.63,2.86-3.43,5.8-6.58,8.28-10.05S140.25,147.13,142.76,142.94Z"/><path class="cls-2" d="M274.49,197.72a12.91,12.91,0,0,1,2.34,0c3.07.6,6.12,1.28,9.44,2a107.23,107.23,0,0,0-3.83,10.1c-.94,3.42-1.28,7-1.95,11l-9-5.23A27.48,27.48,0,0,1,274.49,197.72Z"/><path class="cls-2" d="M298.07,206.4a6.77,6.77,0,0,1,2.12.44c2.15,1.3,5.42,5.21,6.94,8.09a91.71,91.71,0,0,0-5.41,8.63,98.53,98.53,0,0,0-3.68,9.82c-2.65-.49-4.3-2.39-6.29-4.09.51-6.9,1.64-13.6,5-19.78.56-1,1-2.13,1.45-3.21Z"/><path class="cls-2" d="M139.4,168.35c6.58-6.34,10.24-13.7,14.07-21.2a30.07,30.07,0,0,1,9.18,5.24c.13,2.05-1.09,3.28-2,4.57a53.57,53.57,0,0,1-13,12.26,3.94,3.94,0,0,1-3.78.73Z"/><path class="cls-2" d="M184,49.89l14.63,3.61c.53,3.55,1.1,7.34,1.67,11.14-6.17.7-14.31-1.71-21-6.06C179.56,55.16,180.35,53.67,184,49.89Z"/><path class="cls-2" d="M298.17,206.3c-1.86.1-2.3,1.74-3,2.93-2.5,4-3.65,8.46-4.53,13-.31,1.6-.61,3.2-1,5-2.74-.92-4.46-2.82-6.45-4.21-1-6.8,1.4-16.75,5.5-22.2a18.36,18.36,0,0,1,7.65,3.1c.78.5,1.16,1.62,1.73,2.45Z"/><path class="cls-2" d="M109.62,159.76c3.94-6.69,7.38-13,8.63-20.51,3.87-1,7.58,0,11.33.84-1.63,6.71-8,16.35-13.71,20.93Z"/><path class="cls-2" d="M300.15,191.41c-5.12,1.47-9.7,2.09-12.7,5.51l-12.53-2a6.63,6.63,0,0,1,.42-2.12,23.16,23.16,0,0,1,8.81-8.68C289.94,185.23,295.25,187,300.15,191.41Z"/><path class="cls-2" d="M132.09,140.52a33.87,33.87,0,0,1,3.72.45c1.42.33,2.79.87,4.5,1.43a20.39,20.39,0,0,1-1,2.56,58.75,58.75,0,0,1-13.61,16.45c-1.85,1.55-3.54,2.13-5.59.34,2.19-3.31,4.59-6.52,6.54-10S130.17,144.56,132.09,140.52Z"/><path class="cls-2" d="M169.34,155.09l-3.62-3.22c1.42-8.6-2.62-15.86-5.4-24a20,20,0,0,1,2.75.86A23.28,23.28,0,0,1,171.2,135a7.19,7.19,0,0,1,1.56,3.12C173.5,142.29,171.8,150.66,169.34,155.09Z"/><path class="cls-2" d="M87.77,215.46l6-4.72a19.26,19.26,0,0,1,2,10.32,54.42,54.42,0,0,1-3.58,14.35c-.95,2.5-2.85,3.6-5.75,4.55,1.22-4.29,3.12-8,2.79-12C88.83,224.05,88.3,220.2,87.77,215.46Z"/><path class="cls-2" d="M95.94,209.49l6.6-3c.45.58,1,1,1.09,1.47a34.82,34.82,0,0,1-.83,19.38c-.9,2.92-3.72,4.05-6.41,6.31C97,229,97.59,225.17,98,221.3S97,213.69,95.94,209.49Z"/><path class="cls-2" d="M277.72,84.42c-.23-3.37,1.33-11.43,3-15.83,4.73.14,10.35,2.3,13,5A30.11,30.11,0,0,1,277.72,84.42Z"/><path class="cls-2" d="M136.28,122.67l7.54.93c4.85,5.47,8.79,14.66,8.31,19.42-.58-.17-1.14-.29-1.68-.49-2.22-.85-4.43-1.72-7-2.7C142.71,133.9,140,128.66,136.28,122.67Z"/><path class="cls-2" d="M163.54,150c-3.52-1.94-6-3.72-8.1-5.07-.82-3.85-1.31-7.26-2.3-10.5s-2.5-6.32-3.8-9.52c4.59-.49,5.84,0,7.33,3.39,2.55,5.72,5.17,11.42,6.41,17.61C163.28,146.89,163.31,147.92,163.54,150Z"/><path class="cls-2" d="M76.24,241.18c1.23-2.91,2.83-5.67,3.53-8.64s.52-6.18.77-10a17.33,17.33,0,0,1,5.21-4.76c1.55,3.14,1.27,6.27,1.24,9.31-.06,5.38-2.24,10.11-4.87,14.78C80.1,242.5,78.14,242.92,76.24,241.18Z"/><path class="cls-2" d="M105.27,205.81c3.16-1.23,5.77-2.24,8.93-1.85a13.65,13.65,0,0,1,.59,2.54,35.58,35.58,0,0,1-3,14.88c-1,2.52-1.41,2.69-5.31,3.87C107.34,218.76,107.52,212.39,105.27,205.81Z"/><path class="cls-2" d="M105.16,192c3.78-2.24,8.09-3.08,12.7-3.67,3.08,3.24,6.11,6.4,7.08,11.26-2.83.69-5.35.3-7.83.29a3.21,3.21,0,0,1-1.61-.65C112.09,196.9,108.7,194.51,105.16,192Z"/><path class="cls-2" d="M100.23,139.93a30.14,30.14,0,0,1-6.33,15.93,5.54,5.54,0,0,1-4.81-3.56c-1.45-3.11-1-6.12.35-9.1a2.53,2.53,0,0,1,1.15-1.31C93.62,140.79,96.68,139.67,100.23,139.93Z"/><path class="cls-2" d="M308.49,216.67a14.71,14.71,0,0,1,3.89,6.19c-2.2,4.59-4.33,9-6.61,13.79-1.88.47-3.61-.6-5.56-1.73C301.45,228.24,303.69,222.18,308.49,216.67Z"/><path class="cls-2" d="M121.63,188.18c5.19-.66,9.32.31,13.22,3.24.19,3.83.61,7.66-1.69,11.49l-6-2.29C127.9,195.52,123.75,192.76,121.63,188.18Z"/><path class="cls-2" d="M150.36,170.94c5.87-5.08,11-10.13,13.86-17,2.09.25,3.17,1.67,4.55,3.06a41.25,41.25,0,0,1-10.56,14.39,3,3,0,0,1-2,.8C154.48,172,152.64,172.25,150.36,170.94Z"/><path class="cls-2" d="M115,221c1.33-6,2.61-11.67,1.55-17.74h7a16.18,16.18,0,0,1,.33,3.21c-.29,2.67-.74,5.34-1.15,8C122.12,218.56,120,221,115,221Z"/><path class="cls-2" d="M129.49,135.55c-3.7.95-6.79-.87-10.21-.62-.73-1.68-1.32-3.34-2.15-4.88s-1.9-3-3.09-4.86a23.57,23.57,0,0,1,8.55-1.47C125.54,127.14,128.22,130.79,129.49,135.55Z"/><path class="cls-2" d="M289.18,197.52c4.69-2.65,9-3.14,13.17-4.36a36.9,36.9,0,0,1,7.74,8.16c-1.25.16-2.06.29-2.87.35-1.63.12-3.45-.21-4.86.4-2.28,1-3.92.36-5.81-.82C294.44,199.94,292.11,199,289.18,197.52Z"/><path class="cls-2" d="M127,123.51a25.58,25.58,0,0,1,4.34-.61,3.38,3.38,0,0,1,2.3,1.06c3.18,4,6.06,8.19,7.4,13.22a5.67,5.67,0,0,1-.1,1.5c-3-.14-5.55-1.19-8.41-2.15C131.93,131.87,129.6,127.88,127,123.51Z"/><path class="cls-2" d="M301.31,204h11.17a37.13,37.13,0,0,1,6.59,9.67c-3.24-.25-5.89-.42-8.53-.69a2.72,2.72,0,0,1-1.55-.74C306.64,209.76,304.36,207.26,301.31,204Z"/><path class="cls-2" d="M272.17,82.72c-4-4.57-4.25-9.75-4.86-14.79,3.6-1.38,5.67-1.39,9.35-.18C276.57,70.54,274.66,77,272.17,82.72Z"/><path class="cls-2" d="M116.28,134.07a5.8,5.8,0,0,1-1.55.6c-3.83,0-7.67,0-11.63,0-.73-1.65-1.45-3.26-2.26-5.1a13.92,13.92,0,0,1,8.43-3.37,2.8,2.8,0,0,1,2,.72C113.19,129,115.34,130.89,116.28,134.07Z"/><path class="cls-2" d="M133.59,205.25l6.33,4.34a13.21,13.21,0,0,1-2,8.07,12.77,12.77,0,0,1-7.14-.09C131.69,213.62,132.55,209.85,133.59,205.25Z"/><path class="cls-2" d="M92.16,207.83l-6.49,5.34L76.43,212C81.11,205,84.89,204.24,92.16,207.83Z"/><path class="cls-2" d="M126,203.71l5.69,1.55a41.16,41.16,0,0,1-2.75,11.05c-.78,2.18-2.32,2.95-4.8,2.2C124.73,213.74,125.33,208.93,126,203.71Z"/><path class="cls-2" d="M96.31,196.61c2.15-2.52,4.62-2.59,7.39-1.76a21.4,21.4,0,0,1,9,5.11,21.6,21.6,0,0,1-7.58,1.91,3.1,3.1,0,0,1-1.61-.63C101.19,199.75,98.84,198.22,96.31,196.61Z"/><path class="cls-2" d="M86.85,203.29c5-5.32,10-5.43,14.87-.48-.16.23-.27.56-.49.67-2.15,1-4.31,2-6.34,3Z"/><path class="cls-2" d="M324,225.09c-2.4-.71-4.53-1.31-6.64-2a2.72,2.72,0,0,1-1.47-.89c-1.29-2.09-3.07-3.94-3.72-6.76a13.65,13.65,0,0,1,2,0c2.19.34,4.38.73,6.7,1.13C322.32,219.25,324.22,221.69,324,225.09Z"/><path class="cls-2" d="M78.43,224.58c.36,5.81-.81,10.07-4.09,14.08-1.71-1.65-2.23-3.63-3-5.7C72.84,229.9,75.22,227.54,78.43,224.58Z"/><path class="cls-2" d="M317.8,235.06c-2.63,1.45-4.94,2.21-7.88,1.62.41-3.93,1.05-7.58,3.67-11C315.81,228.57,316.81,231.6,317.8,235.06Z"/><path class="cls-2" d="M78.63,220.08l-7.37-.51A3,3,0,0,1,73.11,216a15.64,15.64,0,0,1,9.94-1.12C82,217.35,80.1,218.57,78.63,220.08Z"/><path class="cls-2" d="M201.42,49.43c-.79-2.6-1.57-4.8-1.55-7.43a13.2,13.2,0,0,1,9.1-.29C208,45.1,206.35,46.79,201.42,49.43Z"/><path class="cls-2" d="M138.05,194.4a13.39,13.39,0,0,1,1.84,2.5c.85,2.18,1.12,6.53.76,9.91-2.24.35-3.29-1.59-5.14-2.52C136.32,201.12,137.12,198,138.05,194.4Z"/><path class="cls-2" d="M197.55,48.82A20.7,20.7,0,0,1,188.22,47c1.71-2.84,3.54-3.85,8.1-4.44A11.92,11.92,0,0,1,197.55,48.82Z"/><path class="cls-2" d="M70.6,229.67A13.09,13.09,0,0,1,70,228c-.61-4.42-.84-6.9,5.88-5.94C75.23,224.58,74,226.46,70.6,229.67Z"/><path class="cls-2" d="M318.76,225.39l5.28,3.07c.15,2.32-.94,3.54-2.81,4.67-1.75-2.2-2.25-4.76-3.47-7Z"/><path class="cls-2" d="M94.09,135.29l4-3.89,2.21,3c-1.84,1.78-3.92,1.41-5.81,1.73Z"/></svg>