<svg xmlns="http://www.w3.org/2000/svg" width="557.161" height="557.514" viewBox="0 0 557.161 557.514">
  <g id="Group_951" data-name="Group 951" transform="translate(15509 19373.447)">
    <ellipse id="Ellipse_47" data-name="Ellipse 47" cx="278.58" cy="278.581" rx="278.58" ry="278.581" transform="translate(-15509 -19373.447)" fill="#e9ddd2"/>
    <g id="Group_932" data-name="Group 932" transform="translate(-16046.721 -18524.912)">
      <path id="Path_2090" data-name="Path 2090" d="M796.74-747.687c39.748-.865,79.464.431,119.124,2.7,23.937,1.372,47.866,3.6,71.468,8.236a124.2,124.2,0,0,1,12.735,2.957c9.238,2.849,14.217,9.843,14.026,19.663a37.5,37.5,0,0,1-1.392,9.008,106.577,106.577,0,0,1-4.447,13.671c-12.1,28.553-15.917,58.607-18.009,89.285-2.314,33.921-3,68.067-9.956,101.554-.709,3.414-1.488,6.823-2.452,10.171-2.522,8.767-7.445,15.56-15.756,19.9-10.447,5.463-20.795,10.981-32.387,13.828-6.759,1.66-13.353,4.025-19.969,6.231-14.581,4.862-29.636,7.391-44.859,8.837-24.408,2.319-48.786,2.538-73.12-1.406-8.6-1.393-17.381-1.58-26.041-2.639-19.471-2.381-38.972-4.606-58.353-7.593-12.108-1.867-23.5-6.38-34.423-12.081-15.966-8.33-24.776-21.73-27.747-39.024a233.635,233.635,0,0,1-3.233-29.9c-1.359-33.153-2.169-66.329-3.44-99.486-.317-8.27-.861-16.661-2.625-24.706-1.466-6.686-4.729-13.01-7.473-19.375-2.239-5.193-5.311-10.054-7.259-15.34-3.288-8.923-3.227-17.953,1.035-26.7,3.6-7.383,9.056-12.659,16.948-15.39,11.249-3.892,22.973-5.1,34.686-6.342C714.678-745.956,755.7-746.969,796.74-747.687Zm-31.056,8.909c-16.777.793-40.744,2.24-64.733,2.954a236.1,236.1,0,0,0-50.383,7.21c-12.549,3.132-17.55,8.991-18.236,21.961-.329,6.215,1.382,8.931,7.828,9.834,17.7,2.481,35.423,4.866,53.2,6.663,15.616,1.578,31.311,2.423,46.984,3.377,11.752.715,23.613,2.248,35.271,1.369,22.76-1.717,45.319-.694,67.942,1.49,10.848,1.047,21.768,1.857,32.657,1.874,19.639.03,39.282-.523,58.919-1.011,16.192-.4,32.055-3.429,47.962-6.209,7.757-1.356,12.515-5.5,15.023-12.693.718-2.059,1.557-4.077,2.214-6.155,4.364-13.8,2.028-17.868-12.041-21.433-17.445-4.421-35.32-5.38-53.15-6.332-19.6-1.047-39.258-1.059-58.856-2.145C841.824-739.933,807.367-740.123,765.684-738.778ZM975.237-567.236c-6.232.563-10.54.685-14.755,1.376-22.8,3.741-45.525,7.917-68.531,10.471-16.518,1.833-33,3.216-49.616,3.055-28.367-.274-56.737-.7-85.1-.524-31.54.195-62.736-2.174-93.414-9.9-3.211-.809-6.627-.807-10.677-1.263-.51,8.306-.354,15.451,2.192,23.021l38.708,7.324c30.5,5.771,61.186,9.323,92.3,9.375,26.269.045,52.287-2.878,78.335-5.508,9.957-1.006,19.878-2.712,29.7-4.689,18.378-3.7,36.658-7.887,55-11.761,8.048-1.7,16.256-2.749,24.5-6.34C974.265-556.852,974.66-561.072,975.237-567.236ZM651.353-599.7c1.862,1.012,2.572,1.653,3.372,1.8a551.047,551.047,0,0,0,102.817,8.875c27.92-.252,55.852.46,83.775.967,32.8.594,65.415-1.943,97.9-6.013,12.868-1.612,25.53-4.86,37.8-7.267,3.115-10.644,3.115-10.644,1.088-19.065-4.178.588-8.456,1.025-12.669,1.811-18.475,3.449-37.192,4.706-55.887,5.869q-30.047,1.867-60.163,2.536c-21.372.473-42.759.4-64.138.312-12.648-.052-25.307-1.128-37.938-.812-27.182.681-53.993-2.215-80.681-6.94-5.084-.9-10.21-1.567-15.708-2.4C649.35-612.781,650.078-606.416,651.353-599.7Zm-.682-26.7c8.646,1.155,17.256,2.168,25.821,3.478a409.539,409.539,0,0,0,65.174,5.1c14.4-.112,28.8.688,43.2.819,20.081.184,40.219,1.1,60.233-.048,34.847-2,69.821-2,104.537-6.146,10.3-1.23,20.55-2.78,30.047-6.089,1.608-7.654,1.608-7.654-.266-13.254-2.482.357-5.049.655-7.589,1.1-13.739,2.436-27.407,5.442-41.449,5.541-41.044.289-82.052-.227-122.934-4.572a295.013,295.013,0,0,0-32.643-2.021c-38.428.2-76.8-.421-115.026-4.852-3.273-.38-6.869-1.391-10.511,1.327C648.739-639.771,648.331-633.4,650.671-626.394Zm325.48,33.209c-4.965.788-8.405,1.169-11.771,1.9-20.046,4.336-40.225,7.528-60.78,8.2-8.7.284-17.375,1.432-26.076,1.909-9.132.5-18.287,1.027-27.424.914-33.553-.415-67.1-1.132-100.655-1.656-25.286-.4-50.529-1.2-75.436-6.181-7.19-1.438-14.3-3.483-22.1-3.485-1.384,6.807-1.254,13.111,1,19.324,31.146,8.665,62.686,11.967,94.566,12.324,31.81.357,63.628.646,95.436.322a463.933,463.933,0,0,0,46.922-2.887c19.894-2.233,39.673-5.519,59.473-8.542,8.551-1.306,17.029-3.089,25.441-4.638C976.651-581.387,976.631-586.434,976.151-593.185ZM655.66-515.616c3.281.83,5.728,1.57,8.224,2.062,14.089,2.778,28.219,5.354,42.28,8.264,32.964,6.822,66.127,11.256,99.893,8.731,16.081-1.2,32.163-2.428,48.219-3.922,9.1-.847,18.175-2.121,27.227-3.444A600.467,600.467,0,0,0,952.981-519.3c6.144-1.679,12.788-2.555,18.843-7.1-.869-5.215,2.25-10.641-.844-16.778-7.809,1.589-15.439,3.124-23.062,4.7-24.717,5.1-49.138,11.54-74.287,14.648-25.97,3.21-51.932,6.091-78.109,6.7a433.422,433.422,0,0,1-94.865-8.144c-14.921-2.962-29.875-5.754-45.021-8.663C653.6-528.043,654.815-522.522,655.66-515.616Zm2.7,19.807a234.238,234.238,0,0,0,36.129,12.785c29.727,7.533,60.064,10.306,90.666,11.467,23.638.9,47.091-1.088,70.614-2.359a370.245,370.245,0,0,0,53.22-6.467,433.521,433.521,0,0,0,57.325-15.963c3.939-11.053,3.939-11.053,2.008-19.613-8.829,2.308-17.662,4.569-26.468,6.929a475.218,475.218,0,0,1-73.226,13.6c-15.179,1.6-30.389,2.926-45.55,4.675a319.9,319.9,0,0,1-95.117-3.309c-18.85-3.473-37.568-7.659-56.36-11.45-4.574-.923-9.207-1.553-14.99-2.513C657.3-503.235,657.826-499.57,658.364-495.809Zm328.369-186.36c-5.026.484-8.865.637-12.628,1.254-16.8,2.752-33.639,4.9-50.7,4.82-19.18-.087-38.362.029-57.54-.225-7.39-.1-14.766-1.048-22.156-1.474-13.918-.8-27.846-2.2-41.761-2.1-23.087.157-46.112,1.269-69.216-1.063-29.887-3.017-60.044-3.381-89.635-9.32a42.149,42.149,0,0,0-5.309-.35c1.226,8.956,4.815,14.415,13.884,15,4.334.277,8.607,1.5,12.941,1.776,32.617,2.055,65.233,4.142,97.868,5.891,23.927,1.282,47.884,1.99,71.821,3.116,8.7.409,17.366,1.52,26.065,1.908,26.14,1.167,52.3,1.765,78.437.177,15.163-.922,30.358-2.157,45.473-7.173C985.028-673.694,985.761-677.341,986.733-682.169Zm-4.226,21.021c-4.032.363-6.98.532-9.9.912-6.481.844-12.926,2.33-19.425,2.6q-30.734,1.284-61.5,1.782c-10.461.164-20.946-.267-31.4-.815-17.857-.935-35.688-2.371-53.548-3.225-16.561-.792-33.155-.893-49.717-1.678-15.25-.724-30.481-1.877-45.711-2.979-18.7-1.354-37.4-2.83-56.09-4.309-2.867-.227-5.71-.752-9.213-1.227-.6,5.631.008,10.155,2.576,14.705,2.134.315,4.255.714,6.4.93,36.946,3.743,74.015,4.456,111.114,4.8,14.378.133,28.813.555,43.108,1.99,40.024,4.02,80.141,4.732,120.3,4.4,17.539-.145,34.552-3.889,51.965-8.133C981.811-654.632,982.107-657.4,982.507-661.148ZM662.917-487.517c.374,2.348.216,3.723.8,4.621,4.17,6.455,10.219,10.569,17.179,13.579a169.923,169.923,0,0,0,38.639,11.965c41.356,7.1,82.816,10.959,124.98,8.028,28.117-1.954,55.356-6.852,81.909-15.7,10.264-3.419,19.92-8.7,29.763-13.33,3.079-1.448,5.541-3.7,4.831-7.744a12.113,12.113,0,0,0-3.044-.083c-3.361.928-6.692,1.968-10.022,3a355.271,355.271,0,0,1-83.372,15.628c-35.72,2.239-71.392,4.334-107.217,1.107-28.807-2.594-57.051-7.174-84.133-17.68C670.132-485.32,666.917-486.209,662.917-487.517Z" fill="#29302c"/>
      <path id="Path_2091" data-name="Path 2091" d="M712.295-444.588l36.885,5.576c3.4,3.224,2.589,6.9,2.28,10.238-2.284,24.717-4.543,49.438-7.2,74.117-1.536,14.281-3.728,28.494-5.763,42.718a48.324,48.324,0,0,1-2.383,10.124c-2.454,6.526-7.706,9.413-14.419,8.453-6.59-.942-10.128-4.128-11.133-10.887a107,107,0,0,1-1.218-15.623c-.009-13.942.187-27.887.5-41.826.474-20.9,1.109-41.8,1.7-62.694C711.727-430.449,711.995-436.5,712.295-444.588Z" fill="#29302c"/>
      <path id="Path_2092" data-name="Path 2092" d="M912.96-442.39c.436,4.265.968,7.669,1.1,11.089.44,11.313.821,22.629,1.068,33.947.457,20.887,1.021,41.775,1.1,62.664.038,9.978-.777,19.972-1.509,29.936a14.489,14.489,0,0,1-8.426,12.362c-6.225,3.15-13.87.715-16.4-5.691a50.622,50.622,0,0,1-3.216-12.6c-2.7-23.342-5.144-46.715-7.662-70.078q-2.448-22.705-4.83-45.417c-.257-2.493-.155-5.024-.228-7.858Z" fill="#29302c"/>
      <path id="Path_2093" data-name="Path 2093" d="M798.854-433.35c10.3-.024,20.191.282,30.562,2.149.244,3,.748,5.542.609,8.048-1.091,19.6-2.16,39.205-3.6,58.781a35.4,35.4,0,0,1-3.311,12.48c-3.17,6.593-13.3,6.988-17.419.8a27.178,27.178,0,0,1-4.08-9.54c-4.467-22.8-5.335-45.874-4.471-69.038C797.178-430.458,797.84-431.219,798.854-433.35Z" fill="#29302c"/>
      <path id="Path_2094" data-name="Path 2094" d="M641.277-711.518c2.122-2.885,2.8-4.714,4.086-5.374A34.689,34.689,0,0,1,655-720.63c12.861-2.216,25.731-4.646,38.7-5.9,52.615-5.082,105.4-4.135,158.145-3.4,31.385.434,62.766,1.466,94.136,2.594,11.74.422,23.458,1.736,35.153,2.958a17.351,17.351,0,0,1,8.413,2.975c1.778,1.353,2.925,4.288,3.209,6.656.34,2.841-2.022,4.887-4.578,5.668a81.493,81.493,0,0,1-12.729,2.9c-10.366,1.415-20.746,2.9-31.171,3.668-46.113,3.422-92.263,5.846-138.54,4.449-23.1-.7-46.222-.6-69.292-1.724-27.419-1.335-54.783-3.717-81.885-8.353C650.739-708.793,647.016-710.039,641.277-711.518Z" fill="#29302c"/>
    </g>
  </g>
</svg>
