<svg xmlns="http://www.w3.org/2000/svg" width="557.161" height="643.502" viewBox="0 0 557.161 643.502">
  <g id="Group_949" data-name="Group 949" transform="translate(14655 19416.727)">
    <g id="Group_943" data-name="Group 943">
      <ellipse id="Ellipse_48" data-name="Ellipse 48" cx="278.58" cy="278.581" rx="278.58" ry="278.581" transform="translate(-14655 -19373.447)" fill="#a6bcb2"/>
      <g id="Group_934" data-name="Group 934" transform="translate(-13585.721 -19199.912)">
        <path id="Path_2080" data-name="Path 2080" d="M-642.477,366.435c-.8-6.834-1.935-13.668-1.975-20.516-.174-24.948.374-49.9.013-74.843-.253-17.179-1.348-34.358-2.429-51.51-.774-12.334-5.54-23.226-12.868-33.2a151.685,151.685,0,0,0-36.974-35.626c-13.148-8.984-26.389-17.807-41.566-23.146-2.042-.707-4.085-1.588-3-4.912,1.335-.441,2.95-.934,4.526-1.508,9.49-3.471,10.571-4.686,10.6-14.99.027-7.729-.908-15.458-.908-23.186,0-7.075-3.5-11.159-9.677-13.655-4.3-1.736-8.543-3.618-12.748-5.406-.467-3.6-.28-6.794-1.334-9.5-3.538-9.13-2.136-18.634-2.67-27.991-.828-14.443,5.086-24.828,18.42-30.954,7.422-3.391,14.59-7.329,21.958-10.866,22.852-10.972,45.744-21.851,68.6-32.81,2.67-1.281,5.206-2.829,8.2-4.485a96.746,96.746,0,0,0-13.629-25.454c-4.324,1.922-8.235,3.51-11.986,5.379q-45.591,22.665-91.141,45.437a106.9,106.9,0,0,0-10.238,5.433C-774.29-14.881-782.325-5.8-783.606,7.878a10.978,10.978,0,0,1-1.282,3.15c-3.03,1.655-5.74,2.643-9.41.16-1.028-12.694-2.1-25.895-2.87-35.506-5.286-7.422-8.783-12.32-11.373-15.938-11.266,0-20.3.107-29.326-.053a9.827,9.827,0,0,0-8.783,4.351c-2.75,3.778-5.552,7.529-8.582,11.64-.414,4.164-.868,8.8-1.375,13.922-5.473-1.8-10.318-3.471-15.2-4.979C-896.8-23.143-929.5-9.969-939.219,21.4c-10.065,32.476,9.824,68.423,42.807,76.712,5.767,1.442,11.693,2.256,17.193,3.3a11.236,11.236,0,0,1,.721,1.762c.267,1.682.547,3.377.68,5.086,1.082,14.376,1.082,14.376,15.658,20.022-3.457,2.309-5.513,3.724-7.622,5.072-12.641,8.156-25.428,16.085-37.9,24.494-14.083,9.5-25.308,21.918-34.839,35.906-5.98,8.783-9.49,18.261-8.636,29.073.307,3.857.373,7.742.56,11.6.494,10.305,1.068,20.6,1.455,30.9.775,20.2,1.7,40.392,2.109,60.587.388,18.834,3.591,37.549.388,56.57-2.2,13.161,4.324,22.024,17.272,26.616a199.967,199.967,0,0,0,23.493,6.781c19.328,4.284,38.95,6.54,58.638,8.569,39.19,4.031,78.233,2.363,117.063-2.9,18.234-2.47,36.2-7.275,54.073-11.853,8.249-2.109,16.072-6.02,23.907-9.518,8.983-4,12.307-11.559,11.6-20.983C-640.915,374.911-641.983,370.707-642.477,366.435ZM-850.227,78.569c15.377.721,30.781.935,46.185,1.322a26.73,26.73,0,0,0,3.844-.281c3.871-.493,5.312-.867,6.394-3.043V46.414a139.045,139.045,0,0,1,.16-17.62c3.23-.374,5.993-.707,9.45-1.121a90.9,90.9,0,0,1,1.709,13.522c.013.267.013.52.013.774V76.954c14.122-.627,27.6-4.431,41.393-3.083.56.053,1.027,1.174,1.535,1.8-8.743,4.365-34.892,8.876-57.05,9.824-39.337,1.695-51.03,1.068-62.269-3.4C-856.874,78.636-854.018,78.382-850.227,78.569Zm-21.424.307a18.538,18.538,0,0,1-7.341,1.709c-21.931.667-43.021-18.527-43.755-40.512-.708-21.29,15.991-35.052,36.427-34.438,9.584.294,18.38,3.764,26.269,9.411,3.764,2.7,5.98,5.993,6.046,10.691.027,2.136.294,4.272.361,6.421.387,11.973.734,23.946,1.108,36.64C-859.544,72.523-865.5,75.9-871.651,78.876Zm-56.276,114.447c11.84-17.446,28.312-29.806,45.785-40.979,5.419-3.457,11.092-6.553,16.725-9.677,6.394-3.551,12.734-7.1,16.645-13.815,5.539,0,10.665-.2,15.791.026,24.107,1.068,48.106.227,71.946-3.911.414-.066.841-.173,1.268-.227,5.78-.72,6.167-.36,6.968,7.142.093-.027.187-.04.28-.067a3.116,3.116,0,0,0-.026.347,97.519,97.519,0,0,0,9.744,5.379c21.637,9.224,40.218,22.946,57.45,38.683,5.072,4.632,10.065,9.4,14.683,14.483,5.473,6.033,3.417,12.093-4.578,14.429a33.356,33.356,0,0,1-6.287,1.4q-32.1,2.763-64.218,5.326c-2.5.187-5.059-.374-7.6-.588-.734-1.388-1.8-2.469-1.829-3.577a592.215,592.215,0,0,1,2.63-75.537c-.081-.04-.161-.093-.241-.133,0-.054-.013-.094-.013-.147-9,2.1-18.354,2.456-27.671,4.9-.841,24.4-.934,47.973-2.149,71.853-2.99,0-5.219.533-6.994-.121-2.83-1.067-2.843-3.977-2.737-6.58.281-7.729.681-15.457.948-23.2q.58-17.4.988-34.8a49.913,49.913,0,0,0-.654-5.873h-53.553c-4.3,21.958-2.362,44.81-5.446,67.942-2.389,1.121-4.9,2.723-7.648,3.5-15.19,4.312-30.434,4.939-45.758.441-6.58-1.936-13.361-3.244-19.942-5.179-2.71-.788-5.139-2.5-8.3-4.085A72.109,72.109,0,0,1-927.927,193.323Zm144.8,31.288c-.067.441.2,2.95-.908,4.459-1.041,1.388-3.523,2.215-5.392,2.282a4.633,4.633,0,0,1-3.538-2.763,35.52,35.52,0,0,1-.226-8.837c.2-3.457,1.722-4.925,4.511-4.872,3.551.067,5.233,1.722,5.553,5.513C-783.059,221.234-783.126,222.088-783.126,224.611Zm126.474,161.833c-7.769,4.819-17.073,6.781-26.136,9a475.619,475.619,0,0,1-98.162,13.335c-30.527.934-61.081.654-91.448-3.044-14.9-1.815-29.66-4.779-44.45-7.448a41.835,41.835,0,0,1-9.717-3.31,6.654,6.654,0,0,1-4.151-6.034c-.054-1.708-.2-3.43-.267-5.152-1-25.348-1.909-50.7-3.017-76.031q-1.782-40.6-3.9-81.17c-.307-6.047.014-11.907,2.683-17.927,4.939-.507,9.5.534,14.016,1.655,6.661,1.656,13.335,3.3,19.915,5.26,13.589,4.044,27.151,3.417,40.779.413,2.843-.627,5.766-.974,9.063-1.521.574,2.122,1.282,3.7,1.362,5.312.187,3.431.147,6.888.013,10.318-.48,11.947,2.229,22.278,14.9,28.031.267,6.875.534,13.669.8,20.463q1.041,27.07,2.1,54.127a21.92,21.92,0,0,0,.387,3.844c2.91,13.175.521,17.633,21.09,13.415,3.244-6.621,2.3-13.148,2.537-19.528.747-19.756,1.708-39.5,2.109-59.253.16-7.942,5.753-12.053,10.2-17.926,3.231,0,6.621.04,10.012-.014,5.152-.08,10.331,0,15.47-.373,9.331-.694,14.963-3.524,14.483-15.364-.254-6.327-.588-12.788,1.428-19.782,10.438-.614,20.65-1.1,30.834-1.829,10.719-.774,21.411-1.828,32.116-2.7,10.158-.814,20.062-4.058,30.3-3.978.668,1.829,1.455,3.017,1.482,4.218.267,16.739,1.975,33.4,1.014,50.216a532.168,532.168,0,0,0,.908,79.888c1.215,13.255,1.535,26.6,2.2,39.9C-655.664,384.242-656.2,385.069-656.652,386.444Z" fill="#29302c"/>
        <path id="Path_2081" data-name="Path 2081" d="M-812.549-49.748c-7.866,1.438-15.134.659-22.308.967a77.124,77.124,0,0,1-9-.648c-.471-2.111-1.123-3.723-1.149-5.345q-.809-50.189-1.441-100.379c-.015-1.206.648-2.419,1.158-4.2,4.629-2.181,9.891-1.339,14.856-1.982,4.615-.6,9.307-.589,14.364-.87,2.7,9.82,1.549,19.27,2.083,28.559.541,9.423.86,18.861,1.124,28.3.252,9.008.33,18.021.442,27.033C-812.306-68.99-811.529-59.64-812.549-49.748Z" fill="#29302c"/>
        <path id="Path_2082" data-name="Path 2082" d="M-787.312-197.357c-2.586,1.47-4.6,3.3-6.907,3.8-7.507,1.636-15.074,3.479-22.7,3.978-14.524.951-29.1,1.085-43.663,1.427a72.212,72.212,0,0,1-11.534-.53c-6.628-.915-8.769-5.5-5.238-10.963,6.191-9.577,15.189-15.485,26.342-16.4a295.5,295.5,0,0,1,37.22-.363c9.174.409,17.7,3.575,23.228,11.723C-789.185-202.649-788.516-200.131-787.312-197.357Z" fill="#29302c"/>
        <path id="Path_2083" data-name="Path 2083" d="M-605.776-64.773c-5.076,6.881-11.915,9.621-19.256,11.25-6.611-6.965-11.436-16.15-17.923-33.949,4.068-5.77,10.608-7.913,16.892-10.352,2.814-1.093,5.017.277,6.247,2.888C-615.127-84.974-610.517-74.974-605.776-64.773Z" fill="#29302c"/>
        <path id="Path_2084" data-name="Path 2084" d="M-810.865-183.445c1.435,5.231.873,8.823-1.709,11.172a14.593,14.593,0,0,1-7.875,3.466c-9.723.974-19.5,1.842-28.863.557-3.68-3.132-4.314-6.718-3.538-11.345C-839.174-182.063-825.276-182.73-810.865-183.445Z" fill="#29302c"/>
        <path id="Path_2085" data-name="Path 2085" d="M-612.225-99.72c1.668-.992,3.307-2.433,5.206-3,4.557-1.37,6.636-.775,8.636,2.942a95.15,95.15,0,0,1,6.221,13.892c2.5,7.226,2.271,7.3-5.642,12.814C-604.344-80.265-607.389-85.853-612.225-99.72Z" fill="#29302c"/>
        <path id="Path_2086" data-name="Path 2086" d="M-730.782,247.618c5.858,20.967,9.083,107.421,4.935,132.248-1.047-.945-2.541-1.634-2.686-2.539a89.281,89.281,0,0,1-1.129-11.48c-.737-25.287-1.3-50.579-2.092-75.864-.28-8.995-1.079-17.973-1.524-26.965-.211-4.271-.29-8.562-.093-12.828C-733.331,249.337-731.769,248.554-730.782,247.618Z" fill="#29302c"/>
        <path id="Path_2087" data-name="Path 2087" d="M-896.044,377.724c-4.081-1.767-3.453-4.675-3.492-7.036-.191-11.608-.021-23.224-.275-34.83-.479-21.921-1.176-43.837-1.746-65.756-.135-5.155-.26-10.319-.094-15.469.047-1.447,1.147-2.86,2.819-6.732a126.154,126.154,0,0,1,3.282,22.311c1.78,34.827.989,69.662.254,104.5A16.391,16.391,0,0,1-896.044,377.724Z" fill="#29302c"/>
        <path id="Path_2088" data-name="Path 2088" d="M-678.472,356.168c-1.487-1.844-3.035-2.9-3.259-4.185-1.253-7.179-2.689-14.385-3.13-21.638-1.121-18.421-1.765-36.871-2.551-55.312-.105-2.487-.268-5.131,2.6-6.691C-681.379,279.9-676.956,339.924-678.472,356.168Z" fill="#29302c"/>
        <path id="Path_2089" data-name="Path 2089" d="M-851.547,369.6c-2.724-.427-2.854-2.5-3.014-3.992-2.05-19.169-3.089-38.4-4.563-60.214,2.681,2.906,4.19,3.773,4.41,4.894,3.645,18.615,4.626,37.454,4.346,56.378C-850.383,367.68-851.159,368.678-851.547,369.6Z" fill="#29302c"/>
      </g>
    </g>
  </g>
</svg>
