<svg xmlns="http://www.w3.org/2000/svg" width="557.161" height="557.162" viewBox="0 0 557.161 557.162">
  <g id="Group_952" data-name="Group 952" transform="translate(14612 20392.447)">
    <g id="Group_946" data-name="Group 946">
      <ellipse id="Ellipse_29" data-name="Ellipse 29" cx="278.58" cy="278.581" rx="278.58" ry="278.581" transform="translate(-14612 -20392.447)" fill="#e4d3d0"/>
      <g id="Group_931" data-name="Group 931" transform="translate(-13614.721 -19541.912)">
        <path id="Path_2078" data-name="Path 2078" d="M-926.784-490.729c-.077-2.328.043-4.682-.261-6.98-3.586-27.128-2.022-54.358-1.528-81.552.635-34.97,1.738-69.928,4.917-104.785a36.443,36.443,0,0,0,0-5.817c-.582-8.394,2.931-15.067,8.6-20.87a75.765,75.765,0,0,1,18.843-13.574c15.176-8.115,31.394-13.424,48-17.6,23.776-5.98,47.924-9.688,72.316-12.246,19.364-2.031,38.741-3.412,58.18-3.536,47.123-.3,93.979,2.464,139.993,13.679,18.558,4.523,36.652,10.34,53.191,20.116a67.475,67.475,0,0,1,11.952,9.182,28.362,28.362,0,0,1,9.093,19.638c.4,8.535.712,17.1.48,25.636-.834,30.7-1.368,61.39-1.052,92.114.332,32.254-.407,64.519-.7,96.779q-.276,30.906-.6,61.812c-.2,19.826-.348,39.652-.7,59.475-.088,5.035-.887,10.054-1.285,15.086-.45,5.689-3.534,9.207-8.74,11.226-6.151,2.386-12.155,5.175-18.37,7.37-28.636,10.112-58.045,17.12-87.991,22.129-35.729,5.978-71.654,9.688-107.879,9.621-42.841-.078-85.4-3.262-127.085-14.018-16.575-4.276-32.817-9.553-48.235-17.1a102.528,102.528,0,0,1-10.232-5.56c-4.051-2.593-6.994-6.174-7.708-11.145-.772-5.372-2.005-10.75-2.078-16.138-.376-27.6-.4-55.2-.636-82.807-.143-16.709-.452-33.416-.686-50.124ZM-515-544.442c.542-41.021,1.08-81,1.566-120.977a55.367,55.367,0,0,0-.767-6.453c-3.1,1.372-5.567,2.215-7.788,3.492A247.843,247.843,0,0,1-566.7-648.728c-37.446,12.623-76.14,18.79-115.354,21.688-45.9,3.391-91.641,1.536-137.034-6.556-31.9-5.687-62.858-14.2-91.254-30.435-1.173-.67-2.763-.611-4.54-.968-.111,2.2-.333,3.714-.241,5.214,2.2,36.144.494,72.27-.419,108.4-.313,12.4-.078,24.791.611,37.2,3.278,1.041,5.8,2.041,8.424,2.635,6.05,1.375,12.14,2.573,18.221,3.806,23.215,4.71,46.394,9.631,70.2,10.436,14.752.5,29.494,1.412,44.249,1.676,40.491.725,80.853-1.246,120.818-8.061a585.772,585.772,0,0,0,112.186-30.557C-532.52-537.451-524.258-540.786-515-544.442Zm-184-93.13c33.677-1.77,68.877-4.69,103.524-12.332,19.389-4.275,38.366-9.929,56.149-18.829a89.292,89.292,0,0,0,19.289-12.855c11-9.787,10.7-19.966.1-29.922a53.005,53.005,0,0,0-5.432-4.4c-7.613-5.456-15.662-10.247-24.612-13.043-12.206-3.814-24.445-7.69-36.908-10.476-41.921-9.373-84.565-11.641-127.355-11.515a598.759,598.759,0,0,0-107.753,10.278c-19.09,3.547-37.978,8.2-55.947,15.716a180.565,180.565,0,0,0-23.721,12.266A44.563,44.563,0,0,0-912.8-702.572c-5.513,6.813-5.476,14.592-.013,21.38a54.543,54.543,0,0,0,10.21,9.426c7.551,5.561,16.091,9.336,24.861,12.583,18.264,6.762,37.114,11.234,56.289,14.422C-781.441-638.109-741.116-636.783-699-637.572Zm180.378,274.533a38.261,38.261,0,0,0-4.727,1.719c-23.583,12.554-48.912,19.6-75.044,24.4-17.237,3.165-34.614,4.914-52,6.825-34.533,3.8-69.142,3.478-103.706,1.686-22.09-1.144-44.144-3.684-66.1-6.475-28.525-3.624-56.81-8.726-84.32-17.444-2.038-.646-4.2-2.032-6.872-.249-.028,8.3,3.139,14.539,11.206,18.278a262.953,262.953,0,0,0,51.814,17.419c40.4,9.311,81.446,11.954,122.739,11.715,26.865-.155,53.549-2.864,80.186-6.283a605.85,605.85,0,0,0,103.414-22.857,160.612,160.612,0,0,0,15.384-5.392c2.377-1.016,5.294-2.8,6.15-4.95C-518.272-350.278-516.686-356.279-518.625-363.039Zm-24.036-1.765c2-35.481-1.367-137.992-5.144-154.3a95.814,95.814,0,0,0-21.126,6.722c-.164,3.078-.492,6.137-.456,9.191.077,6.605.319,13.207.532,19.809q1.864,57.669,3.8,115.336c.113,3.282-.7,6.924,2.337,10.127,3.361-.976,6.714-1.815,9.972-2.931S-546.316-363.356-542.661-364.8Zm-285.7-120.76c.158,4.774.184,8.257.4,11.728,1.3,20.547.791,41.056-.4,61.606-1.141,19.72-1.378,39.494-1.849,59.248-.051,2.137.978,4.3,1.536,6.574,8.83.577,16.966,3.8,26.026,1.8.045-3.6.15-6.635.11-9.667-.228-17.05-1.417-34.15-.517-51.139,1.255-23.687.529-47.289-.321-70.924-.1-2.626-.6-5.237-.981-8.378C-812.367-485.175-819.837-487.4-828.363-485.564Zm95.417,145.752c-.047-4.785.005-8.606-.139-12.42-.469-12.432-1.27-24.858-1.47-37.293-.494-30.7-.72-61.413-1.1-92.119a6.108,6.108,0,0,0-.851-2.039c-10.1-1.788-14.125-1.59-22.952,1.3-.025,2.821-.169,5.878-.06,8.927.447,12.436,1.142,24.865,1.422,37.3.36,15.933.488,31.874.565,47.813.064,13.213-.145,26.428-.107,39.642a73.271,73.271,0,0,0,.952,8.209C-749-338.638-741.752-338.912-732.946-339.812Zm127.278-9.2c-.331-10.011-.5-20.043-1.039-30.056-.538-10.065-1.649-20.1-2.113-30.169s-.5-20.154-.608-30.234.086-20.167-.131-30.245c-.215-9.994.437-20.069-1.673-29.885-8.806-.3-12.023.373-21.66,4.507-1.2,4.389-.212,9.007.17,13.574a903.043,903.043,0,0,1,3.016,94.125c-.24,11.623.148,23.262.375,34.891a47.071,47.071,0,0,0,1.012,6.563C-618.228-344.694-613.528-345.358-605.668-349.013ZM-793.4-484.458c.122,3.693.113,6.329.311,8.951a626.544,626.544,0,0,1,1.584,72.065c-.767,19.342.4,38.762.766,58.145.013.688.607,1.365,1.317,2.861,6.66.7,13.651,2.968,21.722.921-.769-47.356-1.535-94.506-2.3-141.913C-777.391-485.576-784.673-484.912-793.4-484.458Zm98.414-2.289c.173,5.24.294,9.471.456,13.7q1.922,50.074,3.836,100.147c.331,8.929.332,17.871.7,26.8.088,2.166,1.014,4.3,1.573,6.515,6.7.354,12.815,1,19.155-1.794-2.554-48.974-.575-97.824-5.049-147.18A55.959,55.959,0,0,0-694.984-486.747Zm-31.4,2.409c.309,3.866.617,6.557.725,9.256.8,20.158,1.85,40.313,2.272,60.481.463,22.107.311,44.227.507,66.34.023,2.658.542,5.31.848,8.123a36.383,36.383,0,0,0,22.131.043c-.524-15.816-.986-31.3-1.565-46.771-.436-11.632-1.128-23.254-1.517-34.887-.661-19.775-1.159-39.556-1.774-59.333a32.678,32.678,0,0,0-.762-4.441A54.538,54.538,0,0,0-726.385-484.338Zm82.755-9.968c-7.387,1.5-13.938,1.7-20.418,4.005-.631,8.348.461,16.03,1.3,23.7a539.221,539.221,0,0,1,2.668,64.075c-.178,17.494.16,35,.4,52.492.036,2.606.806,5.2,1.21,7.643,9.995,1.012,10.17.994,18.97-1.879C-641.235-393.723-640.613-443.389-643.63-494.306Zm-215.515,5.021c.242,45.166.473,89.356.748,133.546a15.479,15.479,0,0,0,.781,3.356c4.829,3.325,10.133,3.013,16.093,3.117.253-2.877.62-5.106.619-7.336-.007-22.885,0-45.732,1.6-68.619,1.355-19.309.539-38.772.578-58.167,0-1.412-.858-2.826-1.333-4.289C-846.518-488.136-852.357-491.221-859.145-489.285ZM-593.2-351.536c6.267,1,11.638-.051,16.578-3.461-.155-4.68-.232-8.914-.447-13.142-.667-13.167-1.584-26.324-2.045-39.5-1.059-30.23-2.459-60.457-1.385-90.725.115-3.236,1.231-6.9-2.218-10.338l-18.722,5.663c.086,2.609-.135,4.558.256,6.376,2.883,13.381,2.962,26.979,3.01,40.541.114,32.6,1.881,65.119,3.867,97.635C-594.167-356.221-593.6-353.983-593.2-351.536Zm63.159-21.371c11.052-2.8,13.48-5.365,13.689-14.654.227-10.078.129-20.163.23-30.245q.542-54.081,1.073-108.162c.015-1.766-.667-3.537-1.182-6.088-7.567,2.525-14.366,4.737-20.541,9.2,1.558,16.8,3.462,33.356,4.529,49.964,1.068,16.633,1.494,33.316,1.845,49.985C-530.049-406.312-530.143-389.709-530.041-372.907Zm-339.838,19.266c-.158-47.042-.313-92.741-.468-138.824-6.95-1.564-12.956-4.314-19.647-3.46-1.365,10.852,1.975,126.148,3.951,137.692a11.659,11.659,0,0,0,2.91,1.7C-879.4-355.593-875.617-354.868-869.879-353.641Zm-28.65-7.162c-3.4-47.523-1.962-93.612-4.415-140.037l-11.338-2.854c.108,4.7.246,8.529.277,12.355.126,15.534.273,31.069.313,46.6.062,24.464.005,48.928.119,73.391.012,2.608.831,5.212,1.29,7.9a40.558,40.558,0,0,0,4.794,1.545C-905.253-361.485-902.971-361.327-898.529-360.8Z" fill="#29302c"/>
        <path id="Path_2079" data-name="Path 2079" d="M-695.348-660.887c-32.639,1.49-65.26.576-97.813-1.666-25.552-1.759-51-4.908-75.727-12.024-6.3-1.814-12.333-4.6-18.43-7.081a23.2,23.2,0,0,1-4.992-2.957c-9.186-6.845-9.516-15.36-.2-21.816a67.948,67.948,0,0,1,17.564-8.851A328.048,328.048,0,0,1-823.96-726.86c40.865-6.274,81.97-7.747,123.157-7.965,16.675-.088,33.352,1.69,50.04,2.043,22.6.477,44.881,3.649,67.017,7.726,10.63,1.957,21.041,5.283,31.389,8.508,3.994,1.244,7.739,3.632,11.251,6.011,9.882,6.7,10.145,15.523.339,22.5-7.62,5.423-16.374,8.608-25.438,11.112-39.984,11.047-80.954,14.263-122.153,15.8C-690.687-661.032-693.018-660.964-695.348-660.887Zm-32.308-65.187c-33.125,1.045-58.723,2.473-84.179,5.878-19.245,2.574-38.406,5.519-56.976,11.468-6.337,2.031-12.471,4.459-17.609,8.749a7.443,7.443,0,0,0-2.554,4.818c-.083,2.525,2.031,4.341,4.379,4.754a9.01,9.01,0,0,0,5.357-1.073c12.824-6.837,26.689-10.437,40.747-13.541,30.452-6.725,61.4-9.706,92.427-11.5,43.917-2.535,87.811-1.528,131.438,4.419,21.513,2.932,43.137,6.185,62.164,18.022a5.225,5.225,0,0,0,1.073.444c2.733.94,6.282-.853,7.551-3.9,1.1-2.64-.23-4.7-2.241-5.976-3.585-2.282-7.2-4.871-11.181-6.1-9.626-2.981-19.343-6.044-29.254-7.643-19.523-3.149-39.091-5.818-58.93-7.033C-675.353-726.122-705.214-726.737-727.656-726.074Z" fill="#29302c"/>
      </g>
    </g>
  </g>
</svg>
