<svg xmlns="http://www.w3.org/2000/svg" width="557.161" height="632.23" viewBox="0 0 557.161 632.23">
  <g id="Group_950" data-name="Group 950" transform="translate(13691 19448.49)">
    <g id="Group_942" data-name="Group 942">
      <ellipse id="Ellipse_49" data-name="Ellipse 49" cx="278.58" cy="278.581" rx="278.58" ry="278.581" transform="translate(-13691 -19373.447)" fill="#d6c6c6"/>
      <g id="Group_935" data-name="Group 935" transform="translate(-13121.721 -19230.912)">
        <path id="Path_2095" data-name="Path 2095" d="M-490.252,113.947c-3.779-.477-7.307-.5-10.54-1.493a7.794,7.794,0,0,1-4.491-4.195c-1.787-5.052-.859-20.182,1.249-27.935l14.466-2.2c.184-3.525.542-6.944.507-10.359-.131-12.794-.4-25.586-.588-38.379a77.529,77.529,0,0,1,.166-7.939c.573-6.495,3.25-9.517,9.844-10.351,4.8-.607,9.685-.463,14.529-.712,21.543-1.107,43.084-2.235,65.362-3.393.666-2.091,1.8-4.449,2.145-6.916q10.737-77.308,21.263-154.644c1.22-9.006,4.186-17.033,10.352-23.839,7.4-8.173,14.583-16.55,22.016-24.695,6.492-7.113,14.609-10.853,24.245-12.173,23.3-3.193,46.665-2.278,70.036-1.816a24.918,24.918,0,0,1,14.751,5.166c10.192,7.711,20.439,15.38,30.213,23.6,7.641,6.429,11.805,14.919,13.594,25A940.288,940.288,0,0,1-177.842-54.4c.883,14.967,2.02,29.92,3.172,44.87.337,4.367,1.124,8.7,1.787,13.671,3.255.455,6.164,1.115,9.094,1.231,21.6.854,43.2,1.592,64.8,2.389a47.263,47.263,0,0,1,6.589.511c6.608,1.187,9.258,3.559,9.805,10.331,1.808,22.416,4.067,44.836,4.71,67.3,1.149,40.133,1.308,80.295,1.763,120.446.364,32.207.694,64.415.732,96.623.011,9.244-1.155,18.485-1.575,27.736a22.607,22.607,0,0,1-6.369,15.467q-29.4,30.467-58.585,61.144c-4.89,5.131-10.728,7.293-17.758,7.259-19.849-.1-39.7.18-59.547.032q-45.651-.34-91.3-1.061-45.658-.651-91.314-1.549a52.316,52.316,0,0,1-11.8-1.251c-3.309-.84-6.961-2.16-9.37-4.427-19.27-18.134-38.152-36.679-57.426-54.808-9.07-8.531-12.217-18.835-11.948-30.9.65-29.111,1.05-58.229,1.472-87.345q.825-56.911,1.492-113.827A35.865,35.865,0,0,0-490.252,113.947Zm10.387.31c-.232,4.615-.515,8.122-.57,11.632-.763,48.976-1.608,97.951-2.179,146.929-.221,18.965.308,37.938.246,56.906-.017,5.2,1.411,9.394,5.184,13,2.862,2.737,5.189,6.034,8.055,8.766,15.65,14.917,31.406,29.723,47.092,44.6a14.694,14.694,0,0,0,9.4,4.274c9.676.652,19.341,1.72,29.025,1.94,42.79.968,85.583,1.865,128.38,2.454,30,.413,60.008.153,90.009.481a29.318,29.318,0,0,0,22.385-9.03c16.6-16.5,32.732-33.385,47.622-51.476a33.9,33.9,0,0,0,8.2-22.921c-.113-29.566.348-59.134.583-88.7.2-25.151.849-50.31.468-75.453C-86.4,128.549-87.586,99.444-88.8,70.35c-.381-9.126-.752-18.344-2.339-27.246-2.031-.643-3.246-1.361-4.463-1.364q-33.092-.075-66.184.069c-2.434.014-4.862.938-7.668,1.517.434,6.329.818,11.916,1.212,17.659-1.885,1.128-3.281,2.584-4.85,2.8-10.891,1.519-21.8,3.048-32.745,4.008-5.077.446-7.27-1.531-8.632-6.4-1.761-6.3-3.167-12.708-4.8-19.383-3.252-.274-5.806-.679-8.359-.676q-34.416.043-68.833.211c-16.768.06-33.536.084-50.3.234-2.938.026-5.872.589-9.3.956-.734,5.034-1.228,9.363-2.027,13.635-.782,4.186-2.873,6.15-7.268,6.186-9.261.076-18.532-.037-27.784-.433-4.4-.188-6.327-2.357-6.752-6.635-.387-3.9-.485-7.822-.707-11.688-1.716-.653-2.922-1.514-4.124-1.51q-34.4.126-68.8.5c-2.042.025-4.073,1.022-6.837,1.763-.005,11.232-.419,22.053,1.576,32.537l6.454,1.723c1.345,20.416.818,34.046-1.249,35.443ZM-352.538,6.337c2.524.689,3.773,1.347,5.007,1.32q61.52-1.322,123.035-2.818c.746-.018,1.473-.825,3.05-1.767-5.016-57.318-8.025-115.246-16.293-173.281-29.775,0-58.86-.017-87.945.044-1.683,0-3.365.645-5.786,1.141-.993,8.849-2.2,17.532-2.9,26.257-1.732,21.538-3.33,43.056-7.133,64.4-3.325,18.655-5.632,37.5-8.144,56.289C-350.869-12.932-351.534-3.708-352.538,6.337Zm-11.8,50.766c1.052-15.123,1.824-28.738,3-42.319,1.061-12.3,2.459-24.579,3.883-36.847,3-25.85,6-51.7,9.22-77.523,2.184-17.5,4.824-34.944,7.114-52.432,1.316-10.056,2.2-20.17,3.53-30.224,2.076-15.641,10.2-23.787,27.182-24.956,19.463-1.339,38.8-.029,58.194.634a44.407,44.407,0,0,1,5.241.677c8.877,1.377,14.283,6.436,15.874,15.308,1.012,5.642,1.9,11.313,2.626,17,3.329,26.244,7.051,52.423,9.024,78.848,2.6,34.754,6.067,69.437,7.237,104.3.474,14.1,1.672,28.186,2.659,42.269.273,3.894.179,8.113,4.726,10.353,6.423-.591,13.025-1.046,19.579-1.879,2.44-.31,4.768-1.505,7.524-2.421a76.834,76.834,0,0,0-.447-8.4,354.113,354.113,0,0,1-4.3-50.05c-.4-16.746-.157-33.5-2.458-50.2-2.406-17.467-3.643-35.092-5.6-52.624-2.156-19.28-4.793-38.509-6.748-57.808-1.006-9.936-5.723-17.51-12.976-23.7-8.046-6.871-16.214-13.635-24.716-19.921-3.418-2.528-7.741-4.782-11.868-5.245a287.2,287.2,0,0,0-69.967.309,37.58,37.58,0,0,0-22.278,10.718q-11.121,11.325-21.875,23.01a32.865,32.865,0,0,0-8.472,18.986c-2.18,17.949-4.763,35.849-7.091,53.781-4.143,31.93-8.64,63.823-12.165,95.822-2.171,19.708-2.849,39.582-4.075,59.389-.1,1.581.764,3.221,1.3,5.311A117.678,117.678,0,0,0-364.342,57.1Zm8.961-24.756c7.94,2.051,14.078,1.216,20.176,1.05,17.163-.466,34.324-1.211,51.49-1.323,17.61-.115,35.224.452,52.837.564a85.714,85.714,0,0,0,9.927-1.031c1.056-9.9,1.056-9.9-1.738-18.019-4.391-.1-9.159-.377-13.92-.287-15.408.291-30.813.767-46.221,1.077-19.371.389-38.745.631-58.115,1.069-3.828.086-7.643.77-12.192,1.256C-353.9,22.02-354.565,26.658-355.381,32.347Zm26.129-209.882c6.954,2.5,14.448.567,21.774.913,7.885.373,15.8.2,23.7.148,7.459-.046,14.933.023,22.372-.434,7.748-.476,15.657.6,22.943-1.18,4.784-15.607,1.7-21.808-16.539-23.754-.435-.046-.877-.023-1.316-.027-12.288-.124-24.579-.451-36.863-.284a156,156,0,0,0-18.289,1.689c-18.812,2.492-17.578,7.424-18.449,21.213C-329.943-178.857-329.616-178.44-329.252-177.535ZM-91.731,33.9c.537-6.94,1.814-12.58-2.439-17.011a13.933,13.933,0,0,0-3.018-.938c-23.221-.807-46.444-1.6-69.67-2.262-1.553-.045-3.136,1.006-5.224,1.726.151,6.414.584,12.353,2.937,18.485ZM-400.28,17.527c-9.067-3.082-17.907-1.428-26.585-1.293-9.226.143-18.441,1.076-27.654,1.761-8.6.639-17.535-1.616-26.085,2.627-.457,4.524-2.078,8.837,1.48,12.633a11.012,11.012,0,0,0,2.6.684c23.366.112,46.732.222,70.1.188,2.01,0,4.018-1,6.146-1.564Zm-97.769,90.349a62.734,62.734,0,0,0,21.786-1c1.509-7.7,2.124-14.821-.932-22.8-7.685,1.03-15.485-2.3-23.429,2.2C-500.354,93.31-501.552,100.284-498.049,107.876Z" fill="#29302c"/>
        <g id="Group_919" data-name="Group 919">
          <path id="Path_2096" data-name="Path 2096" d="M-345.276,114.362c2.184.621,4.563.814,5.579,3.353l7.737-3.434c-.8-1.118-1.577-2.136-2.266-3.212a8.9,8.9,0,0,1-.614-1.75c1.236,1.006,2.273,1.8,3.255,2.662a2.874,2.874,0,0,0,3.674.5c1.343-.606,2.761-1.043,4.131-1.592.276-.11.657-.36.7-.6a16.6,16.6,0,0,1,3.729-7.647,23.357,23.357,0,0,1,2.185-2.45c1.06-.983,1.836-.931,2.662.237a3.63,3.63,0,0,0,3.223,1.386,3.509,3.509,0,0,1,2.469.9,3.189,3.189,0,0,0,2.745.537c.2-.018.53-.507.513-.759a3.687,3.687,0,0,0-1.828-3.314A39.721,39.721,0,0,0-311.23,97.7c-.332-.126-.66-.264-1.247-.5.8-.44,1.371-.695,1.878-1.045a29.021,29.021,0,0,1,13.56-4.935,50.333,50.333,0,0,1,9.359-.248c3.355.272,6.18,2.089,8.656,4.334,1.431,1.3,2.787,2.675,4.146,4.047a6.8,6.8,0,0,1,2.017,6.173.733.733,0,0,0,.64.961c2.83.7,5.667,1.381,8.653,1.949a25.135,25.135,0,0,0-2.706-2.584,56.045,56.045,0,0,1-10.541-10.163,22.436,22.436,0,0,1-1.614-2.226c-.672-1.049-.263-1.886.986-2.068a23.652,23.652,0,0,1,2.4-.255,70.127,70.127,0,0,1,11.369.4c2.811.337,5.7.213,8.458.763,5.941,1.185,10.969,3.927,13.849,9.595a10.247,10.247,0,0,1,1.136,6.913,4.29,4.29,0,0,1-4.1,3.813c-.685.083-1.361.239-2.2.39l12.131,4.911c0-.185.008-.4,0-.621a4.44,4.44,0,0,1,3.321-4.7,15.318,15.318,0,0,1,7.628-.432,5.234,5.234,0,0,0,2.012-.052,7.74,7.74,0,0,1,7.586,2.555c1.04,1.151,2.175,2.217,3.225,3.359.173.187.27.737.159.83a1.273,1.273,0,0,1-.925.216,21.2,21.2,0,0,0-3.381-.637,38.805,38.805,0,0,0-12.037,1.985c-.6.2-1.169.484-1.777.739l7.224,4.873c.142-.479.253-.977.435-1.449,1.628-4.217,5.6-5.946,10.023-4.527a19.453,19.453,0,0,1,4.917,2.8c2.005,1.36,3.958,2.808,6.039,4.04a26.627,26.627,0,0,1,11.635,14.061c2.033,5.362,2.756,10.9,3.407,16.493a50.134,50.134,0,0,1,.563,5.524,28.7,28.7,0,0,1-.563,5.207,9.885,9.885,0,0,0,.4,5.634,26.063,26.063,0,0,1,.821,3.665,5.938,5.938,0,0,0,.551,1.541c.679,1.2,1.425,2.366,2.184,3.611a8.321,8.321,0,0,0,.483-.71c2.135-3.967,5.695-4.862,9.785-4.436,3.311.345,5.527,2.467,7.086,5.153a35.247,35.247,0,0,1,2.909,6.717,36.979,36.979,0,0,1,.818,5.138c.348,2,.862,3.97,1.133,5.977.3,2.2.43,4.421.566,6.638a6.785,6.785,0,0,1-.212,2.2,28.453,28.453,0,0,1-4.347,9.82c-1.24,1.639-2.168,3.516-3.422,5.143-1.232,1.6-2.7,3.011-4.06,4.513-.735.813-1.41,1.682-2.182,2.456-1.406,1.409-2.866,2.764-4.3,4.146-.2.2-.505.392-.555.63-.317,1.531-.577,3.074-.87,4.7,2.827-2.477,5.914-4.089,9.717-4.07-1.735,1.13-3.45,2.295-5.212,3.382-1.733,1.07-3.5,2.075-4.659,3.837-.165.252-.31.519-.464.779l.191.188a4.555,4.555,0,0,0,.69-.494,30.234,30.234,0,0,1,8.112-5.627,5.883,5.883,0,0,1,2.648-.152,9.249,9.249,0,0,1,5.343,2.11c-1,0-1.855.016-2.7,0a20.049,20.049,0,0,0-8.128,1.853,59.727,59.727,0,0,0-5.74,3.055.776.776,0,0,0-.349.529c-.1,1.087-.2,2.179-.191,3.268a.881.881,0,0,0,1.1.9c.384-.045.769-.075,1.154-.118,4.277-.481,7.486,1.436,10.045,4.621a46.18,46.18,0,0,1,4.865,7.953c1.41,2.74,1.76,5.625,2.176,8.554.1.723.668,1.415.059,2.153-.282.342-.593.995-.834.97a3.03,3.03,0,0,1-1.68-.717c-.736-.7-1.205-1.7-1.978-2.34a21.059,21.059,0,0,0-3.859-2.64c-1.383-.7-2.969-.993-4.4-1.618-3.243-1.418-6.77-1.6-10.139-2.448-.869-.22-1.73-.472-2.4-.655l-13.343,19.848.153.336a6.166,6.166,0,0,0,1.47-.138c1.329-.458,2.6-1.12,3.95-1.463a4.268,4.268,0,0,1,2.544.148,16.969,16.969,0,0,1,3.8,2.183,11.687,11.687,0,0,0,6.47,2.607,10.2,10.2,0,0,1,7,3.408c1.716,1.879,3.442,3.751,5.085,5.693a13.557,13.557,0,0,1,1.633,2.612,39.135,39.135,0,0,1,2.951,8.656c.575,2.341,1.474,4.6,2.208,6.905.253.794.445,1.608.662,2.414.534,1.983,1.15,3.949,1.568,5.956a24.294,24.294,0,0,1,.389,4.214,1.4,1.4,0,0,1-.7,1.05c-.54.247-.728-.285-1.019-.7a15.159,15.159,0,0,0-2.049-2.35,20.414,20.414,0,0,0-6.493-4.23,14.785,14.785,0,0,0-2.089-.747,21.011,21.011,0,0,1-7.43-3.589c-1.231-.872-2.493-1.7-3.754-2.531a14.585,14.585,0,0,0-6.51-1.953,19.742,19.742,0,0,1-6.713-2.265A12.274,12.274,0,0,1-199.1,307c-1-1.251-1.936-2.555-2.976-3.771-1.59-1.858-3.228-3.675-4.89-5.468a1.2,1.2,0,0,0-1.051-.308c-2.959,1.265-5.954,2.473-8.8,3.959a24.241,24.241,0,0,0-3.835,3.134,7.132,7.132,0,0,0,.667.3q6.36,1.788,12.72,3.574a3.1,3.1,0,0,1,1.054.462,13.164,13.164,0,0,0,5.01,2.132,24.187,24.187,0,0,1,4.627,2.1.693.693,0,0,1-.175,1.308,5.4,5.4,0,0,1-2.157.34,19.164,19.164,0,0,0-7.271.64,15.323,15.323,0,0,1-8.4-.013c-2.675-.794-5.375-.358-8.054.036a16.484,16.484,0,0,1-7.161-.588,9.765,9.765,0,0,1-2.219-1.44,37.051,37.051,0,0,1-9.3,4.9c-.752.272-.49.8-.416,1.267.352,2.218.9,4.42,1.057,6.651.177,2.468-.039,4.962.006,7.443.112,6.067-1.461,11.945-1.968,17.945-.281,3.328-.91,6.63-1.464,9.93a9.308,9.308,0,0,1-.9,1.983c-.432.988-.841,1.987-1.265,2.979-.021.048-.092.075-.242.188a7.014,7.014,0,0,0-.487-1.3c-1.133-1.825-2.225-3.685-3.5-5.412a3.712,3.712,0,0,0-3.04-1.641c-.976.016-1.243.383-.891,1.294a15.345,15.345,0,0,0,1.044,1.771,35.694,35.694,0,0,1,2.209,4.149,4.179,4.179,0,0,0,3.862,2.936c-.041.336-.078.67-.123,1-.188,1.367-.351,2.739-.579,4.1a7.889,7.889,0,0,1-.593,2.187,1.264,1.264,0,0,1-1.176.408c-3.227-1.858-6.8-1.8-10.336-2.008-.275-.016-.547-.072-.844-.113,1.912-3.17,1.621-6.183-.184-9.21-.938-1.573-1.679-3.261-2.575-4.86-.582-1.038-1.2-2.145-2.638-2.11a3.37,3.37,0,0,0-3.019,2.236,13.114,13.114,0,0,0-1.117,8.842c.321,1.289.857,2.745,2.413,3.3a4.07,4.07,0,0,1,.787.5l-.22.325q-2.363-.411-4.725-.823c-2.816-.486-5.634-.963-8.449-1.458a43.2,43.2,0,0,1-10.224-3.692,89.54,89.54,0,0,1-13.3-8.049,26.06,26.06,0,0,1-8.743-10.755q-2.937-6.2-5.835-12.415a20.352,20.352,0,0,1-1.468-10.787,18,18,0,0,0,.111-2.54,1.041,1.041,0,0,0-.636-.716c-2.5-.722-5.02-1.4-7.538-2.069a14.552,14.552,0,0,1-5.253-2.579,2.626,2.626,0,0,0-1.4-.4c-2.148-.121-4.312-.072-6.445-.307-1.838-.2-2.4-1.909-1.263-3.37,1.339-1.713,1.353-1.759-.743-2.385a8.539,8.539,0,0,0-2.667-.352c-3.224.1-5.762-1.362-8.089-3.365-.747-.644-1.475-1.31-2.162-1.921-.568,1.926-1.006,3.8-1.669,5.589a34.054,34.054,0,0,1-8.107,13.128,6.981,6.981,0,0,0-1.743,3.38c-.259.93-.5.983-1.247.382a25.688,25.688,0,0,0-10.1-4.752c-4.152-1.056-8.459-1.97-12.114-4.643.569-.1,1.11-.159,1.637-.279a3.07,3.07,0,0,0,2.152-1.885,35.983,35.983,0,0,0,2.66-8.148,12.06,12.06,0,0,1,1.148-2.846c.446-.956.171-1.521-.85-1.3a12.675,12.675,0,0,0-3.6,1.289,27.391,27.391,0,0,0-6.485,5.15,3.1,3.1,0,0,0-.556,3.768c.355.767.78,1.5,1.085,2.364-1.049-.864-2.15-1.673-3.136-2.6a55.8,55.8,0,0,1-5.808-5.768c-2.938-3.735-3.457-8.176-2.68-12.75a16.347,16.347,0,0,1,1.491-4.662c1.65-3.221,4.74-4.479,8.029-5.343.371-.1.748-.167,1.225-.272-.191-.241-.335-.435-.492-.617-2.645-3.073-5.558-6.019-7.244-9.72-1.6-3.515-3.033-7.228-2.18-11.289a8.739,8.739,0,0,1,8.725-6.728c1.262.087,2.089-.22,2.545-1.147-.41-1.452-.762-2.78-1.163-4.093-.776-2.546-1.634-5.067-2.354-7.628-.539-1.915-.9-3.879-1.378-5.814-.09-.37-.24-.9-.514-1.024-3.28-1.506-5.387-4.348-7.852-6.785a29.308,29.308,0,0,1-8.485-17.413c-.691-5.172-.89-10.44.495-15.564a18.481,18.481,0,0,1,2.272-4.977c2.229-3.513,6.493-4.523,10.639-3.31a1.215,1.215,0,0,0,1.605-.448,12.457,12.457,0,0,1,4.772-3.689,1.912,1.912,0,0,0,.95-1.27,5.586,5.586,0,0,0-.6-3.746c-.369-.6-.711-1.226-1.065-1.84a9.344,9.344,0,0,1-.324-9.4c.69-1.379,1.247-2.827,1.824-4.26a7.249,7.249,0,0,1,4-4.107,14.038,14.038,0,0,1,5.486-1.386,2.679,2.679,0,0,0,2.74-1.838,19.317,19.317,0,0,0,1.693-6.373,78.551,78.551,0,0,0-.31-11.385c-.406-3.451.422-6.794,1.17-10.128,1.324-5.9,4.9-10.343,9.53-13.883,1.689-1.291,3.239-2.707,4.872-4.043a13.488,13.488,0,0,1,11.782-2.858,46.115,46.115,0,0,1,6.645,2.274,5.61,5.61,0,0,1,1.759,1.165C-344.584,112.386-344.888,113.387-345.276,114.362ZM-388.364,185.9c.668.81,1.244,1.5,1.813,2.2,1.933,2.364,3.93,4.68,5.782,7.106a27.2,27.2,0,0,1,5.22,13.424c.675,5.514-.063,11.019-1.009,16.646-.695-.915-1.281-1.753-1.934-2.533a10.129,10.129,0,0,0-3.434-3.178c-1.8-.8-2.976-.052-3.024,1.911a13.669,13.669,0,0,0,1.076,5.461c1.291,3.228,2.787,4.263,6.131,4.189a.494.494,0,0,1,.064.17c-.091,3.835-1.594,7.51-1.3,11.4.013.162-.411.524-.615.512a24.6,24.6,0,0,1-5.367-.486c-3.267-.949-6.431-2.252-9.638-3.407-.219-.079-.442-.143-.737-.238.03.251.035.377.061.5.753,3.558,1.465,7.126,2.291,10.667a22.853,22.853,0,0,0,1.316,3.25c2.049-2.16,4.475-2.486,6.961-2.474,4.257.021,8.2.909,11.031,4.484,1.811,2.285,4.191,4.213,5.011,7.14q1.508,5.382,2.658,10.86c.518,2.472.734,5.008,1.078,7.457a21.249,21.249,0,0,1,3.107,1.057,9.093,9.093,0,0,1,4.827,6.675c.808,3.837,1.491,7.686.884,11.6-.241,1.551.556,2.287,1.528,3.082.272.223.519.479.806.68,1.279.894,2.457,2.081,3.877,2.594,2.724.984,5.589,1.583,8.256,2.305,2.048-2.464,4.189-4.442,7.579-4.315a4.815,4.815,0,0,0,1.672-.4c1.029-.358,2.013-.875,3.063-1.134a35.609,35.609,0,0,1,4.549-.811,33.415,33.415,0,0,1,4.127-.137,1.754,1.754,0,0,1,.946.545c.95.852,1.88,1.729,2.8,2.618a12.1,12.1,0,0,1,.847,1.01c-.407.175-.807.371-1.225.514a1.857,1.857,0,0,1-.577,0,7.792,7.792,0,0,0-5.312,1.963c-.752.652-1.513,1.3-2.27,1.943-.709-1.231-1.655-2-2.208-1.712a1.151,1.151,0,0,0-.725,1.38c.285,1.232.584,1.495,2.282,1.461l-5.147,4.41c3.9,1.407,7.733,3.114,11.984,3.643.084-.144.193-.3.274-.472.138-.291.268-.586.383-.886a13.444,13.444,0,0,1,4.717-6.456,46.852,46.852,0,0,1,3.863-2.731,10.866,10.866,0,0,1,3.886-1.523c2.9-.339,5.845-.324,8.769-.484a8.38,8.38,0,0,1,4.726,1.008c.783.446,1.571.89,2.321,1.387,2.913,1.928,6.375,3.005,8.766,5.751.538.619,1.155.349,1.446-.462a17.394,17.394,0,0,1,1.1-2.872q2.206-3.8,4.6-7.493c1.536-2.38,3.1-4.753,4.781-7.026a7.931,7.931,0,0,1,5.683-2.955,44.936,44.936,0,0,1,5.694-.3,3.7,3.7,0,0,1,1.991.752,46.461,46.461,0,0,1,7.472,7.4,19.059,19.059,0,0,1,3.3,5.3c1.127,2.756,2.162,5.55,3.256,8.38.863-.445,1.831-.926,2.783-1.438,2.114-1.138,4.245-2.249,6.321-3.455,1.058-.616,1.941-1.558,3.033-2.084a2.7,2.7,0,0,0,1.831-2c.256-1.3,2.25-3.088,3.518-3.046a3.311,3.311,0,0,0,2.974-1.709,7.054,7.054,0,0,1-.455-1.31c-.45-3.427-.719-6.813.547-10.19a18.067,18.067,0,0,1,6.567-8.761,7.975,7.975,0,0,1,6.068-1.391c2.237.392,4.417,1.12,6.617,1.72.821.225,1.628.505,2.424.754,2.094-5.126,3.14-6.874,6.062-10.441a42.18,42.18,0,0,0,2.741-3.709c1.211-1.861,2.253-3.835,3.5-5.667.589-.861.375-1.346-.343-1.785a3.471,3.471,0,0,1-1.55-2.787,1.744,1.744,0,0,1,1.426-2.152c.919-.229,1.876-.308,2.867-.462-.1-.527-.237-1.085-.315-1.652a5.92,5.92,0,0,1,1.308-4.61c.863-1.1,2.095-.957,3.3-.858.056.005.117-.042.226-.085q.762-5.777,1.536-11.641c-1.038.034-.822-1.02-1.1-1.654a163.143,163.143,0,0,1-6.367-18.532q-2.219-7.242-4.469-14.474c-1.016-3.255-2.1-6.49-3.1-9.748a13.22,13.22,0,0,1-.509-6.11,6.59,6.59,0,0,1,6.049-5.816,34.159,34.159,0,0,1,4.065.23c-.626-1.981-1.22-3.863-1.77-5.608a4.255,4.255,0,0,1-1.258-.3,15.772,15.772,0,0,0-6.883-2.234,58.656,58.656,0,0,0-6.935-.411,24.826,24.826,0,0,1-8.328-1.175,22.155,22.155,0,0,1-7.933-4.808,42.492,42.492,0,0,1-7.349-9.307,51.9,51.9,0,0,0-3.029-4.48c-1.789-2.512-3.823-4.876-5.376-7.524a14.281,14.281,0,0,1-.853-13.7c1.274-2.827,3.268-4.741,6.552-4.931.645-.037,1.286-.155,1.928-.236l.072-.242c-1.483-1.054-2.976-2.094-4.445-3.166a.922.922,0,0,0-1.351.135,12.21,12.21,0,0,1-1.972,1.536,1.922,1.922,0,0,1-2.431.03,2.444,2.444,0,0,1-.781-2.547,22.245,22.245,0,0,1,1.037-2.483l-13.157-5.1a3.707,3.707,0,0,1-3.109,2.617,6.573,6.573,0,0,1-6.419-2.033c-.781-.808-1.448-1.727-2.181-2.584a2.27,2.27,0,0,0-.693-.633,45.071,45.071,0,0,0-11.034-3.287c-1.794-.307-1.772-.266-1.882,1.5-.22,3.547-1.616,6.312-5.253,7.413a27.742,27.742,0,0,1-5.419,1.32,46.013,46.013,0,0,1-20.415-2.849,21.733,21.733,0,0,0-9.259-1.423c-1.184.081-2.382-.055-3.57-.008a27.2,27.2,0,0,0-3.335.334c-.3.05-.543.463-.817.7s-.553.477-.83.715c-.165-.333-.472-.669-.467-1a20.294,20.294,0,0,1,.288-2.345c-.324.1-.507.144-.682.21A116.293,116.293,0,0,0-338.2,119.6c-1.538.825-1.611.832-1.374,2.783a20.474,20.474,0,0,1-1.034,9.517c-1.18,3.31-2.887,6.121-6.025,7.991a56.8,56.8,0,0,1-10.418,4.782c-4.775,1.669-9.543,3.378-13.827,6.123-2.47,1.583-4.969,2.694-7.978,2.067a.814.814,0,0,0-.708.294c-.613,1.506-1.168,3.036-1.76,4.616,2.666.27,5.273.286,7.525-.822a23.177,23.177,0,0,1,11.335-2.047c.353.011.709-.046,1.062-.04a5.929,5.929,0,0,1,1.537.1,11.4,11.4,0,0,1,1.688.794c-1.556.818-3.025,1.284-4.418,1.918-3.132,1.428-6.135,3.1-8.092,6.064-1.358,2.058-2.575,4.215-3.759,6.38-1.637,2.991-3.065,6.1-4.805,9.03a13.147,13.147,0,0,1-6.043,5.47C-386.264,185.041-387.243,185.434-388.364,185.9Zm104.723,160.805c-.042-.712-.1-1.419-.123-2.127a1.618,1.618,0,0,0-1.291-1.7,2.075,2.075,0,0,0-2.238.64c-1.545,1.645-1.871,3.859-2.918,5.73a22.234,22.234,0,0,0-2.944,7.086,8.526,8.526,0,0,0,1.649,7.141,3.642,3.642,0,0,0,2.915,1.476c.991-.018,2.286-1.423,2.783-2.589.959-2.25,1.028-4.666,1.389-7.011C-283.98,352.5-283.885,349.594-283.641,346.708Zm28.968-17.777.009-.143q1.447,0,2.9,0a1.679,1.679,0,0,0,1.944-1.676,4.918,4.918,0,0,0-.441-2.678,5.292,5.292,0,0,0-4.187-3.412,19.625,19.625,0,0,0-5.282-.048,23.344,23.344,0,0,0-4.133,1.234,7.913,7.913,0,0,0-4.339,2.849c-1.092,1.526-.479,3.45,1.344,3.743a13.185,13.185,0,0,0,2.49.015c1.374-.044,2.748-.189,4.12-.165C-258.391,328.68-256.532,328.831-254.673,328.931Zm2.858,5.544a19.6,19.6,0,0,0-7.533,1.566,9.1,9.1,0,0,0-2.127,1.443c-.406.31-.43.668-.129,1.168a2.991,2.991,0,0,0,2.287,1.319c1.727.324,3.439.757,5.177,1,2.331.32,4.288,1.547,6.356,2.48a2.5,2.5,0,0,0,3.675-1.979c.037-.707.037-1.42.119-2.122.3-2.574-1.606-3.986-3.706-4.43A38.556,38.556,0,0,0-251.815,334.475Zm-49.149-5.736a7.729,7.729,0,0,0-1.153-1.684c-.594-.518-1.153,0-1.7.375a8.88,8.88,0,0,1-1.788.918,14.042,14.042,0,0,0-7.106,6.528,5.636,5.636,0,0,0-.242,5.12c.837,2.034,2.339,2.369,4.025.937a25.441,25.441,0,0,0,6.807-8.622A30.868,30.868,0,0,0-300.964,328.739ZM-359.3,306.778c-.1-3.74-.937-5.217-4.028-5.737a39.352,39.352,0,0,0-7.118-.24c-1.123.017-1.584.859-1.345,1.984a6.58,6.58,0,0,0,2.255,3.517c1.438,1.291,2.919,2.535,4.313,3.87a3.5,3.5,0,0,0,3.883.683c.427-.232.972-.535,1.12-.934C-359.763,308.7-359.475,307.417-359.3,306.778Zm84.827,2.373c0,1.347.6,1.909,1.879,1.46a11.863,11.863,0,0,0,3.493-1.762c2.455-1.971,4.781-4.105,7.128-6.207,1.939-1.736,1.884-2.332-.234-3.794a4.658,4.658,0,0,0-6.155.423,23.891,23.891,0,0,0-2.333,3.271c-.764,1.1-1.494,2.215-2.3,3.279A5.4,5.4,0,0,0-274.47,309.151Zm100.252-3.68c-2.124-.065-3.089,1.015-2.6,3.475a15.92,15.92,0,0,0,1,3.115c1.094,2.564,2.541,4.736,5.572,5.4,2.467.541,3.6-.332,3.322-2.857a2.087,2.087,0,0,0-.079-.476c-.686-1.929-1.247-3.918-2.109-5.766C-170.005,306.436-171.675,305.449-174.218,305.471Zm-236.449-90.088a11.775,11.775,0,0,0,.346,1.565,1.732,1.732,0,0,0,1.642,1.272,1.564,1.564,0,0,0,1.519-1.109c1.467-3.168,2.93-6.338,4.422-9.494a3.516,3.516,0,0,0-.467-3.952.96.96,0,0,0-1.642-.1c-.973,1.136-1.911,2.3-2.914,3.414C-409.866,209.313-410.429,212.171-410.667,215.383Zm166.531,139.575c.144-1.128.059-2.067-1.277-2.3-.139-.024-.254-.186-.382-.282a8.6,8.6,0,0,0-3.783-2.029c-1.086-.169-2.351-.608-3.115.272-.81.933-.481,2.261.12,3.281,1.187,2.014,2.437,4,3.788,5.9.861,1.214,1.972,1.161,2.855-.051C-244.882,358.321-243.959,356.8-244.136,354.958Zm-14.786-43.9c-4.471.008-7.321,2.148-9.315,5.631a3.581,3.581,0,0,0-.393,1.377.971.971,0,0,0,1.174,1.059,11.553,11.553,0,0,0,2.979-1.05,21.564,21.564,0,0,1,8.539-3.147,1.567,1.567,0,0,0,1.144-.823,2.012,2.012,0,0,0-.423-1.542A4.238,4.238,0,0,0-258.922,311.055Zm93.58-96.819a14.147,14.147,0,0,0-1.253-5.069,6.241,6.241,0,0,0-4.721-3.745c-.4-.081-1.109-.1-1.221.1a2.092,2.092,0,0,0-.093,1.431c.721,2.635,1.468,5.263,2.283,7.87a12.084,12.084,0,0,0,1.307,2.964,1.6,1.6,0,0,0,2.456.2C-165.494,217.1-165.39,215.856-165.342,214.236Zm-52.137-75.176-.311-.07c0-.354.02-.71,0-1.062-.065-.942-.53-1.263-1.395-.849a3.613,3.613,0,0,0-1.338,1.063,19.7,19.7,0,0,0-3.364,6.462c-.437,1.658-.8,3.373.032,4.995a2.323,2.323,0,0,0,1.45,1.194c.4.047,1.057-.632,1.317-1.134a30.189,30.189,0,0,0,1.946-4.4C-218.481,143.228-218.025,141.129-217.479,139.06Zm-148.255-16.892.036-.131c.7-.056,1.41-.1,2.113-.17a17.581,17.581,0,0,0,6.55-1.72,1.874,1.874,0,0,0,1.04-1.984c-.048-.342-.818-.818-1.269-.827-2.877-.061-5.76-.081-8.633.049a5.049,5.049,0,0,0-2.559.965,2.957,2.957,0,0,0-.961,1.838c-.1.693.542,1.106,1.2,1.3C-367.393,121.728-366.562,121.942-365.734,122.168Zm-47.073,79.869a2.932,2.932,0,0,0,.006.578c.187.909.3,1.888,1.326,2.291a1.973,1.973,0,0,0,2.366-.789c1.71-2.141,3.4-4.3,5.023-6.5a2.242,2.242,0,0,0-.043-2.612,3.571,3.571,0,0,0-2.858.248c-1.346,1.129-2.644,2.327-4.064,3.356A3.916,3.916,0,0,0-412.807,202.037Zm230.758-8.255-.2-.039c0-.29.021-.582,0-.87a1.76,1.76,0,0,0-1.009-1.688c-.745-.3-1.232.184-1.68.649a12.732,12.732,0,0,0-3.568,7.038,5.049,5.049,0,0,0,.114,2,1.829,1.829,0,0,0,3.055,1.138,5.517,5.517,0,0,0,1.917-2.329A59.232,59.232,0,0,0-182.049,193.782Zm-199.722,68.141-.056.415a4.628,4.628,0,0,0,.674.907,33.829,33.829,0,0,0,3.322,2.586c1.865,1.181,3.807,2.243,5.745,3.3.806.441,1.942.259,2.043-.3a7.454,7.454,0,0,0,.1-2.541c-.223-1.28-1.436-1.724-2.394-2.352a12.252,12.252,0,0,0-6.775-2.422A17.583,17.583,0,0,0-381.771,261.923Zm-17.511-51.8-.369-.073a9.379,9.379,0,0,0-.9,1.416c-.463,1.117-.815,2.279-1.254,3.406-.578,1.484-1.243,2.934-1.782,4.431a4.905,4.905,0,0,0,.417,4.086c.617,1.158,1.7,1.36,2.455.315a9.541,9.541,0,0,0,2.225-5.818c-.053-2.056-.182-4.111-.336-6.162A8.054,8.054,0,0,0-399.282,210.12Zm101.09,102.151a19.161,19.161,0,0,0-3.048.232,5.158,5.158,0,0,0-2.421,1.125,2.282,2.282,0,0,0-.371,2.687,2.845,2.845,0,0,0,2.889,1.325c.656-.134,1.273-.449,1.926-.6,1.678-.391,3.37-.724,5.049-1.108a5.586,5.586,0,0,0,1.7-.56c.342-.211.744-.786.673-1.1a1.688,1.688,0,0,0-.954-1.142C-294.63,312.747-296.543,312.518-298.192,312.271Zm132.8-117.222c1.326-.162,2.041-.925,1.737-2.09-.786-3-2.336-5.428-5.575-6.16a22.2,22.2,0,0,0-4.2-.272.916.916,0,0,0-.742.4,1.014,1.014,0,0,0,.243.858c.581.583,1.245,1.083,1.861,1.633,1.767,1.58,3.515,3.182,5.3,4.745A10.5,10.5,0,0,0-165.39,195.049Zm-229.743,83.6c.043.348.071.734.142,1.113a1.666,1.666,0,0,0,1.228,1.453,1.715,1.715,0,0,0,2.067-.632,19.125,19.125,0,0,0,1.9-3.854,34.84,34.84,0,0,0,1.067-5.085c.056-.345-.263-1.026-.518-1.086a2.005,2.005,0,0,0-1.457.287,6.044,6.044,0,0,0-1.059,1.356c-.563.739-1.086,1.516-1.709,2.2A6.515,6.515,0,0,0-395.133,278.65Zm181.756-119.975a13.43,13.43,0,0,0,.915,2.668c.681,1.156,1.8,1.093,2.481-.064a4.852,4.852,0,0,0,.511-1.622c.444-2.553.853-5.111,1.269-7.668.113-.693-.022-1.386-.725-1.606a1.519,1.519,0,0,0-1.893.764A19.4,19.4,0,0,0-213.377,158.675Zm-183.3,141.338c.554-.13.962-.219,1.366-.32,2.18-.549,4.383-1.023,6.529-1.684a9.923,9.923,0,0,0,2.75-1.5c.575-.413.465-.974-.177-1.408a3.091,3.091,0,0,0-2.74-.523c-1.963.6-3.957,1.127-5.854,1.895a9.26,9.26,0,0,0-2.511,1.89,1.237,1.237,0,0,0-.275,1.109C-397.468,299.751-396.944,299.865-396.673,300.013Zm122.825,56.942a26.2,26.2,0,0,0-.779-3.318c-.371-1-1.369-1.074-1.8-.116a42.817,42.817,0,0,0-2.187,5.854c-.359,1.283.7,2.813,1.929,3.363a1.212,1.212,0,0,0,1.769-.662C-274.487,360.38-274.192,358.652-273.848,356.955ZM-394.7,264.813c-2.584.515-4.8,1.522-6.136,3.914a3.579,3.579,0,0,0,.519,4.671c.66.738,1.239.731,1.581-.2.812-2.2,2.391-3.869,3.751-5.691A2.549,2.549,0,0,0-394.7,264.813ZM-201.54,138.145c1.6.174,2.676-.9,2.423-2.263a2.306,2.306,0,0,0-2.741-1.857,32.976,32.976,0,0,0-4.943,1.24,2.1,2.1,0,0,0-1.122,1.493c-.07.718.556,1.24,1.377,1.305.257.02.512.077.768.078C-204.365,138.149-202.953,138.145-201.54,138.145Zm-173.4,180.017c-.256-.771-.734-2.324-1.292-3.848-.312-.852-1.117-1.026-1.58-.274a18.97,18.97,0,0,0-2.142,4.278c-.5,1.653,1.466,2.926,3.052,3.153C-375.593,321.659-374.964,320.809-374.943,318.162ZM-198.635,168.2c0,2.027.7,3.083,2.034,3.748a2.007,2.007,0,0,0,2.345.055c.788-.626.656-1.479.441-2.3a13.27,13.27,0,0,0-2.286-5.01c-.218-.276-.634-.758-.723-.709-.387.21-.868.524-.987.9C-198.2,166.131-198.45,167.422-198.635,168.2Zm-96.333,171.705a2.517,2.517,0,0,0,1.264,1.983,1.58,1.58,0,0,0,1.95-.324,4.849,4.849,0,0,0,1.3-1.517,34.724,34.724,0,0,0,1.574-4.424,1.509,1.509,0,0,0-.484-1.369,2.1,2.1,0,0,0-1.563.259c-1.509.806-2.066,2.447-3.05,3.715A14.553,14.553,0,0,0-294.968,339.906Zm-96.616-146.618-.091-.277a14.179,14.179,0,0,0-2.563,1.094,1.426,1.426,0,0,0,.013,2.322,10.46,10.46,0,0,0,2.632,1.1,18.328,18.328,0,0,0,3.423.48c.368.022,1.085-.375,1.083-.575a3.872,3.872,0,0,0-.435-2.349A4.7,4.7,0,0,0-391.584,193.288Zm27.967,99.755c-1.056,0-1.827.007-2.6,0a1.232,1.232,0,0,0-1.339,1.106,1.174,1.174,0,0,0,.836,1.44c.83.333,1.714.525,2.563.814a26.577,26.577,0,0,1,2.519.95c.8.368,2.125.29,2.457-.24.715-1.14-.37-3.566-1.745-3.8C-361.9,293.15-362.9,293.111-363.617,293.043Zm-18.83-85.689a2.281,2.281,0,0,0-1.244-1.921c-1.468-1-2.964-1.81-4.808-1.073-.929.371-1.1.789-.718,1.724a6.527,6.527,0,0,0,3.409,3.382C-383.906,210.386-382.453,209.468-382.447,207.354ZM-202.84,145.3l-.079.367c.267.424.517.859.8,1.269,1.394,1.991,4.338,2.913,6.229,1.96a2.254,2.254,0,0,0,1.459-2.184,1.919,1.919,0,0,0-1.908-1.64C-198.5,145.039-200.671,145.209-202.84,145.3Zm-170.1,113.446c-.2-.392-.377-.793-.593-1.174-.808-1.424-2.157-1.785-3.663-1.905-2.228-.176-4.468-.476-6.34,1.186-.2.174-.48.551-.421.647a1.17,1.17,0,0,0,.721.506,11.017,11.017,0,0,0,1.735.074c2.334,0,4.637.115,6.716,1.371a2.137,2.137,0,0,0,.738.213C-373.372,259.778-372.977,259.542-372.942,258.744Zm-9.832,22.132a15.039,15.039,0,0,0-.475-2.146,1.237,1.237,0,0,0-.854-.625,1.249,1.249,0,0,0-.851.437,6.14,6.14,0,0,0-.549.9c-.782,1.135-1.582,2.259-2.368,3.392-.9,1.292-.626,1.984.9,2.264.6.11,1.213.152,1.821.219a1.343,1.343,0,0,0,1.647-1.109C-383.241,283.086-383.008,281.953-382.774,280.876Zm6.052-148.652c.554-.258,1.242-.575,1.927-.9a17.089,17.089,0,0,1,5.567-1.947,3.7,3.7,0,0,0,1.6-.605,1.239,1.239,0,0,0,.324-.989c-.013-.17-.441-.409-.7-.44a20.692,20.692,0,0,0-2.309-.125,8.461,8.461,0,0,0-5.509,1.7,7.8,7.8,0,0,0-1.7,2.363C-377.793,131.753-377.57,132.234-376.722,132.224Zm-13.567,97.335a6.377,6.377,0,0,0-.788,1.651,35.07,35.07,0,0,0-.432,4.981,3.64,3.64,0,0,0,2.179,3.187c.549.293,1.064.254,1.2-.428a7.227,7.227,0,0,0,.148-2.161c-.133-1.176-.418-2.335-.641-3.5C-388.878,231.976-388.984,230.6-390.289,229.559Zm102.82-132.092a10.176,10.176,0,0,0-.006-1.159,6.964,6.964,0,0,0-1.555-4.077c-.765-.842-1.712-.678-1.908.421a8.861,8.861,0,0,0,.114,2.736c.207,1.447.509,2.881.779,4.319a7.636,7.636,0,0,0,.284,1.215c.3.821.616.87,1.217.225A4.53,4.53,0,0,0-287.469,97.467Zm27.875,208.527c1.769-.586,3.486-1.144,5.194-1.73a2.039,2.039,0,0,0,.909-.518,2.306,2.306,0,0,0,.657-1.279,1.4,1.4,0,0,0-.794-1.034,4.944,4.944,0,0,0-2.233-.262,8.174,8.174,0,0,0-4.606,2.794c-.285.306-.555.96-.412,1.243C-260.7,305.569-260.09,305.715-259.594,305.994ZM-295.7,98.646l-.234-.126c.31-2.089-1.71-4.721-3.907-5.185a1.764,1.764,0,0,0-1.974.616,1.37,1.37,0,0,0,.251,1.912c.58.591,1.265,1.077,1.878,1.637a10.888,10.888,0,0,1,1.605,1.615c.412.581.832,1.265,1.534.991C-296.141,99.947-295.978,99.154-295.7,98.646Zm82.634,45.569c-.382-.493-.59-.986-.951-1.154a1.237,1.237,0,0,0-1.1.275c-1.691,1.7-2.191,3.961-2.584,6.178-.218,1.231.639,1.99,1.583,1.733a2,2,0,0,0,1.227-1.042C-214.216,148.253-213.676,146.252-213.07,144.215Zm20.065,154.373a11.218,11.218,0,0,0,.757,5.79,2.286,2.286,0,0,0,2.488,1.089,1.672,1.672,0,0,0,1.381-1.425C-188.031,301.722-190.473,298.719-193.005,298.588Zm-32.758-169.4a9.418,9.418,0,0,0-2.371.454,12.868,12.868,0,0,0-2.911,1.879c-.6.508-.352,1.259.387,1.513a2.861,2.861,0,0,0,1.58.25,34.786,34.786,0,0,0,4.643-1.742c.393-.185.6-.987.66-1.531.02-.186-.66-.486-1.053-.664A3.875,3.875,0,0,0-225.763,129.187Zm-66.131,194.226a4.833,4.833,0,0,0,4.126-1.913,1.591,1.591,0,0,0,.251-1.3,1.3,1.3,0,0,0-1.061-.582c-1.461.074-2.921.228-4.369.439a1.591,1.591,0,0,0-1.463,1.783c.029.887.517,1.366,1.554,1.5C-292.538,323.386-292.215,323.391-291.894,323.413Zm11.31-224.08-.165-.082a6.375,6.375,0,0,0-.347-1.674,1.568,1.568,0,0,0-1.059-.844c-.353,0-.839.485-1.029.874a12,12,0,0,0-.972,6.277c.058.8.459,1.138,1.187.81a1.976,1.976,0,0,0,1.032-.9C-281.417,102.329-281.025,100.822-280.584,99.333Zm52.5,37.492c-.09,1.091.378,1.712,1.208,1.857a2.412,2.412,0,0,0,2.257-.831c.7-.749,1.35-1.547,2.03-2.316.292-.329.748-.592.871-.969a1.314,1.314,0,0,0-.217-1.187,1.759,1.759,0,0,0-1.475-.253,39.6,39.6,0,0,0-3.987,2.649A3.126,3.126,0,0,0-228.085,136.825Zm62.145,59.8c-.654.114-1.357.139-1.143,1a33.385,33.385,0,0,0,1.331,4.279,1.529,1.529,0,0,0,1.718,1.06,1.934,1.934,0,0,0,1.59-1.606,2.045,2.045,0,0,0-.081-1.392,20.542,20.542,0,0,0-2.138-2.787C-164.947,196.867-165.507,196.8-165.94,196.629Zm-81.935,124c-.4.149-.95.193-1.158.482-.14.194.092.839.345,1.1a13.673,13.673,0,0,0,2.752,2.486,5.637,5.637,0,0,0,2.678.335c.294,0,.848-.441.838-.66-.031-.671-.071-1.7-.479-1.932A10.375,10.375,0,0,0-247.875,320.632Zm-129.571-156.6a6.656,6.656,0,0,0-4.495,2.912c-.321.774.065,1.459.82,1.268a51.26,51.26,0,0,0,4.933-1.534c.537-.2,1.219-.722.871-1.4-.267-.519-.936-.847-1.463-1.206C-376.939,163.968-377.221,164.041-377.446,164.031Zm-3.913,127.3a8.966,8.966,0,0,0-1.118-.949,8.856,8.856,0,0,0-6.345-.723,2.309,2.309,0,0,0-1.07.6c-.395.364-.4.736.146,1.074a5.8,5.8,0,0,0,4.218.8C-384.212,291.9-382.9,291.628-381.359,291.329Zm84.758-175.32a9.856,9.856,0,0,0,1.861-1.076c1.114-1.013,2.137-2.127,3.176-3.22a6.334,6.334,0,0,0,.607-.906,10.176,10.176,0,0,0-1.234-.321c-.2-.029-.424.125-.642.174-2.165.485-3.411,2.16-4.745,3.7a1.012,1.012,0,0,0-.167.924C-297.538,115.583-297.1,115.716-296.6,116.009Zm111.181,70.375c.051-1.425-.507-2-1.372-1.581a5.965,5.965,0,0,0-3.158,3.082,1.34,1.34,0,0,0,.432,1.8,1.717,1.717,0,0,0,2.157.042A6.03,6.03,0,0,0-185.42,186.384ZM-304.462,113.7a8.879,8.879,0,0,0,1.032-.346c1.821-.917,3.647-1.826,5.445-2.787.67-.359.666-.937.017-1.351a2.256,2.256,0,0,0-1.08-.314c-2.653-.1-4,2.006-5.733,3.458a.606.606,0,0,0-.173.526A4.662,4.662,0,0,0-304.462,113.7Zm52.3,235.13v.038c.924,0,1.848.007,2.773,0,1.059-.01,1.656-.816,1.147-1.732a3.2,3.2,0,0,0-1.479-1.372,3.492,3.492,0,0,0-3.8.919c-.3.285-.628.925-.5,1.191.2.414.756.679,1.2.942C-252.664,348.915-252.391,348.832-252.166,348.832Zm-4.874-1.177a2.6,2.6,0,0,0-1.855-2.778,8.656,8.656,0,0,1-1.328-.518,1.342,1.342,0,0,0-1.856.665,1.629,1.629,0,0,0,.208,1.515,13.642,13.642,0,0,0,2.609,1.954,1.706,1.706,0,0,0,1.393.1C-257.449,348.394-257.2,347.845-257.04,347.655Zm81.67-86.037c-.107.014-.3.03-.488.067-.647.13-1.261.279-1.327,1.126a1.334,1.334,0,0,0,.911,1.576c1.082.378,2.138.841,3.239,1.148,1.076.3,1.6-.279,1.367-1.374C-171.944,262.866-173.735,261.607-175.37,261.618Zm-86.873-166.71c.069-1.493-1.031-2.29-2.838-2.1-.758.082-1.2.517-1.029,1.2a24.934,24.934,0,0,0,1.227,3.6c.28.66.841.65,1.417.2A3.68,3.68,0,0,0-262.243,94.908Zm-129.011,80.533a9.06,9.06,0,0,0-.638-2.314,16.346,16.346,0,0,0-2.121-2.661.981.981,0,0,0-.942-.024c-.231.155-.325.576-.391.9a1.109,1.109,0,0,0,.138.651c.78,1.557,1.555,3.117,2.378,4.651.335.624.824.426,1.138-.023A4.978,4.978,0,0,0-391.254,175.441ZM-178.013,290.2c-.945.428-1.908.822-2.829,1.3-.612.316-.466.745.087.947,1.5.549,3.011,1.1,4.552,1.526.857.235,1.312-.347,1.159-1.256C-175.294,291.232-176.3,290.432-178.013,290.2Zm-80.414-185.787c-1.057.421-2.021.748-2.932,1.187a1.223,1.223,0,0,0-.728,1.663,2.2,2.2,0,0,0,1.478,1.1,3.567,3.567,0,0,0,3.223-1.345,2.1,2.1,0,0,0,.4-1.61C-257.154,104.979-257.883,104.766-258.427,104.418Zm-96.061,10.794a9.537,9.537,0,0,0,1.763-.195c.4-.131.739-.485.279-.947a6.131,6.131,0,0,0-6.525-1.143c-.328.16-.544.55-.812.833.3.245.562.643.894.71C-357.355,114.78-355.8,115-354.488,115.212Zm143.28,15.271.051.162a17.11,17.11,0,0,0,2.617-.842,1.521,1.521,0,0,0,.67-1.229,1.583,1.583,0,0,0-.9-1.07,4.207,4.207,0,0,0-3.872.466,1.352,1.352,0,0,0-.68,1.65,1.363,1.363,0,0,0,1.532.9C-211.593,130.509-211.4,130.495-211.208,130.483Zm-43.008-15.249a11.062,11.062,0,0,0,1.692-.807,1.217,1.217,0,0,0,.064-1.857,4.29,4.29,0,0,0-4.077-.7,1.3,1.3,0,0,0-.2,2.416A14.943,14.943,0,0,0-254.216,115.234ZM-181.4,222.267a5.4,5.4,0,0,0,.179.9,1.011,1.011,0,0,0,1.808.442,5.356,5.356,0,0,0,1.577-3.83c-.009-.426-.278-1.124-.563-1.2a1.95,1.95,0,0,0-1.5.329A4.139,4.139,0,0,0-181.4,222.267Zm-206.112,34.7c1.629-.807,3.283-1.615,4.917-2.461.116-.06.165-.421.113-.6-.292-1.045-.974-1.5-1.969-1.01a30.042,30.042,0,0,0-3.8,2.382,1.17,1.17,0,0,0-.436,1.008C-388.576,256.565-388.05,256.68-387.51,256.971Zm42.827-131.658-.067-.007c0-.289.022-.58,0-.867-.084-.96-.619-1.254-1.429-.725a1.845,1.845,0,0,0-.644.89c-.323.9-.567,1.832-.85,2.748-.294.952-.005,1.592.837,1.829a1.452,1.452,0,0,0,1.808-1.2C-344.892,127.1-344.8,126.2-344.683,125.313Zm-24.708,152.863c.493-.345,1.051-.568,1.309-.98a1.253,1.253,0,0,0-.28-1.169,43.31,43.31,0,0,0-3.846-3.02c-.651-.446-1.1-.044-.976.753a1.808,1.808,0,0,0,.3.8c.747.964,1.505,1.922,2.314,2.834A5.905,5.905,0,0,0-369.391,278.176Zm165.064-120.833c-.156-.713-.3-1.517-.516-2.3-.146-.536-.471-.731-1-.349-1.177.843-1.851,3.74-1.053,4.946a1.584,1.584,0,0,0,1.136.682,1.455,1.455,0,0,0,1.04-.79A11.007,11.007,0,0,0-204.327,157.343Zm-163.61,127.542a5.772,5.772,0,0,0-4.872,3.611,4.1,4.1,0,0,0-.2.961c.331-.012.739.1.98-.055,1.345-.85,2.676-1.726,3.947-2.68a1.908,1.908,0,0,0,.5-1.2C-367.552,285.293-367.857,285.017-367.937,284.885Zm-26.677-64.877a14.588,14.588,0,0,0-.42-1.9.931.931,0,0,0-.691-.522c-.21.005-.462.354-.6.6a7.31,7.31,0,0,0-.693,1.461,11.267,11.267,0,0,0-.592,2.545,1.43,1.43,0,0,0,.809,1.06.969.969,0,0,0,1.344-.719C-395.207,221.663-394.886,220.809-394.614,220.008Zm18.984-82.33c.006.762.656,1.3,1.275.915a30.549,30.549,0,0,0,3.3-2.436,1.1,1.1,0,0,0,.148-1.041,1.144,1.144,0,0,0-.95-.4,9.649,9.649,0,0,0-2.052.473A3.6,3.6,0,0,0-375.63,137.678Zm-2.694,168.551c-1.086,1.439-2.133,2.728-3.041,4.108a1.377,1.377,0,0,0,.214,1.345c.3.213.959.047,1.4-.116a3.582,3.582,0,0,0,.969-.775A3.487,3.487,0,0,0-378.324,306.229ZM-355.9,136.746l-.149-.02a4.574,4.574,0,0,0-.065-1.052,8.341,8.341,0,0,0-.549-1.185c-.375.3-.946.525-1.087.909a28.525,28.525,0,0,0-1,3.591c-.159.707.465,1.431,1.078,1.211a2.521,2.521,0,0,0,1.38-1.134A9.017,9.017,0,0,0-355.9,136.746Zm106.7,194.64a17.452,17.452,0,0,0,1.6.918,15.658,15.658,0,0,0,1.97.684,3.133,3.133,0,0,0,1.654.268,1.491,1.491,0,0,0,.642-1.32c-.115-.487-.669-1.175-1.1-1.226a24.2,24.2,0,0,0-3.9,0C-248.556,330.72-248.766,331.036-249.2,331.386ZM-389.1,166.391c-.136-.983-.546-1.579-1.328-1.64a1.373,1.373,0,0,0-1.61,1.048,3.587,3.587,0,0,0,1.131,3.581c.363.34.8.441.993-.12C-389.586,168.322-389.362,167.349-389.1,166.391Zm26.957-28.76c.262.5.354.969.613,1.1a1.225,1.225,0,0,0,1.036-.148,2.255,2.255,0,0,0,.912-1.07,30,30,0,0,0,.708-3.574.907.907,0,0,0-.4-.768.865.865,0,0,0-.8.29C-360.8,134.834-361.462,136.246-362.139,137.631Zm188.221,118.41c.6-.08,1.214-.14,1.814-.247a1.006,1.006,0,0,0,.708-1.631,2.449,2.449,0,0,0-1.13-.823,3.827,3.827,0,0,0-3.244.742.876.876,0,0,0-.228.676C-175.961,255.708-175.424,256.014-173.918,256.041Zm1.24-34.235a4.441,4.441,0,0,0,.215,1.293c.2.387.576.926.9.943a1.765,1.765,0,0,0,1.213-.694,1.632,1.632,0,0,0,.316-1.261,18.337,18.337,0,0,0-1.133-3,.627.627,0,0,0-1.16.206C-172.506,220.135-172.572,221.005-172.678,221.806Zm-223,38.489c-.165-.289-.182-.365-.227-.391-1.687-.953-3.2-.265-4.7.516a1.308,1.308,0,0,0-.377,1.877c.389.694.9.257,1.326.084.824-.333,1.633-.709,2.422-1.118C-396.683,260.981-396.181,260.615-395.675,260.3Zm213.6-9.92a6.474,6.474,0,0,0-1.28.7,4.28,4.28,0,0,0-.4,3.759,1.011,1.011,0,0,0,.771.4c.239-.029.489-.338.648-.58a17.332,17.332,0,0,0,1.138-1.941c.206-.428.478-1.013.332-1.37C-181.034,250.941-181.63,250.709-182.074,250.375ZM-253.1,98.61l.1.023a1.529,1.529,0,0,0,.008.479c.126.36.222.925.462,1,.29.1.77-.157,1.071-.386a4.576,4.576,0,0,0,1.2-1.228,2.074,2.074,0,0,0,.362-1.526,1.859,1.859,0,0,0-1.345-.965,2.024,2.024,0,0,0-1.425.87A5.128,5.128,0,0,0-253.1,98.61Zm-110.937,47.211c1.436.047,2.355-.476,2.355-1.471a8.584,8.584,0,0,0-.767-2.68c-.029-.081-.638-.106-.692-.005a21.456,21.456,0,0,0-1.447,3.094C-364.684,145.059-364.176,145.564-364.033,145.821Zm79.572,189.859h.053c.017-.223.117-.485.035-.662a2.762,2.762,0,0,0-.762-1.164,1.116,1.116,0,0,0-1.079.24,7.292,7.292,0,0,0-1.023,2.481c-.115.8.6,1.232,1.393,1.243a1.246,1.246,0,0,0,1.377-1.182A7.812,7.812,0,0,0-284.461,335.68Zm27.11-240.186c.115.565.241,1.294.421,2.009.055.217.25.552.395.559a.9.9,0,0,0,.716-.326,16.166,16.166,0,0,0,1.22-2.49,1.255,1.255,0,0,0-.751-1.6C-256.353,93.146-257.321,93.961-257.351,95.494Zm25.09,26.5c.094-1.472-.465-2.029-1.465-1.639-.933.365-1.95,2.646-1.449,3.48a1.279,1.279,0,0,0,1.157.42A2.743,2.743,0,0,0-232.261,121.994ZM-329.208,313.55a8.544,8.544,0,0,0-.994-1.672,2.4,2.4,0,0,0-1.433-.785c-.8-.027-.6.823-.765,1.328a2.274,2.274,0,0,0-.1.757,1.613,1.613,0,0,0,2.481,1.319A4.521,4.521,0,0,0-329.208,313.55Zm41.92,14.117c-.285-.4-.488-.986-.873-1.153a1.09,1.09,0,0,0-1.627.671c-.185.53-.6.983-.76,1.516a3.982,3.982,0,0,0,.037,1.274,8.941,8.941,0,0,0,1.58-.23c.253-.081.386-.611.623-.652C-287.5,328.953-287.505,328.384-287.288,327.667Zm116.971-130.179a4.829,4.829,0,0,0-1.537-3.206c-.259-.254-.8-.221-1.21-.32a2.919,2.919,0,0,0-.193,1.149,10.356,10.356,0,0,0,.919,2.392,1.684,1.684,0,0,0,1.172.839C-170.83,198.333-170.51,197.7-170.317,197.488Zm-181.522-68.877c-.031-.164-.112-.571-.187-.979-.1-.553-.256-1.253-.923-1.075a1.967,1.967,0,0,0-.992,1.21,13.088,13.088,0,0,0-.334,2.179c-.114.733.209,1.083.96,1.011C-352.285,130.858-351.842,130.229-351.839,128.611Zm83.033-28c.258,0,.572.1.76-.019a2.669,2.669,0,0,0,1.066-.937c.087-.179-.357-.813-.684-.953a10.533,10.533,0,0,0-2.391-.668,1.158,1.158,0,0,0-.994.337,1.444,1.444,0,0,0,.051,1.16A2.1,2.1,0,0,0-268.806,100.612Zm50.683,17.178v.024a5.046,5.046,0,0,0,.961-.014c.312-.06.809-.174.858-.361a1.323,1.323,0,0,0-.242-1.032,2.76,2.76,0,0,0-2.643-.973c-.49.08-1.209.589-1.266.984s.477,1.047.916,1.328C-219.2,117.965-218.6,117.79-218.123,117.79Zm24.579,23.658c-1.073-.011-1.731.471-1.55,1.055.337,1.081,2.417,2.024,3.377,1.454a1.526,1.526,0,0,0,.634-1.058,1.223,1.223,0,0,0-.552-.99A10.077,10.077,0,0,0-193.544,141.448ZM-290.8,104.116c-.111-.388-.1-.72-.262-.848a9.393,9.393,0,0,0-1.777-1.214,1.2,1.2,0,0,0-1.044.193,1.157,1.157,0,0,0-.382.983,3.25,3.25,0,0,0,1.033,1.624,2.973,2.973,0,0,0,1.874.128C-291.116,104.943-290.96,104.381-290.8,104.116ZM-339.947,315.48c2.668.391,2.948.12,2.581-2.415-.014-.1-.029-.19-.052-.283-.125-.519-.433-.688-.927-.466C-339.72,312.933-340.519,313.654-339.947,315.48Zm73.978,19.754.128-.145a7.223,7.223,0,0,0,1.023-.182,1.537,1.537,0,0,0,1.049-1.87c-.394-.859-1.094-.726-1.8-.474a3.4,3.4,0,0,0-.7.307c-.566.361-1.514.6-1.224,1.438C-267.343,334.741-266.5,334.933-265.969,335.234Zm20.261-228.193c.171.247.319.672.6.8a1.114,1.114,0,0,0,.959-.2,4.4,4.4,0,0,0,1.349-3.56.794.794,0,0,0-.475-.606.9.9,0,0,0-.688.37c-.511.689-.986,1.408-1.429,2.143A4.86,4.86,0,0,0-245.708,107.041Zm-154.435,119.8a20.384,20.384,0,0,0-.613,2.863,2.338,2.338,0,0,0,.584,1.437.891.891,0,0,0,1.515-.207C-398.084,229.976-398.91,227.45-400.143,226.844Zm220.373-22.672a3.953,3.953,0,0,0-.466-.955c-.072-.082-.551.019-.657.169a18.6,18.6,0,0,0-1.715,2.706c-.138.291.294.853.464,1.29.442-.176,1.1-.229,1.283-.552A19.087,19.087,0,0,0-179.77,204.172ZM-277.4,99.585c-.287-.436-.475-1.018-.75-1.062-.318-.051-.747.33-1.06.6a1.126,1.126,0,0,0-.28.694c-.088.859-.161,1.721-.178,2.584,0,.22.188.6.351.632a.783.783,0,0,0,.7-.294C-278.184,101.729-277.818,100.685-277.4,99.585Zm23.271,207.606a5.337,5.337,0,0,1,.846.567,1.583,1.583,0,0,0,2.1.185c.348-.213.752-.76.7-1.09a1.682,1.682,0,0,0-.911-1.054C-252.4,305.363-253.376,305.907-254.131,307.191Zm63.6-21.161c-.338-.113-.752-.412-1.028-.315a5.665,5.665,0,0,0-2.872,2.6c-.289.471.034.727.526.7a6.732,6.732,0,0,0,3.235-2.451C-190.64,286.474-190.622,286.379-190.532,286.03ZM-315.448,113.5a4.866,4.866,0,0,0,3.516-1.772.829.829,0,0,0,.116-.761.91.91,0,0,0-.736-.294,2.505,2.505,0,0,0-.976.355c-.691.4-1.375.808-2.028,1.263-.223.156-.527.531-.47.679C-315.924,113.237-315.573,113.4-315.448,113.5Zm146.63,108.031c.01,1.312.616,2.464,1.242,2.453.574-.01,1.219-1.022,1.2-1.876-.022-.831-.755-1.7-1.441-1.662A1,1,0,0,0-168.818,221.536Zm-134.1-121.964a9.6,9.6,0,0,0,.641,2.1,1.368,1.368,0,0,0,1.276.423c.341-.131.777-.888.664-1.16a6.58,6.58,0,0,0-1.4-2.1C-302.2,98.362-302.822,98.719-302.913,99.572ZM-397.478,191.3c.069.121.171.533.42.664a1.234,1.234,0,0,0,.974-.061,4.836,4.836,0,0,0,1.329-.935,1.862,1.862,0,0,0,.471-1.088c.013-.182-.382-.487-.647-.578A2.093,2.093,0,0,0-397.478,191.3Zm170.2-77.048c-.02.882.311,1.484.842,1.533.7.065,1.7-1.056,1.689-1.936-.007-.719-.262-1.264-1.1-1.268C-226.759,112.581-227.255,113.168-227.279,114.256Zm-141.88,201.179c.143.387.18.895.453,1.135a3.848,3.848,0,0,0,1.641.9c.228.05.75-.543.885-.932.2-.578-1.4-2.055-2.068-2.012C-368.807,314.564-369.2,314.745-369.159,315.435Zm-22.759-89.31c-.146-.259-.244-.648-.489-.8a.875.875,0,0,0-.847.09,12.3,12.3,0,0,0-1.3,2.255c-.069.162.394.743.692.819a1.291,1.291,0,0,0,1.144-.288A11,11,0,0,0-391.918,226.125Zm103.957-107.9a5.176,5.176,0,0,0,1.017-.954,4.762,4.762,0,0,0,.563-1.525c.061-.243.029-.7-.1-.759a.938.938,0,0,0-.848.048,12.617,12.617,0,0,0-1.775,2C-289.541,117.69-289.155,118.206-287.961,118.223Zm.481-4.556c.779-.627,1.455-1.127,2.071-1.693.2-.181.387-.724.322-.775-.274-.216-.692-.487-.971-.413a7.153,7.153,0,0,0-1.917.851c-.332.208-.8.777-.715.954C-288.509,112.98-288.015,113.224-287.48,113.667Zm-.655-9.053.667,1.28c.368-.206,1.018-.372,1.055-.626a12.551,12.551,0,0,0,.014-2.706c-.015-.2-.415-.549-.588-.521a1.023,1.023,0,0,0-.676.566A17.051,17.051,0,0,0-288.135,104.614Zm62.827,203.107c.067.641.209,1.231,1.028,1.236.677,0,1.793-1.152,1.608-1.872a2.082,2.082,0,0,0-1.161-1.135C-224.283,305.766-225.292,307.073-225.308,307.721ZM-175.84,181.8c.867.948,1.541,1.072,2.529.467.606-.372,1.256-.8.872-1.671-.267-.608-1.165-.675-1.942-.119A16.866,16.866,0,0,0-175.84,181.8ZM-401.352,265.06c-.356-.375-.676-1.01-1.076-1.066-.65-.09-1.725,2.167-1.368,2.765a1.068,1.068,0,0,0,.685.419C-402.206,267.325-401.57,266.509-401.352,265.06ZM-190.891,155.4c-.3-.4-.438-.781-.658-.839a11.517,11.517,0,0,0-2.164-.325c-.157-.01-.469.324-.483.517a1.691,1.691,0,0,0,2.262,1.564A4.994,4.994,0,0,0-190.891,155.4Zm-186.471,113.1c-.105.093-.572.353-.539.508a2.168,2.168,0,0,0,.63,1.237,6.493,6.493,0,0,0,1.518.559c.671.272.878-.037.908-.645C-374.8,269.288-375.885,268.5-377.362,268.491Zm-13.619-68.471c-.69.014-1.346.575-1.061,1.011a4.655,4.655,0,0,0,1.742,1.417c.123.064.865-.668,1.011-1.131C-389.1,200.722-390.131,200-390.981,200.02ZM-269.944,92.012c-.486.047-1.1.011-1.093.822.009.67,1.056,1.8,1.7,1.758.85-.057.819-.761.828-1.365C-268.5,92.384-268.94,92.01-269.944,92.012Zm21.656,8.85.4.126a11.26,11.26,0,0,0,1.873-1.447c.163-.185-.116-.966-.407-1.264-.166-.171-.907-.059-1.139.174a4.683,4.683,0,0,0-.915,1.563C-248.563,100.236-248.358,100.576-248.288,100.862Zm67.82,162.58a8.706,8.706,0,0,0,1.526-1.535c.214-.376-.852-1.519-1.122-1.305a5.236,5.236,0,0,0-1.31,1.644C-181.453,262.395-180.914,262.871-180.468,263.442ZM-379.544,300.03c-.138-.107-.41-.487-.726-.528-.685-.088-1.787,1.016-1.677,1.715.044.285.545.652.883.706C-380.217,302.059-379.565,301.319-379.544,300.03Zm-1.57-85.476c-.12.109-.619.347-.7.686-.156.632,1.013,1.594,1.811,1.486a1.138,1.138,0,0,0,.794-.709C-379.09,215.226-379.88,214.553-381.114,214.554Zm149.334-98.171a2.655,2.655,0,0,0,.426.667.641.641,0,0,0,.61-.039,7.424,7.424,0,0,0,1.254-1.186,1.068,1.068,0,0,0,.12-.879.9.9,0,0,0-.665-.423A1.909,1.909,0,0,0-231.78,116.383Zm28.64,25.564c.457-.591.885-.913.972-1.31.136-.619-.586-1.1-1.535-1.038-.52.035-1.483-.05-1.269.7C-204.8,140.9-203.915,141.289-203.14,141.947Zm-16.783,167.125c1-.092,1.934-.129,2.85-.293.25-.045.522-.443.609-.731.049-.163-.208-.526-.415-.639C-217.673,306.973-219.618,307.955-219.923,309.072Zm54.78-42.679a8.636,8.636,0,0,0-1.02-1.451c-.225-.216-.694-.175-1.054-.251a3.735,3.735,0,0,0-.088,1.052,2.594,2.594,0,0,0,.519,1.221,1.471,1.471,0,0,0,1.071.382C-165.537,267.334-165.392,266.829-165.143,266.393Zm-220.751-29.451c.274.811.075,1.6,1.067,1.6.8,0,1.079-.439,1.105-1.224.03-.909-.448-1.266-1.205-1.167C-385.278,236.2-385.574,236.666-385.894,236.942Zm13.612,42.326a2.349,2.349,0,0,0,.851,1.973c.386.393.807.59,1.123.179a1.437,1.437,0,0,0,.181-1.269A1.7,1.7,0,0,0-372.282,279.268Zm-3.612-116.879c.942-.173,1.886-.032,1.941-1.007.017-.309-.728-.831-1.2-.956-.644-.169-1.5.714-1.378,1.361C-376.482,162.058-376.047,162.254-375.894,162.389Zm32.485-41.851a12.433,12.433,0,0,0-.647-1.685.886.886,0,0,0-.725-.3.687.687,0,0,0-.468.486,5.445,5.445,0,0,0,.147,1.565c.078.3.376.544.575.813Zm-50.022,168.454a15.746,15.746,0,0,0-1.527.983c-.17.138-.325.567-.241.68a1,1,0,0,0,.731.3,4.853,4.853,0,0,0,1.134-.2c.441-.107,1.136-.069.964-.757C-392.46,289.636-392.995,289.385-393.431,288.992Zm23.456,7.813a2.479,2.479,0,0,0,.713-.363c.1-.1.064-.439-.025-.61a1.876,1.876,0,0,0-2.58-.411c-.522.454-.474.805.179,1C-371.171,296.581-370.631,296.663-369.975,296.8Zm-12.2-38.071-.046.109c-.128,0-.256.011-.383,0a.983.983,0,0,0-1.138.884c-.024.184.631.469.989.686a.665.665,0,0,0,.373.056c.389-.03.942.058,1.121-.157a1.274,1.274,0,0,0-.009-1.133C-381.384,258.938-381.854,258.875-382.17,258.734Zm189.757-99.165-.73.407c.208.239.4.493.626.713.289.28.613.523.906.8.523.493.977.375,1.179-.318C-190.183,160.313-190.914,159.636-192.413,159.569Zm24.607,98.714-.121.207a1.268,1.268,0,0,0-.478.01,6.7,6.7,0,0,0-.753.449,7.994,7.994,0,0,0,.5.7.678.678,0,0,0,.4.235,10.447,10.447,0,0,0,1.714.028c.085-.007.259-.651.169-.724A12.553,12.553,0,0,0-167.806,258.283Zm-41.5-123.671c.384-.566.819-.924.85-1.313.059-.727-.556-.955-1.18-.939s-1.434.216-1.3.913C-210.842,133.735-210.022,134.054-209.3,134.612ZM-369.168,289.358c.524.74,2.288.434,3.084-.535C-367.316,287.579-367.884,287.678-369.168,289.358Zm-2.183-143.32c-1.217.006-1.2,1-1.6,1.56-.318.451-.4,1.11.247,1.244a1.441,1.441,0,0,0,1.208-.709A7.236,7.236,0,0,0-371.351,146.038Zm155.63-21.1c-.533-.422-.815-.811-1.159-.879-.544-.106-1.181.944-1.058,1.784.044.3.393.553.6.828Zm-187.164,76.473c.634.031,1.726-1.5,1.412-2.046-.107-.188-.61-.381-.725-.3a6.472,6.472,0,0,0-1.349,1.294C-403.867,200.795-403.452,201.381-402.885,201.409Zm79.446,102.364-.039-.464c-.413-.1-.918-.389-1.224-.249-.845.388-1.88.648-2.169,1.718l.16.3Zm-28.5-192.313-.686.484a3.357,3.357,0,0,0,.682.786,5.253,5.253,0,0,0,1.334.519c.581.159.8-.145.642-.68C-350.22,111.746-350.854,111.447-351.942,111.46Zm18,196.349.458-.006c.239-.326.682-.658.673-.977-.015-.541-.041-1.226-.975-1.229-.833,0-1.06.509-.971,1.08C-334.7,307.087-334.23,307.434-333.944,307.809Zm-29.665-171.2c-.334-.353-.488-.641-.712-.712a.727.727,0,0,0-.6.31,9.833,9.833,0,0,0-.754,1.543c-.08.2-.089.587.029.675a.707.707,0,0,0,.69,0C-364.484,137.867-364.079,137.253-363.609,136.606Zm-28.838,133.045c-.048-.1-.151-.546-.281-.555a1.184,1.184,0,0,0-.919.289,9.223,9.223,0,0,0-.764,1.561,3.066,3.066,0,0,0,.941.288c.741-.023.889-.624,1-1.213C-392.455,269.958-392.46,269.893-392.447,269.651Zm-3.327,1.8c-1.28,1.1-1.6,1.685-1.075,2.048a1.286,1.286,0,0,0,1.217-.04C-394.913,272.849-395.006,272.083-395.774,271.453Zm48.9-149.392-.771-.937c-.245.316-.51.619-.725.955a.957.957,0,0,0-.123.553,8.926,8.926,0,0,0,.164.951,3.118,3.118,0,0,0,1-.429C-347.1,122.939-347.056,122.536-346.87,122.061Zm117.122,190.621c.534.39,1.06.922,1.187.839a1.811,1.811,0,0,0,.861-1.144c.016-.325-.572-.677-.893-1.017Zm-36.97-210.608.326.506a6.948,6.948,0,0,0,1.736-.605c.205-.136.079-.775.1-1.185-.321-.008-.743-.149-.943,0A10.184,10.184,0,0,0-266.718,102.074Zm52.888,16.007c.416-.466.846-.73.9-1.059a.756.756,0,0,0-.944-.893c-.445.1-.808.561-1.207.862ZM-317.814,106.07c.537-.411,1.21-.671,1.256-1.015.1-.738-.685-.941-1.2-.872-.373.049-.681.591-1.017.913ZM-397.1,263.63c.873-.182,1.532-.3,1.5-1.089-.009-.207-.488-.553-.754-.556-.572-.007-1.343-.043-1.323.832C-397.676,263.119-397.269,263.41-397.1,263.63Zm120.366-162.5c.544.39.955.835,1.1.76a1.71,1.71,0,0,0,.911-.963c.046-.262-.512-.629-.8-.949Zm4.446-3.791,1.07-.833c-.333-.243-.654-.508-1.007-.717a.893.893,0,0,0-.563-.076c-.23.039-.556.1-.64.261a.754.754,0,0,0,.1.7A5.335,5.335,0,0,0-272.291,97.339Zm-56.918,208.514c.04-.726,1.029-1.309.221-1.971-.2-.168-1.275.217-1.4.55C-330.678,305.224-329.917,305.523-329.209,305.853Zm-32.384-17.212a7.48,7.48,0,0,0-.717.954,2.865,2.865,0,0,0,1.148.9c.235.065.621-.423.938-.661Zm-42.968-96.512c-.8,0-1.468-.043-2.124.025a.837.837,0,0,0-.541.536c-.043.152.175.491.356.575A1.9,1.9,0,0,0-404.561,192.129Zm235.608,64.086a11.414,11.414,0,0,0-1.773-.168c-.221.013-.62.4-.593.55a1.018,1.018,0,0,0,.567.719A1.4,1.4,0,0,0-168.953,256.215ZM-218.661,114.9l1.273-.863c-.37-.289-.723-.77-1.117-.807-.316-.03-.682.48-1.026.75Zm-45.305-10.1,1.514-1.221c-.182-.218-.486-.646-.527-.622-.573.333-1.109.728-1.654,1.108ZM-379.921,252.777c-.275.348-.551.539-.576.758a.708.708,0,0,0,.879.841,5.047,5.047,0,0,0,1.261-.6Zm201.887-44.945c-.314-.464-.508-.982-.689-.977-.839.021-.823.783-.869,1.35-.019.234.352.5.545.751ZM-343.722,118.1c.829.792,1.719,1.06,2,.58a.979.979,0,0,0-.076-.929C-342.538,117.112-343.122,117.652-343.722,118.1Zm-30.25,192.284-.774-.962-1.16,1.223c.233.2.535.608.684.558A5.9,5.9,0,0,0-373.972,310.384Zm143.866-189.741a6.516,6.516,0,0,0,.887-1.348c.051-.159-.488-.686-.521-.665a4.731,4.731,0,0,0-1.133.926C-230.926,119.618-230.52,120.067-230.106,120.643Zm-135.244,3.266c.569.818,2.2.747,2.463.132.051-.123-.249-.565-.349-.552C-363.9,123.572-364.549,123.738-365.35,123.909Zm69.2-20.178a11.551,11.551,0,0,0-1.5-1c-.1-.044-.6.5-.575.528a4.867,4.867,0,0,0,1.009,1.092C-297.122,104.42-296.719,104.068-296.155,103.731Zm116.61,150.628a10.491,10.491,0,0,0,.9-1.337c.029-.06-.565-.565-.646-.513a8.481,8.481,0,0,0-1.125.985Zm-206.821-91.226.316.209c.314-.177.844-.308.895-.543a2.676,2.676,0,0,0-.235-1.311,1.061,1.061,0,0,0-.645.016A16.432,16.432,0,0,0-386.366,163.133Zm213.183,36.634a2.643,2.643,0,0,0-.416.34c-.27.38.252,1.929.691,2.028.136.031.421-.034.427-.081a2.5,2.5,0,0,0,.02-1.063A6.845,6.845,0,0,0-173.183,199.767ZM-279.93,349.153c-.787.335-1.214,1.145-.889,1.68.12.2.611.4.746.316C-279.216,350.6-279.685,349.9-279.93,349.153ZM-260.757,96l.624.011c.063-.7.145-1.392.172-2.09,0-.116-.226-.338-.351-.339-.147,0-.419.175-.425.286C-260.776,94.573-260.757,95.285-260.757,96Zm-53.224,7.956a4.877,4.877,0,0,0-1.236-.8c-.16-.037-.656.493-.61.607a1.561,1.561,0,0,0,.742.844C-314.9,104.674-314.531,104.292-313.981,103.952Zm-73.077,171.926c.729-.39,1.266-.743,1.231-1.5-.007-.151-.54-.458-.7-.39C-387.366,274.334-387.025,275.069-387.058,275.878Zm24.652,8.541-2.173,1.411C-362.984,286.137-362.207,285.667-362.406,284.419ZM-250.076,113.3l-.653-.91c-.182.325-.5.646-.506.974-.007.312.309.632.483.948Zm27.076-.269c-.343.421-.658.666-.751.977-.049.164.289.444.452.672l1.028-.885Zm-23.388,236.535c.331-.527.65-.814.644-1.1,0-.214-.464-.622-.643-.584a1.068,1.068,0,0,0-.721.663C-247.146,348.777-246.757,349.075-246.388,349.566Zm-32.2-245.362-.806.822c.229.212.528.64.674.593.327-.106.579-.447.861-.692Zm-3.757,7.156c-.413-.25-.7-.536-.827-.477a4.234,4.234,0,0,0-.878.694c.208.2.485.611.611.569A4.818,4.818,0,0,0-282.34,111.36ZM-379.448,296.2c-.362-.883-.951-.682-1.411-.463-.292.138-.455.547-.676.835l.225.18ZM-231.6,117.342l-.283-.5c-.251-.193-.512-.545-.751-.531-.215.013-.611.493-.561.653a1.159,1.159,0,0,0,.713.676C-232.231,117.7-231.9,117.452-231.6,117.342Zm-25.756-19.6c-.4-.293-.627-.576-.888-.61-.154-.019-.537.4-.5.544a1.157,1.157,0,0,0,.579.694C-258.054,98.42-257.748,98.055-257.356,97.74ZM-372.025,270.688a6.57,6.57,0,0,0-1.221-.6c-.143-.034-.358.238-.54.371a7.86,7.86,0,0,0,1,.745C-372.709,271.255-372.455,270.99-372.025,270.688Zm36.225,43.457.608.031c0-.468.01-.936-.022-1.4a2.464,2.464,0,0,0-.491-.059Zm-37.774-37-.261.413,1.164,1.054c.1-.493.271-.9.19-.957A5.778,5.778,0,0,0-373.574,277.14Zm126.709-174.414,1.427-.71c-.1-.159-.2-.448-.312-.455C-246.342,101.52-246.811,101.705-246.865,102.726Zm-21.872-7.675c-.237.41-.512.679-.46.846.077.246.387.42.6.625.16-.2.463-.41.444-.589C-268.182,95.685-268.449,95.461-268.737,95.051Zm6.1,7.183c.253-.467.475-.691.451-.885s-.285-.38-.443-.568a2.056,2.056,0,0,0-.379.633C-263.034,101.581-262.848,101.786-262.634,102.234Zm-74.741,205.311c-.23.407-.451.627-.439.832a.632.632,0,0,0,.492.4c.2-.027.519-.287.52-.448C-336.8,308.131-337.075,307.931-337.375,307.545Z" fill="#29302c"/>
          <path id="Path_2097" data-name="Path 2097" d="M-335.136,111.415c-.8-1.494-1.581-3-2.419-4.475a3.967,3.967,0,0,0-1.083-1.323,19.633,19.633,0,0,1-4.782-4.6c-.394-.538-.863-1.022-1.291-1.524-.036.03.025-.045.048-.035,1.454.672,3.206.73,4.323,2.1a1.013,1.013,0,0,0,.353.324c2.628,1.035,3.386,3.4,4.111,5.781.37,1.218.7,2.448,1.052,3.672Z" fill="#29302c"/>
          <path id="Path_2098" data-name="Path 2098" d="M-337.191,103.381c4.029,1.755,5.728,5.6,8.223,8.717l-.223.354a11.841,11.841,0,0,1-1.812-.8c-.912-.591-1.709-1.366-2.636-1.928a5.659,5.659,0,0,1-2.176-3.237C-336.207,105.449-336.711,104.453-337.191,103.381Z" fill="#29302c"/>
          <path id="Path_2099" data-name="Path 2099" d="M-152.875,241.957c-.219-.044-.438-.085-.655-.134-1.731-.385-3.476-.718-5.187-1.179a18.415,18.415,0,0,1-3.053-1.168,14.2,14.2,0,0,0-6.465-1.6c1.411-.661,2.718-1.281,4.38-.566,1.425.613,3.051.739,4.543,1.221a27.016,27.016,0,0,1,2.749,1.32c.974.443,1.978.822,2.954,1.261a6.11,6.11,0,0,1,.864.574Z" fill="#29302c"/>
          <path id="Path_2100" data-name="Path 2100" d="M-363.211,223.223h-5.329V176.3h5.291v21.1l.252.085c.328-.442.65-.889.985-1.326a15.633,15.633,0,0,1,8.153-5.9c6.222-1.767,11.7,2.024,12.18,8.47.19,2.568.18,5.154.194,7.732.027,5.19.008,10.381.008,15.571v1.182h-5.391c0-.407,0-.808,0-1.209q-.067-10.686-.145-21.371a10.874,10.874,0,0,0-.221-1.917,4.631,4.631,0,0,0-5.838-3.746c-3.027.743-5.192,2.753-7.2,4.979-.431.478-.8,1.009-1.2,1.515a8.063,8.063,0,0,0-1.789,5.52c.148,4.993.047,9.993.047,14.99Z" fill="#29302c"/>
          <path id="Path_2101" data-name="Path 2101" d="M-198.234,223.211h-5.393c0-.368,0-.736,0-1.1-.013-6.738-.011-13.477-.054-20.215a17.3,17.3,0,0,0-.347-3.359,4.578,4.578,0,0,0-5.685-3.592c-3.073.723-5.26,2.757-7.295,5-.346.381-.653.8-.968,1.206A8.451,8.451,0,0,0-220,206.881c.179,5.023.055,10.057.055,15.087v1.22h-5.314V176.25c1.479,0,2.92,0,4.362,0,.281,0,.562.035.952.06v21.448c.534-.72.878-1.209,1.247-1.678,2.467-3.135,5.459-5.483,9.513-6.127a9.055,9.055,0,0,1,10.715,8.484c.227,3.695.2,7.408.226,11.114C-198.208,214.066-198.234,218.578-198.234,223.211Z" fill="#29302c"/>
          <path id="Path_2102" data-name="Path 2102" d="M-327.736,190.826v1.191c.016,6.739.018,13.477.064,20.215a16.368,16.368,0,0,0,.349,3.259,4.54,4.54,0,0,0,5.6,3.568c3.213-.737,5.481-2.878,7.57-5.253.319-.363.6-.761.9-1.14a8.124,8.124,0,0,0,1.89-5.582c-.161-5.025-.051-10.058-.051-15.088V190.8h5.334v32.377h-5.309v-6.905c-1.08,1.281-1.929,2.4-2.891,3.408a13.644,13.644,0,0,1-8.269,4.422c-4.268.547-9.446-2.047-10.1-7.407a52.569,52.569,0,0,1-.432-5.876c-.056-6.448-.027-12.9-.029-19.345,0-.191.023-.383.04-.653Z" fill="#29302c"/>
          <path id="Path_2103" data-name="Path 2103" d="M-298.6,193.438h8.026V180.4h5.4v13.036h14.431v4.5h-14.321c-.032.361-.077.637-.077.914,0,4.256-.011,8.512.011,12.768a18.214,18.214,0,0,0,.21,2.6,5.912,5.912,0,0,0,5.561,5.373,14.735,14.735,0,0,0,8.223-1.663c.4-.19.791-.387,1.334-.654,0,1.565.012,2.972-.018,4.378a.707.707,0,0,1-.381.475c-4.16,1.9-8.434,2.766-12.949,1.385a9.431,9.431,0,0,1-7.167-8.633,36.475,36.475,0,0,1-.213-3.665c-.027-4.03-.011-8.06-.011-12.091v-1.151H-298.6Z" fill="#29302c"/>
          <path id="Path_2104" data-name="Path 2104" d="M-233.8,217.176c0,1.7.011,3.269-.018,4.838a.657.657,0,0,1-.4.45c-5.216,1.6-10.48,2.579-15.842.74-6.377-2.187-10.549-8.163-10.829-15.38-.309-7.957,4.2-14.844,11.236-17.176a19.784,19.784,0,0,1,9.941-.4c1.77.324,3.511.814,5.251,1.281.262.07.631.417.639.647.058,1.507.03,3.018.03,4.651-1.2-.451-2.269-.884-3.357-1.253a18.609,18.609,0,0,0-7.778-1.188,10.082,10.082,0,0,0-9.184,7.275,14.368,14.368,0,0,0,1.833,13.529c1.992,2.894,4.92,3.891,8.271,4.02a24.761,24.761,0,0,0,8.981-1.652C-234.666,217.44-234.3,217.334-233.8,217.176Z" fill="#29302c"/>
          <path id="Path_2105" data-name="Path 2105" d="M-287.258,241.257h1.885v2.417a22.22,22.22,0,0,1,2.09-1.893c2.671-1.855,5.592-.751,6.3,2.435a9.98,9.98,0,0,1,.1,3.448c-.534,3.912-3.246,6.046-7.175,5.788-.379-.024-.758-.037-1.258-.06v4.62h-1.948Zm1.935,7.224c0,1.038-.049,1.75.024,2.45a1,1,0,0,0,.526.723,4.261,4.261,0,0,0,5.288-2.388,6.593,6.593,0,0,0,.347-4.526c-.549-2-2.083-2.529-3.761-1.288C-284.692,244.778-285.816,246.438-285.323,248.481Z" fill="#29302c"/>
          <path id="Path_2106" data-name="Path 2106" d="M-354.068,235.833h1.916v7.856a6.677,6.677,0,0,1,.763-.82,13.056,13.056,0,0,1,2.783-1.818,3.271,3.271,0,0,1,4.457,2.909c.142,3.052.035,6.115.035,9.225a1.807,1.807,0,0,1-.409.119c-1.5.1-1.5.1-1.5-1.379-.008-2.287.033-4.577-.048-6.862-.083-2.322-1.6-3.065-3.515-1.723-1.577,1.106-2.781,2.441-2.558,4.627a40.061,40.061,0,0,1,.026,4.058c0,1.331,0,1.333-1.312,1.289-.19-.006-.378-.044-.634-.075Z" fill="#29302c"/>
          <path id="Path_2107" data-name="Path 2107" d="M-250.273,241.052v12.362c-.537-.126-1.41-.075-1.732-.471-.387-.477-.3-1.334-.379-1.761-.483.377-1.052.843-1.643,1.279-1.263.932-2.617,1.6-4.216.959a4.227,4.227,0,0,1-2.642-3.748,8.338,8.338,0,0,1,1.722-6.628,5.147,5.147,0,0,1,3.834-1.977C-253.729,241-252.124,241.052-250.273,241.052Zm-2.135,4.995c0-1.05.039-1.76-.021-2.462a.942.942,0,0,0-.44-.694,4.26,4.26,0,0,0-5.051,1.787,6.454,6.454,0,0,0-.613,5.3,2.1,2.1,0,0,0,3.472,1.249C-253.125,249.914-251.9,248.213-252.408,246.047Z" fill="#29302c"/>
          <path id="Path_2108" data-name="Path 2108" d="M-290.632,250.84c.332,1.616.3,1.756-1.083,2.189a12.8,12.8,0,0,1-2.914.619,5.739,5.739,0,0,1-6.131-5.306c-.477-3.474,1.4-6.611,4.389-7.333a4.51,4.51,0,0,1,5.747,3.459,29.222,29.222,0,0,1,.4,3.084h-8.293a3.749,3.749,0,0,0,3.929,4.43,16.229,16.229,0,0,0,2.981-.731A7.8,7.8,0,0,0-290.632,250.84Zm-1.94-4.8c.249-1.939-.8-3.411-2.44-3.5a3.376,3.376,0,0,0-3.377,3.5Z" fill="#29302c"/>
          <path id="Path_2109" data-name="Path 2109" d="M-341.571,247.2c.135-3.756,2.392-6.3,5.712-6.333s5.656,2.3,5.813,5.9a9.017,9.017,0,0,1-.339,2.853,5.317,5.317,0,0,1-5.252,4.048,5.322,5.322,0,0,1-5.438-3.926A20.8,20.8,0,0,1-341.571,247.2Zm2.165-.2c.144.939.2,1.618.359,2.27a3.37,3.37,0,0,0,3.011,2.722,3.167,3.167,0,0,0,3.347-2.1,6.718,6.718,0,0,0-.124-5.533,3.04,3.04,0,0,0-2.94-1.834,2.948,2.948,0,0,0-2.92,1.845A19.184,19.184,0,0,0-339.406,247Z" fill="#29302c"/>
          <path id="Path_2110" data-name="Path 2110" d="M-245.008,253.264h-1.929V241.281h1.876c.033.723.067,1.441.109,2.35a5.232,5.232,0,0,1,.68-.742,13.189,13.189,0,0,1,2.871-1.854,3.184,3.184,0,0,1,4.327,2.826c.161,3.107.041,6.229.041,9.4h-1.847c0-.36,0-.7,0-1.041-.006-2.354-.007-4.707-.023-7.061a2.244,2.244,0,0,0-1.118-2.3,2.368,2.368,0,0,0-2.518.527c-1.556,1.152-2.71,2.489-2.5,4.671C-244.88,249.751-245.008,251.466-245.008,253.264Z" fill="#29302c"/>
          <path id="Path_2111" data-name="Path 2111" d="M-317.444,253.266h-1.894v-2.129c-.492.4-.969.757-1.408,1.154a4.26,4.26,0,0,1-4.8.995,2.7,2.7,0,0,1-1.73-2.382c-.055-3.183-.02-6.367-.02-9.632h1.817c0,.376,0,.748,0,1.12.026,2.482.009,4.966.1,7.445.061,1.737,1.352,2.51,2.878,1.663,1.861-1.033,3.324-2.39,3.167-4.847-.113-1.76-.022-3.534-.022-5.381h1.918Z" fill="#29302c"/>
          <path id="Path_2112" data-name="Path 2112" d="M-304.689,243.115a29.811,29.811,0,0,0-3.533-.551,5.457,5.457,0,0,0-2.414.445,1.156,1.156,0,0,0-.015,2.184c.988.526,2.072.868,3.107,1.307a21.777,21.777,0,0,1,2.013.922,2.848,2.848,0,0,1,1.557,2.79,3.028,3.028,0,0,1-1.848,2.836,9.609,9.609,0,0,1-7.6-.288c-.364-.147-.363-1.2-.531-1.837l.267-.174c.3.133.6.267.9.4a8.851,8.851,0,0,0,4.8.777,3.078,3.078,0,0,0,1.333-.5,1.284,1.284,0,0,0-.135-2.288c-.931-.5-1.934-.865-2.9-1.3-.763-.341-1.531-.673-2.277-1.047a2.621,2.621,0,0,1-1.512-2.6,2.88,2.88,0,0,1,1.625-2.671,8.784,8.784,0,0,1,6.59-.149C-304.948,241.474-304.9,242.434-304.689,243.115Z" fill="#29302c"/>
          <path id="Path_2113" data-name="Path 2113" d="M-220.051,250.926c1.473.36,2.88.807,4.321,1.017a5.044,5.044,0,0,0,2.44-.328,1.783,1.783,0,0,0,.892-1.307,1.641,1.641,0,0,0-.807-1.239c-1.635-.823-3.377-1.438-5-2.286a2.81,2.81,0,0,1-.839-4.429,4.41,4.41,0,0,1,2.006-1.222,9.739,9.739,0,0,1,5.253.117c1.157.311.4,1.206.59,1.83a31.231,31.231,0,0,0-3.2-.51,5.531,5.531,0,0,0-2.258.315,1.647,1.647,0,0,0-.909,1.182,1.687,1.687,0,0,0,.838,1.224c1.021.534,2.136.887,3.207,1.328a15.4,15.4,0,0,1,1.58.717,2.952,2.952,0,0,1,1.689,3.1,2.9,2.9,0,0,1-2.221,2.752,28.29,28.29,0,0,1-4.67.318,4.578,4.578,0,0,1-1.227-.249C-220.2,252.795-220.194,252.792-220.051,250.926Z" fill="#29302c"/>
          <path id="Path_2114" data-name="Path 2114" d="M-231.23,243.844h-2.938v-1.6h2.921v-4.891h2v4.835h5.315c.3,1.657.292,1.662-1.206,1.663H-229.1c0,2.15-.112,4.2.039,6.236.1,1.354,1.263,2.067,2.778,1.891a21.971,21.971,0,0,0,2.691-.647c.362,1.362.3,1.584-1.065,1.935a9,9,0,0,1-2.936.315,3.57,3.57,0,0,1-3.545-3.633c-.109-1.6-.067-3.218-.089-4.827C-231.235,244.744-231.23,244.366-231.23,243.844Z" fill="#29302c"/>
          <path id="Path_2115" data-name="Path 2115" d="M-268.553,251.665h3.777v1.576h-5.715V237.46h-3.566v-1.617h5.5Z" fill="#29302c"/>
        </g>
      </g>
    </g>
  </g>
</svg>
