<svg id="Group_789" data-name="Group 789" xmlns="http://www.w3.org/2000/svg" width="522.141" height="982.463" viewBox="0 0 522.141 982.463">
  <path id="Path_1667" data-name="Path 1667" d="M244.182,632.927c-.2-6.759-3.854-12.195-7.737-17.026-8.2-10.152-16.882-19.931-25.885-29.48-4.544-4.861-10.124-8.8-15.071-13.345-2.876-2.588-5.263-5.551-8.341-8.829,9.434-8.254,21.024-12.4,32.614-17.745a34.512,34.512,0,0,1,5.062,4.976,157.9,157.9,0,0,1,12.4,19.672c7.622,15.9,14.38,32.212,21.686,48.289a108.834,108.834,0,0,1,8.34,32.729c2.876,25.6,5.752,51.251,8.427,76.906.374,3.336.69,6.557,5.752,5.752,2.358-4.918,1.179-10.239.776-15.3q-2.675-33.3-5.9-66.552C274.985,639.629,273,626.341,271.447,613c-1.294-11.217-2.387-22.491-3.566-33.736-1.956-18.263-4.314-36.5-5.752-54.789a290.487,290.487,0,0,0-7.276-47.081,136.988,136.988,0,0,0-25.137-52,460.172,460.172,0,0,1-50.906-81.766c-11.159-23.009-17.947-47.513-25.424-71.9a514.01,514.01,0,0,1-15.473-64.884,278.633,278.633,0,0,1-2.876-63.273c1.179-18.694,2.186-37.389,3.365-56.112,1.323-20.449,2.876-40.9,4.17-61.346a20.134,20.134,0,0,1,.978-3.71c3.969-1.639,5.752.69,7.19,3.135,5.752,9.692,11.5,19.413,17.4,29.134,7.564,12.77,14.869,25.683,22.75,38.28,34.771,55.565,60.771,114.812,74.778,179.035,2.042,9.29,3.423,18.752,5.062,28.157a22.836,22.836,0,0,1-1.15,12.453,113.373,113.373,0,0,0-6.874,45.585q.719,18.033,1.294,36.008c0,.546-.547,1.122-1.323,2.588-8.341-17.256-15.3-34.513-22.059-51.769s-13.776-34.829-20.132-52.4-12.856-35.922-18.464-54.127-9.491-36.238-15.214-54.041-8.628-36.095-12.856-54.185c-2.5,4.113-1.323,8.225-.949,12.166a281.426,281.426,0,0,0,8.657,46.678c4.976,18.407,9.951,36.842,14.38,55.364,5.752,24.1,15.042,47.081,23.555,70.262s17.486,45.5,26.69,68.076a213.052,213.052,0,0,0,20.794,39.287,24.188,24.188,0,0,1,3.135,7.708c3.883,15.79,7.708,31.637,11.36,47.4a87.167,87.167,0,0,1,2.071,13.633c1.668,23.009,3.02,45.844,4.774,68.767,1.381,17.975,3.192,35.922,4.746,53.869,1.237,14.093,2.531,28.157,3.48,42.278,1.582,23.612,2.876,47.254,4.314,70.895a55.092,55.092,0,0,0,.892,6.874l7.535.777a46.506,46.506,0,0,0,.834-7.622c-.575-10.239-1.869-20.449-2.013-30.688-.431-31.464-.46-62.928-.546-94.421a37.962,37.962,0,0,1,1.294-9.347c.23-.92,2.071-1.754,3.307-1.956a3.5,3.5,0,0,1,2.33,1.726,15.586,15.586,0,0,1,1.352,5.033c.719,7.737,1.467,15.473,1.841,23.239,1.639,34.254,3.164,68.536,4.8,102.79.173,3.48.92,6.931,1.467,10.871l7.42.489a18.792,18.792,0,0,0,1.352-3.336,23.033,23.033,0,0,0,.173-4.228q-1.841-60.4-3.739-120.794a24.042,24.042,0,0,0-.661-6.3c-5.925-19.586-9.779-39.776-18.033-58.7-6.241-14.208-11.993-28.761-16.94-43.428-4.027-12.022-6.615-24.533-9.664-36.871-5.148-20.909-10.584-41.818-12.942-63.273s-3.307-43.659.719-65.488a118.319,118.319,0,0,1,9.4-28.042,102.474,102.474,0,0,1,46.017-49.7,89.148,89.148,0,0,1,16.94-5.752,13.775,13.775,0,0,1,7.248,0c10.383,3.135,20.679,6.586,31.148,9.98a12.368,12.368,0,0,1-1.035,3.681c-12.626,16.48-20.334,35.462-28.214,54.415a417.516,417.516,0,0,0-25.05,85.217,276.879,276.879,0,0,0-3.365,88.611,12.662,12.662,0,0,0,1.294,2.646,36.667,36.667,0,0,0,1.035-13.6c0-16.969-.6-33.909,1.9-50.82a433.644,433.644,0,0,1,12.137-54.645c7.19-25.252,18.062-49.065,28.761-72.879,8.628-18.924,14.38-28.962,24.59-38.827,9.146,0,18.148,3.48,27.409,5.148s18.608,2.1,29.71,5.58c-5.752,2.5-9.52,4.257-13.374,5.752a40.954,40.954,0,0,0-14.38,10.354,156.687,156.687,0,0,0-37.7,72.563c-12.137,51.6-23.009,103.538-31.033,155.854a487.459,487.459,0,0,0-5.9,86.627c.316,13.086-.46,26.172-.259,39.229.259,17.256,1.007,34.656,1.582,51.97.374,10.613.805,21.2,1.265,31.809a90.559,90.559,0,0,0,.949,9.031l10.9,1.064a56.335,56.335,0,0,0,1.438-6.529c2.128-25.885.173-51.568-.2-77.366-.489-32.873-1.639-65.747-1.266-98.62A247.083,247.083,0,0,1,377.747,476.7a153.581,153.581,0,0,1,33.1-53.84,200.953,200.953,0,0,1,58.585-43.141,608.688,608.688,0,0,1,81.853-34.513,51.046,51.046,0,0,1,6.068-1.9,3.911,3.911,0,0,1,4.889,4.947,57.523,57.523,0,0,1-4.832,11.677,409.432,409.432,0,0,0-28.761,61.4c-7.88,21.57-15.588,43.141-23.526,64.74a256.37,256.37,0,0,1-22.2,48.059,186.1,186.1,0,0,1-16.02,22.232c-15.416,17.975-31.263,35.548-47.052,53.178A197.3,197.3,0,0,0,396.5,639.686a48.605,48.605,0,0,0-6.068,18.953c-3.02,23.008-1.726,46.017-1.467,68.853,0,4.2.748,8.4,1.179,13.029,6.3,1.841,12.281,3.767,18.378,5.349,13.661,3.538,21.743,11.5,24.044,26.086,3.854,24.389,8.4,48.692,13.057,72.994,4.487,23.44,4.487,47.081,3.854,70.78a190.3,190.3,0,0,1-14.208,63.791,13.545,13.545,0,0,1-7.852,8.082,146.637,146.637,0,0,1-14.754,5.752,244.458,244.458,0,0,1-62.5,10.469c-22.261.4-44.579.949-66.811-.2s-44.521-1.841-66.149-8.111c-3.394-.978-6.73-2.128-10.066-3.25-13.287-4.429-20.506-13.805-23.958-27.265a236.353,236.353,0,0,1-1.927-111.275c7.19-32.413,15.071-64.625,24.648-96.463a21.225,21.225,0,0,1,15.358-15.818c7.449-2.042,15.186-2.876,22.807-4.372,2.876-.489,5.464-.805,8.456-1.266a30.365,30.365,0,0,0,.6-5.579c-1.5-16.164-2.7-32.385-6.673-48.2a69.8,69.8,0,0,0-13.374-25.079c-3.423-4.487-7.133-8.8-10.354-13.431a67.932,67.932,0,0,0-24.562-21.254,332.628,332.628,0,0,1-45.614-28.76c4.17-6.788,17.4-18.809,26.776-24.159a75.222,75.222,0,0,1,6.5,4.573c11.5,10.037,23.008,19.845,33.937,30.429,6.529,6.356,11.706,14.064,17.659,21.053,2.157,2.56,2.646,6.73,6.874,7.305l.4,1.266c0-.23.173-.518,0-.633a2.5,2.5,0,0,0-.518-.4ZM470.844,439.512l-2.56,3.911c-15.071,22.635-30.515,45.01-45.068,67.961a264.312,264.312,0,0,0-25.712,51.021c-5.9,16.279-11.993,32.5-14.754,49.7a19.443,19.443,0,0,0,.46,12.051,34.494,34.494,0,0,0,2.531-4.6c2.445-7.736,4.918-15.473,7.19-23.267a372.332,372.332,0,0,1,35.721-81.277c11.849-20.506,24.1-40.754,36.123-61.174,1.783-2.876,3.192-6.212,4.8-9.347l1.812-4.515,1.064-2.243Zm-32.3,481.6c-3.451.863-5.752,1.5-8.139,1.984a46.016,46.016,0,0,1-31.809-4.6,48.4,48.4,0,0,1-24.533-31.637,99.6,99.6,0,0,0-8.053-20.621c-6.644-12.856-20.132-17.429-33.3-14.38a43.976,43.976,0,0,0-27.38,16.739c-1.869,2.588-3.969,4.976-6.068,7.392C289.71,887.056,277,891.8,262.992,893.5a23.643,23.643,0,0,1-10.411-1.035c-14.869-5.12-25.885-14.553-30.2-30.112a53.006,53.006,0,0,1,2.531-37.389,82.655,82.655,0,0,1,15.214-22.778c4.372-4.63,8.858-9.146,13.029-13.92,2.473-2.876,5.378-5.608,5.551-10.21l-44.406-11.5c-.949,2.272-1.927,4.084-2.5,6.011a588.578,588.578,0,0,0-18.982,85.678c-.949,6.644,0,11.217,5.464,15.56a113.573,113.573,0,0,1,24.36,27.754,50.187,50.187,0,0,1,8,33.334,125.856,125.856,0,0,1-10.5,40.84,66.324,66.324,0,0,0-2.387,7.391l14.7,3.624a93.3,93.3,0,0,0,18.321-21.225c5.953-8.628,11.5-17.8,17.832-26.316,5.752-7.909,12.252-15.473,18.809-22.865a47.914,47.914,0,0,1,18.062-12.712c33.765-13.69,57.722,6.874,62.18,31A134.81,134.81,0,0,0,370.844,948a25.309,25.309,0,0,0,18.781,18.349,54.643,54.643,0,0,0,16.739,1.438c6.27-.374,12.482-2.243,18.781-3.049a8.312,8.312,0,0,0,7.938-7.1c1.208-5.148,2.876-10.181,3.8-15.387C437.827,935.632,440.358,929.19,438.547,921.108ZM280.363,780.642c-6.385,14.7-17.544,25.108-27.754,36.353a87.3,87.3,0,0,0-10.124,14.783,32.817,32.817,0,0,0-2.243,25.885,23.008,23.008,0,0,0,29.882,15.588,37.848,37.848,0,0,0,19.931-14.984,63.648,63.648,0,0,1,36.353-24.073c19.7-5.436,44.752.489,56.083,23.008,3.336,6.586,5.9,13.546,8.628,20.42,1.323,3.25,2.1,6.73,3.336,10.037,4.487,12.281,22,23.008,37.791,15.042,2.473-1.237,4.918-2.589,7.018-3.71,2.876-16.767,0-52-5.752-66.293-3.451,0-6.96.173-10.44,0a57.279,57.279,0,0,1-13.575-1.5,62.124,62.124,0,0,1-36.411-28.991c-2.243-4-4.343-8.11-6.3-12.252a12.8,12.8,0,0,0-15.243-8.053,205.388,205.388,0,0,1-52.8,0c-5.579-.892-11.216-.921-18.407-1.266Zm-24.648,210.47c3.049.518,4.4.892,5.752.949,12.914.633,11.5,3.336,18.982-8.341a20.8,20.8,0,0,1,3.451-4c18.32-17.515,46.65-17.889,61.317,6.96,1.064,1.812,2.3,3.509,3.422,5.206,12.367,1.093,24.159-1.294,36.037-2.876.805,0,1.467-1.208,2.876-2.3a33.585,33.585,0,0,0-3.911-2.071c-19.1-6.759-30.055-20.133-33.19-40.265a59.417,59.417,0,0,0-2.5-10.268A22.06,22.06,0,0,0,325.4,918.4a29.8,29.8,0,0,0-20.391,7.535,85.055,85.055,0,0,0-11.677,12.194c-7.478,9.807-14.38,19.989-21.657,30.055-5.177,7.334-10.124,14.524-15.991,22.922Zm174.922-179.7c-.949-12.022-6.414-33.909-10.037-40.466-12.079,2.876-24.619,4.141-37.389,7.708a51.193,51.193,0,0,0,8.139,16.451,44,44,0,0,0,22.376,16.969,20.131,20.131,0,0,0,16.882-.661ZM201.1,970.72a87.519,87.519,0,0,0,9.836-46.995,21.57,21.57,0,0,0-3.336-9.836c-4.717-6.989-9.98-13.575-15.186-20.133-.892-1.093-2.7-1.467-4.314-2.3-3.164,16.882-1.726,34.887,4.8,60.023,1.582,6.241,1.956,13.143,8.168,19.241Zm123.354,22.117c-3.394-5.953-8.024-6.644-13-6.3s-9.433,1.093-12.281,6.816a89.788,89.788,0,0,0,25.252-.518Z" transform="translate(-40.299 -21.849)" fill="#e4e6e4"/>
  <path id="Path_1668" data-name="Path 1668" d="M101.67,288.744a50.962,50.962,0,0,1,4.458-6.557c11.907-12.568,23.584-25.4,35.979-37.389,17.256-16.8,35.03-32.96,57.291-43.141,2.876-1.323,5.752-2.56,8.628-3.768a48.289,48.289,0,0,1,44.752,3.25c5.464,3.221,10.9,6.557,16.106,10.21,2.876,1.927,5.982,3.768,7.075,7.765a11.873,11.873,0,0,1-2.473,1.7,162.151,162.151,0,0,0-55.45,34.513c-5.925,5.551-12.309,10.584-18.522,15.847a17.945,17.945,0,0,1-3.365,2.56c-13.489,6.931-26.69,14.38-41.185,19.27a47.082,47.082,0,0,1-19.845,2.473c-8.427-.863-16.825-1.9-25.194-3.221a41.877,41.877,0,0,1-8.254-3.509Z" transform="translate(-101.67 300.88)" fill="#e4e6e4"/>
  <path id="Path_1669" data-name="Path 1669" d="M215.74,115.767c.949-1.237,1.38-2.33,2.186-2.876,15.013-9,30.918-15.1,48.749-15.329S302.6,96.9,320.544,96.5a160.082,160.082,0,0,0,37.676-4.63c2.675-.719,5.9-1.611,7.852,1.15a6.874,6.874,0,0,1-1.007,8.8,85.477,85.477,0,0,1-9.491,9.865A184.589,184.589,0,0,1,321.867,133.4a17,17,0,0,1-9.031,1.841c-13.661-1.323-27.409-2.33-40.84-4.918-16.566-3.192-32.845-7.823-49.238-11.936A59.169,59.169,0,0,1,215.74,115.767Z" transform="translate(112.332 108.135)" fill="#e4e6e4"/>
</svg>
