<svg id="Layer_1" data-name="Layer 1" xmlns="http://www.w3.org/2000/svg" viewBox="0 0 400 400"><defs><style>.cls-1{fill:#a4b8bc;}.cls-2{fill:#344142;}</style></defs><circle class="cls-1" cx="200" cy="200" r="146.22"/><path class="cls-2" d="M248.25,170.42c-2,1.65-4.89,2.17-5,5.68.53,1.26,1.12,3,3.1,3.71a2.25,2.25,0,0,1,1.56,3.27c-1.21,3,.64,5.38,1.57,7.88.33.91,1.83,1.38,2.65,1.94,0,.6.22,1,.09,1.18-2.79,3-1.18,6.4-.58,9.62.1.55,1.12.9,1.68,1.38,1.23,1,1.57,2.36.43,3.08-3.38,2.14-1.9,6-3.26,8.75-.19.4.55,1.3.94,1.92,1.29,2,.87,2.94-1.58,3.25a10.43,10.43,0,0,1-1.57-.09c-1.34,2.29-3.52,4.42-3.1,7.35.38,2.58,1.7,4.91,5,5.43-2.65,4.81-1.63,8.43,2.13,11.58-2.54,3.42-2.67,6.77.64,9.92a7.43,7.43,0,0,0-2.19,6.42c.11.74.07,1.78.53,2.14,1.68,1.32.5,2.65,0,4.2,3.06.57,5.91,1.05,8.74,1.64s5.71,1.27,8.56,2a28.3,28.3,0,0,1,3,1.07,7.31,7.31,0,0,1,5.14,7.43c0,1.7.11,3.4,0,5.09-.06,1.06-.06,2.49-.7,3.07-2.21,2-1.59,4.52-1.69,6.93-.47,11.83-1,23.66-1.42,35.49-.13,3.58-.07,7.16,0,10.74.05,2.32,0,4.67.21,7,.61,5.74-3.78,8.25-8.89,9.76a40.1,40.1,0,0,1-5.83,1.26c-5.58.82-11.18,1.47-16.79,2.06-9.66,1-19.34,1.91-29,2.81a61.41,61.41,0,0,1-7,.18c-8.74-.39-17.48-.87-26.22-1.29-12.22-.6-24.17-2.88-36-5.8a59.63,59.63,0,0,1-7.85-2.7,6.32,6.32,0,0,1-4.37-6c-.07-2-.32-4-.4-6q-.64-16-1.24-31.92c-.28-7.25-.5-14.5-.81-21.74a21.33,21.33,0,0,0-.69-3.58c-.09-.45-.34-.86-.45-1.31-1.9-7.85,0-11.26,7-14.26,4.3-1.82,9-2.18,13.53-2.91,1.94-.3,3.86-.71,5.49-1,1.64-3.39,0-5.42-2.49-7.26.92-.67,1.35-1,1.81-1.3a10.57,10.57,0,0,1,1.13-.55c.82-5.46.82-5.46-2-9.64l3.09-1.19a8.64,8.64,0,0,0,.85-6.88,7.38,7.38,0,0,0-5.16-5.08c.63-1.29,1.14-2.3,1.68-3.39-.4-1.74-.52-3.69-1.32-5.29-.7-1.39-2.18-2.39-3.53-3.78l2.87-2.36c.58-3.73.72-7.35-2.52-10.32.77-.69,1.34-1.16,1.87-1.68,1.7-1.68,1.89-3.21.71-5.28-1.54-2.68-1.54-2.68.94-4.68,1.71-1.38,2.63-5,1.87-7.54-.17-.56-.43-1.09-.69-1.76,3.6-1.88,4.24-5.05,4.37-8.66l-4.85-2.07a8.3,8.3,0,0,1,.86-2.18,2.33,2.33,0,0,0,.21-2.59c-.89-2.11-1.63-4.25-4.36-4.88a1.5,1.5,0,0,1-.76-2.57c1.85-1.44,1.63-3.09,1.18-5-.25-1-.39-2.11-.62-3.35a16.62,16.62,0,0,1-2.56-1.72,2.54,2.54,0,0,1-.87-1.93c.1-.5,1-.89,1.65-1.2a4.55,4.55,0,0,1,1.34-.25c1.09-4.91,1-6.07-1.36-10.3.88-1.45,2.92-2.19,3-4.55.08-2-.88-3.5-1.65-5.34.53-.57,1-1.08,1.5-1.62a7.72,7.72,0,0,0,1.65-2.06c.74-2,1.25-4.11,1.82-6a5.67,5.67,0,0,0-.37-1c-1.92-2.94-1.86-3.08,1.65-4a4,4,0,0,0,.73-.43l1.8-4.47a23.92,23.92,0,0,1-3.45-1.79,2.39,2.39,0,0,1-.91-1.86,2.18,2.18,0,0,1,1.54-1.34,31.2,31.2,0,0,1,4.53-.07c-2-4.08-3.59-7.71-5.47-11.2-.52-1-1.82-1.51-3-2.4,1.84-4.34-.46-8.39-.68-12.56l-3.61-3.33,3.58-3V66.41a22.46,22.46,0,0,1-2.13-1.88c-1.79-2-1.28-3.32,1.52-4.15.43-.12.88-.21,1.64-.39.49-1.64,1-3.38,1.54-5.11-.68-2-3.33-3.25-2-6.18L154.8,48l2.27-4.79c-.35-.62-.67-1.13-.93-1.68-1-2-.63-3,1.54-3.1a4.52,4.52,0,0,0,4-2.59,3.07,3.07,0,0,0,0-.92c-.43-1.16-1.05-2.32,0-3.43s2.26-.35,3.39.1c.83.34,1.69.61,2.51.89-.89,4.38-1.95,8.56-2.57,12.8-2.41,16.49-2.51,32.89,2.13,49.09.89,3.11,2.18,6.23,2.29,9.39s-.95,6.37-1.58,9.55a116.58,116.58,0,0,0-2.43,25.28c.23,9,.82,17.91,3.86,26.43a18.62,18.62,0,0,1,.23,11.71,192,192,0,0,0-4.58,18.87c-2.08,11.92-2.69,23.89.17,35.85.52,2.17.16,4.58.07,6.87-.21,5.39-.67,10.77-.7,16.16a54.87,54.87,0,0,0,1,8.72,11,11,0,0,0,1,2.47c1.65-.08,1.74-2.33,1.59-3.2-.18-6.31-.89-11.83-.43-17.41.27-3.23.13-5.35.74-8.52a20.76,20.76,0,0,0-.61-8c-2.09-8-1.47-14.41-.92-22.62.65-9.78,3.94-22,6.21-31.47,1.08-4.48,0-8.29-1.36-12.73-2.93-13.4-3.8-19.15-3-30.89a188,188,0,0,1,3.06-22.36A36.79,36.79,0,0,0,171.44,98c-1.73-6.4-3.2-11.55-3.91-18.18-.27-2.55-.5-4.43-.62-6a130.17,130.17,0,0,1,.27-20c.87-13.48,1-11.94,1.61-14.81.8-3.66.73-3.68,1.57-6.85.18-.69,1-1.22,1.58-1.86,1.83,1.55,2,3.5,2.46,5.23,1.44,5.84,2.19,11,3.22,16.9a107.56,107.56,0,0,1,1.21,13.31c.27,4.62.09,10,.17,14.61.08,5,.68,11.69-.18,16.57a8.7,8.7,0,0,0-.11,3.62c2.9,11.15,2.39,21,2.85,32.42.33,8.19.7,16.4-.5,24.58-.08.55-.26,1.44-.35,2-1,5.67.7,12.32.92,17.88.74,18.81,2.44,31.18-3.89,48.45-.59,1.62-1.36,6.44-.94,8.2,1.69,7.08,1.85,11.58,2.41,18.81A65.43,65.43,0,0,0,181.35,264c1.6.16,1.69-.84,1.63-1.76-.32-4.46-.62-8.93-1.07-13.38-.58-5.67-1.35-11.32-1.93-17a7.18,7.18,0,0,1,.47-3.13,86,86,0,0,0,5.13-23.9,216.81,216.81,0,0,0-.05-24.05c-.17-4.28-1.25-8.53-1.88-12.8a10.75,10.75,0,0,1-.18-3.19c2.1-12.74,1.89-25.52.81-38.31-.57-6.81-1-13.64-2-20.39A56.47,56.47,0,0,1,182,93c.71-8.14.42-16.38.37-24.57A115.09,115.09,0,0,0,176,32.62a26,26,0,0,1-.55-2.64,30.84,30.84,0,0,1,4.74,0c1.86.31,2.56-1.52,4-1.91,2.2,1,1.13,3.82,3.19,5.23a17.82,17.82,0,0,0,5.8,2.68c-.76,4.16-.41,7.84,3.72,10.09-1,4.07-2.64,8.14,1,11.73-1.22,3.55-3.86,7.2.86,10.37-2.44,3-3.76,6.1-3.17,9.84.16.19.3.51.55.64.9.48,2.26.33,2.55,1.67s-.68,2.25-1.75,3c-.64.41-1.26.86-1.88,1.29l-1.22,5.64,2.71,2.4c-.25.58-.32,1.23-.61,1.35-3.88,1.56-5.64,4.91-7.33,8.52.93,2.42,2.13,4.67,5.47,5.22-1.41,3.08-.45,5.78.26,8.58a5,5,0,0,0,3.92,4.09c-.85,1.91-2,3.46-2.17,5.11s.5,3.62.79,5.35l3.4,1.49a23.2,23.2,0,0,1-1.61,2.8c-2.13,2.69-1.92,4,1.07,6.19.23.17.33.51.63,1-.49,2.27-3.37,3.58-2.92,6.68.35,2.4.05,4.82,2.44,6.75-4.86,3.49-5.78,8.71-7.7,13.71l3.94,2.19c-2,3.48-1.6,7-.17,10.41,4.57,1.61,4.72,2.31,1.25,5.61-.22.21-.41.46-.77.86v7.05l3.29,2.38c-3.47,3.5-5.25,7.08-.86,11.11a10,10,0,0,1-1.75,2.11,5.27,5.27,0,0,0-2,3.5c-.35,1.51-.18,2.74,1.54,3.34.36.12.56.68,1,1.24a13.19,13.19,0,0,1-2,1.81c-2.32,1.36-2.35,1.31-3,4.63a7.71,7.71,0,0,1,1.59.75c1,.8,1.06,2.07,0,2.64s-2.44,1.16-3.86,1.81c.67,1.78,1.25,3.34,1.79,4.81l3.69,1.67c-1.61,2.94-2.46,5.81-.6,8.93.22.09.65.22,1,.42,1.6.78,1.91,1.55,1.09,2.74a2.64,2.64,0,0,1-.64.65,3.15,3.15,0,0,0-1.29,3.24c.16,1.53.25,3.05.38,4.66l3.38,1c1.06,3.28-2.59,3.16-3.26,5,.18.33.26.74.48.82a5.47,5.47,0,0,0,1.78.39c3.5,0,7,0,10.38,0,1.66-3.71-1.7-5-3.09-7.35l2.28-3c0-1.18-.13-2.41-.15-3.65,0-1.82.11-3.62-1.27-5.16a1.94,1.94,0,0,1,.3-2.93c3.71-2.48,4.4-5.89,3.35-10,0-.12.08-.29.21-.76,1.14-.94,3.05-1.35,3.8-3.32.93-2.45.94-3.55-1.42-5-1.45-.87-2.26-1.78-1.38-3.28,1-1.72.25-3.22,0-4.88a4.74,4.74,0,0,0-3-3.74c-.24-.11-.35-.49-.69-1,1.88-2.2,1.67-4.91,1.25-7.68a3.82,3.82,0,0,0-1.83-2.94c-2.08-1.38-1.89-2.29.33-3.61a14.63,14.63,0,0,1,1.42-.64c.54-2.72,2.22-5.4.18-8.49,3.68-2.43,5.88-5.43,4-9.73.45-.4.64-.74.89-.78,3.66-.63,4.06-1.22,2.76-4.29-.66-1.55-1.4-3.07-2.11-4.64a13.22,13.22,0,0,1-2.28-.5c-1.21-.49-1.8-1.83-.92-2.55,2-1.65,1.45-3.48,1-5.46a19.3,19.3,0,0,1-.4-3.21,4.07,4.07,0,0,0-2-3.36c-2.18-1.52-2-2.26.25-4.11.46-.38,1.18-.81,1.21-1.25.2-3.1,1.63-6.42-1.36-9.07-.31-.27-.37-.82-.64-1.48,2-1.1,3.55-2.42,4-5,.41-2.2.77-4.19-.93-6.14,2.27-1.57,5.48-1.86,4.87-5.12-.46-2.39-1.11-4.83-4.59-5.45,4.15-3.83,3-7.32.92-10.71,4.29-3,4.67-3.74,5.27-9.48l3.64.52a3.94,3.94,0,0,1,.16,1.31,53.08,53.08,0,0,0-.95,23.45,13.24,13.24,0,0,1-.46,6.31c-2.34,7.33-2.49,14.86-1.74,22.44A53.69,53.69,0,0,0,225,169.12a10.43,10.43,0,0,1,.78,6.34c-.75,5.5-1.61,11-2.39,16.48a63.53,63.53,0,0,0,0,20.73,19.41,19.41,0,0,1-.41,8.69c-1.95,7.45-3.78,14.94-5.32,22.48-1.29,6.39-1.08,12.89-.39,19.36a7.19,7.19,0,0,0,.42,2.15.89.89,0,0,0,1.7-.25c.22-1.82.32-3.82.44-5.11,1.31-14.42,1.07-18.87,4.17-29.61.08-.29.87-3.51,1-3.8,2.41-6.35,2.61-14.08,1.21-20.86a84.76,84.76,0,0,1,.43-13.95c.53-6.06,1.53-10,2.49-16,.43-2.74-.73-7.9-1.89-10.37-5.11-10.94-6-19.09-4.45-31A33.82,33.82,0,0,1,224,128c1.29-3.15.43-9.6.23-12.89-.67-10.66.25-11.86,1.58-19.78.41-1.15.64-2.44,2.42-2.72.27.39.8.82.88,1.33,1,6.09.55,9.85,1.26,16a37,37,0,0,1,.39,7.44c-.25,2-.4,5.25.35,7a43.59,43.59,0,0,1,2.42,8.85c1.76,9.46,2.3,16.09,1,25.61-.48,3.68-1.28,11.92-.29,15.64a99.14,99.14,0,0,1,3.63,33.1,66.34,66.34,0,0,1-1.53,9.25,56.88,56.88,0,0,0-.86,11.45c.51,6.92.52,13.66.58,20.6,0,4.93.34,9,.09,13.93a14.14,14.14,0,0,0,.28,3.66.92.92,0,0,0,1.74.11,16.61,16.61,0,0,0,.71-3.62,122.41,122.41,0,0,0,.38-23.13c-.26-4.42-.57-8.85-.72-13.28a14.43,14.43,0,0,1,.48-4.24c2.47-9.07,2.34-18.27,1.87-27.56a133.35,133.35,0,0,0-3.47-21.9,16.52,16.52,0,0,1-.22-6.41,95.68,95.68,0,0,0,.86-24.72,66.86,66.86,0,0,0-3.56-16.85,13.86,13.86,0,0,1-.71-6.36c.74-7.29-.32-14.46-2-21.56-.35-1.48-.71-3-1.09-4.56,2.4-.41,4.6-.88,6.82-1.14A1.52,1.52,0,0,1,239.28,93a8,8,0,0,0,1.3,4.33c1.22,2.3,2.55,4.45,5,5.74-1.88,4.54-3,8.89.27,13.38-2.37,1.88-2.91,4.71-3.52,7.53-.45,2.09-.12,3.66,2.16,4.38.4.12.7.56,1.24,1-1.25,2.83.41,5.29,1.12,7.89a4.2,4.2,0,0,0,1.34,1.74c1.78,1.6,1.73,1.57.8,3.8a7.86,7.86,0,0,0-.62,2.83c-.05,1.92.13,3.84.22,5.77s-.34,4,2.14,5.1a1.41,1.41,0,0,1,.12,2.38c-2.08,1.29-2.35,3.39-3.08,5.38A7.51,7.51,0,0,0,248.25,170.42ZM135.14,339.78c.74.29,1.3.55,1.88.73.89.26,1.79.48,2.68.71,16.23,4.16,32.81,5.68,49.47,6.26a330,330,0,0,0,35.16-.56,319,319,0,0,0,38.5-5c1.78-.35,3.53-.89,5.26-1.33a15.87,15.87,0,0,0,.33-2.13c-.14-12.81-.21-25.63.79-38.42a12.64,12.64,0,0,0-.39-2.7,14.87,14.87,0,0,0-2.52.2c-12.79,3.32-25.84,4.16-39,4.35-9.1.13-18.2.55-27.3.69-4,.07-8-.13-12-.41-3.69-.25-7.36-.75-11-1.17-7-.8-14.09-1.59-21.13-2.44-6.87-.84-13.72-1.76-20.57-2.64C134.52,299.61,134.39,334.22,135.14,339.78ZM268.5,346.6c-.46-.18-.75-.4-1-.39a13.65,13.65,0,0,0-2.29.28,204.23,204.23,0,0,1-33.82,4.8c-10.31.58-20.63,1.12-31,1.12-8.46,0-16.94-.69-25.39-1.32a166.39,166.39,0,0,1-36.74-6.71,24.34,24.34,0,0,0-2.65-.53c-.86,2.57-.1,4.76.2,6.85,9.59,5,50.87,9.25,70.92,9.56,17.38.28,52.73-4.86,61.67-8.43A8.5,8.5,0,0,0,268.5,346.6Zm-135-66.42c-.75,5-.62,5.3,3.28,6.43a157.64,157.64,0,0,0,27.63,5.3c12.87,1.34,25.79,2,38.75,2.17,20.08.28,40-.91,59.74-4.94a58.69,58.69,0,0,0,6.71-1.66,3.78,3.78,0,0,0,1.8-1.89,2.08,2.08,0,0,0-1-2.89c-1.79.45-3.69,1.08-5.65,1.38a231.94,231.94,0,0,1-31.23,3c-14.64.24-29.27.48-43.89-.56-8.29-.58-16.6-.1-24.9-1.06-9.34-1.08-18.65-2.11-27.78-4.44C135.91,280.72,134.86,280.5,133.5,280.18Z"/></svg>