<svg id="Layer_1" data-name="Layer 1" xmlns="http://www.w3.org/2000/svg" viewBox="0 0 400 400"><defs><style>.cls-1{fill:#dee5de;}.cls-2{fill:#424942;}</style></defs><circle class="cls-1" cx="200" cy="200" r="146.22"/><path class="cls-2" d="M202.45,357.25c.29,2.27.58,4.55.8,6.32,2.39,2.11,4.7,3.73,6.45,5.8,4.05,4.77,5.55,10.58,6,16.69a5.4,5.4,0,0,1-.29,1.81,1.91,1.91,0,0,1-2.59,1.24,27.69,27.69,0,0,1-4.11-2.94c-1.85-1.58-3.57-3.31-5.36-5-1.28.94-.45,3.42-2.57,4-1.84-1.56-1-3.81-1.62-5.64-1-.56-1.36.3-1.81.79-4.51,5-10.29,7.73-16.69,9.35a8.57,8.57,0,0,1-1.81.31c-.84,0-1.85-1.15-1.57-1.91a21.75,21.75,0,0,1,1.68-3.79,55.73,55.73,0,0,1,9.92-12.15,27.27,27.27,0,0,1,7.67-5.11c.84-.36,1.63-.82,2.55-1.28a55.59,55.59,0,0,0-.76-10.49c-1.68.29-1.75,1.59-2.24,2.45a45.89,45.89,0,0,1-8.35,11c-1,.93-2,2.25-3.54,1.78-1.9-.58-1.54-2.44-1.6-3.93-.13-3.24-.32-6.48-.25-9.72a43.55,43.55,0,0,1,10.3-28.07c.3-.35.52-.75.88-1.26-.33-1.88-.66-3.83-1.06-6.11a20.15,20.15,0,0,0-2.36,1.41c-6,4.77-12.86,7.2-20.35,8.15a16,16,0,0,1-2.77.15c-3.65-.17-5-2.26-3.36-5.62A17.18,17.18,0,0,1,166.8,321c4.2-4.34,8.68-8.4,14-11.27,3.23-1.73,6.75-2.9,10.6-4.52.06-.35.27-1.21.35-2.09s0-1.83,0-3.09a20.07,20.07,0,0,0-2.58,1.06,27,27,0,0,1-8.57,3.36,16.24,16.24,0,0,1-4.12.26c-1.5-.08-2.09-1.32-1.38-2.66,3.71-7,9.05-11.64,17.33-12.06a4.12,4.12,0,0,0,1-.37c.78-1.64.37-3.5.33-5.31s-.15-3.38-.24-5.41a18.17,18.17,0,0,0-2.65.95c-6.7,3.79-13.93,4.71-21.47,4.07a9.38,9.38,0,0,1-1.82-.32c-2.25-.65-2.79-2.48-1.21-4.16,2.65-2.81,5.18-5.75,8-8.33a41.31,41.31,0,0,1,14.62-8.67c1.6-.53,3.21-1,5-1.58l2.36-10c-1.43,1.06-2.26,1.67-3.08,2.29A47.33,47.33,0,0,1,177.82,261a14.49,14.49,0,0,1-4.09.53,2.22,2.22,0,0,1-2-3,21.7,21.7,0,0,1,2.48-4.93,47.59,47.59,0,0,1,20.25-16.37c1.28-.54,2.58-1,3.86-1.54a6.44,6.44,0,0,0,1-.66,38.14,38.14,0,0,0,1.18-12c-2.06-.92-3.41-.22-4.77,1-2.25,2.1-4.61,4.08-7,6.06a10.76,10.76,0,0,1-2.34,1.48c-2.13,1-3.83-.22-3.49-2.51.2-1.37.65-2.7,1-4.05.13-.57.19-1.15.31-1.95-4.47-.8-8.75-.19-13.46-.65l1.07,2.84c.6,1.58,1.27,3.14,1.77,4.75a1.93,1.93,0,0,1-1.53,2.44,7.71,7.71,0,0,1-2.29.18c-4-.43-7.95-.92-11.93-1.41a22.12,22.12,0,0,1-9.86-3.7,20.26,20.26,0,0,0-2.15-1.09c-1.43,3-1.77,6.11-2.52,9.44a5.76,5.76,0,0,0,1,.66c6,2.18,10.06,6.47,13,11.89,2,3.65,3.64,7.49,6.22,10.8a1.74,1.74,0,0,1,.15,1.65,2.47,2.47,0,0,1-1.91.86,41.56,41.56,0,0,1-7-2.2A53.11,53.11,0,0,1,141.08,251a10.41,10.41,0,0,0-1.2-.79c-1.25.75-1.35,2-1.45,3.16-.17,1.85-.24,3.7-.51,5.53a1.83,1.83,0,0,1-1.1,1.27c-.86.2-1.44-.48-1.63-1.28-.33-1.33-.52-2.69-.85-4.47-.74.68-1.28,1.12-1.76,1.62-2.55,2.66-5,5.4-7.67,8a11.3,11.3,0,0,1-3.13,1.95c-1.9.89-3.51-.2-3.32-2.26a20.92,20.92,0,0,1,.79-4.07c2.69-8.85,7.83-15.65,16.5-19.43.28-.12.55-.28,1.08-.54,1.36-3.8,3.19-7.66,4.22-12.49-1.31.65-2.07,1-2.81,1.41a48.52,48.52,0,0,1-20.6,6.24c-1.27.07-2.58.24-3.26-1.07a3.25,3.25,0,0,1,.81-3.83,39.77,39.77,0,0,1,4.93-4.87c2.93-2.25,6.07-4.22,9.12-6.3.5-.34,1-.66,1.59-1-1.58-1.32-3.41-2.3-4.4-3.82s-1-3.49-1.59-5.61c-.89-.25-2.07-.5-3.18-.91a9.58,9.58,0,0,1-2.41-1.32,2.17,2.17,0,0,1-.23-3.27c1.53-1.28,3.2-2.4,4.82-3.57.62-.45,1.35-.79,1-2.09-1.27.2-2.55.46-3.85.59-2.75.28-4.27-1.44-3.17-4a33.57,33.57,0,0,1,4.38-7.58,13,13,0,0,0,2.88-9.35c-.49-12-.65-24.07-1-36.11,0-.92-.08-1.84-.12-2.65-.33-.3-.51-.6-.76-.66-1-.26-2.36.15-2.84-1.09a6.71,6.71,0,0,1-.38-3.08c.62-5.39,3.23-9.91,6.39-14.16.83-1.11,1.75-2.14,2.8-3.43-1.18-1.29-2.87-1.66-4.22-2.52s-2.89-1.75-4.51-2.72c-2.27,1.94-4.49,3.78-6.64,5.71a37.12,37.12,0,0,1-18.77,9.37c-4.09.72-8.17,1.53-12.25,2.26a6.32,6.32,0,0,1-1.84.07,3,3,0,0,1-2.34-4.45,7,7,0,0,1,1-1.53c5-5.24,9.45-11.05,16-14.62,1.75-1,3.44-2.08,5.27-2.87a59.32,59.32,0,0,1,5.66-1.83c0-1-.9-1.1-1.48-1.54-1.84-1.39-3.68-2.8-5.48-4.24-5-4-7.72-9.53-10.3-15.17a6.33,6.33,0,0,1-.42-1.78,1.77,1.77,0,0,1,2-2,12.05,12.05,0,0,1,3.8,1.49,55.22,55.22,0,0,1,12.18,10.6,40.7,40.7,0,0,0,3.75,4.13c1.08-1.22.54-2.3.36-3.23-1.08-5.66-.86-11.38-.93-17.08a7.07,7.07,0,0,1,.24-1.83,1.51,1.51,0,0,1,2.31-.61,5.08,5.08,0,0,1,1.23,1.35c3,5.59,6,11.13,7.83,17.23,1.42,4.79,2.12,9.64,1,14.62a16,16,0,0,0-.15,2,18.59,18.59,0,0,0,7.64,4.68c1-.76.47-1.49.15-2.09-.94-1.77-2.06-3.45-2.93-5.26-1.82-3.77-3.23-7.67-3.19-12a11.21,11.21,0,0,1,.16-1.83,1.74,1.74,0,0,1,2.5-1.21c1.17.71,2.27,1.55,3.65,2.5,1.69-2.7,3.49-5.2,4.89-7.92a29.11,29.11,0,0,1,8.46-10.25l1.05-.79c-.14-1.83-.8-2.83-2.54-2.85-6.45,0-10.56-3.72-13.6-8.92a11.11,11.11,0,0,1-1.28-3.91c-.39-2.54,1.06-3.81,3.57-3.16,2.82.74,5.6,1.67,8.46,2.54,1.12-1.2,1.05-2.77,1.28-4.26A64.45,64.45,0,0,1,142,45c.54-2.06,1.2-4.58,3.75-4.68,2.2-.08,3.4,2,4.11,3.91,1.93,5.12,3.2,10.33,1,15.75-1,2.42-1.86,4.89-2.86,7.51a21.76,21.76,0,0,0,4.26,6.74c1.29-.34.91-1.27,1-1.93.27-2.46.4-4.93.72-7.38a32.43,32.43,0,0,1,1-5,2,2,0,0,1,3.38-.74A9.23,9.23,0,0,1,159.78,61a22.59,22.59,0,0,1,3.32,14.61,13.78,13.78,0,0,1-1.34,3.9c-.49,1.12-1.16,2.15-1.79,3.29a17.83,17.83,0,0,0,1.4,1.91,19.84,19.84,0,0,1,4.54,8,24.61,24.61,0,0,0,3.86,7.32,59,59,0,0,1,3.84,6.83l1.35,2.54c.44-3.49.78-6.22,1.16-9.19-1-.35-1.82-.6-2.62-.94a10.34,10.34,0,0,1-5-4.66c-2.81-5-4.45-10.1-2.77-15.92a20.9,20.9,0,0,0,1-8.22A2.06,2.06,0,0,1,168,68.13a2.41,2.41,0,0,1,2.53.68,16.93,16.93,0,0,1,5,6.53c.69,1.52,1.49,3,2.2,4.38,1.47,0,1.23-1.06,1.4-1.67,1.13-4,2.18-8,3.3-12a23.24,23.24,0,0,1,1.22-3.49c.78-1.68,2.65-2,3.72-.53a22.23,22.23,0,0,1,3.18,5.57,20.62,20.62,0,0,1,.13,13.63,15.17,15.17,0,0,1-3.09,5.63c-1.88,2-3.58,4.25-5.48,6.28a4,4,0,0,0-1,4.09,9.31,9.31,0,0,1,1.45-1.52,2.79,2.79,0,0,1,3.75.53,12.29,12.29,0,0,1,1.73,2.72c2.27,5,3.62,10.17,2.75,15.72-.07.45-.05.92-.08,1.55,1.6,1.15,3.37.9,5.54.7a15.74,15.74,0,0,0-.67-2.26c-2.77-5.71-4.37-11.85-6.24-17.88-.81-2.63.65-4.31,3.35-3.9,4.66.71,9,2.23,12.29,5.84,2,2.28,3.84,4.81,5.7,7.26.63.83,1.12,1.78,1.79,2.85,1.59-1.46,1.38-3.19,1.62-4.78s.47-3,.68-4.4c-.29-.42-.4-.77-.64-.89-8.87-4.54-12.43-12.5-13.73-21.76-.48-3.41.76-6.71,1.93-9.9a4,4,0,0,1,1.16-1.4,2,2,0,0,1,2.88.25,14.53,14.53,0,0,1,1.17,2.49,49.56,49.56,0,0,0,2.46,5.95c1.93,3.32,4.14,6.47,6.24,9.7,1.1-.14,1-1.06,1.14-1.71,1.94-10.33,1.94-20.58-1.57-30.61-1.17-3.33-2.77-6.52-4.18-9.76-.49-1.13-1-2.24-1.5-3.39a2.34,2.34,0,0,1,.77-2.89,2.28,2.28,0,0,1,2.62-.17c1.21.68,2.37,1.45,3.52,2.22,4.17,2.76,7.85,6,10,10.67.18.4.39.78.92,1.83.57-1.62.82-2.28,1-3A59,59,0,0,1,238.77,29c.94-1.21,1.85-2.85,3.58-2.53,2.06.39,2.1,2.52,2.33,4.11a33.21,33.21,0,0,1-2.3,17.22c-.45,1.13-.92,2.25-1.36,3.3.73,1.22,1.72.53,2.53.63,1.07.14,2.17.07,3.22.28,2.73.53,3.54,2.16,2.36,4.76a17.58,17.58,0,0,1-5.42,7.1c0,1.45,1,1.18,1.6,1.54a3.32,3.32,0,0,1,1.55,2.68,17.94,17.94,0,0,1-2.05,10.73A34.09,34.09,0,0,1,232.12,92c-4.09,2.42-8.16,4.93-12.78,6.35-.61,3.14-1.19,6.13-1.9,9.74,1.21-.79,1.94-1.23,2.64-1.73q7.15-5.1,14.32-10.2a7.92,7.92,0,0,1,1.18-.72c1.83-.88,3.46-.33,4.07,1.59,1.35,4.26,1.56,8.49-1,12.46-1.14,1.78-2.31,3.54-3.82,5.86,4.3-.6,8-1,11.57-1.67a9.25,9.25,0,0,0,3.37-1.45c1.92-1.26,3.73-2.69,5.6-4.06-.17-2.46-.33-4.75-.49-7-.38-5.27,2.2-9.5,4.88-13.67a1.83,1.83,0,0,1,3.13-.17,13.19,13.19,0,0,1,2.34,4.42c.76,3.13,1.09,6.36,1.6,9.56.12.71.25,1.42.42,2.46a23.21,23.21,0,0,0,5.9-4c1.66-1.33,3.23-2.78,4.71-4.06A2.21,2.21,0,0,1,280,98a19.68,19.68,0,0,1-.59,5.91c-1.22,3.65-2.87,7.15-4.32,10.71-.32.8-.57,1.63-1,2.86,1.34-.11,2.23-.22,3.11-.23a20.48,20.48,0,0,1,15.47,6.14c2.38,2.41,4.52,5.06,6.73,7.64a1.65,1.65,0,0,1-.67,2.66,11.83,11.83,0,0,1-5.83,1.24c-2.77-.16-5.53-.42-8.71-.67-.86.76-2,1.81-3.15,2.77q-3.94,3.21-8,6.33a25.54,25.54,0,0,1-13.65,5.14c-2.14.21-4.25.58-6.53.9.09,2.32,1.06,4,2.3,5.85,1.12-.82,2.09-1.5,3-2.23a20.43,20.43,0,0,1,17-4.08,53.15,53.15,0,0,1,6.73,1.61c4.14,1.33,7.13,4.2,9.59,7.66a9.09,9.09,0,0,1,1.09,2,2.82,2.82,0,0,1-2.37,4.06,21.46,21.46,0,0,1-4.57-.45c-2.13-.34-4.22-1-6.36-1.16a40.07,40.07,0,0,0-15.9,2.24c-.26.08-.45.39-.73.64a4.67,4.67,0,0,0,.62,1.17c3.18,3.12,6.39,6.22,9.33,9.07,3.86-.21,7.39-.67,10.89-.53,6.16.25,11.67,2.62,16.72,6.07a14.2,14.2,0,0,1,2.65,2.55,1.5,1.5,0,0,1-.17,2.1,5.29,5.29,0,0,1-1.43,1.15c-4.79,2.42-9.78,3.75-15.17,2.47-2.1-.5-4.17-1.08-6.58-1.7a12.26,12.26,0,0,0,0,2.2c.91,4.84,1.86,9.69,2.82,14.53.26,1.34.59,2.67.92,4.17,1.48.19,2.83.38,4.19.53a21.81,21.81,0,0,1,15.55,9A49.52,49.52,0,0,1,309.61,230c.95,2.42,2.29,4.7,3.47,7,.56,1.1,1.22,2.15,1.76,3.26a1.51,1.51,0,0,1-1,2.19,7.29,7.29,0,0,1-3.15.05c-3-.84-5.87-1.86-8.78-2.88-2.73-1-5.44-2-8.35-3.15-.94,1.86-.43,3.52-.15,5.09.76,4.24-.06,8.29-1.31,12.29a11.76,11.76,0,0,1-1.36,2.92,2.23,2.23,0,0,1-3.85-.05,40.91,40.91,0,0,1-2.25-4.55c-.83-1.79-1.1-3.84-2.67-5.86a98.66,98.66,0,0,0-3.36,17.87,6.45,6.45,0,0,0,1.44.65c10.36,1.43,18.9,6.3,26.05,13.78a11.49,11.49,0,0,1,1.94,3.07,1.56,1.56,0,0,1-1.25,2.08c-9,1.26-17.87,1.12-26.19-3.23-1.09-.57-2.2-1.1-3.31-1.63-.12-.05-.3,0-.74.09-.11,1.25-.23,2.56-.36,4.06,1.78.5,3.36,1,5,1.4,5.86,1.5,10.51,5.05,14.94,8.93,1.14,1,2.5,2.21,2,3.89-.54,1.9-2.43,2.08-4.11,2.47A20.38,20.38,0,0,1,279.62,298c-1.21-.63-2.48-1.15-4-1.86v4.51c.46.22,1,.5,1.54.71a15.38,15.38,0,0,1,9.82,10.9c1,3.56,1.55,7.22,2.2,10.86a8,8,0,0,1-.15,2.75,1.94,1.94,0,0,1-2.45,1.5A15.69,15.69,0,0,1,284,326.3a27.43,27.43,0,0,1-10.31-10.17c-1.36-.25-1.69.81-2.28,1.42-1.29,1.32-2.5,2.73-3.78,4.07a15.19,15.19,0,0,1-5.74,3.8c-2.41.88-3.79-.12-3.3-2.54,1.14-5.64,2.86-11.1,6.8-15.48,2.05-2.28,4.36-4.32,6.67-6.58,0-1,.07-2.24,0-3.46a9.77,9.77,0,0,0-.7-2c-.91.65-1.65,1.13-2.33,1.67a37.1,37.1,0,0,1-19.88,8,26.19,26.19,0,0,1-5.52-.2,1.76,1.76,0,0,1-1.11-2.56,8.27,8.27,0,0,1,1.11-1.46c7.43-7.87,16.22-13.19,27.15-14.52a5.44,5.44,0,0,0,1-.38c.81-1.29.62-2.8.43-4.68a9.62,9.62,0,0,0-2,.64c-2.4,1.39-4.74,2.88-7.14,4.28-5.57,3.23-11.9,4.18-17.95,5.91-1.24.35-2.7-.06-3.78-.1-1.26-1.29-.7-2.33-.21-3.25,5-9.51,12.09-16.69,22.48-20.17,3.35-1.11,6.76-2,10.33-3.12,1.92-5.67,1.54-11.78,2.69-17.77a13.4,13.4,0,0,0-1.24,1.14c-2.34,2.87-4.69,5.73-7,8.65-1.6,2.07-3.07,4.25-4.6,6.37a19.2,19.2,0,0,1-2.22,2.94,2.68,2.68,0,0,1-2.1.38c-.41-.08-.88-.83-1-1.34a13.44,13.44,0,0,1-.12-2.77q0-6,.07-12a42.26,42.26,0,0,1,3.19-15.78c3.08-7.53,7.28-14.28,13.5-19.65,1.05-.91,2-1.9,3-2.86a4.55,4.55,0,0,0,.36-.68A95.15,95.15,0,0,0,275,194.78c-1.26,0-1.26.89-1.35,1.59-1,8.19-3.63,15.91-6.58,23.54-.87,2.27-1.82,3.07-3.13,2.77-1.73-.4-1.87-1.91-2.08-3.25-.83-5.34-1.69-10.67-2.37-16-.48-3.82-.77-7.67-1-11.52a60,60,0,0,1,1.64-16.06c.27-1.19.42-2.41.68-3.92L257.67,169c-1.6.69-1.37,1.91-1.41,2.89-.19,4.79-2.11,9-4.41,13-.91,1.61-2,3.39-4.13,3.28-2.41-.12-3.17-2.27-3.83-4.13-.7-2-1-4.15-1.85-6.24,0,7.66.08,15.33,0,23-.06,4-.44,8-.73,12a5.44,5.44,0,0,1-4.34,5.32c-2.54.65-5.11,1.17-7.65,1.84-.68.18-1.66.56-1.84,1.07-.6,1.7-1.9,2-3.31,1.91-2.14-.14-4.27-.51-6.4-.78l-3.1-.42c.44,1.54.71,2.68,1.09,3.77A38.2,38.2,0,0,1,218,238.21a14.65,14.65,0,0,1-.15,2.3,1.8,1.8,0,0,1-2.49,1.31,10.29,10.29,0,0,1-1.93-1.25c-2.22-1.91-4.4-3.87-6.6-5.81l-2-1.77c-1,1.29-1,2.47.09,3,7.69,3.94,11.12,11.32,14.89,18.37A42.32,42.32,0,0,1,224.23,267c.21,1.19.64,2.6-.42,3.51-1.32,1.13-2.57,0-3.81-.55a27.86,27.86,0,0,1-10.53-8.84c-2.27-2.91-4.26-6-6.36-9.09-.42-.61-.83-1.24-1.44-2.16a22.15,22.15,0,0,0-2.32,10.67c6.28,3.54,10.27,9.16,13.74,15.24,1.15,2,2.36,4,3.42,6a1.63,1.63,0,0,1-1.78,2.37,13.59,13.59,0,0,1-3.45-1.26,43.75,43.75,0,0,1-10.2-7.14c-.85-.82-1.82-1.52-2.83-2.35a4,4,0,0,0,.92,4.89,29.85,29.85,0,0,0,3.26,2.56,42.31,42.31,0,0,1,11.44,12.58c.15.23.09.59.14,1.11-6,2.49-10.93-.06-15.88-3.83a14.15,14.15,0,0,0-.5,5.43l4,.86a13.81,13.81,0,0,1,9.73,7.15c.59,1.08,1.28,2.11,1.83,3.2a1.68,1.68,0,0,1-1,2.26A9.66,9.66,0,0,1,210,310a20.78,20.78,0,0,1-10.2-2.6c-1.07-.56-2.1-1.21-3.18-1.83-.8,2.74-.8,2.74-.24,6.51a24.2,24.2,0,0,0,2.43.65c2.72.5,5.48.82,8.18,1.43,6.89,1.55,12.35,5.44,16.94,10.66,1.37,1.56,1.16,2.79-.74,3.63-4.85,2.15-9.86,3.58-15.26,3l-3.21-.35c.54,1,.82,1.68,1.21,2.26,1.46,2.17,3.07,4.26,4.42,6.5a47.75,47.75,0,0,1,3.85,7.36c1.88,4.89,3.53,9.87,5.12,14.86a27.24,27.24,0,0,1,1.1,5.88,2.06,2.06,0,0,1-3.19,2,14.27,14.27,0,0,1-2.93-2.21c-3.76-3.59-8.23-6.44-11-11.06Zm37.6-290.4c-1.43.58-2.87,1.11-4.28,1.73-3.29,1.45-6.64,2.47-10.32,1.92a5.07,5.07,0,0,0-1.73.4c-.67,3.74-1.3,7.3-2,11.28a9,9,0,0,0,1.6-1,103.74,103.74,0,0,1,14.88-12.47,12.51,12.51,0,0,0,1.8-2l.72-.44Zm-40,134.87c-.2-1.76-.35-3.6-.64-5.41s-.35-3.9-1.39-5.87a46.51,46.51,0,0,1-4,2.67,45.17,45.17,0,0,1-5.47,2.41,1.86,1.86,0,0,1-2.4-.87,2.9,2.9,0,0,1,0-2.13c2.47-5.31,4.7-10.81,10-14.11a2.26,2.26,0,0,0,1-2.41,11.23,11.23,0,0,0-2.28-5.55c-2.85,3.47-5.39,6.93-8.32,10s-6.16,6.46-10.86,7.7a7.23,7.23,0,0,1-1.23-2,11.43,11.43,0,0,1,.23-6.4c1-2.43,1.93-4.86,3-7.25a25.36,25.36,0,0,1,11.72-12c1.07-.57,2.13-1.15,3.33-1.81-.18-1.35-.31-2.56-.51-3.75s-.49-2.59-.81-4.23c-1.09.66-1.85,1.14-2.63,1.6-2.4,1.4-4.76,2.87-7.21,4.14a14.23,14.23,0,0,1-3.92,1.3,2.08,2.08,0,0,1-2.38-2.58,16.51,16.51,0,0,1,1.27-3.46,38.51,38.51,0,0,1,6.38-9.6c.58-.61,1-1.34,1.9-2.45a58,58,0,0,0-8.28-.37c-2.56,0-5.16-.68-7.89.16,1.46,7.89.58,15.54-.55,23.17a34.92,34.92,0,0,1-1,4.5,5.9,5.9,0,0,1-1.17,2.44,7.58,7.58,0,0,1-2.36,1.09c.54,1.19,1,2.17,1.45,3.14.84,1.82,1.74,3.62,2.52,5.46a28.52,28.52,0,0,1,1.33,3.94,2.43,2.43,0,0,1-.82,2.9,2.7,2.7,0,0,1-3.05-.16q-1.77-1.09-3.48-2.28c-1.46-1-2.89-2.06-4.34-3.09a80.53,80.53,0,0,0,4.69,7.38,2.32,2.32,0,0,1,.2,2.07,2.22,2.22,0,0,1-1.89.9c-2.25-.45-4.45-1.15-6.66-1.77-.84-.23-1.68-.48-2.64-.76-.56,2-1,3.79.05,5.79,2.05.43,4.14.91,6.24,1.3a28.61,28.61,0,0,1,19.75,13.22,27.34,27.34,0,0,0,4.69,6.21h5.92c1.88-2.4,3.52-4.85,5.51-7S197.4,204.05,200.05,201.72Zm.41-33.72c.77,4.34,1.5,8.37,2.2,12.3,2.2.5,4.17.83,6.08,1.4a20.09,20.09,0,0,1,8.45,4.59,58,58,0,0,1,11.5,16.09c.67,1.35-.16,2.47-1.7,2.32-7.38-.76-14.11-3.1-19.82-8-.78-.67-1.63-1.27-2.58-2-.64,4.16-.61,4.49.53,8.09,7.24.5,11.84,5.79,17,10.11,1.93-.22,3.77-.35,5.58-.68s4-.43,5.55-1.7a43.8,43.8,0,0,0,.85-10.71c-.26-10.65-.48-21.29-.56-31.93,0-4.32.35-8.63.49-13,.18-5.24.34-10.48.44-15.72a13.08,13.08,0,0,0-.46-2.51,67.85,67.85,0,0,0-16,2.6,4.37,4.37,0,0,0,.47,1.24c2.78,3.51,3.37,7.89,4.74,11.95a2.74,2.74,0,0,1,.1.91,2,2,0,0,1-1.83,1.76,5.21,5.21,0,0,1-1.81-.23c-6.89-2.72-13.86-5.31-19.12-10.91a17.78,17.78,0,0,0-2.38-1.75,16.32,16.32,0,0,0-.46,5.84c.08,1.93-.37,4,.56,5.66,1.93,0,3.62-.07,5.31,0a17.69,17.69,0,0,1,4.56.55c7.5,2.48,13.37,6.91,16.53,14.41q3.15,7.45,6.26,14.91a11.28,11.28,0,0,1,.57,1.76,1.59,1.59,0,0,1-2.13,2,24,24,0,0,1-5-2.28c-3.14-1.95-6.2-4-9.22-6.17-4.53-3.19-9.19-6.23-13.21-10.1A9.83,9.83,0,0,0,200.46,168Zm63,88.53c2.15-2.77,4.27-5.57,6.47-8.31a40.66,40.66,0,0,0,8.68-21.47,14.84,14.84,0,0,0-.54-7.29c-4.05,3.35-6.6,7.67-9.08,12.07A45.2,45.2,0,0,0,263.46,256.53ZM85,123.29a33.3,33.3,0,0,0,3.67-.28c1.51-.31,3-.8,4.46-1.18a54.29,54.29,0,0,0,18.5-9.14,10.29,10.29,0,0,0,4.08-5.16,3.43,3.43,0,0,0-3.32-1.68c-5.06.09-9.83,1.3-13.78,4.51-4.17,3.4-8.07,7.13-12.06,10.75A14.23,14.23,0,0,0,85,123.29Zm199.24,90.2c-.94,2.36-.26,4.39.78,6.29a24.71,24.71,0,0,0,8.88,9.78c3,1.8,6.25,3.28,9.41,4.83.61.3,1.36.82,2.1,0-1.15-4.38-3.76-8-6.3-11.66C295.49,217.51,290.4,214.72,284.23,213.49ZM199.38,158a6,6,0,0,0,.18,1.37,11.93,11.93,0,0,0,1,1.54c3,4,7,6.83,11.13,9.55q5.56,3.68,11.19,7.28c.44.28.84,1,1.9.15-2.42-4.32-4.19-9.13-7.6-12.88C212.53,159.92,206.81,157,199.38,158Zm66.17,53.43a18.36,18.36,0,0,0,1.17-2.81c.85-3.58,1.46-7.22,2.4-10.78,2-7.49-.92-14.2-3.22-21a1.41,1.41,0,0,0-1.74-1.06C261.46,185.47,262.38,196,265.55,211.45Zm7-73.92a11.47,11.47,0,0,0-1.87-.87c-2.38-.58-4.78-1.07-7.17-1.63-6.14-1.45-11.59.54-15.82,5.85a5.49,5.49,0,0,0,2.35,3.68c5.22.45,10.15-.83,15-2.25A19.21,19.21,0,0,0,272.53,137.53Zm-59.15-14a12.84,12.84,0,0,0,8.31-3.69c2.23-2.13,4.58-4.12,6.78-6.28a30.24,30.24,0,0,0,6.17-8,3.89,3.89,0,0,0,.32-3.73,18.52,18.52,0,0,0-2.33,1.27c-5.19,3.87-10.31,7.83-15.53,11.65C214.18,116.88,213.37,119.77,213.38,123.56Zm-49.24,38.25a17.08,17.08,0,0,0,.71-2.86c.18-3.85.24-7.7.4-11.55.24-5.66-1.8-10.53-5.08-15-.44-.6-.93-1.26-2.11-.84a33.15,33.15,0,0,0,.41,15.27q1.42,4.88,3.05,9.68C162.11,158.23,162.5,160.07,164.14,161.81Zm31.13-63.28c.91,4.79,3.28,11.78,5.29,15.1A68.1,68.1,0,0,0,205.1,120c.62.79,1.48,1.64,2.78,1.16,1.83-2.85,1.65-5.82.51-8.83a29.17,29.17,0,0,0-8.22-11.6A8.06,8.06,0,0,0,195.27,98.53Zm19.24,263.73c-.2-3.58-3.31-12.77-6-17.93-2.24-4.3-6.18-9.73-8.22-11.37-.68,3.4-.8,4.55-.07,6.65,2.12,6.13,4.63,12.08,8.49,17.37A17.29,17.29,0,0,0,214.51,362.26Zm10.05-236.53a8.37,8.37,0,0,0,5.11.74c5.85-.41,11.51-1.9,17.19-3.23a8.55,8.55,0,0,0,5.46-4.68c.34-.63.91-1.3-.08-2.16a37.12,37.12,0,0,1-12.41,2.65c-3.66.29-7.28,1.09-10.92,1.67a6.59,6.59,0,0,0-4,2.86C224.48,124.07,224.65,125,224.56,125.73ZM272.7,272.34c-.2-.22-.27-.38-.37-.41a2.35,2.35,0,0,0-.9-.11,45.59,45.59,0,0,0-18.55,7.9,17.32,17.32,0,0,0-6,8C257,285,266.49,281.4,272.7,272.34ZM193.89,334c-1.12,2.06-1.95,3.34-2.54,4.71A39.25,39.25,0,0,0,188,351.06c-.36,4.21-.8,8.4-1,13C195.37,354.55,197.42,343.8,193.89,334ZM302.43,280.8a8.73,8.73,0,0,0-.92-1.55c-4.47-4.24-10-6.44-15.75-8.27a37.18,37.18,0,0,0-5.83-1.28,8.69,8.69,0,0,0-2.69.54c1.07,4,3,6.81,6.78,7.72,3.56.87,7.22,1.34,10.85,1.91C297.24,280.24,299.63,280.46,302.43,280.8ZM168.34,228.64c-.85-1.27-1.32-2-1.86-2.76-4-5.35-9.54-8.12-16-9.32a2.37,2.37,0,0,0-2.74,1.2c-.38.65-.66,1.36-.93,1.94C150.74,225.56,158.07,228.66,168.34,228.64Zm-26.9-92.9c-2.87-1.05-5.39-2.14-8.4-2-.48,6.67-1.07,13.22-.92,19.81,0,.37.43.72.74,1.21l5.66-1.92C137.18,149.34,137.77,145.92,141.44,135.74Zm77.17,14.88c-.52-6.07-4.19-9.43-8.06-12.38-3-2.27-6.35-4.33-10.8-3.36.1,1-.08,2.05.33,2.7a24.73,24.73,0,0,0,3.41,4.29C207.61,145.93,212.74,148.3,218.61,150.62Zm57.89-18.69c-3.67-2.54-6.48-4.57-9.41-6.44a4.58,4.58,0,0,0-2.63-.49,23.45,23.45,0,0,0-8.09,1.56A56,56,0,0,1,244,130.1c-.25.05-.45.38-.88.75.19,1.37.32,2.89.62,4.38a9.09,9.09,0,0,0,1.09,2c1-1,1.85-1.69,2.58-2.46,4.54-4.75,10.07-6.17,16.4-4.88.9.18,1.77.54,2.67.69C269.49,131.07,272.41,132.13,276.5,131.93ZM169.38,325.35c.51.31.77.61,1,.58a39.75,39.75,0,0,0,20-8.62c2-1.68,2.06-2.12.64-5.08a17.89,17.89,0,0,0-10.75,3.45c-3.21,2.35-6.2,5-9.24,7.59A13.8,13.8,0,0,0,169.38,325.35Zm4.28-46.55a53.26,53.26,0,0,0,7-.05c3.82-.57,7.58-1.58,10.54-4.28a7.08,7.08,0,0,0,2.26-3.33,9.7,9.7,0,0,0-.21-5.33C186.29,267.84,178.1,273.2,173.66,278.8Zm-16-182.47a32.85,32.85,0,0,0,3.48,9.84c2.75,5.46,7.14,9.61,11.23,14,.51.55,1.21,1.47,2.48.91-.35-1-.66-2-1.07-2.91-1.33-3.11-2.69-6.21-4-9.31-.43-1-.82-2-1.34-2.93A21.62,21.62,0,0,0,157.66,96.33Zm60.6,229.46c-4.4-5.54-14-8.8-20.8-7.2-.46,3.25,1,5.28,4,6.41.86.32,1.62.91,2.49,1.22A19.17,19.17,0,0,0,218.26,325.79ZM123.7,192.92a13.13,13.13,0,0,0,1.62-.73,67.9,67.9,0,0,0,16.46-14.75,21.65,21.65,0,0,0,4.66-10.08C136.58,174.42,130.26,183.72,123.7,192.92ZM146.81,92.48c-.09.36-.21.57-.15.65,1.11,1.64,2.14,3.35,3.39,4.87a21.61,21.61,0,0,1,5,14.48c0,1.34.15,2.69.23,4a13.74,13.74,0,0,0,8.1-.43c-2.09-3.51-4.49-6.89-6.18-10.6-1.76-3.87-2.85-8-4.28-12.24A25.23,25.23,0,0,0,146.81,92.48ZM219,264a79.66,79.66,0,0,0-11-20.53,17.88,17.88,0,0,0-3-2.8c-.29-.23-.84-.15-1.54-.24-.32,2.56,1.09,4.5,1.94,6.54A37.77,37.77,0,0,0,219,264Zm65.33-105.48.41-.71a7.78,7.78,0,0,0-1.61-1.44c-7.57-3.77-16.78-4.57-24.58,2.17a1.89,1.89,0,0,0-.61,1.54c.2.87,1.08,1,1.87.86,1.64-.4,3.26-.88,4.89-1.33a42.11,42.11,0,0,1,16.45-1.39C282.16,158.31,283.23,158.38,284.29,158.48Zm13.16,26.12a17,17,0,0,0-2.58-1.75c-2.88-1.06-5.76-2.13-8.69-3a23.67,23.67,0,0,0-9.15-.45c-.4,0-1.06.36-1.1.63a2.38,2.38,0,0,0,.34,1.63,4.89,4.89,0,0,0,1.66,1.54A22.92,22.92,0,0,0,297.45,184.6Zm-4.79-54.94a16.36,16.36,0,0,0-10.16-7.84c-3.88-1.1-7.78-1.18-11.73,1.16,2.15,2,4.63,2.8,7,3.74A46.11,46.11,0,0,0,292.66,129.66Zm-51-57.58c-5.47,3-14.22,10.74-18.89,16.69-.61.78-1.5,1.5-1.19,2.77C231.82,87.53,239.58,80.13,241.65,72.08ZM202.9,184.44c1.3,4.63,4.38,6.94,7.39,9.26,4.61,3.55,8,5,11.07,4.93-2.19-4.71-5.9-7.88-9.9-10.76C209.11,186.19,206.68,184.6,202.9,184.44Zm-56.77-5.23c-4.63,4.6-8.55,8.46-12.4,12.37-.56.57-.56,1.4.55,2.15,3.45-1.59,7.69-.25,11.48-2.27C146.5,187.68,146.36,183.92,146.13,179.21Zm-25.19,51.63c5-1.27,9.36-2.26,13.28-4.39a32.42,32.42,0,0,0,4.6-3,10.36,10.36,0,0,0,3.72-5.84,51.75,51.75,0,0,0-18,8.75A10.33,10.33,0,0,0,120.94,230.84ZM132.27,92.63c1.65,2.16,3,4,4.39,5.75s2.15,4.13,4.21,6.38a29.6,29.6,0,0,1,.26-13.58l3-.46c2-3.88,5.93-5.43,9.12-8.15l-2.31-2.2C145.8,86.21,140.28,91,132.27,92.63ZM248,182.31c1-2.07,1.68-3.41,2.3-4.79,1.69-3.74,1.76-7.75,2.05-11.75a10.51,10.51,0,0,0-2.62-7.52C246.65,164.61,245.7,175.91,248,182.31ZM132,173c.54-.12,1.06-.07,1.33-.3q6.82-5.88,13.59-11.84c.45-.39.52-1.1-.35-1.53a24.14,24.14,0,0,1-14.49,2.7C131.9,165.77,132,169.28,132,173Zm35.38,41.63c-1.43-.82-2.9-1.59-4.28-2.49a55,55,0,0,1-4.51-3.21c-1.33-1.06-2.52-2.27-3.79-3.39s-2.23-2.85-4.31-3.66c-.33,3.52-1.08,6.64-.88,10.13,1.32.1,2.52.12,3.71.29a14.85,14.85,0,0,1,4.47.88C160.85,214.64,164.08,214.47,167.41,214.61Zm10.28,41.85c6.06,0,17.41-8.65,18.62-14.79-3.6.89-5.27,1.79-9.51,5.12C183.32,249.53,179.93,252.34,177.69,256.46Zm92.72,34.07c-6.68.22-11.48,3.34-16.42,6-1.94,1-4,2.1-5.17,4.61A19.13,19.13,0,0,0,259.29,299C263.19,297,267.35,295.23,270.41,290.53ZM193.47,164a13.11,13.11,0,0,0-7.29,5.09c-3.25,4-6.45,8-7.59,13.56C184.63,179.4,192.07,170.13,193.47,164Zm-31.82,2.67c-2.8-7-4.91-14.23-7.09-21.43a.52.52,0,0,0-.3-.3,2.44,2.44,0,0,0-.66.12,46.13,46.13,0,0,0-2.06,12.66A39.9,39.9,0,0,1,161.65,166.71Zm52.28,69.54c-.24-6.3-4.56-16.15-8.07-19.24-.19.21-.53.42-.54.65a47.93,47.93,0,0,0-.25,6,10.11,10.11,0,0,0,1,3.93C207.83,230.88,210.48,233.4,213.93,236.25ZM180,125.72c6.35-2.72,8.54-19.21,4.21-22.86C182.71,107.47,180,122,180,125.72ZM198.48,370c-5.24,1.95-8.64,5.88-12.15,9.63-3,3.19-2.94,3.24-3.34,5.46,5.25-1.64,8-3.41,11.78-7.63A13.63,13.63,0,0,0,198.48,370Zm-53.2-172.57c-6.38-1.89-15.17.82-19.83,6a4.53,4.53,0,0,0,1.32.26c3-.37,6.11-.7,9.14-1.22s5.78-1.13,8-3.23A13.37,13.37,0,0,0,145.28,197.44Zm49.31-63.09c-5.91,5-10.35,10.12-13.44,16.37-.15.29.16.8.3,1.4C189.12,148.94,193.49,143.45,194.59,134.35Zm-52.84,13.18a11,11,0,0,0,4.64-3.69c2.85-3.52,4.4-7.69,5.83-11.9a6.39,6.39,0,0,0,0-1.82C145.86,133.49,142.11,139.75,141.75,147.53Zm90-92.74c3.18-1.63,4.66-4.47,6.13-7.27a27.08,27.08,0,0,0,2.91-13C236.21,39.24,232.31,48.06,231.75,54.79ZM290.94,295.6c-.07-.27,0-.63-.21-.8-3.77-3.94-8.66-5.73-13.76-7.07a1.38,1.38,0,0,0-1.2.44,1.47,1.47,0,0,0-.19,1.28,7.42,7.42,0,0,0,1.54,2.26,16.37,16.37,0,0,0,13.13,4.43C290.49,296.11,290.71,295.79,290.94,295.6ZM206.66,207c-.21.32-.54.58-.51.79a10,10,0,0,0,3.74,6.61,25.11,25.11,0,0,0,9.23,4.91,10.79,10.79,0,0,0,2.33,0c-2.46-4.42-6.47-6.6-9.75-9.5C210.26,208.59,208.8,207.09,206.66,207Zm57-86.86c2.6-.68,2.81-.66,4.07-2.47,2.64-3.81,5.61-7.5,6.48-12.52-4.43,1.79-9.38,6.79-10.54,10.53A6.63,6.63,0,0,0,263.71,120.15ZM150,115.83c1.72-5.92-1.21-14.52-6-17.26-.51,5.57,1,10.64,3.13,15.55A2.45,2.45,0,0,0,150,115.83Zm-26.48,16.73a62.85,62.85,0,0,0,11-11c.8-1,2.2-1.76,2-3.39-3.43-1.52-3.69-1.54-5.6.6A28.78,28.78,0,0,0,123.48,132.56ZM275.9,306c-.06,3.77,1.33,6.65,2.88,9.41,1.39,2.47,2.8,5,5.59,6.63C284.55,314,281.2,307.59,275.9,306ZM176.18,95.89a21.59,21.59,0,0,0-.29-4.17c-1.19-4.1-2.51-8.16-3.84-12.21a10.1,10.1,0,0,0-1.21-2A15.14,15.14,0,0,0,176.18,95.89ZM141.21,244c6.59,6.6,9.2,8.54,13.5,10.07-1.53-6.12-6.86-11.45-12.56-12.35Zm3.93-39.17c-3.46.9-6.7,1.73-9.93,2.59a1.75,1.75,0,0,0-1.42,2,1.65,1.65,0,0,0,1.4,1.59c1.66.28,3.37.3,5,.67,4.42,1,5.22.52,5.21-4.62C145.39,206.33,145.23,205.61,145.14,204.79ZM113.54,81.91a19.63,19.63,0,0,0,.39,6.92c.75,3.61,1.36,7.25,2,10.87a4.31,4.31,0,0,0,2.2,3.3C119.7,96.35,117.7,87.18,113.54,81.91Zm15,13.42c-.08.29-.28.62-.21.87a51.41,51.41,0,0,0,7.86,16.08c.24.34,1,.31,1.61.48C137.62,106.32,133.59,98.86,128.52,95.33ZM262.85,320.59c5.61-2.13,8.45-6.62,9.09-14.4C267.41,308.66,263.33,315.11,262.85,320.59Zm-90.32-111c-3.29-5-8.23-7.39-13.29-9.53-1.78-.75-1.81-.68-3.61-.13A30.94,30.94,0,0,0,172.53,209.62Zm-21.15-46.83c-1.32,1.9-.4,3.3.33,4.54a53.62,53.62,0,0,0,8.65,11.24,8.27,8.27,0,0,0,1.58.91C160.81,173.78,156.46,166.89,151.38,162.79Zm38.21,61c3.39-2,9.39-8.51,10.66-11.58a3.64,3.64,0,0,0-.31-3.83c-2.89,1.63-3,1.73-5.43,5.39C190.62,219.62,190,221,189.59,223.83Zm98.89,24.52c1.46-5.86,0-11.37-1.68-16.81-.23-.7-.71-1.81-2.13-1.17A32.31,32.31,0,0,0,288.48,248.35ZM186,68.09c-1.38,3.25-4.65,16-4.76,18.48C187.17,81.6,188.85,75.09,186,68.09Zm58.18,77.09c-1.21,7.55-1.44,15.67-.7,19.46a82.09,82.09,0,0,1,3.1-9,6.89,6.89,0,0,0-.32-7ZM199,264.57c-.89,2.17-.55,3.57.55,4.86a41.08,41.08,0,0,0,9.3,8.25c.19.12.55,0,1.17-.07A32.88,32.88,0,0,0,199,264.57Zm-76.94-3.66c5.08-3.49,9.85-9.76,11.3-14.61,0-.09-.38-.32-.58-.48A27.14,27.14,0,0,0,122.07,260.91ZM137.34,86.64a23.14,23.14,0,0,0,11.07-9.88l-1.93-2.23C142.19,77.57,139.64,81.53,137.34,86.64ZM146,47c-2.08,5.45-2.11,10.09-.17,14.41,1.4-.45,1.64-1.79,1.91-2.88a11.37,11.37,0,0,0,.39-4.51C147.78,51.7,147.56,49.23,146,47Zm113.79,63.49c1.85-1.26,1.77-3.08,2.05-4.62.71-3.87.17-8.4-1.19-11.05C258.14,99.94,258.8,105.05,259.81,110.52Zm-53.62-33c.37,6.34,3.66,12.35,7.84,14.41a13.45,13.45,0,0,0-2.29-6.44C210.17,82.76,208.77,79.89,206.19,77.47Zm2.86,229.16a9.54,9.54,0,0,0-5.69-5.61c-1.68-.72-3.46-1.6-5.54-1a7.13,7.13,0,0,0,4,4.53C203.89,305.64,206,307,209.05,306.63ZM243.38,57.05c-5.65,1.77-12.31,5.93-14.88,9.1C234.85,64.89,240.09,61.8,243.38,57.05ZM96.6,85.87l-.7.64a37.76,37.76,0,0,0,3.53,4.66c2.41,2.34,5,4.43,7.62,6.6.13.11.51-.08,1.12-.2C104.36,93.44,101.19,89,96.6,85.87Zm83.62,215.05a15.15,15.15,0,0,0,11.93-6.78c-3.2.12-5.63,1.64-8,3.18C182.66,298.25,180.88,298.93,180.22,300.92Zm22.94,68.49c.62,5.39,3.37,8.64,6.94,11.77A14.33,14.33,0,0,0,203.16,369.41Zm16.45-321.6c1.08,4.26,2.15,8.52,3.24,12.78a.59.59,0,0,0,.27.35c.12.05.29,0,.65-.07a6,6,0,0,0,.38-4.29C223.4,53.31,222.25,50.19,219.61,47.81ZM190.1,191.07c4.23-1.9,6.08-4.68,7.76-7.6a1.27,1.27,0,0,0-.24-1.19,1.24,1.24,0,0,0-1.18-.08C193.7,184.26,191.91,187,190.1,191.07ZM157.34,65.45c-.85,6.23-.74,8.82.44,11.91,1.25-1,1.38-2.3,1.53-3.59A14,14,0,0,0,157.34,65.45Zm-15.5-.2c-2.56-4.81-5.06-6.45-8.88-6C135.28,62,137.35,64.8,141.84,65.25Zm14.59,20c-1.46.66-2.58,1.1-3.61,1.68-.58.32-1.45.65-.86,1.81,1.73.13,3.54.47,5.31-.24.34-.14.56-.58,1.23-1.33Zm-7.21,61.82c-4.21,2.57-4.57,2.87-5.74,5l4.63-.3ZM144.49,156c-5.83.26-7.48.78-9.14,2.67A14.78,14.78,0,0,0,144.49,156Zm60,134.67c-2.16-3.93-3-4.69-6-5.31C199.78,288.12,202.05,289.46,204.53,290.62ZM155.38,186.18c-.59-2.61-.59-2.61-4.17-4.46a1.34,1.34,0,0,0,.13,2.27A37.31,37.31,0,0,0,155.38,186.18Zm-1.13-8.06c-1.39-2.13-2.05-3.69-3.8-4.66C150.41,176.57,150.41,176.57,154.25,178.12Zm5.45-85.9c.57.17,1.08.35,1.61.46.05,0,.33-.5.26-.68-.22-.57-.56-1.14-1.32-.79C160.05,91.31,160,91.68,159.7,92.22Zm-17.28,20.17c-.09.11-.26.22-.25.32a4.68,4.68,0,0,0,.2.8c.09-.11.27-.22.26-.31A4.59,4.59,0,0,0,142.42,112.39Z"/></svg>