<svg xmlns="http://www.w3.org/2000/svg" xmlns:xlink="http://www.w3.org/1999/xlink" width="632" height="632.196" viewBox="0 0 632 632.196">
  <defs>
    <clipPath id="clip-path">
      <rect id="Rectangle_284" data-name="Rectangle 284" width="598.704" height="606.846" fill="#273232"/>
    </clipPath>
    <clipPath id="clip-path-2">
      <rect id="Rectangle_283" data-name="Rectangle 283" width="598.4" height="606.55" fill="#273232"/>
    </clipPath>
  </defs>
  <g id="Group_847" data-name="Group 847" transform="translate(-248 -338)">
    <circle id="Ellipse_41" data-name="Ellipse 41" cx="316" cy="316" r="316" transform="translate(248 338)" fill="#e4e8df"/>
    <g id="Group_825" data-name="Group 825" transform="translate(264.116 363.35)" clip-path="url(#clip-path)">
      <g id="Group_824" data-name="Group 824" transform="translate(0.152 0.148)">
        <g id="Group_823" data-name="Group 823" clip-path="url(#clip-path-2)">
          <g id="Group_822" data-name="Group 822">
            <g id="Group_821" data-name="Group 821" clip-path="url(#clip-path-2)">
              <path id="Path_1920" data-name="Path 1920" d="M598.03,462.986c.306,6.471.636,12.949.624,19.428-.006,2.431-1.8,4.143-4.269,4.648a31.7,31.7,0,0,1-6.274.786c-13.713.037-27.425.109-41.132-.119-5.349-.09-10.687-1-16.036-1.381-2.648-.186-5.313-.03-8.573-.03.588,1.724.961,3.032,1.477,4.287,4.953,12.008,9.96,24,14.9,36.016,1.177,2.864,2.125,5.824,3.212,8.729,2.017,5.4,4.071,10.8,6.094,16.2a3.232,3.232,0,0,0,2.846,2.1c4.5.87,6.322,4.527,4.023,8.441a5.141,5.141,0,0,0-.474,5.115q4.458,10.681,8.79,21.409c1.369,3.387,2.84,6.754,3.9,10.237,1.267,4.191.12,5.74-4.275,6.2-6.316.66-12.632,1.483-18.966,1.722-6.8.252-7.841-.918-10.122-7.192-2.3-6.352-4.911-12.59-7.451-18.852-.925-2.269-2.191-3.974-5.007-4.527a3.822,3.822,0,0,1-2.383-6.045c1.843-2.606,1.1-4.749.174-7.091-2.143-5.355-4.407-10.657-6.55-16.012-3.98-9.936-7.877-19.909-11.869-29.845s-8.063-19.836-12.218-30.049c-3.608-.252-7.1-.7-10.6-.715-35.05-.107-70.106-.035-105.156-.234-56.964-.313-113.927-.823-170.891-1.2q-44.731-.3-89.468-.432c-4.917-.018-4.953-.012-6.778,4.551C99.8,503.535,94.1,517.974,88.287,532.371,84.565,541.6,77.468,556.693,73.71,565.92c-2.492,6.124-4.821,14.115-7.289,20.251q-3.386,8.411-6.9,16.768a5.813,5.813,0,0,1-5.632,3.771c-7.913.174-15.826.252-23.625-1.435-3.944-.859-4.551-2.012-3.038-5.866,4.2-10.723,8.375-23.259,12.656-33.945,4.653-11.617,12.542-29.148,17.333-40.711,3.242-7.818,6.748-15.526,9.972-23.349,2.281-5.553,4.287-11.226,6.58-17.272-6.034-.768-11.629-.348-17.225-.108-1.687.065-3.374.312-5.061.3q-19.29-.127-38.586-.348a34.728,34.728,0,0,1-6.328-.487c-2.828-.564-5.049-2.239-5.361-5.265C.686,473.18.266,468.107.254,463.04c-.012-3.83,1.2-5.031,5.061-5.457A119.023,119.023,0,0,1,18,456.9c18.377-.1,36.749-.09,55.126-.12H84.883C95.251,431.22,105.6,405.7,115.61,381.011c-1.153-2.834-2.426-4.786-2.708-6.874-.486-3.591.5-5.133,4.035-5.752,3.6-.636,5.085-2.624,6.316-5.818,5.4-14.03,10.993-27.989,16.636-41.93,5.445-13.43,11.047-26.794,16.552-40.2q2.873-7.016,5.584-14.109a42.965,42.965,0,0,0,1.177-4.737c-1.633-.187-2.846-.426-4.065-.439-11.875-.119-23.745-.167-35.62-.336-2.4-.03-4.161.414-5.83,2.48-2.636,3.242-5.656,2.99-7.877-.595-1.267-2.053-2.87-1.939-4.683-1.951q-16.534-.062-33.075-.113c-.708,0-1.411,0-2.119-.007-9.012-.03-10.783-1.686-11.275-10.837-.18-3.38-.276-6.784-.15-10.164.168-4.317,1.351-5.553,5.626-5.788q8.672-.486,17.369-.57c7.919-.09,15.838-.1,23.751.065,2.636.055,4.719-.384,6.01-2.863a6.474,6.474,0,0,1,.762-1.015c2.432-2.857,4.5-2.869,6.91.091a31.074,31.074,0,0,1,2.179,3.626c1.243.072,2.762.228,4.275.24q22.9.126,45.8.2c4.269.017,4.185-.042,5.746-3.968q5.07-12.744,10.284-25.426c4.257-10.417,8.585-20.809,12.842-31.232,1.813-4.425,3.542-8.88,5.289-13.329,4.149-10.585,8.213-21.2,12.452-31.753s8.7-21.025,13.016-31.55q9.528-23.235,19-46.494c3.98-9.762,7.853-19.572,11.917-29.3,2.107-5.038,4.581-9.919,6.778-14.913,1.147-2.612,3.11-3.524,5.764-3.285a11.915,11.915,0,0,1,3.728.619c4.737,2.143,9.438,4.377,14.067,6.736a53.429,53.429,0,0,1,5.235,3.363c4.2-7.709,12.674-11.029,22.094-12.7,2.714-.48,4.905.384,6.124,3.278,3.152,7.492,6.562,14.883,9.708,22.382q8.4,20.038,16.612,40.165c2.882,7.03,5.662,14.1,8.489,21.158,3.086,7.7,6.154,15.4,9.276,23.084,4.077,10.008,8.237,19.98,12.284,30q8.285,20.515,16.45,41.078a5.213,5.213,0,0,0,3.08,3.188c4.173,1.729,5.121,4.083,3.23,7.979a4.645,4.645,0,0,0,.012,4.341c2.63,6.214,5.019,12.53,7.643,18.743,2.666,6.323,5.5,12.572,8.351,19.044,1.747,0,3.14-.007,4.533,0q47.7.342,95.412.69a18.66,18.66,0,0,1,3.374.223c1.951.4,3.518,1.477,3.6,3.608.246,6.628.552,13.263.4,19.879-.072,3.02-1.9,4.407-5,4.838a34.851,34.851,0,0,1-5.073.211q-39.436-.252-78.877-.534c-2.1-.012-4.2,0-6.046,0-.318.462-.408.576-.468.7a.843.843,0,0,0-.114.391,4.376,4.376,0,0,0,.066.841,6.6,6.6,0,0,0,.306,1.231c25.96,63.807,51.926,127.61,78.1,191.916,2.167,0,4.527.036,6.886-.007,5.65-.083,11.3-.312,16.949-.294q27.963.09,55.931.336a19.165,19.165,0,0,1,4.167.684,3.717,3.717,0,0,1,3.23,3.459m-6.208,18.851V464.6c-26.4-.1-52.155-.271-78.415-.336.51,1.747.726,2.834,1.141,3.836,1.411,3.379,3.02,6.688,4.3,10.11a3.787,3.787,0,0,0,4.076,2.84c5.9-.024,11.809.072,17.717.174,15.682.282,31.358.606,47.039.883,1.345.024,2.69-.174,4.137-.271M554.448,598.179c3.1-.606,3.932-2.84,2.732-5.818q-4.512-11.175-9.078-22.327c-.312-.763-.774-1.459-1.333-2.5l-14.943,7.108a6.455,6.455,0,0,0,.006,1.152c2.81,7.054,5.541,14.146,8.525,21.122a4.33,4.33,0,0,0,3.182,2.2,57.653,57.653,0,0,0,10.909-.936m-3.974-37.409c-.852-2.023-2.245-2.684-4.311-1.675-6.67,3.266-13.358,6.5-19.98,9.852-.823.415-1.291,1.532-1.927,2.318.168.318.33.636.5.955a21.237,21.237,0,0,0,3.782-.486c7.925-2.48,20.155-8.616,21.938-10.963m-8.159-4.557c-3.242-8.165-6.46-16.113-9.54-24.11-1.663-4.329-2.894-8.832-4.659-13.118-4.3-10.423-8.874-20.732-13.19-31.147-2.378-5.728-4.317-11.641-6.706-17.363-5.043-12.1-10.38-24.082-15.358-36.2-5.944-14.47-11.635-29.046-17.447-43.575q-2.747-6.862-5.559-13.7c-3.968-9.641-8.015-19.253-11.935-28.907-4.137-10.189-8.165-20.419-12.248-30.625-1.669-4.185-3.254-8.417-5.073-12.542-3.308-7.475-6.928-14.811-10.11-22.335-4.119-9.749-8.021-19.6-11.863-29.46-6.712-17.213-13.31-34.474-19.981-51.71a23.513,23.513,0,0,0-1.555-2.768c-5.277,2.756-10.35,5.4-15.61,8.147,3.626,8.97,7.126,17.7,10.693,26.41,6.844,16.7,13.749,33.375,20.593,50.078,3.152,7.691,6.2,15.424,9.336,23.12,6.586,16.186,13.226,32.349,19.794,48.541,4.233,10.453,8.381,20.941,12.566,31.412,1.723,4.317,3.4,8.651,5.187,12.944,5.5,13.268,11.089,26.5,16.546,39.786,3.908,9.523,7.643,19.11,11.479,28.657,3.044,7.588,6.22,15.124,9.168,22.748,2.69,6.958,4.917,14.1,7.775,20.989,3.56,8.586,7.655,16.943,11.329,25.487,2.45,5.7,4.5,11.563,6.85,17.3,1.273,3.11,2.792,6.112,4.3,9.39,5.079-2.486,9.966-4.881,15.214-7.451M522.49,258.246c.762-6.052.5-13.863-.5-16.684-6.334-.973-95.46-1.069-98.768.012l5.409,15.64c31.562.348,62.589.69,93.857,1.033M485.369,479.875c-2.125-5.193-4.239-10.35-6.412-15.652-1.849,0-3.392.005-4.935,0-17.195-.03-34.4-.024-51.6-.1q-51.882-.234-103.757-.534-63.4-.261-126.8-.433c-4.779-.017-9.564-.18-14.343-.155-7.769.029-15.538.27-23.307.228-11.713-.059-23.427-.276-35.134-.462-1.705-.03-3.02.3-3.692,2.089-1.627,4.317-3.32,8.609-5.115,13.238,8.423,1.351,370.834,3.1,375.09,1.784m-9.24-22.928c-11.7-28.867-23.379-57.7-35.158-86.778a9.3,9.3,0,0,0-1.741,1.206c-6.16,7.553-14.607,10.663-23.787,12.639-7.7,1.657-15.736,1.9-23.066,5.181-3.212,1.435-6.49,2.75-9.594,4.389a37.18,37.18,0,0,0-5.1,3.722c-1.483,1.147-2.45,2.894-1.333,4.377.7.931,2.78,1.4,4.095,1.182,3.746-.618,7.391-1.879,11.131-2.533a64.877,64.877,0,0,1,10-.913,3.858,3.858,0,0,1,3.668,2.834c-12.548,2.167-24.928,4.311-37.253,6.441-1.873-3.668-4.029-15.945-3.356-20.118,9.372-3.308,18.96-7.078,28.782-10.062,12.818-3.9,25.822-7.156,38.736-10.711,2.149-.594,4.269-1.279,6.364-1.91-.756-3.62-.943-3.848-3.632-3.2-4.119.985-8.183,2.192-12.3,3.183-17.717,4.281-35.176,9.33-51.908,16.684a80.892,80.892,0,0,1-7.787,2.5c-.937-13.016-4.683-25.018-5.638-37.541,1.957-.474,3.446-.889,4.959-1.189,12.854-2.564,24.273-9.108,36.563-13.25,6.664-2.245,13.214-4.821,19.83-7.217a5.456,5.456,0,0,1,1.669.114c0,4.029-1.069,7.469-4.281,10.014a41.1,41.1,0,0,1-15.478,7.511,103.272,103.272,0,0,0-18.251,6.664c-4.161,1.963-7.7,4.677-9.876,8.892-1.333,2.594-2.432,5.361-.75,8.014,1.6,2.54,4.515,2.9,7.223,2.438a41.994,41.994,0,0,0,8.537-2.359c7.949-3.188,15.418-7.583,23.907-9.4a9.873,9.873,0,0,0,1.963-.78,26.883,26.883,0,0,1,11.875-2.6c3.014.041,6.028.006,9.5.006-3.836-9.216-7.655-18.252-11.353-27.336q-1.567-3.863-3.128-7.732-4.89-12.14-9.7-24.315c-1.339-3.375-1.729-3.59-5.343-2.8-6.46,1.4-12.932,2.726-19.392,4.125q-9.276,2.017-18.54,4.119c-4.089.918-8.171,1.885-12.44,2.869a16.833,16.833,0,0,1-.474-2.377c-.552-15.837,1.537-31.279,7.367-46.079a93.121,93.121,0,0,0,5.98-21.979c.072-.535.594-1.015,1.063-1.765.949,1.351,1.651,2.359,2.51,3.584,2.329,0,4.719.031,7.114-.005,2.3-.043,4.6-.15,7.457-.247-2.948-7.636-5.614-14.571-8.3-21.493-.456-1.177-1.039-2.3-1.531-3.38-6.8-.853-9.5-5.175-4.791-11.876-3.806-9.215-7.709-18.558-11.521-27.929-3.662-9.006-7.2-18.072-10.861-27.078-5.89-14.48-11.881-28.925-17.747-43.419-4.281-10.585-8.4-21.235-12.656-31.833-2.365-5.883-4.935-11.683-7.247-17.585-.81-2.053-2.005-2.713-4.149-2.7-4.947.042-9.894-.192-14.835-.277-2.365-.041-4.725-.006-7.156-.006-5.217,12.783-10.368,25.282-15.424,37.824-3.74,9.27-7.343,18.606-11.053,27.888-1.879,4.707-3.872,9.365-5.812,14.049-3.926,9.516-7.883,19.014-11.755,28.548-2.492,6.136-4.809,12.343-7.289,18.486q-5.764,14.274-11.653,28.5c-2.948,7.15-6.1,14.216-8.868,21.433-1.219,3.17-3.08,6.243-3.032,9.84,6.472.877,39.042.637,42.284-.378-.306-3.849-.738-7.769-.907-11.7-.5-11.719-.913-23.444-1.321-35.163a39.809,39.809,0,0,1,.132-5.079,9.132,9.132,0,0,1,6.622-8.393c1.177-.4,2.3-.949,3.566-1.471,0-2.545.09-4.929-.018-7.307-.474-10.188-.27-20.328,2.071-30.313.39-1.657.078-3.842,2.564-4.466,1.843,1.021,2.071,2.828,2.275,4.671,1.219,10.933,2.474,21.866,3.662,32.8.372,3.392,1.117,3.836,4.821,2.377-.444-8.531-1-17.111-1.3-25.7-.324-9.311-.588-18.629-.51-27.941A77.634,77.634,0,0,1,275.6,103.2c.126-.75,1.261-1.951,1.765-1.874a5.867,5.867,0,0,1,2.5,1.724c.252.234.228.793.294,1.213,1.291,8.351,2.66,16.7,3.854,25.059,1.693,11.876,3.254,23.775,4.9,35.657.21,1.549-.318,3.938,2.347,3.566,2.522-.354,1.561-2.545,1.507-4.13-.378-11.713-.919-23.427-1.1-35.147a100.947,100.947,0,0,1,1.117-13.07c.132-1.093.9-2.107,1.825-4.155a30.222,30.222,0,0,1,2.179,4.029,27.231,27.231,0,0,1,.636,3.746c1.615,9.589,3.362,19.153,4.8,28.764.8,5.307,1.075,10.687,1.585,16.031.342,3.566.474,3.65,4.287,2.629,0-1.08.078-2.209-.018-3.319-.486-5.626-1.255-11.24-1.495-16.871-.528-12.554-1.063-25.114-1.1-37.674-.018-7.607.877-15.22,1.381-22.82.114-1.693.15-3.476,2.774-4.215,2.1,1.832,2.125,4.3,2.425,6.628,1.147,8.82,2.366,17.639,3.326,26.477,1.783,16.282,3.428,32.576,5.061,48.87.4,4,.4,4.155,4.335,4.87,6.148,1.129,8.471,3.614,9.114,9.84.1.979.1,1.975.114,2.966q.5,25.216,1.015,50.426a7.211,7.211,0,0,0,.42,1.6,10.057,10.057,0,0,0,1.765.348c6.22.089,12.446.276,18.654.119a8.438,8.438,0,0,0,4.425-1.963c1.495-1.147,2.816-2.3,5.055-1.825a10.589,10.589,0,0,1-.036,2.9c-2.155,7.144-4.161,14.349-6.676,21.373-3.632,10.123-7,20.275-7.841,31.088-.174,2.221-.474,4.431-.708,6.556l-40.753-2.077a14.981,14.981,0,0,1,11.575-7.409c3.5-.439,7.048-.5,10.543-.943a12.508,12.508,0,0,0,5.2-1.458c6.34-4.137,7.673-10.627,8.153-18.126-49.249-.42-98.071-.834-146.852-1.255-1.069,2.8-1.867,5.055-2.78,7.259-3.968,9.613-7.991,19.207-11.965,28.818-3.11,7.517-6.232,15.022-9.252,22.575-3.92,9.786-7.721,19.62-11.623,29.418-3.488,8.765-6.994,17.531-10.609,26.248a4.73,4.73,0,0,0,.33,5.031c2.612,4.154.636,8.7-4.155,9.768a4.535,4.535,0,0,0-3.722,3.446c-.949,2.8-2.071,5.536-3.194,8.274-3.992,9.737-8.039,19.464-12.032,29.2q-4.08,9.933-8.057,19.9c-.654,1.639-1.075,3.368-1.579,5,.684.318.931.534,1.183.54,9.738.217,19.476.5,29.214.571,6.772.048,13.55-.2,20.329-.349,1.051-.024,2.1-.2,3.806-.372-3.95-4.1-3.134-8.411-2.107-12.727q2.954-12.347,5.956-24.681c5.872-24.328,13.749-48.054,22.13-71.589,4.929-13.839,6.676-27.942,6.592-42.435a4.285,4.285,0,0,0-1.027-2.954,5.5,5.5,0,0,1-1.393-6.965c1.963-3.3,1.069-6.3.462-9.384-1.387-6.964.69-7.432,6.346-7.8,9.864-.648,19.74-1.1,29.616-1.621a11.52,11.52,0,0,1,2.528.127c2.089.36,3.32,1.494,3.092,3.77-.2,1.97-.372,3.939-.63,5.9-.294,2.281-.2,4.221,1.453,6.274,2.576,3.188,2.077,6.61-1.129,9.293-1.543,1.291-1.363,2.642-1.279,4.143.222,3.8.42,7.613.8,11.4.462,4.622.528,9.4,1.789,13.809,3.206,11.239,7.036,22.3,10.519,33.459q10.51,33.7,20.881,67.44c1.237,4.034,2.1,8.2,2.978,12.326.949,4.442-.108,8.6-2.972,13.082,15.322.054,29.893.282,44.668.024-.336-6.13-.642-11.707-.967-17.657,28.98.414,57.588.829,86.64,1.243-.324,5.511-.636,10.776-.943,15.952,4.815,1.009,64.937.882,68.269-.15M398.651,285.2c2.762.955,5.493,2.011,9.372,3.434-3.674-8.946-7.006-17.057-10.429-25.4-8.669.071-17.057-.42-24.633.036-2.648,5.668-4.983,10.6-7.259,15.562a25.342,25.342,0,0,0-1.645,4.347,3.89,3.89,0,0,0,3.026,5.169,9.892,9.892,0,0,0,4.167.234c5.962-1.069,11.917-2.221,17.831-3.53a17.172,17.172,0,0,1,9.57.144m-1.231-91.719c1.717-.9,2.912-2.233,1.885-5.163a27.706,27.706,0,0,0-4.119,1.183c-4.719,2.2-9.42,4.455-14.067,6.8a27.029,27.029,0,0,0-4.953,3.187,2.619,2.619,0,0,0-.7,2.414c.342.672,1.489,1.038,2.365,1.285.444.126,1.081-.234,1.573-.486,6.016-3.056,12.032-6.1,18.011-9.222m-23.889,63.195h20.9c-1.375-5.445-3.957-10.116-6.034-14.973a2.239,2.239,0,0,0-1.609-1.147c-4.455-.091-8.91-.048-13.256-.048Zm18.87-70.514c-2.552-6.184-4.935-11.9-7.277-17.632q-6.862-16.814-13.683-33.652c-3.32-8.231-6.532-16.5-9.87-24.735-4.755-11.743-9.606-23.451-14.367-35.2q-7.466-18.407-14.823-36.856c-3.662-9.162-7.331-18.323-10.891-27.521-.78-2.018-1.9-3-4.089-2.756-4.929.54-9.03,3.026-13.112,5.529-1.225.744-1.333,1.963-.714,3.35,1.549,3.47,2.972,7,4.449,10.5,5.572,13.226,11.215,26.417,16.7,39.672,5,12.1,9.834,24.268,14.745,36.4q9.762,24.08,19.524,48.156c4.209,10.447,8.327,20.928,12.524,31.382,1.369,3.4,2.852,6.742,4.323,10.092a6.99,6.99,0,0,0,1.123,1.344c5.109-2.672,10.074-5.271,15.442-8.075m-39.859,54.166c-2.077,0-3.608.006-5.139,0q-68.02-.378-136.039-.763a20.585,20.585,0,0,1-2.119-.029c-2.005-.217-3.1.72-3.806,2.557-1.351,3.561-2.894,7.049-4.281,10.6a18.536,18.536,0,0,0-.606,2.972q73.09.576,145.045,1.153c2.4-5.7,4.515-10.711,6.946-16.486m-23.733-57.708a27.538,27.538,0,0,0-.45-3.615c-1,.126-1.567.15-2.113.276-1.639.372-3.272.787-5.1,1.231-.931,6.243,2.444,49.285,4.083,53.067,3.26-.193,3.374-.348,3.362-3.632q-.018-8.447.024-16.9c.06-10.14.162-20.287.2-30.427m-12.1,51.164V181.134c-2.426.264-4.311.468-7.1.768,1.141,17.561,2.251,34.624,3.38,52.041,1.6-.072,2.762-.12,3.716-.162m-8.489-190.2c-1.849-5.68-1.849-5.638-6.772-5.836-2.816-.113-5.632-.324-8.429-.618-4.3-.457-4.755-.1-5.271,5.121,6.7.433,13.388.871,20.473,1.333m-1.753,190.373c-.228-17.478-.456-34.57-.69-51.9-1.693.1-2.954.12-4.2.264-1.213.143-2.414.42-3.9.69.078,17,1.867,33.646,3.038,50.69l5.746.258M304.194,34.8c.222-.354.444-.708.672-1.063-3.068-5.512-4.233-11.821-7.691-18.3-2.384,6.424-4.407,11.869-6.646,17.885,4.929.534,9.3,1.008,13.665,1.477m-14.475,198.82h5.073c-.726-16.991-1.441-33.669-2.161-50.462-1.309-.109-2.269-.252-3.236-.252-.816,0-1.639.162-3.092.324,1.159,17.075,2.287,33.716,3.416,50.39M285.432,30.409c1.843-4.407,3.632-8.843,5.608-13.659A29.047,29.047,0,0,0,276.108,9.8c-1.831-.282-2.8.841-3.428,2.48-1.783,4.6-3.662,9.162-5.475,13.754-2.071,5.242-4.035,10.531-6.172,15.754-5.505,13.418-11.107,26.8-16.618,40.219-3.044,7.427-5.962,14.913-8.97,22.364q-9.9,24.486-19.83,48.966c-4.761,11.75-9.492,23.517-14.283,35.261-5.746,14.1-11.6,28.146-17.285,42.266-5.163,12.8-10.092,25.689-15.25,38.49-5.313,13.2-10.825,26.314-16.168,39.5-4.281,10.579-8.405,21.23-12.662,31.827-2.1,5.223-4.383,10.381-6.514,15.592-1.693,4.142-3.284,8.327-5.091,12.926,5.451,2.209,10.627,4.311,16.03,6.5a19.087,19.087,0,0,0,.979-1.7q6.907-16.8,13.8-33.633,7.277-17.8,14.517-35.626,8.33-20.569,16.6-41.156,10.23-25.315,20.5-50.618c5.686-13.952,11.5-27.857,17.171-41.816,4.083-10.044,7.979-20.167,12.05-30.217,5.716-14.1,11.521-28.152,17.273-42.237,2.5-6.13,4.911-12.289,7.421-18.414q6.313-15.418,12.7-30.8c2.648-6.371,5.373-12.7,8.033-19.075m-.8,203.216c-.985-17.057-1.945-33.6-2.924-50.492-2.552.162-4.593.288-7.162.45,1.237,8.543,2.7,16.684,3.53,24.9.853,8.345,1.087,16.75,1.609,25.42,1.939-.108,3.386-.186,4.947-.276m-17.495.048h7.108c-.66-17.123-1.705-33.639-4.827-50.378-1.669-.1-3.38-.193-5.529-.319,1.1,17.243,2.173,33.9,3.248,50.7m-2.576,175.345c-.792-2.293-1.537-4.425-2.257-6.5-6.022.721-9.738,3.435-11.623,9.4,4.821-1,9.12-1.9,13.881-2.9m-2.215-175.453c0-1.393.06-2.5-.006-3.6q-1.369-22.6-2.774-45.2c-.168-2.588-.384-2.66-4.407-2.618,0,17.159,1.423,34.215,2.96,51.422Zm.594,180.077c-3.6-.384-4.515-.193-8.081,1.489a23.792,23.792,0,0,1-3.872,1.585c-4.365,1.171-4.929,1.879-4.9,7.288a51.5,51.5,0,0,0,6.136-2.9c3.614-2.323,7.066-4.9,10.717-7.462m-1.675-14.6c-.66-1.975-1.183-3.561-1.711-5.151-.228.041-.456.078-.684.113-.372,1.6-.738,3.2-1.207,5.224,1.285-.067,2.251-.114,3.6-.186m-5.776-16.817c.15-.144.132-.564.054-.816-.985-3.29-1.627-6.718-3.614-10.17a16.4,16.4,0,0,0-1.291,2.119c-1.615,4.353-3.446,8.645-4.719,13.1-2.059,7.217-5.277,13.58-11,18.636-2.239,1.975-3.95,4.55-5.9,6.856.15.288.294.576.438.865,3.242-2.1,6.3-.073,9.45-.09.8-.007,1.6-.12,2.606-.2.2-2.767.39-5.331.594-8.122,3.506.871,2.774,3.608,4.233,5.638.546-1.231,1.441-2.432,1.567-3.71.306-3.194.33-6.424.324-9.636-.006-1.609-.732-3.368,2.161-4.407.354,3.135.672,5.962,1.045,9.252,2.774-3.2,2.39-6.532,2.588-9.708.2-3.242-1.477-6.766,1.471-9.6m-4.245-14.787c-1.627-5.421-3.182-10.614-5.013-16.708-3.878,4.642-8.249,5.926-13.286,4.84-3.17-.685-6.334-1.441-9.5-2.167l-.552-.126v-.955a19.008,19.008,0,0,1,3.824-1.267c4.191-.486,8.4-.75,12.6-1.14,2.035-.187,4.065-.474,6.676-.787-1.309-3.56-2.552-6.4-3.386-9.359a54.4,54.4,0,0,1-2.341-10.657c-.522-7.175-.5-14.4-.72-21.6-.042-1.231-.174-2.462-.264-3.65H211.922c-.132,1.71-.27,2.959-.306,4.2-.192,6.358-.174,12.721-.606,19.056a53.527,53.527,0,0,1-1.915,9.492c-.66,2.594-1.609,5.115-2.456,7.66q-5.394,16.184-10.777,32.361-1.495,4.5-2.978,9.006c-.438,1.338-1.471,2.713-.708,4.275,2.51-.57,4.8-1.093,7.03-1.6-.576-3.776-1.117-7.337-1.7-11.137,1.429-.085,2.341-.144,3.2-.192,1.543-3.512,1.1-7.5,3.6-11.209a41.392,41.392,0,0,1-.432,13.707,13.241,13.241,0,0,0-.306,4.143c.342,2.762.961,5.487,1.489,8.381,1.273-.324,2.66-.672,4-1.009.03.061.054.121.084.18.865,2.006-.714,2.78-1.561,3.609-2.5,2.431-3.356,5.085-1.969,8.345,1.861.126,3.194-2.8,5.746-.5-1.207,1.6-2.419,3.2-3.728,4.923,1.075,2.209,2.9,2.894,5,3.313.642-1.525,1.189-2.815,1.735-4.107l.823.145c.084,2.5.078,5,.276,7.486s-.486,5.1.786,7.715c.492-.535.823-.726.835-.931.318-6.346.786-12.7-1.663-18.8-1.159-2.876-2.137-5.83-3.38-8.67q-.684-1.557-1.285-3.145a46.815,46.815,0,0,1-3.08-14.4c-.288-6.713.306-13.3,5-18.744,3.584-4.155,5.728-4.8,10.429-2.515.408.2.835.42,1.285.66a9.387,9.387,0,0,1-.594,1.562c-4.677,7.768-6.712,16.366-7.949,25.209-.438,3.147-.462,6.281,1.081,9.282-.871-13.137,3.494-24.663,9.978-35.614,1.429.294,2.534.474,3.614.75,1.129.288,2.233.672,3.92,1.183-5.205,3.59-6.826,8.525-8.105,13.622-1.027,4.1-1.8,8.273-2.984,12.325-2.7,9.192-3.3,18.582-2.99,28.068a15.416,15.416,0,0,0,.811,2.991c1.621-1.627,1.327-3.069,1.321-4.365-.018-3.818-.162-7.631-.168-11.449-.012-14.6,11.305-28.536,25.462-30.607a24.127,24.127,0,0,0,3.458-1.075m-6.976-70.316c.282-1.464-.216-2.48-1.813-2.606a58.628,58.628,0,0,0-7.163-.3c-5.77.289-11.533.709-17.291,1.2-3.224.276-6.442.72-9.63,1.255-.5.084-.859,1.039-1.4,1.735,6.916,1.524,32.744.588,37.3-1.279m-4.4,124.05c.24-1.68.486-3.4.828-5.763-2.239-.139-3.83-.241-5.4-.337-.606,5.158-.078,5.878,4.569,6.1m-3.752-34.245q1.153-1.351,2.311-2.7c-.348-.2-.69-.4-1.033-.606-.432,1.1-.853,2.2-1.279,3.307-.078.085-.15.174-.222.259a2.338,2.338,0,0,0-.072.276,51.8,51.8,0,0,0-4.317,5.247,44.786,44.786,0,0,0-6.28,17.207,1.417,1.417,0,0,0,.955-.828,75.973,75.973,0,0,1,8.831-19.122,9.006,9.006,0,0,0,.811-2.5c.054-.066.108-.126.162-.192.042-.115.09-.228.132-.343M226.6,419.1h5.7c-.27-1.464-.48-2.575-.684-3.692-.27-.12-.534-.246-.8-.372-.943,1.843-4.431.39-4.221,4.064m-15.364,6.341c.432-3.494.768-6.232,1.153-9.324-2.786.786-5.043,1.447-7.325,2.029-.27.073-.654-.294-1.021-.474.618-1.116,1.165-2.095,1.813-3.254a6.37,6.37,0,0,0-1.651-.089,12.957,12.957,0,0,1-12.344-2.053,5.1,5.1,0,0,0-6.6.126c1.855,3.506,3.6,5.133,7.547,5.091,5.62-.066,10.032,2.209,14.217,5.53a33.792,33.792,0,0,0,4.209,2.419m-7.4-16.132a10.246,10.246,0,0,0-2.071-1.892c-2.275-1.086-4.641-1.981-6.952-3-1.279-.559-3.1-1.129-2.51-2.8.348-.991,1.975-1.825,3.182-2.143,1.135-.294,2.474.15,3.716.348.883.144,1.753.414,2.786.66-.907-5.05-3.056-6.377-11.545-7.343-1.465,4.4-3.284,8.747-3.818,13.166,4.275,1.615,8.039,3.116,11.857,4.449,1.831.642,3.572.192,5.355-1.447m-9.822,29.34c1.315-.241,2.149-.8,1.435-2.221-.174-.348-1.129-.715-1.387-.547-1.213.787-.991,1.766-.048,2.768m-5.289-3.272c.546-.5,1.1-1.009,1.939-1.789-.8-.679-1.369-1.513-1.9-1.495-.6.018-1.183.8-1.771,1.255.582.678,1.159,1.351,1.735,2.029m-.534,9.606c.726-.69,1.447-1.381,2.654-2.546-1.321-.877-2.239-1.939-2.906-1.8a2.781,2.781,0,0,0-1.651,2.2c.06.756,1.225,1.435,1.9,2.149m-15-205.515H121.464v15.2c1.747.1,3.26.246,4.773.258q15.634.136,31.28.217a64.953,64.953,0,0,0,6.754-.048,3.709,3.709,0,0,0,2.642-1.531c2.125-4.4,4.01-8.916,6.28-14.091m-25.54,144.745c-.7-2.48-2.456-3.092-4.173-3.752-3.284-1.267-6.55-2.588-9.858-3.776-3.584-1.285-7.21-2.438-10.813-3.656-1.435-.487-2.558-.187-3.056,1.314-.462,1.423.054,2.372,1.525,2.972,6.388,2.618,12.716,5.391,19.14,7.936a6.66,6.66,0,0,0,7.235-1.038m-19.038,30.589c3.458-8.453,6.934-16.9,10.507-25.612-5.62-1.945-10.9-3.77-16.528-5.716C94.477,452.263,63.311,528.529,35.568,597.872H53.982c.366-.817.9-1.934,1.369-3.087,3.536-8.747,7-19.331,10.6-28.055,6.178-14.974,15.688-35.807,21.818-50.8,6.928-16.967,13.7-33.994,20.551-51q7.268-18.029,14.553-36.047,2.846-7.051,5.746-14.085M117.2,247.433c.066,0,.132-.006.2-.013-.258-3.494-.546-6.988-.774-10.488-.084-1.279-.024-2.918-1.627-2.846-.714.031-1.381,1.688-2.023,2.642-.132.2-.042.546-.048.829-.078,5.2-.18,10.4-.216,15.6a8.875,8.875,0,0,0,.408,2.9,2.2,2.2,0,0,0,1.363,1.327,2.007,2.007,0,0,0,1.675-.895,10.939,10.939,0,0,0,1-3.578c.162-1.813.042-3.65.042-5.481m-9.348,6.544V239.448c-1.447-.133-2.678-.313-3.92-.348-2.534-.066-5.073-.061-7.613-.085-9.024-.1-18.053-.21-27.077-.27-3.608-.024-4.563.9-4.461,4.485.1,3.488.432,6.97.66,10.525a9.728,9.728,0,0,0,1.837.414q19.038.269,38.076.456a9.458,9.458,0,0,0,2.5-.648M76.406,477.5c1.939-4.683,4.371-9.252,5.331-14.637-1.447-.109-2.564-.109-3.656-.288-6.04-.973-12.074-.019-18.107-.03-15.526-.018-31.051-.126-46.583-.2a16.315,16.315,0,0,0-2.107.042c-1.759.222-2.9,1.1-2.846,3.019.1,3.9.24,7.8.354,11.557,4.647,1.171,63.748,1.549,67.614.535" transform="translate(-0.254 -0.251)" fill="#273232"/>
              <path id="Path_1921" data-name="Path 1921" d="M654.4,516.3a8.615,8.615,0,0,1,.492,1.8c-2.756.943-5.487,1.879-8.231,2.8-12.152,4.083-24.279,8.2-35.86,13.833-5.656,2.749-11.923,4.082-18.87,5.74-.708-12.584-1.363-24.232-2.047-36.281,18.39-5.512,36.773-8.543,55.391-12.416a8.222,8.222,0,0,1-3.092,6.088,40.632,40.632,0,0,1-21.277,8.507c-2.522.294-5.031.678-7.553,1-4.407.558-7.733,3.218-11.071,5.8a4.405,4.405,0,0,0-1.6,2.426c-.324,1.723-.841,3.782-.2,5.223.87,1.97,3.236,1.346,4.971,1,5.373-1.062,10.723-2.263,16.06-3.493a20.468,20.468,0,0,0,3.506-1.363c7.343-3.182,14.913-5.217,23-4.4,2.7.276,5.223.924,6.382,3.74" transform="translate(-235.885 -196.674)" fill="#273232"/>
              <path id="Path_1922" data-name="Path 1922" d="M618.3,698.274c5.061.174,5.7,1,4.353,6.238H536.537c-.919-5.139-.342-6.076,4.161-6.286,9.726-.456,19.464-.787,29.2-1.147,1.669-.06,3.344-.013,4.953-.013.66-7.307-2.534-12.067-9.174-13.094-5.98-.925-12.08-1.1-18.119-1.627-3.74-.324-7.475-.684-10.813-3.4,6.592-.847,13.22-1.477,19.764-2.612,6.478-1.123,12.866-2.75,19.422-4.185,2.486,4.594,2.462,9.649,3.59,14.392.552,2.317.66,4.737,1.009,7.1a4.011,4.011,0,0,0,.552,2.005c.588.636,1.567,1.393,2.263,1.29a2.543,2.543,0,0,0,1.363-2.077c-.366-3.488-.985-6.952-1.537-10.422-.108-.685-.3-1.351-.564-2.474,5.7-2.738,11.971-2.942,17.891-4.269,6.016-1.345,12.254-1.7,18.852-2.552a5.512,5.512,0,0,1-4.191,4.149c-2.966.895-5.98,1.639-8.97,2.461-2.582.709-5.217,1.285-7.727,2.186-5.65,2.035-8.081,6.484-7.054,12.769a12.629,12.629,0,0,0,2.341.528c8.183.379,16.36.75,24.549,1.033" transform="translate(-214.418 -268.758)" fill="#273232"/>
              <path id="Path_1923" data-name="Path 1923" d="M541.495,598.481c2.173,13.293,4.323,26.434,6.562,40.123-14.043,3.465-27.5,6.617-41.51,6.887-.06-4.359,1.717-7.18,5.211-8.081,2.984-.763,6.094-1.057,9.144-1.549,9.414-1.508,12.8-8.675,11.605-16.985-.468-3.213-3.776-6.04-7.781-6.022a43.777,43.777,0,0,0-12.026,1.724c-7.559,2.233-14.931,5.091-22.424,7.553a91.19,91.19,0,0,1-9.012,2.3,18.464,18.464,0,0,1-14.181-3.254,67.055,67.055,0,0,1,6.13-2.888c6.514-2.3,13.19-4.173,19.6-6.712,11.059-4.383,22.586-6.977,34.107-9.673,3.956-.925,7.835-2.161,11.767-3.193a17.4,17.4,0,0,1,2.8-.229" transform="translate(-186.811 -239.318)" fill="#273232"/>
              <path id="Path_1924" data-name="Path 1924" d="M536.237,545.327c1.117,9.282,2.2,18.335,3.326,27.7-5.355,1.2-10.687,2.347-16,3.6-7.541,1.764-15.165,3.265-22.562,5.517-7.121,2.168-14.007,5.122-20.977,7.787-4.083,1.566-8.111,3.271-12.194,4.833a28.111,28.111,0,0,1-3.7.888,8,8,0,0,1,2.227-8.417,24.07,24.07,0,0,1,7.132-5.1,81.489,81.489,0,0,1,22.28-6.166,58.485,58.485,0,0,0,13.8-3.65c7.511-2.918,8.351-7.829,8.549-14.949.054-2-1.279-3.116-3.23-3.225-4.353-.228-8.579-.186-12.9,1.285a41.76,41.76,0,0,1-21.247,1.446c-1.729-.324-3.2-1.975-5.139-3.247,2.924-2.78,6.256-3.218,9.246-3.716,8.741-1.453,17.621-2.107,26.351-3.645,7.024-1.23,14.037-1.075,21.079-1.129,1.243-.011,2.486.115,3.963.187" transform="translate(-185.473 -218.001)" fill="#273232"/>
              <path id="Path_1925" data-name="Path 1925" d="M542.556,493.411c.336,8.735.672,17.4,1,26.038-10.5.444-20.767.408-30.919,1.453s-20.167,3.165-30.685,4.888a10.563,10.563,0,0,1,6.466-8.07,47.339,47.339,0,0,1,17.633-4.052c2.672-.156,5.331-.582,7.979-.967a13.687,13.687,0,0,0,8.531-5.1c2.816-3.309,1.543-7.493-2.708-8.555-3.83-.967-7.817-1.369-11.569-2.546-2.323-.727-4.395-2.341-6.454-3.752-.492-.336-.468-1.423-.835-2.69,14.055.661,27.665.937,41.558,3.35" transform="translate(-192.753 -195.991)" fill="#273232"/>
              <path id="Path_1926" data-name="Path 1926" d="M392.918,644.311c-.042.114-.09.228-.132.342-.054.067-.108.126-.162.193a2.282,2.282,0,0,1,.072-.276c.072-.085.144-.174.222-.259" transform="translate(-157.055 -257.633)" fill="#273232"/>
            </g>
          </g>
        </g>
      </g>
    </g>
  </g>
</svg>
