<svg xmlns="http://www.w3.org/2000/svg" width="64" height="64" viewBox="0 0 64 64"><g transform="translate(2949 12289)"><g transform="translate(-2931 -12277)"><g transform="translate(0)"><g transform="translate(0)"><path d="M59.344,4.415C58.42,3.055,57.6,1.8,56.842.662a1.655,1.655,0,0,0-.435-.435,1.417,1.417,0,0,0-1.958.435C53.742,1.8,52.926,3,51.947,4.415c-4.3,6.309-10.715,15.828-10.715,21.267a14.349,14.349,0,0,0,4.242,10.171,14.531,14.531,0,0,0,10.171,4.188A14.485,14.485,0,0,0,70.059,25.627C70.059,20.188,63.641,10.724,59.344,4.415ZM63.859,33.84a11.5,11.5,0,0,1-8.213,3.372,11.733,11.733,0,0,1-8.213-3.372,11.5,11.5,0,0,1-3.372-8.213c0-4.569,6.146-13.652,10.225-19.689.49-.707.925-1.414,1.36-2.012.435.6.87,1.305,1.36,2.012,4.079,6.092,10.225,15.121,10.225,19.689A11.733,11.733,0,0,1,63.859,33.84Z" transform="translate(-41.232 0)" fill="#485448"/></g></g><g transform="translate(17.122 24.644)"><path d="M172.874,181.243a1.394,1.394,0,0,0-1.469,1.305,7,7,0,0,1-1.033,3.318,6.61,6.61,0,0,1-2.5,2.393,1.437,1.437,0,0,0,1.414,2.5,9.425,9.425,0,0,0,3.481-3.372,9.256,9.256,0,0,0,1.414-4.678A1.394,1.394,0,0,0,172.874,181.243Z" transform="translate(-167.152 -181.24)" fill="#485448"/></g></g><g transform="translate(-2949 -12289)" fill="none" stroke="#485448" stroke-width="3"><rect width="64" height="64" rx="14" stroke="none"/><rect x="1.5" y="1.5" width="61" height="61" rx="12.5" fill="none"/></g></g></svg>