<svg xmlns="http://www.w3.org/2000/svg" xmlns:xlink="http://www.w3.org/1999/xlink" width="651" height="835" viewBox="0 0 651 835"><defs><clipPath id="a"><rect width="523.705" height="463.182" fill="none"/></clipPath></defs><g transform="translate(-1092 -1209)"><rect width="651" height="835" rx="52" transform="translate(1092 1209)" fill="#c7d3c4"/><g transform="translate(1221 1455)" fill="#fff" stroke="#707070" stroke-width="1"><ellipse cx="196.5" cy="197" rx="196.5" ry="197" stroke="none"/><ellipse cx="196.5" cy="197" rx="196" ry="196.5" fill="none"/></g><g transform="translate(1148.105 1385.662)"><path d="M0,406.954l8.267,2.178,3.3-12.527,38.454,10.13,2.64-10.021L14.206,386.585l3.3-12.526-8.267-2.177Z" transform="translate(0 -183.715)" fill="#252f28"/><g transform="translate(0 0)"><g clip-path="url(#a)"><path d="M79.942,348.745a12.057,12.057,0,0,0,.93-3.955,15.511,15.511,0,0,0-.416-4.078l7.653-1.316a17.694,17.694,0,0,1,.644,6.719,25.223,25.223,0,0,1-1.8,7.41q-2.905,7.209-8.919,9.394t-14-1.034q-7.989-3.22-10.71-9.2t.329-13.553Q56,333.3,60.1,331.183t9.147-.085q4.746,1.912,6.251,5.8t-.553,8.994a19.9,19.9,0,0,1-4.684,7.12,9.306,9.306,0,0,0,6-.237,6.982,6.982,0,0,0,3.685-4.032M60.5,342.585a4.912,4.912,0,0,0,.229,4.282,10.227,10.227,0,0,0,4.031,3.859,16.855,16.855,0,0,0,1.383-2.131,21.615,21.615,0,0,0,1.13-2.373,4.8,4.8,0,0,0,.279-3.378,3.518,3.518,0,0,0-2.177-2.134,3.966,3.966,0,0,0-2.964-.182,3.415,3.415,0,0,0-1.912,2.057" transform="translate(-25.708 -163.075)" fill="#252f28"/><path d="M82.88,270.809a15.232,15.232,0,0,1,1.3-1.905,18.937,18.937,0,0,1,1.768-1.938l7.533,6.279a27.092,27.092,0,0,0-2.253,2.334,14.249,14.249,0,0,0-1.547,2.138,8.933,8.933,0,0,0-1.113,3.278,8.048,8.048,0,0,0,.2,3.2l20.791,11.784-4.79,8.451L84.146,292.743a4.328,4.328,0,0,0-3.207-.515,5.958,5.958,0,0,0-3.046,1.959l-4.62-7.085a18.727,18.727,0,0,1,4.053-3.473,11.813,11.813,0,0,1,4.043-1.617,14.915,14.915,0,0,1,1.511-11.2" transform="translate(-36.198 -131.885)" fill="#252f28"/><path d="M116.324,220.759a15.206,15.206,0,0,1,1.519-1.737,18.966,18.966,0,0,1,1.986-1.715l6.735,7.129a27.09,27.09,0,0,0-2.514,2.049,14.246,14.246,0,0,0-1.79,1.94,8.925,8.925,0,0,0-1.494,3.122,8.054,8.054,0,0,0-.185,3.2l19.247,14.168-5.759,7.824-19.09-14.052a4.329,4.329,0,0,0-3.123-.892,5.957,5.957,0,0,0-3.257,1.584l-3.747-7.583a18.763,18.763,0,0,1,4.436-2.968,11.808,11.808,0,0,1,4.207-1.125,14.913,14.913,0,0,1,2.829-10.946" transform="translate(-51.798 -107.353)" fill="#252f28"/><path d="M179.66,189.795a4.475,4.475,0,0,0,2.936,1.336,5.543,5.543,0,0,0,3.345-1.055l2.732,8.005q-4.654,3.074-8.735,2.839a11.785,11.785,0,0,1-.742,5.031,14.025,14.025,0,0,1-3.13,4.806,13.792,13.792,0,0,1-3.743,2.826,10.194,10.194,0,0,1-4.076,1.116,9.707,9.707,0,0,1-4.161-.714,13.335,13.335,0,0,1-6.731-6.456,9.722,9.722,0,0,1-.888-4.127,10.614,10.614,0,0,1,.921-4.141,13.273,13.273,0,0,1,2.645-3.88,13.507,13.507,0,0,1,3.584-2.755,12.937,12.937,0,0,1,3.661-1.245l-2.1-2.017a4.844,4.844,0,0,0-3.971-1.52,7.2,7.2,0,0,0-4.3,2.472,12.811,12.811,0,0,0-2.224,3.161,18.346,18.346,0,0,0-1.424,4.2l-7.953-1.345a23.882,23.882,0,0,1,2.466-6.968,28.663,28.663,0,0,1,4.632-6.326,18.385,18.385,0,0,1,4.553-3.53,13.081,13.081,0,0,1,4.8-1.543,10.4,10.4,0,0,1,4.754.611,12.914,12.914,0,0,1,4.457,2.885Zm-6.868,13.335a5.942,5.942,0,0,0,1.872-4.666l-2.758-2.645a6.183,6.183,0,0,0-4.494,1.972,4.894,4.894,0,0,0-1.471,3.031,3.417,3.417,0,0,0,1.136,2.84A3.535,3.535,0,0,0,169.8,204.7a4.49,4.49,0,0,0,2.99-1.574" transform="translate(-71.782 -87.886)" fill="#252f28"/><path d="M210.578,127.054a15.189,15.189,0,0,1,1.918-1.283,18.977,18.977,0,0,1,2.363-1.14l4.654,8.633a27.076,27.076,0,0,0-2.96,1.328A14.256,14.256,0,0,0,214.321,136a8.926,8.926,0,0,0-2.253,2.628,8.054,8.054,0,0,0-1.01,3.044l14.91,18.677-7.593,6.061-14.788-18.526a4.331,4.331,0,0,0-2.785-1.672,5.955,5.955,0,0,0-3.556.685l-1.65-8.3a18.714,18.714,0,0,1,5.054-1.714,11.8,11.8,0,0,1,4.354,0,14.915,14.915,0,0,1,5.574-9.835" transform="translate(-96.627 -61.569)" fill="#252f28"/><path d="M236.981,92.613a5.617,5.617,0,0,1-4.152,1.044,6,6,0,0,1-4.279-6.565,6.581,6.581,0,0,1,6.782-4.421,6,6,0,0,1,4.279,6.565,5.617,5.617,0,0,1-2.631,3.377m-.674,7.862,8.139-5.3,19.1,29.3-8.139,5.3Z" transform="translate(-112.85 -40.803)" fill="#252f28"/><path d="M314.375,91.372a4.321,4.321,0,0,0,2.367,2.224,5.935,5.935,0,0,0,3.62.086l-.147,8.457a18.727,18.727,0,0,1-5.3.6,11.786,11.786,0,0,1-4.254-.928,15.461,15.461,0,0,1-3,4.956,15.639,15.639,0,0,1-4.763,3.588q-4.7,2.329-8.678.866t-6.421-6.4L277.156,83.356l8.7-4.313,9.776,19.732a5.823,5.823,0,0,0,2.813,2.98,4.164,4.164,0,0,0,3.607-.233,8.343,8.343,0,0,0,2.614-2.018,7.4,7.4,0,0,0,1.545-2.717L295.147,74.444l8.705-4.313Z" transform="translate(-136.919 -34.646)" fill="#252f28"/><path d="M390.566,37.351q5.011-1.316,8.549.935t4.936,7.576l6.089,23.177-9.4,2.468-5.595-21.3a6.062,6.062,0,0,0-2.092-3.5,3.9,3.9,0,0,0-3.455-.532,7.664,7.664,0,0,0-2.873,1.425,6.952,6.952,0,0,0-1.9,2.308l6.335,24.116-9.4,2.469-5.6-21.3a6.053,6.053,0,0,0-2.092-3.5,3.9,3.9,0,0,0-3.454-.532,7.655,7.655,0,0,0-2.874,1.424,6.96,6.96,0,0,0-1.9,2.309l6.335,24.117-9.4,2.468-6.022-22.927a4.331,4.331,0,0,0-1.87-2.656,5.914,5.914,0,0,0-3.466-.83l1.849-8.254q5.841-.194,9.233,2.262a13.97,13.97,0,0,1,3.806-4.248,15.37,15.37,0,0,1,5.272-2.489,11.9,11.9,0,0,1,5.487-.27,9.149,9.149,0,0,1,4.323,2.179,14.72,14.72,0,0,1,3.821-4.319,15,15,0,0,1,5.35-2.577" transform="translate(-173.609 -18.212)" fill="#252f28"/><path d="M525.112,0l10.9.98L539.18,36.64l9.86-32.993,9.74.876L562.6,38.745l9.477-34.523,10.9.98L567.359,52.309l-11.031-.992-3.593-33.812-9.63,32.623-11.031-.992Z" transform="translate(-259.413 0)" fill="#252f28"/><path d="M646.429,82.584Q638.9,80.392,636.1,74.617t-.395-14.045q2.409-8.27,7.876-11.637t12.991-1.173q7.523,2.192,10.327,7.967t.395,14.045q-2.409,8.271-7.876,11.636t-12.99,1.174m2.318-7.959a5,5,0,0,0,5.046-1.229,13.906,13.906,0,0,0,3.552-6.52,13.91,13.91,0,0,0,.505-7.408,5.206,5.206,0,0,0-8.643-2.518,13.908,13.908,0,0,0-3.552,6.521,13.9,13.9,0,0,0-.505,7.409,5,5,0,0,0,3.6,3.746" transform="translate(-313.498 -23.168)" fill="#252f28"/><path d="M730.651,72.764a15.274,15.274,0,0,1,2.018,1.119,18.987,18.987,0,0,1,2.1,1.579l-5.548,8.087a27.043,27.043,0,0,0-2.534-2.025,14.29,14.29,0,0,0-2.273-1.34,8.921,8.921,0,0,0-3.367-.8,8.034,8.034,0,0,0-3.168.495l-9.789,21.8L699.222,97.7l9.709-21.625a4.329,4.329,0,0,0,.213-3.241,5.954,5.954,0,0,0-2.235-2.849l6.622-5.263a18.766,18.766,0,0,1,3.836,3.71,11.813,11.813,0,0,1,1.987,3.875,14.915,14.915,0,0,1,11.3.456" transform="translate(-345.425 -31.974)" fill="#252f28"/><path d="M764.268,102.264l-3.907.995L753.769,113.8l-8.237-5.15,27.127-43.382,8.237,5.15-14.387,23.01,14.7-3.718,10.379,6.49-17.692,4.6.139,25.676-9.884-6.181Z" transform="translate(-368.303 -32.244)" fill="#252f28"/><path d="M812.552,173.787a26.142,26.142,0,0,1-5.393-6.309,24.556,24.556,0,0,1-3.1-7.509l7.657-2.426a20.955,20.955,0,0,0,2.338,5.758,17.233,17.233,0,0,0,3.651,4.408,6.913,6.913,0,0,0,2.914,1.62,1.993,1.993,0,0,0,2.087-.609,2.342,2.342,0,0,0,.41-2.538,15.022,15.022,0,0,0-1.774-3.116q-1.222-1.714-2.624-3.666a16.442,16.442,0,0,1-2.184-4.184,9.929,9.929,0,0,1-.456-4.672,10.22,10.22,0,0,1,2.588-5.108,9.431,9.431,0,0,1,7.829-3.681q4.564.174,9.505,4.361a24.793,24.793,0,0,1,4.72,5.4,23.953,23.953,0,0,1,3.02,6.5l-7.3,2.81a18.654,18.654,0,0,0-2.234-4.779,17.55,17.55,0,0,0-3.352-3.858,4.549,4.549,0,0,0-2.209-1.15,1.767,1.767,0,0,0-1.693.645,2.246,2.246,0,0,0-.327,2.44,14.966,14.966,0,0,0,1.774,3.116q1.221,1.715,2.6,3.691a16.665,16.665,0,0,1,2.143,4.234,9.433,9.433,0,0,1-2.152,9.805,9.53,9.53,0,0,1-8.219,3.69q-4.828-.313-10.214-4.876" transform="translate(-397.215 -70.024)" fill="#252f28"/><path d="M888.67,186.065q3.5,3.991,3.136,8.235t-4.505,7.877l-18.009,15.81-6.409-7.3,16.548-14.528a5.824,5.824,0,0,0,2.154-3.485,4.245,4.245,0,0,0-1.2-3.474,8.694,8.694,0,0,0-2.709-2.1,7.422,7.422,0,0,0-3.023-.793l-18.739,16.451-6.409-7.3L887.96,161.7l6.409,7.3-14.456,12.69a12.056,12.056,0,0,1,8.756,4.378" transform="translate(-419.669 -79.88)" fill="#252f28"/><path d="M906.888,280.619q-4.189-6.624-2.467-12.808t9-10.789q7.279-4.6,13.605-3.508t10.514,7.719q4.188,6.623,2.467,12.808t-9,10.788q-7.281,4.6-13.606,3.509t-10.514-7.719m7.006-4.431a5,5,0,0,0,4.6,2.42,17.373,17.373,0,0,0,12.262-7.754,5.205,5.205,0,0,0-4.811-7.609A17.374,17.374,0,0,0,913.679,271a5,5,0,0,0,.216,5.189" transform="translate(-446.549 -125.135)" fill="#252f28"/><path d="M959.912,329.811q2.654,6.19-.24,11.519t-10.811,8.723q-7.918,3.4-13.67,2.057A11.441,11.441,0,0,1,926.962,345a13.44,13.44,0,0,1-.665-8.453l-14.4,6.178-3.829-8.929,34.286-14.7a4.193,4.193,0,0,0,2.326-2.3,6.376,6.376,0,0,0,.233-3.729l8.436.61q1.106,5.868-.729,9.474a10.494,10.494,0,0,1,4.3,2.385,12.125,12.125,0,0,1,3,4.281m-26.659,8.825a5.2,5.2,0,0,0,4.206,3.235,16.758,16.758,0,0,0,13.333-5.718,5.2,5.2,0,0,0,.556-5.277,6.069,6.069,0,0,0-3.564-3.545l-14.643,6.279a6.2,6.2,0,0,0-.437,2.513,6.816,6.816,0,0,0,.549,2.513" transform="translate(-448.596 -154.656)" fill="#252f28"/><path d="M963.318,412.93a26.143,26.143,0,0,1-.777-8.263,24.565,24.565,0,0,1,1.786-7.926l7.658,2.425a20.955,20.955,0,0,0-1.4,6.053,17.251,17.251,0,0,0,.447,5.706,6.928,6.928,0,0,0,1.45,3,1.994,1.994,0,0,0,2.057.7,2.344,2.344,0,0,0,1.8-1.839,15.065,15.065,0,0,0,.343-3.57q-.012-2.1-.035-4.508a16.461,16.461,0,0,1,.623-4.679,9.935,9.935,0,0,1,2.318-4.083,10.217,10.217,0,0,1,5.056-2.687,9.43,9.43,0,0,1,8.52,1.5q3.632,2.77,5.262,9.038a24.783,24.783,0,0,1,.751,7.132,23.95,23.95,0,0,1-1.276,7.057l-7.59-1.908a18.672,18.672,0,0,0,.925-5.192,17.553,17.553,0,0,0-.52-5.085,4.557,4.557,0,0,0-1.144-2.212,1.768,1.768,0,0,0-1.756-.447,2.245,2.245,0,0,0-1.672,1.806,14.935,14.935,0,0,0-.343,3.57q.011,2.1,0,4.516a16.686,16.686,0,0,1-.686,4.7,9.433,9.433,0,0,1-7.4,6.778,9.528,9.528,0,0,1-8.845-1.715q-3.768-3.035-5.545-9.868" transform="translate(-475.482 -194.081)" fill="#252f28"/><path d="M880.429,696.738c.246-.545.417-1.125.62-1.691a16.537,16.537,0,0,1,.868-2.364c.905-1.659.652-2.049-.44-2.82q-2.351,5.069-4.978,9.979a5.333,5.333,0,0,0,3.93-3.1" transform="translate(-433.003 -340.802)" fill="#252f28"/><path d="M178.741,692.676a16.486,16.486,0,0,1,.868,2.364c.2.565.374,1.145.62,1.69a5.332,5.332,0,0,0,3.927,3.1q-2.625-4.908-4.977-9.977c-1.09.771-1.342,1.161-.438,2.819" transform="translate(-88.028 -340.799)" fill="#252f28"/><path d="M839.089,730.008a7.545,7.545,0,0,1,.008-1.09,2.536,2.536,0,0,0-1.848-3.044,6.794,6.794,0,0,1-2.754-2.277,4.532,4.532,0,0,0-3.816-1.683c-.6.007-1.2.055-1.8.1a7.055,7.055,0,0,1-3.527-.552c-.438-.2-.9-.332-1.357-.492-.113-.04-.267-.13-.34-.089-.295.166-.741.323-.817.578a4.921,4.921,0,0,0,1.092,4.717,35.809,35.809,0,0,0,2.555,2.54c.683.674,1.409,1.316,2.029,2.043a3.137,3.137,0,0,1,.317,3.7,24.557,24.557,0,0,1-1.943,2.59c-.615.737-1.33,1.389-1.967,2.109a1.309,1.309,0,0,0,.366,2.125c.411.25.822.5,1.25.718a4.171,4.171,0,0,0,3.487.276c.563-.207,1.171-.288,1.737-.489a5.946,5.946,0,0,1,1.22-.293q3.012-3.96,5.826-8.076c.094-1.138.185-2.278.28-3.416Z" transform="translate(-406.393 -356.121)" fill="#252f28"/><path d="M866.422,713.2a9.275,9.275,0,0,0-5.411,1.714,2.732,2.732,0,0,0-1.41,2.374c-.015,1.683,0,3.367,0,5.05l0,0q0,1.782-.1,3.562,4.038-6.2,7.614-12.721a4.7,4.7,0,0,1-.7.024" transform="translate(-424.607 -352.32)" fill="#252f28"/><path d="M213.268,657.255c-.063.347-.058.7-.022.226a.09.09,0,0,0,0-.012h0v.012c-.047,1.16.457,1.6.69,1.461.621-.358,1.261-.688,1.844-1.105s1.091-.937,1.654-1.384a5.616,5.616,0,0,1,4.383-1.19c1.186.15,2.383.214,3.578.281a3.134,3.134,0,0,0,1.063-.135.916.916,0,0,0,.513-.438.813.813,0,0,0,0-.666,7.257,7.257,0,0,0-2.366-2.166c-.908-.582-1.847-1.117-2.747-1.712a2.922,2.922,0,0,1-1.167-3.767,22.426,22.426,0,0,1,1.351-2.535,8.535,8.535,0,0,0,1.08-4.135,6.168,6.168,0,0,0-.8-3.46c-.361-.6-.635-1.409-1.485-1.358-.645.038-.93.713-1.189,1.232-2.2,4.406-4.276,8.853-5.066,13.783-.38,2.366-.88,4.711-1.313,7.068" transform="translate(-105.333 -313.783)" fill="#252f28"/><path d="M234.139,767.178a3.6,3.6,0,0,0,.088-3.531c-.484.2-.933.354-1.343.574a7.166,7.166,0,0,1-5.566.673c-.246-.071-.5-.126-.747-.184q2.288,2.927,4.681,5.765c.124-.09.25-.177.37-.273a8.17,8.17,0,0,0,2.517-3.025" transform="translate(-111.929 -377.252)" fill="#252f28"/><path d="M258.265,769.885a9.039,9.039,0,0,1,5.3-2.825,1.317,1.317,0,0,0,1.02-1.331c.078-.837.1-1.68.152-2.569h0c-.044-.794-.082-1.634-.137-2.473a1.224,1.224,0,0,0-.905-1,5.56,5.56,0,0,0-1.063-.17,7.028,7.028,0,0,0-3.16.592c-.43.213-.894.354-1.33.557a3.847,3.847,0,0,1-3.475-.142c-.863-.423-1.729-.844-2.608-1.233a6.7,6.7,0,0,0-1.037-.284,1.04,1.04,0,0,0-1.074.715,4.315,4.315,0,0,0,.137,2.492,16.557,16.557,0,0,0,1.569,3.231,18.6,18.6,0,0,0,3.951,4.182,3.056,3.056,0,0,0,.95.491,1.679,1.679,0,0,0,1.714-.237" transform="translate(-123.416 -374.96)" fill="#252f28"/><path d="M593.441,515.7a2.888,2.888,0,0,0,1.978.681,5.007,5.007,0,0,0,2.612-.784,7.685,7.685,0,0,0,2.279-2.161h0v-2.991q-3.339.3-4.581.562a5.158,5.158,0,0,0-2.152.973,2.321,2.321,0,0,0-.91,1.931,2.264,2.264,0,0,0,.776,1.789" transform="translate(-292.784 -252.166)" fill="#252f28"/><path d="M525.779,506.566a6.77,6.77,0,0,0,1.883,2.327,3.929,3.929,0,0,0,2.453.934,3.6,3.6,0,0,0,3.174-1.868,8.528,8.528,0,0,0,1.182-4.638,8.682,8.682,0,0,0-1.124-4.655,3.51,3.51,0,0,0-3.134-1.8q-2.615,0-4.435,2.851Z" transform="translate(-259.742 -245.456)" fill="#252f28"/><path d="M348.853,731.511c.262.241,1.044-.057,1.214-.421a1.355,1.355,0,0,0,.007-1.345c-.163-.245-.538-.351-.736-.469v0a1.221,1.221,0,0,0-.989,1.374,1.6,1.6,0,0,0,.5.86" transform="translate(-172.084 -360.272)" fill="#252f28"/><path d="M250.964,780.277a5.048,5.048,0,0,0-.886-1.113.758.758,0,0,0-.658-.069c-.193.069-.448.3-.46.474a4.99,4.99,0,0,0,.093,1.422q.69,3.111,1.44,6.207,1.6,1.678,3.246,3.318c-.065-.675-.131-1.349-.23-2.018a23.154,23.154,0,0,0-2.544-8.22" transform="translate(-122.982 -384.861)" fill="#252f28"/><path d="M251.461,734.988a2.447,2.447,0,0,1,.351,2.689c-.222.424-.476.832-.722,1.244-.307.514-.637,1.014-.927,1.536l0,.006a1.359,1.359,0,0,0,.617,1.82q1.578.859,3.173,1.685a3.855,3.855,0,0,0,3.463.222c.109-.048.229-.072.34-.118a11.728,11.728,0,0,1,5.24-1.03.991.991,0,0,0,.891-.946c.011-.358,0-.717,0-1.076l-.07,0h0c-.16-3.108-.317-6.217-.487-9.324a1.292,1.292,0,0,0-1.2-1.132,14.823,14.823,0,0,0-2.139.131c-.587.086-1.146.354-1.732.455a5.847,5.847,0,0,1-4.166-.651c-.614-.37-1.259-.693-1.9-1.015a4.054,4.054,0,0,0-2.462-.269l-.049.01a1.571,1.571,0,0,0-1.211,1.863,3.328,3.328,0,0,0,.935,1.9c.657.693,1.4,1.308,2.061,2" transform="translate(-122.728 -360.204)" fill="#252f28"/><path d="M395.388,509.893a4.078,4.078,0,0,0,3.547-1.9,9.011,9.011,0,0,0,.016-9.291,4.389,4.389,0,0,0-7.123-.024,9.191,9.191,0,0,0,.016,9.338,4.064,4.064,0,0,0,3.544,1.876" transform="translate(-192.943 -245.459)" fill="#252f28"/><path d="M321.459,711.693a1.239,1.239,0,0,0,.923-1.352c-.146-.657-.722-1.168-1.228-1.093-.026,0-.053.01-.078.015a1.316,1.316,0,0,0-.993,1.573,1.193,1.193,0,0,0,1.376.856" transform="translate(-158.109 -350.375)" fill="#252f28"/><path d="M185.323,684.41a12.769,12.769,0,0,0,1.435.147,16.384,16.384,0,0,1,5.9,1.518,1.977,1.977,0,0,0,.674.051l0,0c.511-.429.479-1.078.607-1.646a7.317,7.317,0,0,0,.2-1.789,88.28,88.28,0,0,1,.8-10.79c.1-1.076.313-2.141.438-3.215.1-.833.17-1.672.2-2.51a2.235,2.235,0,0,0-.7-1.613,5.612,5.612,0,0,0-4.095-2.024,7.48,7.48,0,0,1-6.14-3.225,3.345,3.345,0,0,0-.754-.749c-.1-.065-.486.093-.563.244a3.514,3.514,0,0,0-.009,3.128,25.179,25.179,0,0,0,1.8,3.111c.451.706,1.046,1.322,1.488,2.033a3.015,3.015,0,0,1-.94,4.127c-.8.533-1.671.95-2.509,1.417s-1.72.874-2.508,1.417c-.184.127-.352.241-.5.349q2.351,5.068,4.977,9.977c.068.013.133.032.2.042" transform="translate(-88.994 -325.333)" fill="#252f28"/><path d="M868.263,672.636c-.838-.467-1.713-.883-2.509-1.417a3.015,3.015,0,0,1-.94-4.127c.442-.711,1.037-1.327,1.488-2.033a25.281,25.281,0,0,0,1.8-3.111,3.513,3.513,0,0,0-.009-3.127c-.076-.152-.462-.309-.563-.244a3.335,3.335,0,0,0-.755.749,7.48,7.48,0,0,1-6.14,3.225,5.612,5.612,0,0,0-4.095,2.024,2.231,2.231,0,0,0-.7,1.613c.025.838.1,1.677.2,2.51.125,1.074.336,2.139.438,3.215a88.3,88.3,0,0,1,.8,10.79,7.319,7.319,0,0,0,.2,1.789c.128.569.1,1.217.607,1.646h0a1.989,1.989,0,0,0,.674-.051,16.374,16.374,0,0,1,5.9-1.518,12.782,12.782,0,0,0,1.435-.147c.067-.01.132-.03.2-.041q2.625-4.909,4.978-9.979c-.151-.107-.319-.221-.5-.347-.788-.543-1.67-.95-2.508-1.417" transform="translate(-422.798 -325.338)" fill="#252f28"/><path d="M498.872,498.189a3.58,3.58,0,0,0-2.69-1.322A4.288,4.288,0,0,0,493,498.133a5.012,5.012,0,0,0-1.4,3.308h8.475a4.655,4.655,0,0,0-1.2-3.251" transform="translate(-242.857 -245.458)" fill="#252f28"/><path d="M218.608,741.784c.565.2,1.174.281,1.737.489a4.172,4.172,0,0,0,3.487-.276c.428-.218.839-.469,1.25-.718a1.309,1.309,0,0,0,.366-2.125c-.637-.72-1.352-1.373-1.967-2.109a24.692,24.692,0,0,1-1.942-2.59,3.137,3.137,0,0,1,.317-3.7c.62-.728,1.345-1.369,2.029-2.043a36,36,0,0,0,2.555-2.539,4.92,4.92,0,0,0,1.092-4.717c-.076-.255-.522-.411-.817-.578-.073-.042-.227.049-.341.088-.454.16-.919.3-1.357.492a7.054,7.054,0,0,1-3.527.552c-.6-.047-1.2-.095-1.8-.1a4.532,4.532,0,0,0-3.816,1.683,6.794,6.794,0,0,1-2.754,2.277,2.536,2.536,0,0,0-1.848,3.043,7.46,7.46,0,0,1,.008,1.09l0,0q.143,1.709.281,3.422,2.811,4.111,5.821,8.069a5.958,5.958,0,0,1,1.224.294" transform="translate(-104.348 -356.116)" fill="#252f28"/><path d="M199.447,722.328l0,0c0-1.683.011-3.367,0-5.05a2.732,2.732,0,0,0-1.41-2.374,9.274,9.274,0,0,0-5.411-1.714,4.654,4.654,0,0,1-.7-.024q3.573,6.517,7.617,12.727-.1-1.781-.1-3.567" transform="translate(-94.815 -352.315)" fill="#252f28"/><path d="M277.4,695.353a2.229,2.229,0,0,0-.24.714h0a4.571,4.571,0,0,0,.064,1.024c.791,2.783.906,5.673,1.4,8.5.042.236.076.473.121.708.086.448.781.808,1.131.568.589-.4,1.163-.828,1.742-1.245a3.922,3.922,0,0,1,2.709-.759q1.063.172,2.139.238a7.258,7.258,0,0,0,2.1-.335,2.316,2.316,0,0,0,1.585-1.347c.194-.52-.5-1.426-1.425-1.84-.655-.295-1.35-.507-1.988-.834a2.346,2.346,0,0,1-1.3-2.015,3.656,3.656,0,0,1,.38-2.092c.523-.944,1.089-1.861,1.585-2.816a3.1,3.1,0,0,0,.216-2.1c-.068-.33-.47-.691-.753-.631a36.815,36.815,0,0,1-4.21.86c-2.394.219-3.846,1.749-5.254,3.4" transform="translate(-136.916 -341.404)" fill="#252f28"/><path d="M767,741.8a3.567,3.567,0,0,0-1.4.188c-.866.408-1.651.982-2.506,1.417a7.387,7.387,0,0,1-5.54.9,12.4,12.4,0,0,0-2.851-.292,4.654,4.654,0,0,0-2.682.916.921.921,0,0,0,.044,1.515,12.764,12.764,0,0,0,1.6.8c.666.269,1.37.446,2.041.7A1.771,1.771,0,0,1,756.792,750a16.491,16.491,0,0,1-.57,1.7c-.171.447-.424.866-.564,1.321a.722.722,0,0,0,.18.614.841.841,0,0,0,.648.17,4.5,4.5,0,0,0,1.358-.429,9.826,9.826,0,0,0,2.074-1.421,8.9,8.9,0,0,1,5.527-2.34,13.533,13.533,0,0,0,1.766-.3.756.756,0,0,0,.463-.506c.13-1.071.2-2.148.3-3.343h0c0-.841.013-1.8-.005-2.753A1.091,1.091,0,0,0,767,741.8" transform="translate(-371.325 -366.457)" fill="#252f28"/><path d="M768.938,760.381a5.786,5.786,0,0,0-3.367,1.051,18.5,18.5,0,0,0-1.657,1.371,7.384,7.384,0,0,1-2.817,1.532c-.575.166-1.16.3-1.733.467a1.3,1.3,0,0,0-.793,1.655c.01.029.022.059.034.088.928,2.483,2.353,4.443,5.212,4.917h0a8.392,8.392,0,0,0,3.252-1.4,21.161,21.161,0,0,1,3.39-2.011,1.259,1.259,0,0,0,.735-1.142c.038-1.435.066-2.872.051-4.307-.02-1.984-.323-2.212-2.307-2.226" transform="translate(-374.707 -375.639)" fill="#252f28"/><path d="M793.318,684.429c.1.2.2.506.37.557a6.654,6.654,0,0,0,5.531-.313,8.985,8.985,0,0,1,5.442-1.452c.109.011.224-.066.339-.085.284-.046.5-.593.339-.891a3.922,3.922,0,0,0-.551-.911,8.633,8.633,0,0,0-1.371-1.139c-.6-.392-1.255-.691-1.878-1.045-1.786-1.016-2.273-2.041-1.978-4.154.2-1.417.4-2.834.563-3.944v0c-.056-.8-.081-1.277-.129-1.752-.011-.111-.109-.309-.152-.3-.211.019-.531.025-.61.157a60.792,60.792,0,0,0-5.9,14.927.559.559,0,0,0-.02.346" transform="translate(-391.901 -330.495)" fill="#252f28"/><path d="M772.384,677.732a10.222,10.222,0,0,0,1.67.619,6.438,6.438,0,0,0,1.429.093,5.865,5.865,0,0,1,4.453,1.985,3.75,3.75,0,0,0,.846.636.426.426,0,0,0,.585-.144.413.413,0,0,0,.028-.055,3.645,3.645,0,0,0,.5-.936c.839-3.511,2.407-6.751,3.724-10.085.306-.777.653-1.538.948-2.23h0c-.066-.318-.044-.64-.176-.726s-.444,0-.643.086a9.346,9.346,0,0,0-4.247,3.73,31.939,31.939,0,0,1-1.817,2.668,4.685,4.685,0,0,1-3.331,1.887c-1.306.139-2.6.414-3.889.667a.876.876,0,0,0-.75.677,1.05,1.05,0,0,0,.667,1.126" transform="translate(-381.234 -329.436)" fill="#252f28"/><path d="M799.064,706.525a27.009,27.009,0,0,1,2.065-1.993,7.061,7.061,0,0,0,2.046-2.9.915.915,0,0,0-.391-.914,4.877,4.877,0,0,0-3.826.133,10.165,10.165,0,0,0-1.541.921,5.578,5.578,0,0,1-3.764.907c-.714-.051-1.431-.078-2.147-.094a1.537,1.537,0,0,0-1.062.86c-.077.226-.173.447-.23.678a82.27,82.27,0,0,0-1.4,8.869,1.559,1.559,0,0,0,.067.708c.073.209.23.526.386.548a41.8,41.8,0,0,1,5.222,1.172,2.622,2.622,0,0,0,2.087-.325,18.9,18.9,0,0,1,5.64-2.119v0a1.1,1.1,0,0,0-.493-1.26c-.75-.592-1.569-1.1-2.319-1.687a2.382,2.382,0,0,1-.48-3.334c.043-.058.089-.114.138-.167" transform="translate(-389.68 -346.002)" fill="#252f28"/><path d="M251.313,704.527a27.052,27.052,0,0,1,2.065,1.993q.073.08.138.168a2.381,2.381,0,0,1-.48,3.333c-.751.591-1.569,1.1-2.319,1.687a1.1,1.1,0,0,0-.493,1.26l0,0a18.9,18.9,0,0,1,5.64,2.119,2.62,2.62,0,0,0,2.087.325,41.806,41.806,0,0,1,5.223-1.172c.155-.022.312-.339.385-.548a1.551,1.551,0,0,0,.067-.708,82.276,82.276,0,0,0-1.4-8.869c-.057-.231-.153-.452-.23-.678a1.54,1.54,0,0,0-1.063-.86c-.716.016-1.433.043-2.147.094a5.575,5.575,0,0,1-3.764-.907,10.17,10.17,0,0,0-1.541-.921,4.881,4.881,0,0,0-3.826-.134.916.916,0,0,0-.391.914,7.061,7.061,0,0,0,2.046,2.9" transform="translate(-123.135 -346)" fill="#252f28"/><path d="M768.594,723.595c-1.2-.857-2.171-1.553-3.146-2.245a2.621,2.621,0,0,0-1.7-.465,8.139,8.139,0,0,0-1.429.173,4.9,4.9,0,0,1-3.807-.6,4.028,4.028,0,0,0-.975-.455.693.693,0,0,0-.6.157.831.831,0,0,0-.158.658,21.306,21.306,0,0,0,.667,2.039c1.045,2.762.5,4.331-1.987,5.671-.528.284-1.082.526-1.585.85a4.969,4.969,0,0,0-1.822,1.708.849.849,0,0,0-.113.658.673.673,0,0,0,.6.248,8.512,8.512,0,0,1,5.309-.1,4.943,4.943,0,0,0,4.155-.534c.627-.354,1.234-.746,1.872-1.082a8.228,8.228,0,0,1,3.39-1.133,1.274,1.274,0,0,0,1.2-1.141,12.341,12.341,0,0,0,.129-4.4Z" transform="translate(-371.457 -355.683)" fill="#252f28"/><path d="M801.718,729.237l-.049-.01a4.059,4.059,0,0,0-2.462.269c-.643.321-1.288.644-1.9,1.012a5.841,5.841,0,0,1-4.166.651c-.586-.1-1.146-.369-1.732-.455a14.889,14.889,0,0,0-2.139-.131,1.292,1.292,0,0,0-1.2,1.132c-.171,3.108-.327,6.216-.487,9.324v0l-.07,0c0,.359-.009.717,0,1.076a.99.99,0,0,0,.891.946,11.731,11.731,0,0,1,5.24,1.03c.11.046.23.071.34.118a3.853,3.853,0,0,0,3.463-.222q1.6-.825,3.173-1.684a1.359,1.359,0,0,0,.617-1.82l0-.007c-.29-.523-.621-1.023-.927-1.536-.246-.411-.5-.819-.722-1.244a2.447,2.447,0,0,1,.351-2.689c.664-.688,1.4-1.3,2.061-2a3.324,3.324,0,0,0,.935-1.9,1.571,1.571,0,0,0-1.211-1.863" transform="translate(-389.038 -360.208)" fill="#252f28"/><path d="M226.289,677.923a9.433,9.433,0,0,1-4.969.263,4.148,4.148,0,0,0-.716-.059,4.679,4.679,0,0,0-3.652,1.214,11.036,11.036,0,0,1-3.923,2.472,1.759,1.759,0,0,0-1.183,1.646c-.152,1.914-.32,3.827-.4,5.744-.064,1.557-.014,3.119-.014,4.679h-.223c0,2.519-.012,5.039.011,7.557a8.429,8.429,0,0,0,.228,1.4.546.546,0,0,0,.039.077.618.618,0,0,0,.849.209,8.88,8.88,0,0,0,1.176-.8c.624-.56,1.2-1.178,1.8-1.762a5.227,5.227,0,0,1,3.9-1.548c1.32.033,2.639.067,3.959.072a4.717,4.717,0,0,0,2.1-.389.864.864,0,0,0,.394-1.417,16.613,16.613,0,0,0-3.651-2.9c-.7-.456-1.455-.845-2.126-1.344a3.677,3.677,0,0,1-1.208-4.5,8.291,8.291,0,0,1,3.383-4.087c.823-.491,1.689-.916,2.5-1.425a11.692,11.692,0,0,0,1.72-1.288,3.77,3.77,0,0,0,1.25-2.514c.071-.833-.516-1.526-1.245-1.3" transform="translate(-104.339 -334.882)" fill="#252f28"/><path d="M201.615,646.127a51.336,51.336,0,0,1,5.353-13.679,7.072,7.072,0,0,0,.578-1.311.823.823,0,0,0-.231-.638,2.461,2.461,0,0,0-2.284-.765,5.641,5.641,0,0,0-3.4,1.869,10.038,10.038,0,0,0-2.055,3.359c-.838,2.376-2.664,3.613-4.878,4.434-.9.334-1.84.553-2.728.911a5.942,5.942,0,0,0-1.522.931,2.383,2.383,0,0,0-.45.829,2.886,2.886,0,0,0,.178.8c.31.511.679.986,1.014,1.483a4.784,4.784,0,0,0,3.6,2.125,10.761,10.761,0,0,1,3.811.967c2.646,1.351,2.524,1.048,3.014-1.312" transform="translate(-93.863 -311.077)" fill="#252f28"/><path d="M776.6,696.073h0a2.231,2.231,0,0,0-.24-.714c-1.408-1.655-2.86-3.185-5.254-3.4a36.8,36.8,0,0,1-4.21-.86c-.283-.06-.685.3-.753.631a3.1,3.1,0,0,0,.216,2.1c.5.956,1.063,1.872,1.585,2.816a3.662,3.662,0,0,1,.38,2.092,2.345,2.345,0,0,1-1.3,2.015c-.638.327-1.333.539-1.988.834-.923.414-1.619,1.32-1.425,1.84a2.314,2.314,0,0,0,1.585,1.347,7.253,7.253,0,0,0,2.1.335,21.51,21.51,0,0,0,2.139-.238,3.923,3.923,0,0,1,2.709.759c.579.417,1.153.842,1.742,1.245.35.239,1.045-.12,1.131-.568.045-.235.079-.473.121-.708.5-2.828.611-5.718,1.4-8.5a4.542,4.542,0,0,0,.064-1.024" transform="translate(-377.218 -341.407)" fill="#252f28"/><path d="M715.276,729.277v0c-.2.118-.572.224-.736.469a1.354,1.354,0,0,0,.007,1.345c.171.365.953.662,1.214.421a1.6,1.6,0,0,0,.5-.86,1.221,1.221,0,0,0-.989-1.374" transform="translate(-352.906 -360.272)" fill="#252f28"/><path d="M800.911,759.015a6.591,6.591,0,0,0-1.037.284c-.879.389-1.745.81-2.608,1.233a3.849,3.849,0,0,1-3.474.142c-.436-.2-.9-.344-1.33-.557a7.028,7.028,0,0,0-3.16-.591,5.517,5.517,0,0,0-1.063.17,1.223,1.223,0,0,0-.905,1c-.055.839-.094,1.679-.137,2.473h0c.051.889.074,1.731.152,2.569a1.318,1.318,0,0,0,1.02,1.331,9.04,9.04,0,0,1,5.3,2.825,1.681,1.681,0,0,0,1.714.237,3.054,3.054,0,0,0,.95-.491,18.613,18.613,0,0,0,3.951-4.182,16.556,16.556,0,0,0,1.569-3.231,4.316,4.316,0,0,0,.137-2.492,1.04,1.04,0,0,0-1.074-.715" transform="translate(-388.886 -374.962)" fill="#252f28"/><path d="M743.121,709.264q-.039-.009-.079-.015c-.506-.075-1.082.436-1.228,1.093a1.238,1.238,0,0,0,.923,1.352,1.192,1.192,0,0,0,1.376-.856,1.315,1.315,0,0,0-.993-1.573" transform="translate(-366.462 -350.375)" fill="#252f28"/><path d="M270.071,679.931a3.634,3.634,0,0,0,.5.936.382.382,0,0,0,.028.055.426.426,0,0,0,.585.144,3.751,3.751,0,0,0,.847-.636,5.865,5.865,0,0,1,4.453-1.985,6.438,6.438,0,0,0,1.429-.093,10.205,10.205,0,0,0,1.67-.619,1.049,1.049,0,0,0,.667-1.126.876.876,0,0,0-.75-.677c-1.291-.253-2.583-.528-3.889-.667a4.687,4.687,0,0,1-3.331-1.887,32.035,32.035,0,0,1-1.817-2.668,9.344,9.344,0,0,0-4.247-3.73c-.2-.086-.511-.172-.643-.086s-.109.407-.176.726h0c.3.692.642,1.453.948,2.23,1.316,3.333,2.885,6.574,3.724,10.085" transform="translate(-131.111 -329.436)" fill="#252f28"/><path d="M824.256,681.745a11.689,11.689,0,0,0,1.72,1.288c.81.509,1.675.934,2.5,1.425a8.289,8.289,0,0,1,3.383,4.087,3.677,3.677,0,0,1-1.208,4.5c-.67.5-1.422.888-2.125,1.344a16.6,16.6,0,0,0-3.651,2.9.864.864,0,0,0,.394,1.417,4.726,4.726,0,0,0,2.1.389c1.32-.005,2.639-.04,3.959-.072a5.227,5.227,0,0,1,3.9,1.548c.6.584,1.175,1.2,1.8,1.762a8.817,8.817,0,0,0,1.176.8.618.618,0,0,0,.849-.209.526.526,0,0,0,.039-.077,8.415,8.415,0,0,0,.228-1.4c.023-2.519.011-5.038.011-7.557h-.223c0-1.559.051-3.122-.014-4.679-.08-1.917-.248-3.83-.4-5.744a1.76,1.76,0,0,0-1.183-1.646,11.035,11.035,0,0,1-3.923-2.472,4.679,4.679,0,0,0-3.652-1.214,4.155,4.155,0,0,0-.716.059,9.427,9.427,0,0,1-4.969-.263c-.729-.226-1.316.466-1.245,1.3a3.77,3.77,0,0,0,1.25,2.514" transform="translate(-406.574 -334.886)" fill="#252f28"/><path d="M477.809,471.082a7.356,7.356,0,0,0-.793-3.119.774.774,0,0,0-.607-.3.741.741,0,0,0-.564.336,3.543,3.543,0,0,0-.407,1.349c-.022,1.8.044,3.609.047,5.414a2.443,2.443,0,0,1-.238,1.025c-.079.166-.437.372-.557.317-.871-.4-1.728-.828-2.559-1.3a1.375,1.375,0,0,1-.652-1.224c.009-1.319.026-2.644.165-3.954a4.161,4.161,0,0,1,1.914-3.313,10.261,10.261,0,0,0,1.36-1.17.767.767,0,0,0,.051-.988,28.1,28.1,0,0,0-2.181-1.877,3.6,3.6,0,0,0-1.356-.409,1.046,1.046,0,0,0-1.123.7c-.057.717-.114,1.436-.118,2.155-.014,2.406.01,4.814-.021,7.22a3.19,3.19,0,0,1-.365.983c-.083-.036-.215-.051-.241-.111a3.371,3.371,0,0,1-.363-.971c-.255-2.634-.471-5.273-.718-7.908a12.98,12.98,0,0,0-.271-1.4.825.825,0,0,0-.865-.474,5.943,5.943,0,0,0-.989.4c-.825.5-1.628,1.025-2.434,1.551-.47.307-1.283.5-1.113,1.158.146.563.923.68,1.514.827.466.116.911.309,1.382.409a2.063,2.063,0,0,1,1.727,2.358c0,.24.012.481.024.722.2,3.788.489,3.792-3.458,4.04-1.549.1-3.082.425-4.625.637-.287.04-.672-.487-.55-.732.267-.535.535-1.069.81-1.6.39-.744.8-1.477,1.175-2.226a1.826,1.826,0,0,0,.173-.695,1.7,1.7,0,0,0-.733-1.549,1.281,1.281,0,0,0-1.627.292,5.532,5.532,0,0,0-.675.833c-.245.411-.432.86-.635,1.294-.146.313-.3.764-.661.666-.259-.07-.424-.516-.613-.805a13.115,13.115,0,0,0-.77-1.206.925.925,0,0,0-.974-.309c-.474.124-.981.618-.961.966a8.753,8.753,0,0,0,.14,1.417,13.465,13.465,0,0,1,.184,4.309c-.116,1.136-1.118,1.555-2.125.908a7.1,7.1,0,0,1-2.5-2.553c-.553-1.022-.712-1.638.137-2.658.923-1.109,1.9-2.171,2.842-3.268a3.8,3.8,0,0,0,.576-.906,1.938,1.938,0,0,0,.1-1.4c-.133-.427-.759-.817-1.113-.614-.827.473-1.636.976-2.459,1.456-.093.054-.3.088-.327.051-.119-.2-.313-.453-.265-.629a10.8,10.8,0,0,1,.712-2.017c.433-.857.99-1.65,1.467-2.484a8.64,8.64,0,0,0,1.21-5.187,6.507,6.507,0,0,0-.14-.708,1.081,1.081,0,0,0-1.17-.6c-.43.2-.832.468-1.257.683-.4.2-.819.07-.879-.253-.506-2.713-1.1-5.414-1.492-8.143a16.072,16.072,0,0,1,.27-6.806c.266-.923.431-1.876.687-2.8a9.408,9.408,0,0,0,.265-3.932,3.012,3.012,0,0,0-.628-1.254,1.128,1.128,0,0,0-1.582-.2l-.014.011a3.755,3.755,0,0,0-.768.747,5.388,5.388,0,0,0-.969,2.685c-.075,1.682-.115,3.365-.187,5.047a6.651,6.651,0,0,1-.179,1.4c-.037.141-.455.341-.549.28a15.78,15.78,0,0,1-1.728-1.257,6.386,6.386,0,0,0-2.515-1.363,1.916,1.916,0,0,0-1.957.626,2.024,2.024,0,0,0-.459,2.315,3.561,3.561,0,0,0,1.4,1.619c.935.544,1.892,1.049,2.837,1.575a14.519,14.519,0,0,1,2.932,2.082,6.352,6.352,0,0,1,2.157,4.018,11.7,11.7,0,0,1,.325,3.562c-.019.106-.131.279-.194.277-.2-.007-.494-.022-.567-.144-.68-1.134-1.293-2.308-1.98-3.437a9.045,9.045,0,0,0-2.58-2.974.972.972,0,0,0-1.329.348.961.961,0,0,0-.095.22,7.5,7.5,0,0,0-.189,2.131,11.3,11.3,0,0,0,3.118,6.757,20.341,20.341,0,0,0,2.384,2.2,3.825,3.825,0,0,1,1.412,4.477c-.028.111-.131.2-.171.312a.78.78,0,0,1-.911.336,9.768,9.768,0,0,1-.892-.582c-.941-.75-1.861-1.526-2.8-2.277a2.524,2.524,0,0,0-1.687-.512,1.33,1.33,0,0,0-1.208.63,1.534,1.534,0,0,0,.218,1.684,8.978,8.978,0,0,0,1.41,1.1c1.251.719,2.541,1.369,3.809,2.059a3.838,3.838,0,0,1,1.891,2.521c.08.3-.293.786-.6.741a13.342,13.342,0,0,1-4.725-1.646c-2.631-1.518-2.783-1.681-3.649-4.584-1.1-3.686-2.253-7.361-3.2-11.087-1.338-5.24-2.518-10.525-3.491-15.846-.433-2.364-.914-4.721-1.3-7.092a69.925,69.925,0,0,1-1.021-7.865c-.145-2.877-.567-5.741-.893-8.609a24.182,24.182,0,0,1,.021-6.477,7.325,7.325,0,0,0,.1-1.078c.034-4.655,1.569-8.975,3.009-13.312a23.194,23.194,0,0,1,9.979-12.4,46.815,46.815,0,0,1,12.788-5.713,18.657,18.657,0,0,1,4.989-.639q10.11-.025,20.219-.184c3.128-.048,6.252-.259,9.379-.334,5.9-.142,11.793-.212,17.689-.364,3.729-.1,7.455-.289,11.182-.432,1.2-.046,2.413,0,3.608-.118A12.994,12.994,0,0,1,527,374.348a53.163,53.163,0,0,1,6.086,3.326,197.485,197.485,0,0,0,4.818-43.458c0-108.708-88.126-196.834-196.834-196.834S144.233,225.509,144.233,334.217a197.507,197.507,0,0,0,4.816,43.454,53.263,53.263,0,0,1,6.087-3.327,12.994,12.994,0,0,1,6.974-1.426c1.2.118,2.405.072,3.608.118,3.727.143,7.453.335,11.182.432,5.9.152,11.793.222,17.689.364,3.127.075,6.251.287,9.379.334q10.11.159,20.219.184a18.656,18.656,0,0,1,4.989.639A46.835,46.835,0,0,1,241.97,380.7a23.2,23.2,0,0,1,9.979,12.4c1.441,4.337,2.975,8.657,3.009,13.312a7.47,7.47,0,0,0,.1,1.078,24.179,24.179,0,0,1,.021,6.477c-.326,2.867-.748,5.732-.893,8.609a69.814,69.814,0,0,1-1.021,7.865c-.39,2.371-.871,4.728-1.3,7.092-.974,5.322-2.153,10.606-3.491,15.846-.952,3.726-2.1,7.4-3.2,11.087-.866,2.9-1.018,3.066-3.649,4.584a13.34,13.34,0,0,1-4.725,1.646c-.3.045-.676-.438-.6-.741a3.839,3.839,0,0,1,1.891-2.521c1.267-.69,2.558-1.34,3.809-2.059a8.954,8.954,0,0,0,1.41-1.1,1.532,1.532,0,0,0,.218-1.684,1.33,1.33,0,0,0-1.208-.63,2.524,2.524,0,0,0-1.687.512c-.941.751-1.861,1.527-2.8,2.277a9.645,9.645,0,0,1-.892.582.781.781,0,0,1-.911-.336c-.04-.11-.143-.2-.171-.312a3.825,3.825,0,0,1,1.412-4.477,20.26,20.26,0,0,0,2.384-2.2,11.3,11.3,0,0,0,3.118-6.757,7.475,7.475,0,0,0-.189-2.131.961.961,0,0,0-.095-.22.971.971,0,0,0-1.329-.348,9.045,9.045,0,0,0-2.581,2.974c-.687,1.129-1.3,2.3-1.98,3.437-.073.122-.371.137-.567.144-.063,0-.175-.171-.194-.277a11.7,11.7,0,0,1,.325-3.562,6.353,6.353,0,0,1,2.157-4.018,14.534,14.534,0,0,1,2.932-2.082c.946-.526,1.9-1.031,2.838-1.575a3.556,3.556,0,0,0,1.394-1.613,2.024,2.024,0,0,0-.459-2.315,1.916,1.916,0,0,0-1.957-.626,6.386,6.386,0,0,0-2.515,1.363,15.772,15.772,0,0,1-1.728,1.257c-.094.061-.512-.14-.549-.28a6.651,6.651,0,0,1-.179-1.4c-.072-1.682-.112-3.365-.187-5.047a5.389,5.389,0,0,0-.969-2.685,3.755,3.755,0,0,0-.768-.747l-.014-.011a1.128,1.128,0,0,0-1.582.2,3.006,3.006,0,0,0-.628,1.254,9.407,9.407,0,0,0,.264,3.932c.256.926.421,1.879.687,2.8a16.072,16.072,0,0,1,.271,6.806c-.394,2.729-.987,5.43-1.493,8.143-.06.323-.479.455-.879.253-.426-.215-.827-.48-1.257-.683a1.081,1.081,0,0,0-1.17.6,6.486,6.486,0,0,0-.14.708,8.64,8.64,0,0,0,1.21,5.187c.477.835,1.035,1.628,1.467,2.484a10.8,10.8,0,0,1,.712,2.017c.048.177-.146.432-.264.629-.024.037-.235,0-.327-.051-.823-.48-1.632-.983-2.459-1.456-.354-.2-.98.187-1.113.614a1.94,1.94,0,0,0,.1,1.4,3.791,3.791,0,0,0,.576.906c.938,1.1,1.919,2.159,2.842,3.268.849,1.02.69,1.636.137,2.658a7.1,7.1,0,0,1-2.5,2.553c-1.007.648-2.009.228-2.125-.908a13.464,13.464,0,0,1,.184-4.309,8.758,8.758,0,0,0,.14-1.417c.02-.348-.487-.841-.961-.966a.925.925,0,0,0-.973.309,12.9,12.9,0,0,0-.77,1.206c-.189.289-.355.735-.614.805-.357.1-.515-.353-.66-.666-.2-.434-.39-.883-.636-1.294a5.534,5.534,0,0,0-.675-.833,1.281,1.281,0,0,0-1.627-.292,1.7,1.7,0,0,0-.732,1.549,1.815,1.815,0,0,0,.172.695c.376.749.785,1.483,1.175,2.226.274.529.543,1.064.81,1.6.121.244-.264.772-.551.732-1.542-.212-3.076-.54-4.625-.637-3.948-.245-3.661-.252-3.458-4.04.013-.24.029-.481.024-.722a2.063,2.063,0,0,1,1.727-2.358c.471-.1.916-.293,1.382-.409.591-.147,1.368-.264,1.514-.827.17-.657-.643-.852-1.113-1.158-.806-.526-1.61-1.056-2.434-1.551a5.927,5.927,0,0,0-.989-.4.825.825,0,0,0-.865.474,13.1,13.1,0,0,0-.271,1.4c-.247,2.635-.463,5.274-.718,7.908a3.372,3.372,0,0,1-.363.971c-.026.061-.158.075-.241.111a3.191,3.191,0,0,1-.365-.983c-.031-2.406-.007-4.814-.021-7.22,0-.719-.061-1.438-.118-2.155a1.046,1.046,0,0,0-1.123-.7,3.591,3.591,0,0,0-1.356.409,28.181,28.181,0,0,0-2.181,1.877.767.767,0,0,0,.051.988,10.26,10.26,0,0,0,1.36,1.17,4.162,4.162,0,0,1,1.914,3.313c.14,1.31.157,2.635.165,3.954a1.374,1.374,0,0,1-.652,1.224c-.831.473-1.688.906-2.559,1.3-.12.055-.477-.151-.557-.317a2.445,2.445,0,0,1-.238-1.025c0-1.8.069-3.61.047-5.414a3.536,3.536,0,0,0-.407-1.349.741.741,0,0,0-.564-.336.774.774,0,0,0-.607.3,7.356,7.356,0,0,0-.793,3.119c-.04,1.2-.067,2.406-.141,3.608-.031.281-.079.559-.136.835a196.824,196.824,0,0,0,274.04,0c-.056-.277-.1-.556-.136-.837-.074-1.2-.1-2.4-.141-3.608m25.363-104.647c2.042,0,4.084.011,6.126,0,3.123-.021,6.246-.077,9.369-.081a28.041,28.041,0,0,1,3.232.176c1.46.167,1.95.885,1.84,2.513A1.319,1.319,0,0,1,522.7,370.3c-.476.051-.953.113-1.431.125-9.125.235-18.257.339-27.374.726-10.8.455-21.613.5-32.422.658-1.8.026-3.592.2-5.393.29a12.7,12.7,0,0,1-1.428-.045,1.355,1.355,0,0,1-.979-.953,2.886,2.886,0,0,1-.092-.708,1.728,1.728,0,0,1,1.4-1.828,40.284,40.284,0,0,1,4.29-.475c6.723-.174,13.448-.275,20.172-.424,1.2-.026,2.393-.145,3.589-.236,1.676-.128,3.349-.324,5.027-.393,5.04-.2,10.081-.36,15.121-.534ZM447.76,216.327V237.71l-.551,12.675h.33c5.4-5.952,11.684-10.471,19.951-10.471,12.675,0,18.519,7.495,18.519,21.606v33.285h-9.148V262.729c0-10.14-3.527-14.88-12.235-14.88-6.393,0-10.691,3.2-16.864,9.589v37.367h-9.148l0-78.478Zm-219.3,154.779a1.354,1.354,0,0,1-.979.953,12.7,12.7,0,0,1-1.428.045c-1.8-.088-3.595-.264-5.393-.29-10.808-.161-21.617-.2-32.422-.658-9.117-.387-18.248-.49-27.374-.726-.478-.012-.955-.075-1.431-.125a1.319,1.319,0,0,1-1.041-1.265c-.11-1.628.38-2.345,1.84-2.513a28.041,28.041,0,0,1,3.232-.176c3.123,0,6.246.06,9.369.081,2.042.014,4.084,0,6.126,0l0,.073c5.04.175,10.081.332,15.121.534,1.678.068,3.351.265,5.027.393,1.2.091,2.391.209,3.589.236,6.724.149,13.449.25,20.172.424a40.284,40.284,0,0,1,4.29.475,1.728,1.728,0,0,1,1.4,1.828,2.86,2.86,0,0,1-.092.708m15.06-76.3h-9.15V262.729c0-10.14-3.527-14.88-12.235-14.88-6.393,0-10.691,3.2-16.864,9.589v37.367h-9.149V216.327h9.149V237.71l-.551,12.675h.331c5.4-5.952,11.684-10.471,19.95-10.471,12.676,0,18.519,7.495,18.519,21.606Zm162.906-54.892a27.225,27.225,0,0,1,19.509,7.826l-4.519,5.842c-4.409-3.747-9.038-6.061-14.66-6.061-12.346,0-20.832,8.267-20.832,20.611,0,12.235,8.377,20.391,20.612,20.391,6.613,0,12.125-2.976,16.534-6.724l4.078,5.952a31.9,31.9,0,0,1-21.274,8.377c-16.753,0-29.318-10.251-29.318-28,0-17.967,13.668-28.217,29.87-28.217m-3.773,79.759v-2.137h3.166v-4.508h2.406v4.508h5.6v2.137h-5.6v9.434a3.649,3.649,0,0,0,.665,2.335,2.19,2.19,0,0,0,1.806.831,9.569,9.569,0,0,0,4-.9l.425,1.916a11.685,11.685,0,0,1-4.891,1.139q-4.416,0-4.416-4.669V319.672Zm-7.719.595a2.524,2.524,0,0,0-2.208-.99q-2.264,0-4.859,2.817v11.935H385.4V317.536h2.469v2.421a7.729,7.729,0,0,1,5.6-2.818q4.638,0,4.638,5.6v11.286H395.64V323.455a5.606,5.606,0,0,0-.7-3.189m-25.909,7.367a4.312,4.312,0,0,1,1.441-1.575,7.758,7.758,0,0,1,2.31-1.013,17.433,17.433,0,0,1,3.229-.517l2.77-.222v-.791q0-4.242-3.957-4.242a9.089,9.089,0,0,0-2.365.4,12.137,12.137,0,0,0-2.461.961l-.649-1.773a13.873,13.873,0,0,1,6.268-1.726q5.634,0,5.634,5.968V330.2a16.119,16.119,0,0,0,.413,3.829h-2.453a9.507,9.507,0,0,1-.3-2.66,6.59,6.59,0,0,1-5.73,3.087,4.6,4.6,0,0,1-3.236-1.306,4.389,4.389,0,0,1-1.4-3.363,4.563,4.563,0,0,1,.49-2.152m-54.416-85.846,15.541-.552,1.214-17.194h7.6v17.194H365.2v7.385H338.972v25.462c0,9.589,3.2,14.55,13.557,14.55a35.223,35.223,0,0,0,12.786-2.426l1.984,6.724a46.735,46.735,0,0,1-16.754,3.2c-15.652,0-20.721-8.928-20.721-22.155v-25.35H314.611Zm37.527,72.044v-2.137h6.775v20.2h4.274v2.138h-6.743v-20.2Zm-32.87,5.644a6.574,6.574,0,0,1,5.215-2.335,6.1,6.1,0,0,1,4.764,2.169,8.413,8.413,0,0,1,1.916,5.778v.775H319.845a6.685,6.685,0,0,0,1.626,4.622,5.127,5.127,0,0,0,3.981,1.82,14.447,14.447,0,0,0,4.637-.808l.427,1.979a12.333,12.333,0,0,1-5.1.981,7.8,7.8,0,0,1-5.92-2.358,8.839,8.839,0,0,1-2.248-6.363,9.242,9.242,0,0,1,2.018-6.26m7,34.837a1.82,1.82,0,0,1,.724-.927,10.058,10.058,0,0,1,3.142-.846,78.507,78.507,0,0,1,14.356-.83c3.2,0,6.065-.023,8.93.01,1.331.015,1.9.679,1.852,2.106a8.893,8.893,0,0,1-.314,2,1.449,1.449,0,0,1-1.134,1.058,9.041,9.041,0,0,1-1.627.141c-1.911.024-3.822.017-5.733.039-3.955.047-7.911.007-11.861.4-2.166.216-4.363.162-6.545.173-1.272.007-1.918-.74-1.931-2.116a3.293,3.293,0,0,1,.141-1.209m13.249-36.476a6.551,6.551,0,0,1,2.956-.7,5.145,5.145,0,0,1,4.471,2.351,10.556,10.556,0,0,1,1.626,6.118,11.071,11.071,0,0,1-1.7,6.323,5.267,5.267,0,0,1-4.581,2.524,5.683,5.683,0,0,1-2.873-.768,5.832,5.832,0,0,1-2.113-2.034v8.9H334.83V317.535H337.3l-.01,2.137a5.95,5.95,0,0,1,2.224-1.835m-36.256.552a8.775,8.775,0,0,1,4.951-1.251,16.616,16.616,0,0,1,4.433.681l-.557,2.075a12.552,12.552,0,0,0-3.909-.681,6.393,6.393,0,0,0-3.182.672,2.022,2.022,0,0,0-1.171,1.8,1.688,1.688,0,0,0,.538,1.242,5.312,5.312,0,0,0,2.154.99l2.358.681a10.385,10.385,0,0,1,2.66,1.1,4.38,4.38,0,0,1,1.543,1.552,4.226,4.226,0,0,1,.518,2.113,4.3,4.3,0,0,1-1.979,3.727,8.652,8.652,0,0,1-5.034,1.369,11.943,11.943,0,0,1-5.017-.918l.475-2.136a10.256,10.256,0,0,0,4.448.981,6.48,6.48,0,0,0,3.347-.768,2.3,2.3,0,0,0,1.29-2.034,2.156,2.156,0,0,0-.641-1.528,7.759,7.759,0,0,0-3.016-1.4q-1.915-.585-2.817-.878a5.872,5.872,0,0,1-1.677-.862,3.952,3.952,0,0,1,.285-6.521m-48.276-77.151h9.148v32.074c0,10.031,3.527,14.88,12.346,14.88,6.173,0,10.691-2.866,16.643-9.81V241.237h9.148V294.8h-7.606l-.771-9.369h-.441c-5.4,6.283-11.684,10.691-19.95,10.691-12.676,0-18.518-7.495-18.518-21.6Zm33.865,93.185q-4.638,0-4.637-5.616V317.535h2.469v10.557a5.917,5.917,0,0,0,.665,3.142,2.465,2.465,0,0,0,2.248,1.035q2.263,0,4.859-2.818V317.535h2.47v16.493h-2.47v-2.439a7.7,7.7,0,0,1-5.6,2.833m-20.563-14.917a7.366,7.366,0,0,1,10.827.008,9.347,9.347,0,0,1,2.01,6.252,9.457,9.457,0,0,1-2.01,6.3,7.343,7.343,0,0,1-10.374.467c-.16-.146-.314-.3-.46-.459a9.48,9.48,0,0,1-2-6.307,9.34,9.34,0,0,1,2.01-6.26m-10.434-.229q-2.263,0-4.859,2.817v11.935h-2.469V311.694h2.469v8.263a7.729,7.729,0,0,1,5.6-2.817q4.637,0,4.637,5.6v11.286h-2.47V323.455a5.6,5.6,0,0,0-.7-3.189,2.524,2.524,0,0,0-2.208-.99m60.76,194.942c-.253.038-.551.152-.759.064q-2.268-.949-4.5-1.973a20.526,20.526,0,0,0-12.845-1.323,25.726,25.726,0,0,1-12.566-.346,71.435,71.435,0,0,1-9.176-3.527c-.119-.054-.205-.177-.321-.245a.982.982,0,0,1-.241-1.368c.017-.024.034-.046.052-.068a11.338,11.338,0,0,1,4.284-2.309c.31-.1.915.334.872.645-.074.541-.183,1.078-.253,1.619-.085.658-.349,1.491.394,1.822.644.284,1.326-.206,1.869-.618,1.08-.82,2.122-1.694,3.191-2.556v0a24.886,24.886,0,0,0,2.44.517,5.568,5.568,0,0,0,4.281-.992c.321-.253.676-.464,1.016-.694a3.673,3.673,0,0,1,3.884-.3c.493.238.992.461,1.485.7a10.743,10.743,0,0,0,4.745,1.132c2.7-.009,5.039,1.143,7.321,2.4a8.722,8.722,0,0,1,3.22,3.1c.644,1.044,1.19,2.149,1.757,3.238.257.493.16,1.04-.148,1.086M285.343,494.9l.086-.086.187.227ZM401.7,507.235a14.876,14.876,0,0,1-8.374,2.51h0c-.255-.032-1.2-.137-2.151-.268-1.76-.245-3.515-.53-5.276-.752a13.759,13.759,0,0,0-7.584,1.283c-.87.4-1.723.835-2.57,1.282a66.082,66.082,0,0,1-8.72,3.563,14.148,14.148,0,0,1-5.222.893,52.958,52.958,0,0,1-5.313-.385c-2.167-.286-4.3-.8-6.468-1.091a37.061,37.061,0,0,0-9.415-.015c-2.985.354-5.96.819-8.946,1.167a26.9,26.9,0,0,1-3.688.126,4.612,4.612,0,0,1-1.556-.426,1.386,1.386,0,0,1-.659-1.846,1.337,1.337,0,0,1,.128-.217,6.862,6.862,0,0,1,1.173-1.128,10.718,10.718,0,0,1,2.143-1.193,13.914,13.914,0,0,0,6.042-4.08,2.331,2.331,0,0,1,2.245-.755,4.81,4.81,0,0,0,4.685-1.915,12.258,12.258,0,0,1,1.477-1.413,2.609,2.609,0,0,1,1.946-.447c.411.033.942.383.911.649a1.6,1.6,0,0,1-.193.774c-1.045,1.262-2.149,2.474-3.182,3.744a4,4,0,0,0-1.008,2.2c-.024.313.111.581.426.615a12.451,12.451,0,0,0,4.064-.2,22.6,22.6,0,0,0,9.658-4.28,4.313,4.313,0,0,1,1-.708,2.927,2.927,0,0,1,1.539-.366,27.406,27.406,0,0,1,7.043,2.11,23.227,23.227,0,0,0,3.795,1.528,6.093,6.093,0,0,0,4.756-.547,4.73,4.73,0,0,0,1.494-1.356c.584-.753,1.017-1.619,1.569-2.4a5.778,5.778,0,0,1,3.314-2.273,1.762,1.762,0,0,1,1.557.3,9.754,9.754,0,0,1,1.435,1.437,3.676,3.676,0,0,0,3.694,1.242c.67-.118,1.322-.329,1.984-.494s1.32-.351,1.99-.478a2.866,2.866,0,0,1,2.693.593,4.341,4.341,0,0,0,3.394,1.141,25.839,25.839,0,0,1,2.868.028,3.186,3.186,0,0,1,1.113.438c.455.229.582,1.188.187,1.417m-32.339-19.647a22.834,22.834,0,0,0-5.1,7.255c.013,0,.024,0,.037-.005l0,0,0,0,.049.075c.729-.016,1.457-.037,2.186-.041.62,0,1.239.014,1.858.023-.007-.029-.01-.058-.017-.086l.071.087h-.054a3.709,3.709,0,0,1-.4,2.66.905.905,0,0,1-1.051.3,7.728,7.728,0,0,1-2.589-2.945l-.121,0,0,0c.01-.024.022-.046.032-.069-.715.155-1.255-.387-1.9-.5-.337-.058-.882.393-.821.708.235,1.2.493,2.4.711,3.6a.37.37,0,0,1-.244.463.374.374,0,0,1-.177.011.641.641,0,0,1-.36-.166,5.375,5.375,0,0,1-1.372-3.332,30.3,30.3,0,0,0-3.67-10.34c-.054-.1-.221-.146-.343-.194a.427.427,0,0,0-.582.16.432.432,0,0,0-.053.163c-.135.527-.218,1.069-.354,1.595-.526,2.01-.154,4.072-.377,6.1-.017.151-.53.422-.622.359-1.121-.766-2.195-1.6-3.306-2.384a5.615,5.615,0,0,0-2.192-1.063c-.653-.123-1.441-.017-1.487.338a3.07,3.07,0,0,0,.015,1.163,10.747,10.747,0,0,0,2.136,3.929c.6.745,1.256,1.44,1.894,2.151.458.51,1.078,1.117.726,1.759a2.26,2.26,0,0,1-2.39,1.261,19,19,0,0,1-4.683-1.335.893.893,0,0,1-.422-.652,21.813,21.813,0,0,1,.225-3.655,56.7,56.7,0,0,0,.728-6.5c.169-2.175.493-4.338.771-6.5.435-3.383.9-6.763,1.329-10.147.19-1.49.284-2.993.522-4.474a6.593,6.593,0,0,1,.721-1.869.8.8,0,0,1,.7-.242,2.4,2.4,0,0,1,1.1.463,11.674,11.674,0,0,1,2,2.024,13.391,13.391,0,0,0,8.409,5.414,31.78,31.78,0,0,1,4.688,1.423,18.815,18.815,0,0,1,2.187,1.094,1.479,1.479,0,0,1,.791,1.338,17.716,17.716,0,0,1-.161,2.032,1.147,1.147,0,0,1-1.216,1.074,1.127,1.127,0,0,1-.225-.037c-.652-.191-1.284-.455-1.943-.618a5.478,5.478,0,0,0-1.214-.061,1.02,1.02,0,0,0-.86,1.158,6.774,6.774,0,0,0,4.554,4.849c.647.2,1.316.32,1.973.49m2.689,4.764a.8.8,0,0,1,1.09.106c.22.358.244.94.02,1.123-.417.342-.872.641-1.265,1.009-.661.623-1.29,1.28-1.931,1.924h.015l0,0c.009.027.022.052.031.078.643.035,1.292.035,1.925.134a2.561,2.561,0,0,1,2.328,1.98c.425,1.581.985,3.126,1.474,4.69a1.756,1.756,0,0,1-.935,1.67.5.5,0,0,1-.692-.145l-.011-.018a1,1,0,0,1-.2-.348,16.99,16.99,0,0,0-3.064-6.2,8.915,8.915,0,0,1-.822-1.761l-.117-.006h0l.073-.074-1.562,0c-.019.03-.04.057-.059.087l-.072-.087h.131c.994-1.58,2.543-2.673,3.648-4.158m-1.193-6.034c.538-1.3,1.043-2.55,1.569-3.788.19-.448,1.055-.416,1.349.046.14.22.361.455.363.687a23.012,23.012,0,0,1-.44,6.015.388.388,0,0,1-.277.231,1.483,1.483,0,0,1-.741-.071,1.415,1.415,0,0,1-.535-.577c-.442-.824-.849-1.67-1.288-2.543Zm5.124,10.5c.108-.045.238-.152.319-.121.342.123.376.338.083.53a.389.389,0,0,1-.35-.077c-.064-.059-.038-.217-.051-.331Zm45.371-33.48a96.6,96.6,0,0,1-1.706,12.579c-.554,2.973-1.48,5.824-2.261,8.727a120.49,120.49,0,0,1-4.668,13.56,34.48,34.48,0,0,1-1.562,3.34c-.16.3-.581.459-.9.676.019.036.033.076.054.111l0,0-.178.088.089-.177,0,0c.011-.008.024-.015.035-.022a2.623,2.623,0,0,1-.123-.258c-1.03-3.528-1.566-3.242-4.083-1.6-1.257.822-2.457,1.731-3.723,2.538a3.112,3.112,0,0,1-1.108.192c.008.023.011.047.02.069l-.047-.048.044.046-.192.105.129-.172,0,0c.015,0,.029,0,.043,0a3.963,3.963,0,0,1-.086-2.348,2.553,2.553,0,0,1,1.347-1.938c1.32-.724,2.643-1.447,3.925-2.234a13.269,13.269,0,0,0,5.606-6.355,6.2,6.2,0,0,0,.426-2.805c-.051-.81-.777-1.313-1.381-.879-1.889,1.354-3.753,2.741-5.625,4.118-.548.4-1.07.848-1.646,1.205-.152.1-.474-.03-.695-.114-.094-.036-.173-.225-.182-.35a5.571,5.571,0,0,1,.911-3.653c.565-.105,1.23-.219,1.889-.354a11.556,11.556,0,0,0,6.652-3.779,7.675,7.675,0,0,0,.855-1.385,1.329,1.329,0,0,0-.661-1.705c-.394-.1-.815-.105-1.214-.191-1-.215-1.262-.568-1.041-1.347.409-1.448.9-2.88,1.2-4.352a6.3,6.3,0,0,0-.239-4.025c-.164-.354-.769-.541-1.009-.272a7.351,7.351,0,0,0-.81.915c-.8,1.272-1.562,2.57-2.349,3.851-.285.462-.593.911-.913,1.35-.067.092-.32.18-.348.149-.152-.177-.388-.4-.373-.591.159-2.045.389-4.084.538-6.13a3.471,3.471,0,0,1,1.445-2.809,14.03,14.03,0,0,0,4.6-5.677,5.859,5.859,0,0,0,.479-3.993.971.971,0,0,0-.464-.6.86.86,0,0,0-.744.078c-.528.426-.981.942-1.491,1.392a15.23,15.23,0,0,1-1.285.989c-.1.069-.332.1-.391.039a1.376,1.376,0,0,1-.414-.628,3.855,3.855,0,0,1,.444-2.384c.546-1.1,1.149-2.171,1.755-3.238a9.86,9.86,0,0,0,1.461-3.795,1.211,1.211,0,0,0-.3-.724.861.861,0,0,0-1.1.029c-.578.754-1.137,1.522-1.717,2.274a.841.841,0,0,1-1.113-.043c-.765-.954-1.5-1.938-2.317-2.844a1.8,1.8,0,0,0-1.095-.392c-.161-.016-.513.326-.5.488a2.522,2.522,0,0,0,.347,1.145c1.017,1.619,2.113,3.191,3.094,4.833a2.7,2.7,0,0,1,.255,1.569c-.085.8-.272,1.622-1.214,1.933-.655-.307-.937-.967-1.379-1.475a12.509,12.509,0,0,0-5.418-3.57,2.5,2.5,0,0,0-.81-.017c-.345,0-.789.613-.643.88a23.478,23.478,0,0,0,5.363,6.689c.623.533,1.28,1.029,1.872,1.593a2.548,2.548,0,0,1,.513,3.017.867.867,0,0,1-1.012.422c-.611-.3-1.23-.6-1.818-.943a13.011,13.011,0,0,0-5.892-1.56,2.166,2.166,0,0,0-1.138.367.7.7,0,0,0-.2.662,5.876,5.876,0,0,0,1.053,1.232,48.551,48.551,0,0,0,7.216,5.414,2.032,2.032,0,0,1,1.046,2.079c-.146,1.218-.376,2.429-.607,3.632a.759.759,0,0,1-1.265.393c-.888-.639-1.767-1.291-2.658-1.923a2.211,2.211,0,0,0-.725-.376.968.968,0,0,0-.73.059.825.825,0,0,0-.264.708,20.968,20.968,0,0,0,1.041,2.655c2.2,4.465,2.5,9.191,1.942,14.029a9.027,9.027,0,0,1-.651,1.933.689.689,0,0,1-.947.227.646.646,0,0,1-.075-.054,31.547,31.547,0,0,1-3.893-6.717c-.07-.166-.433-.235-.672-.287-.081-.017-.229.147-.3.258a2.926,2.926,0,0,0-.394.713,9.088,9.088,0,0,0,.078,5.653,11.089,11.089,0,0,0,3.31,5.1c.519.442,1.06.86,1.55,1.333a1.288,1.288,0,0,1,.361.714,4.788,4.788,0,0,1-.661,3.536.673.673,0,0,1-.947.092.635.635,0,0,1-.079-.077c-.543-.788-1.034-1.619-1.63-2.364a9.718,9.718,0,0,0-5.733-3.72,1.164,1.164,0,0,0-1.41,1.447c.276,1.055.635,2.087.938,3.137a.944.944,0,0,1-.283,1.1c-.347.272-.789-.072-1.068-.837-.047-.129-.074-.264-.12-.393-.318-.9-.618-1.814-.966-2.706-.195-.5-.472-.961-.77-1.562-.528.378-.957.7-1.4.993-.092.061-.341.066-.365.018a1.546,1.546,0,0,1-.253-.739,2.554,2.554,0,0,1,1.15-1.629,10.961,10.961,0,0,0,3.318-5.56,6.523,6.523,0,0,0-.914-5.869,3.821,3.821,0,0,0-.614-.532.746.746,0,0,0-1.046.127l-.023.031a12.751,12.751,0,0,0-.88,1.83c-.461,1.428-.824,2.888-1.273,4.32a.909.909,0,0,1-.589.481.839.839,0,0,1-.722-.176c-.484-.655-.865-1.386-1.344-2.045a6.781,6.781,0,0,0-1.129-1.177.975.975,0,0,0-.748-.18,1.063,1.063,0,0,0-.567.5,2.31,2.31,0,0,0-.205.781c-.108.676-.152,1.366-.3,2.031a7.923,7.923,0,0,0-.016,3.658,8.474,8.474,0,0,1,.082,1.476c.036.019.067.042.1.06l.008-.007c-.005.071,0,.142,0,.214,1.068,1.124,1.894,2.483,3.255,3.324.088.054.163.313.119.361-.159.176-.359.4-.568.432-1.222.158-1.9-.217-2.249-1.186a6.685,6.685,0,0,1-.558-2.931c-.035-.037-.069-.076-.1-.113l-.005,0c0-.053,0-.105,0-.158a7.881,7.881,0,0,1-2.636-2.889,1.425,1.425,0,0,1-.08-1.161,8.883,8.883,0,0,0,.839-4.375c-.079-.883-.883-1.923.091-2.668.724-.552,1.554.171,2.343.229,1.085.079,2.176.078,3.267.07a.951.951,0,0,0,.805-1.078.983.983,0,0,0-.027-.126,2.977,2.977,0,0,0-.146-.375,42.838,42.838,0,0,1-4.033-6.663,5.7,5.7,0,0,0-3.172-3.064,1.1,1.1,0,0,0-1.389.464c-.693,1-.557,2.446-1.731,3.171a.56.56,0,0,1-.39.1.456.456,0,0,1-.264-.293,3.238,3.238,0,0,1-.124-1.173c.161-.8.471-1.569.649-2.368a1.577,1.577,0,0,0-.423-1.512c-.486-.481-1-.931-1.509-1.389a9.9,9.9,0,0,1-2.944-4.845c-.288-1.057-.539-2.125-.87-3.167a11.107,11.107,0,0,0-.814-1.866.935.935,0,0,0-.648-.416.848.848,0,0,0-.661.318,10.627,10.627,0,0,0-.745,1.45c-.852,1.868-1.665,3.754-2.558,5.6a4.038,4.038,0,0,1-1.063,1.2.849.849,0,0,1-.759.081c-.191-.091-.432-.48-.373-.631.737-1.91,1.525-3.8,2.3-5.7.412-1.012.824-2.024,1.223-3.039a1.242,1.242,0,0,0-.578-1.395,10.4,10.4,0,0,0-1.945-.624,10.95,10.95,0,0,1-6.721-3.625,8.792,8.792,0,0,0-1.585-1.277.8.8,0,0,0-.74.068,3.059,3.059,0,0,0-.769.941c-.57,1.09-1.073,2.216-1.646,3.305a2.922,2.922,0,0,1-.782.915.839.839,0,0,1-.739.069.809.809,0,0,1-.41-.627,7.75,7.75,0,0,1,.517-1.962c.9-1.992,1.877-3.953,2.866-6.015a33.6,33.6,0,0,0-2.926-5.785,1.932,1.932,0,0,0-1.746-.893,5.218,5.218,0,0,0-1.619.178,11.419,11.419,0,0,0-7.651,7.969c-.973,3.531-.431,7.512,3.515,10.115.342.226.713.407,1.046.644a2,2,0,0,1,.85,1.355c.279,2.033.631,4.067.733,6.111.156,3.144.135,6.3.177,9.446a14.786,14.786,0,0,1-.051,2.052c-.571,4.482-.607,9.014-1.324,13.483-.433,2.7-.767,5.418-1.157,8.125a1.65,1.65,0,0,1-.9,1.283.477.477,0,0,1-.663-.118.5.5,0,0,1-.028-.046,3.324,3.324,0,0,1-.323-1.985c.045-4.519.124-9.037.152-13.556a17.629,17.629,0,0,0-.268-2.417c-.008-.057-.191-.13-.289-.125a.5.5,0,0,0-.354.141,1.863,1.863,0,0,0-.354.716,82.068,82.068,0,0,0-1.168,11.84c.007,1.775-.181,3.554-.343,5.325a2.427,2.427,0,0,1-.541,1.044.4.4,0,0,1-.708-.012,2.689,2.689,0,0,1-.524-1.062,39.279,39.279,0,0,1-.4-4.082c-.2-6.983-.469-13.962-.484-20.943-.015-6.844.1-13.7.434-20.532.265-5.462.586-10.934,1.333-16.365.392-2.846.673-5.707,1.076-8.552a44.64,44.64,0,0,1,3.123-11.448,11.71,11.71,0,0,1,.755-1.445,1.609,1.609,0,0,1,2.483-.2,11.569,11.569,0,0,1,1.028,1.275c.377.569.691,1.18,1.033,1.771a6.157,6.157,0,0,0,5.465,3.073c.816.036,1.638-.1,2.459-.11.954-.011,1.908.025,2.862.051a8.024,8.024,0,0,1,4.595,1.55,17.034,17.034,0,0,0,5.137,2.517,6.211,6.211,0,0,0,2.024.105c.145-.007.364-.378.386-.6a1.187,1.187,0,0,0-.227-.766c-1.5-1.952-3-3.906-4.549-5.819a8.981,8.981,0,0,0-3.542-2.728.967.967,0,0,0-1.069.376c-.321.428-.607.883-.961,1.282-.247.279-.945.058-.978-.291-.064-.673-.063-1.357-.188-2.018-.072-.382-.245-.922-.531-1.059-2.9-1.379-4.541-3.857-5.9-6.6a.535.535,0,0,0-.961-.027c-.318.445-.595.919-.925,1.353a11.078,11.078,0,0,1-.829.9c-.232.242-.958.231-1.1-.043-.119-.225-.283-.557-.2-.737.446-.994.946-1.964,1.457-2.926,1.128-2.126,1.164-3.188-1.377-4.7a39.063,39.063,0,0,0-4.07-1.945,1.381,1.381,0,0,0-2.024.738c-.419,1.012-.783,2.043-1.2,3.052a3.451,3.451,0,0,1-.628,1.029c-.12.128-.464.083-.7.051a.4.4,0,0,1-.246-.3,16.735,16.735,0,0,1,.281-2.418,35.237,35.237,0,0,1,1.044-3.542,2.783,2.783,0,0,0-.8-2.982,1.189,1.189,0,0,0-1.473-.335,15.2,15.2,0,0,0-8.991,11,10,10,0,0,0-.171,2.45,6.159,6.159,0,0,0,2.844,5.185,28.534,28.534,0,0,0,2.6,1.441,8.29,8.29,0,0,1,.208,1.549c-.133,2.871-.354,5.739-.465,8.61-.145,3.831-.266,7.663-.3,11.5-.048,4.793-.084,9.583-.577,14.359-.126,1.223-.126,2.462-.139,3.694q-.1,9.859-.179,19.718c-.04,5.2-.048,10.4-.455,15.6-.31,3.955-.253,7.937-.388,11.905a13.845,13.845,0,0,1-.313,2c-.008.038-.253.1-.288.056a1.912,1.912,0,0,1-.436-.64,26.965,26.965,0,0,1-.938-8.533c.088-2.327.141-4.655.137-6.983a24.439,24.439,0,0,0-2.845-11.026c-.307-.611-.658-1.2-1-1.792a8.453,8.453,0,0,1-.844-6.35c.28-1.2.681-2.372.911-3.579a32.644,32.644,0,0,0,.727-4.857,13.961,13.961,0,0,0-6.1-12.336c-.658-.487-1.413-.852-2.048-1.366a18.768,18.768,0,0,1-2.413-2.211,8.35,8.35,0,0,1-2.122-4.807c-.171-1.91-.341-3.819-.543-5.725a14.742,14.742,0,0,0-3.958-8.4,9.1,9.1,0,0,0-4.932-2.759,4.1,4.1,0,0,0-1.221-.108,10.667,10.667,0,0,0-5.042,1.555,1.341,1.341,0,0,0-.652,1.392,96.264,96.264,0,0,1,1.98,11.732,10.46,10.46,0,0,0,3.055,6.137,31.292,31.292,0,0,0,2.483,2.143c.844.7,1.705,1.376,2.564,2.055,3.078,2.435,4.1,5.727,3.79,9.482a34.536,34.536,0,0,1-.911,4.408c-.349,1.6-.806,3.187-1.037,4.807a6.476,6.476,0,0,0,1.111,4.684,19.422,19.422,0,0,0,3.049,3.85c.513.451.987.949,1.456,1.448a8.946,8.946,0,0,1,2.534,5.48,30.664,30.664,0,0,1,.139,4.1,8.187,8.187,0,0,0,.992,4.335c.892,1.694,1.825,3.368,2.694,5.073a27.523,27.523,0,0,1,2.884,7.648,25.411,25.411,0,0,0,1.3,3.883.575.575,0,0,1-.217.725.809.809,0,0,1-1.063-.152,9.833,9.833,0,0,1-2.015-3.065c-.291-.618-.517-1.268-.751-1.91q-.637-1.733-1.247-3.477a29.062,29.062,0,0,0-3.137-6.672,12.084,12.084,0,0,1-1.989-6.583c-.026-.958-.058-1.917-.135-2.871a7.6,7.6,0,0,0-2.125-4.773c-1.321-1.387-2.591-2.824-3.858-4.262a9.843,9.843,0,0,1-1.8-3.2,11.305,11.305,0,0,1-.354-6.862c.477-1.853,1.093-3.67,1.617-5.515a7.27,7.27,0,0,0-2.066-7.485c-1.123-1-2.3-1.943-3.5-2.856a19.281,19.281,0,0,1-4.389-4.845,11.762,11.762,0,0,1-2.024-5.313c-.166-1.632-.408-3.257-.658-4.879-.291-1.892-.574-3.788-.961-5.663a4.755,4.755,0,0,0-2.41-3.167,17.612,17.612,0,0,0-6.575-2.186,5.855,5.855,0,0,0-2.04.083,15.36,15.36,0,0,0-5.667,2.3,9.1,9.1,0,0,0-4.206,8.4,7.9,7.9,0,0,0,3.735,6.5,18.406,18.406,0,0,0,4.114,1.832c.9.318,1.827.574,2.741.86a4.921,4.921,0,0,1,2.539,1.98,3.77,3.77,0,0,1,.436,3.887,15.949,15.949,0,0,1-1.171,2.158c-.362.578-.819,1.1-1.217,1.654a7.755,7.755,0,0,0-.961,7.058c.835,2.816,3.008,4.139,5.731,4.64,1.883.346,3.795.527,5.695.782a6.318,6.318,0,0,1,3.273,1.6,4.018,4.018,0,0,1,1.514,3.228,5.731,5.731,0,0,1-1.826,4.414c-.708.646-1.453,1.259-2.1,1.962a6.992,6.992,0,0,0-1.59,7.241,14.389,14.389,0,0,0,3.327,5.6,25.477,25.477,0,0,0,5.718,4.646,35.256,35.256,0,0,1,5.566,4.194,8.721,8.721,0,0,1,1.048,1.25.392.392,0,0,1,.018.366c-.148.208-.331.515-.533.54a9.116,9.116,0,0,1-5.221-.61,10.773,10.773,0,0,0-2.682-.994,7.94,7.94,0,0,0-5.585.673,8.411,8.411,0,0,1-1.117.519,4.282,4.282,0,0,1-3.947-.168c-.354-.2-.695-.423-1.021-.624a7.785,7.785,0,0,1-1.029-3.112,2.766,2.766,0,0,1,.354-2.366c1.435-2.074,1.426-4.388,1.1-6.726a13.488,13.488,0,0,0-3.325-7.368,1.216,1.216,0,0,0-.688-.391c-.223-.025-.626.1-.68.256a6.125,6.125,0,0,0-.465,1.959c.008,1.363.188,2.725.25,4.089a1.253,1.253,0,0,1-.346.692c-.143.181-.877-.15-1.057-.46a9.482,9.482,0,0,1-.6-1.072c-.473-1.136-.977-2.265-1.349-3.434-.775-2.429-1.022-2.743,1.444-4.376a13.752,13.752,0,0,0,4.435-4.767,4.556,4.556,0,0,0,.484-1.125.954.954,0,0,0-.152-.735.966.966,0,0,0-.7-.326,2.708,2.708,0,0,0-1.173.289c-1.189.67-2.342,1.4-3.512,2.107a.709.709,0,0,1-.945-.333.778.778,0,0,1-.042-.11c-.18-1.077-.354-2.154-.515-3.234a13.851,13.851,0,0,0-1.46-4.25,9.477,9.477,0,0,0-4.305-4.25,2.251,2.251,0,0,0-1.184-.076c-.411.048-.669.7-.627,1.355a25.876,25.876,0,0,0,2.636,9.851c.9,1.842,1.859,3.66,2.764,5.5a12.35,12.35,0,0,1,.547,1.522c.113.337-.375.869-.722.783-.662-.163-1.336-.3-1.977-.524a8.068,8.068,0,0,0-4.051-.233.925.925,0,0,0-.557.527.882.882,0,0,0,.051.741,4.636,4.636,0,0,0,1.146,1.145c1.164.716,2.374,1.351,3.571,2.01,1.078.593,2.176,1.149,3.241,1.767a6.739,6.739,0,0,1,2.361,2.248q1.738,2.785,3.366,5.639a3.041,3.041,0,0,1,.111,1.05c.031.016.061.034.092.05l-.1.1c.006-.049.007-.1.01-.146a10.5,10.5,0,0,1-1.281-.76c-1.063-.86-2.075-1.779-3.125-2.654a10.749,10.749,0,0,0-1.022-.68.82.82,0,0,0-1.092.1c-.141.22-.333.51-.291.728a16.886,16.886,0,0,0,2.575,6.426,8.4,8.4,0,0,1,.878,1.817.75.75,0,0,1-.292.668,11.984,11.984,0,0,1-7.174,1.066,3.876,3.876,0,0,1-3.16-2.322c-.506-1.122-1.113-2.2-1.563-3.345a111.868,111.868,0,0,1-5.44-16.321c-1.2-5.337-2.558-10.63-3.253-16.069a85.119,85.119,0,0,1-.458-11.469c.95-7.5,2.417-14.832,6.541-21.381,1.673-2.658,3.026-5.516,5-7.988.428-.533.79-1.122,1.241-1.633a88.055,88.055,0,0,1,14.24-13.547,131.1,131.1,0,0,1,17.2-10.36,78.942,78.942,0,0,0,9.962-5.694c1.781-1.265,3.522-2.6,5.176-4.026a30.451,30.451,0,0,0,3.115-3.258,17.79,17.79,0,0,0,3.766-7.2,123.739,123.739,0,0,0,2.727-13.662c.1-.673.235-1.343.389-2.007a1.848,1.848,0,0,1,1.428-1.3,16.054,16.054,0,0,1,1.635-.118q8.413,0,16.828.023c.273,0,.545.038.818.063a1.493,1.493,0,0,1,1.448,1.2c.261,1.481.551,2.961.729,4.453.325,2.715.6,5.436.86,8.159a19.5,19.5,0,0,0,4.1,10.129,23.887,23.887,0,0,0,3.665,3.86,61.684,61.684,0,0,0,8.984,6.456c2.024,1.144,4.048,2.289,6.055,3.458,4.725,2.752,9.489,5.444,14.151,8.3a59.619,59.619,0,0,1,14.04,11.875,90.387,90.387,0,0,1,8.743,11.371,40.619,40.619,0,0,1,5.383,11.906c.318,1.328.764,2.625,1.107,3.947a57.769,57.769,0,0,1,1.461,16.673M424.6,334.456a11.945,11.945,0,0,1-5.017-.918l.475-2.136a10.262,10.262,0,0,0,4.448.981,6.478,6.478,0,0,0,3.347-.768,2.3,2.3,0,0,0,1.29-2.034,2.153,2.153,0,0,0-.641-1.528,7.753,7.753,0,0,0-3.015-1.4q-1.915-.585-2.817-.878a5.885,5.885,0,0,1-1.678-.862,3.952,3.952,0,0,1,.285-6.521,8.775,8.775,0,0,1,4.951-1.251,16.616,16.616,0,0,1,4.433.681l-.556,2.075a12.557,12.557,0,0,0-3.909-.681,6.4,6.4,0,0,0-3.182.672,2.022,2.022,0,0,0-1.171,1.8,1.688,1.688,0,0,0,.538,1.242,5.306,5.306,0,0,0,2.153.99l2.358.681a10.385,10.385,0,0,1,2.66,1.1,4.381,4.381,0,0,1,1.543,1.552,4.226,4.226,0,0,1,.517,2.113,4.3,4.3,0,0,1-1.979,3.727,8.651,8.651,0,0,1-5.034,1.369" transform="translate(-71.253 -67.869)" fill="#252f28"/><path d="M812.842,779.568c-.013-.175-.268-.4-.46-.474a.76.76,0,0,0-.658.069,5.055,5.055,0,0,0-.886,1.113,23.155,23.155,0,0,0-2.544,8.22c-.1.67-.165,1.345-.231,2.021q1.642-1.64,3.246-3.317.748-3.1,1.44-6.21a4.994,4.994,0,0,0,.093-1.422" transform="translate(-399.194 -384.861)" fill="#252f28"/><path d="M585.663,757.159c-.868-1.225-1.764-2.437-2.739-3.577-1.154-1.35-2.4-2.621-3.616-3.921a5.377,5.377,0,0,1-1.462-3.312c-.078-.954-.117-1.911-.141-2.868a9.72,9.72,0,0,0-2.79-6.651,31.254,31.254,0,0,0-3.281-3.09,12.118,12.118,0,0,1-4.275-6.349,15.921,15.921,0,0,0-.653-1.942c-.705-1.63-1.417-3.26-2.2-4.852a10.027,10.027,0,0,0-4.25-4.317,7.429,7.429,0,0,0-9.563,1.869,15.966,15.966,0,0,0-1.518,2.429,8.267,8.267,0,0,0-.451,5.991,3.735,3.735,0,0,0,.614,1.054,1.593,1.593,0,0,0,1.792.64c1.161-.4,2.3-.874,3.465-1.268a18.4,18.4,0,0,1,2.361-.626c.2-.038.5.183.68.358.235.225.04.872-.271,1.05-.118.068-.225.161-.348.217-1.124.5-2.226,1.058-3.381,1.474-2.242.807-2.07,1.711-.994,3.356.748,1.145,1.506,2.287,2.337,3.371a6.369,6.369,0,0,0,1.5,1.361,1.6,1.6,0,0,0,1.143.2,6.263,6.263,0,0,0,1.48-.687c1.192-.653,2.362-1.347,3.57-1.97.152-.078.552.109.69.287a.717.717,0,0,1,.016.694c-.911.813-1.868,1.576-2.809,2.355a.618.618,0,0,0,.247.973c.911.275,1.828.532,2.743.794a7.939,7.939,0,0,1,5.677,5.424,15.6,15.6,0,0,0,.869,2.3,1.39,1.39,0,0,0,.989.6,15.356,15.356,0,0,0,2.256-.157v0c.468.021,1.153.026,1.831.093a1.417,1.417,0,0,1,.739.3,1.014,1.014,0,0,1,.376.667.74.74,0,0,1-.443.557c-.8.17-1.619.231-2.421.381a8.411,8.411,0,0,0-1.159.39,1.027,1.027,0,0,0-.506,1.361h0a4.722,4.722,0,0,0,2.3,2.248c1.214.619,2.484,1.136,3.715,1.727a7.121,7.121,0,0,1,3.449,3.381c.655,1.354,1.291,2.717,1.982,4.052.5.965,1.072,1.9,1.629,2.833a.633.633,0,0,0,1.048-.026,6.541,6.541,0,0,0,1.09-6.178,11.487,11.487,0,0,0-1.324-2.985" transform="translate(-270.906 -353.363)" fill="#252f28"/><path d="M558.542,670.956a.414.414,0,0,0,.708-.041,3.376,3.376,0,0,0,.6-1.029,3.969,3.969,0,0,0-.163-2.418,21.778,21.778,0,0,0-2.308-4.785,23.835,23.835,0,0,1-1.518-2.429,5,5,0,0,1-.509-3.574c.3-1.331.617-2.661.9-4,.143-.664.241-1.338.348-1.95v0a10.75,10.75,0,0,0-1.555-4.691,6.082,6.082,0,0,0-3.174-2.463,13.5,13.5,0,0,0-3.2-.648,21.484,21.484,0,0,1-3.224-.5,5.028,5.028,0,0,1-3.478-3.21,15.582,15.582,0,0,1-.791-2.752,6.9,6.9,0,0,0-2.325-3.765,5.17,5.17,0,0,0-5.726-.735,8.486,8.486,0,0,0-3.429,2.847,30.594,30.594,0,0,0-1.68,2.807c-.983,1.844-.832,2.8.529,4.47a8.522,8.522,0,0,0,3.565,2.674,3.359,3.359,0,0,0,3.491-.368c.857-.672,1.7-1.366,2.581-2,.156-.112.506-.031.735.051.36.124.417.735.115,1.073-.633.708-1.3,1.393-1.9,2.131a.88.88,0,0,0-.034.753,3.164,3.164,0,0,0,.677,1.006,11.886,11.886,0,0,1,3.295,5.575,15.792,15.792,0,0,0,.563,1.538,1.056,1.056,0,0,0,1.328.576c.712-.4,1.425-.8,2.119-1.235,1.044-.649,2.06-1.341,3.11-1.98a1.666,1.666,0,0,1,1.911-.047c.418.435.035,1.389-.9,1.973-1.156.719-2.387,1.316-3.537,2.044a12.361,12.361,0,0,0-1.514,1.334c.21.911.981,1.276,1.691,1.652.843.446,1.743.784,2.6,1.2a17.222,17.222,0,0,1,5.243,3.872,24.752,24.752,0,0,1,3.536,5.006,19.157,19.157,0,0,0,1.316,2.036" transform="translate(-260.535 -311.932)" fill="#252f28"/><path d="M249.673,683.138c.115.019.23.1.339.085a8.985,8.985,0,0,1,5.442,1.452,6.654,6.654,0,0,0,5.531.313c.168-.051.274-.354.37-.557a.563.563,0,0,0-.02-.346,60.792,60.792,0,0,0-5.9-14.927c-.078-.132-.4-.138-.61-.157-.043-.005-.141.193-.152.3-.048.475-.073.952-.129,1.752v0c.158,1.11.365,2.527.563,3.944.3,2.113-.192,3.139-1.978,4.154-.623.354-1.28.653-1.878,1.045a8.634,8.634,0,0,0-1.371,1.139,3.912,3.912,0,0,0-.551.911c-.163.3.054.845.339.891" transform="translate(-123.147 -330.496)" fill="#252f28"/><path d="M825.712,764.23c-.411-.221-.862-.37-1.347-.575a3.6,3.6,0,0,0,.09,3.527,8.168,8.168,0,0,0,2.517,3.025c.121.1.247.183.371.274q2.392-2.834,4.677-5.76c-.248.057-.5.112-.742.183a7.165,7.165,0,0,1-5.566-.673" transform="translate(-407.038 -377.256)" fill="#252f28"/><path d="M294.693,764.811c-.574-.169-1.158-.3-1.733-.467a7.386,7.386,0,0,1-2.817-1.532,18.525,18.525,0,0,0-1.657-1.371,5.787,5.787,0,0,0-3.367-1.051c-1.984.014-2.287.242-2.307,2.226-.015,1.435.013,2.872.051,4.307a1.259,1.259,0,0,0,.735,1.142,21.125,21.125,0,0,1,3.39,2.011,8.4,8.4,0,0,0,3.252,1.4h0c2.858-.474,4.283-2.433,5.212-4.917.013-.029.024-.058.034-.088a1.3,1.3,0,0,0-.793-1.655" transform="translate(-139.711 -375.643)" fill="#252f28"/><path d="M298.517,744.929a4.658,4.658,0,0,0-2.682-.916,12.392,12.392,0,0,0-2.851.292,7.388,7.388,0,0,1-5.54-.9c-.855-.435-1.64-1.009-2.506-1.417a3.586,3.586,0,0,0-1.4-.188,1.091,1.091,0,0,0-.969.911c-.018.955-.006,1.912-.006,2.753h0c.1,1.194.17,2.272.3,3.343a.755.755,0,0,0,.463.506,13.542,13.542,0,0,0,1.766.3,8.9,8.9,0,0,1,5.527,2.34,9.815,9.815,0,0,0,2.075,1.421,4.5,4.5,0,0,0,1.358.429.842.842,0,0,0,.648-.17.722.722,0,0,0,.18-.614c-.14-.455-.393-.873-.564-1.321a16.607,16.607,0,0,1-.57-1.7,1.771,1.771,0,0,1,1.083-2.041c.671-.258,1.374-.435,2.041-.7a12.756,12.756,0,0,0,1.6-.8.921.921,0,0,0,.044-1.515" transform="translate(-139.589 -366.454)" fill="#252f28"/><path d="M826.534,655.414a3.136,3.136,0,0,0,1.062.135c1.195-.068,2.392-.131,3.578-.281a5.617,5.617,0,0,1,4.383,1.19c.563.447,1.071.967,1.654,1.384s1.223.747,1.844,1.1c.233.134.737-.3.69-1.461v-.012h0a.074.074,0,0,0,0,.012c.036.477.041.12-.022-.226-.433-2.357-.933-4.7-1.313-7.068-.79-4.93-2.869-9.377-5.066-13.783-.259-.519-.543-1.193-1.189-1.232-.85-.051-1.123.759-1.485,1.358a6.168,6.168,0,0,0-.8,3.46,8.535,8.535,0,0,0,1.08,4.135,22.446,22.446,0,0,1,1.351,2.535,2.922,2.922,0,0,1-1.167,3.767c-.9.6-1.839,1.13-2.747,1.712a7.264,7.264,0,0,0-2.366,2.166.813.813,0,0,0,0,.666.914.914,0,0,0,.513.438" transform="translate(-408.031 -313.786)" fill="#252f28"/><path d="M287.729,721.054a8.088,8.088,0,0,0-1.429-.173,2.618,2.618,0,0,0-1.7.465c-.975.692-1.946,1.388-3.146,2.245h0a12.34,12.34,0,0,0,.13,4.4,1.275,1.275,0,0,0,1.2,1.141,8.225,8.225,0,0,1,3.39,1.133c.638.335,1.245.728,1.872,1.082a4.942,4.942,0,0,0,4.155.534,8.511,8.511,0,0,1,5.309.1.673.673,0,0,0,.6-.248.848.848,0,0,0-.113-.658,4.966,4.966,0,0,0-1.822-1.708c-.5-.323-1.056-.566-1.585-.85-2.488-1.34-3.032-2.908-1.987-5.671a21.433,21.433,0,0,0,.667-2.039.832.832,0,0,0-.158-.658.694.694,0,0,0-.6-.158,4.01,4.01,0,0,0-.975.455,4.9,4.9,0,0,1-3.807.6" transform="translate(-138.96 -355.681)" fill="#252f28"/><path d="M847.738,646.131c.49,2.36.368,2.663,3.014,1.312a10.762,10.762,0,0,1,3.811-.967,4.784,4.784,0,0,0,3.6-2.125c.335-.5.7-.972,1.015-1.483a2.865,2.865,0,0,0,.178-.8,2.388,2.388,0,0,0-.45-.829,5.935,5.935,0,0,0-1.522-.931c-.888-.357-1.83-.577-2.728-.911-2.214-.822-4.04-2.058-4.878-4.434a10.036,10.036,0,0,0-2.055-3.359,5.643,5.643,0,0,0-3.4-1.869,2.462,2.462,0,0,0-2.283.765.822.822,0,0,0-.231.638,7.108,7.108,0,0,0,.578,1.31,51.337,51.337,0,0,1,5.353,13.679" transform="translate(-415.863 -311.079)" fill="#252f28"/><path d="M853.213,679.246v.011a.075.075,0,0,1,0-.011Z" transform="translate(-421.499 -335.557)" fill="#252f28"/><path d="M824.773,763.65h0l0,0Z" transform="translate(-407.449 -377.252)" fill="#252f28"/><path d="M855.273,709.511v0h0Z" transform="translate(-422.517 -350.508)" fill="#252f28"/><path d="M876.486,654.156h0Z" transform="translate(-432.996 -323.162)" fill="#252f28"/><path d="M211.209,709.5h0v0Z" transform="translate(-104.34 -350.503)" fill="#252f28"/><path d="M190,654.151Z" transform="translate(-93.863 -323.159)" fill="#252f28"/><path d="M241.7,763.645h0l.006,0Z" transform="translate(-119.404 -377.25)" fill="#252f28"/><path d="M213.271,679.24v0Z" transform="translate(-105.359 -335.554)" fill="#252f28"/><path d="M423.185,843.729c-.031-.015-.061-.034-.092-.049,0,.049,0,.1-.009.146Z" transform="translate(-209.009 -416.789)" fill="#252f28"/></g></g></g></g></svg>